G75*
%MOIN*%
%OFA0B0*%
%FSLAX24Y24*%
%IPPOS*%
%LPD*%
%AMOC8*
5,1,8,0,0,1.08239X$1,22.5*
%
%ADD10C,0.0709*%
%ADD11OC8,0.0560*%
%ADD12OC8,0.0520*%
%ADD13OC8,0.0600*%
%ADD14OC8,0.0657*%
%ADD15C,0.0100*%
%ADD16C,0.0400*%
D10*
X007904Y018778D02*
X007904Y019487D01*
X008904Y019487D02*
X008904Y018778D01*
X009904Y018778D02*
X009904Y019487D01*
X010904Y019487D02*
X010904Y018778D01*
X011904Y018778D02*
X011904Y019487D01*
X012904Y019487D02*
X012904Y018778D01*
X013904Y018778D02*
X013904Y019487D01*
X014904Y019487D02*
X014904Y018778D01*
X015904Y018778D02*
X015904Y019487D01*
X016904Y019487D02*
X016904Y018778D01*
X017904Y018778D02*
X017904Y019487D01*
X018904Y019487D02*
X018904Y018778D01*
X021298Y018778D02*
X021298Y019487D01*
X022298Y019487D02*
X022298Y018778D01*
X024404Y018778D02*
X024404Y019487D01*
X025404Y019487D02*
X025404Y018778D01*
X026404Y018778D02*
X026404Y019487D01*
X027404Y019487D02*
X027404Y018778D01*
X028404Y018778D02*
X028404Y019487D01*
X029404Y019487D02*
X029404Y018778D01*
X030404Y018778D02*
X030404Y019487D01*
X031404Y019487D02*
X031404Y018778D01*
X032404Y018778D02*
X032404Y019487D01*
X033404Y019487D02*
X033404Y018778D01*
X034404Y018778D02*
X034404Y019487D01*
X035404Y019487D02*
X035404Y018778D01*
D11*
X035893Y023739D03*
X036893Y023739D03*
X037893Y023739D03*
X037893Y024739D03*
X036893Y024739D03*
X035893Y024739D03*
X034893Y024739D03*
X033893Y024739D03*
X032893Y024739D03*
X031893Y024739D03*
X030893Y024739D03*
X029893Y024739D03*
X028893Y024739D03*
X028893Y023739D03*
X029893Y023739D03*
X030893Y023739D03*
X031893Y023739D03*
X032893Y023739D03*
X033893Y023739D03*
X034893Y023739D03*
X026499Y023739D03*
X025499Y023739D03*
X024499Y023739D03*
X023499Y023739D03*
X022499Y023739D03*
X021499Y023739D03*
X020499Y023739D03*
X019499Y023739D03*
X018499Y023739D03*
X017499Y023739D03*
X017499Y024739D03*
X018499Y024739D03*
X019499Y024739D03*
X020499Y024739D03*
X021499Y024739D03*
X022499Y024739D03*
X023499Y024739D03*
X024499Y024739D03*
X025499Y024739D03*
X026499Y024739D03*
X014999Y024739D03*
X013999Y024739D03*
X012999Y024739D03*
X011999Y024739D03*
X010999Y024739D03*
X009999Y024739D03*
X008999Y024739D03*
X007999Y024739D03*
X006999Y024739D03*
X005999Y024739D03*
X005999Y023739D03*
X006999Y023739D03*
X007999Y023739D03*
X008999Y023739D03*
X009999Y023739D03*
X010999Y023739D03*
X011999Y023739D03*
X012999Y023739D03*
X013999Y023739D03*
X014999Y023739D03*
D12*
X012692Y029207D03*
X010782Y029207D03*
X008873Y029207D03*
X008873Y033207D03*
X010782Y033207D03*
X012692Y033207D03*
X021042Y030888D03*
X025042Y030888D03*
D13*
X025735Y035495D03*
X026825Y035495D03*
X027905Y035495D03*
X028995Y035495D03*
X030085Y035495D03*
X028455Y036495D03*
X027365Y036495D03*
X026275Y036495D03*
X032795Y036495D03*
X033885Y036495D03*
X034975Y036495D03*
X036055Y036495D03*
X037145Y036495D03*
X038235Y036495D03*
X038775Y035495D03*
X037685Y035495D03*
X036605Y035495D03*
X035515Y035495D03*
X034425Y035495D03*
X033345Y035495D03*
X016127Y035495D03*
X015047Y035495D03*
X013967Y035495D03*
X012887Y035495D03*
X011807Y035495D03*
X012347Y036495D03*
X013427Y036495D03*
X014507Y036495D03*
X015587Y036495D03*
D14*
X029535Y036495D03*
X030625Y036495D03*
X031715Y036495D03*
X032255Y035495D03*
X031165Y035495D03*
D15*
X031086Y035570D01*
X031086Y036751D01*
X030298Y037538D01*
X013369Y037538D01*
X012385Y036554D01*
X012347Y036495D01*
X011991Y035963D02*
X011007Y035963D01*
X009629Y034585D01*
X025574Y034585D01*
X026361Y035373D01*
X026755Y035373D01*
X026825Y035495D01*
X026164Y035963D02*
X028526Y035963D01*
X028920Y035570D01*
X028995Y035495D01*
X028920Y035373D01*
X027936Y034388D01*
X018881Y034388D01*
X009432Y024940D01*
X009432Y024546D01*
X009038Y024152D01*
X009038Y023759D01*
X008999Y023739D01*
X009038Y023562D01*
X009038Y021199D01*
X011007Y019231D01*
X010904Y019133D01*
X010023Y019231D02*
X009904Y019133D01*
X010023Y019231D02*
X008054Y021199D01*
X008054Y023562D01*
X007999Y023739D01*
X008054Y023759D01*
X008448Y024152D01*
X008448Y024940D01*
X008841Y025333D01*
X009432Y025333D01*
X013172Y029073D01*
X013172Y029270D01*
X013960Y030058D01*
X012692Y029207D02*
X012582Y029270D01*
X010810Y029270D01*
X010782Y029207D01*
X010613Y029073D01*
X008054Y026514D01*
X008054Y024743D01*
X007999Y024739D01*
X007070Y024743D02*
X006999Y024739D01*
X007070Y024743D02*
X007070Y025924D01*
X009432Y028286D01*
X009432Y033207D01*
X008873Y033207D01*
X009432Y033207D02*
X010782Y033207D01*
X009629Y034585D02*
X007857Y032814D01*
X007857Y027105D01*
X006479Y025727D01*
X006479Y024152D01*
X006873Y023759D01*
X006999Y023739D01*
X007070Y023562D01*
X007070Y021199D01*
X009038Y019231D01*
X008904Y019133D01*
X007904Y019133D02*
X007857Y019231D01*
X006086Y021003D01*
X006086Y023562D01*
X005999Y023739D01*
X009999Y023739D02*
X010023Y023759D01*
X010023Y024152D01*
X010416Y024546D01*
X010416Y024743D01*
X019865Y034192D01*
X028723Y034192D01*
X029904Y035373D01*
X030085Y035495D01*
X030101Y035570D01*
X030101Y036751D01*
X029511Y037341D01*
X018093Y037341D01*
X016322Y035570D01*
X016127Y035495D01*
X016322Y034979D02*
X015928Y034979D01*
X015534Y035373D01*
X015141Y035373D01*
X015047Y035495D01*
X016322Y034979D02*
X018487Y037144D01*
X024983Y037144D01*
X026164Y035963D01*
X025735Y035495D02*
X025574Y035373D01*
X024983Y034782D01*
X012975Y034782D01*
X012385Y035373D01*
X011991Y035373D01*
X011807Y035495D01*
X011991Y035963D02*
X012385Y035570D01*
X012778Y035570D01*
X012887Y035495D01*
X019668Y032026D02*
X012582Y024940D01*
X012582Y024152D01*
X012188Y023759D01*
X011999Y023739D01*
X012188Y023562D01*
X012188Y021003D01*
X013960Y019231D01*
X013904Y019133D01*
X012975Y019231D02*
X012904Y019133D01*
X012975Y019231D02*
X011007Y021199D01*
X011007Y023562D01*
X010999Y023739D01*
X010023Y023562D02*
X009999Y023739D01*
X010023Y023562D02*
X010023Y021199D01*
X011991Y019231D01*
X011904Y019133D01*
X013172Y021003D02*
X014944Y019231D01*
X014904Y019133D01*
X015904Y019133D02*
X015928Y019231D01*
X014156Y021003D01*
X014156Y023562D01*
X013999Y023739D01*
X013172Y023562D02*
X012999Y023739D01*
X013172Y023562D02*
X013172Y021003D01*
X015141Y021003D02*
X016912Y019231D01*
X016904Y019133D01*
X017503Y019625D02*
X017897Y019231D01*
X017904Y019133D01*
X017503Y019625D02*
X017503Y023562D01*
X017499Y023739D01*
X017306Y023759D01*
X016912Y024152D01*
X016912Y024743D01*
X018487Y026318D01*
X018487Y029861D01*
X020456Y031829D01*
X032463Y031829D01*
X036007Y035373D01*
X036597Y035373D01*
X036605Y035495D01*
X037188Y035373D02*
X033448Y031633D01*
X020652Y031633D01*
X019078Y030058D01*
X019078Y024152D01*
X018684Y023759D01*
X018499Y023739D01*
X018684Y023562D01*
X018684Y019428D01*
X018881Y019231D01*
X018904Y019133D01*
X019668Y020806D02*
X021243Y019231D01*
X021298Y019133D01*
X019668Y020806D02*
X019668Y023562D01*
X019499Y023739D01*
X019668Y023759D01*
X020062Y024152D01*
X020062Y030648D01*
X020849Y031436D01*
X034235Y031436D01*
X038172Y035373D01*
X038763Y035373D01*
X038775Y035495D01*
X037685Y035495D02*
X037582Y035373D01*
X037188Y035373D01*
X034432Y035570D02*
X034425Y035495D01*
X034432Y035570D02*
X034432Y037538D01*
X032255Y035495D02*
X032070Y035373D01*
X028723Y032026D01*
X019668Y032026D01*
X020849Y030845D02*
X021042Y030888D01*
X020849Y030845D02*
X020849Y026318D01*
X022424Y024743D01*
X022499Y024739D01*
X023015Y024546D02*
X022621Y024152D01*
X022030Y024152D01*
X021637Y023759D01*
X021499Y023739D01*
X021637Y023562D01*
X021637Y022971D01*
X025377Y019231D01*
X025404Y019133D01*
X026361Y019231D02*
X026404Y019133D01*
X026361Y019231D02*
X022621Y022971D01*
X022621Y023562D01*
X022499Y023739D01*
X023499Y023739D02*
X023605Y023562D01*
X023605Y022971D01*
X027345Y019231D01*
X027404Y019133D01*
X028404Y019133D02*
X028526Y019231D01*
X024589Y023168D01*
X024589Y023562D01*
X024499Y023739D01*
X025499Y023739D02*
X025574Y023562D01*
X025574Y023168D01*
X029511Y019231D01*
X029404Y019133D01*
X030404Y019133D02*
X030495Y019231D01*
X026558Y023168D01*
X026558Y023562D01*
X026499Y023739D01*
X028893Y023739D02*
X028920Y023562D01*
X028920Y021790D01*
X031479Y019231D01*
X031404Y019133D01*
X032404Y019133D02*
X032463Y019231D01*
X029904Y021790D01*
X029904Y023562D01*
X029893Y023739D01*
X030893Y023739D02*
X031086Y023562D01*
X031086Y021593D01*
X033448Y019231D01*
X033404Y019133D01*
X034404Y019133D02*
X034432Y019231D01*
X032070Y021593D01*
X032070Y023562D01*
X031893Y023739D01*
X032893Y023739D02*
X033054Y023562D01*
X033054Y021593D01*
X035416Y019231D01*
X035404Y019133D01*
X024404Y019133D02*
X024393Y019231D01*
X020652Y022971D01*
X020652Y023562D01*
X020499Y023739D01*
X020499Y024739D02*
X020652Y024743D01*
X020849Y024940D01*
X020849Y026318D01*
X023015Y024940D02*
X023015Y024546D01*
X023015Y024940D02*
X023408Y025333D01*
X023499Y024739D02*
X023605Y024743D01*
X024983Y026121D01*
X024983Y030845D01*
X025042Y030888D01*
X013999Y024739D02*
X013960Y024743D01*
X013172Y024743D01*
X012999Y024739D01*
X011999Y024739D02*
X011991Y024743D01*
X011007Y024743D01*
X010999Y024739D01*
X014999Y023739D02*
X015141Y023562D01*
X015141Y021003D01*
D16*
X023408Y025333D03*
X013960Y030058D03*
X034432Y037538D03*
M02*
