G75*
%MOIN*%
%OFA0B0*%
%FSLAX24Y24*%
%IPPOS*%
%LPD*%
%AMOC8*
5,1,8,0,0,1.08239X$1,22.5*
%
%ADD10C,0.2442*%
%ADD11C,0.0789*%
%ADD12OC8,0.0640*%
%ADD13OC8,0.0600*%
%ADD14OC8,0.0680*%
%ADD15OC8,0.0737*%
%ADD16C,0.1380*%
%ADD17C,0.0480*%
D10*
X002542Y008995D03*
X002542Y019231D03*
X002542Y029467D03*
X078526Y029467D03*
X078526Y019231D03*
X078526Y008995D03*
D11*
X035404Y018778D02*
X035404Y019487D01*
X034404Y019487D02*
X034404Y018778D01*
X033404Y018778D02*
X033404Y019487D01*
X032404Y019487D02*
X032404Y018778D01*
X031404Y018778D02*
X031404Y019487D01*
X030404Y019487D02*
X030404Y018778D01*
X029404Y018778D02*
X029404Y019487D01*
X028404Y019487D02*
X028404Y018778D01*
X027404Y018778D02*
X027404Y019487D01*
X026404Y019487D02*
X026404Y018778D01*
X025404Y018778D02*
X025404Y019487D01*
X024404Y019487D02*
X024404Y018778D01*
X022298Y018778D02*
X022298Y019487D01*
X021298Y019487D02*
X021298Y018778D01*
X018904Y018778D02*
X018904Y019487D01*
X017904Y019487D02*
X017904Y018778D01*
X016904Y018778D02*
X016904Y019487D01*
X015904Y019487D02*
X015904Y018778D01*
X014904Y018778D02*
X014904Y019487D01*
X013904Y019487D02*
X013904Y018778D01*
X012904Y018778D02*
X012904Y019487D01*
X011904Y019487D02*
X011904Y018778D01*
X010904Y018778D02*
X010904Y019487D01*
X009904Y019487D02*
X009904Y018778D01*
X008904Y018778D02*
X008904Y019487D01*
X007904Y019487D02*
X007904Y018778D01*
D12*
X007999Y023739D03*
X006999Y023739D03*
X005999Y023739D03*
X005999Y024739D03*
X006999Y024739D03*
X007999Y024739D03*
X008999Y024739D03*
X009999Y024739D03*
X010999Y024739D03*
X011999Y024739D03*
X012999Y024739D03*
X013999Y024739D03*
X014999Y024739D03*
X014999Y023739D03*
X013999Y023739D03*
X012999Y023739D03*
X011999Y023739D03*
X010999Y023739D03*
X009999Y023739D03*
X008999Y023739D03*
X017499Y023739D03*
X018499Y023739D03*
X019499Y023739D03*
X020499Y023739D03*
X021499Y023739D03*
X022499Y023739D03*
X023499Y023739D03*
X024499Y023739D03*
X025499Y023739D03*
X026499Y023739D03*
X026499Y024739D03*
X025499Y024739D03*
X024499Y024739D03*
X023499Y024739D03*
X022499Y024739D03*
X021499Y024739D03*
X020499Y024739D03*
X019499Y024739D03*
X018499Y024739D03*
X017499Y024739D03*
X028893Y024739D03*
X029893Y024739D03*
X030893Y024739D03*
X031893Y024739D03*
X032893Y024739D03*
X033893Y024739D03*
X034893Y024739D03*
X035893Y024739D03*
X036893Y024739D03*
X037893Y024739D03*
X037893Y023739D03*
X036893Y023739D03*
X035893Y023739D03*
X034893Y023739D03*
X033893Y023739D03*
X032893Y023739D03*
X031893Y023739D03*
X030893Y023739D03*
X029893Y023739D03*
X028893Y023739D03*
D13*
X025042Y030888D03*
X021042Y030888D03*
X012692Y029207D03*
X010782Y029207D03*
X008873Y029207D03*
X008873Y033207D03*
X010782Y033207D03*
X012692Y033207D03*
D14*
X012887Y035495D03*
X011807Y035495D03*
X012347Y036495D03*
X013427Y036495D03*
X014507Y036495D03*
X015587Y036495D03*
X015047Y035495D03*
X013967Y035495D03*
X016127Y035495D03*
X025735Y035495D03*
X026825Y035495D03*
X027905Y035495D03*
X028995Y035495D03*
X030085Y035495D03*
X028455Y036495D03*
X027365Y036495D03*
X026275Y036495D03*
X032795Y036495D03*
X033885Y036495D03*
X034975Y036495D03*
X036055Y036495D03*
X037145Y036495D03*
X038235Y036495D03*
X038775Y035495D03*
X037685Y035495D03*
X036605Y035495D03*
X035515Y035495D03*
X034425Y035495D03*
X033345Y035495D03*
D15*
X032255Y035495D03*
X031165Y035495D03*
X030625Y036495D03*
X029535Y036495D03*
X031715Y036495D03*
D16*
X022995Y035995D03*
X018897Y035995D03*
X009037Y035995D03*
X041515Y035995D03*
D17*
X034432Y037538D03*
X013960Y030058D03*
X023408Y025333D03*
M02*
