%
M48
M72
T01C0.0240
T02C0.0320
T03C0.0360
T04C0.0400
T05C0.0472
T06C0.1300
T07C0.2362
%
T01
X23408Y25333
X13960Y30058
X34432Y37538
T02
X25042Y30888
X21042Y30888
X12692Y29207
X10782Y29207
X8873Y29207
X8873Y33207
X10782Y33207
X12692Y33207
T03
X12999Y24739
X13999Y24739
X14999Y24739
X14999Y23739
X13999Y23739
X12999Y23739
X11999Y23739
X10999Y23739
X9999Y23739
X8999Y23739
X7999Y23739
X6999Y23739
X5999Y23739
X5999Y24739
X6999Y24739
X7999Y24739
X8999Y24739
X9999Y24739
X10999Y24739
X11999Y24739
X17499Y24739
X18499Y24739
X19499Y24739
X20499Y24739
X21499Y24739
X22499Y24739
X23499Y24739
X24499Y24739
X25499Y24739
X26499Y24739
X26499Y23739
X25499Y23739
X24499Y23739
X23499Y23739
X22499Y23739
X21499Y23739
X20499Y23739
X19499Y23739
X18499Y23739
X17499Y23739
X28893Y23739
X29893Y23739
X30893Y23739
X31893Y23739
X32893Y23739
X33893Y23739
X34893Y23739
X35893Y23739
X36893Y23739
X37893Y23739
X37893Y24739
X36893Y24739
X35893Y24739
X34893Y24739
X33893Y24739
X32893Y24739
X31893Y24739
X30893Y24739
X29893Y24739
X28893Y24739
T04
X28995Y35495
X27905Y35495
X26825Y35495
X25735Y35495
X26275Y36495
X27365Y36495
X28455Y36495
X29535Y36495
X30625Y36495
X31715Y36495
X32795Y36495
X33885Y36495
X34975Y36495
X36055Y36495
X37145Y36495
X38235Y36495
X38775Y35495
X37685Y35495
X36605Y35495
X35515Y35495
X34425Y35495
X33345Y35495
X32255Y35495
X31165Y35495
X30085Y35495
X16127Y35495
X15047Y35495
X13967Y35495
X12887Y35495
X11807Y35495
X12347Y36495
X13427Y36495
X14507Y36495
X15587Y36495
T05
X15904Y19133
X14904Y19133
X13904Y19133
X12904Y19133
X11904Y19133
X10904Y19133
X9904Y19133
X8904Y19133
X7904Y19133
X16904Y19133
X17904Y19133
X18904Y19133
X21298Y19133
X22298Y19133
X24404Y19133
X25404Y19133
X26404Y19133
X27404Y19133
X28404Y19133
X29404Y19133
X30404Y19133
X31404Y19133
X32404Y19133
X33404Y19133
X34404Y19133
X35404Y19133
T06
X41515Y35995
X22995Y35995
X18897Y35995
X9037Y35995
T07
X2542Y8995
X2542Y19231
X2542Y29467
X78526Y29467
X78526Y19231
X78526Y8995
M30
