G75*
%MOIN*%
%OFA0B0*%
%FSLAX24Y24*%
%IPPOS*%
%LPD*%
%AMOC8*
5,1,8,0,0,1.08239X$1,22.5*
%
%ADD10C,0.0000*%
%ADD11C,0.0160*%
%ADD12C,0.0060*%
%ADD13C,0.0080*%
%ADD14C,0.0100*%
%ADD15C,0.0040*%
%ADD16C,0.0050*%
%ADD17R,0.0240X0.0340*%
%ADD18R,0.0340X0.0240*%
%ADD19C,0.0070*%
%ADD20R,1.6000X0.0300*%
%ADD21R,2.0900X0.0200*%
%ADD22R,0.0320X0.2850*%
%ADD23R,0.0320X0.1850*%
%ADD24R,0.7300X0.0300*%
%ADD25R,1.2200X0.0200*%
D10*
X001361Y008995D02*
X001363Y009064D01*
X001369Y009132D01*
X001379Y009200D01*
X001393Y009267D01*
X001411Y009334D01*
X001432Y009399D01*
X001458Y009463D01*
X001487Y009525D01*
X001519Y009585D01*
X001555Y009644D01*
X001595Y009700D01*
X001637Y009754D01*
X001683Y009805D01*
X001732Y009854D01*
X001783Y009900D01*
X001837Y009942D01*
X001893Y009982D01*
X001951Y010018D01*
X002012Y010050D01*
X002074Y010079D01*
X002138Y010105D01*
X002203Y010126D01*
X002270Y010144D01*
X002337Y010158D01*
X002405Y010168D01*
X002473Y010174D01*
X002542Y010176D01*
X002611Y010174D01*
X002679Y010168D01*
X002747Y010158D01*
X002814Y010144D01*
X002881Y010126D01*
X002946Y010105D01*
X003010Y010079D01*
X003072Y010050D01*
X003132Y010018D01*
X003191Y009982D01*
X003247Y009942D01*
X003301Y009900D01*
X003352Y009854D01*
X003401Y009805D01*
X003447Y009754D01*
X003489Y009700D01*
X003529Y009644D01*
X003565Y009585D01*
X003597Y009525D01*
X003626Y009463D01*
X003652Y009399D01*
X003673Y009334D01*
X003691Y009267D01*
X003705Y009200D01*
X003715Y009132D01*
X003721Y009064D01*
X003723Y008995D01*
X003721Y008926D01*
X003715Y008858D01*
X003705Y008790D01*
X003691Y008723D01*
X003673Y008656D01*
X003652Y008591D01*
X003626Y008527D01*
X003597Y008465D01*
X003565Y008404D01*
X003529Y008346D01*
X003489Y008290D01*
X003447Y008236D01*
X003401Y008185D01*
X003352Y008136D01*
X003301Y008090D01*
X003247Y008048D01*
X003191Y008008D01*
X003133Y007972D01*
X003072Y007940D01*
X003010Y007911D01*
X002946Y007885D01*
X002881Y007864D01*
X002814Y007846D01*
X002747Y007832D01*
X002679Y007822D01*
X002611Y007816D01*
X002542Y007814D01*
X002473Y007816D01*
X002405Y007822D01*
X002337Y007832D01*
X002270Y007846D01*
X002203Y007864D01*
X002138Y007885D01*
X002074Y007911D01*
X002012Y007940D01*
X001951Y007972D01*
X001893Y008008D01*
X001837Y008048D01*
X001783Y008090D01*
X001732Y008136D01*
X001683Y008185D01*
X001637Y008236D01*
X001595Y008290D01*
X001555Y008346D01*
X001519Y008404D01*
X001487Y008465D01*
X001458Y008527D01*
X001432Y008591D01*
X001411Y008656D01*
X001393Y008723D01*
X001379Y008790D01*
X001369Y008858D01*
X001363Y008926D01*
X001361Y008995D01*
X001361Y019231D02*
X001363Y019300D01*
X001369Y019368D01*
X001379Y019436D01*
X001393Y019503D01*
X001411Y019570D01*
X001432Y019635D01*
X001458Y019699D01*
X001487Y019761D01*
X001519Y019821D01*
X001555Y019880D01*
X001595Y019936D01*
X001637Y019990D01*
X001683Y020041D01*
X001732Y020090D01*
X001783Y020136D01*
X001837Y020178D01*
X001893Y020218D01*
X001951Y020254D01*
X002012Y020286D01*
X002074Y020315D01*
X002138Y020341D01*
X002203Y020362D01*
X002270Y020380D01*
X002337Y020394D01*
X002405Y020404D01*
X002473Y020410D01*
X002542Y020412D01*
X002611Y020410D01*
X002679Y020404D01*
X002747Y020394D01*
X002814Y020380D01*
X002881Y020362D01*
X002946Y020341D01*
X003010Y020315D01*
X003072Y020286D01*
X003132Y020254D01*
X003191Y020218D01*
X003247Y020178D01*
X003301Y020136D01*
X003352Y020090D01*
X003401Y020041D01*
X003447Y019990D01*
X003489Y019936D01*
X003529Y019880D01*
X003565Y019821D01*
X003597Y019761D01*
X003626Y019699D01*
X003652Y019635D01*
X003673Y019570D01*
X003691Y019503D01*
X003705Y019436D01*
X003715Y019368D01*
X003721Y019300D01*
X003723Y019231D01*
X003721Y019162D01*
X003715Y019094D01*
X003705Y019026D01*
X003691Y018959D01*
X003673Y018892D01*
X003652Y018827D01*
X003626Y018763D01*
X003597Y018701D01*
X003565Y018640D01*
X003529Y018582D01*
X003489Y018526D01*
X003447Y018472D01*
X003401Y018421D01*
X003352Y018372D01*
X003301Y018326D01*
X003247Y018284D01*
X003191Y018244D01*
X003133Y018208D01*
X003072Y018176D01*
X003010Y018147D01*
X002946Y018121D01*
X002881Y018100D01*
X002814Y018082D01*
X002747Y018068D01*
X002679Y018058D01*
X002611Y018052D01*
X002542Y018050D01*
X002473Y018052D01*
X002405Y018058D01*
X002337Y018068D01*
X002270Y018082D01*
X002203Y018100D01*
X002138Y018121D01*
X002074Y018147D01*
X002012Y018176D01*
X001951Y018208D01*
X001893Y018244D01*
X001837Y018284D01*
X001783Y018326D01*
X001732Y018372D01*
X001683Y018421D01*
X001637Y018472D01*
X001595Y018526D01*
X001555Y018582D01*
X001519Y018640D01*
X001487Y018701D01*
X001458Y018763D01*
X001432Y018827D01*
X001411Y018892D01*
X001393Y018959D01*
X001379Y019026D01*
X001369Y019094D01*
X001363Y019162D01*
X001361Y019231D01*
X001361Y029467D02*
X001363Y029536D01*
X001369Y029604D01*
X001379Y029672D01*
X001393Y029739D01*
X001411Y029806D01*
X001432Y029871D01*
X001458Y029935D01*
X001487Y029997D01*
X001519Y030057D01*
X001555Y030116D01*
X001595Y030172D01*
X001637Y030226D01*
X001683Y030277D01*
X001732Y030326D01*
X001783Y030372D01*
X001837Y030414D01*
X001893Y030454D01*
X001951Y030490D01*
X002012Y030522D01*
X002074Y030551D01*
X002138Y030577D01*
X002203Y030598D01*
X002270Y030616D01*
X002337Y030630D01*
X002405Y030640D01*
X002473Y030646D01*
X002542Y030648D01*
X002611Y030646D01*
X002679Y030640D01*
X002747Y030630D01*
X002814Y030616D01*
X002881Y030598D01*
X002946Y030577D01*
X003010Y030551D01*
X003072Y030522D01*
X003132Y030490D01*
X003191Y030454D01*
X003247Y030414D01*
X003301Y030372D01*
X003352Y030326D01*
X003401Y030277D01*
X003447Y030226D01*
X003489Y030172D01*
X003529Y030116D01*
X003565Y030057D01*
X003597Y029997D01*
X003626Y029935D01*
X003652Y029871D01*
X003673Y029806D01*
X003691Y029739D01*
X003705Y029672D01*
X003715Y029604D01*
X003721Y029536D01*
X003723Y029467D01*
X003721Y029398D01*
X003715Y029330D01*
X003705Y029262D01*
X003691Y029195D01*
X003673Y029128D01*
X003652Y029063D01*
X003626Y028999D01*
X003597Y028937D01*
X003565Y028876D01*
X003529Y028818D01*
X003489Y028762D01*
X003447Y028708D01*
X003401Y028657D01*
X003352Y028608D01*
X003301Y028562D01*
X003247Y028520D01*
X003191Y028480D01*
X003133Y028444D01*
X003072Y028412D01*
X003010Y028383D01*
X002946Y028357D01*
X002881Y028336D01*
X002814Y028318D01*
X002747Y028304D01*
X002679Y028294D01*
X002611Y028288D01*
X002542Y028286D01*
X002473Y028288D01*
X002405Y028294D01*
X002337Y028304D01*
X002270Y028318D01*
X002203Y028336D01*
X002138Y028357D01*
X002074Y028383D01*
X002012Y028412D01*
X001951Y028444D01*
X001893Y028480D01*
X001837Y028520D01*
X001783Y028562D01*
X001732Y028608D01*
X001683Y028657D01*
X001637Y028708D01*
X001595Y028762D01*
X001555Y028818D01*
X001519Y028876D01*
X001487Y028937D01*
X001458Y028999D01*
X001432Y029063D01*
X001411Y029128D01*
X001393Y029195D01*
X001379Y029262D01*
X001369Y029330D01*
X001363Y029398D01*
X001361Y029467D01*
X008387Y035995D02*
X008389Y036045D01*
X008395Y036095D01*
X008405Y036145D01*
X008418Y036193D01*
X008435Y036241D01*
X008456Y036287D01*
X008480Y036331D01*
X008508Y036373D01*
X008539Y036413D01*
X008573Y036450D01*
X008610Y036485D01*
X008649Y036516D01*
X008690Y036545D01*
X008734Y036570D01*
X008780Y036592D01*
X008827Y036610D01*
X008875Y036624D01*
X008924Y036635D01*
X008974Y036642D01*
X009024Y036645D01*
X009075Y036644D01*
X009125Y036639D01*
X009175Y036630D01*
X009223Y036618D01*
X009271Y036601D01*
X009317Y036581D01*
X009362Y036558D01*
X009405Y036531D01*
X009445Y036501D01*
X009483Y036468D01*
X009518Y036432D01*
X009551Y036393D01*
X009580Y036352D01*
X009606Y036309D01*
X009629Y036264D01*
X009648Y036217D01*
X009663Y036169D01*
X009675Y036120D01*
X009683Y036070D01*
X009687Y036020D01*
X009687Y035970D01*
X009683Y035920D01*
X009675Y035870D01*
X009663Y035821D01*
X009648Y035773D01*
X009629Y035726D01*
X009606Y035681D01*
X009580Y035638D01*
X009551Y035597D01*
X009518Y035558D01*
X009483Y035522D01*
X009445Y035489D01*
X009405Y035459D01*
X009362Y035432D01*
X009317Y035409D01*
X009271Y035389D01*
X009223Y035372D01*
X009175Y035360D01*
X009125Y035351D01*
X009075Y035346D01*
X009024Y035345D01*
X008974Y035348D01*
X008924Y035355D01*
X008875Y035366D01*
X008827Y035380D01*
X008780Y035398D01*
X008734Y035420D01*
X008690Y035445D01*
X008649Y035474D01*
X008610Y035505D01*
X008573Y035540D01*
X008539Y035577D01*
X008508Y035617D01*
X008480Y035659D01*
X008456Y035703D01*
X008435Y035749D01*
X008418Y035797D01*
X008405Y035845D01*
X008395Y035895D01*
X008389Y035945D01*
X008387Y035995D01*
X018247Y035995D02*
X018249Y036045D01*
X018255Y036095D01*
X018265Y036145D01*
X018278Y036193D01*
X018295Y036241D01*
X018316Y036287D01*
X018340Y036331D01*
X018368Y036373D01*
X018399Y036413D01*
X018433Y036450D01*
X018470Y036485D01*
X018509Y036516D01*
X018550Y036545D01*
X018594Y036570D01*
X018640Y036592D01*
X018687Y036610D01*
X018735Y036624D01*
X018784Y036635D01*
X018834Y036642D01*
X018884Y036645D01*
X018935Y036644D01*
X018985Y036639D01*
X019035Y036630D01*
X019083Y036618D01*
X019131Y036601D01*
X019177Y036581D01*
X019222Y036558D01*
X019265Y036531D01*
X019305Y036501D01*
X019343Y036468D01*
X019378Y036432D01*
X019411Y036393D01*
X019440Y036352D01*
X019466Y036309D01*
X019489Y036264D01*
X019508Y036217D01*
X019523Y036169D01*
X019535Y036120D01*
X019543Y036070D01*
X019547Y036020D01*
X019547Y035970D01*
X019543Y035920D01*
X019535Y035870D01*
X019523Y035821D01*
X019508Y035773D01*
X019489Y035726D01*
X019466Y035681D01*
X019440Y035638D01*
X019411Y035597D01*
X019378Y035558D01*
X019343Y035522D01*
X019305Y035489D01*
X019265Y035459D01*
X019222Y035432D01*
X019177Y035409D01*
X019131Y035389D01*
X019083Y035372D01*
X019035Y035360D01*
X018985Y035351D01*
X018935Y035346D01*
X018884Y035345D01*
X018834Y035348D01*
X018784Y035355D01*
X018735Y035366D01*
X018687Y035380D01*
X018640Y035398D01*
X018594Y035420D01*
X018550Y035445D01*
X018509Y035474D01*
X018470Y035505D01*
X018433Y035540D01*
X018399Y035577D01*
X018368Y035617D01*
X018340Y035659D01*
X018316Y035703D01*
X018295Y035749D01*
X018278Y035797D01*
X018265Y035845D01*
X018255Y035895D01*
X018249Y035945D01*
X018247Y035995D01*
X022345Y035995D02*
X022347Y036045D01*
X022353Y036095D01*
X022363Y036145D01*
X022376Y036193D01*
X022393Y036241D01*
X022414Y036287D01*
X022438Y036331D01*
X022466Y036373D01*
X022497Y036413D01*
X022531Y036450D01*
X022568Y036485D01*
X022607Y036516D01*
X022648Y036545D01*
X022692Y036570D01*
X022738Y036592D01*
X022785Y036610D01*
X022833Y036624D01*
X022882Y036635D01*
X022932Y036642D01*
X022982Y036645D01*
X023033Y036644D01*
X023083Y036639D01*
X023133Y036630D01*
X023181Y036618D01*
X023229Y036601D01*
X023275Y036581D01*
X023320Y036558D01*
X023363Y036531D01*
X023403Y036501D01*
X023441Y036468D01*
X023476Y036432D01*
X023509Y036393D01*
X023538Y036352D01*
X023564Y036309D01*
X023587Y036264D01*
X023606Y036217D01*
X023621Y036169D01*
X023633Y036120D01*
X023641Y036070D01*
X023645Y036020D01*
X023645Y035970D01*
X023641Y035920D01*
X023633Y035870D01*
X023621Y035821D01*
X023606Y035773D01*
X023587Y035726D01*
X023564Y035681D01*
X023538Y035638D01*
X023509Y035597D01*
X023476Y035558D01*
X023441Y035522D01*
X023403Y035489D01*
X023363Y035459D01*
X023320Y035432D01*
X023275Y035409D01*
X023229Y035389D01*
X023181Y035372D01*
X023133Y035360D01*
X023083Y035351D01*
X023033Y035346D01*
X022982Y035345D01*
X022932Y035348D01*
X022882Y035355D01*
X022833Y035366D01*
X022785Y035380D01*
X022738Y035398D01*
X022692Y035420D01*
X022648Y035445D01*
X022607Y035474D01*
X022568Y035505D01*
X022531Y035540D01*
X022497Y035577D01*
X022466Y035617D01*
X022438Y035659D01*
X022414Y035703D01*
X022393Y035749D01*
X022376Y035797D01*
X022363Y035845D01*
X022353Y035895D01*
X022347Y035945D01*
X022345Y035995D01*
X040865Y035995D02*
X040867Y036045D01*
X040873Y036095D01*
X040883Y036145D01*
X040896Y036193D01*
X040913Y036241D01*
X040934Y036287D01*
X040958Y036331D01*
X040986Y036373D01*
X041017Y036413D01*
X041051Y036450D01*
X041088Y036485D01*
X041127Y036516D01*
X041168Y036545D01*
X041212Y036570D01*
X041258Y036592D01*
X041305Y036610D01*
X041353Y036624D01*
X041402Y036635D01*
X041452Y036642D01*
X041502Y036645D01*
X041553Y036644D01*
X041603Y036639D01*
X041653Y036630D01*
X041701Y036618D01*
X041749Y036601D01*
X041795Y036581D01*
X041840Y036558D01*
X041883Y036531D01*
X041923Y036501D01*
X041961Y036468D01*
X041996Y036432D01*
X042029Y036393D01*
X042058Y036352D01*
X042084Y036309D01*
X042107Y036264D01*
X042126Y036217D01*
X042141Y036169D01*
X042153Y036120D01*
X042161Y036070D01*
X042165Y036020D01*
X042165Y035970D01*
X042161Y035920D01*
X042153Y035870D01*
X042141Y035821D01*
X042126Y035773D01*
X042107Y035726D01*
X042084Y035681D01*
X042058Y035638D01*
X042029Y035597D01*
X041996Y035558D01*
X041961Y035522D01*
X041923Y035489D01*
X041883Y035459D01*
X041840Y035432D01*
X041795Y035409D01*
X041749Y035389D01*
X041701Y035372D01*
X041653Y035360D01*
X041603Y035351D01*
X041553Y035346D01*
X041502Y035345D01*
X041452Y035348D01*
X041402Y035355D01*
X041353Y035366D01*
X041305Y035380D01*
X041258Y035398D01*
X041212Y035420D01*
X041168Y035445D01*
X041127Y035474D01*
X041088Y035505D01*
X041051Y035540D01*
X041017Y035577D01*
X040986Y035617D01*
X040958Y035659D01*
X040934Y035703D01*
X040913Y035749D01*
X040896Y035797D01*
X040883Y035845D01*
X040873Y035895D01*
X040867Y035945D01*
X040865Y035995D01*
X077345Y029467D02*
X077347Y029536D01*
X077353Y029604D01*
X077363Y029672D01*
X077377Y029739D01*
X077395Y029806D01*
X077416Y029871D01*
X077442Y029935D01*
X077471Y029997D01*
X077503Y030057D01*
X077539Y030116D01*
X077579Y030172D01*
X077621Y030226D01*
X077667Y030277D01*
X077716Y030326D01*
X077767Y030372D01*
X077821Y030414D01*
X077877Y030454D01*
X077935Y030490D01*
X077996Y030522D01*
X078058Y030551D01*
X078122Y030577D01*
X078187Y030598D01*
X078254Y030616D01*
X078321Y030630D01*
X078389Y030640D01*
X078457Y030646D01*
X078526Y030648D01*
X078595Y030646D01*
X078663Y030640D01*
X078731Y030630D01*
X078798Y030616D01*
X078865Y030598D01*
X078930Y030577D01*
X078994Y030551D01*
X079056Y030522D01*
X079116Y030490D01*
X079175Y030454D01*
X079231Y030414D01*
X079285Y030372D01*
X079336Y030326D01*
X079385Y030277D01*
X079431Y030226D01*
X079473Y030172D01*
X079513Y030116D01*
X079549Y030057D01*
X079581Y029997D01*
X079610Y029935D01*
X079636Y029871D01*
X079657Y029806D01*
X079675Y029739D01*
X079689Y029672D01*
X079699Y029604D01*
X079705Y029536D01*
X079707Y029467D01*
X079705Y029398D01*
X079699Y029330D01*
X079689Y029262D01*
X079675Y029195D01*
X079657Y029128D01*
X079636Y029063D01*
X079610Y028999D01*
X079581Y028937D01*
X079549Y028876D01*
X079513Y028818D01*
X079473Y028762D01*
X079431Y028708D01*
X079385Y028657D01*
X079336Y028608D01*
X079285Y028562D01*
X079231Y028520D01*
X079175Y028480D01*
X079117Y028444D01*
X079056Y028412D01*
X078994Y028383D01*
X078930Y028357D01*
X078865Y028336D01*
X078798Y028318D01*
X078731Y028304D01*
X078663Y028294D01*
X078595Y028288D01*
X078526Y028286D01*
X078457Y028288D01*
X078389Y028294D01*
X078321Y028304D01*
X078254Y028318D01*
X078187Y028336D01*
X078122Y028357D01*
X078058Y028383D01*
X077996Y028412D01*
X077935Y028444D01*
X077877Y028480D01*
X077821Y028520D01*
X077767Y028562D01*
X077716Y028608D01*
X077667Y028657D01*
X077621Y028708D01*
X077579Y028762D01*
X077539Y028818D01*
X077503Y028876D01*
X077471Y028937D01*
X077442Y028999D01*
X077416Y029063D01*
X077395Y029128D01*
X077377Y029195D01*
X077363Y029262D01*
X077353Y029330D01*
X077347Y029398D01*
X077345Y029467D01*
X077345Y019231D02*
X077347Y019300D01*
X077353Y019368D01*
X077363Y019436D01*
X077377Y019503D01*
X077395Y019570D01*
X077416Y019635D01*
X077442Y019699D01*
X077471Y019761D01*
X077503Y019821D01*
X077539Y019880D01*
X077579Y019936D01*
X077621Y019990D01*
X077667Y020041D01*
X077716Y020090D01*
X077767Y020136D01*
X077821Y020178D01*
X077877Y020218D01*
X077935Y020254D01*
X077996Y020286D01*
X078058Y020315D01*
X078122Y020341D01*
X078187Y020362D01*
X078254Y020380D01*
X078321Y020394D01*
X078389Y020404D01*
X078457Y020410D01*
X078526Y020412D01*
X078595Y020410D01*
X078663Y020404D01*
X078731Y020394D01*
X078798Y020380D01*
X078865Y020362D01*
X078930Y020341D01*
X078994Y020315D01*
X079056Y020286D01*
X079116Y020254D01*
X079175Y020218D01*
X079231Y020178D01*
X079285Y020136D01*
X079336Y020090D01*
X079385Y020041D01*
X079431Y019990D01*
X079473Y019936D01*
X079513Y019880D01*
X079549Y019821D01*
X079581Y019761D01*
X079610Y019699D01*
X079636Y019635D01*
X079657Y019570D01*
X079675Y019503D01*
X079689Y019436D01*
X079699Y019368D01*
X079705Y019300D01*
X079707Y019231D01*
X079705Y019162D01*
X079699Y019094D01*
X079689Y019026D01*
X079675Y018959D01*
X079657Y018892D01*
X079636Y018827D01*
X079610Y018763D01*
X079581Y018701D01*
X079549Y018640D01*
X079513Y018582D01*
X079473Y018526D01*
X079431Y018472D01*
X079385Y018421D01*
X079336Y018372D01*
X079285Y018326D01*
X079231Y018284D01*
X079175Y018244D01*
X079117Y018208D01*
X079056Y018176D01*
X078994Y018147D01*
X078930Y018121D01*
X078865Y018100D01*
X078798Y018082D01*
X078731Y018068D01*
X078663Y018058D01*
X078595Y018052D01*
X078526Y018050D01*
X078457Y018052D01*
X078389Y018058D01*
X078321Y018068D01*
X078254Y018082D01*
X078187Y018100D01*
X078122Y018121D01*
X078058Y018147D01*
X077996Y018176D01*
X077935Y018208D01*
X077877Y018244D01*
X077821Y018284D01*
X077767Y018326D01*
X077716Y018372D01*
X077667Y018421D01*
X077621Y018472D01*
X077579Y018526D01*
X077539Y018582D01*
X077503Y018640D01*
X077471Y018701D01*
X077442Y018763D01*
X077416Y018827D01*
X077395Y018892D01*
X077377Y018959D01*
X077363Y019026D01*
X077353Y019094D01*
X077347Y019162D01*
X077345Y019231D01*
X077345Y008995D02*
X077347Y009064D01*
X077353Y009132D01*
X077363Y009200D01*
X077377Y009267D01*
X077395Y009334D01*
X077416Y009399D01*
X077442Y009463D01*
X077471Y009525D01*
X077503Y009585D01*
X077539Y009644D01*
X077579Y009700D01*
X077621Y009754D01*
X077667Y009805D01*
X077716Y009854D01*
X077767Y009900D01*
X077821Y009942D01*
X077877Y009982D01*
X077935Y010018D01*
X077996Y010050D01*
X078058Y010079D01*
X078122Y010105D01*
X078187Y010126D01*
X078254Y010144D01*
X078321Y010158D01*
X078389Y010168D01*
X078457Y010174D01*
X078526Y010176D01*
X078595Y010174D01*
X078663Y010168D01*
X078731Y010158D01*
X078798Y010144D01*
X078865Y010126D01*
X078930Y010105D01*
X078994Y010079D01*
X079056Y010050D01*
X079116Y010018D01*
X079175Y009982D01*
X079231Y009942D01*
X079285Y009900D01*
X079336Y009854D01*
X079385Y009805D01*
X079431Y009754D01*
X079473Y009700D01*
X079513Y009644D01*
X079549Y009585D01*
X079581Y009525D01*
X079610Y009463D01*
X079636Y009399D01*
X079657Y009334D01*
X079675Y009267D01*
X079689Y009200D01*
X079699Y009132D01*
X079705Y009064D01*
X079707Y008995D01*
X079705Y008926D01*
X079699Y008858D01*
X079689Y008790D01*
X079675Y008723D01*
X079657Y008656D01*
X079636Y008591D01*
X079610Y008527D01*
X079581Y008465D01*
X079549Y008404D01*
X079513Y008346D01*
X079473Y008290D01*
X079431Y008236D01*
X079385Y008185D01*
X079336Y008136D01*
X079285Y008090D01*
X079231Y008048D01*
X079175Y008008D01*
X079117Y007972D01*
X079056Y007940D01*
X078994Y007911D01*
X078930Y007885D01*
X078865Y007864D01*
X078798Y007846D01*
X078731Y007832D01*
X078663Y007822D01*
X078595Y007816D01*
X078526Y007814D01*
X078457Y007816D01*
X078389Y007822D01*
X078321Y007832D01*
X078254Y007846D01*
X078187Y007864D01*
X078122Y007885D01*
X078058Y007911D01*
X077996Y007940D01*
X077935Y007972D01*
X077877Y008008D01*
X077821Y008048D01*
X077767Y008090D01*
X077716Y008136D01*
X077667Y008185D01*
X077621Y008236D01*
X077579Y008290D01*
X077539Y008346D01*
X077503Y008404D01*
X077471Y008465D01*
X077442Y008527D01*
X077416Y008591D01*
X077395Y008656D01*
X077377Y008723D01*
X077363Y008790D01*
X077353Y008858D01*
X077347Y008926D01*
X077345Y008995D01*
D11*
X010416Y007026D02*
X000180Y007026D01*
X000180Y029467D01*
X000182Y029562D01*
X000188Y029657D01*
X000197Y029752D01*
X000211Y029846D01*
X000228Y029939D01*
X000249Y030032D01*
X000273Y030124D01*
X000302Y030215D01*
X000333Y030305D01*
X000369Y030393D01*
X000408Y030480D01*
X000451Y030565D01*
X000496Y030648D01*
X000546Y030729D01*
X000598Y030809D01*
X000654Y030886D01*
X000712Y030961D01*
X000774Y031033D01*
X000839Y031103D01*
X000906Y031170D01*
X000976Y031235D01*
X001048Y031297D01*
X001123Y031355D01*
X001200Y031411D01*
X001280Y031463D01*
X001361Y031513D01*
X001444Y031558D01*
X001529Y031601D01*
X001616Y031640D01*
X001704Y031676D01*
X001794Y031707D01*
X001885Y031736D01*
X001977Y031760D01*
X002070Y031781D01*
X002163Y031798D01*
X002257Y031812D01*
X002352Y031821D01*
X002447Y031827D01*
X002542Y031829D01*
X007267Y031829D01*
X007267Y040688D01*
X073802Y040688D01*
X073802Y031829D01*
X078526Y031829D01*
X078621Y031827D01*
X078716Y031821D01*
X078811Y031812D01*
X078905Y031798D01*
X078998Y031781D01*
X079091Y031760D01*
X079183Y031736D01*
X079274Y031707D01*
X079364Y031676D01*
X079452Y031640D01*
X079539Y031601D01*
X079624Y031558D01*
X079707Y031513D01*
X079788Y031463D01*
X079868Y031411D01*
X079945Y031355D01*
X080020Y031297D01*
X080092Y031235D01*
X080162Y031170D01*
X080229Y031103D01*
X080294Y031033D01*
X080356Y030961D01*
X080414Y030886D01*
X080470Y030809D01*
X080522Y030729D01*
X080572Y030648D01*
X080617Y030565D01*
X080660Y030480D01*
X080699Y030393D01*
X080735Y030305D01*
X080766Y030215D01*
X080795Y030124D01*
X080819Y030032D01*
X080840Y029939D01*
X080857Y029846D01*
X080871Y029752D01*
X080880Y029657D01*
X080886Y029562D01*
X080888Y029467D01*
X080889Y029467D02*
X080889Y008995D01*
X080888Y008995D02*
X080886Y008899D01*
X080880Y008802D01*
X080870Y008707D01*
X080857Y008611D01*
X080839Y008516D01*
X080818Y008423D01*
X080792Y008330D01*
X080763Y008238D01*
X080731Y008147D01*
X080694Y008058D01*
X080654Y007970D01*
X080611Y007884D01*
X080563Y007800D01*
X080513Y007718D01*
X080459Y007638D01*
X080402Y007560D01*
X080342Y007485D01*
X080279Y007412D01*
X080213Y007342D01*
X080144Y007274D01*
X080073Y007210D01*
X079999Y007148D01*
X079922Y007090D01*
X079843Y007034D01*
X079762Y006982D01*
X079679Y006934D01*
X079594Y006888D01*
X079507Y006846D01*
X079419Y006808D01*
X079329Y006774D01*
X079238Y006743D01*
X079145Y006716D01*
X079052Y006692D01*
X078957Y006673D01*
X078862Y006657D01*
X078767Y006645D01*
X078670Y006637D01*
X078574Y006633D01*
X078478Y006633D01*
X078382Y006637D01*
X078285Y006645D01*
X078190Y006657D01*
X078095Y006673D01*
X078000Y006692D01*
X077907Y006716D01*
X077814Y006743D01*
X077723Y006774D01*
X077633Y006808D01*
X077545Y006846D01*
X077458Y006888D01*
X077373Y006934D01*
X077290Y006982D01*
X077209Y007034D01*
X077130Y007090D01*
X077053Y007148D01*
X076979Y007210D01*
X076908Y007274D01*
X076839Y007342D01*
X076773Y007412D01*
X076710Y007485D01*
X076650Y007560D01*
X076593Y007638D01*
X076539Y007718D01*
X076489Y007800D01*
X076441Y007884D01*
X076398Y007970D01*
X076358Y008058D01*
X076321Y008147D01*
X076289Y008238D01*
X076260Y008330D01*
X076234Y008423D01*
X076213Y008516D01*
X076195Y008611D01*
X076182Y008707D01*
X076172Y008802D01*
X076166Y008899D01*
X076164Y008995D01*
X010416Y008995D01*
X010416Y007026D01*
D12*
X007397Y019566D02*
X019412Y019566D01*
X020790Y019566D02*
X022806Y019566D01*
X023897Y019566D02*
X035912Y019566D01*
X041942Y019237D02*
X042049Y019131D01*
X042156Y019131D01*
X042263Y019237D01*
X042263Y019771D01*
X042369Y019771D02*
X042156Y019771D01*
X042587Y019771D02*
X042907Y019771D01*
X043014Y019664D01*
X043014Y019451D01*
X042907Y019344D01*
X042587Y019344D01*
X042587Y019131D02*
X042587Y019771D01*
X043231Y019664D02*
X043338Y019771D01*
X043552Y019771D01*
X043658Y019664D01*
X043658Y019558D01*
X043231Y019131D01*
X043658Y019131D01*
X043552Y018721D02*
X043338Y018721D01*
X043231Y018614D01*
X043014Y018614D02*
X043014Y018401D01*
X042907Y018294D01*
X042587Y018294D01*
X042587Y018081D02*
X042587Y018721D01*
X042907Y018721D01*
X043014Y018614D01*
X043552Y018721D02*
X043658Y018614D01*
X043658Y018508D01*
X043231Y018081D01*
X043658Y018081D01*
X044520Y018401D02*
X044948Y018401D01*
X045810Y018401D02*
X046023Y018614D01*
X046237Y018721D01*
X046130Y018401D02*
X045810Y018401D01*
X045810Y018187D01*
X045916Y018081D01*
X046130Y018081D01*
X046237Y018187D01*
X046237Y018294D01*
X046130Y018401D01*
X046130Y019131D02*
X046130Y019771D01*
X045810Y019451D01*
X046237Y019451D01*
X047099Y019558D02*
X047312Y019558D01*
X047205Y019664D02*
X047205Y019237D01*
X047312Y019131D01*
X047528Y019237D02*
X047635Y019131D01*
X047849Y019131D01*
X047955Y019237D01*
X047955Y019451D01*
X047849Y019558D01*
X047635Y019558D01*
X047528Y019451D01*
X047528Y019237D01*
X047205Y018614D02*
X047205Y018187D01*
X047312Y018081D01*
X047528Y018187D02*
X047635Y018081D01*
X047849Y018081D01*
X047955Y018187D01*
X047955Y018401D01*
X047849Y018508D01*
X047635Y018508D01*
X047528Y018401D01*
X047528Y018187D01*
X047312Y018508D02*
X047099Y018508D01*
X048817Y018721D02*
X049245Y018721D01*
X049245Y018614D01*
X048817Y018187D01*
X048817Y018081D01*
X050107Y018294D02*
X050107Y018508D01*
X050320Y018721D01*
X050536Y018401D02*
X050643Y018508D01*
X050963Y018508D01*
X050963Y018721D02*
X050963Y018081D01*
X050643Y018081D01*
X050536Y018187D01*
X050536Y018401D01*
X050320Y018081D02*
X050107Y018294D01*
X050320Y019131D02*
X050107Y019344D01*
X050107Y019558D01*
X050320Y019771D01*
X050536Y019664D02*
X050536Y019237D01*
X050643Y019131D01*
X050857Y019131D01*
X050963Y019237D01*
X051181Y019237D02*
X051181Y019451D01*
X051288Y019558D01*
X051501Y019558D01*
X051608Y019451D01*
X051608Y019344D01*
X051181Y019344D01*
X051181Y019237D02*
X051288Y019131D01*
X051501Y019131D01*
X051825Y019131D02*
X051825Y019558D01*
X051825Y019344D02*
X052039Y019558D01*
X052146Y019558D01*
X052363Y019558D02*
X052683Y019558D01*
X052790Y019451D01*
X052790Y019131D01*
X053007Y019237D02*
X053114Y019131D01*
X053327Y019131D01*
X053434Y019237D01*
X053434Y019451D01*
X053327Y019558D01*
X053114Y019558D01*
X053007Y019451D01*
X053007Y019237D01*
X052363Y019131D02*
X052363Y019558D01*
X052254Y018721D02*
X052147Y018614D01*
X052147Y018081D01*
X052040Y018401D02*
X052254Y018401D01*
X052470Y018401D02*
X052577Y018508D01*
X052790Y018508D01*
X052897Y018401D01*
X052897Y018294D01*
X052470Y018294D01*
X052470Y018187D02*
X052470Y018401D01*
X052470Y018187D02*
X052577Y018081D01*
X052790Y018081D01*
X053114Y018081D02*
X053114Y018508D01*
X053114Y018294D02*
X053328Y018508D01*
X053435Y018508D01*
X053652Y018401D02*
X053758Y018508D01*
X053972Y018508D01*
X054079Y018401D01*
X054079Y018294D01*
X053652Y018294D01*
X053652Y018187D02*
X053652Y018401D01*
X053652Y018187D02*
X053758Y018081D01*
X053972Y018081D01*
X054296Y018081D02*
X054296Y018508D01*
X054616Y018508D01*
X054723Y018401D01*
X054723Y018081D01*
X055047Y018187D02*
X055154Y018081D01*
X055047Y018187D02*
X055047Y018614D01*
X054941Y018508D02*
X055154Y018508D01*
X055370Y018508D02*
X055477Y018508D01*
X055477Y018081D01*
X055370Y018081D02*
X055584Y018081D01*
X055800Y018187D02*
X055907Y018081D01*
X056227Y018081D01*
X056227Y018401D01*
X056120Y018508D01*
X055907Y018508D01*
X055907Y018294D02*
X056227Y018294D01*
X056445Y018081D02*
X056658Y018081D01*
X056551Y018081D02*
X056551Y018721D01*
X056445Y018721D01*
X056660Y018917D02*
X056873Y019131D01*
X056766Y019131D01*
X056766Y019237D01*
X056873Y019237D01*
X056873Y019131D01*
X056443Y019131D02*
X056337Y019237D01*
X056337Y019664D01*
X056443Y019558D02*
X056230Y019558D01*
X056012Y019558D02*
X056012Y019131D01*
X055692Y019131D01*
X055585Y019237D01*
X055585Y019558D01*
X055368Y019664D02*
X055261Y019771D01*
X055047Y019771D01*
X054941Y019664D01*
X054941Y019237D01*
X055047Y019131D01*
X055261Y019131D01*
X055368Y019237D01*
X055368Y019664D01*
X055477Y018828D02*
X055477Y018721D01*
X055907Y018294D02*
X055800Y018187D01*
X057519Y018081D02*
X057519Y018508D01*
X057626Y018508D01*
X057732Y018401D01*
X057839Y018508D01*
X057946Y018401D01*
X057946Y018081D01*
X057732Y018081D02*
X057732Y018401D01*
X058163Y018401D02*
X058270Y018508D01*
X058484Y018508D01*
X058590Y018401D01*
X058590Y018294D01*
X058163Y018294D01*
X058163Y018187D02*
X058163Y018401D01*
X058163Y018187D02*
X058270Y018081D01*
X058484Y018081D01*
X058915Y018187D02*
X059022Y018081D01*
X058915Y018187D02*
X058915Y018614D01*
X058808Y018508D02*
X059022Y018508D01*
X059238Y018401D02*
X059344Y018508D01*
X059558Y018508D01*
X059665Y018401D01*
X059665Y018294D01*
X059238Y018294D01*
X059238Y018187D02*
X059238Y018401D01*
X059238Y018187D02*
X059344Y018081D01*
X059558Y018081D01*
X059882Y018081D02*
X059882Y018508D01*
X059882Y018294D02*
X060096Y018508D01*
X060203Y018508D01*
X061064Y018508D02*
X061064Y018081D01*
X061064Y018401D02*
X061491Y018401D01*
X061491Y018508D02*
X061491Y018081D01*
X061708Y018081D02*
X061922Y018081D01*
X061815Y018081D02*
X061815Y018721D01*
X061708Y018721D02*
X061922Y018721D01*
X062138Y018721D02*
X062565Y018081D01*
X062565Y018721D01*
X062783Y018401D02*
X062996Y018614D01*
X063210Y018721D01*
X063103Y018401D02*
X062783Y018401D01*
X062783Y018187D01*
X062889Y018081D01*
X063103Y018081D01*
X063210Y018187D01*
X063210Y018294D01*
X063103Y018401D01*
X063427Y018401D02*
X063854Y018401D01*
X063641Y018614D02*
X063641Y018187D01*
X064072Y018081D02*
X064499Y018721D01*
X064716Y018401D02*
X065143Y018401D01*
X065468Y018187D02*
X065468Y018081D01*
X065574Y018081D01*
X065574Y018187D01*
X065468Y018187D01*
X065574Y018081D02*
X065361Y017867D01*
X066435Y018081D02*
X066755Y018081D01*
X066862Y018187D01*
X066862Y018401D01*
X066755Y018508D01*
X066435Y018508D01*
X066435Y018721D02*
X066435Y018081D01*
X067080Y018081D02*
X067293Y018081D01*
X067186Y018081D02*
X067186Y018721D01*
X067080Y018721D01*
X067294Y019131D02*
X067187Y019237D01*
X067187Y019451D01*
X067294Y019558D01*
X067507Y019558D01*
X067614Y019451D01*
X067614Y019344D01*
X067187Y019344D01*
X067294Y019131D02*
X067507Y019131D01*
X067832Y019237D02*
X067832Y019451D01*
X067938Y019558D01*
X068259Y019558D01*
X068259Y019771D02*
X068259Y019131D01*
X067938Y019131D01*
X067832Y019237D01*
X068476Y019131D02*
X068690Y019344D01*
X068690Y019558D01*
X068476Y019771D01*
X068799Y018721D02*
X068799Y018081D01*
X068799Y018294D02*
X069119Y018508D01*
X069336Y018721D02*
X069549Y018508D01*
X069549Y018294D01*
X069336Y018081D01*
X069119Y018081D02*
X068799Y018294D01*
X068581Y018081D02*
X068261Y018081D01*
X068154Y018187D01*
X068154Y018401D01*
X068261Y018508D01*
X068581Y018508D01*
X067936Y018401D02*
X067936Y018081D01*
X067616Y018081D01*
X067509Y018187D01*
X067616Y018294D01*
X067936Y018294D01*
X067936Y018401D02*
X067830Y018508D01*
X067616Y018508D01*
X066650Y019131D02*
X066650Y019558D01*
X066864Y019558D02*
X066970Y019558D01*
X066864Y019558D02*
X066650Y019344D01*
X065789Y019237D02*
X065683Y019237D01*
X065683Y019131D01*
X065789Y019131D01*
X065789Y019237D01*
X065789Y019131D02*
X065576Y018917D01*
X065358Y019131D02*
X065358Y019451D01*
X065251Y019558D01*
X064931Y019558D01*
X064931Y019131D01*
X064714Y019558D02*
X064608Y019558D01*
X064394Y019344D01*
X064394Y019131D02*
X064394Y019558D01*
X064177Y019558D02*
X064177Y019131D01*
X063856Y019131D01*
X063750Y019237D01*
X063750Y019558D01*
X063533Y019558D02*
X063320Y019558D01*
X063427Y019664D02*
X063427Y019237D01*
X063533Y019131D01*
X063102Y019344D02*
X063102Y019451D01*
X062996Y019558D01*
X062782Y019558D01*
X062675Y019451D01*
X062675Y019237D01*
X062782Y019131D01*
X062996Y019131D01*
X063102Y019344D02*
X062675Y019344D01*
X062458Y019558D02*
X062352Y019558D01*
X062138Y019344D01*
X062138Y019131D02*
X062138Y019558D01*
X061276Y019558D02*
X060849Y019131D01*
X060632Y019237D02*
X060632Y019451D01*
X060525Y019558D01*
X060311Y019558D01*
X060205Y019451D01*
X060205Y019237D01*
X060311Y019131D01*
X060525Y019131D01*
X060632Y019237D01*
X060849Y019558D02*
X061276Y019131D01*
X061277Y018721D02*
X061491Y018508D01*
X061277Y018721D02*
X061064Y018508D01*
X062138Y018721D02*
X062138Y018081D01*
X059987Y019131D02*
X059987Y019451D01*
X059880Y019558D01*
X059560Y019558D01*
X059560Y019131D01*
X059343Y019558D02*
X059236Y019558D01*
X059023Y019344D01*
X059023Y019131D02*
X059023Y019558D01*
X058805Y019451D02*
X058805Y019344D01*
X058378Y019344D01*
X058378Y019237D02*
X058378Y019451D01*
X058485Y019558D01*
X058699Y019558D01*
X058805Y019451D01*
X058699Y019131D02*
X058485Y019131D01*
X058378Y019237D01*
X058161Y019237D02*
X058054Y019131D01*
X057841Y019131D01*
X057734Y019237D01*
X057734Y019664D01*
X057841Y019771D01*
X058054Y019771D01*
X058161Y019664D01*
X058163Y021231D02*
X058163Y021658D01*
X058270Y021658D01*
X058377Y021551D01*
X058484Y021658D01*
X058590Y021551D01*
X058590Y021231D01*
X058377Y021231D02*
X058377Y021551D01*
X058808Y021551D02*
X058915Y021658D01*
X059128Y021658D01*
X059235Y021551D01*
X059235Y021444D01*
X058808Y021444D01*
X058808Y021337D02*
X058808Y021551D01*
X058808Y021337D02*
X058915Y021231D01*
X059128Y021231D01*
X059559Y021337D02*
X059559Y021764D01*
X059453Y021658D02*
X059666Y021658D01*
X059882Y021551D02*
X059989Y021658D01*
X060203Y021658D01*
X060309Y021551D01*
X060309Y021444D01*
X059882Y021444D01*
X059882Y021337D02*
X059882Y021551D01*
X059882Y021337D02*
X059989Y021231D01*
X060203Y021231D01*
X060527Y021231D02*
X060527Y021658D01*
X060740Y021658D02*
X060847Y021658D01*
X060740Y021658D02*
X060527Y021444D01*
X061064Y021551D02*
X061171Y021658D01*
X061491Y021658D01*
X061384Y021444D02*
X061171Y021444D01*
X061064Y021551D01*
X061064Y021231D02*
X061384Y021231D01*
X061491Y021337D01*
X061384Y021444D01*
X062353Y021551D02*
X062780Y021551D01*
X062780Y021658D02*
X062780Y021231D01*
X062998Y021231D02*
X063211Y021231D01*
X063104Y021231D02*
X063104Y021871D01*
X062998Y021871D02*
X063211Y021871D01*
X063427Y021871D02*
X063854Y021231D01*
X063854Y021871D01*
X064072Y021658D02*
X064285Y021871D01*
X064285Y021231D01*
X064072Y021231D02*
X064499Y021231D01*
X065361Y021658D02*
X065574Y021658D01*
X065468Y021764D02*
X065468Y021337D01*
X065574Y021231D01*
X065791Y021337D02*
X065897Y021231D01*
X066111Y021231D01*
X066218Y021337D01*
X066218Y021551D01*
X066111Y021658D01*
X065897Y021658D01*
X065791Y021551D01*
X065791Y021337D01*
X067080Y021231D02*
X067080Y021658D01*
X067293Y021871D01*
X067507Y021658D01*
X067507Y021231D01*
X067724Y021231D02*
X067938Y021231D01*
X067831Y021231D02*
X067831Y021871D01*
X067724Y021871D02*
X067938Y021871D01*
X068154Y021871D02*
X068581Y021231D01*
X068581Y021871D01*
X068799Y021764D02*
X068905Y021871D01*
X069119Y021871D01*
X069226Y021764D01*
X069226Y021658D01*
X069119Y021551D01*
X069226Y021444D01*
X069226Y021337D01*
X069119Y021231D01*
X068905Y021231D01*
X068799Y021337D01*
X069012Y021551D02*
X069119Y021551D01*
X069550Y021337D02*
X069550Y021231D01*
X069657Y021231D01*
X069657Y021337D01*
X069550Y021337D01*
X069657Y021231D02*
X069443Y021017D01*
X070517Y021231D02*
X070838Y021231D01*
X070944Y021337D01*
X070944Y021551D01*
X070838Y021658D01*
X070517Y021658D01*
X070517Y021871D02*
X070517Y021231D01*
X071162Y021231D02*
X071375Y021231D01*
X071269Y021231D02*
X071269Y021871D01*
X071162Y021871D01*
X071698Y021658D02*
X071912Y021658D01*
X072019Y021551D01*
X072019Y021231D01*
X071698Y021231D01*
X071592Y021337D01*
X071698Y021444D01*
X072019Y021444D01*
X072236Y021337D02*
X072343Y021231D01*
X072663Y021231D01*
X072881Y021231D02*
X072881Y021871D01*
X072663Y021658D02*
X072343Y021658D01*
X072236Y021551D01*
X072236Y021337D01*
X072881Y021444D02*
X073201Y021658D01*
X073418Y021871D02*
X073631Y021658D01*
X073631Y021444D01*
X073418Y021231D01*
X073201Y021231D02*
X072881Y021444D01*
X068154Y021231D02*
X068154Y021871D01*
X067507Y021551D02*
X067080Y021551D01*
X063427Y021231D02*
X063427Y021871D01*
X062780Y021658D02*
X062567Y021871D01*
X062353Y021658D01*
X062353Y021231D01*
X061494Y022281D02*
X061707Y022494D01*
X061707Y022708D01*
X061494Y022921D01*
X061276Y022921D02*
X061276Y022281D01*
X060956Y022281D01*
X060849Y022387D01*
X060849Y022601D01*
X060956Y022708D01*
X061276Y022708D01*
X060632Y022601D02*
X060632Y022494D01*
X060205Y022494D01*
X060205Y022387D02*
X060205Y022601D01*
X060311Y022708D01*
X060525Y022708D01*
X060632Y022601D01*
X060525Y022281D02*
X060311Y022281D01*
X060205Y022387D01*
X059988Y022708D02*
X059881Y022708D01*
X059667Y022494D01*
X059667Y022281D02*
X059667Y022708D01*
X058807Y022387D02*
X058700Y022387D01*
X058700Y022281D01*
X058807Y022281D01*
X058807Y022387D01*
X058807Y022281D02*
X058593Y022067D01*
X058269Y022281D02*
X058055Y022281D01*
X057949Y022387D01*
X057949Y022601D01*
X058055Y022708D01*
X058269Y022708D01*
X058376Y022601D01*
X058376Y022494D01*
X057949Y022494D01*
X057731Y022708D02*
X057518Y022281D01*
X057304Y022708D01*
X056981Y022708D02*
X056981Y022281D01*
X056874Y022281D02*
X057088Y022281D01*
X057089Y021871D02*
X057196Y021871D01*
X057196Y021231D01*
X057089Y021231D02*
X057303Y021231D01*
X056872Y021231D02*
X056551Y021231D01*
X056445Y021337D01*
X056551Y021444D01*
X056872Y021444D01*
X056872Y021551D02*
X056872Y021231D01*
X056872Y021551D02*
X056765Y021658D01*
X056551Y021658D01*
X056122Y021658D02*
X056122Y021231D01*
X056228Y021231D02*
X056015Y021231D01*
X055799Y021231D02*
X055692Y021337D01*
X055692Y021764D01*
X055585Y021658D02*
X055799Y021658D01*
X056015Y021658D02*
X056122Y021658D01*
X056122Y021871D02*
X056122Y021978D01*
X056120Y022281D02*
X055799Y022281D01*
X055693Y022387D01*
X055693Y022601D01*
X055799Y022708D01*
X056120Y022708D01*
X056120Y022921D02*
X056120Y022281D01*
X056337Y022281D02*
X056337Y022708D01*
X056551Y022708D02*
X056658Y022708D01*
X056551Y022708D02*
X056337Y022494D01*
X056874Y022708D02*
X056981Y022708D01*
X056981Y022921D02*
X056981Y023028D01*
X056981Y024381D02*
X056874Y024487D01*
X056874Y024701D01*
X056981Y024808D01*
X057195Y024808D01*
X057301Y024701D01*
X057301Y024487D01*
X057195Y024381D01*
X056981Y024381D01*
X056658Y024381D02*
X056445Y024381D01*
X056551Y024381D02*
X056551Y024808D01*
X056445Y024808D01*
X056228Y024808D02*
X056015Y024808D01*
X056122Y024914D02*
X056122Y024487D01*
X056228Y024381D01*
X055797Y024381D02*
X055477Y024381D01*
X055370Y024487D01*
X055370Y024701D01*
X055477Y024808D01*
X055797Y024808D01*
X055153Y024701D02*
X055153Y024594D01*
X054726Y024594D01*
X054726Y024487D02*
X054726Y024701D01*
X054833Y024808D01*
X055046Y024808D01*
X055153Y024701D01*
X055046Y024381D02*
X054833Y024381D01*
X054726Y024487D01*
X054510Y024381D02*
X054403Y024487D01*
X054403Y024914D01*
X054296Y024808D02*
X054510Y024808D01*
X054079Y024701D02*
X054079Y024594D01*
X053652Y024594D01*
X053652Y024487D02*
X053652Y024701D01*
X053758Y024808D01*
X053972Y024808D01*
X054079Y024701D01*
X053972Y024381D02*
X053758Y024381D01*
X053652Y024487D01*
X053434Y024381D02*
X053434Y025021D01*
X053434Y024808D02*
X053114Y024808D01*
X053007Y024701D01*
X053007Y024487D01*
X053114Y024381D01*
X053434Y024381D01*
X052145Y024594D02*
X052145Y024701D01*
X052038Y024808D01*
X051825Y024808D01*
X051718Y024701D01*
X051718Y024487D01*
X051825Y024381D01*
X052038Y024381D01*
X052145Y024594D02*
X051718Y024594D01*
X051500Y024701D02*
X051500Y024381D01*
X051500Y024701D02*
X051394Y024808D01*
X051180Y024808D01*
X051073Y024701D01*
X050857Y024808D02*
X050644Y024808D01*
X050750Y024914D02*
X050750Y024487D01*
X050857Y024381D01*
X051073Y024381D02*
X051073Y025021D01*
X049783Y025021D02*
X049676Y024914D01*
X049676Y024381D01*
X049569Y024701D02*
X049783Y024701D01*
X049352Y024701D02*
X049352Y024487D01*
X049245Y024381D01*
X049032Y024381D01*
X048925Y024487D01*
X048925Y024701D01*
X049032Y024808D01*
X049245Y024808D01*
X049352Y024701D01*
X048063Y024808D02*
X048063Y024274D01*
X047956Y024167D01*
X047849Y024167D01*
X047743Y024381D02*
X048063Y024381D01*
X047743Y024381D02*
X047636Y024487D01*
X047636Y024701D01*
X047743Y024808D01*
X048063Y024808D01*
X047418Y024701D02*
X047418Y024381D01*
X047418Y024701D02*
X047312Y024808D01*
X046991Y024808D01*
X046991Y024381D01*
X046775Y024381D02*
X046562Y024381D01*
X046668Y024381D02*
X046668Y024808D01*
X046562Y024808D01*
X046345Y024808D02*
X046132Y024808D01*
X046239Y024914D02*
X046239Y024487D01*
X046345Y024381D01*
X045914Y024487D02*
X045808Y024594D01*
X045594Y024594D01*
X045487Y024701D01*
X045594Y024808D01*
X045914Y024808D01*
X045914Y024487D02*
X045808Y024381D01*
X045487Y024381D01*
X045270Y024594D02*
X045270Y024701D01*
X045163Y024808D01*
X044950Y024808D01*
X044843Y024701D01*
X044843Y024487D01*
X044950Y024381D01*
X045163Y024381D01*
X045270Y024594D02*
X044843Y024594D01*
X044627Y024381D02*
X044520Y024487D01*
X044520Y024914D01*
X044413Y024808D02*
X044627Y024808D01*
X044519Y024078D02*
X044519Y023971D01*
X044519Y023758D02*
X044519Y023224D01*
X044412Y023117D01*
X044306Y023117D01*
X044735Y023437D02*
X044842Y023331D01*
X045162Y023331D01*
X045162Y023758D01*
X045380Y023758D02*
X045487Y023758D01*
X045593Y023651D01*
X045700Y023758D01*
X045807Y023651D01*
X045807Y023331D01*
X045593Y023331D02*
X045593Y023651D01*
X045380Y023758D02*
X045380Y023331D01*
X046024Y023331D02*
X046345Y023331D01*
X046451Y023437D01*
X046451Y023651D01*
X046345Y023758D01*
X046024Y023758D01*
X046024Y023117D01*
X046023Y022921D02*
X046023Y022281D01*
X045810Y022281D02*
X046237Y022281D01*
X046237Y021871D02*
X045810Y021871D01*
X045810Y021551D01*
X046023Y021658D01*
X046130Y021658D01*
X046237Y021551D01*
X046237Y021337D01*
X046130Y021231D01*
X045916Y021231D01*
X045810Y021337D01*
X044948Y021551D02*
X044520Y021551D01*
X043658Y021231D02*
X043231Y021231D01*
X043445Y021231D02*
X043445Y021871D01*
X043231Y021658D01*
X043014Y021764D02*
X043014Y021551D01*
X042907Y021444D01*
X042587Y021444D01*
X042587Y021231D02*
X042587Y021871D01*
X042907Y021871D01*
X043014Y021764D01*
X043231Y022281D02*
X043658Y022281D01*
X043445Y022281D02*
X043445Y022921D01*
X043231Y022708D01*
X043014Y022814D02*
X043014Y022601D01*
X042907Y022494D01*
X042587Y022494D01*
X042587Y022281D02*
X042587Y022921D01*
X042907Y022921D01*
X043014Y022814D01*
X042369Y022921D02*
X042156Y022921D01*
X042263Y022921D02*
X042263Y022387D01*
X042156Y022281D01*
X042049Y022281D01*
X041942Y022387D01*
X042156Y021871D02*
X042369Y021871D01*
X042263Y021871D02*
X042263Y021337D01*
X042156Y021231D01*
X042049Y021231D01*
X041942Y021337D01*
X044520Y022601D02*
X044948Y022601D01*
X045810Y022708D02*
X046023Y022921D01*
X046669Y023437D02*
X046669Y023651D01*
X046776Y023758D01*
X046989Y023758D01*
X047096Y023651D01*
X047096Y023544D01*
X046669Y023544D01*
X046669Y023437D02*
X046776Y023331D01*
X046989Y023331D01*
X047314Y023331D02*
X047314Y023758D01*
X047527Y023758D02*
X047634Y023758D01*
X047527Y023758D02*
X047314Y023544D01*
X047851Y023651D02*
X047957Y023758D01*
X048278Y023758D01*
X048171Y023544D02*
X047957Y023544D01*
X047851Y023651D01*
X047851Y023331D02*
X048171Y023331D01*
X048278Y023437D01*
X048171Y023544D01*
X049140Y023437D02*
X049247Y023331D01*
X049460Y023331D01*
X049567Y023437D01*
X049567Y023651D01*
X049460Y023758D01*
X049247Y023758D01*
X049140Y023651D01*
X049140Y023437D01*
X049138Y022921D02*
X048817Y022601D01*
X049245Y022601D01*
X049138Y022281D02*
X049138Y022921D01*
X049784Y023331D02*
X049784Y023758D01*
X050105Y023758D01*
X050211Y023651D01*
X050211Y023331D01*
X050320Y022921D02*
X050107Y022708D01*
X050107Y022494D01*
X050320Y022281D01*
X050536Y022281D02*
X050536Y022708D01*
X050750Y022708D02*
X050857Y022708D01*
X050750Y022708D02*
X050536Y022494D01*
X051073Y022494D02*
X051500Y022494D01*
X051500Y022601D01*
X051394Y022708D01*
X051180Y022708D01*
X051073Y022601D01*
X051073Y022387D01*
X051180Y022281D01*
X051394Y022281D01*
X051718Y022281D02*
X052038Y022281D01*
X052145Y022387D01*
X052038Y022494D01*
X051825Y022494D01*
X051718Y022601D01*
X051825Y022708D01*
X052145Y022708D01*
X052363Y022708D02*
X052469Y022708D01*
X052469Y022281D01*
X052363Y022281D02*
X052576Y022281D01*
X052792Y022281D02*
X053112Y022281D01*
X053219Y022387D01*
X053112Y022494D01*
X052899Y022494D01*
X052792Y022601D01*
X052899Y022708D01*
X053219Y022708D01*
X053437Y022708D02*
X053650Y022708D01*
X053544Y022814D02*
X053544Y022387D01*
X053650Y022281D01*
X053866Y022387D02*
X053973Y022281D01*
X054187Y022281D01*
X054293Y022387D01*
X054293Y022601D01*
X054187Y022708D01*
X053973Y022708D01*
X053866Y022601D01*
X053866Y022387D01*
X054511Y022281D02*
X054511Y022708D01*
X054725Y022708D02*
X054831Y022708D01*
X054725Y022708D02*
X054511Y022494D01*
X054616Y021658D02*
X054723Y021551D01*
X054723Y021444D01*
X054296Y021444D01*
X054296Y021337D02*
X054296Y021551D01*
X054403Y021658D01*
X054616Y021658D01*
X054941Y021658D02*
X055261Y021658D01*
X055368Y021551D01*
X055368Y021231D01*
X054941Y021231D02*
X054941Y021658D01*
X054616Y021231D02*
X054403Y021231D01*
X054296Y021337D01*
X054079Y021658D02*
X053973Y021658D01*
X053759Y021444D01*
X053759Y021231D02*
X053759Y021658D01*
X053542Y021551D02*
X053542Y021444D01*
X053114Y021444D01*
X053114Y021337D02*
X053114Y021551D01*
X053221Y021658D01*
X053435Y021658D01*
X053542Y021551D01*
X053435Y021231D02*
X053221Y021231D01*
X053114Y021337D01*
X052898Y021551D02*
X052685Y021551D01*
X052469Y021551D02*
X052255Y021551D01*
X052362Y021764D02*
X052362Y021231D01*
X052039Y021231D02*
X051825Y021231D01*
X051932Y021231D02*
X051932Y021658D01*
X051825Y021658D01*
X051608Y021658D02*
X051288Y021658D01*
X051181Y021551D01*
X051181Y021337D01*
X051288Y021231D01*
X051608Y021231D01*
X051608Y021871D01*
X051932Y021871D02*
X051932Y021978D01*
X052362Y021764D02*
X052469Y021871D01*
X052792Y021764D02*
X052792Y021231D01*
X052792Y021764D02*
X052898Y021871D01*
X052469Y022921D02*
X052469Y023028D01*
X050965Y021871D02*
X050751Y021658D01*
X050751Y021444D01*
X050965Y021231D01*
X049889Y021337D02*
X049889Y021764D01*
X049462Y021337D01*
X049569Y021231D01*
X049782Y021231D01*
X049889Y021337D01*
X049462Y021337D02*
X049462Y021764D01*
X049569Y021871D01*
X049782Y021871D01*
X049889Y021764D01*
X049245Y021231D02*
X048817Y021231D01*
X049031Y021231D02*
X049031Y021871D01*
X048817Y021658D01*
X047955Y021551D02*
X047849Y021658D01*
X047635Y021658D01*
X047528Y021551D01*
X047528Y021337D01*
X047635Y021231D01*
X047849Y021231D01*
X047955Y021337D01*
X047955Y021551D01*
X047312Y021658D02*
X047099Y021658D01*
X047205Y021764D02*
X047205Y021337D01*
X047312Y021231D01*
X047312Y022281D02*
X047205Y022387D01*
X047205Y022814D01*
X047099Y022708D02*
X047312Y022708D01*
X047528Y022601D02*
X047528Y022387D01*
X047635Y022281D01*
X047849Y022281D01*
X047955Y022387D01*
X047955Y022601D01*
X047849Y022708D01*
X047635Y022708D01*
X047528Y022601D01*
X044735Y023437D02*
X044735Y023758D01*
X043445Y023758D02*
X043231Y023758D01*
X043338Y023864D02*
X043338Y023437D01*
X043445Y023331D01*
X043014Y023331D02*
X043014Y023758D01*
X042587Y023758D02*
X042587Y023437D01*
X042694Y023331D01*
X043014Y023331D01*
X042369Y023437D02*
X042263Y023331D01*
X041942Y023331D01*
X041942Y023117D02*
X041942Y023758D01*
X042263Y023758D01*
X042369Y023651D01*
X042369Y023437D01*
X042694Y024381D02*
X042587Y024487D01*
X042587Y024701D01*
X042694Y024808D01*
X042907Y024808D01*
X043014Y024701D01*
X043014Y024487D01*
X042907Y024381D01*
X042694Y024381D01*
X043231Y024381D02*
X043231Y024808D01*
X043231Y024594D02*
X043445Y024808D01*
X043552Y024808D01*
X042369Y025021D02*
X041942Y025021D01*
X041942Y024381D01*
X041942Y024701D02*
X042156Y024701D01*
X038393Y025089D02*
X038393Y023389D01*
X038243Y023239D01*
X037543Y023239D01*
X037393Y023389D01*
X037243Y023239D01*
X036543Y023239D01*
X036393Y023389D01*
X036243Y023239D01*
X035543Y023239D01*
X035393Y023389D01*
X035243Y023239D01*
X034543Y023239D01*
X034393Y023389D01*
X034243Y023239D01*
X033543Y023239D01*
X033393Y023389D01*
X033243Y023239D01*
X032543Y023239D01*
X032393Y023389D01*
X032243Y023239D01*
X031543Y023239D01*
X031393Y023389D01*
X031243Y023239D01*
X030543Y023239D01*
X030393Y023389D01*
X030243Y023239D01*
X029543Y023239D01*
X029393Y023389D01*
X029243Y023239D01*
X028543Y023239D01*
X028393Y023389D01*
X028393Y025089D01*
X028543Y025239D01*
X029243Y025239D01*
X029393Y025089D01*
X029543Y025239D01*
X030243Y025239D01*
X030393Y025089D01*
X030543Y025239D01*
X031243Y025239D01*
X031393Y025089D01*
X031543Y025239D01*
X032243Y025239D01*
X032393Y025089D01*
X032543Y025239D01*
X033243Y025239D01*
X033393Y025089D01*
X033543Y025239D01*
X034243Y025239D01*
X034393Y025089D01*
X034543Y025239D01*
X035243Y025239D01*
X035393Y025089D01*
X035543Y025239D01*
X036243Y025239D01*
X036393Y025089D01*
X036543Y025239D01*
X037243Y025239D01*
X037393Y025089D01*
X037543Y025239D01*
X038243Y025239D01*
X038393Y025089D01*
X046668Y025128D02*
X046668Y025021D01*
X048817Y019771D02*
X048817Y019451D01*
X049031Y019558D01*
X049138Y019558D01*
X049245Y019451D01*
X049245Y019237D01*
X049138Y019131D01*
X048924Y019131D01*
X048817Y019237D01*
X048817Y019771D02*
X049245Y019771D01*
X050536Y019664D02*
X050643Y019771D01*
X050857Y019771D01*
X050963Y019664D01*
X051288Y018828D02*
X051288Y018721D01*
X051288Y018508D02*
X051288Y018081D01*
X051394Y018081D02*
X051181Y018081D01*
X051181Y018508D02*
X051288Y018508D01*
X051611Y018401D02*
X051824Y018401D01*
X051717Y018614D02*
X051717Y018081D01*
X051717Y018614D02*
X051824Y018721D01*
X053652Y019131D02*
X054079Y019558D01*
X053652Y019558D02*
X054079Y019131D01*
X054618Y016621D02*
X054511Y016514D01*
X054511Y016408D01*
X054618Y016301D01*
X054938Y016301D01*
X054938Y016514D02*
X054938Y016087D01*
X054831Y015981D01*
X054618Y015981D01*
X054511Y016087D01*
X054618Y016621D02*
X054831Y016621D01*
X054938Y016514D01*
X055156Y016408D02*
X055369Y016621D01*
X055369Y015981D01*
X055156Y015981D02*
X055583Y015981D01*
X055800Y015981D02*
X056227Y015981D01*
X056014Y015981D02*
X056014Y016621D01*
X055800Y016408D01*
X056445Y016514D02*
X056445Y016087D01*
X056872Y016514D01*
X056872Y016087D01*
X056765Y015981D01*
X056551Y015981D01*
X056445Y016087D01*
X056445Y016514D02*
X056551Y016621D01*
X056765Y016621D01*
X056872Y016514D01*
X057089Y016087D02*
X057196Y016087D01*
X057196Y015981D01*
X057089Y015981D01*
X057089Y016087D01*
X057411Y015981D02*
X057839Y016408D01*
X057839Y016514D01*
X057732Y016621D01*
X057518Y016621D01*
X057411Y016514D01*
X057411Y015981D02*
X057839Y015981D01*
X058056Y015981D02*
X058483Y015981D01*
X058270Y015981D02*
X058270Y016621D01*
X058056Y016408D01*
X058701Y016514D02*
X058701Y016087D01*
X059128Y016514D01*
X059128Y016087D01*
X059021Y015981D01*
X058807Y015981D01*
X058701Y016087D01*
X058701Y016514D02*
X058807Y016621D01*
X059021Y016621D01*
X059128Y016514D01*
X053649Y016301D02*
X053649Y016194D01*
X053222Y016194D01*
X053222Y016087D02*
X053222Y016301D01*
X053329Y016408D01*
X053542Y016408D01*
X053649Y016301D01*
X053542Y015981D02*
X053329Y015981D01*
X053222Y016087D01*
X053005Y016408D02*
X052898Y016408D01*
X052685Y016194D01*
X052685Y015981D02*
X052685Y016408D01*
X052467Y016408D02*
X052467Y015981D01*
X052147Y015981D01*
X052040Y016087D01*
X052040Y016408D01*
X051823Y016408D02*
X051502Y016408D01*
X051396Y016301D01*
X051502Y016194D01*
X051716Y016194D01*
X051823Y016087D01*
X051716Y015981D01*
X051396Y015981D01*
X051178Y016087D02*
X051178Y016301D01*
X051071Y016408D01*
X050858Y016408D01*
X050751Y016301D01*
X050751Y016087D01*
X050858Y015981D01*
X051071Y015981D01*
X051178Y016087D01*
X051071Y015571D02*
X050857Y015464D01*
X050644Y015251D01*
X050964Y015251D01*
X051071Y015144D01*
X051071Y015037D01*
X050964Y014931D01*
X050750Y014931D01*
X050644Y015037D01*
X050644Y015251D01*
X050426Y015358D02*
X050426Y015464D01*
X050319Y015571D01*
X050106Y015571D01*
X049999Y015464D01*
X050426Y015358D02*
X049999Y014931D01*
X050426Y014931D01*
X049782Y014931D02*
X049355Y014931D01*
X049568Y014931D02*
X049568Y015571D01*
X049355Y015358D01*
X049137Y015251D02*
X048710Y015251D01*
X048493Y015464D02*
X048066Y015037D01*
X048066Y014931D01*
X047848Y015037D02*
X047741Y014931D01*
X047528Y014931D01*
X047421Y015037D01*
X047421Y015251D02*
X047634Y015358D01*
X047741Y015358D01*
X047848Y015251D01*
X047848Y015037D01*
X047421Y015251D02*
X047421Y015571D01*
X047848Y015571D01*
X048066Y015571D02*
X048493Y015571D01*
X048493Y015464D01*
X047203Y015251D02*
X046776Y015251D01*
X047097Y015571D01*
X047097Y014931D01*
X045916Y014931D02*
X045809Y015037D01*
X045809Y015464D01*
X045702Y015358D02*
X045916Y015358D01*
X045485Y015358D02*
X045379Y015358D01*
X045165Y015144D01*
X045165Y014931D02*
X045165Y015358D01*
X044948Y015251D02*
X044948Y014931D01*
X044627Y014931D01*
X044520Y015037D01*
X044627Y015144D01*
X044948Y015144D01*
X044948Y015251D02*
X044841Y015358D01*
X044627Y015358D01*
X044303Y015464D02*
X044196Y015571D01*
X043876Y015571D01*
X043876Y014931D01*
X043876Y015144D02*
X044196Y015144D01*
X044303Y015251D01*
X044303Y015464D01*
X043014Y015464D02*
X042907Y015571D01*
X042694Y015571D01*
X042587Y015464D01*
X042587Y015358D01*
X042694Y015251D01*
X042907Y015251D01*
X043014Y015144D01*
X043014Y015037D01*
X042907Y014931D01*
X042694Y014931D01*
X042587Y015037D01*
X042369Y014931D02*
X042156Y015144D01*
X042263Y015144D02*
X041942Y015144D01*
X041942Y014931D02*
X041942Y015571D01*
X042263Y015571D01*
X042369Y015464D01*
X042369Y015251D01*
X042263Y015144D01*
X041942Y015981D02*
X041942Y016621D01*
X042369Y016621D01*
X042587Y016408D02*
X042694Y016408D01*
X042694Y015981D01*
X042800Y015981D02*
X042587Y015981D01*
X042156Y016301D02*
X041942Y016301D01*
X042694Y016621D02*
X042694Y016728D01*
X043017Y016408D02*
X043230Y016408D01*
X043123Y016514D02*
X043123Y016087D01*
X043230Y015981D01*
X043446Y015981D02*
X043767Y015981D01*
X043873Y016087D01*
X043767Y016194D01*
X043553Y016194D01*
X043446Y016301D01*
X043553Y016408D01*
X043873Y016408D01*
X044735Y016621D02*
X044735Y015981D01*
X044735Y016194D02*
X045056Y016194D01*
X045162Y016301D01*
X045162Y016514D01*
X045056Y016621D01*
X044735Y016621D01*
X044949Y016194D02*
X045162Y015981D01*
X045380Y015981D02*
X045593Y015981D01*
X045487Y015981D02*
X045487Y016408D01*
X045380Y016408D01*
X045487Y016621D02*
X045487Y016728D01*
X045810Y016408D02*
X046023Y016408D01*
X045916Y016514D02*
X045916Y016087D01*
X046023Y015981D01*
X046346Y016087D02*
X046346Y016514D01*
X046239Y016408D02*
X046453Y016408D01*
X046776Y016408D02*
X046989Y016408D01*
X047096Y016301D01*
X047096Y015981D01*
X046776Y015981D01*
X046669Y016087D01*
X046776Y016194D01*
X047096Y016194D01*
X047314Y015981D02*
X047527Y015981D01*
X047420Y015981D02*
X047420Y016621D01*
X047314Y016621D01*
X046453Y015981D02*
X046346Y016087D01*
X048388Y015981D02*
X048815Y015981D01*
X049032Y015981D02*
X049032Y016408D01*
X049353Y016408D01*
X049459Y016301D01*
X049459Y015981D01*
X049677Y016087D02*
X049784Y015981D01*
X050104Y015981D01*
X050321Y015981D02*
X050535Y015981D01*
X050428Y015981D02*
X050428Y016621D01*
X050321Y016621D01*
X050104Y016408D02*
X049784Y016408D01*
X049677Y016301D01*
X049677Y016087D01*
X048815Y016621D02*
X048388Y016621D01*
X048388Y015981D01*
X048388Y016301D02*
X048601Y016301D01*
X051288Y015464D02*
X051288Y015358D01*
X051395Y015251D01*
X051715Y015251D01*
X051715Y015464D02*
X051609Y015571D01*
X051395Y015571D01*
X051288Y015464D01*
X051288Y015037D02*
X051395Y014931D01*
X051609Y014931D01*
X051715Y015037D01*
X051715Y015464D01*
X046881Y012101D02*
X046774Y012208D01*
X046561Y012208D01*
X046454Y012101D01*
X046454Y011887D01*
X046561Y011781D01*
X046774Y011781D01*
X046881Y011887D01*
X046881Y012101D01*
X046237Y012101D02*
X046237Y011781D01*
X046237Y012101D02*
X046130Y012208D01*
X045810Y012208D01*
X045810Y011781D01*
X045592Y011781D02*
X045592Y012101D01*
X045485Y012208D01*
X045165Y012208D01*
X045165Y011781D01*
X044948Y011994D02*
X044520Y011994D01*
X044520Y011887D02*
X044520Y012101D01*
X044627Y012208D01*
X044841Y012208D01*
X044948Y012101D01*
X044948Y011994D01*
X044841Y011781D02*
X044627Y011781D01*
X044520Y011887D01*
X044303Y011887D02*
X044196Y011781D01*
X043876Y011781D01*
X043876Y012421D01*
X044196Y012421D01*
X044303Y012314D01*
X044303Y012208D01*
X044196Y012101D01*
X043876Y012101D01*
X044196Y012101D02*
X044303Y011994D01*
X044303Y011887D01*
X043014Y011781D02*
X042694Y011781D01*
X042587Y011887D01*
X042587Y012208D01*
X042369Y012101D02*
X042263Y012208D01*
X041942Y012208D01*
X041942Y012421D02*
X041942Y011781D01*
X042263Y011781D01*
X042369Y011887D01*
X042369Y012101D01*
X043014Y012208D02*
X043014Y011674D01*
X042907Y011567D01*
X042800Y011567D01*
X042156Y018081D02*
X042049Y018081D01*
X041942Y018187D01*
X042156Y018081D02*
X042263Y018187D01*
X042263Y018721D01*
X042369Y018721D02*
X042156Y018721D01*
X044520Y019451D02*
X044948Y019451D01*
X056551Y025021D02*
X056551Y025128D01*
X057519Y024808D02*
X057839Y024808D01*
X057946Y024701D01*
X057946Y024381D01*
X057519Y024381D02*
X057519Y024808D01*
X058808Y024701D02*
X058808Y024487D01*
X058915Y024381D01*
X059235Y024381D01*
X059453Y024381D02*
X059666Y024381D01*
X059559Y024381D02*
X059559Y024808D01*
X059453Y024808D01*
X059235Y024808D02*
X058915Y024808D01*
X058808Y024701D01*
X059559Y025021D02*
X059559Y025128D01*
X059882Y024808D02*
X059882Y024381D01*
X059882Y024594D02*
X060096Y024808D01*
X060203Y024808D01*
X060419Y024701D02*
X060419Y024487D01*
X060526Y024381D01*
X060846Y024381D01*
X061064Y024487D02*
X061171Y024381D01*
X061491Y024381D01*
X061491Y024808D01*
X061708Y024808D02*
X061815Y024808D01*
X061815Y024381D01*
X061708Y024381D02*
X061922Y024381D01*
X062245Y024487D02*
X062352Y024381D01*
X062245Y024487D02*
X062245Y024914D01*
X062138Y024808D02*
X062352Y024808D01*
X062568Y024808D02*
X062568Y024381D01*
X062568Y024594D02*
X062781Y024808D01*
X062888Y024808D01*
X063105Y024808D02*
X063105Y024487D01*
X063212Y024381D01*
X063532Y024381D01*
X063532Y024274D02*
X063425Y024167D01*
X063319Y024167D01*
X063532Y024274D02*
X063532Y024808D01*
X061815Y025021D02*
X061815Y025128D01*
X061064Y024808D02*
X061064Y024487D01*
X060846Y024808D02*
X060526Y024808D01*
X060419Y024701D01*
X059559Y021337D02*
X059666Y021231D01*
X042705Y034945D02*
X042705Y038945D01*
X042705Y038995D01*
X040705Y038995D01*
X040355Y038995D01*
X040355Y034945D01*
X040555Y034745D01*
X042505Y034745D01*
X042705Y034945D01*
X040865Y035995D02*
X040867Y036045D01*
X040873Y036095D01*
X040883Y036145D01*
X040896Y036193D01*
X040913Y036241D01*
X040934Y036287D01*
X040958Y036331D01*
X040986Y036373D01*
X041017Y036413D01*
X041051Y036450D01*
X041088Y036485D01*
X041127Y036516D01*
X041168Y036545D01*
X041212Y036570D01*
X041258Y036592D01*
X041305Y036610D01*
X041353Y036624D01*
X041402Y036635D01*
X041452Y036642D01*
X041502Y036645D01*
X041553Y036644D01*
X041603Y036639D01*
X041653Y036630D01*
X041701Y036618D01*
X041749Y036601D01*
X041795Y036581D01*
X041840Y036558D01*
X041883Y036531D01*
X041923Y036501D01*
X041961Y036468D01*
X041996Y036432D01*
X042029Y036393D01*
X042058Y036352D01*
X042084Y036309D01*
X042107Y036264D01*
X042126Y036217D01*
X042141Y036169D01*
X042153Y036120D01*
X042161Y036070D01*
X042165Y036020D01*
X042165Y035970D01*
X042161Y035920D01*
X042153Y035870D01*
X042141Y035821D01*
X042126Y035773D01*
X042107Y035726D01*
X042084Y035681D01*
X042058Y035638D01*
X042029Y035597D01*
X041996Y035558D01*
X041961Y035522D01*
X041923Y035489D01*
X041883Y035459D01*
X041840Y035432D01*
X041795Y035409D01*
X041749Y035389D01*
X041701Y035372D01*
X041653Y035360D01*
X041603Y035351D01*
X041553Y035346D01*
X041502Y035345D01*
X041452Y035348D01*
X041402Y035355D01*
X041353Y035366D01*
X041305Y035380D01*
X041258Y035398D01*
X041212Y035420D01*
X041168Y035445D01*
X041127Y035474D01*
X041088Y035505D01*
X041051Y035540D01*
X041017Y035577D01*
X040986Y035617D01*
X040958Y035659D01*
X040934Y035703D01*
X040913Y035749D01*
X040896Y035797D01*
X040883Y035845D01*
X040873Y035895D01*
X040867Y035945D01*
X040865Y035995D01*
X040255Y038695D02*
X040255Y038995D01*
X040355Y038995D01*
X040255Y038995D02*
X024255Y038995D01*
X024255Y038695D01*
X040255Y038695D01*
X040405Y038995D02*
X040435Y038997D01*
X040465Y039002D01*
X040494Y039011D01*
X040521Y039024D01*
X040547Y039039D01*
X040571Y039058D01*
X040592Y039079D01*
X040611Y039103D01*
X040626Y039129D01*
X040639Y039156D01*
X040648Y039185D01*
X040653Y039215D01*
X040655Y039245D01*
X040655Y040195D01*
X040705Y040195D01*
X040705Y040395D01*
X041705Y040395D01*
X042705Y040395D01*
X042705Y040195D01*
X042705Y038995D01*
X040705Y040095D02*
X040705Y040195D01*
X040705Y040395D02*
X023805Y040395D01*
X023805Y040195D01*
X023855Y040195D01*
X023855Y039245D01*
X023857Y039215D01*
X023862Y039185D01*
X023871Y039156D01*
X023884Y039129D01*
X023899Y039103D01*
X023918Y039079D01*
X023939Y039058D01*
X023963Y039039D01*
X023989Y039024D01*
X024016Y039011D01*
X024045Y039002D01*
X024075Y038997D01*
X024105Y038995D01*
X024155Y038995D02*
X024155Y034945D01*
X023955Y034745D01*
X022055Y034745D01*
X021805Y034995D01*
X021805Y038945D01*
X021805Y038995D01*
X021805Y040195D01*
X021805Y040395D01*
X022805Y040395D01*
X023805Y040395D01*
X023805Y040195D02*
X023805Y040095D01*
X024455Y040595D02*
X024485Y040597D01*
X024515Y040602D01*
X024544Y040611D01*
X024571Y040624D01*
X024597Y040639D01*
X024621Y040658D01*
X024642Y040679D01*
X024661Y040703D01*
X024676Y040729D01*
X024689Y040756D01*
X024698Y040785D01*
X024703Y040815D01*
X024705Y040845D01*
X024705Y042845D01*
X024707Y042871D01*
X024712Y042897D01*
X024720Y042922D01*
X024732Y042945D01*
X024746Y042967D01*
X024764Y042986D01*
X024783Y043004D01*
X024805Y043018D01*
X024828Y043030D01*
X024853Y043038D01*
X024879Y043043D01*
X024905Y043045D01*
X025005Y043045D01*
X039505Y043045D01*
X039605Y043045D01*
X039631Y043043D01*
X039657Y043038D01*
X039682Y043030D01*
X039705Y043018D01*
X039727Y043004D01*
X039746Y042986D01*
X039764Y042967D01*
X039778Y042945D01*
X039790Y042922D01*
X039798Y042897D01*
X039803Y042871D01*
X039805Y042845D01*
X039805Y040845D01*
X039807Y040815D01*
X039812Y040785D01*
X039821Y040756D01*
X039834Y040729D01*
X039849Y040703D01*
X039868Y040679D01*
X039889Y040658D01*
X039913Y040639D01*
X039939Y040624D01*
X039966Y040611D01*
X039995Y040602D01*
X040025Y040597D01*
X040055Y040595D01*
X039655Y040595D02*
X042705Y040595D01*
X042705Y040395D01*
X039655Y040595D02*
X024855Y040595D01*
X021805Y040595D01*
X021805Y040395D01*
X020067Y040395D02*
X019067Y040395D01*
X018067Y040395D01*
X018067Y040195D01*
X018017Y040195D01*
X018017Y039245D01*
X018015Y039215D01*
X018010Y039185D01*
X018001Y039156D01*
X017988Y039129D01*
X017973Y039103D01*
X017954Y039079D01*
X017933Y039058D01*
X017909Y039039D01*
X017883Y039024D01*
X017856Y039011D01*
X017827Y039002D01*
X017797Y038997D01*
X017767Y038995D01*
X017717Y038995D02*
X017717Y034945D01*
X017917Y034745D01*
X019867Y034745D01*
X020067Y034945D01*
X020067Y038945D01*
X020067Y038995D01*
X018067Y038995D01*
X017717Y038995D01*
X017617Y038995D01*
X017617Y038695D01*
X010317Y038695D01*
X010317Y038995D01*
X017617Y038995D01*
X018067Y040395D02*
X009867Y040395D01*
X009867Y040195D01*
X009917Y040195D01*
X009917Y039245D01*
X009919Y039215D01*
X009924Y039185D01*
X009933Y039156D01*
X009946Y039129D01*
X009961Y039103D01*
X009980Y039079D01*
X010001Y039058D01*
X010025Y039039D01*
X010051Y039024D01*
X010078Y039011D01*
X010107Y039002D01*
X010137Y038997D01*
X010167Y038995D01*
X010217Y038995D02*
X010217Y034945D01*
X010017Y034745D01*
X008117Y034745D01*
X007867Y034995D01*
X007867Y038945D01*
X007867Y038995D01*
X007867Y040195D01*
X007867Y040395D01*
X008867Y040395D01*
X009867Y040395D01*
X010517Y040595D02*
X010547Y040597D01*
X010577Y040602D01*
X010606Y040611D01*
X010633Y040624D01*
X010659Y040639D01*
X010683Y040658D01*
X010704Y040679D01*
X010723Y040703D01*
X010738Y040729D01*
X010751Y040756D01*
X010760Y040785D01*
X010765Y040815D01*
X010767Y040845D01*
X010767Y042845D01*
X010769Y042871D01*
X010774Y042897D01*
X010782Y042922D01*
X010794Y042945D01*
X010808Y042967D01*
X010826Y042986D01*
X010845Y043004D01*
X010867Y043018D01*
X010890Y043030D01*
X010915Y043038D01*
X010941Y043043D01*
X010967Y043045D01*
X011067Y043045D01*
X016867Y043045D01*
X016967Y043045D01*
X016993Y043043D01*
X017019Y043038D01*
X017044Y043030D01*
X017067Y043018D01*
X017089Y043004D01*
X017108Y042986D01*
X017126Y042967D01*
X017140Y042945D01*
X017152Y042922D01*
X017160Y042897D01*
X017165Y042871D01*
X017167Y042845D01*
X017167Y040845D01*
X017169Y040815D01*
X017174Y040785D01*
X017183Y040756D01*
X017196Y040729D01*
X017211Y040703D01*
X017230Y040679D01*
X017251Y040658D01*
X017275Y040639D01*
X017301Y040624D01*
X017328Y040611D01*
X017357Y040602D01*
X017387Y040597D01*
X017417Y040595D01*
X017017Y040595D02*
X010917Y040595D01*
X007867Y040595D01*
X007867Y040395D01*
X007867Y038995D02*
X009867Y038995D01*
X010217Y038995D01*
X010317Y038995D01*
X008387Y035995D02*
X008389Y036045D01*
X008395Y036095D01*
X008405Y036145D01*
X008418Y036193D01*
X008435Y036241D01*
X008456Y036287D01*
X008480Y036331D01*
X008508Y036373D01*
X008539Y036413D01*
X008573Y036450D01*
X008610Y036485D01*
X008649Y036516D01*
X008690Y036545D01*
X008734Y036570D01*
X008780Y036592D01*
X008827Y036610D01*
X008875Y036624D01*
X008924Y036635D01*
X008974Y036642D01*
X009024Y036645D01*
X009075Y036644D01*
X009125Y036639D01*
X009175Y036630D01*
X009223Y036618D01*
X009271Y036601D01*
X009317Y036581D01*
X009362Y036558D01*
X009405Y036531D01*
X009445Y036501D01*
X009483Y036468D01*
X009518Y036432D01*
X009551Y036393D01*
X009580Y036352D01*
X009606Y036309D01*
X009629Y036264D01*
X009648Y036217D01*
X009663Y036169D01*
X009675Y036120D01*
X009683Y036070D01*
X009687Y036020D01*
X009687Y035970D01*
X009683Y035920D01*
X009675Y035870D01*
X009663Y035821D01*
X009648Y035773D01*
X009629Y035726D01*
X009606Y035681D01*
X009580Y035638D01*
X009551Y035597D01*
X009518Y035558D01*
X009483Y035522D01*
X009445Y035489D01*
X009405Y035459D01*
X009362Y035432D01*
X009317Y035409D01*
X009271Y035389D01*
X009223Y035372D01*
X009175Y035360D01*
X009125Y035351D01*
X009075Y035346D01*
X009024Y035345D01*
X008974Y035348D01*
X008924Y035355D01*
X008875Y035366D01*
X008827Y035380D01*
X008780Y035398D01*
X008734Y035420D01*
X008690Y035445D01*
X008649Y035474D01*
X008610Y035505D01*
X008573Y035540D01*
X008539Y035577D01*
X008508Y035617D01*
X008480Y035659D01*
X008456Y035703D01*
X008435Y035749D01*
X008418Y035797D01*
X008405Y035845D01*
X008395Y035895D01*
X008389Y035945D01*
X008387Y035995D01*
X008523Y032457D02*
X009223Y032457D01*
X009240Y032455D01*
X009257Y032451D01*
X009273Y032444D01*
X009287Y032434D01*
X009300Y032421D01*
X009310Y032407D01*
X009317Y032391D01*
X009321Y032374D01*
X009323Y032357D01*
X009323Y032207D01*
X009273Y032157D01*
X009273Y030257D01*
X009323Y030207D01*
X009323Y030057D01*
X009321Y030040D01*
X009317Y030023D01*
X009310Y030007D01*
X009300Y029993D01*
X009287Y029980D01*
X009273Y029970D01*
X009257Y029963D01*
X009240Y029959D01*
X009223Y029957D01*
X008523Y029957D01*
X008506Y029959D01*
X008489Y029963D01*
X008473Y029970D01*
X008459Y029980D01*
X008446Y029993D01*
X008436Y030007D01*
X008429Y030023D01*
X008425Y030040D01*
X008423Y030057D01*
X008423Y030207D01*
X008473Y030257D01*
X008473Y032157D01*
X008423Y032207D01*
X008423Y032357D01*
X008425Y032374D01*
X008429Y032391D01*
X008436Y032407D01*
X008446Y032421D01*
X008459Y032434D01*
X008473Y032444D01*
X008489Y032451D01*
X008506Y032455D01*
X008523Y032457D01*
X010332Y032357D02*
X010332Y032207D01*
X010382Y032157D01*
X010382Y030257D01*
X010332Y030207D01*
X010332Y030057D01*
X010334Y030040D01*
X010338Y030023D01*
X010345Y030007D01*
X010355Y029993D01*
X010368Y029980D01*
X010382Y029970D01*
X010398Y029963D01*
X010415Y029959D01*
X010432Y029957D01*
X011132Y029957D01*
X011149Y029959D01*
X011166Y029963D01*
X011182Y029970D01*
X011196Y029980D01*
X011209Y029993D01*
X011219Y030007D01*
X011226Y030023D01*
X011230Y030040D01*
X011232Y030057D01*
X011232Y030207D01*
X011182Y030257D01*
X011182Y032157D01*
X011232Y032207D01*
X011232Y032357D01*
X011230Y032374D01*
X011226Y032391D01*
X011219Y032407D01*
X011209Y032421D01*
X011196Y032434D01*
X011182Y032444D01*
X011166Y032451D01*
X011149Y032455D01*
X011132Y032457D01*
X010432Y032457D01*
X010415Y032455D01*
X010398Y032451D01*
X010382Y032444D01*
X010368Y032434D01*
X010355Y032421D01*
X010345Y032407D01*
X010338Y032391D01*
X010334Y032374D01*
X010332Y032357D01*
X012242Y032357D02*
X012242Y032207D01*
X012292Y032157D01*
X012292Y030257D01*
X012242Y030207D01*
X012242Y030057D01*
X012244Y030040D01*
X012248Y030023D01*
X012255Y030007D01*
X012265Y029993D01*
X012278Y029980D01*
X012292Y029970D01*
X012308Y029963D01*
X012325Y029959D01*
X012342Y029957D01*
X013042Y029957D01*
X013059Y029959D01*
X013076Y029963D01*
X013092Y029970D01*
X013106Y029980D01*
X013119Y029993D01*
X013129Y030007D01*
X013136Y030023D01*
X013140Y030040D01*
X013142Y030057D01*
X013142Y030207D01*
X013092Y030257D01*
X013092Y032157D01*
X013142Y032207D01*
X013142Y032357D01*
X013140Y032374D01*
X013136Y032391D01*
X013129Y032407D01*
X013119Y032421D01*
X013106Y032434D01*
X013092Y032444D01*
X013076Y032451D01*
X013059Y032455D01*
X013042Y032457D01*
X012342Y032457D01*
X012325Y032455D01*
X012308Y032451D01*
X012292Y032444D01*
X012278Y032434D01*
X012265Y032421D01*
X012255Y032407D01*
X012248Y032391D01*
X012244Y032374D01*
X012242Y032357D01*
X018247Y035995D02*
X018249Y036045D01*
X018255Y036095D01*
X018265Y036145D01*
X018278Y036193D01*
X018295Y036241D01*
X018316Y036287D01*
X018340Y036331D01*
X018368Y036373D01*
X018399Y036413D01*
X018433Y036450D01*
X018470Y036485D01*
X018509Y036516D01*
X018550Y036545D01*
X018594Y036570D01*
X018640Y036592D01*
X018687Y036610D01*
X018735Y036624D01*
X018784Y036635D01*
X018834Y036642D01*
X018884Y036645D01*
X018935Y036644D01*
X018985Y036639D01*
X019035Y036630D01*
X019083Y036618D01*
X019131Y036601D01*
X019177Y036581D01*
X019222Y036558D01*
X019265Y036531D01*
X019305Y036501D01*
X019343Y036468D01*
X019378Y036432D01*
X019411Y036393D01*
X019440Y036352D01*
X019466Y036309D01*
X019489Y036264D01*
X019508Y036217D01*
X019523Y036169D01*
X019535Y036120D01*
X019543Y036070D01*
X019547Y036020D01*
X019547Y035970D01*
X019543Y035920D01*
X019535Y035870D01*
X019523Y035821D01*
X019508Y035773D01*
X019489Y035726D01*
X019466Y035681D01*
X019440Y035638D01*
X019411Y035597D01*
X019378Y035558D01*
X019343Y035522D01*
X019305Y035489D01*
X019265Y035459D01*
X019222Y035432D01*
X019177Y035409D01*
X019131Y035389D01*
X019083Y035372D01*
X019035Y035360D01*
X018985Y035351D01*
X018935Y035346D01*
X018884Y035345D01*
X018834Y035348D01*
X018784Y035355D01*
X018735Y035366D01*
X018687Y035380D01*
X018640Y035398D01*
X018594Y035420D01*
X018550Y035445D01*
X018509Y035474D01*
X018470Y035505D01*
X018433Y035540D01*
X018399Y035577D01*
X018368Y035617D01*
X018340Y035659D01*
X018316Y035703D01*
X018295Y035749D01*
X018278Y035797D01*
X018265Y035845D01*
X018255Y035895D01*
X018249Y035945D01*
X018247Y035995D01*
X022345Y035995D02*
X022347Y036045D01*
X022353Y036095D01*
X022363Y036145D01*
X022376Y036193D01*
X022393Y036241D01*
X022414Y036287D01*
X022438Y036331D01*
X022466Y036373D01*
X022497Y036413D01*
X022531Y036450D01*
X022568Y036485D01*
X022607Y036516D01*
X022648Y036545D01*
X022692Y036570D01*
X022738Y036592D01*
X022785Y036610D01*
X022833Y036624D01*
X022882Y036635D01*
X022932Y036642D01*
X022982Y036645D01*
X023033Y036644D01*
X023083Y036639D01*
X023133Y036630D01*
X023181Y036618D01*
X023229Y036601D01*
X023275Y036581D01*
X023320Y036558D01*
X023363Y036531D01*
X023403Y036501D01*
X023441Y036468D01*
X023476Y036432D01*
X023509Y036393D01*
X023538Y036352D01*
X023564Y036309D01*
X023587Y036264D01*
X023606Y036217D01*
X023621Y036169D01*
X023633Y036120D01*
X023641Y036070D01*
X023645Y036020D01*
X023645Y035970D01*
X023641Y035920D01*
X023633Y035870D01*
X023621Y035821D01*
X023606Y035773D01*
X023587Y035726D01*
X023564Y035681D01*
X023538Y035638D01*
X023509Y035597D01*
X023476Y035558D01*
X023441Y035522D01*
X023403Y035489D01*
X023363Y035459D01*
X023320Y035432D01*
X023275Y035409D01*
X023229Y035389D01*
X023181Y035372D01*
X023133Y035360D01*
X023083Y035351D01*
X023033Y035346D01*
X022982Y035345D01*
X022932Y035348D01*
X022882Y035355D01*
X022833Y035366D01*
X022785Y035380D01*
X022738Y035398D01*
X022692Y035420D01*
X022648Y035445D01*
X022607Y035474D01*
X022568Y035505D01*
X022531Y035540D01*
X022497Y035577D01*
X022466Y035617D01*
X022438Y035659D01*
X022414Y035703D01*
X022393Y035749D01*
X022376Y035797D01*
X022363Y035845D01*
X022353Y035895D01*
X022347Y035945D01*
X022345Y035995D01*
X021805Y038995D02*
X023805Y038995D01*
X024155Y038995D01*
X024255Y038995D01*
X020067Y038995D02*
X020067Y040195D01*
X020067Y040395D01*
X020067Y040595D01*
X017017Y040595D01*
X021892Y031338D02*
X022042Y031338D01*
X022092Y031288D01*
X023992Y031288D01*
X024042Y031338D01*
X024192Y031338D01*
X024209Y031336D01*
X024226Y031332D01*
X024242Y031325D01*
X024256Y031315D01*
X024269Y031302D01*
X024279Y031288D01*
X024286Y031272D01*
X024290Y031255D01*
X024292Y031238D01*
X024292Y030538D01*
X024290Y030521D01*
X024286Y030504D01*
X024279Y030488D01*
X024269Y030474D01*
X024256Y030461D01*
X024242Y030451D01*
X024226Y030444D01*
X024209Y030440D01*
X024192Y030438D01*
X024042Y030438D01*
X023992Y030488D01*
X022092Y030488D01*
X022042Y030438D01*
X021892Y030438D01*
X021875Y030440D01*
X021858Y030444D01*
X021842Y030451D01*
X021828Y030461D01*
X021815Y030474D01*
X021805Y030488D01*
X021798Y030504D01*
X021794Y030521D01*
X021792Y030538D01*
X021792Y031238D01*
X021794Y031255D01*
X021798Y031272D01*
X021805Y031288D01*
X021815Y031302D01*
X021828Y031315D01*
X021842Y031325D01*
X021858Y031332D01*
X021875Y031336D01*
X021892Y031338D01*
X021849Y025239D02*
X021999Y025089D01*
X022149Y025239D01*
X022849Y025239D01*
X022999Y025089D01*
X023149Y025239D01*
X023849Y025239D01*
X023999Y025089D01*
X024149Y025239D01*
X024849Y025239D01*
X024999Y025089D01*
X025149Y025239D01*
X025849Y025239D01*
X025999Y025089D01*
X026149Y025239D01*
X026849Y025239D01*
X026999Y025089D01*
X026999Y023389D01*
X026849Y023239D01*
X026149Y023239D01*
X025999Y023389D01*
X025849Y023239D01*
X025149Y023239D01*
X024999Y023389D01*
X024849Y023239D01*
X024149Y023239D01*
X023999Y023389D01*
X023849Y023239D01*
X023149Y023239D01*
X022999Y023389D01*
X022849Y023239D01*
X022149Y023239D01*
X021999Y023389D01*
X021849Y023239D01*
X021149Y023239D01*
X020999Y023389D01*
X020849Y023239D01*
X020149Y023239D01*
X019999Y023389D01*
X019849Y023239D01*
X019149Y023239D01*
X018999Y023389D01*
X018849Y023239D01*
X018149Y023239D01*
X017999Y023389D01*
X017849Y023239D01*
X017149Y023239D01*
X016999Y023389D01*
X016999Y025089D01*
X017149Y025239D01*
X017849Y025239D01*
X017999Y025089D01*
X018149Y025239D01*
X018849Y025239D01*
X018999Y025089D01*
X019149Y025239D01*
X019849Y025239D01*
X019999Y025089D01*
X020149Y025239D01*
X020849Y025239D01*
X020999Y025089D01*
X021149Y025239D01*
X021849Y025239D01*
X015499Y025089D02*
X015499Y023389D01*
X015349Y023239D01*
X014649Y023239D01*
X014499Y023389D01*
X014349Y023239D01*
X013649Y023239D01*
X013499Y023389D01*
X013349Y023239D01*
X012649Y023239D01*
X012499Y023389D01*
X012349Y023239D01*
X011649Y023239D01*
X011499Y023389D01*
X011349Y023239D01*
X010649Y023239D01*
X010499Y023389D01*
X010349Y023239D01*
X009649Y023239D01*
X009499Y023389D01*
X009349Y023239D01*
X008649Y023239D01*
X008499Y023389D01*
X008349Y023239D01*
X007649Y023239D01*
X007499Y023389D01*
X007349Y023239D01*
X006649Y023239D01*
X006499Y023389D01*
X006349Y023239D01*
X005649Y023239D01*
X005499Y023389D01*
X005499Y025089D01*
X005649Y025239D01*
X006349Y025239D01*
X006499Y025089D01*
X006649Y025239D01*
X007349Y025239D01*
X007499Y025089D01*
X007649Y025239D01*
X008349Y025239D01*
X008499Y025089D01*
X008649Y025239D01*
X009349Y025239D01*
X009499Y025089D01*
X009649Y025239D01*
X010349Y025239D01*
X010499Y025089D01*
X010649Y025239D01*
X011349Y025239D01*
X011499Y025089D01*
X011649Y025239D01*
X012349Y025239D01*
X012499Y025089D01*
X012649Y025239D01*
X013349Y025239D01*
X013499Y025089D01*
X013649Y025239D01*
X014349Y025239D01*
X014499Y025089D01*
X014649Y025239D01*
X015349Y025239D01*
X015499Y025089D01*
X043805Y000897D02*
X043805Y000470D01*
X043912Y000363D01*
X044128Y000363D02*
X044128Y000790D01*
X044128Y000577D02*
X044341Y000790D01*
X044448Y000790D01*
X044665Y000790D02*
X044665Y000470D01*
X044772Y000363D01*
X045092Y000363D01*
X045092Y000257D02*
X044985Y000150D01*
X044879Y000150D01*
X045092Y000257D02*
X045092Y000790D01*
X045954Y000790D02*
X045954Y000150D01*
X045954Y000363D02*
X046274Y000363D01*
X046381Y000470D01*
X046381Y000684D01*
X046274Y000790D01*
X045954Y000790D01*
X046599Y000684D02*
X046599Y000470D01*
X046705Y000363D01*
X046919Y000363D01*
X047026Y000470D01*
X047026Y000684D01*
X046919Y000790D01*
X046705Y000790D01*
X046599Y000684D01*
X047243Y000790D02*
X047350Y000790D01*
X047350Y000363D01*
X047243Y000363D02*
X047457Y000363D01*
X047673Y000363D02*
X047673Y000790D01*
X047993Y000790D01*
X048100Y000684D01*
X048100Y000363D01*
X048424Y000470D02*
X048531Y000363D01*
X048424Y000470D02*
X048424Y000897D01*
X048317Y000790D02*
X048531Y000790D01*
X049392Y000470D02*
X049499Y000577D01*
X049819Y000577D01*
X049819Y000684D02*
X049819Y000363D01*
X049499Y000363D01*
X049392Y000470D01*
X049499Y000790D02*
X049712Y000790D01*
X049819Y000684D01*
X050036Y000790D02*
X050250Y000790D01*
X050143Y000897D02*
X050143Y000470D01*
X050250Y000363D01*
X051111Y000363D02*
X051538Y000363D01*
X051324Y000363D02*
X051324Y001004D01*
X051111Y000790D01*
X051755Y000897D02*
X051755Y000470D01*
X052182Y000897D01*
X052182Y000470D01*
X052075Y000363D01*
X051862Y000363D01*
X051755Y000470D01*
X051755Y000897D02*
X051862Y001004D01*
X052075Y001004D01*
X052182Y000897D01*
X052400Y001004D02*
X052400Y000684D01*
X052613Y000790D01*
X052720Y000790D01*
X052827Y000684D01*
X052827Y000470D01*
X052720Y000363D01*
X052506Y000363D01*
X052400Y000470D01*
X052400Y001004D02*
X052827Y001004D01*
X053366Y001004D02*
X053366Y000684D01*
X053580Y000790D01*
X053687Y000790D01*
X053794Y000684D01*
X053794Y000470D01*
X053687Y000363D01*
X053473Y000363D01*
X053366Y000470D01*
X053151Y000470D02*
X053151Y000363D01*
X053044Y000363D01*
X053044Y000470D01*
X053151Y000470D01*
X053366Y001004D02*
X053794Y001004D01*
X047350Y001111D02*
X047350Y001004D01*
X043912Y000790D02*
X043698Y000790D01*
X043481Y000684D02*
X043481Y000577D01*
X043054Y000577D01*
X043054Y000684D02*
X043160Y000790D01*
X043374Y000790D01*
X043481Y000684D01*
X043374Y000363D02*
X043160Y000363D01*
X043054Y000470D01*
X043054Y000684D01*
X042836Y000684D02*
X042836Y000363D01*
X042623Y000363D02*
X042623Y000684D01*
X042729Y000790D01*
X042836Y000684D01*
X042623Y000684D02*
X042516Y000790D01*
X042409Y000790D01*
X042409Y000363D01*
X042192Y000363D02*
X042192Y000684D01*
X042085Y000790D01*
X041978Y000684D01*
X041978Y000363D01*
X041765Y000363D02*
X041765Y000790D01*
X041871Y000790D01*
X041978Y000684D01*
X041547Y000790D02*
X041547Y000257D01*
X041440Y000150D01*
X041334Y000150D01*
X041227Y000363D02*
X041547Y000363D01*
X041227Y000363D02*
X041120Y000470D01*
X041120Y000790D01*
X040903Y000790D02*
X040582Y000790D01*
X040475Y000684D01*
X040582Y000577D01*
X040796Y000577D01*
X040903Y000470D01*
X040796Y000363D01*
X040475Y000363D01*
X039613Y000363D02*
X039186Y000790D01*
X039186Y000363D02*
X039613Y000790D01*
D13*
X041952Y027145D02*
X042405Y027145D01*
X042556Y027296D01*
X042556Y027899D01*
X042405Y028050D01*
X041952Y028050D01*
X041952Y027145D01*
X042859Y027145D02*
X042859Y028050D01*
X043462Y027145D01*
X043462Y028050D01*
X043765Y028050D02*
X044217Y028050D01*
X044368Y027899D01*
X044368Y027597D01*
X044217Y027447D01*
X043765Y027447D01*
X043765Y027145D02*
X043765Y028050D01*
X044671Y027597D02*
X045274Y027597D01*
X045577Y027296D02*
X045728Y027145D01*
X046030Y027145D01*
X046181Y027296D01*
X046484Y027447D02*
X046785Y027748D01*
X046936Y027748D01*
X047239Y027748D02*
X047239Y027296D01*
X047390Y027145D01*
X047842Y027145D01*
X047842Y026994D02*
X047691Y026843D01*
X047541Y026843D01*
X047842Y026994D02*
X047842Y027748D01*
X048145Y027597D02*
X048296Y027748D01*
X048598Y027748D01*
X048749Y027597D01*
X048749Y027296D01*
X048598Y027145D01*
X048296Y027145D01*
X048145Y027296D01*
X048145Y027597D01*
X049052Y027597D02*
X049202Y027748D01*
X049655Y027748D01*
X049958Y027748D02*
X050259Y027748D01*
X050109Y027899D02*
X050109Y027296D01*
X050259Y027145D01*
X050562Y027296D02*
X050713Y027447D01*
X051165Y027447D01*
X051165Y027597D02*
X051165Y027145D01*
X050713Y027145D01*
X050562Y027296D01*
X050713Y027748D02*
X051015Y027748D01*
X051165Y027597D01*
X051468Y027748D02*
X051770Y027748D01*
X051619Y027899D02*
X051619Y027296D01*
X051770Y027145D01*
X052979Y027145D02*
X053582Y028050D01*
X054791Y028050D02*
X055244Y028050D01*
X055395Y027899D01*
X055395Y027296D01*
X055244Y027145D01*
X054791Y027145D01*
X054791Y028050D01*
X055698Y027597D02*
X056301Y027597D01*
X056604Y027748D02*
X056755Y027597D01*
X057056Y027597D01*
X057207Y027447D01*
X057207Y027296D01*
X057056Y027145D01*
X056755Y027145D01*
X056604Y027296D01*
X056604Y027748D02*
X056604Y027899D01*
X056755Y028050D01*
X057056Y028050D01*
X057207Y027899D01*
X057510Y028050D02*
X057510Y027296D01*
X057661Y027145D01*
X057963Y027145D01*
X058114Y027296D01*
X058114Y028050D01*
X058416Y028050D02*
X058869Y028050D01*
X059020Y027899D01*
X059020Y027748D01*
X058869Y027597D01*
X058416Y027597D01*
X058416Y027145D02*
X058869Y027145D01*
X059020Y027296D01*
X059020Y027447D01*
X058869Y027597D01*
X058416Y027145D02*
X058416Y028050D01*
X060229Y027899D02*
X060380Y028050D01*
X060682Y028050D01*
X060832Y027899D01*
X060832Y027748D01*
X060229Y027145D01*
X060832Y027145D01*
X061135Y027296D02*
X061286Y027145D01*
X061588Y027145D01*
X061739Y027296D01*
X061739Y027597D01*
X061588Y027748D01*
X061437Y027748D01*
X061135Y027597D01*
X061135Y028050D01*
X061739Y028050D01*
X062948Y028050D02*
X063400Y028050D01*
X063551Y027899D01*
X063551Y027748D01*
X063400Y027597D01*
X062948Y027597D01*
X062948Y027145D02*
X063400Y027145D01*
X063551Y027296D01*
X063551Y027447D01*
X063400Y027597D01*
X063854Y027447D02*
X064156Y027748D01*
X064307Y027748D01*
X064609Y027597D02*
X064760Y027748D01*
X065062Y027748D01*
X065213Y027597D01*
X065213Y027447D01*
X064609Y027447D01*
X064609Y027597D02*
X064609Y027296D01*
X064760Y027145D01*
X065062Y027145D01*
X065516Y027296D02*
X065667Y027447D01*
X066119Y027447D01*
X066119Y027597D02*
X066119Y027145D01*
X065667Y027145D01*
X065516Y027296D01*
X065667Y027748D02*
X065968Y027748D01*
X066119Y027597D01*
X066422Y027447D02*
X066875Y027748D01*
X067177Y027597D02*
X067177Y027296D01*
X067328Y027145D01*
X067630Y027145D01*
X067781Y027296D01*
X067781Y027597D01*
X067630Y027748D01*
X067328Y027748D01*
X067177Y027597D01*
X066875Y027145D02*
X066422Y027447D01*
X066422Y027145D02*
X066422Y028050D01*
X068084Y027748D02*
X068084Y027296D01*
X068234Y027145D01*
X068687Y027145D01*
X068687Y027748D01*
X068990Y027748D02*
X069291Y027748D01*
X069141Y027899D02*
X069141Y027296D01*
X069291Y027145D01*
X063854Y027145D02*
X063854Y027748D01*
X062948Y028050D02*
X062948Y027145D01*
X049655Y027296D02*
X049504Y027145D01*
X049052Y027145D01*
X049202Y027447D02*
X049052Y027597D01*
X049202Y027447D02*
X049504Y027447D01*
X049655Y027296D01*
X046484Y027145D02*
X046484Y027748D01*
X046181Y027899D02*
X046030Y028050D01*
X045728Y028050D01*
X045577Y027899D01*
X045577Y027296D01*
D14*
X035956Y019703D02*
X023853Y019703D01*
X023853Y018562D01*
X035956Y018562D01*
X035956Y019703D01*
X022849Y019703D02*
X022849Y018562D01*
X020747Y018562D01*
X020747Y019703D01*
X022849Y019703D01*
X019456Y019703D02*
X019456Y018562D01*
X007353Y018562D01*
X007353Y019703D01*
X019456Y019703D01*
D15*
X020718Y019853D02*
X021025Y020313D01*
X021179Y020083D02*
X021485Y020083D01*
X021409Y020313D02*
X021179Y020083D01*
X021025Y019853D02*
X020718Y020313D01*
X021409Y020313D02*
X021409Y019853D01*
X023824Y019929D02*
X023901Y019853D01*
X024055Y019853D01*
X024131Y019929D01*
X024285Y019929D02*
X024362Y019853D01*
X024515Y019853D01*
X024592Y019929D01*
X024592Y020236D01*
X024515Y020313D01*
X024362Y020313D01*
X024285Y020236D01*
X024285Y019929D01*
X024131Y020236D02*
X024055Y020313D01*
X023901Y020313D01*
X023824Y020236D01*
X023824Y019929D01*
X024745Y019853D02*
X024745Y020313D01*
X025052Y019853D01*
X025052Y020313D01*
X025206Y020159D02*
X025359Y020313D01*
X025359Y019853D01*
X025206Y019853D02*
X025513Y019853D01*
X025666Y020083D02*
X025973Y020083D01*
X026126Y020083D02*
X026433Y020083D01*
X026587Y020236D02*
X026663Y020313D01*
X026817Y020313D01*
X026894Y020236D01*
X026894Y020159D01*
X026587Y019853D01*
X026894Y019853D01*
X027047Y019929D02*
X027124Y019853D01*
X027277Y019853D01*
X027354Y019929D01*
X027354Y020083D01*
X027277Y020159D01*
X027201Y020159D01*
X027047Y020083D01*
X027047Y020313D01*
X027354Y020313D01*
X025896Y020313D02*
X025896Y019853D01*
X025666Y020083D02*
X025896Y020313D01*
X010394Y020236D02*
X010317Y020313D01*
X010163Y020313D01*
X010087Y020236D01*
X010394Y020236D02*
X010394Y020159D01*
X010087Y019853D01*
X010394Y019853D01*
X009933Y019853D02*
X009626Y019853D01*
X009780Y019853D02*
X009780Y020313D01*
X009626Y020159D01*
X009473Y020083D02*
X009166Y020083D01*
X009013Y019853D02*
X008706Y019853D01*
X008859Y019853D02*
X008859Y020313D01*
X008706Y020159D01*
X008552Y020313D02*
X008552Y019853D01*
X008245Y020313D01*
X008245Y019853D01*
X008092Y019929D02*
X008092Y020236D01*
X008015Y020313D01*
X007862Y020313D01*
X007785Y020236D01*
X007785Y019929D01*
X007862Y019853D01*
X008015Y019853D01*
X008092Y019929D01*
X007631Y019929D02*
X007555Y019853D01*
X007401Y019853D01*
X007324Y019929D01*
X007324Y020236D01*
X007401Y020313D01*
X007555Y020313D01*
X007631Y020236D01*
D16*
X007899Y022614D02*
X007824Y022689D01*
X007899Y022614D02*
X008049Y022614D01*
X008124Y022689D01*
X008124Y022764D01*
X008049Y022839D01*
X007974Y022839D01*
X008049Y022839D02*
X008124Y022914D01*
X008124Y022989D01*
X008049Y023064D01*
X007899Y023064D01*
X007824Y022989D01*
X007124Y022989D02*
X007049Y023064D01*
X006899Y023064D01*
X006824Y022989D01*
X007124Y022989D02*
X007124Y022914D01*
X006824Y022614D01*
X007124Y022614D01*
X006124Y022614D02*
X005824Y022614D01*
X005974Y022614D02*
X005974Y023064D01*
X005824Y022914D01*
X008824Y022839D02*
X009124Y022839D01*
X009049Y022614D02*
X009049Y023064D01*
X008824Y022839D01*
X009824Y022839D02*
X009974Y022914D01*
X010049Y022914D01*
X010124Y022839D01*
X010124Y022689D01*
X010049Y022614D01*
X009899Y022614D01*
X009824Y022689D01*
X009824Y022839D02*
X009824Y023064D01*
X010124Y023064D01*
X010824Y022839D02*
X011049Y022839D01*
X011124Y022764D01*
X011124Y022689D01*
X011049Y022614D01*
X010899Y022614D01*
X010824Y022689D01*
X010824Y022839D01*
X010974Y022989D01*
X011124Y023064D01*
X011824Y023064D02*
X012124Y023064D01*
X012124Y022989D01*
X011824Y022689D01*
X011824Y022614D01*
X012824Y022689D02*
X012824Y022764D01*
X012899Y022839D01*
X013049Y022839D01*
X013124Y022764D01*
X013124Y022689D01*
X013049Y022614D01*
X012899Y022614D01*
X012824Y022689D01*
X012899Y022839D02*
X012824Y022914D01*
X012824Y022989D01*
X012899Y023064D01*
X013049Y023064D01*
X013124Y022989D01*
X013124Y022914D01*
X013049Y022839D01*
X013824Y022914D02*
X013899Y022839D01*
X014124Y022839D01*
X014124Y022689D02*
X014124Y022989D01*
X014049Y023064D01*
X013899Y023064D01*
X013824Y022989D01*
X013824Y022914D01*
X013824Y022689D02*
X013899Y022614D01*
X014049Y022614D01*
X014124Y022689D01*
X014574Y022614D02*
X014874Y022614D01*
X014724Y022614D02*
X014724Y023064D01*
X014574Y022914D01*
X015034Y022989D02*
X015034Y022689D01*
X015335Y022989D01*
X015335Y022689D01*
X015259Y022614D01*
X015109Y022614D01*
X015034Y022689D01*
X015034Y022989D02*
X015109Y023064D01*
X015259Y023064D01*
X015335Y022989D01*
X017324Y022914D02*
X017474Y023064D01*
X017474Y022614D01*
X017324Y022614D02*
X017624Y022614D01*
X018324Y022614D02*
X018624Y022914D01*
X018624Y022989D01*
X018549Y023064D01*
X018399Y023064D01*
X018324Y022989D01*
X018324Y022614D02*
X018624Y022614D01*
X019324Y022689D02*
X019399Y022614D01*
X019549Y022614D01*
X019624Y022689D01*
X019624Y022764D01*
X019549Y022839D01*
X019474Y022839D01*
X019549Y022839D02*
X019624Y022914D01*
X019624Y022989D01*
X019549Y023064D01*
X019399Y023064D01*
X019324Y022989D01*
X020324Y022839D02*
X020624Y022839D01*
X020549Y022614D02*
X020549Y023064D01*
X020324Y022839D01*
X021324Y022839D02*
X021474Y022914D01*
X021549Y022914D01*
X021624Y022839D01*
X021624Y022689D01*
X021549Y022614D01*
X021399Y022614D01*
X021324Y022689D01*
X021324Y022839D02*
X021324Y023064D01*
X021624Y023064D01*
X022324Y022839D02*
X022549Y022839D01*
X022624Y022764D01*
X022624Y022689D01*
X022549Y022614D01*
X022399Y022614D01*
X022324Y022689D01*
X022324Y022839D01*
X022474Y022989D01*
X022624Y023064D01*
X023324Y023064D02*
X023624Y023064D01*
X023624Y022989D01*
X023324Y022689D01*
X023324Y022614D01*
X024324Y022689D02*
X024324Y022764D01*
X024399Y022839D01*
X024549Y022839D01*
X024624Y022764D01*
X024624Y022689D01*
X024549Y022614D01*
X024399Y022614D01*
X024324Y022689D01*
X024399Y022839D02*
X024324Y022914D01*
X024324Y022989D01*
X024399Y023064D01*
X024549Y023064D01*
X024624Y022989D01*
X024624Y022914D01*
X024549Y022839D01*
X025324Y022914D02*
X025399Y022839D01*
X025624Y022839D01*
X025624Y022689D02*
X025624Y022989D01*
X025549Y023064D01*
X025399Y023064D01*
X025324Y022989D01*
X025324Y022914D01*
X025324Y022689D02*
X025399Y022614D01*
X025549Y022614D01*
X025624Y022689D01*
X026074Y022614D02*
X026374Y022614D01*
X026224Y022614D02*
X026224Y023064D01*
X026074Y022914D01*
X026534Y022989D02*
X026609Y023064D01*
X026759Y023064D01*
X026835Y022989D01*
X026534Y022689D01*
X026609Y022614D01*
X026759Y022614D01*
X026835Y022689D01*
X026835Y022989D01*
X026534Y022989D02*
X026534Y022689D01*
X028718Y022614D02*
X029018Y022614D01*
X028868Y022614D02*
X028868Y023064D01*
X028718Y022914D01*
X029718Y022989D02*
X029793Y023064D01*
X029943Y023064D01*
X030018Y022989D01*
X030018Y022914D01*
X029718Y022614D01*
X030018Y022614D01*
X030718Y022689D02*
X030793Y022614D01*
X030943Y022614D01*
X031018Y022689D01*
X031018Y022764D01*
X030943Y022839D01*
X030868Y022839D01*
X030943Y022839D02*
X031018Y022914D01*
X031018Y022989D01*
X030943Y023064D01*
X030793Y023064D01*
X030718Y022989D01*
X031718Y022839D02*
X032018Y022839D01*
X031943Y022614D02*
X031943Y023064D01*
X031718Y022839D01*
X032718Y022839D02*
X032868Y022914D01*
X032943Y022914D01*
X033018Y022839D01*
X033018Y022689D01*
X032943Y022614D01*
X032793Y022614D01*
X032718Y022689D01*
X032718Y022839D02*
X032718Y023064D01*
X033018Y023064D01*
X033718Y022839D02*
X033943Y022839D01*
X034018Y022764D01*
X034018Y022689D01*
X033943Y022614D01*
X033793Y022614D01*
X033718Y022689D01*
X033718Y022839D01*
X033868Y022989D01*
X034018Y023064D01*
X034718Y023064D02*
X035018Y023064D01*
X035018Y022989D01*
X034718Y022689D01*
X034718Y022614D01*
X035718Y022689D02*
X035718Y022764D01*
X035793Y022839D01*
X035943Y022839D01*
X036018Y022764D01*
X036018Y022689D01*
X035943Y022614D01*
X035793Y022614D01*
X035718Y022689D01*
X035793Y022839D02*
X035718Y022914D01*
X035718Y022989D01*
X035793Y023064D01*
X035943Y023064D01*
X036018Y022989D01*
X036018Y022914D01*
X035943Y022839D01*
X036718Y022914D02*
X036793Y022839D01*
X037018Y022839D01*
X037018Y022689D02*
X037018Y022989D01*
X036943Y023064D01*
X036793Y023064D01*
X036718Y022989D01*
X036718Y022914D01*
X036718Y022689D02*
X036793Y022614D01*
X036943Y022614D01*
X037018Y022689D01*
X037468Y022614D02*
X037768Y022614D01*
X037618Y022614D02*
X037618Y023064D01*
X037468Y022914D01*
X037928Y022989D02*
X038003Y023064D01*
X038153Y023064D01*
X038228Y022989D01*
X037928Y022689D01*
X038003Y022614D01*
X038153Y022614D01*
X038228Y022689D01*
X038228Y022989D01*
X037928Y022989D02*
X037928Y022689D01*
X029639Y025439D02*
X029564Y025364D01*
X029413Y025364D01*
X029338Y025439D01*
X029489Y025589D02*
X029564Y025589D01*
X029639Y025514D01*
X029639Y025439D01*
X029564Y025589D02*
X029639Y025664D01*
X029639Y025739D01*
X029564Y025814D01*
X029413Y025814D01*
X029338Y025739D01*
X029178Y025739D02*
X029178Y025589D01*
X029103Y025514D01*
X028878Y025514D01*
X028878Y025364D02*
X028878Y025814D01*
X029103Y025814D01*
X029178Y025739D01*
X028718Y025814D02*
X028568Y025814D01*
X028643Y025814D02*
X028643Y025439D01*
X028568Y025364D01*
X028493Y025364D01*
X028418Y025439D01*
X018245Y025364D02*
X017945Y025364D01*
X018245Y025664D01*
X018245Y025739D01*
X018170Y025814D01*
X018020Y025814D01*
X017945Y025739D01*
X017785Y025739D02*
X017785Y025589D01*
X017709Y025514D01*
X017484Y025514D01*
X017484Y025364D02*
X017484Y025814D01*
X017709Y025814D01*
X017785Y025739D01*
X017324Y025814D02*
X017174Y025814D01*
X017249Y025814D02*
X017249Y025439D01*
X017174Y025364D01*
X017099Y025364D01*
X017024Y025439D01*
X012067Y030032D02*
X011616Y030032D01*
X011616Y030258D01*
X011691Y030333D01*
X011842Y030333D01*
X011917Y030258D01*
X011917Y030032D01*
X011917Y030182D02*
X012067Y030333D01*
X011992Y030493D02*
X012067Y030568D01*
X012067Y030718D01*
X011992Y030793D01*
X011917Y030793D01*
X011842Y030718D01*
X011842Y030643D01*
X011842Y030718D02*
X011767Y030793D01*
X011691Y030793D01*
X011616Y030718D01*
X011616Y030568D01*
X011691Y030493D01*
X011707Y031512D02*
X011707Y031737D01*
X011632Y031812D01*
X011482Y031812D01*
X011407Y031737D01*
X011407Y031512D01*
X011857Y031512D01*
X011707Y031662D02*
X011857Y031812D01*
X011857Y031972D02*
X011557Y032272D01*
X011482Y032272D01*
X011407Y032197D01*
X011407Y032047D01*
X011482Y031972D01*
X011857Y031972D02*
X011857Y032272D01*
X008248Y030793D02*
X008248Y030493D01*
X008248Y030643D02*
X007798Y030643D01*
X007948Y030493D01*
X008023Y030333D02*
X008098Y030258D01*
X008098Y030032D01*
X008248Y030032D02*
X007798Y030032D01*
X007798Y030258D01*
X007873Y030333D01*
X008023Y030333D01*
X008098Y030182D02*
X008248Y030333D01*
X006595Y025814D02*
X006445Y025664D01*
X006285Y025589D02*
X006209Y025514D01*
X005984Y025514D01*
X005984Y025364D02*
X005984Y025814D01*
X006209Y025814D01*
X006285Y025739D01*
X006285Y025589D01*
X006445Y025364D02*
X006745Y025364D01*
X006595Y025364D02*
X006595Y025814D01*
X005824Y025814D02*
X005674Y025814D01*
X005749Y025814D02*
X005749Y025439D01*
X005674Y025364D01*
X005599Y025364D01*
X005524Y025439D01*
X021867Y031513D02*
X021867Y031964D01*
X022092Y031964D01*
X022167Y031889D01*
X022167Y031739D01*
X022092Y031664D01*
X021867Y031664D01*
X022017Y031664D02*
X022167Y031513D01*
X022328Y031739D02*
X022628Y031739D01*
X022553Y031964D02*
X022328Y031739D01*
X022553Y031513D02*
X022553Y031964D01*
X024930Y035270D02*
X025230Y035270D01*
X025080Y035270D02*
X025080Y035720D01*
X024930Y035570D01*
X024880Y036270D02*
X024580Y036270D01*
X024730Y036270D02*
X024730Y036720D01*
X024580Y036570D01*
X025040Y036495D02*
X025340Y036495D01*
X025265Y036270D02*
X025265Y036720D01*
X025040Y036495D01*
X019993Y037480D02*
X019842Y037630D01*
X019842Y037555D01*
X019767Y037555D01*
X019767Y037630D01*
X019842Y037630D01*
X019767Y037787D02*
X019842Y037862D01*
X019842Y038012D01*
X019767Y038087D01*
X019617Y038087D01*
X019542Y038012D01*
X019542Y037937D01*
X019617Y037787D01*
X019392Y037787D01*
X019392Y038087D01*
X019617Y038247D02*
X019392Y038473D01*
X019842Y038473D01*
X019617Y038548D02*
X019617Y038247D01*
X019542Y037320D02*
X019467Y037320D01*
X019392Y037245D01*
X019392Y037095D01*
X019467Y037020D01*
X019542Y037320D02*
X019842Y037020D01*
X019842Y037320D01*
X017043Y036645D02*
X016968Y036720D01*
X016817Y036720D01*
X016742Y036645D01*
X016742Y036570D01*
X016817Y036495D01*
X017043Y036495D01*
X017043Y036345D02*
X017043Y036645D01*
X017043Y036345D02*
X016968Y036270D01*
X016817Y036270D01*
X016742Y036345D01*
X016742Y035720D02*
X016742Y035495D01*
X016893Y035570D01*
X016968Y035570D01*
X017043Y035495D01*
X017043Y035345D01*
X016968Y035270D01*
X016817Y035270D01*
X016742Y035345D01*
X016742Y035720D02*
X017043Y035720D01*
X011293Y035270D02*
X010992Y035270D01*
X011143Y035270D02*
X011143Y035720D01*
X010992Y035570D01*
X011067Y036270D02*
X011218Y036270D01*
X011293Y036345D01*
X011293Y036420D01*
X011218Y036495D01*
X010992Y036495D01*
X010992Y036345D01*
X011067Y036270D01*
X010992Y036495D02*
X011143Y036645D01*
X011293Y036720D01*
X011528Y039370D02*
X011453Y039445D01*
X011753Y039745D01*
X011753Y039445D01*
X011678Y039370D01*
X011528Y039370D01*
X011453Y039445D02*
X011453Y039745D01*
X011528Y039820D01*
X011678Y039820D01*
X011753Y039745D01*
X011913Y039745D02*
X011913Y039670D01*
X011988Y039595D01*
X012213Y039595D01*
X012213Y039445D02*
X012213Y039745D01*
X012138Y039820D01*
X011988Y039820D01*
X011913Y039745D01*
X011913Y039445D02*
X011988Y039370D01*
X012138Y039370D01*
X012213Y039445D01*
X011293Y039820D02*
X010992Y039820D01*
X010992Y039370D01*
X010992Y039595D02*
X011143Y039595D01*
X024930Y039595D02*
X025080Y039595D01*
X024930Y039820D02*
X025230Y039820D01*
X025390Y039745D02*
X025465Y039820D01*
X025615Y039820D01*
X025690Y039745D01*
X025690Y039670D01*
X025390Y039370D01*
X025690Y039370D01*
X025851Y039445D02*
X025926Y039370D01*
X026076Y039370D01*
X026151Y039445D01*
X026151Y039595D01*
X026076Y039670D01*
X026001Y039670D01*
X025851Y039595D01*
X025851Y039820D01*
X026151Y039820D01*
X024930Y039820D02*
X024930Y039370D01*
X039280Y036645D02*
X039355Y036720D01*
X039505Y036720D01*
X039580Y036645D01*
X039580Y036570D01*
X039280Y036270D01*
X039580Y036270D01*
X039740Y036345D02*
X039815Y036270D01*
X039965Y036270D01*
X040040Y036345D01*
X040040Y036495D01*
X039965Y036570D01*
X039890Y036570D01*
X039740Y036495D01*
X039740Y036720D01*
X040040Y036720D01*
X042029Y037095D02*
X042104Y037020D01*
X042029Y037095D02*
X042029Y037245D01*
X042104Y037320D01*
X042180Y037320D01*
X042480Y037020D01*
X042480Y037320D01*
X042630Y037480D02*
X042480Y037630D01*
X042480Y037555D01*
X042405Y037555D01*
X042405Y037630D01*
X042480Y037630D01*
X042405Y037787D02*
X042480Y037862D01*
X042480Y038012D01*
X042405Y038087D01*
X042255Y038087D01*
X042180Y038012D01*
X042180Y037937D01*
X042255Y037787D01*
X042029Y037787D01*
X042029Y038087D01*
X042255Y038247D02*
X042029Y038473D01*
X042480Y038473D01*
X042255Y038548D02*
X042255Y038247D01*
X039965Y035720D02*
X040040Y035645D01*
X040040Y035570D01*
X039965Y035495D01*
X040040Y035420D01*
X040040Y035345D01*
X039965Y035270D01*
X039815Y035270D01*
X039740Y035345D01*
X039580Y035270D02*
X039280Y035270D01*
X039430Y035270D02*
X039430Y035720D01*
X039280Y035570D01*
X039740Y035645D02*
X039815Y035720D01*
X039965Y035720D01*
X039965Y035495D02*
X039890Y035495D01*
D17*
X012692Y032627D03*
X010782Y032627D03*
X008873Y032627D03*
X008873Y029787D03*
X010782Y029787D03*
X012692Y029787D03*
D18*
X021622Y030888D03*
X024462Y030888D03*
D19*
X023005Y033530D02*
X022584Y033530D01*
X022795Y033530D02*
X022795Y034160D01*
X022584Y033950D01*
X022360Y034160D02*
X021940Y033530D01*
X022360Y033530D02*
X021940Y034160D01*
X009067Y034055D02*
X008962Y034160D01*
X008752Y034160D01*
X008647Y034055D01*
X008423Y034160D02*
X008002Y033530D01*
X008423Y033530D02*
X008002Y034160D01*
X008647Y033530D02*
X009067Y033950D01*
X009067Y034055D01*
X009067Y033530D02*
X008647Y033530D01*
D20*
X032255Y038845D03*
D21*
X032255Y040495D03*
D22*
X032255Y037270D03*
X031165Y037270D03*
X030085Y037270D03*
X028995Y037270D03*
X027905Y037270D03*
X026825Y037270D03*
X025735Y037270D03*
X033345Y037270D03*
X034425Y037270D03*
X035515Y037270D03*
X036605Y037270D03*
X037685Y037270D03*
X038775Y037270D03*
X016127Y037270D03*
X015047Y037270D03*
X013967Y037270D03*
X012887Y037270D03*
X011807Y037270D03*
D23*
X012347Y037770D03*
X013427Y037770D03*
X014507Y037770D03*
X015587Y037770D03*
X026275Y037770D03*
X027365Y037770D03*
X028455Y037770D03*
X029535Y037770D03*
X030625Y037770D03*
X031715Y037770D03*
X032795Y037770D03*
X033885Y037770D03*
X034965Y037770D03*
X036055Y037770D03*
X037145Y037770D03*
X038235Y037770D03*
D24*
X013967Y038845D03*
D25*
X013967Y040495D03*
M02*
