G75*
%MOIN*%
%OFA0B0*%
%FSLAX24Y24*%
%IPPOS*%
%LPD*%
%AMOC8*
5,1,8,0,0,1.08239X$1,22.5*
%
%ADD10C,0.0709*%
%ADD11OC8,0.0560*%
%ADD12OC8,0.0520*%
%ADD13OC8,0.0600*%
%ADD14OC8,0.0657*%
%ADD15C,0.0100*%
%ADD16C,0.0400*%
D10*
X007904Y018778D02*
X007904Y019487D01*
X008904Y019487D02*
X008904Y018778D01*
X009904Y018778D02*
X009904Y019487D01*
X010904Y019487D02*
X010904Y018778D01*
X011904Y018778D02*
X011904Y019487D01*
X012904Y019487D02*
X012904Y018778D01*
X013904Y018778D02*
X013904Y019487D01*
X014904Y019487D02*
X014904Y018778D01*
X015904Y018778D02*
X015904Y019487D01*
X016904Y019487D02*
X016904Y018778D01*
X017904Y018778D02*
X017904Y019487D01*
X018904Y019487D02*
X018904Y018778D01*
X021298Y018778D02*
X021298Y019487D01*
X022298Y019487D02*
X022298Y018778D01*
X024404Y018778D02*
X024404Y019487D01*
X025404Y019487D02*
X025404Y018778D01*
X026404Y018778D02*
X026404Y019487D01*
X027404Y019487D02*
X027404Y018778D01*
X028404Y018778D02*
X028404Y019487D01*
X029404Y019487D02*
X029404Y018778D01*
X030404Y018778D02*
X030404Y019487D01*
X031404Y019487D02*
X031404Y018778D01*
X032404Y018778D02*
X032404Y019487D01*
X033404Y019487D02*
X033404Y018778D01*
X034404Y018778D02*
X034404Y019487D01*
X035404Y019487D02*
X035404Y018778D01*
D11*
X035893Y023739D03*
X036893Y023739D03*
X037893Y023739D03*
X037893Y024739D03*
X036893Y024739D03*
X035893Y024739D03*
X034893Y024739D03*
X033893Y024739D03*
X032893Y024739D03*
X031893Y024739D03*
X030893Y024739D03*
X029893Y024739D03*
X028893Y024739D03*
X028893Y023739D03*
X029893Y023739D03*
X030893Y023739D03*
X031893Y023739D03*
X032893Y023739D03*
X033893Y023739D03*
X034893Y023739D03*
X026499Y023739D03*
X025499Y023739D03*
X024499Y023739D03*
X023499Y023739D03*
X022499Y023739D03*
X021499Y023739D03*
X020499Y023739D03*
X019499Y023739D03*
X018499Y023739D03*
X017499Y023739D03*
X017499Y024739D03*
X018499Y024739D03*
X019499Y024739D03*
X020499Y024739D03*
X021499Y024739D03*
X022499Y024739D03*
X023499Y024739D03*
X024499Y024739D03*
X025499Y024739D03*
X026499Y024739D03*
X014999Y024739D03*
X013999Y024739D03*
X012999Y024739D03*
X011999Y024739D03*
X010999Y024739D03*
X009999Y024739D03*
X008999Y024739D03*
X007999Y024739D03*
X006999Y024739D03*
X005999Y024739D03*
X005999Y023739D03*
X006999Y023739D03*
X007999Y023739D03*
X008999Y023739D03*
X009999Y023739D03*
X010999Y023739D03*
X011999Y023739D03*
X012999Y023739D03*
X013999Y023739D03*
X014999Y023739D03*
D12*
X012692Y029207D03*
X010782Y029207D03*
X008873Y029207D03*
X008873Y033207D03*
X010782Y033207D03*
X012692Y033207D03*
X021042Y030888D03*
X025042Y030888D03*
D13*
X025735Y035495D03*
X026825Y035495D03*
X027905Y035495D03*
X028995Y035495D03*
X030085Y035495D03*
X028455Y036495D03*
X027365Y036495D03*
X026275Y036495D03*
X032795Y036495D03*
X033885Y036495D03*
X034975Y036495D03*
X036055Y036495D03*
X037145Y036495D03*
X038235Y036495D03*
X038775Y035495D03*
X037685Y035495D03*
X036605Y035495D03*
X035515Y035495D03*
X034425Y035495D03*
X033345Y035495D03*
X016127Y035495D03*
X015047Y035495D03*
X013967Y035495D03*
X012887Y035495D03*
X011807Y035495D03*
X012347Y036495D03*
X013427Y036495D03*
X014507Y036495D03*
X015587Y036495D03*
D14*
X029535Y036495D03*
X030625Y036495D03*
X031715Y036495D03*
X032255Y035495D03*
X031165Y035495D03*
D15*
X030692Y036357D02*
X030625Y036495D01*
X030692Y036357D02*
X030692Y030648D01*
X024983Y024940D01*
X024983Y024152D01*
X024589Y023759D01*
X024499Y023739D01*
X023999Y024152D02*
X023605Y023759D01*
X023499Y023739D01*
X023999Y024152D02*
X023999Y024940D01*
X029511Y030451D01*
X029511Y036357D01*
X029535Y036495D01*
X028455Y036495D02*
X028330Y036554D01*
X027936Y036554D01*
X027542Y036948D01*
X025967Y036948D01*
X020062Y031042D01*
X020062Y023562D01*
X020456Y023168D01*
X022030Y023168D01*
X022424Y023562D01*
X022499Y023739D01*
X021046Y024152D02*
X020652Y023759D01*
X020499Y023739D01*
X021046Y024152D02*
X021046Y024940D01*
X026361Y030255D01*
X026361Y036357D01*
X026275Y036495D01*
X027345Y036357D02*
X027365Y036495D01*
X027345Y036357D02*
X027345Y029270D01*
X023408Y025333D01*
X023408Y024743D02*
X022818Y025333D01*
X022227Y025333D01*
X021637Y024743D01*
X021499Y024739D01*
X023408Y024743D02*
X023499Y024739D01*
X025499Y023739D02*
X025574Y023759D01*
X025967Y024152D01*
X025967Y024940D01*
X031676Y030648D01*
X031676Y036357D01*
X031715Y036495D01*
X032795Y036495D02*
X032857Y036357D01*
X032857Y030058D01*
X026558Y023759D01*
X026499Y023739D01*
X028893Y023739D02*
X028920Y023759D01*
X029314Y024152D01*
X029314Y024743D01*
X033841Y029270D01*
X033841Y036357D01*
X033885Y036495D01*
X034975Y036495D02*
X035023Y036357D01*
X035023Y027499D01*
X032463Y024940D01*
X032463Y019231D01*
X032404Y019133D01*
X033404Y019133D02*
X033448Y019231D01*
X033448Y024940D01*
X036007Y027499D01*
X036007Y036357D01*
X036055Y036495D01*
X035416Y036751D02*
X035023Y037144D01*
X025771Y037144D01*
X015731Y027105D01*
X015731Y024349D01*
X015141Y023759D01*
X014999Y023739D01*
X014550Y024152D02*
X014156Y023759D01*
X013999Y023739D01*
X013566Y024152D02*
X013172Y023759D01*
X012999Y023739D01*
X012582Y024152D02*
X012188Y023759D01*
X011999Y023739D01*
X012582Y024152D02*
X012582Y024940D01*
X013369Y025727D01*
X013369Y036357D01*
X013427Y036495D01*
X012385Y036357D02*
X012347Y036495D01*
X012385Y036357D02*
X012385Y034192D01*
X013172Y033404D01*
X013172Y027499D01*
X010416Y024743D01*
X010416Y024152D01*
X010810Y023759D01*
X010999Y023739D01*
X009999Y024739D02*
X009826Y024743D01*
X009038Y025530D01*
X009038Y027696D01*
X006086Y024743D01*
X005999Y024739D01*
X005495Y024546D02*
X005889Y024152D01*
X008448Y024152D01*
X008841Y024546D01*
X008999Y024739D01*
X005999Y023739D02*
X005889Y023759D01*
X005298Y024349D01*
X005298Y028877D01*
X011794Y035373D01*
X011807Y035495D01*
X013960Y035373D02*
X013967Y035495D01*
X013960Y035373D02*
X013960Y030058D01*
X009038Y029073D02*
X009038Y027696D01*
X009038Y029073D02*
X008873Y029207D01*
X005495Y026514D02*
X005495Y024546D01*
X005495Y026514D02*
X012188Y033207D01*
X012692Y033207D01*
X014550Y036357D02*
X014507Y036495D01*
X014550Y036357D02*
X014550Y025924D01*
X013566Y024940D01*
X013566Y024152D01*
X014550Y024152D02*
X014550Y024940D01*
X015534Y025924D01*
X015534Y036357D01*
X015587Y036495D01*
X015731Y036554D01*
X016715Y037538D01*
X034432Y037538D01*
X035416Y036751D02*
X035416Y035570D01*
X035515Y035495D01*
X037188Y036357D02*
X037145Y036495D01*
X037188Y036357D02*
X037188Y027696D01*
X034432Y024940D01*
X034432Y019231D01*
X034404Y019133D01*
X035404Y019133D02*
X035416Y019231D01*
X035416Y024940D01*
X038172Y027696D01*
X038172Y036357D01*
X038235Y036495D01*
X033345Y035495D02*
X033251Y035373D01*
X033251Y029861D01*
X023408Y020018D01*
X015731Y020018D01*
X014944Y019231D01*
X014904Y019133D01*
D16*
X023408Y025333D03*
X013960Y030058D03*
X034432Y037538D03*
M02*
