G75*
%MOIN*%
%OFA0B0*%
%FSLAX25Y25*%
%IPPOS*%
%LPD*%
%AMOC8*
5,1,8,0,0,1.08239X$1,22.5*
%
%ADD10C,0.05740*%
%ADD11C,0.06000*%
%ADD12OC8,0.06102*%
%ADD13OC8,0.06000*%
%ADD14OC8,0.06575*%
%ADD15OC8,0.05200*%
%ADD16R,0.01200X0.03900*%
%ADD17R,0.02362X0.08661*%
%ADD18R,0.05118X0.05906*%
%ADD19R,0.06299X0.07087*%
%ADD20R,0.05906X0.05118*%
%ADD21R,0.05906X0.02362*%
%ADD22R,0.02362X0.05906*%
%ADD23R,0.05150X0.05150*%
%ADD24C,0.01000*%
%ADD25C,0.01600*%
%ADD26C,0.03962*%
%ADD27C,0.04000*%
D10*
X0134556Y0019065D02*
X0134556Y0021935D01*
X0134556Y0029065D02*
X0134556Y0031935D01*
X0144556Y0031935D02*
X0144556Y0029065D01*
X0144556Y0021935D02*
X0144556Y0019065D01*
X0154556Y0019065D02*
X0154556Y0021935D01*
X0154556Y0029065D02*
X0154556Y0031935D01*
X0164556Y0031935D02*
X0164556Y0029065D01*
X0164556Y0021935D02*
X0164556Y0019065D01*
X0174556Y0019065D02*
X0174556Y0021935D01*
X0174556Y0029065D02*
X0174556Y0031935D01*
X0184556Y0031935D02*
X0184556Y0029065D01*
X0184556Y0021935D02*
X0184556Y0019065D01*
X0194556Y0019065D02*
X0194556Y0021935D01*
X0194556Y0029065D02*
X0194556Y0031935D01*
X0204556Y0031935D02*
X0204556Y0029065D01*
X0204556Y0021935D02*
X0204556Y0019065D01*
X0204556Y0199065D02*
X0204556Y0201935D01*
X0204556Y0209065D02*
X0204556Y0211935D01*
X0214556Y0211935D02*
X0214556Y0209065D01*
X0214556Y0201935D02*
X0214556Y0199065D01*
X0224556Y0199065D02*
X0224556Y0201935D01*
X0224556Y0209065D02*
X0224556Y0211935D01*
X0234556Y0211935D02*
X0234556Y0209065D01*
X0234556Y0201935D02*
X0234556Y0199065D01*
X0244556Y0199065D02*
X0244556Y0201935D01*
X0244556Y0209065D02*
X0244556Y0211935D01*
X0254556Y0211935D02*
X0254556Y0209065D01*
X0254556Y0201935D02*
X0254556Y0199065D01*
X0264556Y0199065D02*
X0264556Y0201935D01*
X0264556Y0209065D02*
X0264556Y0211935D01*
X0274556Y0211935D02*
X0274556Y0209065D01*
X0274556Y0201935D02*
X0274556Y0199065D01*
X0188556Y0199065D02*
X0188556Y0201935D01*
X0188556Y0209065D02*
X0188556Y0211935D01*
X0178556Y0211935D02*
X0178556Y0209065D01*
X0178556Y0201935D02*
X0178556Y0199065D01*
X0168556Y0199065D02*
X0168556Y0201935D01*
X0168556Y0209065D02*
X0168556Y0211935D01*
X0158556Y0211935D02*
X0158556Y0209065D01*
X0158556Y0201935D02*
X0158556Y0199065D01*
X0148556Y0199065D02*
X0148556Y0201935D01*
X0148556Y0209065D02*
X0148556Y0211935D01*
X0138556Y0211935D02*
X0138556Y0209065D01*
X0138556Y0201935D02*
X0138556Y0199065D01*
X0128556Y0199065D02*
X0128556Y0201935D01*
X0128556Y0209065D02*
X0128556Y0211935D01*
X0118556Y0211935D02*
X0118556Y0209065D01*
X0118556Y0201935D02*
X0118556Y0199065D01*
X0108556Y0199065D02*
X0108556Y0201935D01*
X0108556Y0209065D02*
X0108556Y0211935D01*
X0098556Y0211935D02*
X0098556Y0209065D01*
X0098556Y0201935D02*
X0098556Y0199065D01*
D11*
X0224556Y0032000D02*
X0224556Y0029000D01*
X0224556Y0022000D02*
X0224556Y0019000D01*
X0234556Y0019000D02*
X0234556Y0022000D01*
X0234556Y0029000D02*
X0234556Y0032000D01*
X0244556Y0032000D02*
X0244556Y0029000D01*
X0244556Y0022000D02*
X0244556Y0019000D01*
X0254556Y0019000D02*
X0254556Y0022000D01*
X0254556Y0029000D02*
X0254556Y0032000D01*
X0264556Y0032000D02*
X0264556Y0029000D01*
X0264556Y0022000D02*
X0264556Y0019000D01*
X0274556Y0019000D02*
X0274556Y0022000D01*
X0274556Y0029000D02*
X0274556Y0032000D01*
D12*
X0275056Y0110500D03*
X0285056Y0110500D03*
X0285056Y0120500D03*
X0275056Y0120500D03*
X0275056Y0130500D03*
X0285056Y0130500D03*
D13*
X0076800Y0125731D03*
X0066800Y0131131D03*
X0076800Y0136531D03*
X0066800Y0142031D03*
X0076800Y0147431D03*
X0066800Y0152831D03*
X0076800Y0158331D03*
X0066800Y0163731D03*
X0076800Y0169131D03*
X0066800Y0174631D03*
X0076800Y0180031D03*
X0066800Y0120231D03*
X0076800Y0093131D03*
X0076800Y0082231D03*
X0066800Y0076831D03*
X0076800Y0071331D03*
X0066800Y0065931D03*
X0076800Y0060531D03*
X0066800Y0055031D03*
X0076800Y0049631D03*
D14*
X0066800Y0087631D03*
X0066800Y0098531D03*
X0076800Y0103931D03*
X0066800Y0109431D03*
X0076800Y0114831D03*
D15*
X0213217Y0164043D03*
X0253217Y0164043D03*
D16*
X0203198Y0127106D03*
X0200639Y0127106D03*
X0198080Y0127106D03*
X0195520Y0127106D03*
X0192961Y0127106D03*
X0190402Y0127106D03*
X0187843Y0127106D03*
X0185284Y0127106D03*
X0182725Y0127106D03*
X0180166Y0127106D03*
X0177607Y0127106D03*
X0175048Y0127106D03*
X0175048Y0104131D03*
X0177607Y0104131D03*
X0180166Y0104131D03*
X0182725Y0104131D03*
X0185284Y0104131D03*
X0187843Y0104131D03*
X0190402Y0104131D03*
X0192961Y0104131D03*
X0195520Y0104131D03*
X0198080Y0104131D03*
X0200639Y0104131D03*
X0203198Y0104131D03*
D17*
X0221780Y0098689D03*
X0226780Y0098689D03*
X0231780Y0098689D03*
X0236780Y0098689D03*
X0236780Y0119161D03*
X0231780Y0119161D03*
X0226780Y0119161D03*
X0221780Y0119161D03*
D18*
X0221603Y0136484D03*
X0229083Y0136484D03*
X0194438Y0158138D03*
X0186957Y0158138D03*
X0213729Y0081366D03*
X0221209Y0081366D03*
D19*
X0235580Y0081366D03*
X0246603Y0081366D03*
X0247391Y0136484D03*
X0258414Y0136484D03*
D20*
X0256839Y0116602D03*
X0256839Y0109122D03*
D21*
X0158020Y0090480D03*
X0158020Y0085480D03*
X0158020Y0080480D03*
X0158020Y0075480D03*
X0158020Y0070480D03*
X0158020Y0065480D03*
X0158020Y0060480D03*
X0158020Y0055480D03*
X0158020Y0050480D03*
X0158020Y0045480D03*
X0118650Y0045480D03*
X0118650Y0050480D03*
X0118650Y0055480D03*
X0118650Y0060480D03*
X0118650Y0065480D03*
X0118650Y0070480D03*
X0118650Y0075480D03*
X0118650Y0080480D03*
X0118650Y0085480D03*
X0118650Y0090480D03*
D22*
X0120954Y0136091D03*
X0125954Y0136091D03*
X0130954Y0136091D03*
X0135954Y0136091D03*
X0140954Y0136091D03*
X0145954Y0136091D03*
X0150954Y0136091D03*
X0155954Y0136091D03*
X0160954Y0136091D03*
X0165954Y0136091D03*
X0165954Y0175461D03*
X0160954Y0175461D03*
X0155954Y0175461D03*
X0150954Y0175461D03*
X0145954Y0175461D03*
X0140954Y0175461D03*
X0135954Y0175461D03*
X0130954Y0175461D03*
X0125954Y0175461D03*
X0120954Y0175461D03*
D23*
X0273769Y0079004D03*
X0273769Y0071130D03*
X0273769Y0063256D03*
X0273769Y0055382D03*
D24*
X0274556Y0030500D02*
X0274756Y0030300D01*
X0274756Y0021300D01*
X0274556Y0020500D01*
X0264856Y0021300D02*
X0264556Y0020500D01*
X0264856Y0021300D02*
X0264856Y0030300D01*
X0264556Y0030500D01*
X0254956Y0030300D02*
X0254556Y0030500D01*
X0254956Y0030300D02*
X0254956Y0021300D01*
X0254556Y0020500D01*
X0235156Y0021300D02*
X0234556Y0020500D01*
X0235156Y0021300D02*
X0235156Y0030300D01*
X0234556Y0030500D01*
X0224556Y0030500D02*
X0224356Y0030300D01*
X0224356Y0021300D01*
X0224556Y0020500D01*
X0204556Y0020500D02*
X0204556Y0030500D01*
X0210856Y0036600D02*
X0180256Y0036600D01*
X0174856Y0031200D01*
X0174556Y0030500D01*
X0174856Y0030300D01*
X0174856Y0021300D01*
X0174556Y0020500D01*
X0164956Y0021300D02*
X0164556Y0020500D01*
X0164956Y0021300D02*
X0164956Y0030300D01*
X0164556Y0030500D01*
X0164956Y0031200D01*
X0166756Y0031200D01*
X0213556Y0078000D01*
X0213556Y0080700D01*
X0213729Y0081366D01*
X0214456Y0081600D01*
X0214456Y0090600D01*
X0221656Y0097800D01*
X0221780Y0098689D01*
X0222556Y0098700D01*
X0226156Y0098700D01*
X0226780Y0098689D01*
X0227056Y0097800D01*
X0227056Y0096000D01*
X0238756Y0084300D01*
X0256756Y0102300D01*
X0256756Y0108600D01*
X0256839Y0109122D01*
X0256756Y0115800D02*
X0245956Y0115800D01*
X0232456Y0102300D01*
X0232456Y0098700D01*
X0231780Y0098689D01*
X0221780Y0098689D02*
X0221656Y0098700D01*
X0221656Y0101400D01*
X0218956Y0104100D01*
X0218956Y0115800D01*
X0197356Y0137400D01*
X0189256Y0137400D01*
X0187456Y0139200D01*
X0189256Y0137400D02*
X0182956Y0131100D01*
X0182956Y0127500D01*
X0182725Y0127106D01*
X0180256Y0127500D02*
X0180166Y0127106D01*
X0180256Y0127500D02*
X0180256Y0137400D01*
X0185656Y0142800D01*
X0209989Y0142783D01*
X0219438Y0152626D01*
X0263139Y0152626D01*
X0272956Y0142800D01*
X0284656Y0131100D01*
X0285056Y0130500D01*
X0261256Y0120300D02*
X0261256Y0087000D01*
X0210856Y0036600D01*
X0171256Y0060000D02*
X0159556Y0071700D01*
X0158656Y0070800D01*
X0158020Y0070480D01*
X0159556Y0071700D02*
X0160456Y0072600D01*
X0161356Y0072600D01*
X0163156Y0074400D01*
X0163550Y0091500D01*
X0148981Y0104494D01*
X0128956Y0104100D01*
X0128956Y0108600D01*
X0128956Y0104100D02*
X0119056Y0104100D01*
X0113656Y0098700D01*
X0113656Y0088800D01*
X0116356Y0086100D01*
X0118156Y0086100D01*
X0118650Y0085480D01*
X0118650Y0090480D02*
X0119056Y0090600D01*
X0119056Y0093300D01*
X0120856Y0095100D01*
X0124456Y0096900D02*
X0120856Y0100500D01*
X0124456Y0096900D02*
X0124456Y0088800D01*
X0152356Y0060900D01*
X0157756Y0060900D01*
X0158020Y0060480D01*
X0158020Y0055480D02*
X0157756Y0054600D01*
X0149656Y0054600D01*
X0146056Y0051000D01*
X0119056Y0051000D01*
X0118650Y0050480D01*
X0116356Y0047400D02*
X0115456Y0047400D01*
X0111856Y0051000D01*
X0111856Y0081600D01*
X0116356Y0079800D02*
X0118156Y0079800D01*
X0118650Y0080480D01*
X0116356Y0079800D02*
X0113656Y0077100D01*
X0113656Y0059100D01*
X0115456Y0057300D01*
X0116356Y0057300D01*
X0118156Y0055500D01*
X0118650Y0055480D01*
X0118650Y0060480D02*
X0119056Y0060900D01*
X0131656Y0060900D01*
X0147856Y0050100D02*
X0140656Y0042900D01*
X0112756Y0042900D01*
X0106456Y0049200D01*
X0077656Y0049200D01*
X0076800Y0049631D01*
X0070456Y0044700D02*
X0083956Y0044700D01*
X0085756Y0046500D01*
X0103756Y0046500D01*
X0104656Y0045600D01*
X0116356Y0047400D02*
X0118156Y0045600D01*
X0118650Y0045480D01*
X0108256Y0057300D02*
X0100156Y0065400D01*
X0066856Y0065400D01*
X0066800Y0065931D01*
X0076800Y0071331D02*
X0076756Y0071700D01*
X0072256Y0076200D01*
X0072256Y0084300D01*
X0074956Y0087000D01*
X0076756Y0087000D01*
X0083056Y0093300D01*
X0083056Y0147300D01*
X0078556Y0151800D01*
X0076756Y0151800D01*
X0072256Y0156300D01*
X0072256Y0159900D01*
X0075856Y0163500D01*
X0078556Y0163500D01*
X0117256Y0124800D01*
X0126256Y0124800D01*
X0135256Y0133800D01*
X0135256Y0135600D01*
X0135954Y0136091D01*
X0131656Y0136500D02*
X0130954Y0136091D01*
X0131656Y0136500D02*
X0126256Y0141900D01*
X0126256Y0175200D01*
X0125954Y0175461D01*
X0130954Y0175461D02*
X0131656Y0176100D01*
X0131656Y0177900D01*
X0134356Y0186899D01*
X0152356Y0186899D01*
X0155056Y0177900D01*
X0155056Y0176100D01*
X0155954Y0175461D01*
X0160954Y0175461D02*
X0161356Y0175200D01*
X0161356Y0173400D01*
X0170356Y0165581D01*
X0213160Y0166046D01*
X0213217Y0164043D01*
X0202756Y0147300D02*
X0232456Y0177000D01*
X0232456Y0198600D01*
X0234256Y0200400D01*
X0234556Y0200500D01*
X0235156Y0201300D01*
X0235156Y0210300D01*
X0234556Y0210500D01*
X0225256Y0210300D02*
X0224556Y0210500D01*
X0225256Y0210300D02*
X0225256Y0201300D01*
X0224556Y0200500D01*
X0224356Y0200400D01*
X0209056Y0185100D01*
X0214556Y0200500D02*
X0190156Y0176100D01*
X0166756Y0176100D01*
X0165954Y0175461D01*
X0173056Y0179700D02*
X0183856Y0179700D01*
X0204556Y0200400D01*
X0204556Y0200500D01*
X0204556Y0210500D01*
X0214456Y0210300D02*
X0214556Y0210500D01*
X0214456Y0210300D02*
X0214456Y0201300D01*
X0214556Y0200500D01*
X0236056Y0192300D02*
X0244156Y0200400D01*
X0244556Y0200500D01*
X0245056Y0201300D01*
X0245056Y0210300D01*
X0244556Y0210500D01*
X0254556Y0210500D02*
X0254956Y0210300D01*
X0254956Y0201300D01*
X0254556Y0200500D01*
X0264556Y0200500D02*
X0264856Y0201300D01*
X0264856Y0210300D01*
X0264556Y0210500D01*
X0274556Y0210500D02*
X0274756Y0210300D01*
X0274756Y0201300D01*
X0274556Y0200500D01*
X0236056Y0192300D02*
X0236056Y0190500D01*
X0188356Y0193200D02*
X0188356Y0200400D01*
X0188556Y0200500D01*
X0189256Y0201300D01*
X0189256Y0210300D01*
X0188556Y0210500D01*
X0178556Y0210500D02*
X0178456Y0210300D01*
X0178456Y0201300D01*
X0178556Y0200500D01*
X0176656Y0198600D01*
X0176656Y0186900D01*
X0178456Y0183300D02*
X0167076Y0182941D01*
X0156052Y0190028D01*
X0122981Y0190028D01*
X0118257Y0185697D01*
X0118156Y0168000D01*
X0120856Y0165300D01*
X0120856Y0136500D01*
X0120954Y0136091D01*
X0125356Y0135600D02*
X0125356Y0133800D01*
X0119956Y0128400D01*
X0125356Y0135600D02*
X0125954Y0136091D01*
X0130756Y0119400D02*
X0145156Y0133800D01*
X0145156Y0135600D01*
X0145954Y0136091D01*
X0150556Y0135600D02*
X0150954Y0136091D01*
X0150556Y0135600D02*
X0146619Y0126937D01*
X0140543Y0112200D01*
X0107356Y0112200D01*
X0077656Y0082500D01*
X0076800Y0082231D01*
X0065956Y0082500D02*
X0062356Y0078900D01*
X0062356Y0052800D01*
X0070456Y0044700D01*
X0069556Y0042900D02*
X0060556Y0051900D01*
X0060556Y0087900D01*
X0065956Y0093300D01*
X0068656Y0093300D01*
X0076756Y0101400D01*
X0076756Y0103200D01*
X0076800Y0103931D01*
X0068656Y0104100D02*
X0076756Y0112200D01*
X0076756Y0114000D01*
X0076800Y0114831D01*
X0076800Y0125731D02*
X0077656Y0126600D01*
X0081256Y0130200D01*
X0081256Y0138300D01*
X0078556Y0141000D01*
X0074956Y0141000D01*
X0071356Y0137400D01*
X0066856Y0137400D01*
X0055156Y0125700D01*
X0055156Y0049200D01*
X0068656Y0035700D01*
X0091156Y0035700D01*
X0092056Y0036600D01*
X0169456Y0036600D01*
X0205456Y0072600D01*
X0205456Y0106800D01*
X0204556Y0107700D01*
X0199156Y0107700D01*
X0198256Y0106800D01*
X0198256Y0105000D01*
X0198080Y0104131D01*
X0200056Y0104100D02*
X0200639Y0104131D01*
X0200056Y0104100D02*
X0200056Y0078000D01*
X0197356Y0075300D01*
X0197356Y0069900D01*
X0165856Y0038400D01*
X0091156Y0038400D01*
X0090256Y0037500D01*
X0069556Y0037500D01*
X0056956Y0050100D01*
X0056956Y0116700D01*
X0066856Y0126600D01*
X0068656Y0126600D01*
X0076756Y0134700D01*
X0076756Y0136500D01*
X0076800Y0136531D01*
X0077656Y0158100D02*
X0076800Y0158331D01*
X0077656Y0158100D02*
X0119956Y0115800D01*
X0137956Y0115800D01*
X0148081Y0109669D02*
X0147687Y0123506D01*
X0150146Y0126248D01*
X0158038Y0126376D01*
X0168500Y0126376D01*
X0187456Y0147300D01*
X0202756Y0147300D01*
X0187456Y0150900D02*
X0187456Y0158100D01*
X0186957Y0158138D01*
X0166756Y0162600D02*
X0166756Y0136500D01*
X0165954Y0136091D01*
X0155954Y0136091D02*
X0155056Y0136500D01*
X0155056Y0156300D01*
X0140656Y0170700D01*
X0138856Y0170700D01*
X0136156Y0173400D01*
X0136156Y0175200D01*
X0135954Y0175461D01*
X0137056Y0168900D02*
X0133456Y0168900D01*
X0137056Y0168900D02*
X0149656Y0156300D01*
X0122656Y0168900D02*
X0121756Y0169800D01*
X0121756Y0175200D01*
X0120954Y0175461D01*
X0100146Y0192783D02*
X0165107Y0192390D01*
X0170356Y0186900D01*
X0178456Y0183300D02*
X0188356Y0193200D01*
X0168556Y0200500D02*
X0168556Y0210500D01*
X0158656Y0210300D02*
X0158556Y0210500D01*
X0158656Y0210300D02*
X0158656Y0201300D01*
X0158556Y0200500D01*
X0148756Y0201300D02*
X0148756Y0210300D01*
X0148556Y0210500D01*
X0138856Y0210300D02*
X0138556Y0210500D01*
X0138856Y0210300D02*
X0138856Y0201300D01*
X0138556Y0200500D01*
X0128956Y0201300D02*
X0128556Y0200500D01*
X0128956Y0201300D02*
X0128956Y0210300D01*
X0128556Y0210500D01*
X0119056Y0210300D02*
X0118556Y0210500D01*
X0119056Y0210300D02*
X0119056Y0201300D01*
X0118556Y0200500D01*
X0109156Y0201300D02*
X0108556Y0200500D01*
X0109156Y0201300D02*
X0109156Y0210300D01*
X0108556Y0210500D01*
X0099256Y0210300D02*
X0098556Y0210500D01*
X0099256Y0210300D02*
X0099256Y0201300D01*
X0098556Y0200500D01*
X0100146Y0192783D02*
X0094756Y0186900D01*
X0077656Y0169800D01*
X0076800Y0169131D01*
X0148556Y0200500D02*
X0148756Y0201300D01*
X0221603Y0136484D02*
X0221656Y0135600D01*
X0221656Y0132000D01*
X0232456Y0132000D01*
X0236056Y0135600D01*
X0246856Y0135600D01*
X0247391Y0136484D01*
X0247756Y0135600D01*
X0247756Y0133800D01*
X0261256Y0120300D01*
X0256839Y0116602D02*
X0256756Y0115800D01*
X0226780Y0119161D02*
X0226156Y0119400D01*
X0222556Y0119400D01*
X0221780Y0119161D01*
X0221656Y0119400D01*
X0221656Y0132000D01*
X0215356Y0113100D02*
X0182056Y0113100D01*
X0174856Y0105900D01*
X0174856Y0105000D01*
X0175048Y0104131D01*
X0180166Y0104131D02*
X0180256Y0104100D01*
X0180256Y0102300D01*
X0170356Y0092400D01*
X0177556Y0086100D02*
X0192856Y0101400D01*
X0192856Y0104100D01*
X0192961Y0104131D01*
X0195520Y0104131D02*
X0195556Y0104100D01*
X0195556Y0070800D01*
X0164956Y0040200D01*
X0090256Y0040200D01*
X0089356Y0039300D01*
X0070456Y0039300D01*
X0058756Y0051000D01*
X0058756Y0097800D01*
X0065056Y0104100D01*
X0068656Y0104100D01*
X0066800Y0087631D02*
X0065956Y0087000D01*
X0065956Y0082500D01*
X0069556Y0042900D02*
X0087556Y0042900D01*
X0118650Y0075480D02*
X0119056Y0076200D01*
X0119956Y0077100D01*
X0124456Y0077100D01*
X0137956Y0080700D02*
X0142456Y0076200D01*
X0157756Y0076200D01*
X0158020Y0075480D01*
X0158020Y0080480D02*
X0157756Y0080700D01*
X0151456Y0080700D01*
X0157756Y0090600D02*
X0158020Y0090480D01*
X0157756Y0090600D02*
X0147856Y0100500D01*
X0148081Y0109669D02*
X0175643Y0082106D01*
X0186950Y0081713D01*
X0193756Y0075300D01*
X0193756Y0071700D01*
X0167656Y0045600D01*
X0158656Y0045600D01*
X0158020Y0045480D01*
X0157756Y0050100D02*
X0158020Y0050480D01*
X0157756Y0050100D02*
X0147856Y0050100D01*
X0165856Y0049200D02*
X0190156Y0073500D01*
X0200956Y0073500D02*
X0202756Y0075300D01*
X0202756Y0104100D01*
X0203198Y0104131D01*
X0208156Y0109500D02*
X0217156Y0100500D01*
X0208156Y0109500D02*
X0191056Y0109500D01*
X0188356Y0106800D01*
X0188356Y0105000D01*
X0187843Y0104131D01*
X0185656Y0105000D02*
X0185284Y0104131D01*
X0185656Y0105000D02*
X0185656Y0109500D01*
X0183856Y0115800D02*
X0153256Y0115800D01*
X0162256Y0107700D02*
X0171256Y0107700D01*
X0173056Y0109500D01*
X0183856Y0115800D02*
X0192856Y0124800D01*
X0192856Y0126600D01*
X0192961Y0127106D01*
X0190402Y0127106D02*
X0190156Y0127500D01*
X0190156Y0132900D01*
X0191056Y0133800D01*
X0195520Y0127106D02*
X0195556Y0126600D01*
X0195556Y0122100D01*
X0190156Y0116700D01*
X0180256Y0122100D02*
X0177556Y0124800D01*
X0177556Y0126600D01*
X0177607Y0127106D01*
X0175048Y0127106D02*
X0174856Y0126600D01*
X0174856Y0122100D01*
X0235580Y0081366D02*
X0236056Y0081600D01*
X0238756Y0084300D01*
X0155056Y0030300D02*
X0155056Y0021300D01*
X0154556Y0020500D01*
X0145156Y0021300D02*
X0144556Y0020500D01*
X0145156Y0021300D02*
X0145156Y0030300D01*
X0144556Y0030500D01*
X0135256Y0030300D02*
X0134556Y0030500D01*
X0135256Y0030300D02*
X0135256Y0021300D01*
X0134556Y0020500D01*
X0154556Y0030500D02*
X0155056Y0030300D01*
D25*
X0029856Y0015800D02*
X0029856Y0215200D01*
X0063589Y0215200D01*
X0062758Y0214369D01*
X0061270Y0211792D01*
X0060500Y0208918D01*
X0060500Y0205943D01*
X0061270Y0203069D01*
X0062758Y0200492D01*
X0064862Y0198388D01*
X0067438Y0196901D01*
X0070312Y0196131D01*
X0073288Y0196131D01*
X0076162Y0196901D01*
X0078738Y0198388D01*
X0080842Y0200492D01*
X0082330Y0203069D01*
X0083100Y0205943D01*
X0083100Y0208918D01*
X0082330Y0211792D01*
X0080842Y0214369D01*
X0080011Y0215200D01*
X0095499Y0215200D01*
X0094766Y0214467D01*
X0094086Y0212824D01*
X0094086Y0208176D01*
X0094766Y0206533D01*
X0095799Y0205500D01*
X0094766Y0204467D01*
X0094086Y0202824D01*
X0094086Y0198176D01*
X0094766Y0196533D01*
X0096024Y0195275D01*
X0097667Y0194595D01*
X0098958Y0194595D01*
X0098633Y0194241D01*
X0098052Y0193666D01*
X0098051Y0193605D01*
X0093239Y0188352D01*
X0078617Y0173731D01*
X0074895Y0173731D01*
X0072200Y0171036D01*
X0072200Y0167225D01*
X0074406Y0165020D01*
X0071400Y0162014D01*
X0071400Y0165636D01*
X0068705Y0168331D01*
X0064895Y0168331D01*
X0062200Y0165636D01*
X0062200Y0161825D01*
X0064895Y0159131D01*
X0068705Y0159131D01*
X0070156Y0160581D01*
X0070156Y0155980D01*
X0068705Y0157431D01*
X0064895Y0157431D01*
X0062200Y0154736D01*
X0062200Y0150925D01*
X0064895Y0148231D01*
X0068705Y0148231D01*
X0071400Y0150925D01*
X0071400Y0154186D01*
X0074225Y0151361D01*
X0072200Y0149336D01*
X0072200Y0145525D01*
X0074625Y0143100D01*
X0074086Y0143100D01*
X0072856Y0141870D01*
X0071400Y0140414D01*
X0071400Y0143936D01*
X0068705Y0146631D01*
X0064895Y0146631D01*
X0062200Y0143936D01*
X0062200Y0140125D01*
X0064406Y0137920D01*
X0053056Y0126570D01*
X0053056Y0048330D01*
X0054286Y0047100D01*
X0067786Y0033600D01*
X0092026Y0033600D01*
X0092926Y0034500D01*
X0130799Y0034500D01*
X0130766Y0034467D01*
X0130086Y0032824D01*
X0130086Y0028176D01*
X0130766Y0026533D01*
X0131799Y0025500D01*
X0130766Y0024467D01*
X0130086Y0022824D01*
X0130086Y0018176D01*
X0130766Y0016533D01*
X0131499Y0015800D01*
X0081135Y0015800D01*
X0082330Y0017869D01*
X0083100Y0020743D01*
X0083100Y0023718D01*
X0082330Y0026592D01*
X0080842Y0029169D01*
X0078738Y0031273D01*
X0076162Y0032761D01*
X0073288Y0033531D01*
X0070312Y0033531D01*
X0067438Y0032761D01*
X0064862Y0031273D01*
X0062758Y0029169D01*
X0061270Y0026592D01*
X0060500Y0023718D01*
X0060500Y0020743D01*
X0061270Y0017869D01*
X0062465Y0015800D01*
X0029856Y0015800D01*
X0029856Y0016894D02*
X0061833Y0016894D01*
X0061103Y0018493D02*
X0029856Y0018493D01*
X0029856Y0020091D02*
X0060675Y0020091D01*
X0060500Y0021690D02*
X0029856Y0021690D01*
X0029856Y0023288D02*
X0060500Y0023288D01*
X0060813Y0024887D02*
X0029856Y0024887D01*
X0029856Y0026485D02*
X0061241Y0026485D01*
X0062131Y0028084D02*
X0029856Y0028084D01*
X0029856Y0029682D02*
X0063271Y0029682D01*
X0064875Y0031281D02*
X0029856Y0031281D01*
X0029856Y0032879D02*
X0067881Y0032879D01*
X0066908Y0034478D02*
X0029856Y0034478D01*
X0029856Y0036076D02*
X0065310Y0036076D01*
X0063711Y0037675D02*
X0029856Y0037675D01*
X0029856Y0039273D02*
X0062113Y0039273D01*
X0060514Y0040872D02*
X0029856Y0040872D01*
X0029856Y0042470D02*
X0058916Y0042470D01*
X0057317Y0044069D02*
X0029856Y0044069D01*
X0029856Y0045667D02*
X0055719Y0045667D01*
X0054120Y0047266D02*
X0029856Y0047266D01*
X0029856Y0048864D02*
X0053056Y0048864D01*
X0053056Y0050463D02*
X0029856Y0050463D01*
X0029856Y0052061D02*
X0053056Y0052061D01*
X0053056Y0053660D02*
X0029856Y0053660D01*
X0029856Y0055258D02*
X0053056Y0055258D01*
X0053056Y0056857D02*
X0029856Y0056857D01*
X0029856Y0058455D02*
X0053056Y0058455D01*
X0053056Y0060054D02*
X0029856Y0060054D01*
X0029856Y0061652D02*
X0053056Y0061652D01*
X0053056Y0063251D02*
X0029856Y0063251D01*
X0029856Y0064849D02*
X0053056Y0064849D01*
X0053056Y0066448D02*
X0029856Y0066448D01*
X0029856Y0068046D02*
X0053056Y0068046D01*
X0053056Y0069645D02*
X0029856Y0069645D01*
X0029856Y0071243D02*
X0053056Y0071243D01*
X0053056Y0072842D02*
X0029856Y0072842D01*
X0029856Y0074440D02*
X0053056Y0074440D01*
X0053056Y0076039D02*
X0029856Y0076039D01*
X0029856Y0077637D02*
X0053056Y0077637D01*
X0053056Y0079236D02*
X0029856Y0079236D01*
X0029856Y0080834D02*
X0053056Y0080834D01*
X0053056Y0082433D02*
X0029856Y0082433D01*
X0029856Y0084032D02*
X0053056Y0084032D01*
X0053056Y0085630D02*
X0029856Y0085630D01*
X0029856Y0087229D02*
X0053056Y0087229D01*
X0053056Y0088827D02*
X0029856Y0088827D01*
X0029856Y0090426D02*
X0053056Y0090426D01*
X0053056Y0092024D02*
X0029856Y0092024D01*
X0029856Y0093623D02*
X0053056Y0093623D01*
X0053056Y0095221D02*
X0029856Y0095221D01*
X0029856Y0096820D02*
X0053056Y0096820D01*
X0053056Y0098418D02*
X0029856Y0098418D01*
X0029856Y0100017D02*
X0053056Y0100017D01*
X0053056Y0101615D02*
X0029856Y0101615D01*
X0029856Y0103214D02*
X0053056Y0103214D01*
X0053056Y0104812D02*
X0029856Y0104812D01*
X0029856Y0106411D02*
X0053056Y0106411D01*
X0053056Y0108009D02*
X0029856Y0108009D01*
X0029856Y0109608D02*
X0053056Y0109608D01*
X0053056Y0111206D02*
X0029856Y0111206D01*
X0029856Y0112805D02*
X0053056Y0112805D01*
X0053056Y0114403D02*
X0029856Y0114403D01*
X0029856Y0116002D02*
X0053056Y0116002D01*
X0053056Y0117600D02*
X0029856Y0117600D01*
X0029856Y0119199D02*
X0053056Y0119199D01*
X0053056Y0120797D02*
X0029856Y0120797D01*
X0029856Y0122396D02*
X0053056Y0122396D01*
X0053056Y0123994D02*
X0029856Y0123994D01*
X0029856Y0125593D02*
X0053056Y0125593D01*
X0053677Y0127191D02*
X0029856Y0127191D01*
X0029856Y0128790D02*
X0055276Y0128790D01*
X0056874Y0130388D02*
X0029856Y0130388D01*
X0029856Y0131987D02*
X0058473Y0131987D01*
X0060071Y0133585D02*
X0029856Y0133585D01*
X0029856Y0135184D02*
X0061670Y0135184D01*
X0063268Y0136782D02*
X0029856Y0136782D01*
X0029856Y0138381D02*
X0063944Y0138381D01*
X0062346Y0139979D02*
X0029856Y0139979D01*
X0029856Y0141578D02*
X0062200Y0141578D01*
X0062200Y0143176D02*
X0029856Y0143176D01*
X0029856Y0144775D02*
X0063039Y0144775D01*
X0064637Y0146373D02*
X0029856Y0146373D01*
X0029856Y0147972D02*
X0072200Y0147972D01*
X0072200Y0146373D02*
X0068963Y0146373D01*
X0070561Y0144775D02*
X0072950Y0144775D01*
X0071400Y0143176D02*
X0074549Y0143176D01*
X0072564Y0141578D02*
X0071400Y0141578D01*
X0072434Y0149570D02*
X0070045Y0149570D01*
X0071400Y0151169D02*
X0074033Y0151169D01*
X0072819Y0152768D02*
X0071400Y0152768D01*
X0070156Y0157563D02*
X0029856Y0157563D01*
X0029856Y0155965D02*
X0063428Y0155965D01*
X0062200Y0154366D02*
X0029856Y0154366D01*
X0029856Y0152768D02*
X0062200Y0152768D01*
X0062200Y0151169D02*
X0029856Y0151169D01*
X0029856Y0149570D02*
X0063555Y0149570D01*
X0064864Y0159162D02*
X0029856Y0159162D01*
X0029856Y0160760D02*
X0063265Y0160760D01*
X0062200Y0162359D02*
X0029856Y0162359D01*
X0029856Y0163957D02*
X0062200Y0163957D01*
X0062200Y0165556D02*
X0029856Y0165556D01*
X0029856Y0167154D02*
X0063718Y0167154D01*
X0064895Y0170031D02*
X0068705Y0170031D01*
X0071400Y0172725D01*
X0071400Y0176536D01*
X0068705Y0179231D01*
X0064895Y0179231D01*
X0062200Y0176536D01*
X0062200Y0172725D01*
X0064895Y0170031D01*
X0064574Y0170351D02*
X0029856Y0170351D01*
X0029856Y0168753D02*
X0072200Y0168753D01*
X0072200Y0170351D02*
X0069026Y0170351D01*
X0070624Y0171950D02*
X0073114Y0171950D01*
X0074712Y0173548D02*
X0071400Y0173548D01*
X0071400Y0175147D02*
X0080033Y0175147D01*
X0078705Y0175431D02*
X0081400Y0178125D01*
X0081400Y0181936D01*
X0078705Y0184631D01*
X0074895Y0184631D01*
X0072200Y0181936D01*
X0072200Y0178125D01*
X0074895Y0175431D01*
X0078705Y0175431D01*
X0080020Y0176745D02*
X0081631Y0176745D01*
X0081400Y0178344D02*
X0083230Y0178344D01*
X0084828Y0179942D02*
X0081400Y0179942D01*
X0081400Y0181541D02*
X0086427Y0181541D01*
X0088025Y0183139D02*
X0080197Y0183139D01*
X0073403Y0183139D02*
X0029856Y0183139D01*
X0029856Y0181541D02*
X0072200Y0181541D01*
X0072200Y0179942D02*
X0029856Y0179942D01*
X0029856Y0178344D02*
X0064008Y0178344D01*
X0062409Y0176745D02*
X0029856Y0176745D01*
X0029856Y0175147D02*
X0062200Y0175147D01*
X0062200Y0173548D02*
X0029856Y0173548D01*
X0029856Y0171950D02*
X0062976Y0171950D01*
X0069882Y0167154D02*
X0072271Y0167154D01*
X0071400Y0165556D02*
X0073870Y0165556D01*
X0073343Y0163957D02*
X0071400Y0163957D01*
X0071400Y0162359D02*
X0071745Y0162359D01*
X0070156Y0159162D02*
X0068736Y0159162D01*
X0079600Y0165426D02*
X0081400Y0167225D01*
X0081400Y0170574D01*
X0095663Y0184838D01*
X0095717Y0184840D01*
X0096273Y0185448D01*
X0096856Y0186030D01*
X0096856Y0186083D01*
X0101065Y0190678D01*
X0120455Y0190560D01*
X0117445Y0187801D01*
X0117399Y0187802D01*
X0116808Y0187218D01*
X0116196Y0186657D01*
X0116194Y0186611D01*
X0116162Y0186579D01*
X0116157Y0185748D01*
X0116121Y0184919D01*
X0116152Y0184885D01*
X0116061Y0168875D01*
X0116056Y0168870D01*
X0116056Y0168006D01*
X0116051Y0167142D01*
X0116056Y0167137D01*
X0116056Y0167130D01*
X0116666Y0166520D01*
X0117274Y0165905D01*
X0117281Y0165905D01*
X0118756Y0164430D01*
X0118756Y0140290D01*
X0118172Y0139706D01*
X0118172Y0132475D01*
X0118821Y0131827D01*
X0117917Y0131452D01*
X0116904Y0130439D01*
X0116356Y0129116D01*
X0116356Y0128670D01*
X0080656Y0164370D01*
X0079600Y0165426D01*
X0079730Y0165556D02*
X0117630Y0165556D01*
X0118756Y0163957D02*
X0081069Y0163957D01*
X0082667Y0162359D02*
X0118756Y0162359D01*
X0118756Y0160760D02*
X0084266Y0160760D01*
X0085864Y0159162D02*
X0118756Y0159162D01*
X0118756Y0157563D02*
X0087463Y0157563D01*
X0089061Y0155965D02*
X0118756Y0155965D01*
X0118756Y0154366D02*
X0090660Y0154366D01*
X0092258Y0152768D02*
X0118756Y0152768D01*
X0118756Y0151169D02*
X0093857Y0151169D01*
X0095455Y0149570D02*
X0118756Y0149570D01*
X0118756Y0147972D02*
X0097054Y0147972D01*
X0098652Y0146373D02*
X0118756Y0146373D01*
X0118756Y0144775D02*
X0100251Y0144775D01*
X0101849Y0143176D02*
X0118756Y0143176D01*
X0118756Y0141578D02*
X0103448Y0141578D01*
X0105046Y0139979D02*
X0118446Y0139979D01*
X0118172Y0138381D02*
X0106645Y0138381D01*
X0108243Y0136782D02*
X0118172Y0136782D01*
X0118172Y0135184D02*
X0109842Y0135184D01*
X0111440Y0133585D02*
X0118172Y0133585D01*
X0118661Y0131987D02*
X0113039Y0131987D01*
X0114637Y0130388D02*
X0116883Y0130388D01*
X0116356Y0128790D02*
X0116236Y0128790D01*
X0108792Y0123994D02*
X0085156Y0123994D01*
X0085156Y0122396D02*
X0110390Y0122396D01*
X0111989Y0120797D02*
X0085156Y0120797D01*
X0085156Y0119199D02*
X0113587Y0119199D01*
X0115186Y0117600D02*
X0085156Y0117600D01*
X0085156Y0116002D02*
X0116784Y0116002D01*
X0118383Y0114403D02*
X0085156Y0114403D01*
X0085156Y0112805D02*
X0104991Y0112805D01*
X0106486Y0114300D02*
X0085156Y0092970D01*
X0085156Y0094170D01*
X0085156Y0147630D01*
X0118486Y0114300D01*
X0106486Y0114300D01*
X0103392Y0111206D02*
X0085156Y0111206D01*
X0085156Y0109608D02*
X0101794Y0109608D01*
X0100195Y0108009D02*
X0085156Y0108009D01*
X0085156Y0106411D02*
X0098597Y0106411D01*
X0096998Y0104812D02*
X0085156Y0104812D01*
X0085156Y0103214D02*
X0095400Y0103214D01*
X0093801Y0101615D02*
X0085156Y0101615D01*
X0085156Y0100017D02*
X0092203Y0100017D01*
X0090604Y0098418D02*
X0085156Y0098418D01*
X0085156Y0096820D02*
X0089006Y0096820D01*
X0087407Y0095221D02*
X0085156Y0095221D01*
X0085156Y0093623D02*
X0085809Y0093623D01*
X0088551Y0090426D02*
X0111556Y0090426D01*
X0111556Y0092024D02*
X0090150Y0092024D01*
X0091748Y0093623D02*
X0111556Y0093623D01*
X0111556Y0095221D02*
X0093347Y0095221D01*
X0094945Y0096820D02*
X0111556Y0096820D01*
X0111556Y0098418D02*
X0096544Y0098418D01*
X0098142Y0100017D02*
X0112003Y0100017D01*
X0111556Y0099570D02*
X0111556Y0087930D01*
X0114098Y0085388D01*
X0114098Y0084449D01*
X0113895Y0084652D01*
X0112572Y0085200D01*
X0111140Y0085200D01*
X0109817Y0084652D01*
X0108804Y0083639D01*
X0108256Y0082316D01*
X0108256Y0080884D01*
X0108804Y0079561D01*
X0109756Y0078609D01*
X0109756Y0060575D01*
X0108972Y0060900D01*
X0107626Y0060900D01*
X0101026Y0067500D01*
X0079475Y0067500D01*
X0081400Y0069425D01*
X0081400Y0073236D01*
X0078705Y0075931D01*
X0075495Y0075931D01*
X0074356Y0077070D01*
X0074356Y0078169D01*
X0074895Y0077631D01*
X0078705Y0077631D01*
X0081400Y0080325D01*
X0081400Y0083274D01*
X0108226Y0110100D01*
X0125681Y0110100D01*
X0125356Y0109316D01*
X0125356Y0107884D01*
X0125904Y0106561D01*
X0126265Y0106200D01*
X0118186Y0106200D01*
X0112786Y0100800D01*
X0111556Y0099570D01*
X0113601Y0101615D02*
X0099741Y0101615D01*
X0101339Y0103214D02*
X0115200Y0103214D01*
X0116798Y0104812D02*
X0102938Y0104812D01*
X0104536Y0106411D02*
X0126054Y0106411D01*
X0125356Y0108009D02*
X0106135Y0108009D01*
X0107733Y0109608D02*
X0125477Y0109608D01*
X0107193Y0125593D02*
X0085156Y0125593D01*
X0085156Y0127191D02*
X0105595Y0127191D01*
X0103996Y0128790D02*
X0085156Y0128790D01*
X0085156Y0130388D02*
X0102398Y0130388D01*
X0100799Y0131987D02*
X0085156Y0131987D01*
X0085156Y0133585D02*
X0099201Y0133585D01*
X0097602Y0135184D02*
X0085156Y0135184D01*
X0085156Y0136782D02*
X0096004Y0136782D01*
X0094405Y0138381D02*
X0085156Y0138381D01*
X0085156Y0139979D02*
X0092807Y0139979D01*
X0091208Y0141578D02*
X0085156Y0141578D01*
X0085156Y0143176D02*
X0089610Y0143176D01*
X0088011Y0144775D02*
X0085156Y0144775D01*
X0085156Y0146373D02*
X0086413Y0146373D01*
X0081329Y0167154D02*
X0116051Y0167154D01*
X0116056Y0168753D02*
X0081400Y0168753D01*
X0081400Y0170351D02*
X0116069Y0170351D01*
X0116078Y0171950D02*
X0082775Y0171950D01*
X0084374Y0173548D02*
X0116087Y0173548D01*
X0116097Y0175147D02*
X0085972Y0175147D01*
X0087571Y0176745D02*
X0116106Y0176745D01*
X0116115Y0178344D02*
X0089169Y0178344D01*
X0090768Y0179942D02*
X0116124Y0179942D01*
X0116133Y0181541D02*
X0092366Y0181541D01*
X0093965Y0183139D02*
X0116142Y0183139D01*
X0116151Y0184738D02*
X0095563Y0184738D01*
X0097088Y0186336D02*
X0116160Y0186336D01*
X0117590Y0187935D02*
X0098552Y0187935D01*
X0100017Y0189533D02*
X0119334Y0189533D01*
X0119853Y0194764D02*
X0121088Y0195275D01*
X0122345Y0196533D01*
X0123026Y0198176D01*
X0123026Y0202824D01*
X0122345Y0204467D01*
X0121313Y0205500D01*
X0122345Y0206533D01*
X0123026Y0208176D01*
X0123026Y0212824D01*
X0122345Y0214467D01*
X0121613Y0215200D01*
X0125216Y0215200D01*
X0124994Y0214977D01*
X0124562Y0214383D01*
X0124228Y0213728D01*
X0124001Y0213029D01*
X0123886Y0212303D01*
X0123886Y0210635D01*
X0128421Y0210635D01*
X0128421Y0210365D01*
X0128691Y0210365D01*
X0128691Y0210635D01*
X0133226Y0210635D01*
X0133226Y0212303D01*
X0133111Y0213029D01*
X0132884Y0213728D01*
X0132550Y0214383D01*
X0132118Y0214977D01*
X0131895Y0215200D01*
X0135499Y0215200D01*
X0134766Y0214467D01*
X0134086Y0212824D01*
X0134086Y0208176D01*
X0134766Y0206533D01*
X0135799Y0205500D01*
X0134766Y0204467D01*
X0134086Y0202824D01*
X0134086Y0198176D01*
X0134766Y0196533D01*
X0136024Y0195275D01*
X0137517Y0194657D01*
X0130238Y0194701D01*
X0130349Y0194737D01*
X0131004Y0195071D01*
X0131598Y0195503D01*
X0132118Y0196023D01*
X0132550Y0196617D01*
X0132884Y0197272D01*
X0133111Y0197971D01*
X0133226Y0198697D01*
X0133226Y0200365D01*
X0128691Y0200365D01*
X0128691Y0200635D01*
X0133226Y0200635D01*
X0133226Y0202303D01*
X0133111Y0203029D01*
X0132884Y0203728D01*
X0132550Y0204383D01*
X0132118Y0204977D01*
X0131598Y0205497D01*
X0131594Y0205500D01*
X0131598Y0205503D01*
X0132118Y0206023D01*
X0132550Y0206617D01*
X0132884Y0207272D01*
X0133111Y0207971D01*
X0133226Y0208697D01*
X0133226Y0210365D01*
X0128691Y0210365D01*
X0128691Y0200635D01*
X0128421Y0200635D01*
X0128421Y0204395D01*
X0128421Y0210365D01*
X0123886Y0210365D01*
X0123886Y0208697D01*
X0124001Y0207971D01*
X0124228Y0207272D01*
X0124562Y0206617D01*
X0124994Y0206023D01*
X0125514Y0205503D01*
X0125517Y0205500D01*
X0125514Y0205497D01*
X0124994Y0204977D01*
X0124562Y0204383D01*
X0124228Y0203728D01*
X0124001Y0203029D01*
X0123886Y0202303D01*
X0123886Y0200635D01*
X0128421Y0200635D01*
X0128421Y0200365D01*
X0128421Y0194712D01*
X0128691Y0194710D01*
X0128691Y0200365D01*
X0128421Y0200365D01*
X0123886Y0200365D01*
X0123886Y0198697D01*
X0124001Y0197971D01*
X0124228Y0197272D01*
X0124562Y0196617D01*
X0124994Y0196023D01*
X0125514Y0195503D01*
X0126108Y0195071D01*
X0126763Y0194737D01*
X0126810Y0194722D01*
X0119853Y0194764D01*
X0121740Y0195927D02*
X0125089Y0195927D01*
X0124146Y0197526D02*
X0122757Y0197526D01*
X0123026Y0199124D02*
X0123886Y0199124D01*
X0123886Y0200723D02*
X0123026Y0200723D01*
X0123026Y0202321D02*
X0123889Y0202321D01*
X0124326Y0203920D02*
X0122572Y0203920D01*
X0121331Y0205518D02*
X0125498Y0205518D01*
X0124307Y0207117D02*
X0122587Y0207117D01*
X0123026Y0208715D02*
X0123886Y0208715D01*
X0123886Y0210314D02*
X0123026Y0210314D01*
X0123026Y0211912D02*
X0123886Y0211912D01*
X0124158Y0213511D02*
X0122742Y0213511D01*
X0121703Y0215109D02*
X0125126Y0215109D01*
X0128421Y0210314D02*
X0128691Y0210314D01*
X0128691Y0208715D02*
X0128421Y0208715D01*
X0128421Y0207117D02*
X0128691Y0207117D01*
X0128691Y0205518D02*
X0128421Y0205518D01*
X0128421Y0203920D02*
X0128691Y0203920D01*
X0128691Y0202321D02*
X0128421Y0202321D01*
X0128421Y0200723D02*
X0128691Y0200723D01*
X0128691Y0199124D02*
X0128421Y0199124D01*
X0128421Y0197526D02*
X0128691Y0197526D01*
X0128691Y0195927D02*
X0128421Y0195927D01*
X0132023Y0195927D02*
X0135372Y0195927D01*
X0134355Y0197526D02*
X0132966Y0197526D01*
X0133226Y0199124D02*
X0134086Y0199124D01*
X0134086Y0200723D02*
X0133226Y0200723D01*
X0133223Y0202321D02*
X0134086Y0202321D01*
X0134540Y0203920D02*
X0132786Y0203920D01*
X0131614Y0205518D02*
X0135781Y0205518D01*
X0134524Y0207117D02*
X0132805Y0207117D01*
X0133226Y0208715D02*
X0134086Y0208715D01*
X0134086Y0210314D02*
X0133226Y0210314D01*
X0133226Y0211912D02*
X0134086Y0211912D01*
X0134370Y0213511D02*
X0132954Y0213511D01*
X0131986Y0215109D02*
X0135409Y0215109D01*
X0098714Y0194329D02*
X0029856Y0194329D01*
X0029856Y0195927D02*
X0095372Y0195927D01*
X0094355Y0197526D02*
X0077244Y0197526D01*
X0079474Y0199124D02*
X0094086Y0199124D01*
X0094086Y0200723D02*
X0080975Y0200723D01*
X0081898Y0202321D02*
X0094086Y0202321D01*
X0094540Y0203920D02*
X0082558Y0203920D01*
X0082986Y0205518D02*
X0095781Y0205518D01*
X0094524Y0207117D02*
X0083100Y0207117D01*
X0083100Y0208715D02*
X0094086Y0208715D01*
X0094086Y0210314D02*
X0082726Y0210314D01*
X0082261Y0211912D02*
X0094086Y0211912D01*
X0094370Y0213511D02*
X0081338Y0213511D01*
X0080102Y0215109D02*
X0095409Y0215109D01*
X0066356Y0197526D02*
X0029856Y0197526D01*
X0029856Y0199124D02*
X0064126Y0199124D01*
X0062625Y0200723D02*
X0029856Y0200723D01*
X0029856Y0202321D02*
X0061702Y0202321D01*
X0061042Y0203920D02*
X0029856Y0203920D01*
X0029856Y0205518D02*
X0060614Y0205518D01*
X0060500Y0207117D02*
X0029856Y0207117D01*
X0029856Y0208715D02*
X0060500Y0208715D01*
X0060874Y0210314D02*
X0029856Y0210314D01*
X0029856Y0211912D02*
X0061339Y0211912D01*
X0062262Y0213511D02*
X0029856Y0213511D01*
X0029856Y0215109D02*
X0063498Y0215109D01*
X0095785Y0191132D02*
X0029856Y0191132D01*
X0029856Y0192730D02*
X0097250Y0192730D01*
X0094320Y0189533D02*
X0029856Y0189533D01*
X0029856Y0187935D02*
X0092821Y0187935D01*
X0091222Y0186336D02*
X0029856Y0186336D01*
X0029856Y0184738D02*
X0089624Y0184738D01*
X0073580Y0176745D02*
X0071191Y0176745D01*
X0072200Y0178344D02*
X0069592Y0178344D01*
X0128356Y0171466D02*
X0128356Y0142770D01*
X0130482Y0140643D01*
X0132797Y0140643D01*
X0133454Y0139987D01*
X0134110Y0140643D01*
X0137797Y0140643D01*
X0138454Y0139987D01*
X0139110Y0140643D01*
X0142797Y0140643D01*
X0143454Y0139987D01*
X0144110Y0140643D01*
X0147797Y0140643D01*
X0148454Y0139987D01*
X0149110Y0140643D01*
X0152797Y0140643D01*
X0152956Y0140485D01*
X0152956Y0154860D01*
X0152708Y0154261D01*
X0151695Y0153248D01*
X0150372Y0152700D01*
X0148940Y0152700D01*
X0147617Y0153248D01*
X0146604Y0154261D01*
X0146056Y0155584D01*
X0146056Y0156930D01*
X0136317Y0166670D01*
X0135495Y0165848D01*
X0134172Y0165300D01*
X0132740Y0165300D01*
X0131417Y0165848D01*
X0130404Y0166861D01*
X0129856Y0168184D01*
X0129856Y0169616D01*
X0130391Y0170908D01*
X0129110Y0170908D01*
X0128454Y0171564D01*
X0128356Y0171466D01*
X0128356Y0170351D02*
X0130160Y0170351D01*
X0129856Y0168753D02*
X0128356Y0168753D01*
X0128356Y0167154D02*
X0130282Y0167154D01*
X0132123Y0165556D02*
X0128356Y0165556D01*
X0128356Y0163957D02*
X0139029Y0163957D01*
X0140627Y0162359D02*
X0128356Y0162359D01*
X0128356Y0160760D02*
X0142226Y0160760D01*
X0143825Y0159162D02*
X0128356Y0159162D01*
X0128356Y0157563D02*
X0145423Y0157563D01*
X0146056Y0155965D02*
X0128356Y0155965D01*
X0128356Y0154366D02*
X0146560Y0154366D01*
X0148777Y0152768D02*
X0128356Y0152768D01*
X0128356Y0151169D02*
X0152956Y0151169D01*
X0152956Y0152768D02*
X0150535Y0152768D01*
X0152751Y0154366D02*
X0152956Y0154366D01*
X0157156Y0154366D02*
X0164656Y0154366D01*
X0164656Y0152768D02*
X0157156Y0152768D01*
X0157156Y0151169D02*
X0164656Y0151169D01*
X0164656Y0149570D02*
X0157156Y0149570D01*
X0157156Y0147972D02*
X0164656Y0147972D01*
X0164656Y0146373D02*
X0157156Y0146373D01*
X0157156Y0144775D02*
X0164656Y0144775D01*
X0164656Y0143176D02*
X0157156Y0143176D01*
X0157156Y0141578D02*
X0164656Y0141578D01*
X0164656Y0140643D02*
X0164110Y0140643D01*
X0163454Y0139987D01*
X0162797Y0140643D01*
X0159110Y0140643D01*
X0158454Y0139987D01*
X0157797Y0140643D01*
X0157156Y0140643D01*
X0157156Y0157170D01*
X0155926Y0158400D01*
X0155926Y0158400D01*
X0143249Y0171077D01*
X0143454Y0171281D01*
X0143667Y0171068D01*
X0144078Y0170831D01*
X0144535Y0170708D01*
X0145953Y0170708D01*
X0145953Y0175460D01*
X0145953Y0175461D02*
X0140954Y0175461D01*
X0143935Y0175461D01*
X0145953Y0175461D01*
X0145953Y0175461D01*
X0145953Y0180213D01*
X0144535Y0180213D01*
X0144078Y0180091D01*
X0143667Y0179854D01*
X0143454Y0179640D01*
X0143240Y0179854D01*
X0142829Y0180091D01*
X0142372Y0180213D01*
X0140954Y0180213D01*
X0140954Y0175461D01*
X0140954Y0175461D01*
X0140953Y0175461D01*
X0140953Y0180213D01*
X0139535Y0180213D01*
X0139078Y0180091D01*
X0138667Y0179854D01*
X0138332Y0179519D01*
X0138317Y0179493D01*
X0137797Y0180013D01*
X0134482Y0180013D01*
X0135918Y0184799D01*
X0150793Y0184799D01*
X0152169Y0180213D01*
X0150954Y0180213D01*
X0150954Y0175461D01*
X0150953Y0175461D01*
X0150953Y0175461D01*
X0148935Y0175461D01*
X0145954Y0175461D01*
X0145954Y0175461D01*
X0145953Y0175461D01*
X0145954Y0175461D02*
X0145954Y0180213D01*
X0147372Y0180213D01*
X0147829Y0180091D01*
X0148240Y0179854D01*
X0148454Y0179640D01*
X0148667Y0179854D01*
X0149078Y0180091D01*
X0149535Y0180213D01*
X0150953Y0180213D01*
X0150953Y0175461D01*
X0145954Y0175461D01*
X0145954Y0175460D02*
X0145954Y0170708D01*
X0147372Y0170708D01*
X0147829Y0170831D01*
X0148240Y0171068D01*
X0148454Y0171281D01*
X0148667Y0171068D01*
X0149078Y0170831D01*
X0149535Y0170708D01*
X0150953Y0170708D01*
X0150953Y0175460D01*
X0150954Y0175460D01*
X0150954Y0170708D01*
X0152372Y0170708D01*
X0152829Y0170831D01*
X0153240Y0171068D01*
X0153575Y0171403D01*
X0153590Y0171428D01*
X0154110Y0170908D01*
X0157797Y0170908D01*
X0158454Y0171564D01*
X0159110Y0170908D01*
X0161022Y0170908D01*
X0166442Y0166200D01*
X0166040Y0166200D01*
X0164717Y0165652D01*
X0163704Y0164639D01*
X0163156Y0163316D01*
X0163156Y0161884D01*
X0163704Y0160561D01*
X0164656Y0159609D01*
X0164656Y0140643D01*
X0168856Y0139979D02*
X0177990Y0139979D01*
X0176542Y0138381D02*
X0168856Y0138381D01*
X0168856Y0137005D02*
X0168856Y0159609D01*
X0169808Y0160561D01*
X0170356Y0161884D01*
X0170356Y0163316D01*
X0170292Y0163471D01*
X0170441Y0163482D01*
X0209017Y0163901D01*
X0209017Y0162304D01*
X0211478Y0159843D01*
X0212329Y0159843D01*
X0201886Y0149400D01*
X0190731Y0149400D01*
X0191056Y0150184D01*
X0191056Y0151616D01*
X0190508Y0152939D01*
X0189862Y0153585D01*
X0190179Y0153585D01*
X0190556Y0153962D01*
X0190774Y0153745D01*
X0191184Y0153508D01*
X0191642Y0153385D01*
X0193958Y0153385D01*
X0193958Y0157658D01*
X0194917Y0157658D01*
X0194917Y0153385D01*
X0197234Y0153385D01*
X0197692Y0153508D01*
X0198102Y0153745D01*
X0198437Y0154080D01*
X0198674Y0154490D01*
X0198797Y0154948D01*
X0198797Y0157658D01*
X0194917Y0157658D01*
X0194917Y0158617D01*
X0193958Y0158617D01*
X0193958Y0162891D01*
X0191642Y0162891D01*
X0191184Y0162768D01*
X0190774Y0162531D01*
X0190556Y0162314D01*
X0190179Y0162691D01*
X0183736Y0162691D01*
X0182798Y0161753D01*
X0182798Y0154522D01*
X0183736Y0153585D01*
X0185050Y0153585D01*
X0184404Y0152939D01*
X0183856Y0151616D01*
X0183856Y0150184D01*
X0184404Y0148861D01*
X0185260Y0148004D01*
X0167569Y0128476D01*
X0158888Y0128476D01*
X0158874Y0128489D01*
X0158021Y0128476D01*
X0157168Y0128476D01*
X0157154Y0128462D01*
X0150936Y0128361D01*
X0150901Y0128392D01*
X0150072Y0128347D01*
X0149563Y0128339D01*
X0151016Y0131538D01*
X0152797Y0131538D01*
X0153454Y0132194D01*
X0154110Y0131538D01*
X0157797Y0131538D01*
X0158454Y0132194D01*
X0159110Y0131538D01*
X0162797Y0131538D01*
X0163454Y0132194D01*
X0164110Y0131538D01*
X0167797Y0131538D01*
X0168735Y0132475D01*
X0168735Y0135509D01*
X0168856Y0135630D01*
X0168856Y0136168D01*
X0169022Y0136680D01*
X0168856Y0137005D01*
X0168969Y0136782D02*
X0175094Y0136782D01*
X0173646Y0135184D02*
X0168735Y0135184D01*
X0168735Y0133585D02*
X0172198Y0133585D01*
X0170750Y0131987D02*
X0168246Y0131987D01*
X0169302Y0130388D02*
X0150494Y0130388D01*
X0149768Y0128790D02*
X0167854Y0128790D01*
X0170624Y0125593D02*
X0172756Y0125593D01*
X0172756Y0125091D02*
X0172756Y0126150D01*
X0172584Y0126533D01*
X0172756Y0126986D01*
X0172756Y0127470D01*
X0172848Y0127562D01*
X0172848Y0128047D01*
X0170600Y0125566D01*
X0170600Y0125506D01*
X0170022Y0124927D01*
X0169472Y0124321D01*
X0169412Y0124318D01*
X0169370Y0124276D01*
X0168552Y0124276D01*
X0167735Y0124235D01*
X0167690Y0124276D01*
X0158055Y0124276D01*
X0151098Y0124163D01*
X0149810Y0122728D01*
X0149966Y0117264D01*
X0150204Y0117839D01*
X0151217Y0118852D01*
X0152540Y0119400D01*
X0153972Y0119400D01*
X0155295Y0118852D01*
X0156247Y0117900D01*
X0182986Y0117900D01*
X0188642Y0123556D01*
X0186713Y0123556D01*
X0186579Y0123478D01*
X0186121Y0123356D01*
X0185284Y0123356D01*
X0185284Y0127105D01*
X0185284Y0127105D01*
X0185284Y0123356D01*
X0184447Y0123356D01*
X0183989Y0123478D01*
X0183856Y0123556D01*
X0183550Y0123556D01*
X0183856Y0122816D01*
X0183856Y0121384D01*
X0183308Y0120061D01*
X0182295Y0119048D01*
X0180972Y0118500D01*
X0179540Y0118500D01*
X0178217Y0119048D01*
X0177556Y0119709D01*
X0176895Y0119048D01*
X0175572Y0118500D01*
X0174140Y0118500D01*
X0172817Y0119048D01*
X0171804Y0120061D01*
X0171256Y0121384D01*
X0171256Y0122816D01*
X0171804Y0124139D01*
X0172756Y0125091D01*
X0171744Y0123994D02*
X0150946Y0123994D01*
X0149820Y0122396D02*
X0171256Y0122396D01*
X0171499Y0120797D02*
X0149865Y0120797D01*
X0149911Y0119199D02*
X0152054Y0119199D01*
X0154458Y0119199D02*
X0172666Y0119199D01*
X0177046Y0119199D02*
X0178066Y0119199D01*
X0182446Y0119199D02*
X0184285Y0119199D01*
X0183613Y0120797D02*
X0185883Y0120797D01*
X0187482Y0122396D02*
X0183856Y0122396D01*
X0185284Y0123994D02*
X0185284Y0123994D01*
X0185284Y0125593D02*
X0185284Y0125593D01*
X0172756Y0127191D02*
X0172073Y0127191D01*
X0163661Y0131987D02*
X0163246Y0131987D01*
X0158661Y0131987D02*
X0158246Y0131987D01*
X0153661Y0131987D02*
X0153246Y0131987D01*
X0152956Y0141578D02*
X0129548Y0141578D01*
X0128356Y0143176D02*
X0152956Y0143176D01*
X0152956Y0144775D02*
X0128356Y0144775D01*
X0128356Y0146373D02*
X0152956Y0146373D01*
X0152956Y0147972D02*
X0128356Y0147972D01*
X0128356Y0149570D02*
X0152956Y0149570D01*
X0157156Y0155965D02*
X0164656Y0155965D01*
X0164656Y0157563D02*
X0156763Y0157563D01*
X0155164Y0159162D02*
X0164656Y0159162D01*
X0163621Y0160760D02*
X0153566Y0160760D01*
X0151967Y0162359D02*
X0163156Y0162359D01*
X0163421Y0163957D02*
X0150369Y0163957D01*
X0148770Y0165556D02*
X0164620Y0165556D01*
X0165343Y0167154D02*
X0147172Y0167154D01*
X0145573Y0168753D02*
X0163503Y0168753D01*
X0161663Y0170351D02*
X0143975Y0170351D01*
X0145953Y0171950D02*
X0145954Y0171950D01*
X0145953Y0173548D02*
X0145954Y0173548D01*
X0145953Y0175147D02*
X0145954Y0175147D01*
X0145953Y0175460D02*
X0145954Y0175460D01*
X0145953Y0176745D02*
X0145954Y0176745D01*
X0145953Y0178344D02*
X0145954Y0178344D01*
X0145953Y0179942D02*
X0145954Y0179942D01*
X0148087Y0179942D02*
X0148820Y0179942D01*
X0150953Y0179942D02*
X0150954Y0179942D01*
X0150953Y0178344D02*
X0150954Y0178344D01*
X0150953Y0176745D02*
X0150954Y0176745D01*
X0150953Y0175147D02*
X0150954Y0175147D01*
X0150953Y0173548D02*
X0150954Y0173548D01*
X0150953Y0171950D02*
X0150954Y0171950D01*
X0140954Y0176745D02*
X0140953Y0176745D01*
X0140953Y0178344D02*
X0140954Y0178344D01*
X0140953Y0179942D02*
X0140954Y0179942D01*
X0143087Y0179942D02*
X0143820Y0179942D01*
X0138820Y0179942D02*
X0137869Y0179942D01*
X0134941Y0181541D02*
X0151771Y0181541D01*
X0151292Y0183139D02*
X0135420Y0183139D01*
X0135900Y0184738D02*
X0150812Y0184738D01*
X0168735Y0174000D02*
X0168735Y0171845D01*
X0167797Y0170908D01*
X0167426Y0170908D01*
X0171131Y0167690D01*
X0211361Y0168127D01*
X0211478Y0168243D01*
X0214957Y0168243D01*
X0217417Y0165783D01*
X0217417Y0164931D01*
X0230356Y0177870D01*
X0230356Y0197524D01*
X0230086Y0198176D01*
X0230086Y0202824D01*
X0230766Y0204467D01*
X0231799Y0205500D01*
X0230766Y0206533D01*
X0230086Y0208176D01*
X0230086Y0212824D01*
X0230766Y0214467D01*
X0231499Y0215200D01*
X0227613Y0215200D01*
X0228345Y0214467D01*
X0229026Y0212824D01*
X0229026Y0208176D01*
X0228345Y0206533D01*
X0227356Y0205543D01*
X0227356Y0205457D01*
X0228345Y0204467D01*
X0229026Y0202824D01*
X0229026Y0198176D01*
X0228345Y0196533D01*
X0227088Y0195275D01*
X0225445Y0194595D01*
X0223667Y0194595D01*
X0222149Y0195223D01*
X0212656Y0185730D01*
X0212656Y0184384D01*
X0212108Y0183061D01*
X0211095Y0182048D01*
X0209772Y0181500D01*
X0208340Y0181500D01*
X0207017Y0182048D01*
X0206004Y0183061D01*
X0205456Y0184384D01*
X0205456Y0185816D01*
X0206004Y0187139D01*
X0207017Y0188152D01*
X0208340Y0188700D01*
X0209686Y0188700D01*
X0215677Y0194691D01*
X0215445Y0194595D01*
X0213667Y0194595D01*
X0212220Y0195194D01*
X0191026Y0174000D01*
X0168735Y0174000D01*
X0168735Y0173548D02*
X0226034Y0173548D01*
X0224436Y0171950D02*
X0168735Y0171950D01*
X0168067Y0170351D02*
X0222837Y0170351D01*
X0221239Y0168753D02*
X0169907Y0168753D01*
X0170356Y0162359D02*
X0183404Y0162359D01*
X0182798Y0160760D02*
X0169890Y0160760D01*
X0168856Y0159162D02*
X0182798Y0159162D01*
X0182798Y0157563D02*
X0168856Y0157563D01*
X0168856Y0155965D02*
X0182798Y0155965D01*
X0182955Y0154366D02*
X0168856Y0154366D01*
X0168856Y0152768D02*
X0184333Y0152768D01*
X0183856Y0151169D02*
X0168856Y0151169D01*
X0168856Y0149570D02*
X0184110Y0149570D01*
X0185231Y0147972D02*
X0168856Y0147972D01*
X0168856Y0146373D02*
X0183783Y0146373D01*
X0182335Y0144775D02*
X0168856Y0144775D01*
X0168856Y0143176D02*
X0180887Y0143176D01*
X0179439Y0141578D02*
X0168856Y0141578D01*
X0188114Y0144898D02*
X0188387Y0145200D01*
X0203626Y0145200D01*
X0233326Y0174900D01*
X0234556Y0176130D01*
X0234556Y0187225D01*
X0235340Y0186900D01*
X0236772Y0186900D01*
X0238095Y0187448D01*
X0239108Y0188461D01*
X0239656Y0189784D01*
X0239656Y0191216D01*
X0239154Y0192428D01*
X0242012Y0195287D01*
X0242024Y0195275D01*
X0243667Y0194595D01*
X0245445Y0194595D01*
X0247088Y0195275D01*
X0248345Y0196533D01*
X0249026Y0198176D01*
X0249026Y0202824D01*
X0248345Y0204467D01*
X0247313Y0205500D01*
X0248345Y0206533D01*
X0249026Y0208176D01*
X0249026Y0212824D01*
X0248345Y0214467D01*
X0247613Y0215200D01*
X0251499Y0215200D01*
X0250766Y0214467D01*
X0250086Y0212824D01*
X0250086Y0208176D01*
X0250766Y0206533D01*
X0251799Y0205500D01*
X0250766Y0204467D01*
X0250086Y0202824D01*
X0250086Y0198176D01*
X0250766Y0196533D01*
X0252024Y0195275D01*
X0253667Y0194595D01*
X0255445Y0194595D01*
X0257088Y0195275D01*
X0258345Y0196533D01*
X0259026Y0198176D01*
X0259026Y0202824D01*
X0258345Y0204467D01*
X0257313Y0205500D01*
X0258345Y0206533D01*
X0259026Y0208176D01*
X0259026Y0212824D01*
X0258345Y0214467D01*
X0257613Y0215200D01*
X0261499Y0215200D01*
X0260766Y0214467D01*
X0260086Y0212824D01*
X0260086Y0208176D01*
X0260766Y0206533D01*
X0261799Y0205500D01*
X0260766Y0204467D01*
X0260086Y0202824D01*
X0260086Y0198176D01*
X0260766Y0196533D01*
X0262024Y0195275D01*
X0263667Y0194595D01*
X0265445Y0194595D01*
X0267088Y0195275D01*
X0268345Y0196533D01*
X0269026Y0198176D01*
X0269026Y0202824D01*
X0268345Y0204467D01*
X0267313Y0205500D01*
X0268345Y0206533D01*
X0269026Y0208176D01*
X0269026Y0212824D01*
X0268345Y0214467D01*
X0267613Y0215200D01*
X0271499Y0215200D01*
X0270766Y0214467D01*
X0270086Y0212824D01*
X0270086Y0208176D01*
X0270766Y0206533D01*
X0271799Y0205500D01*
X0270766Y0204467D01*
X0270086Y0202824D01*
X0270086Y0198176D01*
X0270766Y0196533D01*
X0272024Y0195275D01*
X0273667Y0194595D01*
X0275445Y0194595D01*
X0277088Y0195275D01*
X0278345Y0196533D01*
X0279026Y0198176D01*
X0279026Y0202824D01*
X0278345Y0204467D01*
X0277313Y0205500D01*
X0278345Y0206533D01*
X0279026Y0208176D01*
X0279026Y0212535D01*
X0279256Y0212305D01*
X0279256Y0168446D01*
X0280063Y0166498D01*
X0281554Y0165007D01*
X0284961Y0161599D01*
X0283095Y0161599D01*
X0280272Y0160843D01*
X0277741Y0159382D01*
X0275674Y0157315D01*
X0274213Y0154784D01*
X0273457Y0151961D01*
X0273457Y0149039D01*
X0274213Y0146216D01*
X0275674Y0143685D01*
X0277741Y0141618D01*
X0280272Y0140157D01*
X0283095Y0139401D01*
X0286017Y0139401D01*
X0288840Y0140157D01*
X0289256Y0140397D01*
X0289256Y0132878D01*
X0286982Y0135151D01*
X0283575Y0135151D01*
X0274444Y0144282D01*
X0265239Y0153495D01*
X0265239Y0153496D01*
X0264623Y0154111D01*
X0264009Y0154726D01*
X0264008Y0154726D01*
X0263140Y0154726D01*
X0262270Y0154726D01*
X0262269Y0154726D01*
X0220283Y0154726D01*
X0220265Y0154743D01*
X0219416Y0154726D01*
X0218568Y0154726D01*
X0218550Y0154708D01*
X0218525Y0154708D01*
X0217938Y0154096D01*
X0217338Y0153496D01*
X0217338Y0153471D01*
X0209095Y0144884D01*
X0188114Y0144898D01*
X0190733Y0140697D02*
X0209144Y0140684D01*
X0209162Y0140666D01*
X0210010Y0140683D01*
X0210857Y0140683D01*
X0210876Y0140701D01*
X0210901Y0140702D01*
X0211489Y0141313D01*
X0212088Y0141912D01*
X0212088Y0141938D01*
X0220333Y0150526D01*
X0262268Y0150526D01*
X0270856Y0141931D01*
X0270856Y0141930D01*
X0271470Y0141316D01*
X0272085Y0140700D01*
X0272086Y0140700D01*
X0280405Y0132381D01*
X0280405Y0128573D01*
X0283129Y0125849D01*
X0286982Y0125849D01*
X0289256Y0128122D01*
X0289256Y0122878D01*
X0286982Y0125151D01*
X0283129Y0125151D01*
X0280405Y0122427D01*
X0280405Y0118573D01*
X0283129Y0115849D01*
X0286982Y0115849D01*
X0289256Y0118122D01*
X0289256Y0113161D01*
X0287065Y0115351D01*
X0285191Y0115351D01*
X0285191Y0110635D01*
X0284921Y0110635D01*
X0284921Y0115351D01*
X0283046Y0115351D01*
X0280205Y0112509D01*
X0280205Y0110635D01*
X0284921Y0110635D01*
X0284921Y0110365D01*
X0285191Y0110365D01*
X0285191Y0105649D01*
X0287065Y0105649D01*
X0289256Y0107839D01*
X0289256Y0050494D01*
X0288489Y0052345D01*
X0286086Y0054748D01*
X0282948Y0056048D01*
X0279550Y0056048D01*
X0277943Y0055382D01*
X0277943Y0058619D01*
X0277244Y0059319D01*
X0277943Y0060018D01*
X0277943Y0066493D01*
X0277244Y0067193D01*
X0277943Y0067892D01*
X0277943Y0074367D01*
X0277244Y0075067D01*
X0277943Y0075766D01*
X0277943Y0082241D01*
X0277006Y0083179D01*
X0270531Y0083179D01*
X0269594Y0082241D01*
X0269594Y0075766D01*
X0270293Y0075067D01*
X0269594Y0074367D01*
X0269594Y0067892D01*
X0270293Y0067193D01*
X0269594Y0066493D01*
X0269594Y0060018D01*
X0270293Y0059319D01*
X0269594Y0058619D01*
X0269594Y0052144D01*
X0270531Y0051207D01*
X0273537Y0051207D01*
X0272709Y0049207D01*
X0272709Y0045809D01*
X0274009Y0042670D01*
X0276411Y0040268D01*
X0279550Y0038968D01*
X0282948Y0038968D01*
X0286086Y0040268D01*
X0288489Y0042670D01*
X0289256Y0044522D01*
X0289256Y0032695D01*
X0281554Y0024993D01*
X0280063Y0023502D01*
X0279256Y0021554D01*
X0279256Y0015800D01*
X0277861Y0015800D01*
X0278456Y0016394D01*
X0279156Y0018085D01*
X0279156Y0022915D01*
X0278456Y0024606D01*
X0277561Y0025500D01*
X0278456Y0026394D01*
X0279156Y0028085D01*
X0279156Y0032915D01*
X0278456Y0034606D01*
X0277162Y0035900D01*
X0275471Y0036600D01*
X0273641Y0036600D01*
X0271950Y0035900D01*
X0270656Y0034606D01*
X0269956Y0032915D01*
X0269956Y0028085D01*
X0270656Y0026394D01*
X0271551Y0025500D01*
X0270656Y0024606D01*
X0269956Y0022915D01*
X0269956Y0018085D01*
X0270656Y0016394D01*
X0271251Y0015800D01*
X0267861Y0015800D01*
X0268456Y0016394D01*
X0269156Y0018085D01*
X0269156Y0022915D01*
X0268456Y0024606D01*
X0267561Y0025500D01*
X0268456Y0026394D01*
X0269156Y0028085D01*
X0269156Y0032915D01*
X0268456Y0034606D01*
X0267162Y0035900D01*
X0265471Y0036600D01*
X0263641Y0036600D01*
X0261950Y0035900D01*
X0260656Y0034606D01*
X0259956Y0032915D01*
X0259956Y0028085D01*
X0260656Y0026394D01*
X0261551Y0025500D01*
X0260656Y0024606D01*
X0259956Y0022915D01*
X0259956Y0018085D01*
X0260656Y0016394D01*
X0261251Y0015800D01*
X0257861Y0015800D01*
X0258456Y0016394D01*
X0259156Y0018085D01*
X0259156Y0022915D01*
X0258456Y0024606D01*
X0257561Y0025500D01*
X0258456Y0026394D01*
X0259156Y0028085D01*
X0259156Y0032915D01*
X0258456Y0034606D01*
X0257162Y0035900D01*
X0255471Y0036600D01*
X0253641Y0036600D01*
X0251950Y0035900D01*
X0250656Y0034606D01*
X0249956Y0032915D01*
X0249956Y0028085D01*
X0250656Y0026394D01*
X0251551Y0025500D01*
X0250656Y0024606D01*
X0249956Y0022915D01*
X0249956Y0018085D01*
X0250656Y0016394D01*
X0251251Y0015800D01*
X0247861Y0015800D01*
X0248456Y0016394D01*
X0249156Y0018085D01*
X0249156Y0022915D01*
X0248456Y0024606D01*
X0247561Y0025500D01*
X0248456Y0026394D01*
X0249156Y0028085D01*
X0249156Y0032915D01*
X0248456Y0034606D01*
X0247162Y0035900D01*
X0245471Y0036600D01*
X0243641Y0036600D01*
X0241950Y0035900D01*
X0240656Y0034606D01*
X0239956Y0032915D01*
X0239956Y0028085D01*
X0240656Y0026394D01*
X0241551Y0025500D01*
X0240656Y0024606D01*
X0239956Y0022915D01*
X0239956Y0018085D01*
X0240656Y0016394D01*
X0241251Y0015800D01*
X0237861Y0015800D01*
X0238456Y0016394D01*
X0239156Y0018085D01*
X0239156Y0022915D01*
X0238456Y0024606D01*
X0237561Y0025500D01*
X0238456Y0026394D01*
X0239156Y0028085D01*
X0239156Y0032915D01*
X0238456Y0034606D01*
X0237162Y0035900D01*
X0235471Y0036600D01*
X0233641Y0036600D01*
X0231950Y0035900D01*
X0230656Y0034606D01*
X0229956Y0032915D01*
X0229956Y0028085D01*
X0230656Y0026394D01*
X0231551Y0025500D01*
X0230656Y0024606D01*
X0229956Y0022915D01*
X0229956Y0018085D01*
X0230656Y0016394D01*
X0231251Y0015800D01*
X0227861Y0015800D01*
X0228456Y0016394D01*
X0229156Y0018085D01*
X0229156Y0022915D01*
X0228456Y0024606D01*
X0227561Y0025500D01*
X0228456Y0026394D01*
X0229156Y0028085D01*
X0229156Y0032915D01*
X0228456Y0034606D01*
X0227162Y0035900D01*
X0225471Y0036600D01*
X0223641Y0036600D01*
X0221950Y0035900D01*
X0220656Y0034606D01*
X0219956Y0032915D01*
X0219956Y0028085D01*
X0220656Y0026394D01*
X0221551Y0025500D01*
X0220656Y0024606D01*
X0219956Y0022915D01*
X0219956Y0018085D01*
X0220656Y0016394D01*
X0221251Y0015800D01*
X0207613Y0015800D01*
X0208345Y0016533D01*
X0209026Y0018176D01*
X0209026Y0022824D01*
X0208345Y0024467D01*
X0207313Y0025500D01*
X0208345Y0026533D01*
X0209026Y0028176D01*
X0209026Y0032824D01*
X0208345Y0034467D01*
X0208313Y0034500D01*
X0211726Y0034500D01*
X0212956Y0035730D01*
X0263356Y0086130D01*
X0263356Y0121170D01*
X0262126Y0122400D01*
X0252140Y0132386D01*
X0252140Y0140690D01*
X0251203Y0141628D01*
X0243578Y0141628D01*
X0242641Y0140690D01*
X0242641Y0137700D01*
X0235186Y0137700D01*
X0233443Y0135956D01*
X0233443Y0136005D01*
X0229563Y0136005D01*
X0229563Y0136964D01*
X0228604Y0136964D01*
X0228604Y0141237D01*
X0226287Y0141237D01*
X0225830Y0141114D01*
X0225419Y0140877D01*
X0225202Y0140660D01*
X0224825Y0141037D01*
X0218381Y0141037D01*
X0217444Y0140100D01*
X0217444Y0132869D01*
X0218381Y0131931D01*
X0219556Y0131931D01*
X0219556Y0124712D01*
X0218999Y0124155D01*
X0218999Y0118727D01*
X0198226Y0139500D01*
X0191056Y0139500D01*
X0191056Y0139916D01*
X0190733Y0140697D01*
X0191030Y0139979D02*
X0217444Y0139979D01*
X0217444Y0138381D02*
X0199345Y0138381D01*
X0200943Y0136782D02*
X0217444Y0136782D01*
X0217444Y0135184D02*
X0202542Y0135184D01*
X0204140Y0133585D02*
X0217444Y0133585D01*
X0218326Y0131987D02*
X0205739Y0131987D01*
X0207337Y0130388D02*
X0219556Y0130388D01*
X0219556Y0128790D02*
X0208936Y0128790D01*
X0210534Y0127191D02*
X0219556Y0127191D01*
X0219556Y0125593D02*
X0212133Y0125593D01*
X0213731Y0123994D02*
X0218999Y0123994D01*
X0218999Y0122396D02*
X0215330Y0122396D01*
X0216928Y0120797D02*
X0218999Y0120797D01*
X0218999Y0119199D02*
X0218527Y0119199D01*
X0237945Y0104820D02*
X0246826Y0113700D01*
X0252287Y0113700D01*
X0252287Y0113381D01*
X0252805Y0112862D01*
X0252287Y0112344D01*
X0252287Y0105900D01*
X0253224Y0104963D01*
X0254656Y0104963D01*
X0254656Y0103170D01*
X0238756Y0087270D01*
X0233267Y0092758D01*
X0233624Y0092758D01*
X0234144Y0093278D01*
X0234159Y0093253D01*
X0234494Y0092918D01*
X0234904Y0092681D01*
X0235362Y0092558D01*
X0236780Y0092558D01*
X0236780Y0098689D01*
X0236780Y0098689D01*
X0236780Y0092558D01*
X0238198Y0092558D01*
X0238656Y0092681D01*
X0239067Y0092918D01*
X0239402Y0093253D01*
X0239639Y0093663D01*
X0239761Y0094121D01*
X0239761Y0098689D01*
X0239761Y0103257D01*
X0239639Y0103714D01*
X0239402Y0104125D01*
X0239067Y0104460D01*
X0238656Y0104697D01*
X0238198Y0104820D01*
X0237945Y0104820D01*
X0238226Y0104812D02*
X0254656Y0104812D01*
X0254656Y0103214D02*
X0239761Y0103214D01*
X0239761Y0101615D02*
X0253101Y0101615D01*
X0251503Y0100017D02*
X0239761Y0100017D01*
X0239761Y0098689D02*
X0236780Y0098689D01*
X0236780Y0098689D01*
X0239761Y0098689D01*
X0239761Y0098418D02*
X0249904Y0098418D01*
X0248306Y0096820D02*
X0239761Y0096820D01*
X0239761Y0095221D02*
X0246707Y0095221D01*
X0245109Y0093623D02*
X0239615Y0093623D01*
X0236780Y0093623D02*
X0236780Y0093623D01*
X0236780Y0095221D02*
X0236780Y0095221D01*
X0236780Y0096820D02*
X0236780Y0096820D01*
X0236780Y0098418D02*
X0236780Y0098418D01*
X0234002Y0092024D02*
X0243510Y0092024D01*
X0241912Y0090426D02*
X0235600Y0090426D01*
X0237199Y0088827D02*
X0240313Y0088827D01*
X0244135Y0086709D02*
X0258856Y0101430D01*
X0258856Y0103170D01*
X0258856Y0104963D01*
X0259156Y0104963D01*
X0259156Y0087870D01*
X0251553Y0080267D01*
X0251553Y0080591D01*
X0247378Y0080591D01*
X0247378Y0076092D01*
X0209986Y0038700D01*
X0179386Y0038700D01*
X0176609Y0035923D01*
X0175445Y0036405D01*
X0174931Y0036405D01*
X0214426Y0075900D01*
X0215339Y0076813D01*
X0216951Y0076813D01*
X0217328Y0077190D01*
X0217545Y0076973D01*
X0217956Y0076736D01*
X0218413Y0076613D01*
X0220730Y0076613D01*
X0220730Y0080887D01*
X0221689Y0080887D01*
X0221689Y0081846D01*
X0220730Y0081846D01*
X0220730Y0086119D01*
X0218413Y0086119D01*
X0217956Y0085996D01*
X0217545Y0085759D01*
X0217328Y0085542D01*
X0216951Y0085919D01*
X0216556Y0085919D01*
X0216556Y0089730D01*
X0219760Y0092934D01*
X0219936Y0092758D01*
X0223624Y0092758D01*
X0224280Y0093414D01*
X0224936Y0092758D01*
X0227328Y0092758D01*
X0233577Y0086509D01*
X0231767Y0086509D01*
X0230830Y0085572D01*
X0230830Y0077160D01*
X0231767Y0076223D01*
X0239392Y0076223D01*
X0240329Y0077160D01*
X0240329Y0082903D01*
X0241654Y0084228D01*
X0241654Y0082141D01*
X0245828Y0082141D01*
X0245828Y0080591D01*
X0247378Y0080591D01*
X0247378Y0082141D01*
X0245828Y0082141D01*
X0245828Y0086709D01*
X0244135Y0086709D01*
X0244654Y0087229D02*
X0258515Y0087229D01*
X0259156Y0088827D02*
X0246253Y0088827D01*
X0247851Y0090426D02*
X0259156Y0090426D01*
X0259156Y0092024D02*
X0249450Y0092024D01*
X0251048Y0093623D02*
X0259156Y0093623D01*
X0259156Y0095221D02*
X0252647Y0095221D01*
X0254245Y0096820D02*
X0259156Y0096820D01*
X0259156Y0098418D02*
X0255844Y0098418D01*
X0257442Y0100017D02*
X0259156Y0100017D01*
X0259156Y0101615D02*
X0258856Y0101615D01*
X0258856Y0103214D02*
X0259156Y0103214D01*
X0259156Y0104812D02*
X0258856Y0104812D01*
X0263356Y0104812D02*
X0289256Y0104812D01*
X0289256Y0103214D02*
X0263356Y0103214D01*
X0263356Y0101615D02*
X0289256Y0101615D01*
X0289256Y0100017D02*
X0263356Y0100017D01*
X0263356Y0098418D02*
X0289256Y0098418D01*
X0289256Y0096820D02*
X0263356Y0096820D01*
X0263356Y0095221D02*
X0289256Y0095221D01*
X0289256Y0093623D02*
X0263356Y0093623D01*
X0263356Y0092024D02*
X0289256Y0092024D01*
X0289256Y0090426D02*
X0263356Y0090426D01*
X0263356Y0088827D02*
X0289256Y0088827D01*
X0289256Y0087229D02*
X0263356Y0087229D01*
X0262856Y0085630D02*
X0289256Y0085630D01*
X0289256Y0084032D02*
X0261257Y0084032D01*
X0259659Y0082433D02*
X0269785Y0082433D01*
X0269594Y0080834D02*
X0258060Y0080834D01*
X0256462Y0079236D02*
X0269594Y0079236D01*
X0269594Y0077637D02*
X0254863Y0077637D01*
X0253265Y0076039D02*
X0269594Y0076039D01*
X0269667Y0074440D02*
X0251666Y0074440D01*
X0250068Y0072842D02*
X0269594Y0072842D01*
X0269594Y0071243D02*
X0248469Y0071243D01*
X0246871Y0069645D02*
X0269594Y0069645D01*
X0269594Y0068046D02*
X0245272Y0068046D01*
X0243674Y0066448D02*
X0269594Y0066448D01*
X0269594Y0064849D02*
X0242075Y0064849D01*
X0240477Y0063251D02*
X0269594Y0063251D01*
X0269594Y0061652D02*
X0238878Y0061652D01*
X0237280Y0060054D02*
X0269594Y0060054D01*
X0269594Y0058455D02*
X0235681Y0058455D01*
X0234083Y0056857D02*
X0269594Y0056857D01*
X0269594Y0055258D02*
X0232484Y0055258D01*
X0230886Y0053660D02*
X0269594Y0053660D01*
X0269677Y0052061D02*
X0229287Y0052061D01*
X0227689Y0050463D02*
X0273229Y0050463D01*
X0272709Y0048864D02*
X0226090Y0048864D01*
X0224492Y0047266D02*
X0272709Y0047266D01*
X0272767Y0045667D02*
X0222893Y0045667D01*
X0221294Y0044069D02*
X0273430Y0044069D01*
X0274209Y0042470D02*
X0219696Y0042470D01*
X0218097Y0040872D02*
X0275807Y0040872D01*
X0278813Y0039273D02*
X0216499Y0039273D01*
X0214900Y0037675D02*
X0289256Y0037675D01*
X0289256Y0039273D02*
X0283685Y0039273D01*
X0286690Y0040872D02*
X0289256Y0040872D01*
X0289256Y0042470D02*
X0288289Y0042470D01*
X0289068Y0044069D02*
X0289256Y0044069D01*
X0289256Y0036076D02*
X0276735Y0036076D01*
X0278509Y0034478D02*
X0289256Y0034478D01*
X0289256Y0032879D02*
X0279156Y0032879D01*
X0279156Y0031281D02*
X0287841Y0031281D01*
X0286243Y0029682D02*
X0279156Y0029682D01*
X0279155Y0028084D02*
X0284644Y0028084D01*
X0283046Y0026485D02*
X0278493Y0026485D01*
X0278175Y0024887D02*
X0281447Y0024887D01*
X0279974Y0023288D02*
X0279001Y0023288D01*
X0279156Y0021690D02*
X0279312Y0021690D01*
X0279256Y0020091D02*
X0279156Y0020091D01*
X0279156Y0018493D02*
X0279256Y0018493D01*
X0279256Y0016894D02*
X0278663Y0016894D01*
X0270449Y0016894D02*
X0268663Y0016894D01*
X0269156Y0018493D02*
X0269956Y0018493D01*
X0269956Y0020091D02*
X0269156Y0020091D01*
X0269156Y0021690D02*
X0269956Y0021690D01*
X0270110Y0023288D02*
X0269001Y0023288D01*
X0268175Y0024887D02*
X0270937Y0024887D01*
X0270619Y0026485D02*
X0268493Y0026485D01*
X0269155Y0028084D02*
X0269956Y0028084D01*
X0269956Y0029682D02*
X0269156Y0029682D01*
X0269156Y0031281D02*
X0269956Y0031281D01*
X0269956Y0032879D02*
X0269156Y0032879D01*
X0268509Y0034478D02*
X0270603Y0034478D01*
X0272376Y0036076D02*
X0266735Y0036076D01*
X0262376Y0036076D02*
X0256735Y0036076D01*
X0258509Y0034478D02*
X0260603Y0034478D01*
X0259956Y0032879D02*
X0259156Y0032879D01*
X0259156Y0031281D02*
X0259956Y0031281D01*
X0259956Y0029682D02*
X0259156Y0029682D01*
X0259155Y0028084D02*
X0259956Y0028084D01*
X0260619Y0026485D02*
X0258493Y0026485D01*
X0258175Y0024887D02*
X0260937Y0024887D01*
X0260110Y0023288D02*
X0259001Y0023288D01*
X0259156Y0021690D02*
X0259956Y0021690D01*
X0259956Y0020091D02*
X0259156Y0020091D01*
X0259156Y0018493D02*
X0259956Y0018493D01*
X0260449Y0016894D02*
X0258663Y0016894D01*
X0250449Y0016894D02*
X0248663Y0016894D01*
X0249156Y0018493D02*
X0249956Y0018493D01*
X0249956Y0020091D02*
X0249156Y0020091D01*
X0249156Y0021690D02*
X0249956Y0021690D01*
X0250110Y0023288D02*
X0249001Y0023288D01*
X0248175Y0024887D02*
X0250937Y0024887D01*
X0250619Y0026485D02*
X0248493Y0026485D01*
X0249155Y0028084D02*
X0249956Y0028084D01*
X0249956Y0029682D02*
X0249156Y0029682D01*
X0249156Y0031281D02*
X0249956Y0031281D01*
X0249956Y0032879D02*
X0249156Y0032879D01*
X0248509Y0034478D02*
X0250603Y0034478D01*
X0252376Y0036076D02*
X0246735Y0036076D01*
X0242376Y0036076D02*
X0236735Y0036076D01*
X0238509Y0034478D02*
X0240603Y0034478D01*
X0239956Y0032879D02*
X0239156Y0032879D01*
X0239156Y0031281D02*
X0239956Y0031281D01*
X0239956Y0029682D02*
X0239156Y0029682D01*
X0239155Y0028084D02*
X0239956Y0028084D01*
X0240619Y0026485D02*
X0238493Y0026485D01*
X0238175Y0024887D02*
X0240937Y0024887D01*
X0240110Y0023288D02*
X0239001Y0023288D01*
X0239156Y0021690D02*
X0239956Y0021690D01*
X0239956Y0020091D02*
X0239156Y0020091D01*
X0239156Y0018493D02*
X0239956Y0018493D01*
X0240449Y0016894D02*
X0238663Y0016894D01*
X0230449Y0016894D02*
X0228663Y0016894D01*
X0229156Y0018493D02*
X0229956Y0018493D01*
X0229956Y0020091D02*
X0229156Y0020091D01*
X0229156Y0021690D02*
X0229956Y0021690D01*
X0230110Y0023288D02*
X0229001Y0023288D01*
X0228175Y0024887D02*
X0230937Y0024887D01*
X0230619Y0026485D02*
X0228493Y0026485D01*
X0229155Y0028084D02*
X0229956Y0028084D01*
X0229956Y0029682D02*
X0229156Y0029682D01*
X0229156Y0031281D02*
X0229956Y0031281D01*
X0229956Y0032879D02*
X0229156Y0032879D01*
X0228509Y0034478D02*
X0230603Y0034478D01*
X0232376Y0036076D02*
X0226735Y0036076D01*
X0222376Y0036076D02*
X0213302Y0036076D01*
X0210559Y0039273D02*
X0177799Y0039273D01*
X0178361Y0037675D02*
X0176200Y0037675D01*
X0176239Y0036076D02*
X0176762Y0036076D01*
X0179505Y0032879D02*
X0179977Y0032879D01*
X0180001Y0033029D02*
X0180168Y0033542D01*
X0179026Y0032400D01*
X0179026Y0028176D01*
X0178345Y0026533D01*
X0177313Y0025500D01*
X0178345Y0024467D01*
X0179026Y0022824D01*
X0179026Y0018176D01*
X0178345Y0016533D01*
X0177613Y0015800D01*
X0181216Y0015800D01*
X0180994Y0016023D01*
X0180562Y0016617D01*
X0180228Y0017272D01*
X0180001Y0017971D01*
X0179886Y0018697D01*
X0179886Y0020365D01*
X0184421Y0020365D01*
X0184421Y0020635D01*
X0184421Y0030365D01*
X0184691Y0030365D01*
X0184691Y0030635D01*
X0189226Y0030635D01*
X0189226Y0032303D01*
X0189111Y0033029D01*
X0188884Y0033728D01*
X0188550Y0034383D01*
X0188465Y0034500D01*
X0190647Y0034500D01*
X0190562Y0034383D01*
X0190228Y0033728D01*
X0190001Y0033029D01*
X0189886Y0032303D01*
X0189886Y0030635D01*
X0194421Y0030635D01*
X0194421Y0030365D01*
X0194691Y0030365D01*
X0194691Y0030635D01*
X0199226Y0030635D01*
X0199226Y0032303D01*
X0199111Y0033029D01*
X0198884Y0033728D01*
X0198550Y0034383D01*
X0198465Y0034500D01*
X0200799Y0034500D01*
X0200766Y0034467D01*
X0200086Y0032824D01*
X0200086Y0028176D01*
X0200766Y0026533D01*
X0201799Y0025500D01*
X0200766Y0024467D01*
X0200086Y0022824D01*
X0200086Y0018176D01*
X0200766Y0016533D01*
X0201499Y0015800D01*
X0197895Y0015800D01*
X0198118Y0016023D01*
X0198550Y0016617D01*
X0198884Y0017272D01*
X0199111Y0017971D01*
X0199226Y0018697D01*
X0199226Y0020365D01*
X0194691Y0020365D01*
X0194691Y0020635D01*
X0199226Y0020635D01*
X0199226Y0022303D01*
X0199111Y0023029D01*
X0198884Y0023728D01*
X0198550Y0024383D01*
X0198118Y0024977D01*
X0197598Y0025497D01*
X0197594Y0025500D01*
X0197598Y0025503D01*
X0198118Y0026023D01*
X0198550Y0026617D01*
X0198884Y0027272D01*
X0199111Y0027971D01*
X0199226Y0028697D01*
X0199226Y0030365D01*
X0194691Y0030365D01*
X0194691Y0024395D01*
X0194691Y0020635D01*
X0194421Y0020635D01*
X0194421Y0030365D01*
X0189886Y0030365D01*
X0189886Y0028697D01*
X0190001Y0027971D01*
X0190228Y0027272D01*
X0190562Y0026617D01*
X0190994Y0026023D01*
X0191514Y0025503D01*
X0191517Y0025500D01*
X0191514Y0025497D01*
X0190994Y0024977D01*
X0190562Y0024383D01*
X0190228Y0023728D01*
X0190001Y0023029D01*
X0189886Y0022303D01*
X0189886Y0020635D01*
X0194421Y0020635D01*
X0194421Y0020365D01*
X0189886Y0020365D01*
X0189886Y0018697D01*
X0190001Y0017971D01*
X0190228Y0017272D01*
X0190562Y0016617D01*
X0190994Y0016023D01*
X0191216Y0015800D01*
X0187895Y0015800D01*
X0188118Y0016023D01*
X0188550Y0016617D01*
X0188884Y0017272D01*
X0189111Y0017971D01*
X0189226Y0018697D01*
X0189226Y0020365D01*
X0184691Y0020365D01*
X0184691Y0020635D01*
X0189226Y0020635D01*
X0189226Y0022303D01*
X0189111Y0023029D01*
X0188884Y0023728D01*
X0188550Y0024383D01*
X0188118Y0024977D01*
X0187598Y0025497D01*
X0187594Y0025500D01*
X0187598Y0025503D01*
X0188118Y0026023D01*
X0188550Y0026617D01*
X0188884Y0027272D01*
X0189111Y0027971D01*
X0189226Y0028697D01*
X0189226Y0030365D01*
X0184691Y0030365D01*
X0184691Y0026605D01*
X0184691Y0020635D01*
X0184421Y0020635D01*
X0179886Y0020635D01*
X0179886Y0022303D01*
X0180001Y0023029D01*
X0180228Y0023728D01*
X0180562Y0024383D01*
X0180994Y0024977D01*
X0181514Y0025497D01*
X0181517Y0025500D01*
X0181514Y0025503D01*
X0180994Y0026023D01*
X0180562Y0026617D01*
X0180228Y0027272D01*
X0180001Y0027971D01*
X0179886Y0028697D01*
X0179886Y0030365D01*
X0184421Y0030365D01*
X0184421Y0030635D01*
X0179886Y0030635D01*
X0179886Y0032303D01*
X0180001Y0033029D01*
X0179886Y0031281D02*
X0179026Y0031281D01*
X0179026Y0029682D02*
X0179886Y0029682D01*
X0179983Y0028084D02*
X0178988Y0028084D01*
X0178298Y0026485D02*
X0180658Y0026485D01*
X0180928Y0024887D02*
X0177926Y0024887D01*
X0178834Y0023288D02*
X0180085Y0023288D01*
X0179886Y0021690D02*
X0179026Y0021690D01*
X0179026Y0020091D02*
X0179886Y0020091D01*
X0179918Y0018493D02*
X0179026Y0018493D01*
X0178495Y0016894D02*
X0180421Y0016894D01*
X0184421Y0021690D02*
X0184691Y0021690D01*
X0184691Y0023288D02*
X0184421Y0023288D01*
X0184421Y0024887D02*
X0184691Y0024887D01*
X0184691Y0026485D02*
X0184421Y0026485D01*
X0184421Y0028084D02*
X0184691Y0028084D01*
X0184691Y0029682D02*
X0184421Y0029682D01*
X0189226Y0029682D02*
X0189886Y0029682D01*
X0189886Y0031281D02*
X0189226Y0031281D01*
X0189135Y0032879D02*
X0189977Y0032879D01*
X0190631Y0034478D02*
X0188481Y0034478D01*
X0194421Y0029682D02*
X0194691Y0029682D01*
X0194691Y0028084D02*
X0194421Y0028084D01*
X0194421Y0026485D02*
X0194691Y0026485D01*
X0194691Y0024887D02*
X0194421Y0024887D01*
X0194421Y0023288D02*
X0194691Y0023288D01*
X0194691Y0021690D02*
X0194421Y0021690D01*
X0199226Y0021690D02*
X0200086Y0021690D01*
X0200086Y0020091D02*
X0199226Y0020091D01*
X0199194Y0018493D02*
X0200086Y0018493D01*
X0200617Y0016894D02*
X0198691Y0016894D01*
X0199027Y0023288D02*
X0200278Y0023288D01*
X0201186Y0024887D02*
X0198184Y0024887D01*
X0198454Y0026485D02*
X0200814Y0026485D01*
X0200124Y0028084D02*
X0199129Y0028084D01*
X0199226Y0029682D02*
X0200086Y0029682D01*
X0200086Y0031281D02*
X0199226Y0031281D01*
X0199135Y0032879D02*
X0200109Y0032879D01*
X0200777Y0034478D02*
X0198481Y0034478D01*
X0208335Y0034478D02*
X0220603Y0034478D01*
X0219956Y0032879D02*
X0209003Y0032879D01*
X0209026Y0031281D02*
X0219956Y0031281D01*
X0219956Y0029682D02*
X0209026Y0029682D01*
X0208988Y0028084D02*
X0219956Y0028084D01*
X0220619Y0026485D02*
X0208298Y0026485D01*
X0207926Y0024887D02*
X0220937Y0024887D01*
X0220110Y0023288D02*
X0208834Y0023288D01*
X0209026Y0021690D02*
X0219956Y0021690D01*
X0219956Y0020091D02*
X0209026Y0020091D01*
X0209026Y0018493D02*
X0219956Y0018493D01*
X0220449Y0016894D02*
X0208495Y0016894D01*
X0190421Y0016894D02*
X0188691Y0016894D01*
X0189194Y0018493D02*
X0189918Y0018493D01*
X0189886Y0020091D02*
X0189226Y0020091D01*
X0189226Y0021690D02*
X0189886Y0021690D01*
X0190085Y0023288D02*
X0189027Y0023288D01*
X0188184Y0024887D02*
X0190928Y0024887D01*
X0190658Y0026485D02*
X0188454Y0026485D01*
X0189129Y0028084D02*
X0189983Y0028084D01*
X0179397Y0040872D02*
X0212158Y0040872D01*
X0213756Y0042470D02*
X0180996Y0042470D01*
X0182594Y0044069D02*
X0215355Y0044069D01*
X0216953Y0045667D02*
X0184193Y0045667D01*
X0185791Y0047266D02*
X0218552Y0047266D01*
X0220150Y0048864D02*
X0187390Y0048864D01*
X0188989Y0050463D02*
X0221749Y0050463D01*
X0223347Y0052061D02*
X0190587Y0052061D01*
X0192186Y0053660D02*
X0224946Y0053660D01*
X0226544Y0055258D02*
X0193784Y0055258D01*
X0195383Y0056857D02*
X0228143Y0056857D01*
X0229741Y0058455D02*
X0196981Y0058455D01*
X0198580Y0060054D02*
X0231340Y0060054D01*
X0232938Y0061652D02*
X0200178Y0061652D01*
X0201777Y0063251D02*
X0234537Y0063251D01*
X0236135Y0064849D02*
X0203375Y0064849D01*
X0204974Y0066448D02*
X0237734Y0066448D01*
X0239332Y0068046D02*
X0206572Y0068046D01*
X0208171Y0069645D02*
X0240931Y0069645D01*
X0242529Y0071243D02*
X0209769Y0071243D01*
X0211368Y0072842D02*
X0244128Y0072842D01*
X0245727Y0074440D02*
X0212966Y0074440D01*
X0214565Y0076039D02*
X0243156Y0076039D01*
X0243217Y0076023D02*
X0245828Y0076023D01*
X0245828Y0080591D01*
X0241654Y0080591D01*
X0241654Y0077586D01*
X0241776Y0077128D01*
X0242013Y0076718D01*
X0242348Y0076382D01*
X0242759Y0076145D01*
X0243217Y0076023D01*
X0241654Y0077637D02*
X0240329Y0077637D01*
X0240329Y0079236D02*
X0241654Y0079236D01*
X0240329Y0080834D02*
X0245828Y0080834D01*
X0247378Y0080834D02*
X0252121Y0080834D01*
X0251553Y0082141D02*
X0251553Y0085146D01*
X0251430Y0085604D01*
X0251193Y0086015D01*
X0250858Y0086350D01*
X0250448Y0086587D01*
X0249990Y0086709D01*
X0247378Y0086709D01*
X0247378Y0082141D01*
X0251553Y0082141D01*
X0251553Y0082433D02*
X0253719Y0082433D01*
X0255318Y0084032D02*
X0251553Y0084032D01*
X0251415Y0085630D02*
X0256916Y0085630D01*
X0247378Y0085630D02*
X0245828Y0085630D01*
X0245828Y0084032D02*
X0247378Y0084032D01*
X0247378Y0082433D02*
X0245828Y0082433D01*
X0245828Y0079236D02*
X0247378Y0079236D01*
X0247378Y0077637D02*
X0245828Y0077637D01*
X0245828Y0076039D02*
X0247325Y0076039D01*
X0241654Y0082433D02*
X0240329Y0082433D01*
X0241457Y0084032D02*
X0241654Y0084032D01*
X0232858Y0087229D02*
X0216556Y0087229D01*
X0216556Y0088827D02*
X0231259Y0088827D01*
X0229660Y0090426D02*
X0217251Y0090426D01*
X0218850Y0092024D02*
X0228062Y0092024D01*
X0230888Y0085630D02*
X0225003Y0085630D01*
X0224874Y0085759D02*
X0224463Y0085996D01*
X0224005Y0086119D01*
X0221689Y0086119D01*
X0221689Y0081846D01*
X0225568Y0081846D01*
X0225568Y0084556D01*
X0225446Y0085014D01*
X0225209Y0085424D01*
X0224874Y0085759D01*
X0225568Y0084032D02*
X0230830Y0084032D01*
X0230830Y0082433D02*
X0225568Y0082433D01*
X0225568Y0080887D02*
X0221689Y0080887D01*
X0221689Y0076613D01*
X0224005Y0076613D01*
X0224463Y0076736D01*
X0224874Y0076973D01*
X0225209Y0077308D01*
X0225446Y0077719D01*
X0225568Y0078176D01*
X0225568Y0080887D01*
X0225568Y0080834D02*
X0230830Y0080834D01*
X0230830Y0079236D02*
X0225568Y0079236D01*
X0225399Y0077637D02*
X0230830Y0077637D01*
X0221689Y0077637D02*
X0220730Y0077637D01*
X0220730Y0079236D02*
X0221689Y0079236D01*
X0221689Y0080834D02*
X0220730Y0080834D01*
X0220730Y0082433D02*
X0221689Y0082433D01*
X0221689Y0084032D02*
X0220730Y0084032D01*
X0220730Y0085630D02*
X0221689Y0085630D01*
X0217416Y0085630D02*
X0217240Y0085630D01*
X0188984Y0076911D02*
X0188117Y0076552D01*
X0187104Y0075539D01*
X0186556Y0074216D01*
X0186556Y0072870D01*
X0174723Y0061037D01*
X0174308Y0062039D01*
X0173295Y0063052D01*
X0171972Y0063600D01*
X0170626Y0063600D01*
X0162976Y0071250D01*
X0164624Y0072898D01*
X0165235Y0073482D01*
X0165236Y0073510D01*
X0165256Y0073530D01*
X0165256Y0074376D01*
X0165597Y0089183D01*
X0174133Y0080647D01*
X0174701Y0080038D01*
X0174743Y0080036D01*
X0174773Y0080006D01*
X0175607Y0080006D01*
X0186086Y0079641D01*
X0188984Y0076911D01*
X0188213Y0077637D02*
X0165331Y0077637D01*
X0165294Y0076039D02*
X0187604Y0076039D01*
X0186649Y0074440D02*
X0165257Y0074440D01*
X0164568Y0072842D02*
X0186528Y0072842D01*
X0184930Y0071243D02*
X0162982Y0071243D01*
X0164581Y0069645D02*
X0183331Y0069645D01*
X0181732Y0068046D02*
X0166179Y0068046D01*
X0167778Y0066448D02*
X0180134Y0066448D01*
X0178535Y0064849D02*
X0169376Y0064849D01*
X0172815Y0063251D02*
X0176937Y0063251D01*
X0175338Y0061652D02*
X0174468Y0061652D01*
X0154124Y0057980D02*
X0153468Y0057324D01*
X0153468Y0056700D01*
X0148786Y0056700D01*
X0147556Y0055470D01*
X0145186Y0053100D01*
X0122667Y0053100D01*
X0123203Y0053636D01*
X0123203Y0057324D01*
X0122547Y0057980D01*
X0123203Y0058636D01*
X0123203Y0058800D01*
X0128665Y0058800D01*
X0129617Y0057848D01*
X0130940Y0057300D01*
X0132372Y0057300D01*
X0133695Y0057848D01*
X0134708Y0058861D01*
X0135256Y0060184D01*
X0135256Y0061616D01*
X0134708Y0062939D01*
X0133695Y0063952D01*
X0132372Y0064500D01*
X0130940Y0064500D01*
X0129617Y0063952D01*
X0128665Y0063000D01*
X0122849Y0063000D01*
X0123044Y0063194D01*
X0123280Y0063604D01*
X0123403Y0064062D01*
X0123403Y0065480D01*
X0118651Y0065480D01*
X0118651Y0065480D01*
X0123403Y0065480D01*
X0123403Y0066898D01*
X0123280Y0067356D01*
X0123044Y0067767D01*
X0122830Y0067980D01*
X0123044Y0068194D01*
X0123280Y0068604D01*
X0123403Y0069062D01*
X0123403Y0070480D01*
X0118651Y0070480D01*
X0118651Y0070480D01*
X0118650Y0070480D02*
X0118650Y0065480D01*
X0118650Y0068461D01*
X0118650Y0070480D01*
X0118650Y0070480D01*
X0118651Y0070480D02*
X0123403Y0070480D01*
X0123403Y0071898D01*
X0123280Y0072356D01*
X0123044Y0072767D01*
X0122708Y0073102D01*
X0122683Y0073116D01*
X0123203Y0073636D01*
X0123203Y0073722D01*
X0123740Y0073500D01*
X0125172Y0073500D01*
X0126495Y0074048D01*
X0127508Y0075061D01*
X0128056Y0076384D01*
X0128056Y0077816D01*
X0127508Y0079139D01*
X0126495Y0080152D01*
X0125172Y0080700D01*
X0123740Y0080700D01*
X0123203Y0080478D01*
X0123203Y0082324D01*
X0122547Y0082980D01*
X0123203Y0083636D01*
X0123203Y0087083D01*
X0123586Y0086700D01*
X0151486Y0058800D01*
X0153226Y0058800D01*
X0153468Y0058800D01*
X0153468Y0058636D01*
X0154124Y0057980D01*
X0153649Y0058455D02*
X0134302Y0058455D01*
X0135202Y0060054D02*
X0150232Y0060054D01*
X0148634Y0061652D02*
X0135241Y0061652D01*
X0134396Y0063251D02*
X0147035Y0063251D01*
X0145437Y0064849D02*
X0123403Y0064849D01*
X0123403Y0066448D02*
X0143838Y0066448D01*
X0142240Y0068046D02*
X0122896Y0068046D01*
X0123403Y0069645D02*
X0140641Y0069645D01*
X0139043Y0071243D02*
X0123403Y0071243D01*
X0122968Y0072842D02*
X0137444Y0072842D01*
X0135846Y0074440D02*
X0126888Y0074440D01*
X0127913Y0076039D02*
X0134247Y0076039D01*
X0132649Y0077637D02*
X0128056Y0077637D01*
X0127411Y0079236D02*
X0131050Y0079236D01*
X0129452Y0080834D02*
X0123203Y0080834D01*
X0123094Y0082433D02*
X0127853Y0082433D01*
X0126255Y0084032D02*
X0123203Y0084032D01*
X0123203Y0085630D02*
X0124656Y0085630D01*
X0113856Y0085630D02*
X0083756Y0085630D01*
X0085354Y0087229D02*
X0112258Y0087229D01*
X0111556Y0088827D02*
X0086953Y0088827D01*
X0082157Y0084032D02*
X0109196Y0084032D01*
X0108304Y0082433D02*
X0081400Y0082433D01*
X0081400Y0080834D02*
X0108276Y0080834D01*
X0109129Y0079236D02*
X0080311Y0079236D01*
X0078712Y0077637D02*
X0109756Y0077637D01*
X0109756Y0076039D02*
X0075387Y0076039D01*
X0074888Y0077637D02*
X0074356Y0077637D01*
X0080196Y0074440D02*
X0109756Y0074440D01*
X0109756Y0072842D02*
X0081400Y0072842D01*
X0081400Y0071243D02*
X0109756Y0071243D01*
X0109756Y0069645D02*
X0081400Y0069645D01*
X0080021Y0068046D02*
X0109756Y0068046D01*
X0109756Y0066448D02*
X0102078Y0066448D01*
X0103676Y0064849D02*
X0109756Y0064849D01*
X0109756Y0063251D02*
X0105275Y0063251D01*
X0106873Y0061652D02*
X0109756Y0061652D01*
X0104656Y0057930D02*
X0104656Y0056584D01*
X0105204Y0055261D01*
X0106217Y0054248D01*
X0107540Y0053700D01*
X0108972Y0053700D01*
X0109756Y0054025D01*
X0109756Y0050130D01*
X0110986Y0048900D01*
X0114098Y0045788D01*
X0114098Y0045000D01*
X0113626Y0045000D01*
X0108556Y0050070D01*
X0107326Y0051300D01*
X0081400Y0051300D01*
X0081400Y0051536D01*
X0078705Y0054231D01*
X0074895Y0054231D01*
X0072200Y0051536D01*
X0072200Y0047725D01*
X0073125Y0046800D01*
X0071326Y0046800D01*
X0067695Y0050431D01*
X0068705Y0050431D01*
X0071400Y0053125D01*
X0071400Y0056936D01*
X0068705Y0059631D01*
X0064895Y0059631D01*
X0064456Y0059192D01*
X0064456Y0061769D01*
X0064895Y0061331D01*
X0068705Y0061331D01*
X0070675Y0063300D01*
X0073064Y0063300D01*
X0072200Y0062436D01*
X0072200Y0058625D01*
X0074895Y0055931D01*
X0078705Y0055931D01*
X0081400Y0058625D01*
X0081400Y0062436D01*
X0080536Y0063300D01*
X0099286Y0063300D01*
X0104656Y0057930D01*
X0104131Y0058455D02*
X0081230Y0058455D01*
X0081400Y0060054D02*
X0102532Y0060054D01*
X0100934Y0061652D02*
X0081400Y0061652D01*
X0080585Y0063251D02*
X0099335Y0063251D01*
X0104656Y0056857D02*
X0079631Y0056857D01*
X0079276Y0053660D02*
X0109756Y0053660D01*
X0109756Y0052061D02*
X0080875Y0052061D01*
X0074324Y0053660D02*
X0071400Y0053660D01*
X0071400Y0055258D02*
X0105206Y0055258D01*
X0108163Y0050463D02*
X0109756Y0050463D01*
X0109761Y0048864D02*
X0111022Y0048864D01*
X0111360Y0047266D02*
X0112620Y0047266D01*
X0112958Y0045667D02*
X0114098Y0045667D01*
X0123203Y0053660D02*
X0145746Y0053660D01*
X0147344Y0055258D02*
X0123203Y0055258D01*
X0123203Y0056857D02*
X0153468Y0056857D01*
X0129009Y0058455D02*
X0123022Y0058455D01*
X0123076Y0063251D02*
X0128916Y0063251D01*
X0118650Y0065480D02*
X0118650Y0065480D01*
X0118650Y0066448D02*
X0118650Y0066448D01*
X0118650Y0068046D02*
X0118650Y0068046D01*
X0118650Y0069645D02*
X0118650Y0069645D01*
X0073015Y0063251D02*
X0070626Y0063251D01*
X0072200Y0061652D02*
X0069027Y0061652D01*
X0069881Y0058455D02*
X0072370Y0058455D01*
X0072200Y0060054D02*
X0064456Y0060054D01*
X0064456Y0061652D02*
X0064573Y0061652D01*
X0071400Y0056857D02*
X0073968Y0056857D01*
X0072725Y0052061D02*
X0070336Y0052061D01*
X0068737Y0050463D02*
X0072200Y0050463D01*
X0072200Y0048864D02*
X0069261Y0048864D01*
X0070860Y0047266D02*
X0072660Y0047266D01*
X0075719Y0032879D02*
X0130109Y0032879D01*
X0130086Y0031281D02*
X0078725Y0031281D01*
X0080329Y0029682D02*
X0130086Y0029682D01*
X0130124Y0028084D02*
X0081469Y0028084D01*
X0082359Y0026485D02*
X0130814Y0026485D01*
X0131186Y0024887D02*
X0082787Y0024887D01*
X0083100Y0023288D02*
X0130278Y0023288D01*
X0130086Y0021690D02*
X0083100Y0021690D01*
X0082925Y0020091D02*
X0130086Y0020091D01*
X0130086Y0018493D02*
X0082497Y0018493D01*
X0081767Y0016894D02*
X0130617Y0016894D01*
X0130777Y0034478D02*
X0092903Y0034478D01*
X0165368Y0079236D02*
X0186516Y0079236D01*
X0173945Y0080834D02*
X0165405Y0080834D01*
X0165441Y0082433D02*
X0172347Y0082433D01*
X0170748Y0084032D02*
X0165478Y0084032D01*
X0165515Y0085630D02*
X0169150Y0085630D01*
X0167551Y0087229D02*
X0165552Y0087229D01*
X0165589Y0088827D02*
X0165953Y0088827D01*
X0150105Y0117600D02*
X0149956Y0117600D01*
X0190802Y0149570D02*
X0202057Y0149570D01*
X0203655Y0151169D02*
X0191056Y0151169D01*
X0190579Y0152768D02*
X0205254Y0152768D01*
X0206852Y0154366D02*
X0198602Y0154366D01*
X0198797Y0155965D02*
X0208451Y0155965D01*
X0210049Y0157563D02*
X0198797Y0157563D01*
X0198797Y0158617D02*
X0198797Y0161328D01*
X0198674Y0161785D01*
X0198437Y0162196D01*
X0198102Y0162531D01*
X0197692Y0162768D01*
X0197234Y0162891D01*
X0194917Y0162891D01*
X0194917Y0158617D01*
X0198797Y0158617D01*
X0198797Y0159162D02*
X0211648Y0159162D01*
X0210561Y0160760D02*
X0198797Y0160760D01*
X0198274Y0162359D02*
X0209017Y0162359D01*
X0214390Y0155965D02*
X0274895Y0155965D01*
X0274101Y0154366D02*
X0264369Y0154366D01*
X0264009Y0154726D02*
X0264009Y0154726D01*
X0265966Y0152768D02*
X0273673Y0152768D01*
X0273457Y0151169D02*
X0267563Y0151169D01*
X0269160Y0149570D02*
X0273457Y0149570D01*
X0273743Y0147972D02*
X0270757Y0147972D01*
X0272354Y0146373D02*
X0274171Y0146373D01*
X0273951Y0144775D02*
X0275045Y0144775D01*
X0275549Y0143176D02*
X0276183Y0143176D01*
X0277148Y0141578D02*
X0277811Y0141578D01*
X0278746Y0139979D02*
X0280935Y0139979D01*
X0280345Y0138381D02*
X0289256Y0138381D01*
X0289256Y0139979D02*
X0288177Y0139979D01*
X0289256Y0136782D02*
X0281943Y0136782D01*
X0283542Y0135184D02*
X0289256Y0135184D01*
X0289256Y0133585D02*
X0288548Y0133585D01*
X0288325Y0127191D02*
X0289256Y0127191D01*
X0289256Y0125593D02*
X0258933Y0125593D01*
X0257334Y0127191D02*
X0271787Y0127191D01*
X0273129Y0125849D02*
X0270405Y0128573D01*
X0270405Y0132427D01*
X0273129Y0135151D01*
X0276982Y0135151D01*
X0279707Y0132427D01*
X0279707Y0128573D01*
X0276982Y0125849D01*
X0273129Y0125849D01*
X0273129Y0125151D02*
X0270405Y0122427D01*
X0270405Y0118573D01*
X0273129Y0115849D01*
X0276982Y0115849D01*
X0279707Y0118573D01*
X0279707Y0122427D01*
X0276982Y0125151D01*
X0273129Y0125151D01*
X0271972Y0123994D02*
X0260531Y0123994D01*
X0262130Y0122396D02*
X0270405Y0122396D01*
X0270405Y0120797D02*
X0263356Y0120797D01*
X0263356Y0119199D02*
X0270405Y0119199D01*
X0271378Y0117600D02*
X0263356Y0117600D01*
X0263356Y0116002D02*
X0272976Y0116002D01*
X0273129Y0115151D02*
X0270405Y0112427D01*
X0270405Y0108573D01*
X0273129Y0105849D01*
X0276982Y0105849D01*
X0279707Y0108573D01*
X0279707Y0112427D01*
X0276982Y0115151D01*
X0273129Y0115151D01*
X0272381Y0114403D02*
X0263356Y0114403D01*
X0263356Y0112805D02*
X0270783Y0112805D01*
X0270405Y0111206D02*
X0263356Y0111206D01*
X0263356Y0109608D02*
X0270405Y0109608D01*
X0270969Y0108009D02*
X0263356Y0108009D01*
X0263356Y0106411D02*
X0272567Y0106411D01*
X0277544Y0106411D02*
X0282285Y0106411D01*
X0283046Y0105649D02*
X0284921Y0105649D01*
X0284921Y0110365D01*
X0280205Y0110365D01*
X0280205Y0108491D01*
X0283046Y0105649D01*
X0284921Y0106411D02*
X0285191Y0106411D01*
X0285191Y0108009D02*
X0284921Y0108009D01*
X0284921Y0109608D02*
X0285191Y0109608D01*
X0285191Y0111206D02*
X0284921Y0111206D01*
X0284921Y0112805D02*
X0285191Y0112805D01*
X0285191Y0114403D02*
X0284921Y0114403D01*
X0282976Y0116002D02*
X0277135Y0116002D01*
X0277730Y0114403D02*
X0282099Y0114403D01*
X0280500Y0112805D02*
X0279329Y0112805D01*
X0279707Y0111206D02*
X0280205Y0111206D01*
X0280205Y0109608D02*
X0279707Y0109608D01*
X0279143Y0108009D02*
X0280686Y0108009D01*
X0287827Y0106411D02*
X0289256Y0106411D01*
X0289256Y0114403D02*
X0288013Y0114403D01*
X0287135Y0116002D02*
X0289256Y0116002D01*
X0289256Y0117600D02*
X0288734Y0117600D01*
X0281378Y0117600D02*
X0278734Y0117600D01*
X0279707Y0119199D02*
X0280405Y0119199D01*
X0280405Y0120797D02*
X0279707Y0120797D01*
X0279707Y0122396D02*
X0280405Y0122396D01*
X0281972Y0123994D02*
X0278139Y0123994D01*
X0278325Y0127191D02*
X0281787Y0127191D01*
X0280405Y0128790D02*
X0279707Y0128790D01*
X0279707Y0130388D02*
X0280405Y0130388D01*
X0280405Y0131987D02*
X0279707Y0131987D01*
X0279201Y0133585D02*
X0278548Y0133585D01*
X0277602Y0135184D02*
X0263364Y0135184D01*
X0263364Y0135709D02*
X0259189Y0135709D01*
X0259189Y0131141D01*
X0261801Y0131141D01*
X0262259Y0131264D01*
X0262669Y0131501D01*
X0263004Y0131836D01*
X0263241Y0132246D01*
X0263364Y0132704D01*
X0263364Y0135709D01*
X0263364Y0137259D02*
X0263364Y0140265D01*
X0263241Y0140722D01*
X0263004Y0141133D01*
X0262669Y0141468D01*
X0262259Y0141705D01*
X0261801Y0141828D01*
X0259189Y0141828D01*
X0259189Y0137259D01*
X0263364Y0137259D01*
X0263364Y0138381D02*
X0274405Y0138381D01*
X0272807Y0139979D02*
X0263364Y0139979D01*
X0262478Y0141578D02*
X0271208Y0141578D01*
X0269611Y0143176D02*
X0213277Y0143176D01*
X0211754Y0141578D02*
X0243529Y0141578D01*
X0242641Y0139979D02*
X0233361Y0139979D01*
X0233320Y0140132D02*
X0233083Y0140542D01*
X0232748Y0140877D01*
X0232337Y0141114D01*
X0231879Y0141237D01*
X0229563Y0141237D01*
X0229563Y0136964D01*
X0233443Y0136964D01*
X0233443Y0139674D01*
X0233320Y0140132D01*
X0233443Y0138381D02*
X0242641Y0138381D01*
X0234268Y0136782D02*
X0229563Y0136782D01*
X0229563Y0138381D02*
X0228604Y0138381D01*
X0228604Y0139979D02*
X0229563Y0139979D01*
X0219416Y0149570D02*
X0263223Y0149570D01*
X0264820Y0147972D02*
X0217881Y0147972D01*
X0216346Y0146373D02*
X0266417Y0146373D01*
X0268014Y0144775D02*
X0214812Y0144775D01*
X0210524Y0146373D02*
X0204799Y0146373D01*
X0206398Y0147972D02*
X0212059Y0147972D01*
X0213593Y0149570D02*
X0207996Y0149570D01*
X0209595Y0151169D02*
X0215128Y0151169D01*
X0216663Y0152768D02*
X0211193Y0152768D01*
X0212792Y0154366D02*
X0218197Y0154366D01*
X0215989Y0157563D02*
X0275922Y0157563D01*
X0277521Y0159162D02*
X0217587Y0159162D01*
X0219186Y0160760D02*
X0250278Y0160760D01*
X0251395Y0159643D02*
X0248817Y0162221D01*
X0248817Y0164043D01*
X0253217Y0164043D01*
X0253217Y0164043D01*
X0253217Y0159643D01*
X0251395Y0159643D01*
X0253217Y0159643D02*
X0255040Y0159643D01*
X0257617Y0162221D01*
X0257617Y0164043D01*
X0253217Y0164043D01*
X0253217Y0164043D01*
X0248817Y0164043D01*
X0248817Y0165866D01*
X0251395Y0168443D01*
X0253217Y0168443D01*
X0253217Y0164043D01*
X0253217Y0159643D01*
X0253217Y0160760D02*
X0253217Y0160760D01*
X0253217Y0162359D02*
X0253217Y0162359D01*
X0253217Y0163957D02*
X0253217Y0163957D01*
X0253217Y0164043D02*
X0253217Y0164043D01*
X0253217Y0164043D01*
X0257617Y0164043D01*
X0257617Y0165866D01*
X0255040Y0168443D01*
X0253217Y0168443D01*
X0253217Y0164043D01*
X0253217Y0165556D02*
X0253217Y0165556D01*
X0253217Y0167154D02*
X0253217Y0167154D01*
X0250106Y0167154D02*
X0225580Y0167154D01*
X0227178Y0168753D02*
X0279256Y0168753D01*
X0279256Y0170351D02*
X0228777Y0170351D01*
X0230375Y0171950D02*
X0279256Y0171950D01*
X0279256Y0173548D02*
X0231974Y0173548D01*
X0233572Y0175147D02*
X0279256Y0175147D01*
X0279256Y0176745D02*
X0234556Y0176745D01*
X0234556Y0178344D02*
X0279256Y0178344D01*
X0279256Y0179942D02*
X0234556Y0179942D01*
X0234556Y0181541D02*
X0279256Y0181541D01*
X0279256Y0183139D02*
X0234556Y0183139D01*
X0234556Y0184738D02*
X0279256Y0184738D01*
X0279256Y0186336D02*
X0234556Y0186336D01*
X0230356Y0186336D02*
X0213262Y0186336D01*
X0212656Y0184738D02*
X0230356Y0184738D01*
X0230356Y0183139D02*
X0212140Y0183139D01*
X0209870Y0181541D02*
X0230356Y0181541D01*
X0230356Y0179942D02*
X0196968Y0179942D01*
X0195369Y0178344D02*
X0230356Y0178344D01*
X0229231Y0176745D02*
X0193771Y0176745D01*
X0192172Y0175147D02*
X0227633Y0175147D01*
X0219640Y0167154D02*
X0216046Y0167154D01*
X0217417Y0165556D02*
X0218042Y0165556D01*
X0220784Y0162359D02*
X0248817Y0162359D01*
X0248817Y0163957D02*
X0222383Y0163957D01*
X0223981Y0165556D02*
X0248817Y0165556D01*
X0256329Y0167154D02*
X0279791Y0167154D01*
X0281005Y0165556D02*
X0257617Y0165556D01*
X0257617Y0163957D02*
X0282603Y0163957D01*
X0281554Y0165007D02*
X0281554Y0165007D01*
X0284202Y0162359D02*
X0257617Y0162359D01*
X0256157Y0160760D02*
X0280128Y0160760D01*
X0259189Y0141578D02*
X0257639Y0141578D01*
X0257639Y0141828D02*
X0255028Y0141828D01*
X0254570Y0141705D01*
X0254159Y0141468D01*
X0253824Y0141133D01*
X0253587Y0140722D01*
X0253465Y0140265D01*
X0253465Y0137259D01*
X0257639Y0137259D01*
X0257639Y0135709D01*
X0259189Y0135709D01*
X0259189Y0137259D01*
X0257639Y0137259D01*
X0257639Y0141828D01*
X0257639Y0139979D02*
X0259189Y0139979D01*
X0259189Y0138381D02*
X0257639Y0138381D01*
X0257639Y0136782D02*
X0252140Y0136782D01*
X0252140Y0135184D02*
X0253465Y0135184D01*
X0253465Y0135709D02*
X0253465Y0132704D01*
X0253587Y0132246D01*
X0253824Y0131836D01*
X0254159Y0131501D01*
X0254570Y0131264D01*
X0255028Y0131141D01*
X0257639Y0131141D01*
X0257639Y0135709D01*
X0253465Y0135709D01*
X0253465Y0133585D02*
X0252140Y0133585D01*
X0252539Y0131987D02*
X0253737Y0131987D01*
X0254137Y0130388D02*
X0270405Y0130388D01*
X0270405Y0128790D02*
X0255736Y0128790D01*
X0257639Y0131987D02*
X0259189Y0131987D01*
X0259189Y0133585D02*
X0257639Y0133585D01*
X0257639Y0135184D02*
X0259189Y0135184D01*
X0259189Y0136782D02*
X0276004Y0136782D01*
X0271564Y0133585D02*
X0263364Y0133585D01*
X0263091Y0131987D02*
X0270405Y0131987D01*
X0254350Y0141578D02*
X0251253Y0141578D01*
X0252140Y0139979D02*
X0253465Y0139979D01*
X0253465Y0138381D02*
X0252140Y0138381D01*
X0252748Y0112805D02*
X0245930Y0112805D01*
X0244332Y0111206D02*
X0252287Y0111206D01*
X0252287Y0109608D02*
X0242733Y0109608D01*
X0241135Y0108009D02*
X0252287Y0108009D01*
X0252287Y0106411D02*
X0239536Y0106411D01*
X0277752Y0082433D02*
X0289256Y0082433D01*
X0289256Y0080834D02*
X0277943Y0080834D01*
X0277943Y0079236D02*
X0289256Y0079236D01*
X0289256Y0077637D02*
X0277943Y0077637D01*
X0277943Y0076039D02*
X0289256Y0076039D01*
X0289256Y0074440D02*
X0277870Y0074440D01*
X0277943Y0072842D02*
X0289256Y0072842D01*
X0289256Y0071243D02*
X0277943Y0071243D01*
X0277943Y0069645D02*
X0289256Y0069645D01*
X0289256Y0068046D02*
X0277943Y0068046D01*
X0277943Y0066448D02*
X0289256Y0066448D01*
X0289256Y0064849D02*
X0277943Y0064849D01*
X0277943Y0063251D02*
X0289256Y0063251D01*
X0289256Y0061652D02*
X0277943Y0061652D01*
X0277943Y0060054D02*
X0289256Y0060054D01*
X0289256Y0058455D02*
X0277943Y0058455D01*
X0277943Y0056857D02*
X0289256Y0056857D01*
X0289256Y0055258D02*
X0284854Y0055258D01*
X0287174Y0053660D02*
X0289256Y0053660D01*
X0289256Y0052061D02*
X0288607Y0052061D01*
X0288139Y0123994D02*
X0289256Y0123994D01*
X0208242Y0181541D02*
X0198566Y0181541D01*
X0200165Y0183139D02*
X0205971Y0183139D01*
X0205456Y0184738D02*
X0201763Y0184738D01*
X0203362Y0186336D02*
X0205671Y0186336D01*
X0204960Y0187935D02*
X0206799Y0187935D01*
X0206559Y0189533D02*
X0210519Y0189533D01*
X0212118Y0191132D02*
X0208158Y0191132D01*
X0209756Y0192730D02*
X0213716Y0192730D01*
X0215315Y0194329D02*
X0211355Y0194329D01*
X0216459Y0189533D02*
X0230356Y0189533D01*
X0230356Y0187935D02*
X0214861Y0187935D01*
X0218058Y0191132D02*
X0230356Y0191132D01*
X0230356Y0192730D02*
X0219656Y0192730D01*
X0221255Y0194329D02*
X0230356Y0194329D01*
X0230356Y0195927D02*
X0227740Y0195927D01*
X0228757Y0197526D02*
X0230355Y0197526D01*
X0230086Y0199124D02*
X0229026Y0199124D01*
X0229026Y0200723D02*
X0230086Y0200723D01*
X0230086Y0202321D02*
X0229026Y0202321D01*
X0228572Y0203920D02*
X0230540Y0203920D01*
X0231781Y0205518D02*
X0227356Y0205518D01*
X0228587Y0207117D02*
X0230524Y0207117D01*
X0230086Y0208715D02*
X0229026Y0208715D01*
X0229026Y0210314D02*
X0230086Y0210314D01*
X0230086Y0211912D02*
X0229026Y0211912D01*
X0228742Y0213511D02*
X0230370Y0213511D01*
X0231409Y0215109D02*
X0227703Y0215109D01*
X0247703Y0215109D02*
X0251409Y0215109D01*
X0250370Y0213511D02*
X0248742Y0213511D01*
X0249026Y0211912D02*
X0250086Y0211912D01*
X0250086Y0210314D02*
X0249026Y0210314D01*
X0249026Y0208715D02*
X0250086Y0208715D01*
X0250524Y0207117D02*
X0248587Y0207117D01*
X0247331Y0205518D02*
X0251781Y0205518D01*
X0250540Y0203920D02*
X0248572Y0203920D01*
X0249026Y0202321D02*
X0250086Y0202321D01*
X0250086Y0200723D02*
X0249026Y0200723D01*
X0249026Y0199124D02*
X0250086Y0199124D01*
X0250355Y0197526D02*
X0248757Y0197526D01*
X0247740Y0195927D02*
X0251372Y0195927D01*
X0257740Y0195927D02*
X0261372Y0195927D01*
X0260355Y0197526D02*
X0258757Y0197526D01*
X0259026Y0199124D02*
X0260086Y0199124D01*
X0260086Y0200723D02*
X0259026Y0200723D01*
X0259026Y0202321D02*
X0260086Y0202321D01*
X0260540Y0203920D02*
X0258572Y0203920D01*
X0257331Y0205518D02*
X0261781Y0205518D01*
X0260524Y0207117D02*
X0258587Y0207117D01*
X0259026Y0208715D02*
X0260086Y0208715D01*
X0260086Y0210314D02*
X0259026Y0210314D01*
X0259026Y0211912D02*
X0260086Y0211912D01*
X0260370Y0213511D02*
X0258742Y0213511D01*
X0257703Y0215109D02*
X0261409Y0215109D01*
X0267703Y0215109D02*
X0271409Y0215109D01*
X0270370Y0213511D02*
X0268742Y0213511D01*
X0269026Y0211912D02*
X0270086Y0211912D01*
X0270086Y0210314D02*
X0269026Y0210314D01*
X0269026Y0208715D02*
X0270086Y0208715D01*
X0270524Y0207117D02*
X0268587Y0207117D01*
X0267331Y0205518D02*
X0271781Y0205518D01*
X0270540Y0203920D02*
X0268572Y0203920D01*
X0269026Y0202321D02*
X0270086Y0202321D01*
X0270086Y0200723D02*
X0269026Y0200723D01*
X0269026Y0199124D02*
X0270086Y0199124D01*
X0270355Y0197526D02*
X0268757Y0197526D01*
X0267740Y0195927D02*
X0271372Y0195927D01*
X0277740Y0195927D02*
X0279256Y0195927D01*
X0279256Y0194329D02*
X0241055Y0194329D01*
X0239456Y0192730D02*
X0279256Y0192730D01*
X0279256Y0191132D02*
X0239656Y0191132D01*
X0239552Y0189533D02*
X0279256Y0189533D01*
X0279256Y0187935D02*
X0238582Y0187935D01*
X0277331Y0205518D02*
X0279256Y0205518D01*
X0279256Y0203920D02*
X0278572Y0203920D01*
X0279026Y0202321D02*
X0279256Y0202321D01*
X0279256Y0200723D02*
X0279026Y0200723D01*
X0279026Y0199124D02*
X0279256Y0199124D01*
X0279256Y0197526D02*
X0278757Y0197526D01*
X0278587Y0207117D02*
X0279256Y0207117D01*
X0279256Y0208715D02*
X0279026Y0208715D01*
X0279026Y0210314D02*
X0279256Y0210314D01*
X0279256Y0211912D02*
X0279026Y0211912D01*
X0194917Y0162359D02*
X0193958Y0162359D01*
X0193958Y0160760D02*
X0194917Y0160760D01*
X0194917Y0159162D02*
X0193958Y0159162D01*
X0193958Y0157563D02*
X0194917Y0157563D01*
X0194917Y0155965D02*
X0193958Y0155965D01*
X0193958Y0154366D02*
X0194917Y0154366D01*
X0190601Y0162359D02*
X0190511Y0162359D01*
X0137430Y0165556D02*
X0134789Y0165556D01*
D26*
X0130068Y0149083D03*
X0140698Y0149083D03*
X0162351Y0129791D03*
X0152902Y0123098D03*
X0161564Y0120736D03*
X0175343Y0151839D03*
X0203296Y0157744D03*
X0200540Y0175854D03*
X0219438Y0176248D03*
X0238335Y0144358D03*
X0267076Y0164831D03*
X0243847Y0097114D03*
X0252902Y0088059D03*
X0170225Y0076248D03*
X0145422Y0058925D03*
X0128493Y0069555D03*
X0101328Y0090028D03*
X0099359Y0109713D03*
X0100540Y0121917D03*
X0091091Y0132941D03*
X0101328Y0164831D03*
X0141485Y0182154D03*
X0091091Y0069555D03*
X0084398Y0060894D03*
X0094635Y0057350D03*
X0103296Y0025067D03*
D27*
X0087556Y0042900D03*
X0104656Y0045600D03*
X0108256Y0057300D03*
X0131656Y0060900D03*
X0124456Y0077100D03*
X0111856Y0081600D03*
X0120856Y0095100D03*
X0120856Y0100500D03*
X0128956Y0108600D03*
X0137956Y0115800D03*
X0130756Y0119400D03*
X0119956Y0128400D03*
X0153256Y0115800D03*
X0162256Y0107700D03*
X0173056Y0109500D03*
X0185656Y0109500D03*
X0190156Y0116700D03*
X0180256Y0122100D03*
X0174856Y0122100D03*
X0191056Y0133800D03*
X0187456Y0139200D03*
X0187456Y0150900D03*
X0166756Y0162600D03*
X0149656Y0156300D03*
X0133456Y0168900D03*
X0122656Y0168900D03*
X0170356Y0186900D03*
X0176656Y0186900D03*
X0173056Y0179700D03*
X0209056Y0185100D03*
X0236056Y0190500D03*
X0215356Y0113100D03*
X0217156Y0100500D03*
X0200956Y0073500D03*
X0190156Y0073500D03*
X0177556Y0086100D03*
X0170356Y0092400D03*
X0151456Y0080700D03*
X0137956Y0080700D03*
X0147856Y0100500D03*
X0171256Y0060000D03*
X0165856Y0049200D03*
M02*
