%
M48
M72
T01C0.02362
T02C0.02400
T03C0.03150
T04C0.03200
T05C0.03740
T06C0.04000
T07C0.07480
T08C0.12598
T09C0.13000
%
T01
X84398Y60894
X94635Y57350
X91091Y69555
X101328Y90028
X99359Y109713
X100540Y121917
X91091Y132941
X130068Y149083
X140698Y149083
X162351Y129791
X152902Y123098
X161564Y120736
X175343Y151839
X203296Y157744
X200540Y175854
X219438Y176248
X238335Y144358
X267076Y164831
X243847Y97114
X252902Y88059
X170225Y76248
X145422Y58925
X128493Y69555
X103296Y25067
X101328Y164831
X141485Y182154
T02
X133456Y168900
X122656Y168900
X149656Y156300
X166756Y162600
X187456Y150900
X187456Y139200
X191056Y133800
X180256Y122100
X174856Y122100
X190156Y116700
X185656Y109500
X173056Y109500
X162256Y107700
X153256Y115800
X137956Y115800
X130756Y119400
X119956Y128400
X128956Y108600
X120856Y100500
X120856Y95100
X111856Y81600
X124456Y77100
X137956Y80700
X151456Y80700
X170356Y92400
X177556Y86100
X190156Y73500
X200956Y73500
X171256Y60000
X165856Y49200
X131656Y60900
X108256Y57300
X104656Y45600
X87556Y42900
X147856Y100500
X215356Y113100
X217156Y100500
X173056Y179700
X170356Y186900
X176656Y186900
X209056Y185100
X236056Y190500
T03
X273769Y79004
X273769Y71130
X273769Y63256
X273769Y55382
T04
X253217Y164043
X213217Y164043
T05
X214556Y200500
X204556Y200500
X204556Y210500
X214556Y210500
X224556Y210500
X234556Y210500
X244556Y210500
X254556Y210500
X264556Y210500
X274556Y210500
X274556Y200500
X264556Y200500
X254556Y200500
X244556Y200500
X234556Y200500
X224556Y200500
X188556Y200500
X178556Y200500
X168556Y200500
X158556Y200500
X148556Y200500
X138556Y200500
X128556Y200500
X118556Y200500
X108556Y200500
X98556Y200500
X98556Y210500
X108556Y210500
X118556Y210500
X128556Y210500
X138556Y210500
X148556Y210500
X158556Y210500
X168556Y210500
X178556Y210500
X188556Y210500
X275056Y130500
X285056Y130500
X285056Y120500
X275056Y120500
X275056Y110500
X285056Y110500
X204556Y30500
X194556Y30500
X194556Y20500
X204556Y20500
X184556Y20500
X174556Y20500
X164556Y20500
X164556Y30500
X174556Y30500
X184556Y30500
X154556Y30500
X144556Y30500
X134556Y30500
X134556Y20500
X144556Y20500
X154556Y20500
T06
X224556Y20500
X234556Y20500
X244556Y20500
X254556Y20500
X264556Y20500
X274556Y20500
X274556Y30500
X264556Y30500
X254556Y30500
X244556Y30500
X234556Y30500
X224556Y30500
X76800Y49631
X66800Y55031
X76800Y60531
X66800Y65931
X76800Y71331
X66800Y76831
X76800Y82231
X66800Y87631
X76800Y93131
X66800Y98531
X76800Y103931
X66800Y109431
X76800Y114831
X66800Y120231
X76800Y125731
X66800Y131131
X76800Y136531
X66800Y142031
X76800Y147431
X66800Y152831
X76800Y158331
X66800Y163731
X76800Y169131
X66800Y174631
X76800Y180031
T07
X281249Y47508
T08
X284556Y150500
T09
X71800Y22231
X71800Y207431
M30
