G75*
%MOIN*%
%OFA0B0*%
%FSLAX25Y25*%
%IPPOS*%
%LPD*%
%AMOC8*
5,1,8,0,0,1.08239X$1,22.5*
%
%ADD10C,0.05740*%
%ADD11C,0.06000*%
%ADD12OC8,0.06102*%
%ADD13OC8,0.06000*%
%ADD14OC8,0.06575*%
%ADD15OC8,0.05200*%
%ADD16R,0.05150X0.05150*%
%ADD17C,0.01600*%
%ADD18C,0.03962*%
%ADD19C,0.01000*%
%ADD20C,0.04000*%
D10*
X0134556Y0019065D02*
X0134556Y0021935D01*
X0134556Y0029065D02*
X0134556Y0031935D01*
X0144556Y0031935D02*
X0144556Y0029065D01*
X0144556Y0021935D02*
X0144556Y0019065D01*
X0154556Y0019065D02*
X0154556Y0021935D01*
X0154556Y0029065D02*
X0154556Y0031935D01*
X0164556Y0031935D02*
X0164556Y0029065D01*
X0164556Y0021935D02*
X0164556Y0019065D01*
X0174556Y0019065D02*
X0174556Y0021935D01*
X0174556Y0029065D02*
X0174556Y0031935D01*
X0184556Y0031935D02*
X0184556Y0029065D01*
X0184556Y0021935D02*
X0184556Y0019065D01*
X0194556Y0019065D02*
X0194556Y0021935D01*
X0194556Y0029065D02*
X0194556Y0031935D01*
X0204556Y0031935D02*
X0204556Y0029065D01*
X0204556Y0021935D02*
X0204556Y0019065D01*
X0204556Y0199065D02*
X0204556Y0201935D01*
X0204556Y0209065D02*
X0204556Y0211935D01*
X0214556Y0211935D02*
X0214556Y0209065D01*
X0214556Y0201935D02*
X0214556Y0199065D01*
X0224556Y0199065D02*
X0224556Y0201935D01*
X0224556Y0209065D02*
X0224556Y0211935D01*
X0234556Y0211935D02*
X0234556Y0209065D01*
X0234556Y0201935D02*
X0234556Y0199065D01*
X0244556Y0199065D02*
X0244556Y0201935D01*
X0244556Y0209065D02*
X0244556Y0211935D01*
X0254556Y0211935D02*
X0254556Y0209065D01*
X0254556Y0201935D02*
X0254556Y0199065D01*
X0264556Y0199065D02*
X0264556Y0201935D01*
X0264556Y0209065D02*
X0264556Y0211935D01*
X0274556Y0211935D02*
X0274556Y0209065D01*
X0274556Y0201935D02*
X0274556Y0199065D01*
X0188556Y0199065D02*
X0188556Y0201935D01*
X0188556Y0209065D02*
X0188556Y0211935D01*
X0178556Y0211935D02*
X0178556Y0209065D01*
X0178556Y0201935D02*
X0178556Y0199065D01*
X0168556Y0199065D02*
X0168556Y0201935D01*
X0168556Y0209065D02*
X0168556Y0211935D01*
X0158556Y0211935D02*
X0158556Y0209065D01*
X0158556Y0201935D02*
X0158556Y0199065D01*
X0148556Y0199065D02*
X0148556Y0201935D01*
X0148556Y0209065D02*
X0148556Y0211935D01*
X0138556Y0211935D02*
X0138556Y0209065D01*
X0138556Y0201935D02*
X0138556Y0199065D01*
X0128556Y0199065D02*
X0128556Y0201935D01*
X0128556Y0209065D02*
X0128556Y0211935D01*
X0118556Y0211935D02*
X0118556Y0209065D01*
X0118556Y0201935D02*
X0118556Y0199065D01*
X0108556Y0199065D02*
X0108556Y0201935D01*
X0108556Y0209065D02*
X0108556Y0211935D01*
X0098556Y0211935D02*
X0098556Y0209065D01*
X0098556Y0201935D02*
X0098556Y0199065D01*
D11*
X0224556Y0032000D02*
X0224556Y0029000D01*
X0224556Y0022000D02*
X0224556Y0019000D01*
X0234556Y0019000D02*
X0234556Y0022000D01*
X0234556Y0029000D02*
X0234556Y0032000D01*
X0244556Y0032000D02*
X0244556Y0029000D01*
X0244556Y0022000D02*
X0244556Y0019000D01*
X0254556Y0019000D02*
X0254556Y0022000D01*
X0254556Y0029000D02*
X0254556Y0032000D01*
X0264556Y0032000D02*
X0264556Y0029000D01*
X0264556Y0022000D02*
X0264556Y0019000D01*
X0274556Y0019000D02*
X0274556Y0022000D01*
X0274556Y0029000D02*
X0274556Y0032000D01*
D12*
X0275056Y0110500D03*
X0285056Y0110500D03*
X0285056Y0120500D03*
X0275056Y0120500D03*
X0275056Y0130500D03*
X0285056Y0130500D03*
D13*
X0076800Y0125731D03*
X0066800Y0131131D03*
X0076800Y0136531D03*
X0066800Y0142031D03*
X0076800Y0147431D03*
X0066800Y0152831D03*
X0076800Y0158331D03*
X0066800Y0163731D03*
X0076800Y0169131D03*
X0066800Y0174631D03*
X0076800Y0180031D03*
X0066800Y0120231D03*
X0076800Y0093131D03*
X0076800Y0082231D03*
X0066800Y0076831D03*
X0076800Y0071331D03*
X0066800Y0065931D03*
X0076800Y0060531D03*
X0066800Y0055031D03*
X0076800Y0049631D03*
D14*
X0066800Y0087631D03*
X0066800Y0098531D03*
X0076800Y0103931D03*
X0066800Y0109431D03*
X0076800Y0114831D03*
D15*
X0213217Y0164043D03*
X0253217Y0164043D03*
D16*
X0273769Y0079004D03*
X0273769Y0071130D03*
X0273769Y0063256D03*
X0273769Y0055382D03*
D17*
X0029856Y0015800D02*
X0029856Y0215200D01*
X0063589Y0215200D01*
X0062758Y0214369D01*
X0061270Y0211792D01*
X0060500Y0208918D01*
X0060500Y0205943D01*
X0061270Y0203069D01*
X0062758Y0200492D01*
X0064862Y0198388D01*
X0067438Y0196901D01*
X0070312Y0196131D01*
X0073288Y0196131D01*
X0076162Y0196901D01*
X0078738Y0198388D01*
X0080842Y0200492D01*
X0082330Y0203069D01*
X0083100Y0205943D01*
X0083100Y0208918D01*
X0082330Y0211792D01*
X0080842Y0214369D01*
X0080011Y0215200D01*
X0095499Y0215200D01*
X0094766Y0214467D01*
X0094086Y0212824D01*
X0094086Y0208176D01*
X0094766Y0206533D01*
X0095799Y0205500D01*
X0094766Y0204467D01*
X0094086Y0202824D01*
X0094086Y0198176D01*
X0094766Y0196533D01*
X0096024Y0195275D01*
X0097667Y0194595D01*
X0099445Y0194595D01*
X0101088Y0195275D01*
X0102345Y0196533D01*
X0103026Y0198176D01*
X0103026Y0202824D01*
X0102345Y0204467D01*
X0101313Y0205500D01*
X0102345Y0206533D01*
X0103026Y0208176D01*
X0103026Y0212824D01*
X0102345Y0214467D01*
X0101613Y0215200D01*
X0105499Y0215200D01*
X0104766Y0214467D01*
X0104086Y0212824D01*
X0104086Y0208176D01*
X0104766Y0206533D01*
X0105799Y0205500D01*
X0104766Y0204467D01*
X0104086Y0202824D01*
X0104086Y0198176D01*
X0104766Y0196533D01*
X0106024Y0195275D01*
X0107667Y0194595D01*
X0109445Y0194595D01*
X0111088Y0195275D01*
X0112345Y0196533D01*
X0113026Y0198176D01*
X0113026Y0202824D01*
X0112345Y0204467D01*
X0111313Y0205500D01*
X0112345Y0206533D01*
X0113026Y0208176D01*
X0113026Y0212824D01*
X0112345Y0214467D01*
X0111613Y0215200D01*
X0115499Y0215200D01*
X0114766Y0214467D01*
X0114086Y0212824D01*
X0114086Y0208176D01*
X0114766Y0206533D01*
X0115799Y0205500D01*
X0114766Y0204467D01*
X0114086Y0202824D01*
X0114086Y0198176D01*
X0114766Y0196533D01*
X0116024Y0195275D01*
X0117667Y0194595D01*
X0119445Y0194595D01*
X0121088Y0195275D01*
X0122345Y0196533D01*
X0123026Y0198176D01*
X0123026Y0202824D01*
X0122345Y0204467D01*
X0121313Y0205500D01*
X0122345Y0206533D01*
X0123026Y0208176D01*
X0123026Y0212824D01*
X0122345Y0214467D01*
X0121613Y0215200D01*
X0125216Y0215200D01*
X0124994Y0214977D01*
X0124562Y0214383D01*
X0124228Y0213728D01*
X0124001Y0213029D01*
X0123886Y0212303D01*
X0123886Y0210635D01*
X0128421Y0210635D01*
X0128421Y0210365D01*
X0128691Y0210365D01*
X0128691Y0210635D01*
X0133226Y0210635D01*
X0133226Y0212303D01*
X0133111Y0213029D01*
X0132884Y0213728D01*
X0132550Y0214383D01*
X0132118Y0214977D01*
X0131895Y0215200D01*
X0135499Y0215200D01*
X0134766Y0214467D01*
X0134086Y0212824D01*
X0134086Y0208176D01*
X0134766Y0206533D01*
X0135799Y0205500D01*
X0134766Y0204467D01*
X0134086Y0202824D01*
X0134086Y0198176D01*
X0134766Y0196533D01*
X0136024Y0195275D01*
X0137667Y0194595D01*
X0139445Y0194595D01*
X0141088Y0195275D01*
X0142345Y0196533D01*
X0143026Y0198176D01*
X0143026Y0202824D01*
X0142345Y0204467D01*
X0141313Y0205500D01*
X0142345Y0206533D01*
X0143026Y0208176D01*
X0143026Y0212824D01*
X0142345Y0214467D01*
X0141613Y0215200D01*
X0145499Y0215200D01*
X0144766Y0214467D01*
X0144086Y0212824D01*
X0144086Y0208176D01*
X0144766Y0206533D01*
X0145799Y0205500D01*
X0144766Y0204467D01*
X0144086Y0202824D01*
X0144086Y0198176D01*
X0144766Y0196533D01*
X0146024Y0195275D01*
X0147667Y0194595D01*
X0149445Y0194595D01*
X0151088Y0195275D01*
X0152345Y0196533D01*
X0153026Y0198176D01*
X0153026Y0202824D01*
X0152345Y0204467D01*
X0151313Y0205500D01*
X0152345Y0206533D01*
X0153026Y0208176D01*
X0153026Y0212824D01*
X0152345Y0214467D01*
X0151613Y0215200D01*
X0155499Y0215200D01*
X0154766Y0214467D01*
X0154086Y0212824D01*
X0154086Y0208176D01*
X0154766Y0206533D01*
X0155799Y0205500D01*
X0154766Y0204467D01*
X0154086Y0202824D01*
X0154086Y0198176D01*
X0154766Y0196533D01*
X0156024Y0195275D01*
X0157667Y0194595D01*
X0159445Y0194595D01*
X0161088Y0195275D01*
X0162345Y0196533D01*
X0163026Y0198176D01*
X0163026Y0202824D01*
X0162345Y0204467D01*
X0161313Y0205500D01*
X0162345Y0206533D01*
X0163026Y0208176D01*
X0163026Y0212824D01*
X0162345Y0214467D01*
X0161613Y0215200D01*
X0165499Y0215200D01*
X0164766Y0214467D01*
X0164086Y0212824D01*
X0164086Y0208176D01*
X0164766Y0206533D01*
X0165799Y0205500D01*
X0164766Y0204467D01*
X0164086Y0202824D01*
X0164086Y0198176D01*
X0164401Y0197415D01*
X0136923Y0169937D01*
X0136508Y0170939D01*
X0135495Y0171952D01*
X0134172Y0172500D01*
X0132740Y0172500D01*
X0131417Y0171952D01*
X0130465Y0171000D01*
X0125647Y0171000D01*
X0124695Y0171952D01*
X0123372Y0172500D01*
X0121940Y0172500D01*
X0120617Y0171952D01*
X0119604Y0170939D01*
X0119056Y0169616D01*
X0119056Y0168184D01*
X0119604Y0166861D01*
X0120617Y0165848D01*
X0121940Y0165300D01*
X0123372Y0165300D01*
X0124695Y0165848D01*
X0125647Y0166800D01*
X0130465Y0166800D01*
X0131417Y0165848D01*
X0132419Y0165433D01*
X0081687Y0114701D01*
X0081687Y0116855D01*
X0078824Y0119718D01*
X0074776Y0119718D01*
X0071913Y0116855D01*
X0071913Y0112806D01*
X0074052Y0110666D01*
X0073756Y0110370D01*
X0073756Y0110370D01*
X0071687Y0108301D01*
X0071687Y0111455D01*
X0068824Y0114318D01*
X0064776Y0114318D01*
X0061913Y0111455D01*
X0061913Y0107406D01*
X0063652Y0105666D01*
X0062956Y0104970D01*
X0060856Y0102870D01*
X0060856Y0128430D01*
X0062200Y0129774D01*
X0062200Y0129225D01*
X0064895Y0126531D01*
X0068705Y0126531D01*
X0071400Y0129225D01*
X0071400Y0133036D01*
X0069136Y0135300D01*
X0069526Y0135300D01*
X0072200Y0137974D01*
X0072200Y0134625D01*
X0074895Y0131931D01*
X0078705Y0131931D01*
X0081400Y0134625D01*
X0081400Y0138436D01*
X0078705Y0141131D01*
X0075356Y0141131D01*
X0077056Y0142831D01*
X0078705Y0142831D01*
X0081400Y0145525D01*
X0081400Y0149336D01*
X0078705Y0152031D01*
X0074895Y0152031D01*
X0072200Y0149336D01*
X0072200Y0145525D01*
X0073006Y0144720D01*
X0071400Y0143114D01*
X0071400Y0143936D01*
X0068705Y0146631D01*
X0064895Y0146631D01*
X0062200Y0143936D01*
X0062200Y0140125D01*
X0064406Y0137920D01*
X0056656Y0130170D01*
X0056656Y0052830D01*
X0057886Y0051600D01*
X0072286Y0037200D01*
X0148726Y0037200D01*
X0149956Y0038430D01*
X0158626Y0047100D01*
X0162865Y0047100D01*
X0163817Y0046148D01*
X0165140Y0045600D01*
X0166572Y0045600D01*
X0167895Y0046148D01*
X0168908Y0047161D01*
X0169456Y0048484D01*
X0169456Y0049916D01*
X0168908Y0051239D01*
X0167895Y0052252D01*
X0166572Y0052800D01*
X0165140Y0052800D01*
X0163817Y0052252D01*
X0162865Y0051300D01*
X0160126Y0051300D01*
X0167789Y0058963D01*
X0168204Y0057961D01*
X0169217Y0056948D01*
X0170540Y0056400D01*
X0171856Y0056400D01*
X0171856Y0035557D01*
X0170766Y0034467D01*
X0170086Y0032824D01*
X0170086Y0028176D01*
X0170766Y0026533D01*
X0171799Y0025500D01*
X0170766Y0024467D01*
X0170086Y0022824D01*
X0170086Y0018176D01*
X0170766Y0016533D01*
X0171499Y0015800D01*
X0167613Y0015800D01*
X0168345Y0016533D01*
X0169026Y0018176D01*
X0169026Y0022824D01*
X0168345Y0024467D01*
X0167313Y0025500D01*
X0168345Y0026533D01*
X0169026Y0028176D01*
X0169026Y0032824D01*
X0168345Y0034467D01*
X0167088Y0035725D01*
X0165445Y0036405D01*
X0163667Y0036405D01*
X0162024Y0035725D01*
X0160766Y0034467D01*
X0160086Y0032824D01*
X0160086Y0028176D01*
X0160766Y0026533D01*
X0161799Y0025500D01*
X0160766Y0024467D01*
X0160086Y0022824D01*
X0160086Y0018176D01*
X0160766Y0016533D01*
X0161499Y0015800D01*
X0157613Y0015800D01*
X0158345Y0016533D01*
X0159026Y0018176D01*
X0159026Y0022824D01*
X0158345Y0024467D01*
X0157313Y0025500D01*
X0158345Y0026533D01*
X0159026Y0028176D01*
X0159026Y0032824D01*
X0158345Y0034467D01*
X0157088Y0035725D01*
X0155445Y0036405D01*
X0153667Y0036405D01*
X0152024Y0035725D01*
X0150766Y0034467D01*
X0150086Y0032824D01*
X0150086Y0028176D01*
X0150766Y0026533D01*
X0151799Y0025500D01*
X0150766Y0024467D01*
X0150086Y0022824D01*
X0150086Y0018176D01*
X0150766Y0016533D01*
X0151499Y0015800D01*
X0147613Y0015800D01*
X0148345Y0016533D01*
X0149026Y0018176D01*
X0149026Y0022824D01*
X0148345Y0024467D01*
X0147313Y0025500D01*
X0148345Y0026533D01*
X0149026Y0028176D01*
X0149026Y0032824D01*
X0148345Y0034467D01*
X0147088Y0035725D01*
X0145445Y0036405D01*
X0143667Y0036405D01*
X0142024Y0035725D01*
X0140766Y0034467D01*
X0140086Y0032824D01*
X0140086Y0028176D01*
X0140766Y0026533D01*
X0141799Y0025500D01*
X0140766Y0024467D01*
X0140086Y0022824D01*
X0140086Y0018176D01*
X0140766Y0016533D01*
X0141499Y0015800D01*
X0137613Y0015800D01*
X0138345Y0016533D01*
X0139026Y0018176D01*
X0139026Y0022824D01*
X0138345Y0024467D01*
X0137313Y0025500D01*
X0138345Y0026533D01*
X0139026Y0028176D01*
X0139026Y0032824D01*
X0138345Y0034467D01*
X0137088Y0035725D01*
X0135445Y0036405D01*
X0133667Y0036405D01*
X0132024Y0035725D01*
X0130766Y0034467D01*
X0130086Y0032824D01*
X0130086Y0028176D01*
X0130766Y0026533D01*
X0131799Y0025500D01*
X0130766Y0024467D01*
X0130086Y0022824D01*
X0130086Y0018176D01*
X0130766Y0016533D01*
X0131499Y0015800D01*
X0081135Y0015800D01*
X0082330Y0017869D01*
X0083100Y0020743D01*
X0083100Y0023718D01*
X0082330Y0026592D01*
X0080842Y0029169D01*
X0078738Y0031273D01*
X0076162Y0032761D01*
X0073288Y0033531D01*
X0070312Y0033531D01*
X0067438Y0032761D01*
X0064862Y0031273D01*
X0062758Y0029169D01*
X0061270Y0026592D01*
X0060500Y0023718D01*
X0060500Y0020743D01*
X0061270Y0017869D01*
X0062465Y0015800D01*
X0029856Y0015800D01*
X0029856Y0016894D02*
X0061833Y0016894D01*
X0061103Y0018493D02*
X0029856Y0018493D01*
X0029856Y0020091D02*
X0060675Y0020091D01*
X0060500Y0021690D02*
X0029856Y0021690D01*
X0029856Y0023288D02*
X0060500Y0023288D01*
X0060813Y0024887D02*
X0029856Y0024887D01*
X0029856Y0026485D02*
X0061241Y0026485D01*
X0062131Y0028084D02*
X0029856Y0028084D01*
X0029856Y0029682D02*
X0063271Y0029682D01*
X0064875Y0031281D02*
X0029856Y0031281D01*
X0029856Y0032879D02*
X0067881Y0032879D01*
X0071811Y0037675D02*
X0029856Y0037675D01*
X0029856Y0039273D02*
X0070213Y0039273D01*
X0068614Y0040872D02*
X0029856Y0040872D01*
X0029856Y0042470D02*
X0067016Y0042470D01*
X0065417Y0044069D02*
X0029856Y0044069D01*
X0029856Y0045667D02*
X0063819Y0045667D01*
X0062220Y0047266D02*
X0029856Y0047266D01*
X0029856Y0048864D02*
X0060622Y0048864D01*
X0059023Y0050463D02*
X0029856Y0050463D01*
X0029856Y0052061D02*
X0057425Y0052061D01*
X0056656Y0053660D02*
X0029856Y0053660D01*
X0029856Y0055258D02*
X0056656Y0055258D01*
X0056656Y0056857D02*
X0029856Y0056857D01*
X0029856Y0058455D02*
X0056656Y0058455D01*
X0056656Y0060054D02*
X0029856Y0060054D01*
X0029856Y0061652D02*
X0056656Y0061652D01*
X0056656Y0063251D02*
X0029856Y0063251D01*
X0029856Y0064849D02*
X0056656Y0064849D01*
X0056656Y0066448D02*
X0029856Y0066448D01*
X0029856Y0068046D02*
X0056656Y0068046D01*
X0056656Y0069645D02*
X0029856Y0069645D01*
X0029856Y0071243D02*
X0056656Y0071243D01*
X0056656Y0072842D02*
X0029856Y0072842D01*
X0029856Y0074440D02*
X0056656Y0074440D01*
X0056656Y0076039D02*
X0029856Y0076039D01*
X0029856Y0077637D02*
X0056656Y0077637D01*
X0056656Y0079236D02*
X0029856Y0079236D01*
X0029856Y0080834D02*
X0056656Y0080834D01*
X0056656Y0082433D02*
X0029856Y0082433D01*
X0029856Y0084032D02*
X0056656Y0084032D01*
X0056656Y0085630D02*
X0029856Y0085630D01*
X0029856Y0087229D02*
X0056656Y0087229D01*
X0056656Y0088827D02*
X0029856Y0088827D01*
X0029856Y0090426D02*
X0056656Y0090426D01*
X0056656Y0092024D02*
X0029856Y0092024D01*
X0029856Y0093623D02*
X0056656Y0093623D01*
X0056656Y0095221D02*
X0029856Y0095221D01*
X0029856Y0096820D02*
X0056656Y0096820D01*
X0056656Y0098418D02*
X0029856Y0098418D01*
X0029856Y0100017D02*
X0056656Y0100017D01*
X0056656Y0101615D02*
X0029856Y0101615D01*
X0029856Y0103214D02*
X0056656Y0103214D01*
X0056656Y0104812D02*
X0029856Y0104812D01*
X0029856Y0106411D02*
X0056656Y0106411D01*
X0056656Y0108009D02*
X0029856Y0108009D01*
X0029856Y0109608D02*
X0056656Y0109608D01*
X0056656Y0111206D02*
X0029856Y0111206D01*
X0029856Y0112805D02*
X0056656Y0112805D01*
X0056656Y0114403D02*
X0029856Y0114403D01*
X0029856Y0116002D02*
X0056656Y0116002D01*
X0056656Y0117600D02*
X0029856Y0117600D01*
X0029856Y0119199D02*
X0056656Y0119199D01*
X0056656Y0120797D02*
X0029856Y0120797D01*
X0029856Y0122396D02*
X0056656Y0122396D01*
X0056656Y0123994D02*
X0029856Y0123994D01*
X0029856Y0125593D02*
X0056656Y0125593D01*
X0056656Y0127191D02*
X0029856Y0127191D01*
X0029856Y0128790D02*
X0056656Y0128790D01*
X0056874Y0130388D02*
X0029856Y0130388D01*
X0029856Y0131987D02*
X0058473Y0131987D01*
X0060071Y0133585D02*
X0029856Y0133585D01*
X0029856Y0135184D02*
X0061670Y0135184D01*
X0063268Y0136782D02*
X0029856Y0136782D01*
X0029856Y0138381D02*
X0063944Y0138381D01*
X0062346Y0139979D02*
X0029856Y0139979D01*
X0029856Y0141578D02*
X0062200Y0141578D01*
X0062200Y0143176D02*
X0029856Y0143176D01*
X0029856Y0144775D02*
X0063039Y0144775D01*
X0064637Y0146373D02*
X0029856Y0146373D01*
X0029856Y0147972D02*
X0072200Y0147972D01*
X0072200Y0146373D02*
X0068963Y0146373D01*
X0068705Y0148231D02*
X0071400Y0150925D01*
X0071400Y0154736D01*
X0068705Y0157431D01*
X0064895Y0157431D01*
X0062200Y0154736D01*
X0062200Y0150925D01*
X0064895Y0148231D01*
X0068705Y0148231D01*
X0070045Y0149570D02*
X0072434Y0149570D01*
X0071400Y0151169D02*
X0074033Y0151169D01*
X0074895Y0153731D02*
X0078705Y0153731D01*
X0081400Y0156425D01*
X0081400Y0160236D01*
X0078705Y0162931D01*
X0074895Y0162931D01*
X0072200Y0160236D01*
X0072200Y0156425D01*
X0074895Y0153731D01*
X0074259Y0154366D02*
X0071400Y0154366D01*
X0071400Y0152768D02*
X0119754Y0152768D01*
X0121352Y0154366D02*
X0079341Y0154366D01*
X0080939Y0155965D02*
X0122951Y0155965D01*
X0124549Y0157563D02*
X0081400Y0157563D01*
X0081400Y0159162D02*
X0126148Y0159162D01*
X0127746Y0160760D02*
X0080876Y0160760D01*
X0079277Y0162359D02*
X0129345Y0162359D01*
X0130943Y0163957D02*
X0071400Y0163957D01*
X0071400Y0162359D02*
X0074322Y0162359D01*
X0074895Y0164531D02*
X0078705Y0164531D01*
X0081400Y0167225D01*
X0081400Y0171036D01*
X0078705Y0173731D01*
X0074895Y0173731D01*
X0072200Y0171036D01*
X0072200Y0167225D01*
X0074895Y0164531D01*
X0073870Y0165556D02*
X0071400Y0165556D01*
X0071400Y0165636D02*
X0071400Y0161825D01*
X0068705Y0159131D01*
X0064895Y0159131D01*
X0062200Y0161825D01*
X0062200Y0165636D01*
X0064895Y0168331D01*
X0068705Y0168331D01*
X0071400Y0165636D01*
X0072271Y0167154D02*
X0069882Y0167154D01*
X0072200Y0168753D02*
X0029856Y0168753D01*
X0029856Y0170351D02*
X0064574Y0170351D01*
X0064895Y0170031D02*
X0062200Y0172725D01*
X0062200Y0176536D01*
X0064895Y0179231D01*
X0068705Y0179231D01*
X0071400Y0176536D01*
X0071400Y0172725D01*
X0068705Y0170031D01*
X0064895Y0170031D01*
X0062976Y0171950D02*
X0029856Y0171950D01*
X0029856Y0173548D02*
X0062200Y0173548D01*
X0062200Y0175147D02*
X0029856Y0175147D01*
X0029856Y0176745D02*
X0062409Y0176745D01*
X0064008Y0178344D02*
X0029856Y0178344D01*
X0029856Y0179942D02*
X0072200Y0179942D01*
X0072200Y0178344D02*
X0069592Y0178344D01*
X0071191Y0176745D02*
X0073580Y0176745D01*
X0074895Y0175431D02*
X0072200Y0178125D01*
X0072200Y0181936D01*
X0074895Y0184631D01*
X0078705Y0184631D01*
X0081400Y0181936D01*
X0081400Y0178125D01*
X0078705Y0175431D01*
X0074895Y0175431D01*
X0074712Y0173548D02*
X0071400Y0173548D01*
X0071400Y0175147D02*
X0142133Y0175147D01*
X0143731Y0176745D02*
X0080020Y0176745D01*
X0081400Y0178344D02*
X0145330Y0178344D01*
X0146928Y0179942D02*
X0081400Y0179942D01*
X0081400Y0181541D02*
X0148527Y0181541D01*
X0150125Y0183139D02*
X0080197Y0183139D01*
X0073403Y0183139D02*
X0029856Y0183139D01*
X0029856Y0181541D02*
X0072200Y0181541D01*
X0078888Y0173548D02*
X0140534Y0173548D01*
X0138936Y0171950D02*
X0135497Y0171950D01*
X0136751Y0170351D02*
X0137337Y0170351D01*
X0131414Y0171950D02*
X0124697Y0171950D01*
X0120614Y0171950D02*
X0080486Y0171950D01*
X0081400Y0170351D02*
X0119360Y0170351D01*
X0119056Y0168753D02*
X0081400Y0168753D01*
X0081329Y0167154D02*
X0119482Y0167154D01*
X0121323Y0165556D02*
X0079730Y0165556D01*
X0072724Y0160760D02*
X0070335Y0160760D01*
X0068736Y0159162D02*
X0072200Y0159162D01*
X0072200Y0157563D02*
X0029856Y0157563D01*
X0029856Y0155965D02*
X0063428Y0155965D01*
X0062200Y0154366D02*
X0029856Y0154366D01*
X0029856Y0152768D02*
X0062200Y0152768D01*
X0062200Y0151169D02*
X0029856Y0151169D01*
X0029856Y0149570D02*
X0063555Y0149570D01*
X0070561Y0144775D02*
X0072950Y0144775D01*
X0071463Y0143176D02*
X0071400Y0143176D01*
X0075804Y0141578D02*
X0108564Y0141578D01*
X0110163Y0143176D02*
X0079051Y0143176D01*
X0080650Y0144775D02*
X0111761Y0144775D01*
X0113360Y0146373D02*
X0081400Y0146373D01*
X0081400Y0147972D02*
X0114958Y0147972D01*
X0116557Y0149570D02*
X0081166Y0149570D01*
X0079567Y0151169D02*
X0118155Y0151169D01*
X0120898Y0147972D02*
X0132256Y0147972D01*
X0132256Y0149570D02*
X0122496Y0149570D01*
X0124095Y0151169D02*
X0132256Y0151169D01*
X0132256Y0152768D02*
X0125693Y0152768D01*
X0127292Y0154366D02*
X0132256Y0154366D01*
X0132256Y0155965D02*
X0128890Y0155965D01*
X0130489Y0157563D02*
X0132256Y0157563D01*
X0132256Y0159162D02*
X0132087Y0159162D01*
X0132256Y0159330D02*
X0132256Y0122675D01*
X0131472Y0123000D01*
X0130040Y0123000D01*
X0128717Y0122452D01*
X0127704Y0121439D01*
X0127156Y0120116D01*
X0127156Y0118684D01*
X0127704Y0117361D01*
X0128656Y0116409D01*
X0128656Y0112200D01*
X0128240Y0112200D01*
X0126917Y0111652D01*
X0125904Y0110639D01*
X0125356Y0109316D01*
X0125356Y0107884D01*
X0125904Y0106561D01*
X0126917Y0105548D01*
X0127919Y0105133D01*
X0124323Y0101537D01*
X0123908Y0102539D01*
X0122895Y0103552D01*
X0122761Y0103607D01*
X0122719Y0104268D01*
X0122719Y0105071D01*
X0122664Y0105126D01*
X0122659Y0105203D01*
X0122056Y0105733D01*
X0110210Y0117579D01*
X0118016Y0125307D01*
X0119240Y0124800D01*
X0120672Y0124800D01*
X0121995Y0125348D01*
X0123008Y0126361D01*
X0123556Y0127684D01*
X0123556Y0129116D01*
X0123008Y0130439D01*
X0121995Y0131452D01*
X0120672Y0132000D01*
X0119240Y0132000D01*
X0117917Y0131452D01*
X0116904Y0130439D01*
X0116677Y0129891D01*
X0116676Y0129889D01*
X0106369Y0119687D01*
X0102526Y0119687D01*
X0101675Y0119701D01*
X0101660Y0119687D01*
X0101639Y0119687D01*
X0101036Y0119084D01*
X0089319Y0107758D01*
X0088722Y0107293D01*
X0088706Y0107164D01*
X0088613Y0107075D01*
X0088600Y0106318D01*
X0087917Y0100858D01*
X0081400Y0094482D01*
X0081400Y0095036D01*
X0078705Y0097731D01*
X0074895Y0097731D01*
X0072200Y0095036D01*
X0072200Y0091225D01*
X0074325Y0089100D01*
X0072286Y0089100D01*
X0071687Y0088501D01*
X0071687Y0089655D01*
X0068824Y0092518D01*
X0064776Y0092518D01*
X0062656Y0090398D01*
X0062656Y0095763D01*
X0064776Y0093643D01*
X0068824Y0093643D01*
X0071687Y0096506D01*
X0071687Y0100555D01*
X0070243Y0102000D01*
X0071326Y0102000D01*
X0071913Y0102587D01*
X0071913Y0101906D01*
X0074776Y0099043D01*
X0078824Y0099043D01*
X0081687Y0101906D01*
X0081687Y0105955D01*
X0080243Y0107400D01*
X0080326Y0107400D01*
X0132256Y0159330D01*
X0136456Y0158130D02*
X0142156Y0163830D01*
X0142156Y0152730D01*
X0143386Y0151500D01*
X0154756Y0140130D01*
X0154756Y0119075D01*
X0153972Y0119400D01*
X0152540Y0119400D01*
X0151217Y0118852D01*
X0150265Y0117900D01*
X0140947Y0117900D01*
X0139995Y0118852D01*
X0138672Y0119400D01*
X0137240Y0119400D01*
X0136456Y0119075D01*
X0136456Y0158130D01*
X0136456Y0157563D02*
X0142156Y0157563D01*
X0142156Y0155965D02*
X0136456Y0155965D01*
X0136456Y0154366D02*
X0142156Y0154366D01*
X0142156Y0152768D02*
X0136456Y0152768D01*
X0136456Y0151169D02*
X0143717Y0151169D01*
X0145316Y0149570D02*
X0136456Y0149570D01*
X0136456Y0147972D02*
X0146914Y0147972D01*
X0148513Y0146373D02*
X0136456Y0146373D01*
X0136456Y0144775D02*
X0150111Y0144775D01*
X0151710Y0143176D02*
X0136456Y0143176D01*
X0136456Y0141578D02*
X0153308Y0141578D01*
X0154756Y0139979D02*
X0136456Y0139979D01*
X0136456Y0138381D02*
X0154756Y0138381D01*
X0154756Y0136782D02*
X0136456Y0136782D01*
X0136456Y0135184D02*
X0154756Y0135184D01*
X0154756Y0133585D02*
X0136456Y0133585D01*
X0136456Y0131987D02*
X0154756Y0131987D01*
X0154756Y0130388D02*
X0136456Y0130388D01*
X0136456Y0128790D02*
X0154756Y0128790D01*
X0154756Y0127191D02*
X0136456Y0127191D01*
X0136456Y0125593D02*
X0154756Y0125593D01*
X0154756Y0123994D02*
X0136456Y0123994D01*
X0136456Y0122396D02*
X0154756Y0122396D01*
X0154756Y0120797D02*
X0136456Y0120797D01*
X0136456Y0119199D02*
X0136754Y0119199D01*
X0139158Y0119199D02*
X0152054Y0119199D01*
X0154458Y0119199D02*
X0154756Y0119199D01*
X0158956Y0119199D02*
X0163585Y0119199D01*
X0165183Y0120797D02*
X0158956Y0120797D01*
X0158956Y0122396D02*
X0166782Y0122396D01*
X0168380Y0123994D02*
X0158956Y0123994D01*
X0158956Y0125593D02*
X0169979Y0125593D01*
X0171577Y0127191D02*
X0158956Y0127191D01*
X0158956Y0128790D02*
X0173176Y0128790D01*
X0174774Y0130388D02*
X0158956Y0130388D01*
X0158956Y0131987D02*
X0165599Y0131987D01*
X0165886Y0131700D02*
X0176086Y0131700D01*
X0175456Y0131070D01*
X0158956Y0114570D01*
X0158956Y0138630D01*
X0165886Y0131700D01*
X0164001Y0133585D02*
X0158956Y0133585D01*
X0158956Y0135184D02*
X0162402Y0135184D01*
X0160804Y0136782D02*
X0158956Y0136782D01*
X0158956Y0138381D02*
X0159205Y0138381D01*
X0163546Y0139979D02*
X0183882Y0139979D01*
X0183856Y0139916D02*
X0183856Y0138484D01*
X0184404Y0137161D01*
X0185417Y0136148D01*
X0186016Y0135900D01*
X0167626Y0135900D01*
X0150693Y0152833D01*
X0151695Y0153248D01*
X0152708Y0154261D01*
X0153256Y0155584D01*
X0153256Y0156930D01*
X0164656Y0168330D01*
X0164656Y0165591D01*
X0163704Y0164639D01*
X0163156Y0163316D01*
X0163156Y0161884D01*
X0163704Y0160561D01*
X0164717Y0159548D01*
X0166040Y0159000D01*
X0167472Y0159000D01*
X0168795Y0159548D01*
X0169808Y0160561D01*
X0170356Y0161884D01*
X0170356Y0163316D01*
X0169808Y0164639D01*
X0168856Y0165591D01*
X0168856Y0167130D01*
X0177526Y0175800D01*
X0178756Y0177030D01*
X0178756Y0183909D01*
X0179708Y0184861D01*
X0180256Y0186184D01*
X0180256Y0187616D01*
X0179931Y0188400D01*
X0207616Y0188400D01*
X0207017Y0188152D01*
X0206004Y0187139D01*
X0205456Y0185816D01*
X0205456Y0184384D01*
X0206004Y0183061D01*
X0206956Y0182109D01*
X0206956Y0147270D01*
X0194523Y0134837D01*
X0194108Y0135839D01*
X0193095Y0136852D01*
X0191772Y0137400D01*
X0190607Y0137400D01*
X0191056Y0138484D01*
X0191056Y0139916D01*
X0190508Y0141239D01*
X0189556Y0142191D01*
X0189556Y0147909D01*
X0190508Y0148861D01*
X0191056Y0150184D01*
X0191056Y0151616D01*
X0190508Y0152939D01*
X0189495Y0153952D01*
X0188172Y0154500D01*
X0186740Y0154500D01*
X0185417Y0153952D01*
X0184404Y0152939D01*
X0183856Y0151616D01*
X0183856Y0150184D01*
X0184404Y0148861D01*
X0185356Y0147909D01*
X0185356Y0142191D01*
X0184404Y0141239D01*
X0183856Y0139916D01*
X0183899Y0138381D02*
X0165145Y0138381D01*
X0166743Y0136782D02*
X0184782Y0136782D01*
X0184743Y0141578D02*
X0161948Y0141578D01*
X0160349Y0143176D02*
X0185356Y0143176D01*
X0185356Y0144775D02*
X0158751Y0144775D01*
X0157152Y0146373D02*
X0185356Y0146373D01*
X0185293Y0147972D02*
X0155554Y0147972D01*
X0153955Y0149570D02*
X0184110Y0149570D01*
X0183856Y0151169D02*
X0152357Y0151169D01*
X0150758Y0152768D02*
X0184333Y0152768D01*
X0186416Y0154366D02*
X0152751Y0154366D01*
X0153256Y0155965D02*
X0206956Y0155965D01*
X0206956Y0157563D02*
X0153889Y0157563D01*
X0155487Y0159162D02*
X0165650Y0159162D01*
X0167862Y0159162D02*
X0206956Y0159162D01*
X0206956Y0160760D02*
X0169890Y0160760D01*
X0170356Y0162359D02*
X0206956Y0162359D01*
X0206956Y0163957D02*
X0170090Y0163957D01*
X0168891Y0165556D02*
X0206956Y0165556D01*
X0206956Y0167154D02*
X0168880Y0167154D01*
X0170478Y0168753D02*
X0206956Y0168753D01*
X0206956Y0170351D02*
X0172077Y0170351D01*
X0173675Y0171950D02*
X0206956Y0171950D01*
X0206956Y0173548D02*
X0175274Y0173548D01*
X0176872Y0175147D02*
X0206956Y0175147D01*
X0206956Y0176745D02*
X0178471Y0176745D01*
X0177526Y0175800D02*
X0177526Y0175800D01*
X0178756Y0178344D02*
X0206956Y0178344D01*
X0206956Y0179942D02*
X0178756Y0179942D01*
X0178756Y0181541D02*
X0206956Y0181541D01*
X0205971Y0183139D02*
X0178756Y0183139D01*
X0179585Y0184738D02*
X0205456Y0184738D01*
X0205671Y0186336D02*
X0180256Y0186336D01*
X0180124Y0187935D02*
X0206799Y0187935D01*
X0210496Y0188400D02*
X0233065Y0188400D01*
X0234017Y0187448D01*
X0235340Y0186900D01*
X0236772Y0186900D01*
X0238095Y0187448D01*
X0239108Y0188461D01*
X0239656Y0189784D01*
X0239656Y0191216D01*
X0239331Y0192000D01*
X0248626Y0192000D01*
X0251962Y0195337D01*
X0252024Y0195275D01*
X0253667Y0194595D01*
X0255445Y0194595D01*
X0257088Y0195275D01*
X0258345Y0196533D01*
X0259026Y0198176D01*
X0259026Y0202824D01*
X0258345Y0204467D01*
X0257313Y0205500D01*
X0258345Y0206533D01*
X0259026Y0208176D01*
X0259026Y0212824D01*
X0258345Y0214467D01*
X0257613Y0215200D01*
X0261499Y0215200D01*
X0260766Y0214467D01*
X0260086Y0212824D01*
X0260086Y0208176D01*
X0260766Y0206533D01*
X0261799Y0205500D01*
X0260766Y0204467D01*
X0260086Y0202824D01*
X0260086Y0198176D01*
X0260766Y0196533D01*
X0262024Y0195275D01*
X0263667Y0194595D01*
X0265445Y0194595D01*
X0267088Y0195275D01*
X0268345Y0196533D01*
X0269026Y0198176D01*
X0269026Y0202824D01*
X0268345Y0204467D01*
X0267313Y0205500D01*
X0268345Y0206533D01*
X0269026Y0208176D01*
X0269026Y0212824D01*
X0268345Y0214467D01*
X0267613Y0215200D01*
X0271499Y0215200D01*
X0270766Y0214467D01*
X0270086Y0212824D01*
X0270086Y0208176D01*
X0270766Y0206533D01*
X0271799Y0205500D01*
X0270766Y0204467D01*
X0270086Y0202824D01*
X0270086Y0198176D01*
X0270766Y0196533D01*
X0272024Y0195275D01*
X0273667Y0194595D01*
X0275445Y0194595D01*
X0277088Y0195275D01*
X0278345Y0196533D01*
X0279026Y0198176D01*
X0279026Y0202824D01*
X0278345Y0204467D01*
X0277313Y0205500D01*
X0278345Y0206533D01*
X0279026Y0208176D01*
X0279026Y0212535D01*
X0279256Y0212305D01*
X0279256Y0168446D01*
X0280063Y0166498D01*
X0281554Y0165007D01*
X0284961Y0161599D01*
X0283095Y0161599D01*
X0280272Y0160843D01*
X0277741Y0159382D01*
X0275674Y0157315D01*
X0274213Y0154784D01*
X0273457Y0151961D01*
X0273457Y0149039D01*
X0274213Y0146216D01*
X0275674Y0143685D01*
X0277741Y0141618D01*
X0280272Y0140157D01*
X0283095Y0139401D01*
X0286017Y0139401D01*
X0288840Y0140157D01*
X0289256Y0140397D01*
X0289256Y0132878D01*
X0286982Y0135151D01*
X0283129Y0135151D01*
X0280405Y0132427D01*
X0280405Y0128573D01*
X0283129Y0125849D01*
X0286982Y0125849D01*
X0289256Y0128122D01*
X0289256Y0122878D01*
X0286982Y0125151D01*
X0283675Y0125151D01*
X0281026Y0127800D01*
X0278934Y0127800D01*
X0279707Y0128573D01*
X0279707Y0132427D01*
X0276982Y0135151D01*
X0273129Y0135151D01*
X0270405Y0132427D01*
X0270405Y0128819D01*
X0265786Y0124200D01*
X0183247Y0124200D01*
X0182295Y0125152D01*
X0180972Y0125700D01*
X0179540Y0125700D01*
X0178217Y0125152D01*
X0177556Y0124491D01*
X0176895Y0125152D01*
X0175893Y0125567D01*
X0178426Y0128100D01*
X0193726Y0128100D01*
X0209926Y0144300D01*
X0211156Y0145530D01*
X0211156Y0160165D01*
X0211478Y0159843D01*
X0214957Y0159843D01*
X0217417Y0162304D01*
X0217417Y0165783D01*
X0214957Y0168243D01*
X0211478Y0168243D01*
X0211156Y0167922D01*
X0211156Y0182109D01*
X0212108Y0183061D01*
X0212656Y0184384D01*
X0212656Y0185816D01*
X0212108Y0187139D01*
X0211095Y0188152D01*
X0210496Y0188400D01*
X0211312Y0187935D02*
X0233530Y0187935D01*
X0238582Y0187935D02*
X0279256Y0187935D01*
X0279256Y0189533D02*
X0239552Y0189533D01*
X0239656Y0191132D02*
X0279256Y0191132D01*
X0279256Y0192730D02*
X0249356Y0192730D01*
X0250955Y0194329D02*
X0279256Y0194329D01*
X0279256Y0195927D02*
X0277740Y0195927D01*
X0278757Y0197526D02*
X0279256Y0197526D01*
X0279256Y0199124D02*
X0279026Y0199124D01*
X0279026Y0200723D02*
X0279256Y0200723D01*
X0279256Y0202321D02*
X0279026Y0202321D01*
X0279256Y0203920D02*
X0278572Y0203920D01*
X0279256Y0205518D02*
X0277331Y0205518D01*
X0278587Y0207117D02*
X0279256Y0207117D01*
X0279256Y0208715D02*
X0279026Y0208715D01*
X0279026Y0210314D02*
X0279256Y0210314D01*
X0279256Y0211912D02*
X0279026Y0211912D01*
X0271409Y0215109D02*
X0267703Y0215109D01*
X0268742Y0213511D02*
X0270370Y0213511D01*
X0270086Y0211912D02*
X0269026Y0211912D01*
X0269026Y0210314D02*
X0270086Y0210314D01*
X0270086Y0208715D02*
X0269026Y0208715D01*
X0268587Y0207117D02*
X0270524Y0207117D01*
X0271781Y0205518D02*
X0267331Y0205518D01*
X0268572Y0203920D02*
X0270540Y0203920D01*
X0270086Y0202321D02*
X0269026Y0202321D01*
X0269026Y0200723D02*
X0270086Y0200723D01*
X0270086Y0199124D02*
X0269026Y0199124D01*
X0268757Y0197526D02*
X0270355Y0197526D01*
X0271372Y0195927D02*
X0267740Y0195927D01*
X0261372Y0195927D02*
X0257740Y0195927D01*
X0258757Y0197526D02*
X0260355Y0197526D01*
X0260086Y0199124D02*
X0259026Y0199124D01*
X0259026Y0200723D02*
X0260086Y0200723D01*
X0260086Y0202321D02*
X0259026Y0202321D01*
X0258572Y0203920D02*
X0260540Y0203920D01*
X0261781Y0205518D02*
X0257331Y0205518D01*
X0258587Y0207117D02*
X0260524Y0207117D01*
X0260086Y0208715D02*
X0259026Y0208715D01*
X0259026Y0210314D02*
X0260086Y0210314D01*
X0260086Y0211912D02*
X0259026Y0211912D01*
X0258742Y0213511D02*
X0260370Y0213511D01*
X0261409Y0215109D02*
X0257703Y0215109D01*
X0279256Y0186336D02*
X0212440Y0186336D01*
X0212656Y0184738D02*
X0279256Y0184738D01*
X0279256Y0183139D02*
X0212140Y0183139D01*
X0211156Y0181541D02*
X0279256Y0181541D01*
X0279256Y0179942D02*
X0211156Y0179942D01*
X0211156Y0178344D02*
X0279256Y0178344D01*
X0279256Y0176745D02*
X0211156Y0176745D01*
X0211156Y0175147D02*
X0279256Y0175147D01*
X0279256Y0173548D02*
X0211156Y0173548D01*
X0211156Y0171950D02*
X0279256Y0171950D01*
X0279256Y0170351D02*
X0211156Y0170351D01*
X0211156Y0168753D02*
X0279256Y0168753D01*
X0279791Y0167154D02*
X0256329Y0167154D01*
X0257617Y0165866D02*
X0255040Y0168443D01*
X0253217Y0168443D01*
X0251395Y0168443D01*
X0248817Y0165866D01*
X0248817Y0164043D01*
X0248817Y0162221D01*
X0251395Y0159643D01*
X0253217Y0159643D01*
X0253217Y0164043D01*
X0253217Y0164043D01*
X0248817Y0164043D01*
X0253217Y0164043D01*
X0253217Y0164043D01*
X0253217Y0159643D01*
X0255040Y0159643D01*
X0257617Y0162221D01*
X0257617Y0164043D01*
X0253217Y0164043D01*
X0253217Y0164043D01*
X0253217Y0168443D01*
X0253217Y0164043D01*
X0253217Y0164043D01*
X0257617Y0164043D01*
X0257617Y0165866D01*
X0257617Y0165556D02*
X0281005Y0165556D01*
X0281554Y0165007D02*
X0281554Y0165007D01*
X0282603Y0163957D02*
X0257617Y0163957D01*
X0257617Y0162359D02*
X0284202Y0162359D01*
X0280128Y0160760D02*
X0256157Y0160760D01*
X0253217Y0160760D02*
X0253217Y0160760D01*
X0253217Y0162359D02*
X0253217Y0162359D01*
X0253217Y0163957D02*
X0253217Y0163957D01*
X0253217Y0165556D02*
X0253217Y0165556D01*
X0253217Y0167154D02*
X0253217Y0167154D01*
X0250106Y0167154D02*
X0216046Y0167154D01*
X0217417Y0165556D02*
X0248817Y0165556D01*
X0248817Y0163957D02*
X0217417Y0163957D01*
X0217417Y0162359D02*
X0248817Y0162359D01*
X0250278Y0160760D02*
X0215874Y0160760D01*
X0211156Y0159162D02*
X0277521Y0159162D01*
X0275922Y0157563D02*
X0211156Y0157563D01*
X0211156Y0155965D02*
X0274895Y0155965D01*
X0274101Y0154366D02*
X0211156Y0154366D01*
X0211156Y0152768D02*
X0273673Y0152768D01*
X0273457Y0151169D02*
X0211156Y0151169D01*
X0211156Y0149570D02*
X0273457Y0149570D01*
X0273743Y0147972D02*
X0211156Y0147972D01*
X0211156Y0146373D02*
X0274171Y0146373D01*
X0275045Y0144775D02*
X0210401Y0144775D01*
X0208802Y0143176D02*
X0276183Y0143176D01*
X0277811Y0141578D02*
X0207204Y0141578D01*
X0205605Y0139979D02*
X0280935Y0139979D01*
X0288177Y0139979D02*
X0289256Y0139979D01*
X0289256Y0138381D02*
X0204007Y0138381D01*
X0202408Y0136782D02*
X0289256Y0136782D01*
X0289256Y0135184D02*
X0200810Y0135184D01*
X0199211Y0133585D02*
X0271564Y0133585D01*
X0270405Y0131987D02*
X0197613Y0131987D01*
X0196014Y0130388D02*
X0270405Y0130388D01*
X0270376Y0128790D02*
X0194416Y0128790D01*
X0194379Y0135184D02*
X0194870Y0135184D01*
X0196468Y0136782D02*
X0193165Y0136782D01*
X0191013Y0138381D02*
X0198067Y0138381D01*
X0199665Y0139979D02*
X0191030Y0139979D01*
X0190169Y0141578D02*
X0201264Y0141578D01*
X0202863Y0143176D02*
X0189556Y0143176D01*
X0189556Y0144775D02*
X0204461Y0144775D01*
X0206060Y0146373D02*
X0189556Y0146373D01*
X0189619Y0147972D02*
X0206956Y0147972D01*
X0206956Y0149570D02*
X0190802Y0149570D01*
X0191056Y0151169D02*
X0206956Y0151169D01*
X0206956Y0152768D02*
X0190579Y0152768D01*
X0188495Y0154366D02*
X0206956Y0154366D01*
X0181231Y0125593D02*
X0267179Y0125593D01*
X0268777Y0127191D02*
X0177517Y0127191D01*
X0175919Y0125593D02*
X0179281Y0125593D01*
X0161986Y0117600D02*
X0158956Y0117600D01*
X0158956Y0116002D02*
X0160388Y0116002D01*
X0170326Y0102000D02*
X0204886Y0102000D01*
X0204256Y0101370D01*
X0150586Y0047700D01*
X0129526Y0047700D01*
X0130156Y0048330D01*
X0165826Y0084000D01*
X0174565Y0084000D01*
X0175517Y0083048D01*
X0176840Y0082500D01*
X0178272Y0082500D01*
X0179595Y0083048D01*
X0180608Y0084061D01*
X0181156Y0085384D01*
X0181156Y0086816D01*
X0180608Y0088139D01*
X0179595Y0089152D01*
X0178272Y0089700D01*
X0176840Y0089700D01*
X0175517Y0089152D01*
X0174565Y0088200D01*
X0167326Y0088200D01*
X0168428Y0089302D01*
X0169640Y0088800D01*
X0171072Y0088800D01*
X0172395Y0089348D01*
X0173408Y0090361D01*
X0173956Y0091684D01*
X0173956Y0093116D01*
X0173408Y0094439D01*
X0172395Y0095452D01*
X0171072Y0096000D01*
X0169640Y0096000D01*
X0168317Y0095452D01*
X0167304Y0094439D01*
X0167077Y0093891D01*
X0154923Y0081737D01*
X0154508Y0082739D01*
X0153495Y0083752D01*
X0152493Y0084167D01*
X0170326Y0102000D01*
X0169941Y0101615D02*
X0204501Y0101615D01*
X0202903Y0100017D02*
X0168342Y0100017D01*
X0166744Y0098418D02*
X0201304Y0098418D01*
X0199706Y0096820D02*
X0165145Y0096820D01*
X0163547Y0095221D02*
X0168086Y0095221D01*
X0166809Y0093623D02*
X0161948Y0093623D01*
X0160350Y0092024D02*
X0165210Y0092024D01*
X0163612Y0090426D02*
X0158751Y0090426D01*
X0157153Y0088827D02*
X0162013Y0088827D01*
X0160415Y0087229D02*
X0155554Y0087229D01*
X0153956Y0085630D02*
X0158816Y0085630D01*
X0157218Y0084032D02*
X0152820Y0084032D01*
X0154635Y0082433D02*
X0155619Y0082433D01*
X0161062Y0079236D02*
X0182122Y0079236D01*
X0180524Y0077637D02*
X0159463Y0077637D01*
X0157865Y0076039D02*
X0178925Y0076039D01*
X0177327Y0074440D02*
X0156266Y0074440D01*
X0154668Y0072842D02*
X0175728Y0072842D01*
X0174129Y0071243D02*
X0153069Y0071243D01*
X0151471Y0069645D02*
X0172531Y0069645D01*
X0170932Y0068046D02*
X0149872Y0068046D01*
X0148274Y0066448D02*
X0169334Y0066448D01*
X0167735Y0064849D02*
X0146675Y0064849D01*
X0145077Y0063251D02*
X0166137Y0063251D01*
X0164538Y0061652D02*
X0143478Y0061652D01*
X0141880Y0060054D02*
X0162940Y0060054D01*
X0161341Y0058455D02*
X0140281Y0058455D01*
X0138683Y0056857D02*
X0159743Y0056857D01*
X0158144Y0055258D02*
X0137084Y0055258D01*
X0135486Y0053660D02*
X0156546Y0053660D01*
X0154947Y0052061D02*
X0133887Y0052061D01*
X0132289Y0050463D02*
X0153349Y0050463D01*
X0151750Y0048864D02*
X0130690Y0048864D01*
X0126286Y0053100D02*
X0083986Y0053100D01*
X0081400Y0050514D01*
X0081400Y0051536D01*
X0079344Y0053592D01*
X0084809Y0053676D01*
X0085662Y0053676D01*
X0085675Y0053689D01*
X0085694Y0053689D01*
X0086288Y0054302D01*
X0099048Y0067061D01*
X0114295Y0067061D01*
X0114337Y0067023D01*
X0115156Y0067061D01*
X0115977Y0067061D01*
X0116017Y0067102D01*
X0116075Y0067105D01*
X0116627Y0067711D01*
X0117207Y0068292D01*
X0117207Y0068349D01*
X0119984Y0071400D01*
X0133786Y0071400D01*
X0121786Y0059400D01*
X0111247Y0059400D01*
X0110295Y0060352D01*
X0108972Y0060900D01*
X0107540Y0060900D01*
X0106217Y0060352D01*
X0105204Y0059339D01*
X0104656Y0058016D01*
X0104656Y0056584D01*
X0105204Y0055261D01*
X0106217Y0054248D01*
X0107540Y0053700D01*
X0108972Y0053700D01*
X0110295Y0054248D01*
X0111247Y0055200D01*
X0123526Y0055200D01*
X0128189Y0059863D01*
X0128604Y0058861D01*
X0129617Y0057848D01*
X0130619Y0057433D01*
X0126286Y0053100D01*
X0126846Y0053660D02*
X0083781Y0053660D01*
X0082947Y0052061D02*
X0080875Y0052061D01*
X0080586Y0057811D02*
X0083909Y0057862D01*
X0096078Y0070031D01*
X0097045Y0070998D01*
X0083103Y0070998D01*
X0081400Y0070538D01*
X0081400Y0069425D01*
X0078705Y0066731D01*
X0075695Y0066731D01*
X0077295Y0065131D01*
X0078705Y0065131D01*
X0081400Y0062436D01*
X0081400Y0058625D01*
X0080586Y0057811D01*
X0081230Y0058455D02*
X0084502Y0058455D01*
X0086101Y0060054D02*
X0081400Y0060054D01*
X0081400Y0061652D02*
X0087699Y0061652D01*
X0089298Y0063251D02*
X0080585Y0063251D01*
X0078987Y0064849D02*
X0090896Y0064849D01*
X0092495Y0066448D02*
X0075978Y0066448D01*
X0080021Y0068046D02*
X0094093Y0068046D01*
X0095692Y0069645D02*
X0081400Y0069645D01*
X0083278Y0077167D02*
X0079816Y0078741D01*
X0081400Y0080325D01*
X0081400Y0084136D01*
X0079141Y0086395D01*
X0091294Y0098286D01*
X0091886Y0098746D01*
X0091903Y0098882D01*
X0092001Y0098977D01*
X0092009Y0099728D01*
X0092690Y0105174D01*
X0103358Y0115487D01*
X0106363Y0115487D01*
X0118557Y0103293D01*
X0117804Y0102539D01*
X0117256Y0101216D01*
X0117256Y0099784D01*
X0117804Y0098461D01*
X0118465Y0097800D01*
X0117804Y0097139D01*
X0117256Y0095816D01*
X0117256Y0094384D01*
X0117804Y0093061D01*
X0118817Y0092048D01*
X0120140Y0091500D01*
X0121486Y0091500D01*
X0114267Y0084280D01*
X0113895Y0084652D01*
X0112572Y0085200D01*
X0111140Y0085200D01*
X0109817Y0084652D01*
X0108804Y0083639D01*
X0108256Y0082316D01*
X0108256Y0080884D01*
X0108804Y0079561D01*
X0109817Y0078548D01*
X0110613Y0078218D01*
X0108978Y0077167D01*
X0083278Y0077167D01*
X0082243Y0077637D02*
X0109710Y0077637D01*
X0109129Y0079236D02*
X0080311Y0079236D01*
X0081400Y0080834D02*
X0108276Y0080834D01*
X0108304Y0082433D02*
X0081400Y0082433D01*
X0081400Y0084032D02*
X0109196Y0084032D01*
X0115616Y0085630D02*
X0079906Y0085630D01*
X0079992Y0087229D02*
X0117215Y0087229D01*
X0118813Y0088827D02*
X0081626Y0088827D01*
X0083260Y0090426D02*
X0120412Y0090426D01*
X0118875Y0092024D02*
X0084894Y0092024D01*
X0086528Y0093623D02*
X0117571Y0093623D01*
X0117256Y0095221D02*
X0088161Y0095221D01*
X0089795Y0096820D02*
X0117672Y0096820D01*
X0117847Y0098418D02*
X0091464Y0098418D01*
X0092045Y0100017D02*
X0117256Y0100017D01*
X0117421Y0101615D02*
X0092245Y0101615D01*
X0092445Y0103214D02*
X0118478Y0103214D01*
X0117038Y0104812D02*
X0092644Y0104812D01*
X0093969Y0106411D02*
X0115439Y0106411D01*
X0113841Y0108009D02*
X0095622Y0108009D01*
X0097276Y0109608D02*
X0112242Y0109608D01*
X0110644Y0111206D02*
X0098930Y0111206D01*
X0100583Y0112805D02*
X0109045Y0112805D01*
X0107447Y0114403D02*
X0102237Y0114403D01*
X0099501Y0117600D02*
X0090526Y0117600D01*
X0088927Y0116002D02*
X0097848Y0116002D01*
X0096194Y0114403D02*
X0087329Y0114403D01*
X0085730Y0112805D02*
X0094540Y0112805D01*
X0092887Y0111206D02*
X0084132Y0111206D01*
X0082533Y0109608D02*
X0091233Y0109608D01*
X0089580Y0108009D02*
X0080935Y0108009D01*
X0081232Y0106411D02*
X0088601Y0106411D01*
X0088412Y0104812D02*
X0081687Y0104812D01*
X0081687Y0103214D02*
X0088212Y0103214D01*
X0088012Y0101615D02*
X0081396Y0101615D01*
X0079798Y0100017D02*
X0087057Y0100017D01*
X0085423Y0098418D02*
X0071687Y0098418D01*
X0071687Y0096820D02*
X0073984Y0096820D01*
X0072385Y0095221D02*
X0070402Y0095221D01*
X0072200Y0093623D02*
X0062656Y0093623D01*
X0062656Y0095221D02*
X0063198Y0095221D01*
X0062656Y0092024D02*
X0064282Y0092024D01*
X0062683Y0090426D02*
X0062656Y0090426D01*
X0069318Y0092024D02*
X0072200Y0092024D01*
X0073000Y0090426D02*
X0070917Y0090426D01*
X0071687Y0088827D02*
X0072013Y0088827D01*
X0081215Y0095221D02*
X0082156Y0095221D01*
X0083790Y0096820D02*
X0079616Y0096820D01*
X0073802Y0100017D02*
X0071687Y0100017D01*
X0072204Y0101615D02*
X0070627Y0101615D01*
X0062798Y0104812D02*
X0060856Y0104812D01*
X0060856Y0103214D02*
X0061200Y0103214D01*
X0060856Y0106411D02*
X0062908Y0106411D01*
X0061913Y0108009D02*
X0060856Y0108009D01*
X0060856Y0109608D02*
X0061913Y0109608D01*
X0061913Y0111206D02*
X0060856Y0111206D01*
X0060856Y0112805D02*
X0063262Y0112805D01*
X0060856Y0114403D02*
X0071913Y0114403D01*
X0071914Y0112805D02*
X0070338Y0112805D01*
X0071687Y0111206D02*
X0073513Y0111206D01*
X0072994Y0109608D02*
X0071687Y0109608D01*
X0071913Y0116002D02*
X0069076Y0116002D01*
X0068705Y0115631D02*
X0071400Y0118325D01*
X0071400Y0122136D01*
X0068705Y0124831D01*
X0064895Y0124831D01*
X0062200Y0122136D01*
X0062200Y0118325D01*
X0064895Y0115631D01*
X0068705Y0115631D01*
X0070675Y0117600D02*
X0072658Y0117600D01*
X0071400Y0119199D02*
X0074256Y0119199D01*
X0074895Y0121131D02*
X0078705Y0121131D01*
X0081400Y0123825D01*
X0081400Y0127636D01*
X0078705Y0130331D01*
X0074895Y0130331D01*
X0072200Y0127636D01*
X0072200Y0123825D01*
X0074895Y0121131D01*
X0073630Y0122396D02*
X0071140Y0122396D01*
X0071400Y0120797D02*
X0087783Y0120797D01*
X0086185Y0119199D02*
X0079344Y0119199D01*
X0080942Y0117600D02*
X0084586Y0117600D01*
X0082988Y0116002D02*
X0081687Y0116002D01*
X0079970Y0122396D02*
X0089382Y0122396D01*
X0090980Y0123994D02*
X0081400Y0123994D01*
X0081400Y0125593D02*
X0092579Y0125593D01*
X0094177Y0127191D02*
X0081400Y0127191D01*
X0080246Y0128790D02*
X0095776Y0128790D01*
X0097374Y0130388D02*
X0071400Y0130388D01*
X0071400Y0131987D02*
X0074838Y0131987D01*
X0073240Y0133585D02*
X0070851Y0133585D01*
X0072200Y0135184D02*
X0069252Y0135184D01*
X0071008Y0136782D02*
X0072200Y0136782D01*
X0079857Y0139979D02*
X0106965Y0139979D01*
X0105367Y0138381D02*
X0081400Y0138381D01*
X0081400Y0136782D02*
X0103768Y0136782D01*
X0102170Y0135184D02*
X0081400Y0135184D01*
X0080360Y0133585D02*
X0100571Y0133585D01*
X0098973Y0131987D02*
X0078762Y0131987D01*
X0073354Y0128790D02*
X0070965Y0128790D01*
X0072200Y0127191D02*
X0069366Y0127191D01*
X0069542Y0123994D02*
X0072200Y0123994D01*
X0072200Y0125593D02*
X0060856Y0125593D01*
X0060856Y0127191D02*
X0064234Y0127191D01*
X0062635Y0128790D02*
X0061216Y0128790D01*
X0060856Y0123994D02*
X0064058Y0123994D01*
X0062460Y0122396D02*
X0060856Y0122396D01*
X0060856Y0120797D02*
X0062200Y0120797D01*
X0062200Y0119199D02*
X0060856Y0119199D01*
X0060856Y0117600D02*
X0062925Y0117600D01*
X0064524Y0116002D02*
X0060856Y0116002D01*
X0092125Y0119199D02*
X0101151Y0119199D01*
X0096920Y0123994D02*
X0110721Y0123994D01*
X0109106Y0122396D02*
X0095322Y0122396D01*
X0093723Y0120797D02*
X0107491Y0120797D01*
X0110232Y0117600D02*
X0127605Y0117600D01*
X0127156Y0119199D02*
X0111846Y0119199D01*
X0113461Y0120797D02*
X0127438Y0120797D01*
X0128661Y0122396D02*
X0115076Y0122396D01*
X0116691Y0123994D02*
X0132256Y0123994D01*
X0132256Y0125593D02*
X0122240Y0125593D01*
X0123352Y0127191D02*
X0132256Y0127191D01*
X0132256Y0128790D02*
X0123556Y0128790D01*
X0123029Y0130388D02*
X0132256Y0130388D01*
X0132256Y0131987D02*
X0120704Y0131987D01*
X0119208Y0131987D02*
X0104913Y0131987D01*
X0106511Y0133585D02*
X0132256Y0133585D01*
X0132256Y0135184D02*
X0108110Y0135184D01*
X0109708Y0136782D02*
X0132256Y0136782D01*
X0132256Y0138381D02*
X0111307Y0138381D01*
X0112905Y0139979D02*
X0132256Y0139979D01*
X0132256Y0141578D02*
X0114504Y0141578D01*
X0116102Y0143176D02*
X0132256Y0143176D01*
X0132256Y0144775D02*
X0117701Y0144775D01*
X0119299Y0146373D02*
X0132256Y0146373D01*
X0137487Y0159162D02*
X0142156Y0159162D01*
X0142156Y0160760D02*
X0139086Y0160760D01*
X0140684Y0162359D02*
X0142156Y0162359D01*
X0132123Y0165556D02*
X0123989Y0165556D01*
X0151724Y0184738D02*
X0029856Y0184738D01*
X0029856Y0186336D02*
X0153322Y0186336D01*
X0154921Y0187935D02*
X0029856Y0187935D01*
X0029856Y0189533D02*
X0156519Y0189533D01*
X0158118Y0191132D02*
X0029856Y0191132D01*
X0029856Y0192730D02*
X0159716Y0192730D01*
X0161315Y0194329D02*
X0029856Y0194329D01*
X0029856Y0195927D02*
X0095372Y0195927D01*
X0094355Y0197526D02*
X0077244Y0197526D01*
X0079474Y0199124D02*
X0094086Y0199124D01*
X0094086Y0200723D02*
X0080975Y0200723D01*
X0081898Y0202321D02*
X0094086Y0202321D01*
X0094540Y0203920D02*
X0082558Y0203920D01*
X0082986Y0205518D02*
X0095781Y0205518D01*
X0094524Y0207117D02*
X0083100Y0207117D01*
X0083100Y0208715D02*
X0094086Y0208715D01*
X0094086Y0210314D02*
X0082726Y0210314D01*
X0082261Y0211912D02*
X0094086Y0211912D01*
X0094370Y0213511D02*
X0081338Y0213511D01*
X0080102Y0215109D02*
X0095409Y0215109D01*
X0101703Y0215109D02*
X0105409Y0215109D01*
X0104370Y0213511D02*
X0102742Y0213511D01*
X0103026Y0211912D02*
X0104086Y0211912D01*
X0104086Y0210314D02*
X0103026Y0210314D01*
X0103026Y0208715D02*
X0104086Y0208715D01*
X0104524Y0207117D02*
X0102587Y0207117D01*
X0101331Y0205518D02*
X0105781Y0205518D01*
X0104540Y0203920D02*
X0102572Y0203920D01*
X0103026Y0202321D02*
X0104086Y0202321D01*
X0104086Y0200723D02*
X0103026Y0200723D01*
X0103026Y0199124D02*
X0104086Y0199124D01*
X0104355Y0197526D02*
X0102757Y0197526D01*
X0101740Y0195927D02*
X0105372Y0195927D01*
X0111740Y0195927D02*
X0115372Y0195927D01*
X0114355Y0197526D02*
X0112757Y0197526D01*
X0113026Y0199124D02*
X0114086Y0199124D01*
X0114086Y0200723D02*
X0113026Y0200723D01*
X0113026Y0202321D02*
X0114086Y0202321D01*
X0114540Y0203920D02*
X0112572Y0203920D01*
X0111331Y0205518D02*
X0115781Y0205518D01*
X0114524Y0207117D02*
X0112587Y0207117D01*
X0113026Y0208715D02*
X0114086Y0208715D01*
X0114086Y0210314D02*
X0113026Y0210314D01*
X0113026Y0211912D02*
X0114086Y0211912D01*
X0114370Y0213511D02*
X0112742Y0213511D01*
X0111703Y0215109D02*
X0115409Y0215109D01*
X0121703Y0215109D02*
X0125126Y0215109D01*
X0124158Y0213511D02*
X0122742Y0213511D01*
X0123026Y0211912D02*
X0123886Y0211912D01*
X0123886Y0210365D02*
X0123886Y0208697D01*
X0124001Y0207971D01*
X0124228Y0207272D01*
X0124562Y0206617D01*
X0124994Y0206023D01*
X0125514Y0205503D01*
X0125517Y0205500D01*
X0125514Y0205497D01*
X0124994Y0204977D01*
X0124562Y0204383D01*
X0124228Y0203728D01*
X0124001Y0203029D01*
X0123886Y0202303D01*
X0123886Y0200635D01*
X0128421Y0200635D01*
X0128421Y0204395D01*
X0128421Y0210365D01*
X0123886Y0210365D01*
X0123886Y0210314D02*
X0123026Y0210314D01*
X0123026Y0208715D02*
X0123886Y0208715D01*
X0124307Y0207117D02*
X0122587Y0207117D01*
X0121331Y0205518D02*
X0125498Y0205518D01*
X0124326Y0203920D02*
X0122572Y0203920D01*
X0123026Y0202321D02*
X0123889Y0202321D01*
X0123886Y0200723D02*
X0123026Y0200723D01*
X0123886Y0200365D02*
X0123886Y0198697D01*
X0124001Y0197971D01*
X0124228Y0197272D01*
X0124562Y0196617D01*
X0124994Y0196023D01*
X0125514Y0195503D01*
X0126108Y0195071D01*
X0126763Y0194737D01*
X0127462Y0194510D01*
X0128188Y0194395D01*
X0128421Y0194395D01*
X0128421Y0200365D01*
X0128691Y0200365D01*
X0128691Y0200635D01*
X0133226Y0200635D01*
X0133226Y0202303D01*
X0133111Y0203029D01*
X0132884Y0203728D01*
X0132550Y0204383D01*
X0132118Y0204977D01*
X0131598Y0205497D01*
X0131594Y0205500D01*
X0131598Y0205503D01*
X0132118Y0206023D01*
X0132550Y0206617D01*
X0132884Y0207272D01*
X0133111Y0207971D01*
X0133226Y0208697D01*
X0133226Y0210365D01*
X0128691Y0210365D01*
X0128691Y0200635D01*
X0128421Y0200635D01*
X0128421Y0200365D01*
X0123886Y0200365D01*
X0123886Y0199124D02*
X0123026Y0199124D01*
X0122757Y0197526D02*
X0124146Y0197526D01*
X0125089Y0195927D02*
X0121740Y0195927D01*
X0128421Y0195927D02*
X0128691Y0195927D01*
X0128691Y0194395D02*
X0128923Y0194395D01*
X0129649Y0194510D01*
X0130349Y0194737D01*
X0131004Y0195071D01*
X0131598Y0195503D01*
X0132118Y0196023D01*
X0132550Y0196617D01*
X0132884Y0197272D01*
X0133111Y0197971D01*
X0133226Y0198697D01*
X0133226Y0200365D01*
X0128691Y0200365D01*
X0128691Y0194395D01*
X0132023Y0195927D02*
X0135372Y0195927D01*
X0134355Y0197526D02*
X0132966Y0197526D01*
X0133226Y0199124D02*
X0134086Y0199124D01*
X0134086Y0200723D02*
X0133226Y0200723D01*
X0133223Y0202321D02*
X0134086Y0202321D01*
X0134540Y0203920D02*
X0132786Y0203920D01*
X0131614Y0205518D02*
X0135781Y0205518D01*
X0134524Y0207117D02*
X0132805Y0207117D01*
X0133226Y0208715D02*
X0134086Y0208715D01*
X0134086Y0210314D02*
X0133226Y0210314D01*
X0133226Y0211912D02*
X0134086Y0211912D01*
X0134370Y0213511D02*
X0132954Y0213511D01*
X0131986Y0215109D02*
X0135409Y0215109D01*
X0141703Y0215109D02*
X0145409Y0215109D01*
X0144370Y0213511D02*
X0142742Y0213511D01*
X0143026Y0211912D02*
X0144086Y0211912D01*
X0144086Y0210314D02*
X0143026Y0210314D01*
X0143026Y0208715D02*
X0144086Y0208715D01*
X0144524Y0207117D02*
X0142587Y0207117D01*
X0141331Y0205518D02*
X0145781Y0205518D01*
X0144540Y0203920D02*
X0142572Y0203920D01*
X0143026Y0202321D02*
X0144086Y0202321D01*
X0144086Y0200723D02*
X0143026Y0200723D01*
X0143026Y0199124D02*
X0144086Y0199124D01*
X0144355Y0197526D02*
X0142757Y0197526D01*
X0141740Y0195927D02*
X0145372Y0195927D01*
X0151740Y0195927D02*
X0155372Y0195927D01*
X0154355Y0197526D02*
X0152757Y0197526D01*
X0153026Y0199124D02*
X0154086Y0199124D01*
X0154086Y0200723D02*
X0153026Y0200723D01*
X0153026Y0202321D02*
X0154086Y0202321D01*
X0154540Y0203920D02*
X0152572Y0203920D01*
X0151331Y0205518D02*
X0155781Y0205518D01*
X0154524Y0207117D02*
X0152587Y0207117D01*
X0153026Y0208715D02*
X0154086Y0208715D01*
X0154086Y0210314D02*
X0153026Y0210314D01*
X0153026Y0211912D02*
X0154086Y0211912D01*
X0154370Y0213511D02*
X0152742Y0213511D01*
X0151703Y0215109D02*
X0155409Y0215109D01*
X0161703Y0215109D02*
X0165409Y0215109D01*
X0164370Y0213511D02*
X0162742Y0213511D01*
X0163026Y0211912D02*
X0164086Y0211912D01*
X0164086Y0210314D02*
X0163026Y0210314D01*
X0163026Y0208715D02*
X0164086Y0208715D01*
X0164524Y0207117D02*
X0162587Y0207117D01*
X0161331Y0205518D02*
X0165781Y0205518D01*
X0164540Y0203920D02*
X0162572Y0203920D01*
X0163026Y0202321D02*
X0164086Y0202321D01*
X0164086Y0200723D02*
X0163026Y0200723D01*
X0163026Y0199124D02*
X0164086Y0199124D01*
X0164355Y0197526D02*
X0162757Y0197526D01*
X0162913Y0195927D02*
X0161740Y0195927D01*
X0128691Y0197526D02*
X0128421Y0197526D01*
X0128421Y0199124D02*
X0128691Y0199124D01*
X0128691Y0200723D02*
X0128421Y0200723D01*
X0128421Y0202321D02*
X0128691Y0202321D01*
X0128691Y0203920D02*
X0128421Y0203920D01*
X0128421Y0205518D02*
X0128691Y0205518D01*
X0128691Y0207117D02*
X0128421Y0207117D01*
X0128421Y0208715D02*
X0128691Y0208715D01*
X0128691Y0210314D02*
X0128421Y0210314D01*
X0073114Y0171950D02*
X0070624Y0171950D01*
X0072200Y0170351D02*
X0069026Y0170351D01*
X0063718Y0167154D02*
X0029856Y0167154D01*
X0029856Y0165556D02*
X0062200Y0165556D01*
X0062200Y0163957D02*
X0029856Y0163957D01*
X0029856Y0162359D02*
X0062200Y0162359D01*
X0063265Y0160760D02*
X0029856Y0160760D01*
X0029856Y0159162D02*
X0064864Y0159162D01*
X0070172Y0155965D02*
X0072661Y0155965D01*
X0103314Y0130388D02*
X0116883Y0130388D01*
X0115565Y0128790D02*
X0101716Y0128790D01*
X0100117Y0127191D02*
X0113950Y0127191D01*
X0112335Y0125593D02*
X0098519Y0125593D01*
X0111788Y0116002D02*
X0128656Y0116002D01*
X0128656Y0114403D02*
X0113386Y0114403D01*
X0114985Y0112805D02*
X0128656Y0112805D01*
X0126471Y0111206D02*
X0116583Y0111206D01*
X0118182Y0109608D02*
X0125477Y0109608D01*
X0125356Y0108009D02*
X0119780Y0108009D01*
X0121379Y0106411D02*
X0126054Y0106411D01*
X0127598Y0104812D02*
X0122719Y0104812D01*
X0123233Y0103214D02*
X0126000Y0103214D01*
X0124401Y0101615D02*
X0124291Y0101615D01*
X0162660Y0080834D02*
X0183721Y0080834D01*
X0185319Y0082433D02*
X0164259Y0082433D01*
X0167953Y0088827D02*
X0169574Y0088827D01*
X0171137Y0088827D02*
X0175192Y0088827D01*
X0173435Y0090426D02*
X0193312Y0090426D01*
X0194910Y0092024D02*
X0173956Y0092024D01*
X0173746Y0093623D02*
X0196509Y0093623D01*
X0198107Y0095221D02*
X0172626Y0095221D01*
X0179920Y0088827D02*
X0191713Y0088827D01*
X0190115Y0087229D02*
X0180985Y0087229D01*
X0181156Y0085630D02*
X0188516Y0085630D01*
X0186918Y0084032D02*
X0180579Y0084032D01*
X0188062Y0079236D02*
X0235450Y0079236D01*
X0233852Y0080834D02*
X0189660Y0080834D01*
X0191259Y0082433D02*
X0232253Y0082433D01*
X0230655Y0084032D02*
X0192857Y0084032D01*
X0194456Y0085630D02*
X0229056Y0085630D01*
X0227458Y0087229D02*
X0196054Y0087229D01*
X0197653Y0088827D02*
X0225859Y0088827D01*
X0224260Y0090426D02*
X0199251Y0090426D01*
X0200850Y0092024D02*
X0222662Y0092024D01*
X0221063Y0093623D02*
X0202448Y0093623D01*
X0204047Y0095221D02*
X0219465Y0095221D01*
X0217866Y0096820D02*
X0205645Y0096820D01*
X0207226Y0098400D02*
X0214165Y0098400D01*
X0215117Y0097448D01*
X0216440Y0096900D01*
X0217786Y0096900D01*
X0261404Y0053282D01*
X0263144Y0053282D01*
X0269594Y0053282D01*
X0269594Y0052144D01*
X0270531Y0051207D01*
X0273537Y0051207D01*
X0272709Y0049207D01*
X0272709Y0045809D01*
X0274009Y0042670D01*
X0276411Y0040268D01*
X0279550Y0038968D01*
X0282948Y0038968D01*
X0286086Y0040268D01*
X0288489Y0042670D01*
X0289256Y0044522D01*
X0289256Y0032695D01*
X0281554Y0024993D01*
X0280063Y0023502D01*
X0279256Y0021554D01*
X0279256Y0015800D01*
X0277861Y0015800D01*
X0278456Y0016394D01*
X0279156Y0018085D01*
X0279156Y0022915D01*
X0278456Y0024606D01*
X0277561Y0025500D01*
X0278456Y0026394D01*
X0279156Y0028085D01*
X0279156Y0032915D01*
X0278456Y0034606D01*
X0277162Y0035900D01*
X0275471Y0036600D01*
X0273641Y0036600D01*
X0271950Y0035900D01*
X0270656Y0034606D01*
X0269956Y0032915D01*
X0269956Y0028085D01*
X0270656Y0026394D01*
X0271551Y0025500D01*
X0270656Y0024606D01*
X0269956Y0022915D01*
X0269956Y0018085D01*
X0270656Y0016394D01*
X0271251Y0015800D01*
X0267861Y0015800D01*
X0268456Y0016394D01*
X0269156Y0018085D01*
X0269156Y0022915D01*
X0268456Y0024606D01*
X0267561Y0025500D01*
X0268456Y0026394D01*
X0269156Y0028085D01*
X0269156Y0032915D01*
X0268456Y0034606D01*
X0267162Y0035900D01*
X0265471Y0036600D01*
X0263641Y0036600D01*
X0261950Y0035900D01*
X0260656Y0034606D01*
X0259956Y0032915D01*
X0259956Y0028085D01*
X0260656Y0026394D01*
X0261551Y0025500D01*
X0260656Y0024606D01*
X0259956Y0022915D01*
X0259956Y0018085D01*
X0260656Y0016394D01*
X0261251Y0015800D01*
X0257861Y0015800D01*
X0258456Y0016394D01*
X0259156Y0018085D01*
X0259156Y0022915D01*
X0258456Y0024606D01*
X0257561Y0025500D01*
X0258456Y0026394D01*
X0259156Y0028085D01*
X0259156Y0032915D01*
X0258456Y0034606D01*
X0257162Y0035900D01*
X0255471Y0036600D01*
X0253641Y0036600D01*
X0251950Y0035900D01*
X0250656Y0034606D01*
X0249956Y0032915D01*
X0249956Y0028085D01*
X0250656Y0026394D01*
X0251551Y0025500D01*
X0250656Y0024606D01*
X0249956Y0022915D01*
X0249956Y0018085D01*
X0250656Y0016394D01*
X0251251Y0015800D01*
X0247861Y0015800D01*
X0248456Y0016394D01*
X0249156Y0018085D01*
X0249156Y0022915D01*
X0248456Y0024606D01*
X0247561Y0025500D01*
X0248456Y0026394D01*
X0249156Y0028085D01*
X0249156Y0032915D01*
X0248456Y0034606D01*
X0247162Y0035900D01*
X0245471Y0036600D01*
X0243641Y0036600D01*
X0241950Y0035900D01*
X0240656Y0034606D01*
X0239956Y0032915D01*
X0239956Y0028085D01*
X0240656Y0026394D01*
X0241551Y0025500D01*
X0240656Y0024606D01*
X0239956Y0022915D01*
X0239956Y0018085D01*
X0240656Y0016394D01*
X0241251Y0015800D01*
X0237861Y0015800D01*
X0238456Y0016394D01*
X0239156Y0018085D01*
X0239156Y0022915D01*
X0238456Y0024606D01*
X0237561Y0025500D01*
X0238456Y0026394D01*
X0239156Y0028085D01*
X0239156Y0032915D01*
X0238456Y0034606D01*
X0237162Y0035900D01*
X0235471Y0036600D01*
X0233641Y0036600D01*
X0231950Y0035900D01*
X0230656Y0034606D01*
X0229956Y0032915D01*
X0229956Y0028085D01*
X0230656Y0026394D01*
X0231551Y0025500D01*
X0230656Y0024606D01*
X0229956Y0022915D01*
X0229956Y0018085D01*
X0230656Y0016394D01*
X0231251Y0015800D01*
X0227861Y0015800D01*
X0228456Y0016394D01*
X0229156Y0018085D01*
X0229156Y0022915D01*
X0228456Y0024606D01*
X0227561Y0025500D01*
X0228456Y0026394D01*
X0229156Y0028085D01*
X0229156Y0032915D01*
X0228456Y0034606D01*
X0227162Y0035900D01*
X0225471Y0036600D01*
X0223641Y0036600D01*
X0221950Y0035900D01*
X0220656Y0034606D01*
X0219956Y0032915D01*
X0219956Y0028085D01*
X0220656Y0026394D01*
X0221551Y0025500D01*
X0220656Y0024606D01*
X0219956Y0022915D01*
X0219956Y0018085D01*
X0220656Y0016394D01*
X0221251Y0015800D01*
X0207613Y0015800D01*
X0208345Y0016533D01*
X0209026Y0018176D01*
X0209026Y0022824D01*
X0208345Y0024467D01*
X0207313Y0025500D01*
X0208345Y0026533D01*
X0209026Y0028176D01*
X0209026Y0032824D01*
X0208345Y0034467D01*
X0207088Y0035725D01*
X0205445Y0036405D01*
X0203667Y0036405D01*
X0202024Y0035725D01*
X0200766Y0034467D01*
X0200086Y0032824D01*
X0200086Y0028176D01*
X0200766Y0026533D01*
X0201799Y0025500D01*
X0200766Y0024467D01*
X0200086Y0022824D01*
X0200086Y0018176D01*
X0200766Y0016533D01*
X0201499Y0015800D01*
X0197895Y0015800D01*
X0198118Y0016023D01*
X0198550Y0016617D01*
X0198884Y0017272D01*
X0199111Y0017971D01*
X0199226Y0018697D01*
X0199226Y0020365D01*
X0194691Y0020365D01*
X0194691Y0020635D01*
X0199226Y0020635D01*
X0199226Y0022303D01*
X0199111Y0023029D01*
X0198884Y0023728D01*
X0198550Y0024383D01*
X0198118Y0024977D01*
X0197598Y0025497D01*
X0197594Y0025500D01*
X0197598Y0025503D01*
X0198118Y0026023D01*
X0198550Y0026617D01*
X0198884Y0027272D01*
X0199111Y0027971D01*
X0199226Y0028697D01*
X0199226Y0030365D01*
X0194691Y0030365D01*
X0194691Y0030635D01*
X0199226Y0030635D01*
X0199226Y0032303D01*
X0199111Y0033029D01*
X0198884Y0033728D01*
X0198550Y0034383D01*
X0198118Y0034977D01*
X0197598Y0035497D01*
X0197004Y0035929D01*
X0196349Y0036263D01*
X0195649Y0036490D01*
X0194923Y0036605D01*
X0194691Y0036605D01*
X0194691Y0030635D01*
X0194421Y0030635D01*
X0194421Y0036605D01*
X0194188Y0036605D01*
X0193462Y0036490D01*
X0192763Y0036263D01*
X0192108Y0035929D01*
X0191514Y0035497D01*
X0190994Y0034977D01*
X0190562Y0034383D01*
X0190228Y0033728D01*
X0190001Y0033029D01*
X0189886Y0032303D01*
X0189886Y0030635D01*
X0194421Y0030635D01*
X0194421Y0030365D01*
X0194691Y0030365D01*
X0194691Y0024395D01*
X0194691Y0020635D01*
X0194421Y0020635D01*
X0194421Y0030365D01*
X0189886Y0030365D01*
X0189886Y0028697D01*
X0190001Y0027971D01*
X0190228Y0027272D01*
X0190562Y0026617D01*
X0190994Y0026023D01*
X0191514Y0025503D01*
X0191517Y0025500D01*
X0191514Y0025497D01*
X0190994Y0024977D01*
X0190562Y0024383D01*
X0190228Y0023728D01*
X0190001Y0023029D01*
X0189886Y0022303D01*
X0189886Y0020635D01*
X0194421Y0020635D01*
X0194421Y0020365D01*
X0189886Y0020365D01*
X0189886Y0018697D01*
X0190001Y0017971D01*
X0190228Y0017272D01*
X0190562Y0016617D01*
X0190994Y0016023D01*
X0191216Y0015800D01*
X0187895Y0015800D01*
X0188118Y0016023D01*
X0188550Y0016617D01*
X0188884Y0017272D01*
X0189111Y0017971D01*
X0189226Y0018697D01*
X0189226Y0020365D01*
X0184691Y0020365D01*
X0184691Y0020635D01*
X0189226Y0020635D01*
X0189226Y0022303D01*
X0189111Y0023029D01*
X0188884Y0023728D01*
X0188550Y0024383D01*
X0188118Y0024977D01*
X0187598Y0025497D01*
X0187594Y0025500D01*
X0187598Y0025503D01*
X0188118Y0026023D01*
X0188550Y0026617D01*
X0188884Y0027272D01*
X0189111Y0027971D01*
X0189226Y0028697D01*
X0189226Y0030365D01*
X0184691Y0030365D01*
X0184691Y0030635D01*
X0189226Y0030635D01*
X0189226Y0032303D01*
X0189111Y0033029D01*
X0188884Y0033728D01*
X0188550Y0034383D01*
X0188118Y0034977D01*
X0187598Y0035497D01*
X0187004Y0035929D01*
X0186349Y0036263D01*
X0185649Y0036490D01*
X0184923Y0036605D01*
X0184691Y0036605D01*
X0184691Y0030635D01*
X0184421Y0030635D01*
X0184421Y0036605D01*
X0184188Y0036605D01*
X0183462Y0036490D01*
X0182763Y0036263D01*
X0182108Y0035929D01*
X0181514Y0035497D01*
X0180994Y0034977D01*
X0180562Y0034383D01*
X0180228Y0033728D01*
X0180001Y0033029D01*
X0179886Y0032303D01*
X0179886Y0030635D01*
X0184421Y0030635D01*
X0184421Y0030365D01*
X0184691Y0030365D01*
X0184691Y0026605D01*
X0184691Y0020635D01*
X0184421Y0020635D01*
X0184421Y0030365D01*
X0179886Y0030365D01*
X0179886Y0028697D01*
X0180001Y0027971D01*
X0180228Y0027272D01*
X0180562Y0026617D01*
X0180994Y0026023D01*
X0181514Y0025503D01*
X0181517Y0025500D01*
X0181514Y0025497D01*
X0180994Y0024977D01*
X0180562Y0024383D01*
X0180228Y0023728D01*
X0180001Y0023029D01*
X0179886Y0022303D01*
X0179886Y0020635D01*
X0184421Y0020635D01*
X0184421Y0020365D01*
X0179886Y0020365D01*
X0179886Y0018697D01*
X0180001Y0017971D01*
X0180228Y0017272D01*
X0180562Y0016617D01*
X0180994Y0016023D01*
X0181216Y0015800D01*
X0177613Y0015800D01*
X0178345Y0016533D01*
X0179026Y0018176D01*
X0179026Y0022824D01*
X0178345Y0024467D01*
X0177313Y0025500D01*
X0178345Y0026533D01*
X0179026Y0028176D01*
X0179026Y0032824D01*
X0178345Y0034467D01*
X0177088Y0035725D01*
X0176056Y0036152D01*
X0176056Y0058170D01*
X0174856Y0059370D01*
X0174856Y0060716D01*
X0174308Y0062039D01*
X0173295Y0063052D01*
X0172293Y0063467D01*
X0207226Y0098400D01*
X0220756Y0099870D02*
X0220756Y0101216D01*
X0220431Y0102000D01*
X0245086Y0102000D01*
X0258676Y0088410D01*
X0258676Y0078528D01*
X0259907Y0077298D01*
X0268174Y0069030D01*
X0269594Y0069030D01*
X0269594Y0067892D01*
X0270293Y0067193D01*
X0269594Y0066493D01*
X0269594Y0060018D01*
X0270293Y0059319D01*
X0269594Y0058619D01*
X0269594Y0057482D01*
X0263144Y0057482D01*
X0220756Y0099870D01*
X0220756Y0100017D02*
X0247069Y0100017D01*
X0245471Y0101615D02*
X0220591Y0101615D01*
X0222208Y0098418D02*
X0248668Y0098418D01*
X0250266Y0096820D02*
X0223806Y0096820D01*
X0225405Y0095221D02*
X0251865Y0095221D01*
X0253463Y0093623D02*
X0227003Y0093623D01*
X0228602Y0092024D02*
X0255062Y0092024D01*
X0256660Y0090426D02*
X0230200Y0090426D01*
X0231799Y0088827D02*
X0258259Y0088827D01*
X0258676Y0087229D02*
X0233397Y0087229D01*
X0234996Y0085630D02*
X0258676Y0085630D01*
X0258676Y0084032D02*
X0236594Y0084032D01*
X0238193Y0082433D02*
X0258676Y0082433D01*
X0258676Y0080834D02*
X0239791Y0080834D01*
X0241390Y0079236D02*
X0258676Y0079236D01*
X0259567Y0077637D02*
X0242988Y0077637D01*
X0244587Y0076039D02*
X0261165Y0076039D01*
X0262764Y0074440D02*
X0246185Y0074440D01*
X0247784Y0072842D02*
X0264362Y0072842D01*
X0265961Y0071243D02*
X0249382Y0071243D01*
X0250981Y0069645D02*
X0267559Y0069645D01*
X0269594Y0068046D02*
X0252579Y0068046D01*
X0254178Y0066448D02*
X0269594Y0066448D01*
X0269594Y0064849D02*
X0255776Y0064849D01*
X0257375Y0063251D02*
X0269594Y0063251D01*
X0269594Y0061652D02*
X0258973Y0061652D01*
X0260572Y0060054D02*
X0269594Y0060054D01*
X0269594Y0058455D02*
X0262170Y0058455D01*
X0257829Y0056857D02*
X0176056Y0056857D01*
X0176056Y0055258D02*
X0259428Y0055258D01*
X0261026Y0053660D02*
X0176056Y0053660D01*
X0176056Y0052061D02*
X0269677Y0052061D01*
X0273229Y0050463D02*
X0176056Y0050463D01*
X0176056Y0048864D02*
X0272709Y0048864D01*
X0272709Y0047266D02*
X0176056Y0047266D01*
X0176056Y0045667D02*
X0272767Y0045667D01*
X0273430Y0044069D02*
X0176056Y0044069D01*
X0176056Y0042470D02*
X0274209Y0042470D01*
X0275807Y0040872D02*
X0176056Y0040872D01*
X0176056Y0039273D02*
X0278813Y0039273D01*
X0276735Y0036076D02*
X0289256Y0036076D01*
X0289256Y0034478D02*
X0278509Y0034478D01*
X0279156Y0032879D02*
X0289256Y0032879D01*
X0287841Y0031281D02*
X0279156Y0031281D01*
X0279156Y0029682D02*
X0286243Y0029682D01*
X0284644Y0028084D02*
X0279155Y0028084D01*
X0278493Y0026485D02*
X0283046Y0026485D01*
X0281447Y0024887D02*
X0278175Y0024887D01*
X0279001Y0023288D02*
X0279974Y0023288D01*
X0279312Y0021690D02*
X0279156Y0021690D01*
X0279156Y0020091D02*
X0279256Y0020091D01*
X0279256Y0018493D02*
X0279156Y0018493D01*
X0279256Y0016894D02*
X0278663Y0016894D01*
X0270449Y0016894D02*
X0268663Y0016894D01*
X0269156Y0018493D02*
X0269956Y0018493D01*
X0269956Y0020091D02*
X0269156Y0020091D01*
X0269156Y0021690D02*
X0269956Y0021690D01*
X0270110Y0023288D02*
X0269001Y0023288D01*
X0268175Y0024887D02*
X0270937Y0024887D01*
X0270619Y0026485D02*
X0268493Y0026485D01*
X0269155Y0028084D02*
X0269956Y0028084D01*
X0269956Y0029682D02*
X0269156Y0029682D01*
X0269156Y0031281D02*
X0269956Y0031281D01*
X0269956Y0032879D02*
X0269156Y0032879D01*
X0268509Y0034478D02*
X0270603Y0034478D01*
X0272376Y0036076D02*
X0266735Y0036076D01*
X0262376Y0036076D02*
X0256735Y0036076D01*
X0258509Y0034478D02*
X0260603Y0034478D01*
X0259956Y0032879D02*
X0259156Y0032879D01*
X0259156Y0031281D02*
X0259956Y0031281D01*
X0259956Y0029682D02*
X0259156Y0029682D01*
X0259155Y0028084D02*
X0259956Y0028084D01*
X0260619Y0026485D02*
X0258493Y0026485D01*
X0258175Y0024887D02*
X0260937Y0024887D01*
X0260110Y0023288D02*
X0259001Y0023288D01*
X0259156Y0021690D02*
X0259956Y0021690D01*
X0259956Y0020091D02*
X0259156Y0020091D01*
X0259156Y0018493D02*
X0259956Y0018493D01*
X0260449Y0016894D02*
X0258663Y0016894D01*
X0250449Y0016894D02*
X0248663Y0016894D01*
X0249156Y0018493D02*
X0249956Y0018493D01*
X0249956Y0020091D02*
X0249156Y0020091D01*
X0249156Y0021690D02*
X0249956Y0021690D01*
X0250110Y0023288D02*
X0249001Y0023288D01*
X0248175Y0024887D02*
X0250937Y0024887D01*
X0250619Y0026485D02*
X0248493Y0026485D01*
X0249155Y0028084D02*
X0249956Y0028084D01*
X0249956Y0029682D02*
X0249156Y0029682D01*
X0249156Y0031281D02*
X0249956Y0031281D01*
X0249956Y0032879D02*
X0249156Y0032879D01*
X0248509Y0034478D02*
X0250603Y0034478D01*
X0252376Y0036076D02*
X0246735Y0036076D01*
X0242376Y0036076D02*
X0236735Y0036076D01*
X0238509Y0034478D02*
X0240603Y0034478D01*
X0239956Y0032879D02*
X0239156Y0032879D01*
X0239156Y0031281D02*
X0239956Y0031281D01*
X0239956Y0029682D02*
X0239156Y0029682D01*
X0239155Y0028084D02*
X0239956Y0028084D01*
X0240619Y0026485D02*
X0238493Y0026485D01*
X0238175Y0024887D02*
X0240937Y0024887D01*
X0240110Y0023288D02*
X0239001Y0023288D01*
X0239156Y0021690D02*
X0239956Y0021690D01*
X0239956Y0020091D02*
X0239156Y0020091D01*
X0239156Y0018493D02*
X0239956Y0018493D01*
X0240449Y0016894D02*
X0238663Y0016894D01*
X0230449Y0016894D02*
X0228663Y0016894D01*
X0229156Y0018493D02*
X0229956Y0018493D01*
X0229956Y0020091D02*
X0229156Y0020091D01*
X0229156Y0021690D02*
X0229956Y0021690D01*
X0230110Y0023288D02*
X0229001Y0023288D01*
X0228175Y0024887D02*
X0230937Y0024887D01*
X0230619Y0026485D02*
X0228493Y0026485D01*
X0229155Y0028084D02*
X0229956Y0028084D01*
X0229956Y0029682D02*
X0229156Y0029682D01*
X0229156Y0031281D02*
X0229956Y0031281D01*
X0229956Y0032879D02*
X0229156Y0032879D01*
X0228509Y0034478D02*
X0230603Y0034478D01*
X0232376Y0036076D02*
X0226735Y0036076D01*
X0222376Y0036076D02*
X0206239Y0036076D01*
X0208335Y0034478D02*
X0220603Y0034478D01*
X0219956Y0032879D02*
X0209003Y0032879D01*
X0209026Y0031281D02*
X0219956Y0031281D01*
X0219956Y0029682D02*
X0209026Y0029682D01*
X0208988Y0028084D02*
X0219956Y0028084D01*
X0220619Y0026485D02*
X0208298Y0026485D01*
X0207926Y0024887D02*
X0220937Y0024887D01*
X0220110Y0023288D02*
X0208834Y0023288D01*
X0209026Y0021690D02*
X0219956Y0021690D01*
X0219956Y0020091D02*
X0209026Y0020091D01*
X0209026Y0018493D02*
X0219956Y0018493D01*
X0220449Y0016894D02*
X0208495Y0016894D01*
X0200617Y0016894D02*
X0198691Y0016894D01*
X0199194Y0018493D02*
X0200086Y0018493D01*
X0200086Y0020091D02*
X0199226Y0020091D01*
X0199226Y0021690D02*
X0200086Y0021690D01*
X0200278Y0023288D02*
X0199027Y0023288D01*
X0198184Y0024887D02*
X0201186Y0024887D01*
X0200814Y0026485D02*
X0198454Y0026485D01*
X0199129Y0028084D02*
X0200124Y0028084D01*
X0200086Y0029682D02*
X0199226Y0029682D01*
X0199226Y0031281D02*
X0200086Y0031281D01*
X0200109Y0032879D02*
X0199135Y0032879D01*
X0198481Y0034478D02*
X0200777Y0034478D01*
X0202873Y0036076D02*
X0196715Y0036076D01*
X0194691Y0036076D02*
X0194421Y0036076D01*
X0194421Y0034478D02*
X0194691Y0034478D01*
X0194691Y0032879D02*
X0194421Y0032879D01*
X0194421Y0031281D02*
X0194691Y0031281D01*
X0194691Y0029682D02*
X0194421Y0029682D01*
X0194421Y0028084D02*
X0194691Y0028084D01*
X0194691Y0026485D02*
X0194421Y0026485D01*
X0194421Y0024887D02*
X0194691Y0024887D01*
X0194691Y0023288D02*
X0194421Y0023288D01*
X0194421Y0021690D02*
X0194691Y0021690D01*
X0189886Y0021690D02*
X0189226Y0021690D01*
X0189226Y0020091D02*
X0189886Y0020091D01*
X0189918Y0018493D02*
X0189194Y0018493D01*
X0188691Y0016894D02*
X0190421Y0016894D01*
X0184691Y0021690D02*
X0184421Y0021690D01*
X0184421Y0023288D02*
X0184691Y0023288D01*
X0184691Y0024887D02*
X0184421Y0024887D01*
X0184421Y0026485D02*
X0184691Y0026485D01*
X0184691Y0028084D02*
X0184421Y0028084D01*
X0184421Y0029682D02*
X0184691Y0029682D01*
X0184691Y0031281D02*
X0184421Y0031281D01*
X0184421Y0032879D02*
X0184691Y0032879D01*
X0184691Y0034478D02*
X0184421Y0034478D01*
X0184421Y0036076D02*
X0184691Y0036076D01*
X0186715Y0036076D02*
X0192397Y0036076D01*
X0190631Y0034478D02*
X0188481Y0034478D01*
X0189135Y0032879D02*
X0189977Y0032879D01*
X0189886Y0031281D02*
X0189226Y0031281D01*
X0189226Y0029682D02*
X0189886Y0029682D01*
X0189983Y0028084D02*
X0189129Y0028084D01*
X0188454Y0026485D02*
X0190658Y0026485D01*
X0190928Y0024887D02*
X0188184Y0024887D01*
X0189027Y0023288D02*
X0190085Y0023288D01*
X0180928Y0024887D02*
X0177926Y0024887D01*
X0178298Y0026485D02*
X0180658Y0026485D01*
X0179983Y0028084D02*
X0178988Y0028084D01*
X0179026Y0029682D02*
X0179886Y0029682D01*
X0179886Y0031281D02*
X0179026Y0031281D01*
X0179003Y0032879D02*
X0179977Y0032879D01*
X0180631Y0034478D02*
X0178335Y0034478D01*
X0176239Y0036076D02*
X0182397Y0036076D01*
X0176056Y0037675D02*
X0289256Y0037675D01*
X0289256Y0039273D02*
X0283685Y0039273D01*
X0286690Y0040872D02*
X0289256Y0040872D01*
X0289256Y0042470D02*
X0288289Y0042470D01*
X0289068Y0044069D02*
X0289256Y0044069D01*
X0289256Y0050494D02*
X0288489Y0052345D01*
X0286086Y0054748D01*
X0282948Y0056048D01*
X0279550Y0056048D01*
X0277943Y0055382D01*
X0277943Y0058619D01*
X0277244Y0059319D01*
X0277943Y0060018D01*
X0277943Y0063818D01*
X0284056Y0069930D01*
X0284056Y0095970D01*
X0282826Y0097200D01*
X0282826Y0097200D01*
X0274177Y0105849D01*
X0276982Y0105849D01*
X0279707Y0108573D01*
X0279707Y0112427D01*
X0276982Y0115151D01*
X0273129Y0115151D01*
X0270405Y0112427D01*
X0270405Y0109621D01*
X0269656Y0110370D01*
X0268726Y0111300D01*
X0273275Y0115849D01*
X0276982Y0115849D01*
X0279707Y0118573D01*
X0279707Y0122427D01*
X0278534Y0123600D01*
X0279286Y0123600D01*
X0280432Y0122454D01*
X0280405Y0122427D01*
X0280405Y0118573D01*
X0283129Y0115849D01*
X0286982Y0115849D01*
X0289256Y0118122D01*
X0289256Y0113161D01*
X0287065Y0115351D01*
X0285191Y0115351D01*
X0285191Y0110635D01*
X0284921Y0110635D01*
X0284921Y0115351D01*
X0283046Y0115351D01*
X0280205Y0112509D01*
X0280205Y0110635D01*
X0284921Y0110635D01*
X0284921Y0110365D01*
X0285191Y0110365D01*
X0285191Y0105649D01*
X0287065Y0105649D01*
X0289256Y0107839D01*
X0289256Y0050494D01*
X0289256Y0052061D02*
X0288607Y0052061D01*
X0289256Y0053660D02*
X0287174Y0053660D01*
X0289256Y0055258D02*
X0284854Y0055258D01*
X0289256Y0056857D02*
X0277943Y0056857D01*
X0277943Y0058455D02*
X0289256Y0058455D01*
X0289256Y0060054D02*
X0277943Y0060054D01*
X0277943Y0061652D02*
X0289256Y0061652D01*
X0289256Y0063251D02*
X0277943Y0063251D01*
X0278975Y0064849D02*
X0289256Y0064849D01*
X0289256Y0066448D02*
X0280574Y0066448D01*
X0282172Y0068046D02*
X0289256Y0068046D01*
X0289256Y0069645D02*
X0283771Y0069645D01*
X0284056Y0071243D02*
X0289256Y0071243D01*
X0289256Y0072842D02*
X0284056Y0072842D01*
X0284056Y0074440D02*
X0289256Y0074440D01*
X0289256Y0076039D02*
X0284056Y0076039D01*
X0284056Y0077637D02*
X0289256Y0077637D01*
X0289256Y0079236D02*
X0284056Y0079236D01*
X0284056Y0080834D02*
X0289256Y0080834D01*
X0289256Y0082433D02*
X0284056Y0082433D01*
X0284056Y0084032D02*
X0289256Y0084032D01*
X0289256Y0085630D02*
X0284056Y0085630D01*
X0284056Y0087229D02*
X0289256Y0087229D01*
X0289256Y0088827D02*
X0284056Y0088827D01*
X0284056Y0090426D02*
X0289256Y0090426D01*
X0289256Y0092024D02*
X0284056Y0092024D01*
X0284056Y0093623D02*
X0289256Y0093623D01*
X0289256Y0095221D02*
X0284056Y0095221D01*
X0283206Y0096820D02*
X0289256Y0096820D01*
X0289256Y0098418D02*
X0281608Y0098418D01*
X0280009Y0100017D02*
X0289256Y0100017D01*
X0289256Y0101615D02*
X0278411Y0101615D01*
X0276812Y0103214D02*
X0289256Y0103214D01*
X0289256Y0104812D02*
X0275214Y0104812D01*
X0277544Y0106411D02*
X0282285Y0106411D01*
X0283046Y0105649D02*
X0284921Y0105649D01*
X0284921Y0110365D01*
X0280205Y0110365D01*
X0280205Y0108491D01*
X0283046Y0105649D01*
X0284921Y0106411D02*
X0285191Y0106411D01*
X0285191Y0108009D02*
X0284921Y0108009D01*
X0284921Y0109608D02*
X0285191Y0109608D01*
X0285191Y0111206D02*
X0284921Y0111206D01*
X0284921Y0112805D02*
X0285191Y0112805D01*
X0285191Y0114403D02*
X0284921Y0114403D01*
X0282976Y0116002D02*
X0277135Y0116002D01*
X0277730Y0114403D02*
X0282099Y0114403D01*
X0280500Y0112805D02*
X0279329Y0112805D01*
X0279707Y0111206D02*
X0280205Y0111206D01*
X0280205Y0109608D02*
X0279707Y0109608D01*
X0279143Y0108009D02*
X0280686Y0108009D01*
X0287827Y0106411D02*
X0289256Y0106411D01*
X0289256Y0114403D02*
X0288013Y0114403D01*
X0287135Y0116002D02*
X0289256Y0116002D01*
X0289256Y0117600D02*
X0288734Y0117600D01*
X0281378Y0117600D02*
X0278734Y0117600D01*
X0279707Y0119199D02*
X0280405Y0119199D01*
X0280405Y0120797D02*
X0279707Y0120797D01*
X0279707Y0122396D02*
X0280405Y0122396D01*
X0283233Y0125593D02*
X0289256Y0125593D01*
X0289256Y0127191D02*
X0288325Y0127191D01*
X0288139Y0123994D02*
X0289256Y0123994D01*
X0281787Y0127191D02*
X0281634Y0127191D01*
X0280405Y0128790D02*
X0279707Y0128790D01*
X0279707Y0130388D02*
X0280405Y0130388D01*
X0280405Y0131987D02*
X0279707Y0131987D01*
X0278548Y0133585D02*
X0281564Y0133585D01*
X0288548Y0133585D02*
X0289256Y0133585D01*
X0272381Y0114403D02*
X0271829Y0114403D01*
X0270783Y0112805D02*
X0270230Y0112805D01*
X0270405Y0111206D02*
X0268820Y0111206D01*
X0269656Y0110370D02*
X0269656Y0110370D01*
X0237049Y0077637D02*
X0186463Y0077637D01*
X0187604Y0076039D02*
X0184865Y0076039D01*
X0183266Y0074440D02*
X0186649Y0074440D01*
X0186556Y0074216D02*
X0186556Y0072784D01*
X0187104Y0071461D01*
X0188117Y0070448D01*
X0189440Y0069900D01*
X0190872Y0069900D01*
X0192195Y0070448D01*
X0193147Y0071400D01*
X0197965Y0071400D01*
X0198917Y0070448D01*
X0200240Y0069900D01*
X0201672Y0069900D01*
X0202995Y0070448D01*
X0204008Y0071461D01*
X0204556Y0072784D01*
X0204556Y0074216D01*
X0204008Y0075539D01*
X0202995Y0076552D01*
X0201672Y0077100D01*
X0200240Y0077100D01*
X0198917Y0076552D01*
X0197965Y0075600D01*
X0193147Y0075600D01*
X0192195Y0076552D01*
X0190872Y0077100D01*
X0189440Y0077100D01*
X0188117Y0076552D01*
X0187104Y0075539D01*
X0186556Y0074216D01*
X0186556Y0072842D02*
X0181668Y0072842D01*
X0180069Y0071243D02*
X0187321Y0071243D01*
X0192991Y0071243D02*
X0198121Y0071243D01*
X0198404Y0076039D02*
X0192708Y0076039D01*
X0203508Y0076039D02*
X0238647Y0076039D01*
X0240246Y0074440D02*
X0204463Y0074440D01*
X0204556Y0072842D02*
X0241844Y0072842D01*
X0243443Y0071243D02*
X0203791Y0071243D01*
X0178471Y0069645D02*
X0245041Y0069645D01*
X0246640Y0068046D02*
X0176872Y0068046D01*
X0175274Y0066448D02*
X0248238Y0066448D01*
X0249837Y0064849D02*
X0173675Y0064849D01*
X0172815Y0063251D02*
X0251435Y0063251D01*
X0253034Y0061652D02*
X0174468Y0061652D01*
X0174856Y0060054D02*
X0254632Y0060054D01*
X0256231Y0058455D02*
X0175770Y0058455D01*
X0171856Y0055258D02*
X0164084Y0055258D01*
X0162486Y0053660D02*
X0171856Y0053660D01*
X0171856Y0052061D02*
X0168086Y0052061D01*
X0169229Y0050463D02*
X0171856Y0050463D01*
X0171856Y0048864D02*
X0169456Y0048864D01*
X0168951Y0047266D02*
X0171856Y0047266D01*
X0171856Y0045667D02*
X0166734Y0045667D01*
X0164977Y0045667D02*
X0157193Y0045667D01*
X0155594Y0044069D02*
X0171856Y0044069D01*
X0171856Y0042470D02*
X0153996Y0042470D01*
X0152397Y0040872D02*
X0171856Y0040872D01*
X0171856Y0039273D02*
X0150799Y0039273D01*
X0149200Y0037675D02*
X0171856Y0037675D01*
X0171856Y0036076D02*
X0166239Y0036076D01*
X0168335Y0034478D02*
X0170777Y0034478D01*
X0170109Y0032879D02*
X0169003Y0032879D01*
X0169026Y0031281D02*
X0170086Y0031281D01*
X0170086Y0029682D02*
X0169026Y0029682D01*
X0168988Y0028084D02*
X0170124Y0028084D01*
X0170814Y0026485D02*
X0168298Y0026485D01*
X0167926Y0024887D02*
X0171186Y0024887D01*
X0170278Y0023288D02*
X0168834Y0023288D01*
X0169026Y0021690D02*
X0170086Y0021690D01*
X0170086Y0020091D02*
X0169026Y0020091D01*
X0169026Y0018493D02*
X0170086Y0018493D01*
X0170617Y0016894D02*
X0168495Y0016894D01*
X0160617Y0016894D02*
X0158495Y0016894D01*
X0159026Y0018493D02*
X0160086Y0018493D01*
X0160086Y0020091D02*
X0159026Y0020091D01*
X0159026Y0021690D02*
X0160086Y0021690D01*
X0160278Y0023288D02*
X0158834Y0023288D01*
X0157926Y0024887D02*
X0161186Y0024887D01*
X0160814Y0026485D02*
X0158298Y0026485D01*
X0158988Y0028084D02*
X0160124Y0028084D01*
X0160086Y0029682D02*
X0159026Y0029682D01*
X0159026Y0031281D02*
X0160086Y0031281D01*
X0160109Y0032879D02*
X0159003Y0032879D01*
X0158335Y0034478D02*
X0160777Y0034478D01*
X0162873Y0036076D02*
X0156239Y0036076D01*
X0152873Y0036076D02*
X0146239Y0036076D01*
X0148335Y0034478D02*
X0150777Y0034478D01*
X0150109Y0032879D02*
X0149003Y0032879D01*
X0149026Y0031281D02*
X0150086Y0031281D01*
X0150086Y0029682D02*
X0149026Y0029682D01*
X0148988Y0028084D02*
X0150124Y0028084D01*
X0150814Y0026485D02*
X0148298Y0026485D01*
X0147926Y0024887D02*
X0151186Y0024887D01*
X0150278Y0023288D02*
X0148834Y0023288D01*
X0149026Y0021690D02*
X0150086Y0021690D01*
X0150086Y0020091D02*
X0149026Y0020091D01*
X0149026Y0018493D02*
X0150086Y0018493D01*
X0150617Y0016894D02*
X0148495Y0016894D01*
X0140617Y0016894D02*
X0138495Y0016894D01*
X0139026Y0018493D02*
X0140086Y0018493D01*
X0140086Y0020091D02*
X0139026Y0020091D01*
X0139026Y0021690D02*
X0140086Y0021690D01*
X0140278Y0023288D02*
X0138834Y0023288D01*
X0137926Y0024887D02*
X0141186Y0024887D01*
X0140814Y0026485D02*
X0138298Y0026485D01*
X0138988Y0028084D02*
X0140124Y0028084D01*
X0140086Y0029682D02*
X0139026Y0029682D01*
X0139026Y0031281D02*
X0140086Y0031281D01*
X0140109Y0032879D02*
X0139003Y0032879D01*
X0138335Y0034478D02*
X0140777Y0034478D01*
X0142873Y0036076D02*
X0136239Y0036076D01*
X0132873Y0036076D02*
X0029856Y0036076D01*
X0029856Y0034478D02*
X0130777Y0034478D01*
X0130109Y0032879D02*
X0075719Y0032879D01*
X0078725Y0031281D02*
X0130086Y0031281D01*
X0130086Y0029682D02*
X0080329Y0029682D01*
X0081469Y0028084D02*
X0130124Y0028084D01*
X0130814Y0026485D02*
X0082359Y0026485D01*
X0082787Y0024887D02*
X0131186Y0024887D01*
X0130278Y0023288D02*
X0083100Y0023288D01*
X0083100Y0021690D02*
X0130086Y0021690D01*
X0130086Y0020091D02*
X0082925Y0020091D01*
X0082497Y0018493D02*
X0130086Y0018493D01*
X0130617Y0016894D02*
X0081767Y0016894D01*
X0087245Y0055258D02*
X0105206Y0055258D01*
X0104656Y0056857D02*
X0088843Y0056857D01*
X0090442Y0058455D02*
X0104838Y0058455D01*
X0105919Y0060054D02*
X0092040Y0060054D01*
X0093639Y0061652D02*
X0124038Y0061652D01*
X0122440Y0060054D02*
X0110593Y0060054D01*
X0116962Y0068046D02*
X0130432Y0068046D01*
X0128834Y0066448D02*
X0098434Y0066448D01*
X0096836Y0064849D02*
X0127235Y0064849D01*
X0125637Y0063251D02*
X0095237Y0063251D01*
X0118387Y0069645D02*
X0132031Y0069645D01*
X0133630Y0071243D02*
X0119842Y0071243D01*
X0126781Y0058455D02*
X0129009Y0058455D01*
X0130043Y0056857D02*
X0125183Y0056857D01*
X0123584Y0055258D02*
X0128444Y0055258D01*
X0160887Y0052061D02*
X0163626Y0052061D01*
X0165683Y0056857D02*
X0169437Y0056857D01*
X0167999Y0058455D02*
X0167281Y0058455D01*
X0178834Y0023288D02*
X0180085Y0023288D01*
X0179886Y0021690D02*
X0179026Y0021690D01*
X0179026Y0020091D02*
X0179886Y0020091D01*
X0179918Y0018493D02*
X0179026Y0018493D01*
X0178495Y0016894D02*
X0180421Y0016894D01*
X0163621Y0160760D02*
X0157086Y0160760D01*
X0158684Y0162359D02*
X0163156Y0162359D01*
X0163421Y0163957D02*
X0160283Y0163957D01*
X0161881Y0165556D02*
X0164620Y0165556D01*
X0164656Y0167154D02*
X0163480Y0167154D01*
X0066356Y0197526D02*
X0029856Y0197526D01*
X0029856Y0199124D02*
X0064126Y0199124D01*
X0062625Y0200723D02*
X0029856Y0200723D01*
X0029856Y0202321D02*
X0061702Y0202321D01*
X0061042Y0203920D02*
X0029856Y0203920D01*
X0029856Y0205518D02*
X0060614Y0205518D01*
X0060500Y0207117D02*
X0029856Y0207117D01*
X0029856Y0208715D02*
X0060500Y0208715D01*
X0060874Y0210314D02*
X0029856Y0210314D01*
X0029856Y0211912D02*
X0061339Y0211912D01*
X0062262Y0213511D02*
X0029856Y0213511D01*
X0029856Y0215109D02*
X0063498Y0215109D01*
D18*
X0101328Y0164831D03*
X0130068Y0149083D03*
X0140698Y0149083D03*
X0162351Y0129791D03*
X0152902Y0123098D03*
X0161564Y0120736D03*
X0175343Y0151839D03*
X0203296Y0157744D03*
X0200540Y0175854D03*
X0219438Y0176248D03*
X0238335Y0144358D03*
X0267076Y0164831D03*
X0243847Y0097114D03*
X0252902Y0088059D03*
X0170225Y0076248D03*
X0145422Y0058925D03*
X0128493Y0069555D03*
X0101328Y0090028D03*
X0099359Y0109713D03*
X0100540Y0121917D03*
X0091091Y0132941D03*
X0141485Y0182154D03*
X0091091Y0069555D03*
X0084398Y0060894D03*
X0094635Y0057350D03*
X0103296Y0025067D03*
D19*
X0087556Y0042900D02*
X0093856Y0049200D01*
X0128056Y0049200D01*
X0164956Y0086100D01*
X0177556Y0086100D01*
X0170356Y0092400D02*
X0168556Y0092400D01*
X0127156Y0051000D01*
X0084856Y0051000D01*
X0078556Y0044700D01*
X0070456Y0044700D01*
X0060556Y0054600D01*
X0060556Y0099600D01*
X0065056Y0104100D01*
X0070456Y0104100D01*
X0075856Y0109500D01*
X0079456Y0109500D01*
X0168556Y0198600D01*
X0168556Y0200500D01*
X0169456Y0194100D02*
X0247756Y0194100D01*
X0254056Y0200400D01*
X0254556Y0200500D01*
X0236056Y0190500D02*
X0168556Y0190500D01*
X0144256Y0166200D01*
X0144256Y0153600D01*
X0156856Y0141000D01*
X0156856Y0114000D01*
X0155056Y0112200D01*
X0145156Y0112200D01*
X0114556Y0081600D01*
X0111856Y0081600D01*
X0112756Y0077100D02*
X0109595Y0075067D01*
X0082824Y0075067D01*
X0078493Y0077035D01*
X0066856Y0077100D01*
X0066800Y0076831D01*
X0067756Y0081600D02*
X0065056Y0081600D01*
X0062356Y0078900D01*
X0062356Y0074400D01*
X0065956Y0070800D01*
X0068656Y0070800D01*
X0076756Y0062700D01*
X0076756Y0060900D01*
X0076800Y0060531D01*
X0084792Y0055776D02*
X0066856Y0055500D01*
X0066800Y0055031D01*
X0058756Y0053700D02*
X0058756Y0129300D01*
X0066856Y0137400D01*
X0068656Y0137400D01*
X0076756Y0145500D01*
X0076756Y0147300D01*
X0076800Y0147431D01*
X0102509Y0117587D02*
X0090698Y0106169D01*
X0089910Y0099870D01*
X0076756Y0087000D01*
X0073156Y0087000D01*
X0067756Y0081600D01*
X0076800Y0071331D02*
X0077656Y0071700D01*
X0082824Y0073098D01*
X0108020Y0073098D01*
X0110056Y0071700D01*
X0119056Y0080700D01*
X0137956Y0080700D01*
X0141556Y0081600D02*
X0141556Y0078900D01*
X0139756Y0077100D01*
X0124456Y0077100D01*
X0119056Y0073500D02*
X0115107Y0069161D01*
X0098178Y0069161D01*
X0084792Y0055776D01*
X0073156Y0039300D02*
X0058756Y0053700D01*
X0073156Y0039300D02*
X0147856Y0039300D01*
X0157756Y0049200D01*
X0165856Y0049200D01*
X0173956Y0057300D02*
X0171256Y0060000D01*
X0173956Y0057300D02*
X0173956Y0031200D01*
X0174556Y0030500D01*
X0151456Y0045600D02*
X0206356Y0100500D01*
X0217156Y0100500D01*
X0262274Y0055382D01*
X0273769Y0055382D01*
X0273769Y0062862D02*
X0274018Y0062862D01*
X0281956Y0070800D01*
X0281956Y0095100D01*
X0267556Y0109500D01*
X0185656Y0109500D01*
X0173056Y0109500D01*
X0168556Y0105900D02*
X0259456Y0105900D01*
X0273769Y0091587D01*
X0273769Y0079004D01*
X0273769Y0071130D02*
X0269044Y0071130D01*
X0260776Y0079398D01*
X0260776Y0089280D01*
X0245956Y0104100D01*
X0169456Y0104100D01*
X0147856Y0082500D01*
X0147856Y0079800D01*
X0139756Y0071700D01*
X0137056Y0071700D01*
X0122656Y0057300D01*
X0108256Y0057300D01*
X0104656Y0045600D02*
X0151456Y0045600D01*
X0131656Y0060900D02*
X0151456Y0080700D01*
X0146056Y0080700D02*
X0146056Y0083400D01*
X0168556Y0105900D01*
X0165856Y0105900D02*
X0165856Y0107700D01*
X0174856Y0116700D01*
X0190156Y0116700D01*
X0188356Y0120300D02*
X0268456Y0120300D01*
X0273856Y0125700D01*
X0280156Y0125700D01*
X0284656Y0121200D01*
X0285056Y0120500D01*
X0275056Y0120500D02*
X0274756Y0120300D01*
X0267556Y0113100D01*
X0215356Y0113100D01*
X0192856Y0130200D02*
X0209056Y0146400D01*
X0209056Y0185100D01*
X0176656Y0186900D02*
X0176656Y0177900D01*
X0166756Y0168000D01*
X0166756Y0162600D01*
X0173056Y0179700D02*
X0149656Y0156300D01*
X0146056Y0154500D02*
X0146056Y0162600D01*
X0170356Y0186900D01*
X0169456Y0194100D02*
X0134356Y0159000D01*
X0134356Y0108600D01*
X0120856Y0095100D01*
X0120856Y0100500D02*
X0120619Y0104201D01*
X0107233Y0117587D01*
X0102509Y0117587D01*
X0107233Y0117587D02*
X0118156Y0128400D01*
X0119956Y0128400D01*
X0130756Y0119400D02*
X0130756Y0110400D01*
X0128956Y0108600D01*
X0137956Y0115800D02*
X0153256Y0115800D01*
X0162256Y0107700D02*
X0151456Y0096900D01*
X0132556Y0096900D01*
X0112756Y0077100D01*
X0119056Y0073500D02*
X0138856Y0073500D01*
X0146056Y0080700D01*
X0141556Y0081600D02*
X0165856Y0105900D01*
X0178456Y0118500D02*
X0186556Y0118500D01*
X0188356Y0120300D01*
X0180256Y0122100D02*
X0266656Y0122100D01*
X0275056Y0130500D01*
X0200956Y0073500D02*
X0190156Y0073500D01*
X0147856Y0100500D02*
X0177556Y0130200D01*
X0192856Y0130200D01*
X0191056Y0133800D02*
X0166756Y0133800D01*
X0146056Y0154500D01*
X0133456Y0168900D02*
X0122656Y0168900D01*
X0187456Y0150900D02*
X0187456Y0139200D01*
X0174856Y0122100D02*
X0178456Y0118500D01*
X0273769Y0063256D02*
X0273769Y0062862D01*
D20*
X0217156Y0100500D03*
X0215356Y0113100D03*
X0190156Y0116700D03*
X0180256Y0122100D03*
X0174856Y0122100D03*
X0191056Y0133800D03*
X0187456Y0139200D03*
X0187456Y0150900D03*
X0166756Y0162600D03*
X0149656Y0156300D03*
X0133456Y0168900D03*
X0122656Y0168900D03*
X0170356Y0186900D03*
X0176656Y0186900D03*
X0173056Y0179700D03*
X0209056Y0185100D03*
X0236056Y0190500D03*
X0153256Y0115800D03*
X0162256Y0107700D03*
X0173056Y0109500D03*
X0185656Y0109500D03*
X0170356Y0092400D03*
X0177556Y0086100D03*
X0190156Y0073500D03*
X0200956Y0073500D03*
X0171256Y0060000D03*
X0165856Y0049200D03*
X0131656Y0060900D03*
X0124456Y0077100D03*
X0111856Y0081600D03*
X0120856Y0095100D03*
X0120856Y0100500D03*
X0128956Y0108600D03*
X0137956Y0115800D03*
X0130756Y0119400D03*
X0119956Y0128400D03*
X0147856Y0100500D03*
X0151456Y0080700D03*
X0137956Y0080700D03*
X0108256Y0057300D03*
X0104656Y0045600D03*
X0087556Y0042900D03*
M02*
