G75*
%MOIN*%
%OFA0B0*%
%FSLAX25Y25*%
%IPPOS*%
%LPD*%
%AMOC8*
5,1,8,0,0,1.08239X$1,22.5*
%
%ADD10C,0.00300*%
%ADD11C,0.12998*%
%ADD12C,0.06140*%
%ADD13C,0.06400*%
%ADD14OC8,0.06502*%
%ADD15OC8,0.06400*%
%ADD16OC8,0.06975*%
%ADD17C,0.13400*%
%ADD18OC8,0.05600*%
%ADD19R,0.05550X0.05550*%
%ADD20C,0.07880*%
%ADD21C,0.04362*%
%ADD22C,0.04400*%
D10*
X0103505Y0203529D02*
X0104906Y0203529D01*
X0103855Y0203529D02*
X0103855Y0204930D01*
X0103505Y0204930D02*
X0102804Y0204230D01*
X0103505Y0203529D01*
X0103505Y0204930D02*
X0104906Y0204930D01*
X0104556Y0205739D02*
X0104906Y0206089D01*
X0104906Y0207140D01*
X0102804Y0207140D01*
X0102804Y0206089D01*
X0103154Y0205739D01*
X0104556Y0205739D01*
X0104556Y0207949D02*
X0104906Y0208299D01*
X0104906Y0209000D01*
X0104556Y0209350D01*
X0103855Y0209000D02*
X0103855Y0208299D01*
X0104205Y0207949D01*
X0104556Y0207949D01*
X0103855Y0209000D02*
X0103505Y0209350D01*
X0103154Y0209350D01*
X0102804Y0209000D01*
X0102804Y0208299D01*
X0103154Y0207949D01*
X0112804Y0207640D02*
X0112804Y0206589D01*
X0113154Y0206239D01*
X0113855Y0206239D01*
X0114205Y0206589D01*
X0114205Y0207640D01*
X0114205Y0206940D02*
X0114906Y0206239D01*
X0114906Y0205430D02*
X0112804Y0205430D01*
X0112804Y0204029D01*
X0112804Y0203220D02*
X0112804Y0201819D01*
X0113855Y0202520D02*
X0113855Y0203220D01*
X0114906Y0203220D02*
X0112804Y0203220D01*
X0113855Y0204730D02*
X0113855Y0205430D01*
X0114906Y0205430D02*
X0114906Y0204029D01*
X0114906Y0207640D02*
X0112804Y0207640D01*
X0113505Y0208449D02*
X0114906Y0208449D01*
X0113855Y0208449D02*
X0113855Y0209850D01*
X0113505Y0209850D02*
X0114906Y0209850D01*
X0113505Y0209850D02*
X0112804Y0209149D01*
X0113505Y0208449D01*
X0122804Y0208500D02*
X0122804Y0207799D01*
X0123154Y0207449D01*
X0123855Y0207449D02*
X0123855Y0208149D01*
X0123855Y0207449D02*
X0124556Y0207449D01*
X0124906Y0207799D01*
X0124906Y0208500D01*
X0124556Y0208850D01*
X0123154Y0208850D01*
X0122804Y0208500D01*
X0122804Y0206640D02*
X0124906Y0205239D01*
X0122804Y0205239D01*
X0122804Y0204430D02*
X0122804Y0203379D01*
X0123154Y0203029D01*
X0124556Y0203029D01*
X0124906Y0203379D01*
X0124906Y0204430D01*
X0122804Y0204430D01*
X0122804Y0206640D02*
X0124906Y0206640D01*
D11*
X0284556Y0150500D03*
D12*
X0274556Y0199065D02*
X0274556Y0201935D01*
X0274556Y0209065D02*
X0274556Y0211935D01*
X0264556Y0211935D02*
X0264556Y0209065D01*
X0264556Y0201935D02*
X0264556Y0199065D01*
X0254556Y0199065D02*
X0254556Y0201935D01*
X0254556Y0209065D02*
X0254556Y0211935D01*
X0244556Y0211935D02*
X0244556Y0209065D01*
X0244556Y0201935D02*
X0244556Y0199065D01*
X0234556Y0199065D02*
X0234556Y0201935D01*
X0234556Y0209065D02*
X0234556Y0211935D01*
X0224556Y0211935D02*
X0224556Y0209065D01*
X0224556Y0201935D02*
X0224556Y0199065D01*
X0214556Y0199065D02*
X0214556Y0201935D01*
X0214556Y0209065D02*
X0214556Y0211935D01*
X0204556Y0211935D02*
X0204556Y0209065D01*
X0204556Y0201935D02*
X0204556Y0199065D01*
X0188556Y0199065D02*
X0188556Y0201935D01*
X0188556Y0209065D02*
X0188556Y0211935D01*
X0178556Y0211935D02*
X0178556Y0209065D01*
X0178556Y0201935D02*
X0178556Y0199065D01*
X0168556Y0199065D02*
X0168556Y0201935D01*
X0168556Y0209065D02*
X0168556Y0211935D01*
X0158556Y0211935D02*
X0158556Y0209065D01*
X0158556Y0201935D02*
X0158556Y0199065D01*
X0148556Y0199065D02*
X0148556Y0201935D01*
X0148556Y0209065D02*
X0148556Y0211935D01*
X0138556Y0211935D02*
X0138556Y0209065D01*
X0138556Y0201935D02*
X0138556Y0199065D01*
X0128556Y0199065D02*
X0128556Y0201935D01*
X0128556Y0209065D02*
X0128556Y0211935D01*
X0118556Y0211935D02*
X0118556Y0209065D01*
X0118556Y0201935D02*
X0118556Y0199065D01*
X0108556Y0199065D02*
X0108556Y0201935D01*
X0108556Y0209065D02*
X0108556Y0211935D01*
X0098556Y0211935D02*
X0098556Y0209065D01*
X0098556Y0201935D02*
X0098556Y0199065D01*
X0134556Y0031935D02*
X0134556Y0029065D01*
X0134556Y0021935D02*
X0134556Y0019065D01*
X0144556Y0019065D02*
X0144556Y0021935D01*
X0144556Y0029065D02*
X0144556Y0031935D01*
X0154556Y0031935D02*
X0154556Y0029065D01*
X0154556Y0021935D02*
X0154556Y0019065D01*
X0164556Y0019065D02*
X0164556Y0021935D01*
X0164556Y0029065D02*
X0164556Y0031935D01*
X0174556Y0031935D02*
X0174556Y0029065D01*
X0174556Y0021935D02*
X0174556Y0019065D01*
X0184556Y0019065D02*
X0184556Y0021935D01*
X0184556Y0029065D02*
X0184556Y0031935D01*
X0194556Y0031935D02*
X0194556Y0029065D01*
X0194556Y0021935D02*
X0194556Y0019065D01*
X0204556Y0019065D02*
X0204556Y0021935D01*
X0204556Y0029065D02*
X0204556Y0031935D01*
D13*
X0224556Y0032000D02*
X0224556Y0029000D01*
X0224556Y0022000D02*
X0224556Y0019000D01*
X0234556Y0019000D02*
X0234556Y0022000D01*
X0234556Y0029000D02*
X0234556Y0032000D01*
X0244556Y0032000D02*
X0244556Y0029000D01*
X0244556Y0022000D02*
X0244556Y0019000D01*
X0254556Y0019000D02*
X0254556Y0022000D01*
X0254556Y0029000D02*
X0254556Y0032000D01*
X0264556Y0032000D02*
X0264556Y0029000D01*
X0264556Y0022000D02*
X0264556Y0019000D01*
X0274556Y0019000D02*
X0274556Y0022000D01*
X0274556Y0029000D02*
X0274556Y0032000D01*
D14*
X0275056Y0110500D03*
X0285056Y0110500D03*
X0285056Y0120500D03*
X0275056Y0120500D03*
X0275056Y0130500D03*
X0285056Y0130500D03*
D15*
X0076800Y0125731D03*
X0066800Y0131131D03*
X0076800Y0136531D03*
X0066800Y0142031D03*
X0076800Y0147431D03*
X0066800Y0152831D03*
X0076800Y0158331D03*
X0066800Y0163731D03*
X0076800Y0169131D03*
X0066800Y0174631D03*
X0076800Y0180031D03*
X0066800Y0120231D03*
X0076800Y0093131D03*
X0076800Y0082231D03*
X0066800Y0076831D03*
X0076800Y0071331D03*
X0066800Y0065931D03*
X0076800Y0060531D03*
X0066800Y0055031D03*
X0076800Y0049631D03*
D16*
X0066800Y0087631D03*
X0066800Y0098531D03*
X0076800Y0103931D03*
X0066800Y0109431D03*
X0076800Y0114831D03*
D17*
X0071800Y0022231D03*
X0071800Y0207431D03*
D18*
X0213217Y0164043D03*
X0253217Y0164043D03*
D19*
X0273769Y0079004D03*
X0273769Y0071130D03*
X0273769Y0063256D03*
X0273769Y0055382D03*
D20*
X0281249Y0047508D03*
D21*
X0252902Y0088059D03*
X0243847Y0097114D03*
X0238335Y0144358D03*
X0267076Y0164831D03*
X0219438Y0176248D03*
X0200540Y0175854D03*
X0203296Y0157744D03*
X0175343Y0151839D03*
X0162351Y0129791D03*
X0152902Y0123098D03*
X0161564Y0120736D03*
X0140698Y0149083D03*
X0130068Y0149083D03*
X0101328Y0164831D03*
X0091091Y0132941D03*
X0100540Y0121917D03*
X0099359Y0109713D03*
X0101328Y0090028D03*
X0091091Y0069555D03*
X0084398Y0060894D03*
X0094635Y0057350D03*
X0128493Y0069555D03*
X0145422Y0058925D03*
X0170225Y0076248D03*
X0103296Y0025067D03*
X0141485Y0182154D03*
D22*
X0133456Y0168900D03*
X0122656Y0168900D03*
X0149656Y0156300D03*
X0166756Y0162600D03*
X0187456Y0150900D03*
X0187456Y0139200D03*
X0191056Y0133800D03*
X0180256Y0122100D03*
X0174856Y0122100D03*
X0190156Y0116700D03*
X0185656Y0109500D03*
X0173056Y0109500D03*
X0162256Y0107700D03*
X0153256Y0115800D03*
X0137956Y0115800D03*
X0130756Y0119400D03*
X0119956Y0128400D03*
X0128956Y0108600D03*
X0120856Y0100500D03*
X0120856Y0095100D03*
X0111856Y0081600D03*
X0124456Y0077100D03*
X0137956Y0080700D03*
X0151456Y0080700D03*
X0170356Y0092400D03*
X0177556Y0086100D03*
X0190156Y0073500D03*
X0200956Y0073500D03*
X0171256Y0060000D03*
X0165856Y0049200D03*
X0131656Y0060900D03*
X0108256Y0057300D03*
X0104656Y0045600D03*
X0087556Y0042900D03*
X0147856Y0100500D03*
X0215356Y0113100D03*
X0217156Y0100500D03*
X0173056Y0179700D03*
X0170356Y0186900D03*
X0176656Y0186900D03*
X0209056Y0185100D03*
X0236056Y0190500D03*
M02*
