G75*
%MOIN*%
%OFA0B0*%
%FSLAX25Y25*%
%IPPOS*%
%LPD*%
%AMOC8*
5,1,8,0,0,1.08239X$1,22.5*
%
%ADD10C,0.01000*%
%ADD11C,0.00500*%
%ADD12C,0.00600*%
%ADD13C,0.00000*%
%ADD14C,0.00300*%
%ADD15C,0.00700*%
%ADD16R,0.03000X1.60000*%
%ADD17R,0.02000X2.09000*%
%ADD18R,0.28500X0.03200*%
%ADD19R,0.18500X0.03200*%
%ADD20R,0.03400X0.02400*%
%ADD21C,0.00200*%
%ADD22C,0.00400*%
%ADD23C,0.00800*%
D10*
X0024556Y0014500D02*
X0024556Y0216500D01*
X0024556Y0216563D02*
X0024558Y0216687D01*
X0024564Y0216810D01*
X0024573Y0216934D01*
X0024587Y0217056D01*
X0024604Y0217179D01*
X0024626Y0217301D01*
X0024651Y0217422D01*
X0024680Y0217542D01*
X0024712Y0217661D01*
X0024749Y0217780D01*
X0024789Y0217897D01*
X0024832Y0218012D01*
X0024880Y0218127D01*
X0024931Y0218239D01*
X0024985Y0218350D01*
X0025043Y0218460D01*
X0025104Y0218567D01*
X0025169Y0218673D01*
X0025237Y0218776D01*
X0025308Y0218877D01*
X0025382Y0218976D01*
X0025459Y0219073D01*
X0025540Y0219167D01*
X0025623Y0219258D01*
X0025709Y0219347D01*
X0025798Y0219433D01*
X0025889Y0219516D01*
X0025983Y0219597D01*
X0026080Y0219674D01*
X0026179Y0219748D01*
X0026280Y0219819D01*
X0026383Y0219887D01*
X0026489Y0219952D01*
X0026596Y0220013D01*
X0026706Y0220071D01*
X0026817Y0220125D01*
X0026929Y0220176D01*
X0027044Y0220224D01*
X0027159Y0220267D01*
X0027276Y0220307D01*
X0027395Y0220344D01*
X0027514Y0220376D01*
X0027634Y0220405D01*
X0027755Y0220430D01*
X0027877Y0220452D01*
X0028000Y0220469D01*
X0028122Y0220483D01*
X0028246Y0220492D01*
X0028369Y0220498D01*
X0028493Y0220500D01*
X0278556Y0220500D01*
X0284556Y0214500D01*
X0284556Y0169500D01*
X0294556Y0159500D01*
X0294556Y0030500D01*
X0284556Y0020500D01*
X0284556Y0014437D01*
X0284554Y0014313D01*
X0284548Y0014190D01*
X0284539Y0014066D01*
X0284525Y0013944D01*
X0284508Y0013821D01*
X0284486Y0013699D01*
X0284461Y0013578D01*
X0284432Y0013458D01*
X0284400Y0013339D01*
X0284363Y0013220D01*
X0284323Y0013103D01*
X0284280Y0012988D01*
X0284232Y0012873D01*
X0284181Y0012761D01*
X0284127Y0012650D01*
X0284069Y0012540D01*
X0284008Y0012433D01*
X0283943Y0012327D01*
X0283875Y0012224D01*
X0283804Y0012123D01*
X0283730Y0012024D01*
X0283653Y0011927D01*
X0283572Y0011833D01*
X0283489Y0011742D01*
X0283403Y0011653D01*
X0283314Y0011567D01*
X0283223Y0011484D01*
X0283129Y0011403D01*
X0283032Y0011326D01*
X0282933Y0011252D01*
X0282832Y0011181D01*
X0282729Y0011113D01*
X0282623Y0011048D01*
X0282516Y0010987D01*
X0282406Y0010929D01*
X0282295Y0010875D01*
X0282183Y0010824D01*
X0282068Y0010776D01*
X0281953Y0010733D01*
X0281836Y0010693D01*
X0281717Y0010656D01*
X0281598Y0010624D01*
X0281478Y0010595D01*
X0281357Y0010570D01*
X0281235Y0010548D01*
X0281112Y0010531D01*
X0280990Y0010517D01*
X0280866Y0010508D01*
X0280743Y0010502D01*
X0280619Y0010500D01*
X0028493Y0010500D01*
X0028369Y0010502D01*
X0028246Y0010508D01*
X0028122Y0010517D01*
X0028000Y0010531D01*
X0027877Y0010548D01*
X0027755Y0010570D01*
X0027634Y0010595D01*
X0027514Y0010624D01*
X0027395Y0010656D01*
X0027276Y0010693D01*
X0027159Y0010733D01*
X0027044Y0010776D01*
X0026929Y0010824D01*
X0026817Y0010875D01*
X0026706Y0010929D01*
X0026596Y0010987D01*
X0026489Y0011048D01*
X0026383Y0011113D01*
X0026280Y0011181D01*
X0026179Y0011252D01*
X0026080Y0011326D01*
X0025983Y0011403D01*
X0025889Y0011484D01*
X0025798Y0011567D01*
X0025709Y0011653D01*
X0025623Y0011742D01*
X0025540Y0011833D01*
X0025459Y0011927D01*
X0025382Y0012024D01*
X0025308Y0012123D01*
X0025237Y0012224D01*
X0025169Y0012327D01*
X0025104Y0012433D01*
X0025043Y0012540D01*
X0024985Y0012650D01*
X0024931Y0012761D01*
X0024880Y0012873D01*
X0024832Y0012988D01*
X0024789Y0013103D01*
X0024749Y0013220D01*
X0024712Y0013339D01*
X0024680Y0013458D01*
X0024651Y0013578D01*
X0024626Y0013699D01*
X0024604Y0013821D01*
X0024587Y0013944D01*
X0024573Y0014066D01*
X0024564Y0014190D01*
X0024558Y0014313D01*
X0024556Y0014437D01*
X0024558Y0014313D01*
X0024564Y0014190D01*
X0024573Y0014066D01*
X0024587Y0013944D01*
X0024604Y0013821D01*
X0024626Y0013699D01*
X0024651Y0013578D01*
X0024680Y0013458D01*
X0024712Y0013339D01*
X0024749Y0013220D01*
X0024789Y0013103D01*
X0024832Y0012988D01*
X0024880Y0012873D01*
X0024931Y0012761D01*
X0024985Y0012650D01*
X0025043Y0012540D01*
X0025104Y0012433D01*
X0025169Y0012327D01*
X0025237Y0012224D01*
X0025308Y0012123D01*
X0025382Y0012024D01*
X0025459Y0011927D01*
X0025540Y0011833D01*
X0025623Y0011742D01*
X0025709Y0011653D01*
X0025798Y0011567D01*
X0025889Y0011484D01*
X0025983Y0011403D01*
X0026080Y0011326D01*
X0026179Y0011252D01*
X0026280Y0011181D01*
X0026383Y0011113D01*
X0026489Y0011048D01*
X0026596Y0010987D01*
X0026706Y0010929D01*
X0026817Y0010875D01*
X0026929Y0010824D01*
X0027044Y0010776D01*
X0027159Y0010733D01*
X0027276Y0010693D01*
X0027395Y0010656D01*
X0027514Y0010624D01*
X0027634Y0010595D01*
X0027755Y0010570D01*
X0027877Y0010548D01*
X0028000Y0010531D01*
X0028122Y0010517D01*
X0028246Y0010508D01*
X0028369Y0010502D01*
X0028493Y0010500D01*
X0028369Y0010502D01*
X0028246Y0010508D01*
X0028122Y0010517D01*
X0028000Y0010531D01*
X0027877Y0010548D01*
X0027755Y0010570D01*
X0027634Y0010595D01*
X0027514Y0010624D01*
X0027395Y0010656D01*
X0027276Y0010693D01*
X0027159Y0010733D01*
X0027044Y0010776D01*
X0026929Y0010824D01*
X0026817Y0010875D01*
X0026706Y0010929D01*
X0026596Y0010987D01*
X0026489Y0011048D01*
X0026383Y0011113D01*
X0026280Y0011181D01*
X0026179Y0011252D01*
X0026080Y0011326D01*
X0025983Y0011403D01*
X0025889Y0011484D01*
X0025798Y0011567D01*
X0025709Y0011653D01*
X0025623Y0011742D01*
X0025540Y0011833D01*
X0025459Y0011927D01*
X0025382Y0012024D01*
X0025308Y0012123D01*
X0025237Y0012224D01*
X0025169Y0012327D01*
X0025104Y0012433D01*
X0025043Y0012540D01*
X0024985Y0012650D01*
X0024931Y0012761D01*
X0024880Y0012873D01*
X0024832Y0012988D01*
X0024789Y0013103D01*
X0024749Y0013220D01*
X0024712Y0013339D01*
X0024680Y0013458D01*
X0024651Y0013578D01*
X0024626Y0013699D01*
X0024604Y0013821D01*
X0024587Y0013944D01*
X0024573Y0014066D01*
X0024564Y0014190D01*
X0024558Y0014313D01*
X0024556Y0014437D01*
X0024558Y0014313D01*
X0024564Y0014190D01*
X0024573Y0014066D01*
X0024587Y0013944D01*
X0024604Y0013821D01*
X0024626Y0013699D01*
X0024651Y0013578D01*
X0024680Y0013458D01*
X0024712Y0013339D01*
X0024749Y0013220D01*
X0024789Y0013103D01*
X0024832Y0012988D01*
X0024880Y0012873D01*
X0024931Y0012761D01*
X0024985Y0012650D01*
X0025043Y0012540D01*
X0025104Y0012433D01*
X0025169Y0012327D01*
X0025237Y0012224D01*
X0025308Y0012123D01*
X0025382Y0012024D01*
X0025459Y0011927D01*
X0025540Y0011833D01*
X0025623Y0011742D01*
X0025709Y0011653D01*
X0025798Y0011567D01*
X0025889Y0011484D01*
X0025983Y0011403D01*
X0026080Y0011326D01*
X0026179Y0011252D01*
X0026280Y0011181D01*
X0026383Y0011113D01*
X0026489Y0011048D01*
X0026596Y0010987D01*
X0026706Y0010929D01*
X0026817Y0010875D01*
X0026929Y0010824D01*
X0027044Y0010776D01*
X0027159Y0010733D01*
X0027276Y0010693D01*
X0027395Y0010656D01*
X0027514Y0010624D01*
X0027634Y0010595D01*
X0027755Y0010570D01*
X0027877Y0010548D01*
X0028000Y0010531D01*
X0028122Y0010517D01*
X0028246Y0010508D01*
X0028369Y0010502D01*
X0028493Y0010500D01*
X0104556Y0193000D02*
X0102056Y0195500D01*
X0028493Y0220500D02*
X0028369Y0220498D01*
X0028246Y0220492D01*
X0028122Y0220483D01*
X0028000Y0220469D01*
X0027877Y0220452D01*
X0027755Y0220430D01*
X0027634Y0220405D01*
X0027514Y0220376D01*
X0027395Y0220344D01*
X0027276Y0220307D01*
X0027159Y0220267D01*
X0027044Y0220224D01*
X0026929Y0220176D01*
X0026817Y0220125D01*
X0026706Y0220071D01*
X0026596Y0220013D01*
X0026489Y0219952D01*
X0026383Y0219887D01*
X0026280Y0219819D01*
X0026179Y0219748D01*
X0026080Y0219674D01*
X0025983Y0219597D01*
X0025889Y0219516D01*
X0025798Y0219433D01*
X0025709Y0219347D01*
X0025623Y0219258D01*
X0025540Y0219167D01*
X0025459Y0219073D01*
X0025382Y0218976D01*
X0025308Y0218877D01*
X0025237Y0218776D01*
X0025169Y0218673D01*
X0025104Y0218567D01*
X0025043Y0218460D01*
X0024985Y0218350D01*
X0024931Y0218239D01*
X0024880Y0218127D01*
X0024832Y0218012D01*
X0024789Y0217897D01*
X0024749Y0217780D01*
X0024712Y0217661D01*
X0024680Y0217542D01*
X0024651Y0217422D01*
X0024626Y0217301D01*
X0024604Y0217179D01*
X0024587Y0217056D01*
X0024573Y0216934D01*
X0024564Y0216810D01*
X0024558Y0216687D01*
X0024556Y0216563D01*
X0024558Y0216687D01*
X0024564Y0216810D01*
X0024573Y0216934D01*
X0024587Y0217056D01*
X0024604Y0217179D01*
X0024626Y0217301D01*
X0024651Y0217422D01*
X0024680Y0217542D01*
X0024712Y0217661D01*
X0024749Y0217780D01*
X0024789Y0217897D01*
X0024832Y0218012D01*
X0024880Y0218127D01*
X0024931Y0218239D01*
X0024985Y0218350D01*
X0025043Y0218460D01*
X0025104Y0218567D01*
X0025169Y0218673D01*
X0025237Y0218776D01*
X0025308Y0218877D01*
X0025382Y0218976D01*
X0025459Y0219073D01*
X0025540Y0219167D01*
X0025623Y0219258D01*
X0025709Y0219347D01*
X0025798Y0219433D01*
X0025889Y0219516D01*
X0025983Y0219597D01*
X0026080Y0219674D01*
X0026179Y0219748D01*
X0026280Y0219819D01*
X0026383Y0219887D01*
X0026489Y0219952D01*
X0026596Y0220013D01*
X0026706Y0220071D01*
X0026817Y0220125D01*
X0026929Y0220176D01*
X0027044Y0220224D01*
X0027159Y0220267D01*
X0027276Y0220307D01*
X0027395Y0220344D01*
X0027514Y0220376D01*
X0027634Y0220405D01*
X0027755Y0220430D01*
X0027877Y0220452D01*
X0028000Y0220469D01*
X0028122Y0220483D01*
X0028246Y0220492D01*
X0028369Y0220498D01*
X0028493Y0220500D01*
X0028369Y0220498D01*
X0028246Y0220492D01*
X0028122Y0220483D01*
X0028000Y0220469D01*
X0027877Y0220452D01*
X0027755Y0220430D01*
X0027634Y0220405D01*
X0027514Y0220376D01*
X0027395Y0220344D01*
X0027276Y0220307D01*
X0027159Y0220267D01*
X0027044Y0220224D01*
X0026929Y0220176D01*
X0026817Y0220125D01*
X0026706Y0220071D01*
X0026596Y0220013D01*
X0026489Y0219952D01*
X0026383Y0219887D01*
X0026280Y0219819D01*
X0026179Y0219748D01*
X0026080Y0219674D01*
X0025983Y0219597D01*
X0025889Y0219516D01*
X0025798Y0219433D01*
X0025709Y0219347D01*
X0025623Y0219258D01*
X0025540Y0219167D01*
X0025459Y0219073D01*
X0025382Y0218976D01*
X0025308Y0218877D01*
X0025237Y0218776D01*
X0025169Y0218673D01*
X0025104Y0218567D01*
X0025043Y0218460D01*
X0024985Y0218350D01*
X0024931Y0218239D01*
X0024880Y0218127D01*
X0024832Y0218012D01*
X0024789Y0217897D01*
X0024749Y0217780D01*
X0024712Y0217661D01*
X0024680Y0217542D01*
X0024651Y0217422D01*
X0024626Y0217301D01*
X0024604Y0217179D01*
X0024587Y0217056D01*
X0024573Y0216934D01*
X0024564Y0216810D01*
X0024558Y0216687D01*
X0024556Y0216563D01*
X0280619Y0010500D02*
X0280743Y0010502D01*
X0280866Y0010508D01*
X0280990Y0010517D01*
X0281112Y0010531D01*
X0281235Y0010548D01*
X0281357Y0010570D01*
X0281478Y0010595D01*
X0281598Y0010624D01*
X0281717Y0010656D01*
X0281836Y0010693D01*
X0281953Y0010733D01*
X0282068Y0010776D01*
X0282183Y0010824D01*
X0282295Y0010875D01*
X0282406Y0010929D01*
X0282516Y0010987D01*
X0282623Y0011048D01*
X0282729Y0011113D01*
X0282832Y0011181D01*
X0282933Y0011252D01*
X0283032Y0011326D01*
X0283129Y0011403D01*
X0283223Y0011484D01*
X0283314Y0011567D01*
X0283403Y0011653D01*
X0283489Y0011742D01*
X0283572Y0011833D01*
X0283653Y0011927D01*
X0283730Y0012024D01*
X0283804Y0012123D01*
X0283875Y0012224D01*
X0283943Y0012327D01*
X0284008Y0012433D01*
X0284069Y0012540D01*
X0284127Y0012650D01*
X0284181Y0012761D01*
X0284232Y0012873D01*
X0284280Y0012988D01*
X0284323Y0013103D01*
X0284363Y0013220D01*
X0284400Y0013339D01*
X0284432Y0013458D01*
X0284461Y0013578D01*
X0284486Y0013699D01*
X0284508Y0013821D01*
X0284525Y0013944D01*
X0284539Y0014066D01*
X0284548Y0014190D01*
X0284554Y0014313D01*
X0284556Y0014437D01*
X0284554Y0014313D01*
X0284548Y0014190D01*
X0284539Y0014066D01*
X0284525Y0013944D01*
X0284508Y0013821D01*
X0284486Y0013699D01*
X0284461Y0013578D01*
X0284432Y0013458D01*
X0284400Y0013339D01*
X0284363Y0013220D01*
X0284323Y0013103D01*
X0284280Y0012988D01*
X0284232Y0012873D01*
X0284181Y0012761D01*
X0284127Y0012650D01*
X0284069Y0012540D01*
X0284008Y0012433D01*
X0283943Y0012327D01*
X0283875Y0012224D01*
X0283804Y0012123D01*
X0283730Y0012024D01*
X0283653Y0011927D01*
X0283572Y0011833D01*
X0283489Y0011742D01*
X0283403Y0011653D01*
X0283314Y0011567D01*
X0283223Y0011484D01*
X0283129Y0011403D01*
X0283032Y0011326D01*
X0282933Y0011252D01*
X0282832Y0011181D01*
X0282729Y0011113D01*
X0282623Y0011048D01*
X0282516Y0010987D01*
X0282406Y0010929D01*
X0282295Y0010875D01*
X0282183Y0010824D01*
X0282068Y0010776D01*
X0281953Y0010733D01*
X0281836Y0010693D01*
X0281717Y0010656D01*
X0281598Y0010624D01*
X0281478Y0010595D01*
X0281357Y0010570D01*
X0281235Y0010548D01*
X0281112Y0010531D01*
X0280990Y0010517D01*
X0280866Y0010508D01*
X0280743Y0010502D01*
X0280619Y0010500D01*
X0280743Y0010502D01*
X0280866Y0010508D01*
X0280990Y0010517D01*
X0281112Y0010531D01*
X0281235Y0010548D01*
X0281357Y0010570D01*
X0281478Y0010595D01*
X0281598Y0010624D01*
X0281717Y0010656D01*
X0281836Y0010693D01*
X0281953Y0010733D01*
X0282068Y0010776D01*
X0282183Y0010824D01*
X0282295Y0010875D01*
X0282406Y0010929D01*
X0282516Y0010987D01*
X0282623Y0011048D01*
X0282729Y0011113D01*
X0282832Y0011181D01*
X0282933Y0011252D01*
X0283032Y0011326D01*
X0283129Y0011403D01*
X0283223Y0011484D01*
X0283314Y0011567D01*
X0283403Y0011653D01*
X0283489Y0011742D01*
X0283572Y0011833D01*
X0283653Y0011927D01*
X0283730Y0012024D01*
X0283804Y0012123D01*
X0283875Y0012224D01*
X0283943Y0012327D01*
X0284008Y0012433D01*
X0284069Y0012540D01*
X0284127Y0012650D01*
X0284181Y0012761D01*
X0284232Y0012873D01*
X0284280Y0012988D01*
X0284323Y0013103D01*
X0284363Y0013220D01*
X0284400Y0013339D01*
X0284432Y0013458D01*
X0284461Y0013578D01*
X0284486Y0013699D01*
X0284508Y0013821D01*
X0284525Y0013944D01*
X0284539Y0014066D01*
X0284548Y0014190D01*
X0284554Y0014313D01*
X0284556Y0014437D01*
D11*
X0252412Y0007754D02*
X0250911Y0007003D01*
X0249410Y0005502D01*
X0251662Y0005502D01*
X0252412Y0004751D01*
X0252412Y0004001D01*
X0251662Y0003250D01*
X0250160Y0003250D01*
X0249410Y0004001D01*
X0249410Y0005502D01*
X0247808Y0007754D02*
X0246307Y0007754D01*
X0247058Y0007754D02*
X0247058Y0004001D01*
X0246307Y0003250D01*
X0245557Y0003250D01*
X0244806Y0004001D01*
X0261957Y0043571D02*
X0261957Y0090815D01*
X0285580Y0090815D01*
X0285580Y0043571D01*
X0261957Y0043571D01*
X0221280Y0105925D02*
X0221282Y0105988D01*
X0221288Y0106050D01*
X0221298Y0106112D01*
X0221311Y0106174D01*
X0221329Y0106234D01*
X0221350Y0106293D01*
X0221375Y0106351D01*
X0221404Y0106407D01*
X0221436Y0106461D01*
X0221471Y0106513D01*
X0221509Y0106562D01*
X0221551Y0106610D01*
X0221595Y0106654D01*
X0221643Y0106696D01*
X0221692Y0106734D01*
X0221744Y0106769D01*
X0221798Y0106801D01*
X0221854Y0106830D01*
X0221912Y0106855D01*
X0221971Y0106876D01*
X0222031Y0106894D01*
X0222093Y0106907D01*
X0222155Y0106917D01*
X0222217Y0106923D01*
X0222280Y0106925D01*
X0222343Y0106923D01*
X0222405Y0106917D01*
X0222467Y0106907D01*
X0222529Y0106894D01*
X0222589Y0106876D01*
X0222648Y0106855D01*
X0222706Y0106830D01*
X0222762Y0106801D01*
X0222816Y0106769D01*
X0222868Y0106734D01*
X0222917Y0106696D01*
X0222965Y0106654D01*
X0223009Y0106610D01*
X0223051Y0106562D01*
X0223089Y0106513D01*
X0223124Y0106461D01*
X0223156Y0106407D01*
X0223185Y0106351D01*
X0223210Y0106293D01*
X0223231Y0106234D01*
X0223249Y0106174D01*
X0223262Y0106112D01*
X0223272Y0106050D01*
X0223278Y0105988D01*
X0223280Y0105925D01*
X0223278Y0105862D01*
X0223272Y0105800D01*
X0223262Y0105738D01*
X0223249Y0105676D01*
X0223231Y0105616D01*
X0223210Y0105557D01*
X0223185Y0105499D01*
X0223156Y0105443D01*
X0223124Y0105389D01*
X0223089Y0105337D01*
X0223051Y0105288D01*
X0223009Y0105240D01*
X0222965Y0105196D01*
X0222917Y0105154D01*
X0222868Y0105116D01*
X0222816Y0105081D01*
X0222762Y0105049D01*
X0222706Y0105020D01*
X0222648Y0104995D01*
X0222589Y0104974D01*
X0222529Y0104956D01*
X0222467Y0104943D01*
X0222405Y0104933D01*
X0222343Y0104927D01*
X0222280Y0104925D01*
X0222217Y0104927D01*
X0222155Y0104933D01*
X0222093Y0104943D01*
X0222031Y0104956D01*
X0221971Y0104974D01*
X0221912Y0104995D01*
X0221854Y0105020D01*
X0221798Y0105049D01*
X0221744Y0105081D01*
X0221692Y0105116D01*
X0221643Y0105154D01*
X0221595Y0105196D01*
X0221551Y0105240D01*
X0221509Y0105288D01*
X0221471Y0105337D01*
X0221436Y0105389D01*
X0221404Y0105443D01*
X0221375Y0105499D01*
X0221350Y0105557D01*
X0221329Y0105616D01*
X0221311Y0105676D01*
X0221298Y0105738D01*
X0221288Y0105800D01*
X0221282Y0105862D01*
X0221280Y0105925D01*
X0236259Y0153293D02*
X0236259Y0157797D01*
X0238511Y0157797D01*
X0239262Y0157047D01*
X0239262Y0155545D01*
X0238511Y0154795D01*
X0236259Y0154795D01*
X0237761Y0154795D02*
X0239262Y0153293D01*
X0240863Y0153293D02*
X0243866Y0153293D01*
X0242365Y0153293D02*
X0242365Y0157797D01*
X0240863Y0156296D01*
X0130806Y0184334D02*
X0130806Y0185501D01*
X0130222Y0186085D01*
X0129054Y0186085D01*
X0129054Y0184918D01*
X0127887Y0186085D02*
X0127303Y0185501D01*
X0127303Y0184334D01*
X0127887Y0183750D01*
X0130222Y0183750D01*
X0130806Y0184334D01*
X0130806Y0187433D02*
X0127303Y0187433D01*
X0130806Y0189768D01*
X0127303Y0189768D01*
X0127303Y0191116D02*
X0127303Y0192868D01*
X0127887Y0193452D01*
X0130222Y0193452D01*
X0130806Y0192868D01*
X0130806Y0191116D01*
X0127303Y0191116D01*
X0111806Y0191616D02*
X0109471Y0191616D01*
X0108303Y0192784D01*
X0109471Y0193952D01*
X0111806Y0193952D01*
X0110054Y0193952D02*
X0110054Y0191616D01*
X0108887Y0190268D02*
X0108303Y0189685D01*
X0108303Y0187933D01*
X0111806Y0187933D01*
X0111806Y0189685D01*
X0111222Y0190268D01*
X0108887Y0190268D01*
X0108887Y0186585D02*
X0108303Y0186001D01*
X0108303Y0184834D01*
X0108887Y0184250D01*
X0109471Y0184250D01*
X0110054Y0184834D01*
X0110054Y0186001D01*
X0110638Y0186585D01*
X0111222Y0186585D01*
X0111806Y0186001D01*
X0111806Y0184834D01*
X0111222Y0184250D01*
X0101306Y0184834D02*
X0100722Y0184250D01*
X0101306Y0184834D02*
X0101306Y0186001D01*
X0100722Y0186585D01*
X0100138Y0186585D01*
X0099554Y0186001D01*
X0099554Y0184834D01*
X0098971Y0184250D01*
X0098387Y0184250D01*
X0097803Y0184834D01*
X0097803Y0186001D01*
X0098387Y0186585D01*
X0098387Y0187933D02*
X0100722Y0187933D01*
X0101306Y0188517D01*
X0101306Y0189685D01*
X0100722Y0190268D01*
X0101306Y0191616D02*
X0101306Y0193952D01*
X0101306Y0191616D02*
X0097803Y0191616D01*
X0098387Y0190268D02*
X0097803Y0189685D01*
X0097803Y0188517D01*
X0098387Y0187933D01*
X0079050Y0188083D02*
X0079050Y0185081D01*
X0079050Y0186582D02*
X0074546Y0186582D01*
X0076047Y0185081D01*
X0075297Y0189685D02*
X0074546Y0190435D01*
X0074546Y0191937D01*
X0075297Y0192687D01*
X0076047Y0192687D01*
X0076798Y0191937D01*
X0077549Y0192687D01*
X0078299Y0192687D01*
X0079050Y0191937D01*
X0079050Y0190435D01*
X0078299Y0189685D01*
X0076798Y0191186D02*
X0076798Y0191937D01*
X0069050Y0191937D02*
X0069050Y0190435D01*
X0068299Y0189685D01*
X0066798Y0189685D02*
X0066047Y0191186D01*
X0066047Y0191937D01*
X0066798Y0192687D01*
X0068299Y0192687D01*
X0069050Y0191937D01*
X0066798Y0189685D02*
X0064546Y0189685D01*
X0064546Y0192687D01*
X0065297Y0188083D02*
X0064546Y0187333D01*
X0064546Y0185831D01*
X0065297Y0185081D01*
X0065297Y0188083D02*
X0066047Y0188083D01*
X0069050Y0185081D01*
X0069050Y0188083D01*
X0059698Y0212581D02*
X0059698Y0217085D01*
X0057446Y0214833D01*
X0060449Y0214833D01*
X0055845Y0214833D02*
X0055845Y0213331D01*
X0055094Y0212581D01*
X0053593Y0212581D01*
X0052842Y0213331D01*
X0052842Y0214833D02*
X0054343Y0215583D01*
X0055094Y0215583D01*
X0055845Y0214833D01*
X0055845Y0217085D02*
X0052842Y0217085D01*
X0052842Y0214833D01*
X0051274Y0213331D02*
X0050523Y0213331D01*
X0050523Y0212581D01*
X0051274Y0212581D01*
X0051274Y0213331D01*
X0051274Y0212581D02*
X0049773Y0211079D01*
X0048171Y0212581D02*
X0045169Y0212581D01*
X0048171Y0215583D01*
X0048171Y0216334D01*
X0047421Y0217085D01*
X0045920Y0217085D01*
X0045169Y0216334D01*
X0037299Y0053791D02*
X0035798Y0053791D01*
X0035047Y0053040D01*
X0035047Y0052290D01*
X0035798Y0050789D01*
X0033546Y0050789D01*
X0033546Y0053791D01*
X0037299Y0053791D02*
X0038050Y0053040D01*
X0038050Y0051539D01*
X0037299Y0050789D01*
X0038050Y0049187D02*
X0038050Y0046185D01*
X0035047Y0049187D01*
X0034297Y0049187D01*
X0033546Y0048437D01*
X0033546Y0046935D01*
X0034297Y0046185D01*
X0033546Y0044583D02*
X0033546Y0041581D01*
X0038050Y0041581D01*
X0035798Y0041581D02*
X0035798Y0043082D01*
X0064546Y0044937D02*
X0066798Y0042685D01*
X0066798Y0045687D01*
X0069050Y0044937D02*
X0064546Y0044937D01*
X0069050Y0041083D02*
X0069050Y0038081D01*
X0069050Y0039582D02*
X0064546Y0039582D01*
X0066047Y0038081D01*
X0074546Y0043082D02*
X0079050Y0043082D01*
X0079050Y0041581D02*
X0079050Y0044583D01*
X0076047Y0041581D02*
X0074546Y0043082D01*
X0152803Y0043268D02*
X0152803Y0040933D01*
X0156306Y0040933D01*
X0156306Y0043268D01*
X0155722Y0044616D02*
X0156306Y0045200D01*
X0156306Y0046368D01*
X0155722Y0046952D01*
X0155138Y0046952D01*
X0154554Y0046368D01*
X0154554Y0045200D01*
X0153971Y0044616D01*
X0153387Y0044616D01*
X0152803Y0045200D01*
X0152803Y0046368D01*
X0153387Y0046952D01*
X0154554Y0042101D02*
X0154554Y0040933D01*
X0154554Y0039585D02*
X0155138Y0039001D01*
X0155138Y0037250D01*
X0155138Y0038418D02*
X0156306Y0039585D01*
X0154554Y0039585D02*
X0153387Y0039585D01*
X0152803Y0039001D01*
X0152803Y0037250D01*
X0156306Y0037250D01*
X0162803Y0037834D02*
X0162803Y0039001D01*
X0163387Y0039585D01*
X0163971Y0039585D01*
X0164554Y0039001D01*
X0165138Y0039585D01*
X0165722Y0039585D01*
X0166306Y0039001D01*
X0166306Y0037834D01*
X0165722Y0037250D01*
X0164554Y0038418D02*
X0164554Y0039001D01*
X0165138Y0040933D02*
X0162803Y0040933D01*
X0165138Y0040933D02*
X0166306Y0042101D01*
X0165138Y0043268D01*
X0162803Y0043268D01*
X0163387Y0044616D02*
X0162803Y0045200D01*
X0162803Y0046368D01*
X0163387Y0046952D01*
X0163971Y0046952D01*
X0164554Y0046368D01*
X0165138Y0046952D01*
X0165722Y0046952D01*
X0166306Y0046368D01*
X0166306Y0045200D01*
X0165722Y0044616D01*
X0164554Y0045784D02*
X0164554Y0046368D01*
X0162803Y0037834D02*
X0163387Y0037250D01*
X0166307Y0007754D02*
X0167808Y0007754D01*
X0167058Y0007754D02*
X0167058Y0004001D01*
X0166307Y0003250D01*
X0165557Y0003250D01*
X0164806Y0004001D01*
X0169410Y0003250D02*
X0172412Y0006253D01*
X0172412Y0007003D01*
X0171662Y0007754D01*
X0170160Y0007754D01*
X0169410Y0007003D01*
X0169410Y0003250D02*
X0172412Y0003250D01*
D12*
X0025800Y0010331D02*
X0025800Y0040831D01*
X0025800Y0188831D01*
X0025800Y0219331D01*
X0027800Y0219331D01*
X0027800Y0209331D01*
X0027800Y0199331D01*
X0029800Y0199331D01*
X0029800Y0198831D01*
X0039300Y0198831D01*
X0039398Y0198829D01*
X0039496Y0198823D01*
X0039594Y0198814D01*
X0039691Y0198800D01*
X0039788Y0198783D01*
X0039884Y0198762D01*
X0039979Y0198737D01*
X0040073Y0198709D01*
X0040165Y0198676D01*
X0040257Y0198641D01*
X0040347Y0198601D01*
X0040435Y0198559D01*
X0040522Y0198512D01*
X0040606Y0198463D01*
X0040689Y0198410D01*
X0040769Y0198354D01*
X0040848Y0198294D01*
X0040924Y0198232D01*
X0040997Y0198167D01*
X0041068Y0198099D01*
X0041136Y0198028D01*
X0041201Y0197955D01*
X0041263Y0197879D01*
X0041323Y0197800D01*
X0041379Y0197720D01*
X0041432Y0197637D01*
X0041481Y0197553D01*
X0041528Y0197466D01*
X0041570Y0197378D01*
X0041610Y0197288D01*
X0041645Y0197196D01*
X0041678Y0197104D01*
X0041706Y0197010D01*
X0041731Y0196915D01*
X0041752Y0196819D01*
X0041769Y0196722D01*
X0041783Y0196625D01*
X0041792Y0196527D01*
X0041798Y0196429D01*
X0041800Y0196331D01*
X0041800Y0195831D02*
X0082300Y0195831D01*
X0084300Y0197831D01*
X0084300Y0217331D01*
X0082300Y0219331D01*
X0042300Y0219331D01*
X0041800Y0219331D01*
X0041800Y0199331D01*
X0041800Y0195831D01*
X0041800Y0194831D01*
X0044800Y0194831D01*
X0044800Y0034831D01*
X0041800Y0034831D01*
X0041800Y0194831D01*
X0030800Y0199331D02*
X0029800Y0199331D01*
X0027800Y0199331D02*
X0027800Y0030331D01*
X0029800Y0030331D01*
X0029800Y0030831D01*
X0039300Y0030831D01*
X0039398Y0030833D01*
X0039496Y0030839D01*
X0039594Y0030848D01*
X0039691Y0030862D01*
X0039788Y0030879D01*
X0039884Y0030900D01*
X0039979Y0030925D01*
X0040073Y0030953D01*
X0040165Y0030986D01*
X0040257Y0031021D01*
X0040347Y0031061D01*
X0040435Y0031103D01*
X0040522Y0031150D01*
X0040606Y0031199D01*
X0040689Y0031252D01*
X0040769Y0031308D01*
X0040848Y0031368D01*
X0040924Y0031430D01*
X0040997Y0031495D01*
X0041068Y0031563D01*
X0041136Y0031634D01*
X0041201Y0031707D01*
X0041263Y0031783D01*
X0041323Y0031862D01*
X0041379Y0031942D01*
X0041432Y0032025D01*
X0041481Y0032109D01*
X0041528Y0032196D01*
X0041570Y0032284D01*
X0041610Y0032374D01*
X0041645Y0032466D01*
X0041678Y0032558D01*
X0041706Y0032652D01*
X0041731Y0032747D01*
X0041752Y0032843D01*
X0041769Y0032940D01*
X0041783Y0033037D01*
X0041792Y0033135D01*
X0041798Y0033233D01*
X0041800Y0033331D01*
X0041800Y0033831D02*
X0041800Y0030331D01*
X0041800Y0010331D01*
X0042300Y0010331D01*
X0081800Y0010331D01*
X0084300Y0012831D01*
X0084300Y0031831D01*
X0082300Y0033831D01*
X0041800Y0033831D01*
X0041800Y0034831D01*
X0030800Y0030331D02*
X0029800Y0030331D01*
X0027800Y0030331D02*
X0027800Y0020331D01*
X0027800Y0010331D01*
X0025800Y0010331D01*
X0027800Y0010331D02*
X0029800Y0010331D01*
X0041800Y0010331D01*
X0065300Y0022231D02*
X0065302Y0022392D01*
X0065308Y0022552D01*
X0065318Y0022713D01*
X0065332Y0022873D01*
X0065350Y0023033D01*
X0065371Y0023192D01*
X0065397Y0023351D01*
X0065427Y0023509D01*
X0065460Y0023666D01*
X0065498Y0023823D01*
X0065539Y0023978D01*
X0065584Y0024132D01*
X0065633Y0024285D01*
X0065686Y0024437D01*
X0065742Y0024588D01*
X0065803Y0024737D01*
X0065866Y0024885D01*
X0065934Y0025031D01*
X0066005Y0025175D01*
X0066079Y0025317D01*
X0066157Y0025458D01*
X0066239Y0025596D01*
X0066324Y0025733D01*
X0066412Y0025867D01*
X0066504Y0025999D01*
X0066599Y0026129D01*
X0066697Y0026257D01*
X0066798Y0026382D01*
X0066902Y0026504D01*
X0067009Y0026624D01*
X0067119Y0026741D01*
X0067232Y0026856D01*
X0067348Y0026967D01*
X0067467Y0027076D01*
X0067588Y0027181D01*
X0067712Y0027284D01*
X0067838Y0027384D01*
X0067966Y0027480D01*
X0068097Y0027573D01*
X0068231Y0027663D01*
X0068366Y0027750D01*
X0068504Y0027833D01*
X0068643Y0027913D01*
X0068785Y0027989D01*
X0068928Y0028062D01*
X0069073Y0028131D01*
X0069220Y0028197D01*
X0069368Y0028259D01*
X0069518Y0028317D01*
X0069669Y0028372D01*
X0069822Y0028423D01*
X0069976Y0028470D01*
X0070131Y0028513D01*
X0070287Y0028552D01*
X0070443Y0028588D01*
X0070601Y0028619D01*
X0070759Y0028647D01*
X0070918Y0028671D01*
X0071078Y0028691D01*
X0071238Y0028707D01*
X0071398Y0028719D01*
X0071559Y0028727D01*
X0071720Y0028731D01*
X0071880Y0028731D01*
X0072041Y0028727D01*
X0072202Y0028719D01*
X0072362Y0028707D01*
X0072522Y0028691D01*
X0072682Y0028671D01*
X0072841Y0028647D01*
X0072999Y0028619D01*
X0073157Y0028588D01*
X0073313Y0028552D01*
X0073469Y0028513D01*
X0073624Y0028470D01*
X0073778Y0028423D01*
X0073931Y0028372D01*
X0074082Y0028317D01*
X0074232Y0028259D01*
X0074380Y0028197D01*
X0074527Y0028131D01*
X0074672Y0028062D01*
X0074815Y0027989D01*
X0074957Y0027913D01*
X0075096Y0027833D01*
X0075234Y0027750D01*
X0075369Y0027663D01*
X0075503Y0027573D01*
X0075634Y0027480D01*
X0075762Y0027384D01*
X0075888Y0027284D01*
X0076012Y0027181D01*
X0076133Y0027076D01*
X0076252Y0026967D01*
X0076368Y0026856D01*
X0076481Y0026741D01*
X0076591Y0026624D01*
X0076698Y0026504D01*
X0076802Y0026382D01*
X0076903Y0026257D01*
X0077001Y0026129D01*
X0077096Y0025999D01*
X0077188Y0025867D01*
X0077276Y0025733D01*
X0077361Y0025596D01*
X0077443Y0025458D01*
X0077521Y0025317D01*
X0077595Y0025175D01*
X0077666Y0025031D01*
X0077734Y0024885D01*
X0077797Y0024737D01*
X0077858Y0024588D01*
X0077914Y0024437D01*
X0077967Y0024285D01*
X0078016Y0024132D01*
X0078061Y0023978D01*
X0078102Y0023823D01*
X0078140Y0023666D01*
X0078173Y0023509D01*
X0078203Y0023351D01*
X0078229Y0023192D01*
X0078250Y0023033D01*
X0078268Y0022873D01*
X0078282Y0022713D01*
X0078292Y0022552D01*
X0078298Y0022392D01*
X0078300Y0022231D01*
X0078298Y0022070D01*
X0078292Y0021910D01*
X0078282Y0021749D01*
X0078268Y0021589D01*
X0078250Y0021429D01*
X0078229Y0021270D01*
X0078203Y0021111D01*
X0078173Y0020953D01*
X0078140Y0020796D01*
X0078102Y0020639D01*
X0078061Y0020484D01*
X0078016Y0020330D01*
X0077967Y0020177D01*
X0077914Y0020025D01*
X0077858Y0019874D01*
X0077797Y0019725D01*
X0077734Y0019577D01*
X0077666Y0019431D01*
X0077595Y0019287D01*
X0077521Y0019145D01*
X0077443Y0019004D01*
X0077361Y0018866D01*
X0077276Y0018729D01*
X0077188Y0018595D01*
X0077096Y0018463D01*
X0077001Y0018333D01*
X0076903Y0018205D01*
X0076802Y0018080D01*
X0076698Y0017958D01*
X0076591Y0017838D01*
X0076481Y0017721D01*
X0076368Y0017606D01*
X0076252Y0017495D01*
X0076133Y0017386D01*
X0076012Y0017281D01*
X0075888Y0017178D01*
X0075762Y0017078D01*
X0075634Y0016982D01*
X0075503Y0016889D01*
X0075369Y0016799D01*
X0075234Y0016712D01*
X0075096Y0016629D01*
X0074957Y0016549D01*
X0074815Y0016473D01*
X0074672Y0016400D01*
X0074527Y0016331D01*
X0074380Y0016265D01*
X0074232Y0016203D01*
X0074082Y0016145D01*
X0073931Y0016090D01*
X0073778Y0016039D01*
X0073624Y0015992D01*
X0073469Y0015949D01*
X0073313Y0015910D01*
X0073157Y0015874D01*
X0072999Y0015843D01*
X0072841Y0015815D01*
X0072682Y0015791D01*
X0072522Y0015771D01*
X0072362Y0015755D01*
X0072202Y0015743D01*
X0072041Y0015735D01*
X0071880Y0015731D01*
X0071720Y0015731D01*
X0071559Y0015735D01*
X0071398Y0015743D01*
X0071238Y0015755D01*
X0071078Y0015771D01*
X0070918Y0015791D01*
X0070759Y0015815D01*
X0070601Y0015843D01*
X0070443Y0015874D01*
X0070287Y0015910D01*
X0070131Y0015949D01*
X0069976Y0015992D01*
X0069822Y0016039D01*
X0069669Y0016090D01*
X0069518Y0016145D01*
X0069368Y0016203D01*
X0069220Y0016265D01*
X0069073Y0016331D01*
X0068928Y0016400D01*
X0068785Y0016473D01*
X0068643Y0016549D01*
X0068504Y0016629D01*
X0068366Y0016712D01*
X0068231Y0016799D01*
X0068097Y0016889D01*
X0067966Y0016982D01*
X0067838Y0017078D01*
X0067712Y0017178D01*
X0067588Y0017281D01*
X0067467Y0017386D01*
X0067348Y0017495D01*
X0067232Y0017606D01*
X0067119Y0017721D01*
X0067009Y0017838D01*
X0066902Y0017958D01*
X0066798Y0018080D01*
X0066697Y0018205D01*
X0066599Y0018333D01*
X0066504Y0018463D01*
X0066412Y0018595D01*
X0066324Y0018729D01*
X0066239Y0018866D01*
X0066157Y0019004D01*
X0066079Y0019145D01*
X0066005Y0019287D01*
X0065934Y0019431D01*
X0065866Y0019577D01*
X0065803Y0019725D01*
X0065742Y0019874D01*
X0065686Y0020025D01*
X0065633Y0020177D01*
X0065584Y0020330D01*
X0065539Y0020484D01*
X0065498Y0020639D01*
X0065460Y0020796D01*
X0065427Y0020953D01*
X0065397Y0021111D01*
X0065371Y0021270D01*
X0065350Y0021429D01*
X0065332Y0021589D01*
X0065318Y0021749D01*
X0065308Y0021910D01*
X0065302Y0022070D01*
X0065300Y0022231D01*
X0025800Y0036831D02*
X0025798Y0036929D01*
X0025792Y0037027D01*
X0025783Y0037125D01*
X0025769Y0037222D01*
X0025752Y0037319D01*
X0025731Y0037415D01*
X0025706Y0037510D01*
X0025678Y0037604D01*
X0025645Y0037696D01*
X0025610Y0037788D01*
X0025570Y0037878D01*
X0025528Y0037966D01*
X0025481Y0038053D01*
X0025432Y0038137D01*
X0025379Y0038220D01*
X0025323Y0038300D01*
X0025263Y0038379D01*
X0025201Y0038455D01*
X0025136Y0038528D01*
X0025068Y0038599D01*
X0024997Y0038667D01*
X0024924Y0038732D01*
X0024848Y0038794D01*
X0024769Y0038854D01*
X0024689Y0038910D01*
X0024606Y0038963D01*
X0024522Y0039012D01*
X0024435Y0039059D01*
X0024347Y0039101D01*
X0024257Y0039141D01*
X0024165Y0039176D01*
X0024073Y0039209D01*
X0023979Y0039237D01*
X0023884Y0039262D01*
X0023788Y0039283D01*
X0023691Y0039300D01*
X0023594Y0039314D01*
X0023496Y0039323D01*
X0023398Y0039329D01*
X0023300Y0039331D01*
X0003300Y0039331D01*
X0003213Y0039333D01*
X0003126Y0039339D01*
X0003039Y0039348D01*
X0002953Y0039361D01*
X0002867Y0039378D01*
X0002782Y0039399D01*
X0002699Y0039424D01*
X0002616Y0039452D01*
X0002535Y0039483D01*
X0002455Y0039518D01*
X0002377Y0039557D01*
X0002300Y0039599D01*
X0002225Y0039644D01*
X0002153Y0039693D01*
X0002082Y0039744D01*
X0002014Y0039799D01*
X0001949Y0039856D01*
X0001886Y0039917D01*
X0001825Y0039980D01*
X0001768Y0040045D01*
X0001713Y0040113D01*
X0001662Y0040184D01*
X0001613Y0040256D01*
X0001568Y0040331D01*
X0001526Y0040408D01*
X0001487Y0040486D01*
X0001452Y0040566D01*
X0001421Y0040647D01*
X0001393Y0040730D01*
X0001368Y0040813D01*
X0001347Y0040898D01*
X0001330Y0040984D01*
X0001317Y0041070D01*
X0001308Y0041157D01*
X0001302Y0041244D01*
X0001300Y0041331D01*
X0001300Y0042331D01*
X0001300Y0187331D01*
X0001300Y0188331D01*
X0001302Y0188418D01*
X0001308Y0188505D01*
X0001317Y0188592D01*
X0001330Y0188678D01*
X0001347Y0188764D01*
X0001368Y0188849D01*
X0001393Y0188932D01*
X0001421Y0189015D01*
X0001452Y0189096D01*
X0001487Y0189176D01*
X0001526Y0189254D01*
X0001568Y0189331D01*
X0001613Y0189406D01*
X0001662Y0189478D01*
X0001713Y0189549D01*
X0001768Y0189617D01*
X0001825Y0189682D01*
X0001886Y0189745D01*
X0001949Y0189806D01*
X0002014Y0189863D01*
X0002082Y0189918D01*
X0002153Y0189969D01*
X0002225Y0190018D01*
X0002300Y0190063D01*
X0002377Y0190105D01*
X0002455Y0190144D01*
X0002535Y0190179D01*
X0002616Y0190210D01*
X0002699Y0190238D01*
X0002782Y0190263D01*
X0002867Y0190284D01*
X0002953Y0190301D01*
X0003039Y0190314D01*
X0003126Y0190323D01*
X0003213Y0190329D01*
X0003300Y0190331D01*
X0023300Y0190331D01*
X0023398Y0190333D01*
X0023496Y0190339D01*
X0023594Y0190348D01*
X0023691Y0190362D01*
X0023788Y0190379D01*
X0023884Y0190400D01*
X0023979Y0190425D01*
X0024073Y0190453D01*
X0024165Y0190486D01*
X0024257Y0190521D01*
X0024347Y0190561D01*
X0024435Y0190603D01*
X0024522Y0190650D01*
X0024606Y0190699D01*
X0024689Y0190752D01*
X0024769Y0190808D01*
X0024848Y0190868D01*
X0024924Y0190930D01*
X0024997Y0190995D01*
X0025068Y0191063D01*
X0025136Y0191134D01*
X0025201Y0191207D01*
X0025263Y0191283D01*
X0025323Y0191362D01*
X0025379Y0191442D01*
X0025432Y0191525D01*
X0025481Y0191609D01*
X0025528Y0191696D01*
X0025570Y0191784D01*
X0025610Y0191874D01*
X0025645Y0191966D01*
X0025678Y0192058D01*
X0025706Y0192152D01*
X0025731Y0192247D01*
X0025752Y0192343D01*
X0025769Y0192440D01*
X0025783Y0192537D01*
X0025792Y0192635D01*
X0025798Y0192733D01*
X0025800Y0192831D01*
X0027800Y0219331D02*
X0029800Y0219331D01*
X0041800Y0219331D01*
X0065300Y0207431D02*
X0065302Y0207592D01*
X0065308Y0207752D01*
X0065318Y0207913D01*
X0065332Y0208073D01*
X0065350Y0208233D01*
X0065371Y0208392D01*
X0065397Y0208551D01*
X0065427Y0208709D01*
X0065460Y0208866D01*
X0065498Y0209023D01*
X0065539Y0209178D01*
X0065584Y0209332D01*
X0065633Y0209485D01*
X0065686Y0209637D01*
X0065742Y0209788D01*
X0065803Y0209937D01*
X0065866Y0210085D01*
X0065934Y0210231D01*
X0066005Y0210375D01*
X0066079Y0210517D01*
X0066157Y0210658D01*
X0066239Y0210796D01*
X0066324Y0210933D01*
X0066412Y0211067D01*
X0066504Y0211199D01*
X0066599Y0211329D01*
X0066697Y0211457D01*
X0066798Y0211582D01*
X0066902Y0211704D01*
X0067009Y0211824D01*
X0067119Y0211941D01*
X0067232Y0212056D01*
X0067348Y0212167D01*
X0067467Y0212276D01*
X0067588Y0212381D01*
X0067712Y0212484D01*
X0067838Y0212584D01*
X0067966Y0212680D01*
X0068097Y0212773D01*
X0068231Y0212863D01*
X0068366Y0212950D01*
X0068504Y0213033D01*
X0068643Y0213113D01*
X0068785Y0213189D01*
X0068928Y0213262D01*
X0069073Y0213331D01*
X0069220Y0213397D01*
X0069368Y0213459D01*
X0069518Y0213517D01*
X0069669Y0213572D01*
X0069822Y0213623D01*
X0069976Y0213670D01*
X0070131Y0213713D01*
X0070287Y0213752D01*
X0070443Y0213788D01*
X0070601Y0213819D01*
X0070759Y0213847D01*
X0070918Y0213871D01*
X0071078Y0213891D01*
X0071238Y0213907D01*
X0071398Y0213919D01*
X0071559Y0213927D01*
X0071720Y0213931D01*
X0071880Y0213931D01*
X0072041Y0213927D01*
X0072202Y0213919D01*
X0072362Y0213907D01*
X0072522Y0213891D01*
X0072682Y0213871D01*
X0072841Y0213847D01*
X0072999Y0213819D01*
X0073157Y0213788D01*
X0073313Y0213752D01*
X0073469Y0213713D01*
X0073624Y0213670D01*
X0073778Y0213623D01*
X0073931Y0213572D01*
X0074082Y0213517D01*
X0074232Y0213459D01*
X0074380Y0213397D01*
X0074527Y0213331D01*
X0074672Y0213262D01*
X0074815Y0213189D01*
X0074957Y0213113D01*
X0075096Y0213033D01*
X0075234Y0212950D01*
X0075369Y0212863D01*
X0075503Y0212773D01*
X0075634Y0212680D01*
X0075762Y0212584D01*
X0075888Y0212484D01*
X0076012Y0212381D01*
X0076133Y0212276D01*
X0076252Y0212167D01*
X0076368Y0212056D01*
X0076481Y0211941D01*
X0076591Y0211824D01*
X0076698Y0211704D01*
X0076802Y0211582D01*
X0076903Y0211457D01*
X0077001Y0211329D01*
X0077096Y0211199D01*
X0077188Y0211067D01*
X0077276Y0210933D01*
X0077361Y0210796D01*
X0077443Y0210658D01*
X0077521Y0210517D01*
X0077595Y0210375D01*
X0077666Y0210231D01*
X0077734Y0210085D01*
X0077797Y0209937D01*
X0077858Y0209788D01*
X0077914Y0209637D01*
X0077967Y0209485D01*
X0078016Y0209332D01*
X0078061Y0209178D01*
X0078102Y0209023D01*
X0078140Y0208866D01*
X0078173Y0208709D01*
X0078203Y0208551D01*
X0078229Y0208392D01*
X0078250Y0208233D01*
X0078268Y0208073D01*
X0078282Y0207913D01*
X0078292Y0207752D01*
X0078298Y0207592D01*
X0078300Y0207431D01*
X0078298Y0207270D01*
X0078292Y0207110D01*
X0078282Y0206949D01*
X0078268Y0206789D01*
X0078250Y0206629D01*
X0078229Y0206470D01*
X0078203Y0206311D01*
X0078173Y0206153D01*
X0078140Y0205996D01*
X0078102Y0205839D01*
X0078061Y0205684D01*
X0078016Y0205530D01*
X0077967Y0205377D01*
X0077914Y0205225D01*
X0077858Y0205074D01*
X0077797Y0204925D01*
X0077734Y0204777D01*
X0077666Y0204631D01*
X0077595Y0204487D01*
X0077521Y0204345D01*
X0077443Y0204204D01*
X0077361Y0204066D01*
X0077276Y0203929D01*
X0077188Y0203795D01*
X0077096Y0203663D01*
X0077001Y0203533D01*
X0076903Y0203405D01*
X0076802Y0203280D01*
X0076698Y0203158D01*
X0076591Y0203038D01*
X0076481Y0202921D01*
X0076368Y0202806D01*
X0076252Y0202695D01*
X0076133Y0202586D01*
X0076012Y0202481D01*
X0075888Y0202378D01*
X0075762Y0202278D01*
X0075634Y0202182D01*
X0075503Y0202089D01*
X0075369Y0201999D01*
X0075234Y0201912D01*
X0075096Y0201829D01*
X0074957Y0201749D01*
X0074815Y0201673D01*
X0074672Y0201600D01*
X0074527Y0201531D01*
X0074380Y0201465D01*
X0074232Y0201403D01*
X0074082Y0201345D01*
X0073931Y0201290D01*
X0073778Y0201239D01*
X0073624Y0201192D01*
X0073469Y0201149D01*
X0073313Y0201110D01*
X0073157Y0201074D01*
X0072999Y0201043D01*
X0072841Y0201015D01*
X0072682Y0200991D01*
X0072522Y0200971D01*
X0072362Y0200955D01*
X0072202Y0200943D01*
X0072041Y0200935D01*
X0071880Y0200931D01*
X0071720Y0200931D01*
X0071559Y0200935D01*
X0071398Y0200943D01*
X0071238Y0200955D01*
X0071078Y0200971D01*
X0070918Y0200991D01*
X0070759Y0201015D01*
X0070601Y0201043D01*
X0070443Y0201074D01*
X0070287Y0201110D01*
X0070131Y0201149D01*
X0069976Y0201192D01*
X0069822Y0201239D01*
X0069669Y0201290D01*
X0069518Y0201345D01*
X0069368Y0201403D01*
X0069220Y0201465D01*
X0069073Y0201531D01*
X0068928Y0201600D01*
X0068785Y0201673D01*
X0068643Y0201749D01*
X0068504Y0201829D01*
X0068366Y0201912D01*
X0068231Y0201999D01*
X0068097Y0202089D01*
X0067966Y0202182D01*
X0067838Y0202278D01*
X0067712Y0202378D01*
X0067588Y0202481D01*
X0067467Y0202586D01*
X0067348Y0202695D01*
X0067232Y0202806D01*
X0067119Y0202921D01*
X0067009Y0203038D01*
X0066902Y0203158D01*
X0066798Y0203280D01*
X0066697Y0203405D01*
X0066599Y0203533D01*
X0066504Y0203663D01*
X0066412Y0203795D01*
X0066324Y0203929D01*
X0066239Y0204066D01*
X0066157Y0204204D01*
X0066079Y0204345D01*
X0066005Y0204487D01*
X0065934Y0204631D01*
X0065866Y0204777D01*
X0065803Y0204925D01*
X0065742Y0205074D01*
X0065686Y0205225D01*
X0065633Y0205377D01*
X0065584Y0205530D01*
X0065539Y0205684D01*
X0065498Y0205839D01*
X0065460Y0205996D01*
X0065427Y0206153D01*
X0065397Y0206311D01*
X0065371Y0206470D01*
X0065350Y0206629D01*
X0065332Y0206789D01*
X0065318Y0206949D01*
X0065308Y0207110D01*
X0065302Y0207270D01*
X0065300Y0207431D01*
X0093556Y0208000D02*
X0093556Y0213000D01*
X0096056Y0215500D01*
X0101056Y0215500D01*
X0103556Y0213000D01*
X0106056Y0215500D01*
X0111056Y0215500D01*
X0113556Y0213000D01*
X0116056Y0215500D01*
X0121056Y0215500D01*
X0123556Y0213000D01*
X0126056Y0215500D01*
X0131056Y0215500D01*
X0133556Y0213000D01*
X0136056Y0215500D01*
X0141056Y0215500D01*
X0143556Y0213000D01*
X0146056Y0215500D01*
X0151056Y0215500D01*
X0153556Y0213000D01*
X0156056Y0215500D01*
X0161056Y0215500D01*
X0163556Y0213000D01*
X0166056Y0215500D01*
X0171056Y0215500D01*
X0173556Y0213000D01*
X0176056Y0215500D01*
X0181056Y0215500D01*
X0183556Y0213000D01*
X0186056Y0215500D01*
X0191056Y0215500D01*
X0193556Y0213000D01*
X0193556Y0208000D01*
X0191056Y0205500D01*
X0186056Y0205500D01*
X0183556Y0203000D01*
X0181056Y0205500D01*
X0176056Y0205500D01*
X0173556Y0203000D01*
X0173556Y0198000D01*
X0176056Y0195500D01*
X0181056Y0195500D01*
X0183556Y0198000D01*
X0183556Y0203000D01*
X0186056Y0205500D02*
X0183556Y0208000D01*
X0181056Y0205500D01*
X0176056Y0205500D01*
X0173556Y0208000D01*
X0173556Y0213000D01*
X0173556Y0208000D02*
X0171056Y0205500D01*
X0173556Y0203000D01*
X0171056Y0205500D02*
X0166056Y0205500D01*
X0163556Y0203000D01*
X0161056Y0205500D01*
X0156056Y0205500D01*
X0153556Y0203000D01*
X0151056Y0205500D01*
X0146056Y0205500D01*
X0143556Y0203000D01*
X0143556Y0198000D01*
X0146056Y0195500D01*
X0151056Y0195500D01*
X0153556Y0198000D01*
X0153556Y0203000D01*
X0156056Y0205500D02*
X0153556Y0208000D01*
X0151056Y0205500D01*
X0146056Y0205500D01*
X0143556Y0208000D01*
X0143556Y0213000D01*
X0143556Y0208000D02*
X0141056Y0205500D01*
X0143556Y0203000D01*
X0141056Y0205500D02*
X0136056Y0205500D01*
X0133556Y0203000D01*
X0131056Y0205500D01*
X0126056Y0205500D01*
X0123556Y0203000D01*
X0121056Y0205500D01*
X0116056Y0205500D01*
X0113556Y0203000D01*
X0113556Y0198000D01*
X0116056Y0195500D01*
X0121056Y0195500D01*
X0123556Y0198000D01*
X0123556Y0203000D01*
X0126056Y0205500D02*
X0123556Y0208000D01*
X0121056Y0205500D01*
X0116056Y0205500D01*
X0113556Y0208000D01*
X0113556Y0213000D01*
X0113556Y0208000D02*
X0111056Y0205500D01*
X0113556Y0203000D01*
X0111056Y0205500D02*
X0106056Y0205500D01*
X0103556Y0203000D01*
X0101056Y0205500D01*
X0096056Y0205500D01*
X0093556Y0203000D01*
X0093556Y0198000D01*
X0096056Y0195500D01*
X0101056Y0195500D01*
X0103556Y0198000D01*
X0103556Y0203000D01*
X0106056Y0205500D02*
X0103556Y0208000D01*
X0101056Y0205500D01*
X0096056Y0205500D01*
X0093556Y0208000D01*
X0103556Y0208000D02*
X0103556Y0213000D01*
X0106056Y0205500D02*
X0111056Y0205500D01*
X0113556Y0198000D02*
X0111056Y0195500D01*
X0106056Y0195500D01*
X0103556Y0198000D01*
X0123556Y0198000D02*
X0126056Y0195500D01*
X0131056Y0195500D01*
X0133556Y0198000D01*
X0133556Y0203000D01*
X0136056Y0205500D02*
X0133556Y0208000D01*
X0131056Y0205500D01*
X0126056Y0205500D01*
X0123556Y0208000D02*
X0123556Y0213000D01*
X0133556Y0213000D02*
X0133556Y0208000D01*
X0136056Y0205500D02*
X0141056Y0205500D01*
X0143556Y0198000D02*
X0141056Y0195500D01*
X0136056Y0195500D01*
X0133556Y0198000D01*
X0138086Y0193340D02*
X0137352Y0192606D01*
X0137352Y0191138D01*
X0138086Y0190404D01*
X0139554Y0191872D02*
X0139554Y0192606D01*
X0140288Y0193340D01*
X0141022Y0193340D01*
X0141756Y0192606D01*
X0141756Y0191138D01*
X0141022Y0190404D01*
X0141756Y0188736D02*
X0141756Y0185800D01*
X0141756Y0187268D02*
X0137352Y0187268D01*
X0138820Y0185800D01*
X0139554Y0192606D02*
X0138820Y0193340D01*
X0138086Y0193340D01*
X0147352Y0192606D02*
X0147352Y0191138D01*
X0148086Y0190404D01*
X0147352Y0192606D02*
X0148086Y0193340D01*
X0148820Y0193340D01*
X0151756Y0190404D01*
X0151756Y0193340D01*
X0151756Y0188736D02*
X0151756Y0185800D01*
X0151756Y0187268D02*
X0147352Y0187268D01*
X0148820Y0185800D01*
X0156852Y0187268D02*
X0161256Y0187268D01*
X0161256Y0185800D02*
X0161256Y0188736D01*
X0161256Y0190404D02*
X0161256Y0193340D01*
X0161256Y0191872D02*
X0156852Y0191872D01*
X0158320Y0190404D01*
X0156852Y0187268D02*
X0158320Y0185800D01*
X0167352Y0187268D02*
X0171756Y0187268D01*
X0167352Y0187268D01*
X0168820Y0185800D01*
X0167352Y0187268D01*
X0168086Y0190404D02*
X0167352Y0191138D01*
X0167352Y0192606D01*
X0168086Y0193340D01*
X0171022Y0190404D01*
X0171756Y0191138D01*
X0171756Y0192606D01*
X0171022Y0193340D01*
X0168086Y0193340D01*
X0171022Y0190404D01*
X0168086Y0190404D01*
X0167352Y0191138D01*
X0167352Y0192606D01*
X0168086Y0193340D01*
X0171022Y0193340D01*
X0171756Y0192606D01*
X0171756Y0191138D01*
X0171022Y0190404D01*
X0168086Y0190404D01*
X0171756Y0188736D02*
X0171756Y0185800D01*
X0171756Y0188736D01*
X0177352Y0191534D02*
X0177352Y0193002D01*
X0178086Y0193736D01*
X0181022Y0193736D01*
X0181756Y0193002D01*
X0181756Y0191534D01*
X0181022Y0190800D01*
X0179554Y0191534D02*
X0179554Y0193736D01*
X0179554Y0191534D02*
X0178820Y0190800D01*
X0178086Y0190800D01*
X0177352Y0191534D01*
X0171056Y0195500D02*
X0166056Y0195500D01*
X0163556Y0198000D01*
X0161056Y0195500D01*
X0156056Y0195500D01*
X0153556Y0198000D01*
X0156056Y0205500D02*
X0161056Y0205500D01*
X0163556Y0208000D01*
X0163556Y0213000D01*
X0163556Y0208000D02*
X0166056Y0205500D01*
X0171056Y0205500D01*
X0173556Y0198000D02*
X0171056Y0195500D01*
X0163556Y0198000D02*
X0163556Y0203000D01*
X0153556Y0208000D02*
X0153556Y0213000D01*
X0183556Y0213000D02*
X0183556Y0208000D01*
X0186056Y0205500D02*
X0191056Y0205500D01*
X0193556Y0203000D01*
X0193556Y0198000D01*
X0191056Y0195500D01*
X0186056Y0195500D01*
X0183556Y0198000D01*
X0188086Y0193736D02*
X0188820Y0193736D01*
X0189554Y0193002D01*
X0189554Y0191534D01*
X0188820Y0190800D01*
X0188086Y0190800D01*
X0187352Y0191534D01*
X0187352Y0193002D01*
X0188086Y0193736D01*
X0189554Y0193002D02*
X0190288Y0193736D01*
X0191022Y0193736D01*
X0191756Y0193002D01*
X0191756Y0191534D01*
X0191022Y0190800D01*
X0190288Y0190800D01*
X0189554Y0191534D01*
X0199556Y0198000D02*
X0199556Y0203000D01*
X0202056Y0205500D01*
X0207056Y0205500D01*
X0209556Y0203000D01*
X0212056Y0205500D01*
X0217056Y0205500D01*
X0219556Y0203000D01*
X0222056Y0205500D01*
X0227056Y0205500D01*
X0229556Y0203000D01*
X0232056Y0205500D01*
X0237056Y0205500D01*
X0239556Y0203000D01*
X0242056Y0205500D01*
X0247056Y0205500D01*
X0249556Y0203000D01*
X0252056Y0205500D01*
X0257056Y0205500D01*
X0259556Y0203000D01*
X0262056Y0205500D01*
X0267056Y0205500D01*
X0269556Y0203000D01*
X0272056Y0205500D01*
X0277056Y0205500D01*
X0279556Y0203000D01*
X0279556Y0198000D01*
X0277056Y0195500D01*
X0272056Y0195500D01*
X0269556Y0198000D01*
X0267056Y0195500D01*
X0262056Y0195500D01*
X0259556Y0198000D01*
X0259556Y0203000D01*
X0262056Y0205500D02*
X0259556Y0208000D01*
X0259556Y0213000D01*
X0262056Y0215500D01*
X0267056Y0215500D01*
X0269556Y0213000D01*
X0272056Y0215500D01*
X0277056Y0215500D01*
X0279556Y0213000D01*
X0279556Y0208000D01*
X0277056Y0205500D01*
X0272056Y0205500D01*
X0269556Y0208000D01*
X0267056Y0205500D01*
X0262056Y0205500D01*
X0259556Y0208000D02*
X0257056Y0205500D01*
X0252056Y0205500D01*
X0249556Y0208000D01*
X0247056Y0205500D01*
X0242056Y0205500D01*
X0239556Y0208000D01*
X0237056Y0205500D01*
X0232056Y0205500D01*
X0229556Y0208000D01*
X0229556Y0213000D01*
X0232056Y0215500D01*
X0237056Y0215500D01*
X0239556Y0213000D01*
X0242056Y0215500D01*
X0247056Y0215500D01*
X0249556Y0213000D01*
X0252056Y0215500D01*
X0257056Y0215500D01*
X0259556Y0213000D01*
X0249556Y0213000D02*
X0249556Y0208000D01*
X0249556Y0203000D02*
X0249556Y0198000D01*
X0247056Y0195500D01*
X0242056Y0195500D01*
X0239556Y0198000D01*
X0237056Y0195500D01*
X0232056Y0195500D01*
X0229556Y0198000D01*
X0229556Y0203000D01*
X0227056Y0205500D02*
X0222056Y0205500D01*
X0219556Y0208000D01*
X0217056Y0205500D01*
X0212056Y0205500D01*
X0209556Y0208000D01*
X0207056Y0205500D01*
X0202056Y0205500D01*
X0199556Y0208000D01*
X0199556Y0213000D01*
X0202056Y0215500D01*
X0207056Y0215500D01*
X0209556Y0213000D01*
X0212056Y0215500D01*
X0217056Y0215500D01*
X0219556Y0213000D01*
X0222056Y0215500D01*
X0227056Y0215500D01*
X0229556Y0213000D01*
X0229556Y0208000D02*
X0227056Y0205500D01*
X0219556Y0203000D02*
X0219556Y0198000D01*
X0217056Y0195500D01*
X0212056Y0195500D01*
X0209556Y0198000D01*
X0207056Y0195500D01*
X0202056Y0195500D01*
X0199556Y0198000D01*
X0202352Y0193736D02*
X0203086Y0193736D01*
X0206022Y0190800D01*
X0206756Y0190800D01*
X0202352Y0190800D02*
X0202352Y0193736D01*
X0209556Y0198000D02*
X0209556Y0203000D01*
X0209556Y0208000D02*
X0209556Y0213000D01*
X0219556Y0213000D02*
X0219556Y0208000D01*
X0219556Y0198000D02*
X0222056Y0195500D01*
X0227056Y0195500D01*
X0229556Y0198000D01*
X0226022Y0193736D02*
X0226756Y0193002D01*
X0226756Y0191534D01*
X0226022Y0190800D01*
X0224554Y0190800D02*
X0223820Y0192268D01*
X0223820Y0193002D01*
X0224554Y0193736D01*
X0226022Y0193736D01*
X0224554Y0190800D02*
X0222352Y0190800D01*
X0222352Y0193736D01*
X0216756Y0193002D02*
X0216756Y0191534D01*
X0216022Y0190800D01*
X0214554Y0190800D01*
X0214554Y0193002D01*
X0215288Y0193736D01*
X0216022Y0193736D01*
X0216756Y0193002D01*
X0214554Y0190800D02*
X0213086Y0192268D01*
X0212352Y0193736D01*
X0232352Y0193002D02*
X0234554Y0190800D01*
X0234554Y0193736D01*
X0236756Y0193002D02*
X0232352Y0193002D01*
X0239556Y0198000D02*
X0239556Y0203000D01*
X0239556Y0208000D02*
X0239556Y0213000D01*
X0249556Y0198000D02*
X0252056Y0195500D01*
X0257056Y0195500D01*
X0259556Y0198000D01*
X0256756Y0193736D02*
X0256756Y0190800D01*
X0253820Y0193736D01*
X0253086Y0193736D01*
X0252352Y0193002D01*
X0252352Y0191534D01*
X0253086Y0190800D01*
X0246756Y0191534D02*
X0246022Y0190800D01*
X0246756Y0191534D02*
X0246756Y0193002D01*
X0246022Y0193736D01*
X0245288Y0193736D01*
X0244554Y0193002D01*
X0244554Y0192268D01*
X0244554Y0193002D02*
X0243820Y0193736D01*
X0243086Y0193736D01*
X0242352Y0193002D01*
X0242352Y0191534D01*
X0243086Y0190800D01*
X0262352Y0192268D02*
X0266756Y0192268D01*
X0266756Y0190800D02*
X0266756Y0193736D01*
X0263820Y0190800D02*
X0262352Y0192268D01*
X0269556Y0198000D02*
X0269556Y0203000D01*
X0269556Y0208000D02*
X0269556Y0213000D01*
X0273086Y0193736D02*
X0276022Y0190800D01*
X0276756Y0191534D01*
X0276756Y0193002D01*
X0276022Y0193736D01*
X0273086Y0193736D01*
X0272352Y0193002D01*
X0272352Y0191534D01*
X0273086Y0190800D01*
X0276022Y0190800D01*
X0245717Y0167543D02*
X0245717Y0160543D01*
X0245715Y0160483D01*
X0245710Y0160422D01*
X0245701Y0160363D01*
X0245688Y0160304D01*
X0245672Y0160245D01*
X0245652Y0160188D01*
X0245629Y0160133D01*
X0245602Y0160078D01*
X0245573Y0160026D01*
X0245540Y0159975D01*
X0245504Y0159926D01*
X0245466Y0159880D01*
X0245424Y0159836D01*
X0245380Y0159794D01*
X0245334Y0159756D01*
X0245285Y0159720D01*
X0245234Y0159687D01*
X0245182Y0159658D01*
X0245127Y0159631D01*
X0245072Y0159608D01*
X0245015Y0159588D01*
X0244956Y0159572D01*
X0244897Y0159559D01*
X0244838Y0159550D01*
X0244777Y0159545D01*
X0244717Y0159543D01*
X0243217Y0159543D01*
X0242717Y0160043D01*
X0223717Y0160043D01*
X0223217Y0159543D01*
X0221717Y0159543D01*
X0221657Y0159545D01*
X0221596Y0159550D01*
X0221537Y0159559D01*
X0221478Y0159572D01*
X0221419Y0159588D01*
X0221362Y0159608D01*
X0221307Y0159631D01*
X0221252Y0159658D01*
X0221200Y0159687D01*
X0221149Y0159720D01*
X0221100Y0159756D01*
X0221054Y0159794D01*
X0221010Y0159836D01*
X0220968Y0159880D01*
X0220930Y0159926D01*
X0220894Y0159975D01*
X0220861Y0160026D01*
X0220832Y0160078D01*
X0220805Y0160133D01*
X0220782Y0160188D01*
X0220762Y0160245D01*
X0220746Y0160304D01*
X0220733Y0160363D01*
X0220724Y0160422D01*
X0220719Y0160483D01*
X0220717Y0160543D01*
X0220717Y0167543D01*
X0220719Y0167603D01*
X0220724Y0167664D01*
X0220733Y0167723D01*
X0220746Y0167782D01*
X0220762Y0167841D01*
X0220782Y0167898D01*
X0220805Y0167953D01*
X0220832Y0168008D01*
X0220861Y0168060D01*
X0220894Y0168111D01*
X0220930Y0168160D01*
X0220968Y0168206D01*
X0221010Y0168250D01*
X0221054Y0168292D01*
X0221100Y0168330D01*
X0221149Y0168366D01*
X0221200Y0168399D01*
X0221252Y0168428D01*
X0221307Y0168455D01*
X0221362Y0168478D01*
X0221419Y0168498D01*
X0221478Y0168514D01*
X0221537Y0168527D01*
X0221596Y0168536D01*
X0221657Y0168541D01*
X0221717Y0168543D01*
X0223217Y0168543D01*
X0223717Y0168043D01*
X0242717Y0168043D01*
X0243217Y0168543D01*
X0244717Y0168543D01*
X0244777Y0168541D01*
X0244838Y0168536D01*
X0244897Y0168527D01*
X0244956Y0168514D01*
X0245015Y0168498D01*
X0245072Y0168478D01*
X0245127Y0168455D01*
X0245182Y0168428D01*
X0245234Y0168399D01*
X0245285Y0168366D01*
X0245334Y0168330D01*
X0245380Y0168292D01*
X0245424Y0168250D01*
X0245466Y0168206D01*
X0245504Y0168160D01*
X0245540Y0168111D01*
X0245573Y0168060D01*
X0245602Y0168008D01*
X0245629Y0167953D01*
X0245652Y0167898D01*
X0245672Y0167841D01*
X0245688Y0167782D01*
X0245701Y0167723D01*
X0245710Y0167664D01*
X0245715Y0167603D01*
X0245717Y0167543D01*
X0278856Y0141703D02*
X0279990Y0141703D01*
X0279423Y0141703D02*
X0279423Y0138300D01*
X0278856Y0138300D02*
X0279990Y0138300D01*
X0281311Y0138867D02*
X0281878Y0138300D01*
X0283013Y0138300D01*
X0283580Y0138867D01*
X0284994Y0138867D02*
X0285562Y0138300D01*
X0286696Y0138300D01*
X0287263Y0138867D01*
X0287263Y0139434D01*
X0286696Y0140001D01*
X0285562Y0140001D01*
X0284994Y0140569D01*
X0284994Y0141136D01*
X0285562Y0141703D01*
X0286696Y0141703D01*
X0287263Y0141136D01*
X0288678Y0141703D02*
X0290379Y0141703D01*
X0290946Y0141136D01*
X0290946Y0140001D01*
X0290379Y0139434D01*
X0288678Y0139434D01*
X0288678Y0138300D02*
X0288678Y0141703D01*
X0283580Y0141136D02*
X0283013Y0141703D01*
X0281878Y0141703D01*
X0281311Y0141136D01*
X0281311Y0138867D01*
X0287556Y0135500D02*
X0290056Y0133000D01*
X0290056Y0128000D01*
X0287556Y0125500D01*
X0272556Y0125500D01*
X0270056Y0123000D01*
X0270056Y0118000D01*
X0272556Y0115500D01*
X0270056Y0113000D01*
X0270056Y0108000D01*
X0272556Y0105500D01*
X0287556Y0105500D01*
X0290056Y0108000D01*
X0290056Y0113000D01*
X0287556Y0115500D01*
X0272556Y0115500D01*
X0272556Y0125500D02*
X0270056Y0128000D01*
X0270056Y0133000D01*
X0272556Y0135500D01*
X0287556Y0135500D01*
X0287556Y0125500D02*
X0290056Y0123000D01*
X0290056Y0118000D01*
X0287556Y0115500D01*
X0261188Y0061704D02*
X0261188Y0057300D01*
X0258986Y0057300D01*
X0258252Y0058034D01*
X0258252Y0059502D01*
X0258986Y0060236D01*
X0261188Y0060236D01*
X0256651Y0057300D02*
X0255183Y0057300D01*
X0255917Y0057300D02*
X0255917Y0061704D01*
X0255183Y0061704D01*
X0253515Y0059502D02*
X0253515Y0058768D01*
X0250579Y0058768D01*
X0250579Y0059502D02*
X0251313Y0060236D01*
X0252781Y0060236D01*
X0253515Y0059502D01*
X0252781Y0057300D02*
X0251313Y0057300D01*
X0250579Y0058034D01*
X0250579Y0059502D01*
X0248243Y0060236D02*
X0248243Y0057300D01*
X0247509Y0057300D02*
X0248977Y0057300D01*
X0248243Y0060236D02*
X0247509Y0060236D01*
X0248243Y0061704D02*
X0248243Y0062438D01*
X0245841Y0059502D02*
X0245841Y0057300D01*
X0245841Y0059502D02*
X0245107Y0060236D01*
X0243639Y0060236D01*
X0242905Y0059502D01*
X0241237Y0058768D02*
X0241237Y0058034D01*
X0240503Y0057300D01*
X0239035Y0057300D01*
X0238302Y0058034D01*
X0239035Y0059502D02*
X0240503Y0059502D01*
X0241237Y0058768D01*
X0241237Y0060970D02*
X0240503Y0061704D01*
X0239035Y0061704D01*
X0238302Y0060970D01*
X0238302Y0060236D01*
X0239035Y0059502D01*
X0242905Y0061704D02*
X0242905Y0057300D01*
X0241216Y0051236D02*
X0239748Y0051236D01*
X0239014Y0050502D01*
X0239014Y0049034D01*
X0239748Y0048300D01*
X0241216Y0048300D01*
X0241950Y0049034D01*
X0241950Y0050502D01*
X0241216Y0051236D01*
X0243618Y0049034D02*
X0244352Y0049034D01*
X0244352Y0048300D01*
X0243618Y0048300D01*
X0243618Y0049034D01*
X0245920Y0049034D02*
X0245920Y0050502D01*
X0246654Y0051236D01*
X0248856Y0051236D01*
X0250524Y0050502D02*
X0250524Y0049034D01*
X0251258Y0048300D01*
X0252726Y0048300D01*
X0253460Y0049034D01*
X0253460Y0050502D01*
X0252726Y0051236D01*
X0251258Y0051236D01*
X0250524Y0050502D01*
X0248856Y0048300D02*
X0246654Y0048300D01*
X0245920Y0049034D01*
X0245473Y0042704D02*
X0244006Y0042704D01*
X0243272Y0041970D01*
X0245473Y0042704D02*
X0246207Y0041970D01*
X0246207Y0041236D01*
X0243272Y0038300D01*
X0246207Y0038300D01*
X0247056Y0035500D02*
X0242056Y0035500D01*
X0239556Y0033000D01*
X0239556Y0028000D01*
X0237056Y0025500D01*
X0232056Y0025500D01*
X0229556Y0028000D01*
X0227056Y0025500D01*
X0222056Y0025500D01*
X0219556Y0028000D01*
X0219556Y0033000D01*
X0222056Y0035500D01*
X0227056Y0035500D01*
X0229556Y0033000D01*
X0232056Y0035500D01*
X0237056Y0035500D01*
X0239556Y0033000D01*
X0239556Y0028000D02*
X0242056Y0025500D01*
X0247056Y0025500D01*
X0249556Y0028000D01*
X0252056Y0025500D01*
X0257056Y0025500D01*
X0259556Y0028000D01*
X0262056Y0025500D01*
X0267056Y0025500D01*
X0269556Y0028000D01*
X0272056Y0025500D01*
X0277056Y0025500D01*
X0279556Y0028000D01*
X0279556Y0033000D01*
X0277056Y0035500D01*
X0272056Y0035500D01*
X0269556Y0033000D01*
X0269556Y0028000D01*
X0272056Y0025500D02*
X0269556Y0023000D01*
X0269556Y0018000D01*
X0272056Y0015500D01*
X0277056Y0015500D01*
X0279556Y0018000D01*
X0279556Y0023000D01*
X0277056Y0025500D01*
X0272056Y0025500D01*
X0269556Y0023000D02*
X0267056Y0025500D01*
X0262056Y0025500D01*
X0259556Y0023000D01*
X0259556Y0018000D01*
X0262056Y0015500D01*
X0267056Y0015500D01*
X0269556Y0018000D01*
X0259556Y0018000D02*
X0257056Y0015500D01*
X0252056Y0015500D01*
X0249556Y0018000D01*
X0247056Y0015500D01*
X0242056Y0015500D01*
X0239556Y0018000D01*
X0237056Y0015500D01*
X0232056Y0015500D01*
X0229556Y0018000D01*
X0227056Y0015500D01*
X0222056Y0015500D01*
X0219556Y0018000D01*
X0219556Y0023000D01*
X0222056Y0025500D01*
X0227056Y0025500D01*
X0229556Y0023000D01*
X0232056Y0025500D01*
X0237056Y0025500D01*
X0239556Y0023000D01*
X0239556Y0018000D01*
X0239556Y0023000D02*
X0242056Y0025500D01*
X0247056Y0025500D01*
X0249556Y0023000D01*
X0252056Y0025500D01*
X0257056Y0025500D01*
X0259556Y0023000D01*
X0259556Y0028000D02*
X0259556Y0033000D01*
X0262056Y0035500D01*
X0267056Y0035500D01*
X0269556Y0033000D01*
X0271629Y0038300D02*
X0270895Y0039034D01*
X0271629Y0038300D02*
X0273097Y0038300D01*
X0273831Y0039034D01*
X0273831Y0040502D01*
X0273097Y0041236D01*
X0272363Y0041236D01*
X0270895Y0040502D01*
X0270895Y0042704D01*
X0273831Y0042704D01*
X0264623Y0040502D02*
X0261687Y0040502D01*
X0263889Y0042704D01*
X0263889Y0038300D01*
X0259556Y0033000D02*
X0257056Y0035500D01*
X0252056Y0035500D01*
X0249556Y0033000D01*
X0249556Y0028000D01*
X0249556Y0023000D02*
X0249556Y0018000D01*
X0249556Y0033000D02*
X0247056Y0035500D01*
X0252479Y0039034D02*
X0253213Y0038300D01*
X0254681Y0038300D01*
X0255415Y0039034D01*
X0255415Y0039768D01*
X0254681Y0040502D01*
X0253947Y0040502D01*
X0254681Y0040502D02*
X0255415Y0041236D01*
X0255415Y0041970D01*
X0254681Y0042704D01*
X0253213Y0042704D01*
X0252479Y0041970D01*
X0255128Y0048300D02*
X0255128Y0051236D01*
X0255862Y0051236D01*
X0256596Y0050502D01*
X0257330Y0051236D01*
X0258064Y0050502D01*
X0258064Y0048300D01*
X0256596Y0048300D02*
X0256596Y0050502D01*
X0237346Y0050502D02*
X0237346Y0048300D01*
X0237346Y0050502D02*
X0236612Y0051236D01*
X0234410Y0051236D01*
X0234410Y0048300D01*
X0232809Y0048300D02*
X0231341Y0048300D01*
X0232075Y0048300D02*
X0232075Y0051236D01*
X0231341Y0051236D01*
X0232075Y0052704D02*
X0232075Y0053438D01*
X0229673Y0051236D02*
X0229673Y0048300D01*
X0227471Y0048300D01*
X0226737Y0049034D01*
X0226737Y0051236D01*
X0225069Y0051970D02*
X0225069Y0049034D01*
X0224335Y0048300D01*
X0222133Y0048300D01*
X0222133Y0052704D01*
X0224335Y0052704D01*
X0225069Y0051970D01*
X0225958Y0055832D02*
X0226692Y0055832D01*
X0227426Y0056566D01*
X0227426Y0060236D01*
X0229094Y0059502D02*
X0229094Y0058034D01*
X0229828Y0057300D01*
X0231296Y0057300D01*
X0232030Y0058034D01*
X0232030Y0059502D01*
X0231296Y0060236D01*
X0229828Y0060236D01*
X0229094Y0059502D01*
X0227426Y0057300D02*
X0225224Y0057300D01*
X0224490Y0058034D01*
X0224490Y0060236D01*
X0222855Y0060236D02*
X0222121Y0060236D01*
X0220653Y0058768D01*
X0220653Y0057300D02*
X0220653Y0060236D01*
X0218985Y0060970D02*
X0218251Y0061704D01*
X0216783Y0061704D01*
X0216049Y0060970D01*
X0216049Y0058034D01*
X0216783Y0057300D01*
X0218251Y0057300D01*
X0218985Y0058034D01*
X0219798Y0053438D02*
X0219798Y0052704D01*
X0219798Y0051236D02*
X0219798Y0048300D01*
X0219064Y0048300D02*
X0220532Y0048300D01*
X0219798Y0051236D02*
X0219064Y0051236D01*
X0217396Y0051236D02*
X0215194Y0051236D01*
X0214460Y0050502D01*
X0214460Y0049034D01*
X0215194Y0048300D01*
X0217396Y0048300D01*
X0212792Y0049034D02*
X0212058Y0049768D01*
X0210590Y0049768D01*
X0209856Y0050502D01*
X0210590Y0051236D01*
X0212792Y0051236D01*
X0212792Y0049034D02*
X0212058Y0048300D01*
X0209856Y0048300D01*
X0209623Y0042704D02*
X0209623Y0039768D01*
X0208155Y0038300D01*
X0206687Y0039768D01*
X0206687Y0042704D01*
X0205019Y0041970D02*
X0204285Y0042704D01*
X0202817Y0042704D01*
X0202083Y0041970D01*
X0202083Y0041236D01*
X0202817Y0040502D01*
X0205019Y0040502D01*
X0205019Y0039034D02*
X0205019Y0041970D01*
X0205019Y0039034D02*
X0204285Y0038300D01*
X0202817Y0038300D01*
X0202083Y0039034D01*
X0202056Y0035500D02*
X0199556Y0033000D01*
X0199556Y0028000D01*
X0202056Y0025500D01*
X0207056Y0025500D01*
X0209556Y0028000D01*
X0209556Y0033000D01*
X0207056Y0035500D01*
X0202056Y0035500D01*
X0199556Y0033000D02*
X0197056Y0035500D01*
X0192056Y0035500D01*
X0189556Y0033000D01*
X0189556Y0028000D01*
X0192056Y0025500D01*
X0197056Y0025500D01*
X0199556Y0028000D01*
X0202056Y0025500D02*
X0199556Y0023000D01*
X0199556Y0018000D01*
X0202056Y0015500D01*
X0207056Y0015500D01*
X0209556Y0018000D01*
X0209556Y0023000D01*
X0207056Y0025500D01*
X0202056Y0025500D01*
X0199556Y0023000D02*
X0197056Y0025500D01*
X0192056Y0025500D01*
X0189556Y0023000D01*
X0189556Y0018000D01*
X0192056Y0015500D01*
X0197056Y0015500D01*
X0199556Y0018000D01*
X0189556Y0018000D02*
X0187056Y0015500D01*
X0182056Y0015500D01*
X0179556Y0018000D01*
X0177056Y0015500D01*
X0172056Y0015500D01*
X0169556Y0018000D01*
X0167056Y0015500D01*
X0162056Y0015500D01*
X0159556Y0018000D01*
X0157056Y0015500D01*
X0152056Y0015500D01*
X0149556Y0018000D01*
X0147056Y0015500D01*
X0142056Y0015500D01*
X0139556Y0018000D01*
X0137056Y0015500D01*
X0132056Y0015500D01*
X0129556Y0018000D01*
X0129556Y0023000D01*
X0132056Y0025500D01*
X0137056Y0025500D01*
X0139556Y0028000D01*
X0142056Y0025500D01*
X0147056Y0025500D01*
X0149556Y0028000D01*
X0149556Y0033000D01*
X0147056Y0035500D01*
X0142056Y0035500D01*
X0139556Y0033000D01*
X0139556Y0028000D01*
X0142056Y0025500D02*
X0147056Y0025500D01*
X0149556Y0023000D01*
X0149556Y0018000D01*
X0149556Y0023000D02*
X0152056Y0025500D01*
X0149556Y0028000D01*
X0152056Y0025500D02*
X0157056Y0025500D01*
X0159556Y0028000D01*
X0162056Y0025500D01*
X0167056Y0025500D01*
X0169556Y0028000D01*
X0172056Y0025500D01*
X0177056Y0025500D01*
X0179556Y0028000D01*
X0179556Y0033000D01*
X0177056Y0035500D01*
X0172056Y0035500D01*
X0169556Y0033000D01*
X0169556Y0028000D01*
X0172056Y0025500D02*
X0177056Y0025500D01*
X0179556Y0023000D01*
X0179556Y0018000D01*
X0179556Y0023000D02*
X0182056Y0025500D01*
X0179556Y0028000D01*
X0182056Y0025500D02*
X0187056Y0025500D01*
X0189556Y0028000D01*
X0187056Y0025500D02*
X0189556Y0023000D01*
X0187056Y0025500D02*
X0182056Y0025500D01*
X0179556Y0033000D02*
X0182056Y0035500D01*
X0187056Y0035500D01*
X0189556Y0033000D01*
X0188272Y0038300D02*
X0188272Y0041236D01*
X0190473Y0041236D01*
X0191207Y0040502D01*
X0191207Y0038300D01*
X0192876Y0039034D02*
X0192876Y0040502D01*
X0193609Y0041236D01*
X0195811Y0041236D01*
X0195811Y0042704D02*
X0195811Y0038300D01*
X0193609Y0038300D01*
X0192876Y0039034D01*
X0186604Y0039034D02*
X0186604Y0040502D01*
X0185136Y0040502D01*
X0186604Y0041970D02*
X0185870Y0042704D01*
X0184402Y0042704D01*
X0183668Y0041970D01*
X0183668Y0039034D01*
X0184402Y0038300D01*
X0185870Y0038300D01*
X0186604Y0039034D01*
X0177396Y0039768D02*
X0177396Y0042704D01*
X0174460Y0042704D02*
X0174460Y0039768D01*
X0175928Y0038300D01*
X0177396Y0039768D01*
X0172792Y0040502D02*
X0172792Y0039034D01*
X0172058Y0038300D01*
X0170590Y0038300D01*
X0169856Y0039034D01*
X0169856Y0040502D02*
X0171324Y0041236D01*
X0172058Y0041236D01*
X0172792Y0040502D01*
X0172792Y0042704D02*
X0169856Y0042704D01*
X0169856Y0040502D01*
X0167056Y0035500D02*
X0162056Y0035500D01*
X0159556Y0033000D01*
X0159556Y0028000D01*
X0162056Y0025500D02*
X0159556Y0023000D01*
X0159556Y0018000D01*
X0159556Y0023000D02*
X0157056Y0025500D01*
X0152056Y0025500D01*
X0149556Y0033000D02*
X0152056Y0035500D01*
X0157056Y0035500D01*
X0159556Y0033000D01*
X0167056Y0035500D02*
X0169556Y0033000D01*
X0172056Y0025500D02*
X0169556Y0023000D01*
X0169556Y0018000D01*
X0169556Y0023000D02*
X0167056Y0025500D01*
X0162056Y0025500D01*
X0142056Y0025500D02*
X0139556Y0023000D01*
X0139556Y0018000D01*
X0139556Y0023000D02*
X0137056Y0025500D01*
X0132056Y0025500D01*
X0129556Y0028000D01*
X0129556Y0033000D01*
X0132056Y0035500D01*
X0137056Y0035500D01*
X0139556Y0033000D01*
X0224856Y0039034D02*
X0227792Y0041970D01*
X0227792Y0039034D01*
X0227058Y0038300D01*
X0225590Y0038300D01*
X0224856Y0039034D01*
X0224856Y0041970D01*
X0225590Y0042704D01*
X0227058Y0042704D01*
X0227792Y0041970D01*
X0234064Y0041236D02*
X0235532Y0042704D01*
X0235532Y0038300D01*
X0234064Y0038300D02*
X0237000Y0038300D01*
X0229556Y0033000D02*
X0229556Y0028000D01*
X0229556Y0023000D02*
X0229556Y0018000D01*
X0204141Y0106631D02*
X0174105Y0106631D01*
X0174105Y0124606D01*
X0204141Y0124606D01*
X0204141Y0106631D01*
X0175805Y0110818D02*
X0175807Y0110902D01*
X0175813Y0110987D01*
X0175823Y0111070D01*
X0175837Y0111154D01*
X0175854Y0111236D01*
X0175876Y0111318D01*
X0175901Y0111398D01*
X0175930Y0111477D01*
X0175963Y0111555D01*
X0175999Y0111631D01*
X0176039Y0111706D01*
X0176083Y0111778D01*
X0176129Y0111849D01*
X0176179Y0111917D01*
X0176232Y0111982D01*
X0176288Y0112045D01*
X0176347Y0112106D01*
X0176409Y0112163D01*
X0176473Y0112218D01*
X0176540Y0112269D01*
X0176609Y0112318D01*
X0176681Y0112363D01*
X0176754Y0112404D01*
X0176829Y0112442D01*
X0176906Y0112477D01*
X0176985Y0112508D01*
X0177065Y0112535D01*
X0177146Y0112558D01*
X0177228Y0112578D01*
X0177311Y0112594D01*
X0177394Y0112606D01*
X0177479Y0112614D01*
X0177563Y0112618D01*
X0177647Y0112618D01*
X0177731Y0112614D01*
X0177816Y0112606D01*
X0177899Y0112594D01*
X0177982Y0112578D01*
X0178064Y0112558D01*
X0178145Y0112535D01*
X0178225Y0112508D01*
X0178304Y0112477D01*
X0178381Y0112442D01*
X0178456Y0112404D01*
X0178529Y0112363D01*
X0178601Y0112318D01*
X0178670Y0112269D01*
X0178737Y0112218D01*
X0178801Y0112163D01*
X0178863Y0112106D01*
X0178922Y0112045D01*
X0178978Y0111982D01*
X0179031Y0111917D01*
X0179081Y0111849D01*
X0179127Y0111778D01*
X0179171Y0111706D01*
X0179211Y0111631D01*
X0179247Y0111555D01*
X0179280Y0111477D01*
X0179309Y0111398D01*
X0179334Y0111318D01*
X0179356Y0111236D01*
X0179373Y0111154D01*
X0179387Y0111070D01*
X0179397Y0110987D01*
X0179403Y0110902D01*
X0179405Y0110818D01*
X0179403Y0110734D01*
X0179397Y0110649D01*
X0179387Y0110566D01*
X0179373Y0110482D01*
X0179356Y0110400D01*
X0179334Y0110318D01*
X0179309Y0110238D01*
X0179280Y0110159D01*
X0179247Y0110081D01*
X0179211Y0110005D01*
X0179171Y0109930D01*
X0179127Y0109858D01*
X0179081Y0109787D01*
X0179031Y0109719D01*
X0178978Y0109654D01*
X0178922Y0109591D01*
X0178863Y0109530D01*
X0178801Y0109473D01*
X0178737Y0109418D01*
X0178670Y0109367D01*
X0178601Y0109318D01*
X0178529Y0109273D01*
X0178456Y0109232D01*
X0178381Y0109194D01*
X0178304Y0109159D01*
X0178225Y0109128D01*
X0178145Y0109101D01*
X0178064Y0109078D01*
X0177982Y0109058D01*
X0177899Y0109042D01*
X0177816Y0109030D01*
X0177731Y0109022D01*
X0177647Y0109018D01*
X0177563Y0109018D01*
X0177479Y0109022D01*
X0177394Y0109030D01*
X0177311Y0109042D01*
X0177228Y0109058D01*
X0177146Y0109078D01*
X0177065Y0109101D01*
X0176985Y0109128D01*
X0176906Y0109159D01*
X0176829Y0109194D01*
X0176754Y0109232D01*
X0176681Y0109273D01*
X0176609Y0109318D01*
X0176540Y0109367D01*
X0176473Y0109418D01*
X0176409Y0109473D01*
X0176347Y0109530D01*
X0176288Y0109591D01*
X0176232Y0109654D01*
X0176179Y0109719D01*
X0176129Y0109787D01*
X0176083Y0109858D01*
X0176039Y0109930D01*
X0175999Y0110005D01*
X0175963Y0110081D01*
X0175930Y0110159D01*
X0175901Y0110238D01*
X0175876Y0110318D01*
X0175854Y0110400D01*
X0175837Y0110482D01*
X0175823Y0110566D01*
X0175813Y0110649D01*
X0175807Y0110734D01*
X0175805Y0110818D01*
D13*
X0277509Y0047508D02*
X0277511Y0047630D01*
X0277517Y0047751D01*
X0277527Y0047873D01*
X0277541Y0047994D01*
X0277558Y0048114D01*
X0277580Y0048234D01*
X0277606Y0048353D01*
X0277635Y0048471D01*
X0277668Y0048588D01*
X0277705Y0048704D01*
X0277746Y0048819D01*
X0277791Y0048932D01*
X0277839Y0049044D01*
X0277891Y0049154D01*
X0277946Y0049263D01*
X0278005Y0049369D01*
X0278067Y0049474D01*
X0278133Y0049576D01*
X0278202Y0049677D01*
X0278274Y0049775D01*
X0278350Y0049870D01*
X0278428Y0049963D01*
X0278509Y0050054D01*
X0278594Y0050142D01*
X0278681Y0050227D01*
X0278771Y0050309D01*
X0278863Y0050388D01*
X0278958Y0050464D01*
X0279056Y0050537D01*
X0279155Y0050607D01*
X0279257Y0050674D01*
X0279361Y0050737D01*
X0279468Y0050796D01*
X0279576Y0050853D01*
X0279685Y0050905D01*
X0279797Y0050955D01*
X0279910Y0051000D01*
X0280024Y0051042D01*
X0280140Y0051080D01*
X0280257Y0051114D01*
X0280374Y0051144D01*
X0280493Y0051171D01*
X0280613Y0051194D01*
X0280733Y0051212D01*
X0280854Y0051227D01*
X0280975Y0051238D01*
X0281097Y0051245D01*
X0281219Y0051248D01*
X0281340Y0051247D01*
X0281462Y0051242D01*
X0281583Y0051233D01*
X0281704Y0051220D01*
X0281825Y0051203D01*
X0281945Y0051183D01*
X0282064Y0051158D01*
X0282183Y0051130D01*
X0282300Y0051097D01*
X0282416Y0051061D01*
X0282531Y0051021D01*
X0282645Y0050978D01*
X0282757Y0050930D01*
X0282868Y0050880D01*
X0282977Y0050825D01*
X0283084Y0050767D01*
X0283189Y0050706D01*
X0283292Y0050641D01*
X0283393Y0050573D01*
X0283491Y0050501D01*
X0283588Y0050427D01*
X0283681Y0050349D01*
X0283773Y0050268D01*
X0283861Y0050185D01*
X0283947Y0050098D01*
X0284030Y0050009D01*
X0284110Y0049917D01*
X0284187Y0049823D01*
X0284260Y0049726D01*
X0284331Y0049627D01*
X0284398Y0049525D01*
X0284462Y0049422D01*
X0284523Y0049316D01*
X0284580Y0049209D01*
X0284634Y0049099D01*
X0284684Y0048988D01*
X0284730Y0048876D01*
X0284773Y0048762D01*
X0284812Y0048646D01*
X0284847Y0048530D01*
X0284878Y0048412D01*
X0284906Y0048294D01*
X0284929Y0048174D01*
X0284949Y0048054D01*
X0284965Y0047933D01*
X0284977Y0047812D01*
X0284985Y0047691D01*
X0284989Y0047569D01*
X0284989Y0047447D01*
X0284985Y0047325D01*
X0284977Y0047204D01*
X0284965Y0047083D01*
X0284949Y0046962D01*
X0284929Y0046842D01*
X0284906Y0046722D01*
X0284878Y0046604D01*
X0284847Y0046486D01*
X0284812Y0046370D01*
X0284773Y0046254D01*
X0284730Y0046140D01*
X0284684Y0046028D01*
X0284634Y0045917D01*
X0284580Y0045807D01*
X0284523Y0045700D01*
X0284462Y0045594D01*
X0284398Y0045491D01*
X0284331Y0045389D01*
X0284260Y0045290D01*
X0284187Y0045193D01*
X0284110Y0045099D01*
X0284030Y0045007D01*
X0283947Y0044918D01*
X0283861Y0044831D01*
X0283773Y0044748D01*
X0283681Y0044667D01*
X0283588Y0044589D01*
X0283491Y0044515D01*
X0283393Y0044443D01*
X0283292Y0044375D01*
X0283189Y0044310D01*
X0283084Y0044249D01*
X0282977Y0044191D01*
X0282868Y0044136D01*
X0282757Y0044086D01*
X0282645Y0044038D01*
X0282531Y0043995D01*
X0282416Y0043955D01*
X0282300Y0043919D01*
X0282183Y0043886D01*
X0282064Y0043858D01*
X0281945Y0043833D01*
X0281825Y0043813D01*
X0281704Y0043796D01*
X0281583Y0043783D01*
X0281462Y0043774D01*
X0281340Y0043769D01*
X0281219Y0043768D01*
X0281097Y0043771D01*
X0280975Y0043778D01*
X0280854Y0043789D01*
X0280733Y0043804D01*
X0280613Y0043822D01*
X0280493Y0043845D01*
X0280374Y0043872D01*
X0280257Y0043902D01*
X0280140Y0043936D01*
X0280024Y0043974D01*
X0279910Y0044016D01*
X0279797Y0044061D01*
X0279685Y0044111D01*
X0279576Y0044163D01*
X0279468Y0044220D01*
X0279361Y0044279D01*
X0279257Y0044342D01*
X0279155Y0044409D01*
X0279056Y0044479D01*
X0278958Y0044552D01*
X0278863Y0044628D01*
X0278771Y0044707D01*
X0278681Y0044789D01*
X0278594Y0044874D01*
X0278509Y0044962D01*
X0278428Y0045053D01*
X0278350Y0045146D01*
X0278274Y0045241D01*
X0278202Y0045339D01*
X0278133Y0045440D01*
X0278067Y0045542D01*
X0278005Y0045647D01*
X0277946Y0045753D01*
X0277891Y0045862D01*
X0277839Y0045972D01*
X0277791Y0046084D01*
X0277746Y0046197D01*
X0277705Y0046312D01*
X0277668Y0046428D01*
X0277635Y0046545D01*
X0277606Y0046663D01*
X0277580Y0046782D01*
X0277558Y0046902D01*
X0277541Y0047022D01*
X0277527Y0047143D01*
X0277517Y0047265D01*
X0277511Y0047386D01*
X0277509Y0047508D01*
X0278257Y0150500D02*
X0278259Y0150658D01*
X0278265Y0150816D01*
X0278275Y0150974D01*
X0278289Y0151132D01*
X0278307Y0151289D01*
X0278328Y0151446D01*
X0278354Y0151602D01*
X0278384Y0151758D01*
X0278417Y0151913D01*
X0278455Y0152066D01*
X0278496Y0152219D01*
X0278541Y0152371D01*
X0278590Y0152522D01*
X0278643Y0152671D01*
X0278699Y0152819D01*
X0278759Y0152965D01*
X0278823Y0153110D01*
X0278891Y0153253D01*
X0278962Y0153395D01*
X0279036Y0153535D01*
X0279114Y0153672D01*
X0279196Y0153808D01*
X0279280Y0153942D01*
X0279369Y0154073D01*
X0279460Y0154202D01*
X0279555Y0154329D01*
X0279652Y0154454D01*
X0279753Y0154576D01*
X0279857Y0154695D01*
X0279964Y0154812D01*
X0280074Y0154926D01*
X0280187Y0155037D01*
X0280302Y0155146D01*
X0280420Y0155251D01*
X0280541Y0155353D01*
X0280664Y0155453D01*
X0280790Y0155549D01*
X0280918Y0155642D01*
X0281048Y0155732D01*
X0281181Y0155818D01*
X0281316Y0155902D01*
X0281452Y0155981D01*
X0281591Y0156058D01*
X0281732Y0156130D01*
X0281874Y0156200D01*
X0282018Y0156265D01*
X0282164Y0156327D01*
X0282311Y0156385D01*
X0282460Y0156440D01*
X0282610Y0156491D01*
X0282761Y0156538D01*
X0282913Y0156581D01*
X0283066Y0156620D01*
X0283221Y0156656D01*
X0283376Y0156687D01*
X0283532Y0156715D01*
X0283688Y0156739D01*
X0283845Y0156759D01*
X0284003Y0156775D01*
X0284160Y0156787D01*
X0284319Y0156795D01*
X0284477Y0156799D01*
X0284635Y0156799D01*
X0284793Y0156795D01*
X0284952Y0156787D01*
X0285109Y0156775D01*
X0285267Y0156759D01*
X0285424Y0156739D01*
X0285580Y0156715D01*
X0285736Y0156687D01*
X0285891Y0156656D01*
X0286046Y0156620D01*
X0286199Y0156581D01*
X0286351Y0156538D01*
X0286502Y0156491D01*
X0286652Y0156440D01*
X0286801Y0156385D01*
X0286948Y0156327D01*
X0287094Y0156265D01*
X0287238Y0156200D01*
X0287380Y0156130D01*
X0287521Y0156058D01*
X0287660Y0155981D01*
X0287796Y0155902D01*
X0287931Y0155818D01*
X0288064Y0155732D01*
X0288194Y0155642D01*
X0288322Y0155549D01*
X0288448Y0155453D01*
X0288571Y0155353D01*
X0288692Y0155251D01*
X0288810Y0155146D01*
X0288925Y0155037D01*
X0289038Y0154926D01*
X0289148Y0154812D01*
X0289255Y0154695D01*
X0289359Y0154576D01*
X0289460Y0154454D01*
X0289557Y0154329D01*
X0289652Y0154202D01*
X0289743Y0154073D01*
X0289832Y0153942D01*
X0289916Y0153808D01*
X0289998Y0153672D01*
X0290076Y0153535D01*
X0290150Y0153395D01*
X0290221Y0153253D01*
X0290289Y0153110D01*
X0290353Y0152965D01*
X0290413Y0152819D01*
X0290469Y0152671D01*
X0290522Y0152522D01*
X0290571Y0152371D01*
X0290616Y0152219D01*
X0290657Y0152066D01*
X0290695Y0151913D01*
X0290728Y0151758D01*
X0290758Y0151602D01*
X0290784Y0151446D01*
X0290805Y0151289D01*
X0290823Y0151132D01*
X0290837Y0150974D01*
X0290847Y0150816D01*
X0290853Y0150658D01*
X0290855Y0150500D01*
X0290853Y0150342D01*
X0290847Y0150184D01*
X0290837Y0150026D01*
X0290823Y0149868D01*
X0290805Y0149711D01*
X0290784Y0149554D01*
X0290758Y0149398D01*
X0290728Y0149242D01*
X0290695Y0149087D01*
X0290657Y0148934D01*
X0290616Y0148781D01*
X0290571Y0148629D01*
X0290522Y0148478D01*
X0290469Y0148329D01*
X0290413Y0148181D01*
X0290353Y0148035D01*
X0290289Y0147890D01*
X0290221Y0147747D01*
X0290150Y0147605D01*
X0290076Y0147465D01*
X0289998Y0147328D01*
X0289916Y0147192D01*
X0289832Y0147058D01*
X0289743Y0146927D01*
X0289652Y0146798D01*
X0289557Y0146671D01*
X0289460Y0146546D01*
X0289359Y0146424D01*
X0289255Y0146305D01*
X0289148Y0146188D01*
X0289038Y0146074D01*
X0288925Y0145963D01*
X0288810Y0145854D01*
X0288692Y0145749D01*
X0288571Y0145647D01*
X0288448Y0145547D01*
X0288322Y0145451D01*
X0288194Y0145358D01*
X0288064Y0145268D01*
X0287931Y0145182D01*
X0287796Y0145098D01*
X0287660Y0145019D01*
X0287521Y0144942D01*
X0287380Y0144870D01*
X0287238Y0144800D01*
X0287094Y0144735D01*
X0286948Y0144673D01*
X0286801Y0144615D01*
X0286652Y0144560D01*
X0286502Y0144509D01*
X0286351Y0144462D01*
X0286199Y0144419D01*
X0286046Y0144380D01*
X0285891Y0144344D01*
X0285736Y0144313D01*
X0285580Y0144285D01*
X0285424Y0144261D01*
X0285267Y0144241D01*
X0285109Y0144225D01*
X0284952Y0144213D01*
X0284793Y0144205D01*
X0284635Y0144201D01*
X0284477Y0144201D01*
X0284319Y0144205D01*
X0284160Y0144213D01*
X0284003Y0144225D01*
X0283845Y0144241D01*
X0283688Y0144261D01*
X0283532Y0144285D01*
X0283376Y0144313D01*
X0283221Y0144344D01*
X0283066Y0144380D01*
X0282913Y0144419D01*
X0282761Y0144462D01*
X0282610Y0144509D01*
X0282460Y0144560D01*
X0282311Y0144615D01*
X0282164Y0144673D01*
X0282018Y0144735D01*
X0281874Y0144800D01*
X0281732Y0144870D01*
X0281591Y0144942D01*
X0281452Y0145019D01*
X0281316Y0145098D01*
X0281181Y0145182D01*
X0281048Y0145268D01*
X0280918Y0145358D01*
X0280790Y0145451D01*
X0280664Y0145547D01*
X0280541Y0145647D01*
X0280420Y0145749D01*
X0280302Y0145854D01*
X0280187Y0145963D01*
X0280074Y0146074D01*
X0279964Y0146188D01*
X0279857Y0146305D01*
X0279753Y0146424D01*
X0279652Y0146546D01*
X0279555Y0146671D01*
X0279460Y0146798D01*
X0279369Y0146927D01*
X0279280Y0147058D01*
X0279196Y0147192D01*
X0279114Y0147328D01*
X0279036Y0147465D01*
X0278962Y0147605D01*
X0278891Y0147747D01*
X0278823Y0147890D01*
X0278759Y0148035D01*
X0278699Y0148181D01*
X0278643Y0148329D01*
X0278590Y0148478D01*
X0278541Y0148629D01*
X0278496Y0148781D01*
X0278455Y0148934D01*
X0278417Y0149087D01*
X0278384Y0149242D01*
X0278354Y0149398D01*
X0278328Y0149554D01*
X0278307Y0149711D01*
X0278289Y0149868D01*
X0278275Y0150026D01*
X0278265Y0150184D01*
X0278259Y0150342D01*
X0278257Y0150500D01*
X0065300Y0207431D02*
X0065302Y0207592D01*
X0065308Y0207752D01*
X0065318Y0207913D01*
X0065332Y0208073D01*
X0065350Y0208233D01*
X0065371Y0208392D01*
X0065397Y0208551D01*
X0065427Y0208709D01*
X0065460Y0208866D01*
X0065498Y0209023D01*
X0065539Y0209178D01*
X0065584Y0209332D01*
X0065633Y0209485D01*
X0065686Y0209637D01*
X0065742Y0209788D01*
X0065803Y0209937D01*
X0065866Y0210085D01*
X0065934Y0210231D01*
X0066005Y0210375D01*
X0066079Y0210517D01*
X0066157Y0210658D01*
X0066239Y0210796D01*
X0066324Y0210933D01*
X0066412Y0211067D01*
X0066504Y0211199D01*
X0066599Y0211329D01*
X0066697Y0211457D01*
X0066798Y0211582D01*
X0066902Y0211704D01*
X0067009Y0211824D01*
X0067119Y0211941D01*
X0067232Y0212056D01*
X0067348Y0212167D01*
X0067467Y0212276D01*
X0067588Y0212381D01*
X0067712Y0212484D01*
X0067838Y0212584D01*
X0067966Y0212680D01*
X0068097Y0212773D01*
X0068231Y0212863D01*
X0068366Y0212950D01*
X0068504Y0213033D01*
X0068643Y0213113D01*
X0068785Y0213189D01*
X0068928Y0213262D01*
X0069073Y0213331D01*
X0069220Y0213397D01*
X0069368Y0213459D01*
X0069518Y0213517D01*
X0069669Y0213572D01*
X0069822Y0213623D01*
X0069976Y0213670D01*
X0070131Y0213713D01*
X0070287Y0213752D01*
X0070443Y0213788D01*
X0070601Y0213819D01*
X0070759Y0213847D01*
X0070918Y0213871D01*
X0071078Y0213891D01*
X0071238Y0213907D01*
X0071398Y0213919D01*
X0071559Y0213927D01*
X0071720Y0213931D01*
X0071880Y0213931D01*
X0072041Y0213927D01*
X0072202Y0213919D01*
X0072362Y0213907D01*
X0072522Y0213891D01*
X0072682Y0213871D01*
X0072841Y0213847D01*
X0072999Y0213819D01*
X0073157Y0213788D01*
X0073313Y0213752D01*
X0073469Y0213713D01*
X0073624Y0213670D01*
X0073778Y0213623D01*
X0073931Y0213572D01*
X0074082Y0213517D01*
X0074232Y0213459D01*
X0074380Y0213397D01*
X0074527Y0213331D01*
X0074672Y0213262D01*
X0074815Y0213189D01*
X0074957Y0213113D01*
X0075096Y0213033D01*
X0075234Y0212950D01*
X0075369Y0212863D01*
X0075503Y0212773D01*
X0075634Y0212680D01*
X0075762Y0212584D01*
X0075888Y0212484D01*
X0076012Y0212381D01*
X0076133Y0212276D01*
X0076252Y0212167D01*
X0076368Y0212056D01*
X0076481Y0211941D01*
X0076591Y0211824D01*
X0076698Y0211704D01*
X0076802Y0211582D01*
X0076903Y0211457D01*
X0077001Y0211329D01*
X0077096Y0211199D01*
X0077188Y0211067D01*
X0077276Y0210933D01*
X0077361Y0210796D01*
X0077443Y0210658D01*
X0077521Y0210517D01*
X0077595Y0210375D01*
X0077666Y0210231D01*
X0077734Y0210085D01*
X0077797Y0209937D01*
X0077858Y0209788D01*
X0077914Y0209637D01*
X0077967Y0209485D01*
X0078016Y0209332D01*
X0078061Y0209178D01*
X0078102Y0209023D01*
X0078140Y0208866D01*
X0078173Y0208709D01*
X0078203Y0208551D01*
X0078229Y0208392D01*
X0078250Y0208233D01*
X0078268Y0208073D01*
X0078282Y0207913D01*
X0078292Y0207752D01*
X0078298Y0207592D01*
X0078300Y0207431D01*
X0078298Y0207270D01*
X0078292Y0207110D01*
X0078282Y0206949D01*
X0078268Y0206789D01*
X0078250Y0206629D01*
X0078229Y0206470D01*
X0078203Y0206311D01*
X0078173Y0206153D01*
X0078140Y0205996D01*
X0078102Y0205839D01*
X0078061Y0205684D01*
X0078016Y0205530D01*
X0077967Y0205377D01*
X0077914Y0205225D01*
X0077858Y0205074D01*
X0077797Y0204925D01*
X0077734Y0204777D01*
X0077666Y0204631D01*
X0077595Y0204487D01*
X0077521Y0204345D01*
X0077443Y0204204D01*
X0077361Y0204066D01*
X0077276Y0203929D01*
X0077188Y0203795D01*
X0077096Y0203663D01*
X0077001Y0203533D01*
X0076903Y0203405D01*
X0076802Y0203280D01*
X0076698Y0203158D01*
X0076591Y0203038D01*
X0076481Y0202921D01*
X0076368Y0202806D01*
X0076252Y0202695D01*
X0076133Y0202586D01*
X0076012Y0202481D01*
X0075888Y0202378D01*
X0075762Y0202278D01*
X0075634Y0202182D01*
X0075503Y0202089D01*
X0075369Y0201999D01*
X0075234Y0201912D01*
X0075096Y0201829D01*
X0074957Y0201749D01*
X0074815Y0201673D01*
X0074672Y0201600D01*
X0074527Y0201531D01*
X0074380Y0201465D01*
X0074232Y0201403D01*
X0074082Y0201345D01*
X0073931Y0201290D01*
X0073778Y0201239D01*
X0073624Y0201192D01*
X0073469Y0201149D01*
X0073313Y0201110D01*
X0073157Y0201074D01*
X0072999Y0201043D01*
X0072841Y0201015D01*
X0072682Y0200991D01*
X0072522Y0200971D01*
X0072362Y0200955D01*
X0072202Y0200943D01*
X0072041Y0200935D01*
X0071880Y0200931D01*
X0071720Y0200931D01*
X0071559Y0200935D01*
X0071398Y0200943D01*
X0071238Y0200955D01*
X0071078Y0200971D01*
X0070918Y0200991D01*
X0070759Y0201015D01*
X0070601Y0201043D01*
X0070443Y0201074D01*
X0070287Y0201110D01*
X0070131Y0201149D01*
X0069976Y0201192D01*
X0069822Y0201239D01*
X0069669Y0201290D01*
X0069518Y0201345D01*
X0069368Y0201403D01*
X0069220Y0201465D01*
X0069073Y0201531D01*
X0068928Y0201600D01*
X0068785Y0201673D01*
X0068643Y0201749D01*
X0068504Y0201829D01*
X0068366Y0201912D01*
X0068231Y0201999D01*
X0068097Y0202089D01*
X0067966Y0202182D01*
X0067838Y0202278D01*
X0067712Y0202378D01*
X0067588Y0202481D01*
X0067467Y0202586D01*
X0067348Y0202695D01*
X0067232Y0202806D01*
X0067119Y0202921D01*
X0067009Y0203038D01*
X0066902Y0203158D01*
X0066798Y0203280D01*
X0066697Y0203405D01*
X0066599Y0203533D01*
X0066504Y0203663D01*
X0066412Y0203795D01*
X0066324Y0203929D01*
X0066239Y0204066D01*
X0066157Y0204204D01*
X0066079Y0204345D01*
X0066005Y0204487D01*
X0065934Y0204631D01*
X0065866Y0204777D01*
X0065803Y0204925D01*
X0065742Y0205074D01*
X0065686Y0205225D01*
X0065633Y0205377D01*
X0065584Y0205530D01*
X0065539Y0205684D01*
X0065498Y0205839D01*
X0065460Y0205996D01*
X0065427Y0206153D01*
X0065397Y0206311D01*
X0065371Y0206470D01*
X0065350Y0206629D01*
X0065332Y0206789D01*
X0065318Y0206949D01*
X0065308Y0207110D01*
X0065302Y0207270D01*
X0065300Y0207431D01*
X0065300Y0022231D02*
X0065302Y0022392D01*
X0065308Y0022552D01*
X0065318Y0022713D01*
X0065332Y0022873D01*
X0065350Y0023033D01*
X0065371Y0023192D01*
X0065397Y0023351D01*
X0065427Y0023509D01*
X0065460Y0023666D01*
X0065498Y0023823D01*
X0065539Y0023978D01*
X0065584Y0024132D01*
X0065633Y0024285D01*
X0065686Y0024437D01*
X0065742Y0024588D01*
X0065803Y0024737D01*
X0065866Y0024885D01*
X0065934Y0025031D01*
X0066005Y0025175D01*
X0066079Y0025317D01*
X0066157Y0025458D01*
X0066239Y0025596D01*
X0066324Y0025733D01*
X0066412Y0025867D01*
X0066504Y0025999D01*
X0066599Y0026129D01*
X0066697Y0026257D01*
X0066798Y0026382D01*
X0066902Y0026504D01*
X0067009Y0026624D01*
X0067119Y0026741D01*
X0067232Y0026856D01*
X0067348Y0026967D01*
X0067467Y0027076D01*
X0067588Y0027181D01*
X0067712Y0027284D01*
X0067838Y0027384D01*
X0067966Y0027480D01*
X0068097Y0027573D01*
X0068231Y0027663D01*
X0068366Y0027750D01*
X0068504Y0027833D01*
X0068643Y0027913D01*
X0068785Y0027989D01*
X0068928Y0028062D01*
X0069073Y0028131D01*
X0069220Y0028197D01*
X0069368Y0028259D01*
X0069518Y0028317D01*
X0069669Y0028372D01*
X0069822Y0028423D01*
X0069976Y0028470D01*
X0070131Y0028513D01*
X0070287Y0028552D01*
X0070443Y0028588D01*
X0070601Y0028619D01*
X0070759Y0028647D01*
X0070918Y0028671D01*
X0071078Y0028691D01*
X0071238Y0028707D01*
X0071398Y0028719D01*
X0071559Y0028727D01*
X0071720Y0028731D01*
X0071880Y0028731D01*
X0072041Y0028727D01*
X0072202Y0028719D01*
X0072362Y0028707D01*
X0072522Y0028691D01*
X0072682Y0028671D01*
X0072841Y0028647D01*
X0072999Y0028619D01*
X0073157Y0028588D01*
X0073313Y0028552D01*
X0073469Y0028513D01*
X0073624Y0028470D01*
X0073778Y0028423D01*
X0073931Y0028372D01*
X0074082Y0028317D01*
X0074232Y0028259D01*
X0074380Y0028197D01*
X0074527Y0028131D01*
X0074672Y0028062D01*
X0074815Y0027989D01*
X0074957Y0027913D01*
X0075096Y0027833D01*
X0075234Y0027750D01*
X0075369Y0027663D01*
X0075503Y0027573D01*
X0075634Y0027480D01*
X0075762Y0027384D01*
X0075888Y0027284D01*
X0076012Y0027181D01*
X0076133Y0027076D01*
X0076252Y0026967D01*
X0076368Y0026856D01*
X0076481Y0026741D01*
X0076591Y0026624D01*
X0076698Y0026504D01*
X0076802Y0026382D01*
X0076903Y0026257D01*
X0077001Y0026129D01*
X0077096Y0025999D01*
X0077188Y0025867D01*
X0077276Y0025733D01*
X0077361Y0025596D01*
X0077443Y0025458D01*
X0077521Y0025317D01*
X0077595Y0025175D01*
X0077666Y0025031D01*
X0077734Y0024885D01*
X0077797Y0024737D01*
X0077858Y0024588D01*
X0077914Y0024437D01*
X0077967Y0024285D01*
X0078016Y0024132D01*
X0078061Y0023978D01*
X0078102Y0023823D01*
X0078140Y0023666D01*
X0078173Y0023509D01*
X0078203Y0023351D01*
X0078229Y0023192D01*
X0078250Y0023033D01*
X0078268Y0022873D01*
X0078282Y0022713D01*
X0078292Y0022552D01*
X0078298Y0022392D01*
X0078300Y0022231D01*
X0078298Y0022070D01*
X0078292Y0021910D01*
X0078282Y0021749D01*
X0078268Y0021589D01*
X0078250Y0021429D01*
X0078229Y0021270D01*
X0078203Y0021111D01*
X0078173Y0020953D01*
X0078140Y0020796D01*
X0078102Y0020639D01*
X0078061Y0020484D01*
X0078016Y0020330D01*
X0077967Y0020177D01*
X0077914Y0020025D01*
X0077858Y0019874D01*
X0077797Y0019725D01*
X0077734Y0019577D01*
X0077666Y0019431D01*
X0077595Y0019287D01*
X0077521Y0019145D01*
X0077443Y0019004D01*
X0077361Y0018866D01*
X0077276Y0018729D01*
X0077188Y0018595D01*
X0077096Y0018463D01*
X0077001Y0018333D01*
X0076903Y0018205D01*
X0076802Y0018080D01*
X0076698Y0017958D01*
X0076591Y0017838D01*
X0076481Y0017721D01*
X0076368Y0017606D01*
X0076252Y0017495D01*
X0076133Y0017386D01*
X0076012Y0017281D01*
X0075888Y0017178D01*
X0075762Y0017078D01*
X0075634Y0016982D01*
X0075503Y0016889D01*
X0075369Y0016799D01*
X0075234Y0016712D01*
X0075096Y0016629D01*
X0074957Y0016549D01*
X0074815Y0016473D01*
X0074672Y0016400D01*
X0074527Y0016331D01*
X0074380Y0016265D01*
X0074232Y0016203D01*
X0074082Y0016145D01*
X0073931Y0016090D01*
X0073778Y0016039D01*
X0073624Y0015992D01*
X0073469Y0015949D01*
X0073313Y0015910D01*
X0073157Y0015874D01*
X0072999Y0015843D01*
X0072841Y0015815D01*
X0072682Y0015791D01*
X0072522Y0015771D01*
X0072362Y0015755D01*
X0072202Y0015743D01*
X0072041Y0015735D01*
X0071880Y0015731D01*
X0071720Y0015731D01*
X0071559Y0015735D01*
X0071398Y0015743D01*
X0071238Y0015755D01*
X0071078Y0015771D01*
X0070918Y0015791D01*
X0070759Y0015815D01*
X0070601Y0015843D01*
X0070443Y0015874D01*
X0070287Y0015910D01*
X0070131Y0015949D01*
X0069976Y0015992D01*
X0069822Y0016039D01*
X0069669Y0016090D01*
X0069518Y0016145D01*
X0069368Y0016203D01*
X0069220Y0016265D01*
X0069073Y0016331D01*
X0068928Y0016400D01*
X0068785Y0016473D01*
X0068643Y0016549D01*
X0068504Y0016629D01*
X0068366Y0016712D01*
X0068231Y0016799D01*
X0068097Y0016889D01*
X0067966Y0016982D01*
X0067838Y0017078D01*
X0067712Y0017178D01*
X0067588Y0017281D01*
X0067467Y0017386D01*
X0067348Y0017495D01*
X0067232Y0017606D01*
X0067119Y0017721D01*
X0067009Y0017838D01*
X0066902Y0017958D01*
X0066798Y0018080D01*
X0066697Y0018205D01*
X0066599Y0018333D01*
X0066504Y0018463D01*
X0066412Y0018595D01*
X0066324Y0018729D01*
X0066239Y0018866D01*
X0066157Y0019004D01*
X0066079Y0019145D01*
X0066005Y0019287D01*
X0065934Y0019431D01*
X0065866Y0019577D01*
X0065803Y0019725D01*
X0065742Y0019874D01*
X0065686Y0020025D01*
X0065633Y0020177D01*
X0065584Y0020330D01*
X0065539Y0020484D01*
X0065498Y0020639D01*
X0065460Y0020796D01*
X0065427Y0020953D01*
X0065397Y0021111D01*
X0065371Y0021270D01*
X0065350Y0021429D01*
X0065332Y0021589D01*
X0065318Y0021749D01*
X0065308Y0021910D01*
X0065302Y0022070D01*
X0065300Y0022231D01*
D14*
X0118937Y0180150D02*
X0117703Y0181384D01*
X0118937Y0182619D01*
X0121406Y0182619D01*
X0121406Y0183833D02*
X0117703Y0183833D01*
X0117703Y0185685D01*
X0118320Y0186302D01*
X0119554Y0186302D01*
X0120172Y0185685D01*
X0120172Y0183833D01*
X0120172Y0185068D02*
X0121406Y0186302D01*
X0121406Y0187516D02*
X0121406Y0189985D01*
X0121406Y0191199D02*
X0117703Y0191199D01*
X0117703Y0193668D01*
X0119554Y0192434D02*
X0119554Y0191199D01*
X0117703Y0189985D02*
X0117703Y0187516D01*
X0121406Y0187516D01*
X0119554Y0187516D02*
X0119554Y0188751D01*
X0119554Y0182619D02*
X0119554Y0180150D01*
X0118937Y0180150D02*
X0121406Y0180150D01*
D15*
X0096450Y0022330D02*
X0096450Y0018126D01*
X0096450Y0020228D02*
X0090145Y0020228D01*
X0092246Y0018126D01*
X0090145Y0015884D02*
X0096450Y0011681D01*
X0096450Y0015884D02*
X0090145Y0011681D01*
D16*
X0043300Y0114831D03*
D17*
X0026800Y0114831D03*
D18*
X0059050Y0114831D03*
X0059050Y0125731D03*
X0059050Y0136531D03*
X0059050Y0147431D03*
X0059050Y0158331D03*
X0059050Y0169131D03*
X0059050Y0180031D03*
X0059050Y0103931D03*
X0059050Y0093131D03*
X0059050Y0082231D03*
X0059050Y0071331D03*
X0059050Y0060531D03*
X0059050Y0049631D03*
D19*
X0054050Y0055031D03*
X0054050Y0065931D03*
X0054050Y0076831D03*
X0054050Y0087631D03*
X0054050Y0098531D03*
X0054050Y0109431D03*
X0054050Y0120231D03*
X0054050Y0131131D03*
X0054050Y0141931D03*
X0054050Y0152831D03*
X0054050Y0163731D03*
X0054050Y0174631D03*
D20*
X0219017Y0164043D03*
X0247417Y0164043D03*
D21*
X0203241Y0123706D02*
X0175005Y0123706D01*
X0175005Y0107531D01*
X0203241Y0107531D01*
X0203241Y0123706D01*
D22*
X0213976Y0122343D02*
X0213976Y0120808D01*
X0214744Y0120041D01*
X0214744Y0118506D02*
X0215511Y0118506D01*
X0216278Y0117739D01*
X0217046Y0118506D01*
X0217813Y0118506D01*
X0218580Y0117739D01*
X0218580Y0116204D01*
X0217813Y0115437D01*
X0216278Y0116972D02*
X0216278Y0117739D01*
X0214744Y0118506D02*
X0213976Y0117739D01*
X0213976Y0116204D01*
X0214744Y0115437D01*
X0214744Y0113902D02*
X0216278Y0113902D01*
X0217046Y0113135D01*
X0217046Y0110833D01*
X0218580Y0110833D02*
X0213976Y0110833D01*
X0213976Y0113135D01*
X0214744Y0113902D01*
X0214744Y0109298D02*
X0213976Y0108531D01*
X0213976Y0106229D01*
X0218580Y0106229D01*
X0218580Y0108531D01*
X0217813Y0109298D01*
X0214744Y0109298D01*
X0215511Y0104694D02*
X0213976Y0103160D01*
X0215511Y0101625D01*
X0218580Y0101625D01*
X0216278Y0101625D02*
X0216278Y0104694D01*
X0215511Y0104694D02*
X0218580Y0104694D01*
X0218041Y0091170D02*
X0217273Y0090403D01*
X0218041Y0091170D02*
X0219575Y0091170D01*
X0220342Y0090403D01*
X0220342Y0089635D01*
X0217273Y0086566D01*
X0220342Y0086566D01*
X0215739Y0087333D02*
X0214971Y0086566D01*
X0213437Y0086566D01*
X0212669Y0087333D01*
X0212669Y0090403D01*
X0213437Y0091170D01*
X0214971Y0091170D01*
X0215739Y0090403D01*
X0231291Y0088868D02*
X0234361Y0088868D01*
X0232826Y0090403D02*
X0232826Y0087333D01*
X0236291Y0087333D02*
X0237059Y0086566D01*
X0238593Y0086566D01*
X0239361Y0087333D01*
X0240895Y0088868D02*
X0243965Y0088868D01*
X0243197Y0086566D02*
X0243197Y0091170D01*
X0240895Y0088868D01*
X0239361Y0090403D02*
X0238593Y0091170D01*
X0237059Y0091170D01*
X0236291Y0090403D01*
X0236291Y0087333D01*
X0262035Y0109622D02*
X0262803Y0108854D01*
X0265872Y0108854D01*
X0266639Y0109622D01*
X0266639Y0111156D01*
X0265872Y0111924D01*
X0265872Y0113458D02*
X0266639Y0114226D01*
X0266639Y0115760D01*
X0265872Y0116528D01*
X0264337Y0116528D01*
X0263570Y0115760D01*
X0263570Y0114993D01*
X0264337Y0113458D01*
X0262035Y0113458D01*
X0262035Y0116528D01*
X0262803Y0111924D02*
X0262035Y0111156D01*
X0262035Y0109622D01*
X0218580Y0120808D02*
X0217813Y0120041D01*
X0218580Y0120808D02*
X0218580Y0122343D01*
X0217813Y0123110D01*
X0217046Y0123110D01*
X0216278Y0122343D01*
X0216278Y0121576D01*
X0216278Y0122343D02*
X0215511Y0123110D01*
X0214744Y0123110D01*
X0213976Y0122343D01*
X0214744Y0124645D02*
X0213976Y0125412D01*
X0213976Y0126947D01*
X0214744Y0127714D01*
X0217813Y0124645D01*
X0218580Y0125412D01*
X0218580Y0126947D01*
X0217813Y0127714D01*
X0214744Y0127714D01*
X0214744Y0129249D02*
X0213976Y0130016D01*
X0213976Y0131551D01*
X0214744Y0132318D01*
X0215511Y0132318D01*
X0216278Y0131551D01*
X0217046Y0132318D01*
X0217813Y0132318D01*
X0218580Y0131551D01*
X0218580Y0130016D01*
X0217813Y0129249D01*
X0216278Y0130783D02*
X0216278Y0131551D01*
X0217813Y0124645D02*
X0214744Y0124645D01*
X0221311Y0141684D02*
X0220543Y0142452D01*
X0220543Y0145521D01*
X0221311Y0146288D01*
X0222845Y0146288D01*
X0223613Y0145521D01*
X0225147Y0144754D02*
X0226682Y0146288D01*
X0226682Y0141684D01*
X0225147Y0141684D02*
X0228217Y0141684D01*
X0223613Y0142452D02*
X0222845Y0141684D01*
X0221311Y0141684D01*
X0243102Y0143986D02*
X0246172Y0143986D01*
X0244637Y0145521D02*
X0244637Y0142452D01*
X0248102Y0142452D02*
X0248102Y0145521D01*
X0248870Y0146288D01*
X0250404Y0146288D01*
X0251172Y0145521D01*
X0252706Y0145521D02*
X0253474Y0146288D01*
X0255008Y0146288D01*
X0255776Y0145521D01*
X0255776Y0144754D01*
X0255008Y0143986D01*
X0255776Y0143219D01*
X0255776Y0142452D01*
X0255008Y0141684D01*
X0253474Y0141684D01*
X0252706Y0142452D01*
X0251172Y0142452D02*
X0250404Y0141684D01*
X0248870Y0141684D01*
X0248102Y0142452D01*
X0254241Y0143986D02*
X0255008Y0143986D01*
X0193571Y0164105D02*
X0192804Y0163338D01*
X0191269Y0163338D01*
X0190502Y0164105D01*
X0190502Y0165640D01*
X0192804Y0165640D01*
X0193571Y0164872D01*
X0193571Y0164105D01*
X0192036Y0167174D02*
X0190502Y0165640D01*
X0192036Y0167174D02*
X0193571Y0167942D01*
X0188967Y0167174D02*
X0188200Y0167942D01*
X0186665Y0167942D01*
X0185898Y0167174D01*
X0185898Y0164105D01*
X0186665Y0163338D01*
X0188200Y0163338D01*
X0188967Y0164105D01*
X0175754Y0164070D02*
X0175754Y0162535D01*
X0174986Y0161768D01*
X0174986Y0160233D02*
X0175754Y0159466D01*
X0175754Y0157931D01*
X0174986Y0157164D01*
X0174986Y0155629D02*
X0175754Y0154862D01*
X0175754Y0153327D01*
X0174986Y0152560D01*
X0174986Y0151025D02*
X0173452Y0151025D01*
X0173452Y0149491D01*
X0174986Y0151025D02*
X0175754Y0150258D01*
X0175754Y0148723D01*
X0174986Y0147956D01*
X0171917Y0147956D01*
X0171150Y0148723D01*
X0171150Y0150258D01*
X0171917Y0151025D01*
X0171917Y0152560D02*
X0171150Y0153327D01*
X0171150Y0154862D01*
X0171917Y0155629D01*
X0172684Y0155629D01*
X0173452Y0154862D01*
X0174219Y0155629D01*
X0174986Y0155629D01*
X0173452Y0154862D02*
X0173452Y0154094D01*
X0171917Y0157164D02*
X0171150Y0157931D01*
X0171150Y0159466D01*
X0171917Y0160233D01*
X0172684Y0160233D01*
X0173452Y0159466D01*
X0174219Y0160233D01*
X0174986Y0160233D01*
X0173452Y0159466D02*
X0173452Y0158698D01*
X0171917Y0161768D02*
X0171150Y0162535D01*
X0171150Y0164070D01*
X0171917Y0164837D01*
X0172684Y0164837D01*
X0173452Y0164070D01*
X0174219Y0164837D01*
X0174986Y0164837D01*
X0175754Y0164070D01*
X0175754Y0166372D02*
X0172684Y0169441D01*
X0171917Y0169441D01*
X0171150Y0168674D01*
X0171150Y0167139D01*
X0171917Y0166372D01*
X0173452Y0164070D02*
X0173452Y0163302D01*
X0175754Y0166372D02*
X0175754Y0169441D01*
X0174986Y0146421D02*
X0171917Y0146421D01*
X0171150Y0145654D01*
X0171150Y0143352D01*
X0175754Y0143352D01*
X0175754Y0145654D01*
X0174986Y0146421D01*
X0175754Y0141817D02*
X0172684Y0141817D01*
X0171150Y0140283D01*
X0172684Y0138748D01*
X0175754Y0138748D01*
X0173452Y0138748D02*
X0173452Y0141817D01*
X0170603Y0128436D02*
X0170603Y0126034D01*
X0168802Y0127835D01*
X0172405Y0127835D01*
X0171804Y0124753D02*
X0169402Y0124753D01*
X0168802Y0124152D01*
X0168802Y0122951D01*
X0169402Y0122351D01*
X0170003Y0122351D01*
X0170603Y0122951D01*
X0170603Y0124753D01*
X0171804Y0124753D02*
X0172405Y0124152D01*
X0172405Y0122951D01*
X0171804Y0122351D01*
X0169402Y0121070D02*
X0171804Y0118668D01*
X0172405Y0118668D01*
X0169402Y0117386D02*
X0171804Y0114984D01*
X0172405Y0114984D01*
X0171804Y0113703D02*
X0169402Y0113703D01*
X0168802Y0113103D01*
X0168802Y0111301D01*
X0172405Y0111301D01*
X0172405Y0113103D01*
X0171804Y0113703D01*
X0168802Y0114984D02*
X0168802Y0117386D01*
X0169402Y0117386D01*
X0168802Y0118668D02*
X0168802Y0121070D01*
X0169402Y0121070D01*
X0170003Y0110020D02*
X0172405Y0110020D01*
X0170603Y0110020D02*
X0170603Y0107618D01*
X0170003Y0107618D02*
X0172405Y0107618D01*
X0170003Y0107618D02*
X0168802Y0108819D01*
X0170003Y0110020D01*
X0152694Y0100284D02*
X0152694Y0095680D01*
X0154228Y0095680D02*
X0151159Y0095680D01*
X0149624Y0096448D02*
X0148857Y0095680D01*
X0147322Y0095680D01*
X0146555Y0096448D01*
X0145020Y0096448D02*
X0144253Y0095680D01*
X0142718Y0095680D01*
X0141951Y0096448D01*
X0140416Y0096448D02*
X0139649Y0095680D01*
X0138115Y0095680D01*
X0137347Y0096448D01*
X0135813Y0096448D02*
X0135813Y0097982D01*
X0134278Y0097982D01*
X0135813Y0096448D02*
X0135045Y0095680D01*
X0133511Y0095680D01*
X0132743Y0096448D01*
X0132743Y0099517D01*
X0133511Y0100284D01*
X0135045Y0100284D01*
X0135813Y0099517D01*
X0137347Y0099517D02*
X0138115Y0100284D01*
X0139649Y0100284D01*
X0140416Y0099517D01*
X0140416Y0098750D01*
X0139649Y0097982D01*
X0140416Y0097215D01*
X0140416Y0096448D01*
X0139649Y0097982D02*
X0138882Y0097982D01*
X0141951Y0099517D02*
X0142718Y0100284D01*
X0144253Y0100284D01*
X0145020Y0099517D01*
X0145020Y0098750D01*
X0144253Y0097982D01*
X0145020Y0097215D01*
X0145020Y0096448D01*
X0144253Y0097982D02*
X0143486Y0097982D01*
X0146555Y0099517D02*
X0147322Y0100284D01*
X0148857Y0100284D01*
X0149624Y0099517D01*
X0149624Y0098750D01*
X0148857Y0097982D01*
X0149624Y0097215D01*
X0149624Y0096448D01*
X0148857Y0097982D02*
X0148090Y0097982D01*
X0151159Y0098750D02*
X0152694Y0100284D01*
X0131209Y0099517D02*
X0131209Y0096448D01*
X0130441Y0095680D01*
X0128139Y0095680D01*
X0128139Y0100284D01*
X0130441Y0100284D01*
X0131209Y0099517D01*
X0126605Y0098750D02*
X0126605Y0095680D01*
X0126605Y0097982D02*
X0123535Y0097982D01*
X0123535Y0098750D02*
X0123535Y0095680D01*
X0123535Y0098750D02*
X0125070Y0100284D01*
X0126605Y0098750D01*
D23*
X0122981Y0093177D02*
X0152902Y0093177D01*
X0152902Y0042783D01*
X0122981Y0042783D01*
X0122981Y0093177D01*
X0124912Y0090027D02*
X0124914Y0090116D01*
X0124920Y0090206D01*
X0124930Y0090295D01*
X0124944Y0090383D01*
X0124962Y0090470D01*
X0124983Y0090557D01*
X0125009Y0090643D01*
X0125038Y0090727D01*
X0125071Y0090811D01*
X0125108Y0090892D01*
X0125148Y0090972D01*
X0125192Y0091050D01*
X0125239Y0091126D01*
X0125290Y0091199D01*
X0125344Y0091271D01*
X0125401Y0091340D01*
X0125461Y0091406D01*
X0125524Y0091470D01*
X0125589Y0091530D01*
X0125658Y0091588D01*
X0125728Y0091643D01*
X0125802Y0091694D01*
X0125877Y0091742D01*
X0125954Y0091787D01*
X0126034Y0091828D01*
X0126115Y0091866D01*
X0126198Y0091900D01*
X0126282Y0091930D01*
X0126367Y0091957D01*
X0126454Y0091979D01*
X0126541Y0091998D01*
X0126629Y0092013D01*
X0126718Y0092024D01*
X0126807Y0092031D01*
X0126897Y0092034D01*
X0126986Y0092033D01*
X0127075Y0092028D01*
X0127164Y0092019D01*
X0127253Y0092006D01*
X0127341Y0091989D01*
X0127428Y0091968D01*
X0127514Y0091944D01*
X0127598Y0091915D01*
X0127682Y0091883D01*
X0127764Y0091848D01*
X0127844Y0091808D01*
X0127922Y0091765D01*
X0127999Y0091719D01*
X0128073Y0091669D01*
X0128145Y0091616D01*
X0128215Y0091560D01*
X0128282Y0091500D01*
X0128346Y0091438D01*
X0128407Y0091373D01*
X0128466Y0091306D01*
X0128521Y0091235D01*
X0128574Y0091163D01*
X0128623Y0091088D01*
X0128668Y0091011D01*
X0128710Y0090932D01*
X0128749Y0090851D01*
X0128784Y0090769D01*
X0128815Y0090685D01*
X0128842Y0090600D01*
X0128866Y0090514D01*
X0128886Y0090427D01*
X0128902Y0090339D01*
X0128914Y0090250D01*
X0128922Y0090161D01*
X0128926Y0090072D01*
X0128926Y0089982D01*
X0128922Y0089893D01*
X0128914Y0089804D01*
X0128902Y0089715D01*
X0128886Y0089627D01*
X0128866Y0089540D01*
X0128842Y0089454D01*
X0128815Y0089369D01*
X0128784Y0089285D01*
X0128749Y0089203D01*
X0128710Y0089122D01*
X0128668Y0089043D01*
X0128623Y0088966D01*
X0128574Y0088891D01*
X0128521Y0088819D01*
X0128466Y0088748D01*
X0128407Y0088681D01*
X0128346Y0088616D01*
X0128282Y0088554D01*
X0128215Y0088494D01*
X0128145Y0088438D01*
X0128073Y0088385D01*
X0127999Y0088335D01*
X0127923Y0088289D01*
X0127844Y0088246D01*
X0127764Y0088206D01*
X0127682Y0088171D01*
X0127598Y0088139D01*
X0127514Y0088110D01*
X0127428Y0088086D01*
X0127341Y0088065D01*
X0127253Y0088048D01*
X0127164Y0088035D01*
X0127075Y0088026D01*
X0126986Y0088021D01*
X0126897Y0088020D01*
X0126807Y0088023D01*
X0126718Y0088030D01*
X0126629Y0088041D01*
X0126541Y0088056D01*
X0126454Y0088075D01*
X0126367Y0088097D01*
X0126282Y0088124D01*
X0126198Y0088154D01*
X0126115Y0088188D01*
X0126034Y0088226D01*
X0125954Y0088267D01*
X0125877Y0088312D01*
X0125802Y0088360D01*
X0125728Y0088411D01*
X0125658Y0088466D01*
X0125589Y0088524D01*
X0125524Y0088584D01*
X0125461Y0088648D01*
X0125401Y0088714D01*
X0125344Y0088783D01*
X0125290Y0088855D01*
X0125239Y0088928D01*
X0125192Y0089004D01*
X0125148Y0089082D01*
X0125108Y0089162D01*
X0125071Y0089243D01*
X0125038Y0089327D01*
X0125009Y0089411D01*
X0124983Y0089497D01*
X0124962Y0089584D01*
X0124944Y0089671D01*
X0124930Y0089759D01*
X0124920Y0089848D01*
X0124914Y0089938D01*
X0124912Y0090027D01*
X0118257Y0141209D02*
X0168650Y0141209D01*
X0168650Y0171130D01*
X0118257Y0171130D01*
X0118257Y0141209D01*
X0163493Y0167193D02*
X0163495Y0167282D01*
X0163501Y0167372D01*
X0163511Y0167461D01*
X0163525Y0167549D01*
X0163543Y0167636D01*
X0163564Y0167723D01*
X0163590Y0167809D01*
X0163619Y0167893D01*
X0163652Y0167977D01*
X0163689Y0168058D01*
X0163729Y0168138D01*
X0163773Y0168216D01*
X0163820Y0168292D01*
X0163871Y0168365D01*
X0163925Y0168437D01*
X0163982Y0168506D01*
X0164042Y0168572D01*
X0164105Y0168636D01*
X0164170Y0168696D01*
X0164239Y0168754D01*
X0164309Y0168809D01*
X0164383Y0168860D01*
X0164458Y0168908D01*
X0164535Y0168953D01*
X0164615Y0168994D01*
X0164696Y0169032D01*
X0164779Y0169066D01*
X0164863Y0169096D01*
X0164948Y0169123D01*
X0165035Y0169145D01*
X0165122Y0169164D01*
X0165210Y0169179D01*
X0165299Y0169190D01*
X0165388Y0169197D01*
X0165478Y0169200D01*
X0165567Y0169199D01*
X0165656Y0169194D01*
X0165745Y0169185D01*
X0165834Y0169172D01*
X0165922Y0169155D01*
X0166009Y0169134D01*
X0166095Y0169110D01*
X0166179Y0169081D01*
X0166263Y0169049D01*
X0166345Y0169014D01*
X0166425Y0168974D01*
X0166503Y0168931D01*
X0166580Y0168885D01*
X0166654Y0168835D01*
X0166726Y0168782D01*
X0166796Y0168726D01*
X0166863Y0168666D01*
X0166927Y0168604D01*
X0166988Y0168539D01*
X0167047Y0168472D01*
X0167102Y0168401D01*
X0167155Y0168329D01*
X0167204Y0168254D01*
X0167249Y0168177D01*
X0167291Y0168098D01*
X0167330Y0168017D01*
X0167365Y0167935D01*
X0167396Y0167851D01*
X0167423Y0167766D01*
X0167447Y0167680D01*
X0167467Y0167593D01*
X0167483Y0167505D01*
X0167495Y0167416D01*
X0167503Y0167327D01*
X0167507Y0167238D01*
X0167507Y0167148D01*
X0167503Y0167059D01*
X0167495Y0166970D01*
X0167483Y0166881D01*
X0167467Y0166793D01*
X0167447Y0166706D01*
X0167423Y0166620D01*
X0167396Y0166535D01*
X0167365Y0166451D01*
X0167330Y0166369D01*
X0167291Y0166288D01*
X0167249Y0166209D01*
X0167204Y0166132D01*
X0167155Y0166057D01*
X0167102Y0165985D01*
X0167047Y0165914D01*
X0166988Y0165847D01*
X0166927Y0165782D01*
X0166863Y0165720D01*
X0166796Y0165660D01*
X0166726Y0165604D01*
X0166654Y0165551D01*
X0166580Y0165501D01*
X0166504Y0165455D01*
X0166425Y0165412D01*
X0166345Y0165372D01*
X0166263Y0165337D01*
X0166179Y0165305D01*
X0166095Y0165276D01*
X0166009Y0165252D01*
X0165922Y0165231D01*
X0165834Y0165214D01*
X0165745Y0165201D01*
X0165656Y0165192D01*
X0165567Y0165187D01*
X0165478Y0165186D01*
X0165388Y0165189D01*
X0165299Y0165196D01*
X0165210Y0165207D01*
X0165122Y0165222D01*
X0165035Y0165241D01*
X0164948Y0165263D01*
X0164863Y0165290D01*
X0164779Y0165320D01*
X0164696Y0165354D01*
X0164615Y0165392D01*
X0164535Y0165433D01*
X0164458Y0165478D01*
X0164383Y0165526D01*
X0164309Y0165577D01*
X0164239Y0165632D01*
X0164170Y0165690D01*
X0164105Y0165750D01*
X0164042Y0165814D01*
X0163982Y0165880D01*
X0163925Y0165949D01*
X0163871Y0166021D01*
X0163820Y0166094D01*
X0163773Y0166170D01*
X0163729Y0166248D01*
X0163689Y0166328D01*
X0163652Y0166409D01*
X0163619Y0166493D01*
X0163590Y0166577D01*
X0163564Y0166663D01*
X0163543Y0166750D01*
X0163525Y0166837D01*
X0163511Y0166925D01*
X0163501Y0167014D01*
X0163495Y0167104D01*
X0163493Y0167193D01*
M02*
