G75*
%MOIN*%
%OFA0B0*%
%FSLAX25Y25*%
%IPPOS*%
%LPD*%
%AMOC8*
5,1,8,0,0,1.08239X$1,22.5*
%
%ADD10C,0.12998*%
%ADD11C,0.06140*%
%ADD12C,0.06400*%
%ADD13OC8,0.06502*%
%ADD14OC8,0.06400*%
%ADD15OC8,0.06975*%
%ADD16C,0.13400*%
%ADD17OC8,0.05600*%
%ADD18R,0.01600X0.04300*%
%ADD19R,0.02762X0.09061*%
%ADD20R,0.05518X0.06306*%
%ADD21R,0.06699X0.07487*%
%ADD22R,0.06306X0.05518*%
%ADD23R,0.06306X0.02762*%
%ADD24R,0.02762X0.06306*%
%ADD25R,0.05550X0.05550*%
%ADD26C,0.07880*%
%ADD27C,0.04362*%
%ADD28C,0.04400*%
D10*
X0284556Y0150500D03*
D11*
X0274556Y0199065D02*
X0274556Y0201935D01*
X0274556Y0209065D02*
X0274556Y0211935D01*
X0264556Y0211935D02*
X0264556Y0209065D01*
X0264556Y0201935D02*
X0264556Y0199065D01*
X0254556Y0199065D02*
X0254556Y0201935D01*
X0254556Y0209065D02*
X0254556Y0211935D01*
X0244556Y0211935D02*
X0244556Y0209065D01*
X0244556Y0201935D02*
X0244556Y0199065D01*
X0234556Y0199065D02*
X0234556Y0201935D01*
X0234556Y0209065D02*
X0234556Y0211935D01*
X0224556Y0211935D02*
X0224556Y0209065D01*
X0224556Y0201935D02*
X0224556Y0199065D01*
X0214556Y0199065D02*
X0214556Y0201935D01*
X0214556Y0209065D02*
X0214556Y0211935D01*
X0204556Y0211935D02*
X0204556Y0209065D01*
X0204556Y0201935D02*
X0204556Y0199065D01*
X0188556Y0199065D02*
X0188556Y0201935D01*
X0188556Y0209065D02*
X0188556Y0211935D01*
X0178556Y0211935D02*
X0178556Y0209065D01*
X0178556Y0201935D02*
X0178556Y0199065D01*
X0168556Y0199065D02*
X0168556Y0201935D01*
X0168556Y0209065D02*
X0168556Y0211935D01*
X0158556Y0211935D02*
X0158556Y0209065D01*
X0158556Y0201935D02*
X0158556Y0199065D01*
X0148556Y0199065D02*
X0148556Y0201935D01*
X0148556Y0209065D02*
X0148556Y0211935D01*
X0138556Y0211935D02*
X0138556Y0209065D01*
X0138556Y0201935D02*
X0138556Y0199065D01*
X0128556Y0199065D02*
X0128556Y0201935D01*
X0128556Y0209065D02*
X0128556Y0211935D01*
X0118556Y0211935D02*
X0118556Y0209065D01*
X0118556Y0201935D02*
X0118556Y0199065D01*
X0108556Y0199065D02*
X0108556Y0201935D01*
X0108556Y0209065D02*
X0108556Y0211935D01*
X0098556Y0211935D02*
X0098556Y0209065D01*
X0098556Y0201935D02*
X0098556Y0199065D01*
X0134556Y0031935D02*
X0134556Y0029065D01*
X0134556Y0021935D02*
X0134556Y0019065D01*
X0144556Y0019065D02*
X0144556Y0021935D01*
X0144556Y0029065D02*
X0144556Y0031935D01*
X0154556Y0031935D02*
X0154556Y0029065D01*
X0154556Y0021935D02*
X0154556Y0019065D01*
X0164556Y0019065D02*
X0164556Y0021935D01*
X0164556Y0029065D02*
X0164556Y0031935D01*
X0174556Y0031935D02*
X0174556Y0029065D01*
X0174556Y0021935D02*
X0174556Y0019065D01*
X0184556Y0019065D02*
X0184556Y0021935D01*
X0184556Y0029065D02*
X0184556Y0031935D01*
X0194556Y0031935D02*
X0194556Y0029065D01*
X0194556Y0021935D02*
X0194556Y0019065D01*
X0204556Y0019065D02*
X0204556Y0021935D01*
X0204556Y0029065D02*
X0204556Y0031935D01*
D12*
X0224556Y0032000D02*
X0224556Y0029000D01*
X0224556Y0022000D02*
X0224556Y0019000D01*
X0234556Y0019000D02*
X0234556Y0022000D01*
X0234556Y0029000D02*
X0234556Y0032000D01*
X0244556Y0032000D02*
X0244556Y0029000D01*
X0244556Y0022000D02*
X0244556Y0019000D01*
X0254556Y0019000D02*
X0254556Y0022000D01*
X0254556Y0029000D02*
X0254556Y0032000D01*
X0264556Y0032000D02*
X0264556Y0029000D01*
X0264556Y0022000D02*
X0264556Y0019000D01*
X0274556Y0019000D02*
X0274556Y0022000D01*
X0274556Y0029000D02*
X0274556Y0032000D01*
D13*
X0275056Y0110500D03*
X0285056Y0110500D03*
X0285056Y0120500D03*
X0275056Y0120500D03*
X0275056Y0130500D03*
X0285056Y0130500D03*
D14*
X0076800Y0125731D03*
X0066800Y0131131D03*
X0076800Y0136531D03*
X0066800Y0142031D03*
X0076800Y0147431D03*
X0066800Y0152831D03*
X0076800Y0158331D03*
X0066800Y0163731D03*
X0076800Y0169131D03*
X0066800Y0174631D03*
X0076800Y0180031D03*
X0066800Y0120231D03*
X0076800Y0093131D03*
X0076800Y0082231D03*
X0066800Y0076831D03*
X0076800Y0071331D03*
X0066800Y0065931D03*
X0076800Y0060531D03*
X0066800Y0055031D03*
X0076800Y0049631D03*
D15*
X0066800Y0087631D03*
X0066800Y0098531D03*
X0076800Y0103931D03*
X0066800Y0109431D03*
X0076800Y0114831D03*
D16*
X0071800Y0022231D03*
X0071800Y0207431D03*
D17*
X0213217Y0164043D03*
X0253217Y0164043D03*
D18*
X0203198Y0127106D03*
X0200639Y0127106D03*
X0198080Y0127106D03*
X0195520Y0127106D03*
X0192961Y0127106D03*
X0190402Y0127106D03*
X0187843Y0127106D03*
X0185284Y0127106D03*
X0182725Y0127106D03*
X0180166Y0127106D03*
X0177607Y0127106D03*
X0175048Y0127106D03*
X0175048Y0104131D03*
X0177607Y0104131D03*
X0180166Y0104131D03*
X0182725Y0104131D03*
X0185284Y0104131D03*
X0187843Y0104131D03*
X0190402Y0104131D03*
X0192961Y0104131D03*
X0195520Y0104131D03*
X0198080Y0104131D03*
X0200639Y0104131D03*
X0203198Y0104131D03*
D19*
X0221780Y0098689D03*
X0226780Y0098689D03*
X0231780Y0098689D03*
X0236780Y0098689D03*
X0236780Y0119161D03*
X0231780Y0119161D03*
X0226780Y0119161D03*
X0221780Y0119161D03*
D20*
X0221603Y0136484D03*
X0229083Y0136484D03*
X0194438Y0158138D03*
X0186957Y0158138D03*
X0213729Y0081366D03*
X0221209Y0081366D03*
D21*
X0235580Y0081366D03*
X0246603Y0081366D03*
X0247391Y0136484D03*
X0258414Y0136484D03*
D22*
X0256839Y0116602D03*
X0256839Y0109122D03*
D23*
X0158020Y0090480D03*
X0158020Y0085480D03*
X0158020Y0080480D03*
X0158020Y0075480D03*
X0158020Y0070480D03*
X0158020Y0065480D03*
X0158020Y0060480D03*
X0158020Y0055480D03*
X0158020Y0050480D03*
X0158020Y0045480D03*
X0118650Y0045480D03*
X0118650Y0050480D03*
X0118650Y0055480D03*
X0118650Y0060480D03*
X0118650Y0065480D03*
X0118650Y0070480D03*
X0118650Y0075480D03*
X0118650Y0080480D03*
X0118650Y0085480D03*
X0118650Y0090480D03*
D24*
X0120954Y0136091D03*
X0125954Y0136091D03*
X0130954Y0136091D03*
X0135954Y0136091D03*
X0140954Y0136091D03*
X0145954Y0136091D03*
X0150954Y0136091D03*
X0155954Y0136091D03*
X0160954Y0136091D03*
X0165954Y0136091D03*
X0165954Y0175461D03*
X0160954Y0175461D03*
X0155954Y0175461D03*
X0150954Y0175461D03*
X0145954Y0175461D03*
X0140954Y0175461D03*
X0135954Y0175461D03*
X0130954Y0175461D03*
X0125954Y0175461D03*
X0120954Y0175461D03*
D25*
X0273769Y0079004D03*
X0273769Y0071130D03*
X0273769Y0063256D03*
X0273769Y0055382D03*
D26*
X0281249Y0047508D03*
D27*
X0252902Y0088059D03*
X0243847Y0097114D03*
X0238335Y0144358D03*
X0267076Y0164831D03*
X0219438Y0176248D03*
X0200540Y0175854D03*
X0203296Y0157744D03*
X0175343Y0151839D03*
X0162351Y0129791D03*
X0152902Y0123098D03*
X0161564Y0120736D03*
X0140698Y0149083D03*
X0130068Y0149083D03*
X0101328Y0164831D03*
X0091091Y0132941D03*
X0100540Y0121917D03*
X0099359Y0109713D03*
X0101328Y0090028D03*
X0091091Y0069555D03*
X0084398Y0060894D03*
X0094635Y0057350D03*
X0128493Y0069555D03*
X0145422Y0058925D03*
X0170225Y0076248D03*
X0103296Y0025067D03*
X0141485Y0182154D03*
D28*
X0133456Y0168900D03*
X0122656Y0168900D03*
X0149656Y0156300D03*
X0166756Y0162600D03*
X0187456Y0150900D03*
X0187456Y0139200D03*
X0191056Y0133800D03*
X0180256Y0122100D03*
X0174856Y0122100D03*
X0190156Y0116700D03*
X0185656Y0109500D03*
X0173056Y0109500D03*
X0162256Y0107700D03*
X0153256Y0115800D03*
X0137956Y0115800D03*
X0130756Y0119400D03*
X0119956Y0128400D03*
X0128956Y0108600D03*
X0120856Y0100500D03*
X0120856Y0095100D03*
X0111856Y0081600D03*
X0124456Y0077100D03*
X0137956Y0080700D03*
X0151456Y0080700D03*
X0170356Y0092400D03*
X0177556Y0086100D03*
X0190156Y0073500D03*
X0200956Y0073500D03*
X0171256Y0060000D03*
X0165856Y0049200D03*
X0131656Y0060900D03*
X0108256Y0057300D03*
X0104656Y0045600D03*
X0087556Y0042900D03*
X0147856Y0100500D03*
X0215356Y0113100D03*
X0217156Y0100500D03*
X0173056Y0179700D03*
X0170356Y0186900D03*
X0176656Y0186900D03*
X0209056Y0185100D03*
X0236056Y0190500D03*
M02*
