G75*
%MOIN*%
%OFA0B0*%
%FSLAX25Y25*%
%IPPOS*%
%LPD*%
%AMOC8*
5,1,8,0,0,1.08239X$1,22.5*
%
%ADD10C,0.00300*%
%ADD11C,0.12998*%
%ADD12C,0.06140*%
%ADD13C,0.06400*%
%ADD14OC8,0.06502*%
%ADD15OC8,0.06400*%
%ADD16OC8,0.06975*%
%ADD17C,0.13400*%
%ADD18R,0.01600X0.04300*%
%ADD19R,0.05550X0.05550*%
%ADD20C,0.07880*%
%ADD21C,0.06000*%
%ADD22C,0.04362*%
%ADD23R,0.04362X0.04362*%
D10*
X0103505Y0203529D02*
X0104906Y0203529D01*
X0103855Y0203529D02*
X0103855Y0204930D01*
X0103505Y0204930D02*
X0102804Y0204230D01*
X0103505Y0203529D01*
X0103505Y0204930D02*
X0104906Y0204930D01*
X0104556Y0205739D02*
X0104906Y0206089D01*
X0104906Y0207140D01*
X0102804Y0207140D01*
X0102804Y0206089D01*
X0103154Y0205739D01*
X0104556Y0205739D01*
X0104556Y0207949D02*
X0104906Y0208299D01*
X0104906Y0209000D01*
X0104556Y0209350D01*
X0103855Y0209000D02*
X0103855Y0208299D01*
X0104205Y0207949D01*
X0104556Y0207949D01*
X0103855Y0209000D02*
X0103505Y0209350D01*
X0103154Y0209350D01*
X0102804Y0209000D01*
X0102804Y0208299D01*
X0103154Y0207949D01*
X0112804Y0207640D02*
X0112804Y0206589D01*
X0113154Y0206239D01*
X0113855Y0206239D01*
X0114205Y0206589D01*
X0114205Y0207640D01*
X0114205Y0206940D02*
X0114906Y0206239D01*
X0114906Y0205430D02*
X0112804Y0205430D01*
X0112804Y0204029D01*
X0112804Y0203220D02*
X0112804Y0201819D01*
X0113855Y0202520D02*
X0113855Y0203220D01*
X0114906Y0203220D02*
X0112804Y0203220D01*
X0113855Y0204730D02*
X0113855Y0205430D01*
X0114906Y0205430D02*
X0114906Y0204029D01*
X0114906Y0207640D02*
X0112804Y0207640D01*
X0113505Y0208449D02*
X0114906Y0208449D01*
X0113855Y0208449D02*
X0113855Y0209850D01*
X0113505Y0209850D02*
X0114906Y0209850D01*
X0113505Y0209850D02*
X0112804Y0209149D01*
X0113505Y0208449D01*
X0122804Y0208500D02*
X0122804Y0207799D01*
X0123154Y0207449D01*
X0123855Y0207449D02*
X0123855Y0208149D01*
X0123855Y0207449D02*
X0124556Y0207449D01*
X0124906Y0207799D01*
X0124906Y0208500D01*
X0124556Y0208850D01*
X0123154Y0208850D01*
X0122804Y0208500D01*
X0122804Y0206640D02*
X0124906Y0205239D01*
X0122804Y0205239D01*
X0122804Y0204430D02*
X0122804Y0203379D01*
X0123154Y0203029D01*
X0124556Y0203029D01*
X0124906Y0203379D01*
X0124906Y0204430D01*
X0122804Y0204430D01*
X0122804Y0206640D02*
X0124906Y0206640D01*
D11*
X0284556Y0150500D03*
D12*
X0274556Y0199065D02*
X0274556Y0201935D01*
X0274556Y0209065D02*
X0274556Y0211935D01*
X0264556Y0211935D02*
X0264556Y0209065D01*
X0264556Y0201935D02*
X0264556Y0199065D01*
X0254556Y0199065D02*
X0254556Y0201935D01*
X0254556Y0209065D02*
X0254556Y0211935D01*
X0244556Y0211935D02*
X0244556Y0209065D01*
X0244556Y0201935D02*
X0244556Y0199065D01*
X0234556Y0199065D02*
X0234556Y0201935D01*
X0234556Y0209065D02*
X0234556Y0211935D01*
X0224556Y0211935D02*
X0224556Y0209065D01*
X0224556Y0201935D02*
X0224556Y0199065D01*
X0214556Y0199065D02*
X0214556Y0201935D01*
X0214556Y0209065D02*
X0214556Y0211935D01*
X0204556Y0211935D02*
X0204556Y0209065D01*
X0204556Y0201935D02*
X0204556Y0199065D01*
X0188556Y0199065D02*
X0188556Y0201935D01*
X0188556Y0209065D02*
X0188556Y0211935D01*
X0178556Y0211935D02*
X0178556Y0209065D01*
X0178556Y0201935D02*
X0178556Y0199065D01*
X0168556Y0199065D02*
X0168556Y0201935D01*
X0168556Y0209065D02*
X0168556Y0211935D01*
X0158556Y0211935D02*
X0158556Y0209065D01*
X0158556Y0201935D02*
X0158556Y0199065D01*
X0148556Y0199065D02*
X0148556Y0201935D01*
X0148556Y0209065D02*
X0148556Y0211935D01*
X0138556Y0211935D02*
X0138556Y0209065D01*
X0138556Y0201935D02*
X0138556Y0199065D01*
X0128556Y0199065D02*
X0128556Y0201935D01*
X0128556Y0209065D02*
X0128556Y0211935D01*
X0118556Y0211935D02*
X0118556Y0209065D01*
X0118556Y0201935D02*
X0118556Y0199065D01*
X0108556Y0199065D02*
X0108556Y0201935D01*
X0108556Y0209065D02*
X0108556Y0211935D01*
X0098556Y0211935D02*
X0098556Y0209065D01*
X0098556Y0201935D02*
X0098556Y0199065D01*
X0134556Y0031935D02*
X0134556Y0029065D01*
X0134556Y0021935D02*
X0134556Y0019065D01*
X0144556Y0019065D02*
X0144556Y0021935D01*
X0144556Y0029065D02*
X0144556Y0031935D01*
X0154556Y0031935D02*
X0154556Y0029065D01*
X0154556Y0021935D02*
X0154556Y0019065D01*
X0164556Y0019065D02*
X0164556Y0021935D01*
X0164556Y0029065D02*
X0164556Y0031935D01*
X0174556Y0031935D02*
X0174556Y0029065D01*
X0174556Y0021935D02*
X0174556Y0019065D01*
X0184556Y0019065D02*
X0184556Y0021935D01*
X0184556Y0029065D02*
X0184556Y0031935D01*
X0194556Y0031935D02*
X0194556Y0029065D01*
X0194556Y0021935D02*
X0194556Y0019065D01*
X0204556Y0019065D02*
X0204556Y0021935D01*
X0204556Y0029065D02*
X0204556Y0031935D01*
D13*
X0224556Y0032000D02*
X0224556Y0029000D01*
X0224556Y0022000D02*
X0224556Y0019000D01*
X0234556Y0019000D02*
X0234556Y0022000D01*
X0234556Y0029000D02*
X0234556Y0032000D01*
X0244556Y0032000D02*
X0244556Y0029000D01*
X0244556Y0022000D02*
X0244556Y0019000D01*
X0254556Y0019000D02*
X0254556Y0022000D01*
X0254556Y0029000D02*
X0254556Y0032000D01*
X0264556Y0032000D02*
X0264556Y0029000D01*
X0264556Y0022000D02*
X0264556Y0019000D01*
X0274556Y0019000D02*
X0274556Y0022000D01*
X0274556Y0029000D02*
X0274556Y0032000D01*
D14*
X0275056Y0110500D03*
X0285056Y0110500D03*
X0285056Y0120500D03*
X0275056Y0120500D03*
X0275056Y0130500D03*
X0285056Y0130500D03*
D15*
X0076800Y0125731D03*
X0066800Y0131131D03*
X0076800Y0136531D03*
X0066800Y0142031D03*
X0076800Y0147431D03*
X0066800Y0152831D03*
X0076800Y0158331D03*
X0066800Y0163731D03*
X0076800Y0169131D03*
X0066800Y0174631D03*
X0076800Y0180031D03*
X0066800Y0120231D03*
X0076800Y0093131D03*
X0076800Y0082231D03*
X0066800Y0076831D03*
X0076800Y0071331D03*
X0066800Y0065931D03*
X0076800Y0060531D03*
X0066800Y0055031D03*
X0076800Y0049631D03*
D16*
X0066800Y0087631D03*
X0066800Y0098531D03*
X0076800Y0103931D03*
X0066800Y0109431D03*
X0076800Y0114831D03*
D17*
X0071800Y0022231D03*
X0071800Y0207431D03*
D18*
G36*
X0119497Y0169830D02*
X0119502Y0168231D01*
X0115203Y0168216D01*
X0115198Y0169815D01*
X0119497Y0169830D01*
G37*
G36*
X0119506Y0167271D02*
X0119511Y0165672D01*
X0115212Y0165657D01*
X0115207Y0167256D01*
X0119506Y0167271D01*
G37*
G36*
X0119515Y0164712D02*
X0119520Y0163113D01*
X0115221Y0163098D01*
X0115216Y0164697D01*
X0119515Y0164712D01*
G37*
G36*
X0119524Y0162153D02*
X0119529Y0160554D01*
X0115230Y0160539D01*
X0115225Y0162138D01*
X0119524Y0162153D01*
G37*
G36*
X0119533Y0159594D02*
X0119538Y0157995D01*
X0115239Y0157980D01*
X0115234Y0159579D01*
X0119533Y0159594D01*
G37*
G36*
X0119542Y0157035D02*
X0119547Y0155436D01*
X0115248Y0155421D01*
X0115243Y0157020D01*
X0119542Y0157035D01*
G37*
G36*
X0119551Y0154476D02*
X0119556Y0152877D01*
X0115257Y0152862D01*
X0115252Y0154461D01*
X0119551Y0154476D01*
G37*
G36*
X0119560Y0151917D02*
X0119565Y0150318D01*
X0115266Y0150303D01*
X0115261Y0151902D01*
X0119560Y0151917D01*
G37*
G36*
X0119569Y0149357D02*
X0119574Y0147758D01*
X0115275Y0147743D01*
X0115270Y0149342D01*
X0119569Y0149357D01*
G37*
G36*
X0119578Y0146798D02*
X0119583Y0145199D01*
X0115284Y0145184D01*
X0115279Y0146783D01*
X0119578Y0146798D01*
G37*
G36*
X0119586Y0144239D02*
X0119591Y0142640D01*
X0115292Y0142625D01*
X0115287Y0144224D01*
X0119586Y0144239D01*
G37*
G36*
X0119595Y0141680D02*
X0119600Y0140081D01*
X0115301Y0140066D01*
X0115296Y0141665D01*
X0119595Y0141680D01*
G37*
G36*
X0142570Y0141761D02*
X0142575Y0140162D01*
X0138276Y0140147D01*
X0138271Y0141746D01*
X0142570Y0141761D01*
G37*
G36*
X0142561Y0144320D02*
X0142566Y0142721D01*
X0138267Y0142706D01*
X0138262Y0144305D01*
X0142561Y0144320D01*
G37*
G36*
X0142552Y0146879D02*
X0142557Y0145280D01*
X0138258Y0145265D01*
X0138253Y0146864D01*
X0142552Y0146879D01*
G37*
G36*
X0142543Y0149438D02*
X0142548Y0147839D01*
X0138249Y0147824D01*
X0138244Y0149423D01*
X0142543Y0149438D01*
G37*
G36*
X0142534Y0151997D02*
X0142539Y0150398D01*
X0138240Y0150383D01*
X0138235Y0151982D01*
X0142534Y0151997D01*
G37*
G36*
X0142525Y0154556D02*
X0142530Y0152957D01*
X0138231Y0152942D01*
X0138226Y0154541D01*
X0142525Y0154556D01*
G37*
G36*
X0142516Y0157115D02*
X0142521Y0155516D01*
X0138222Y0155501D01*
X0138217Y0157100D01*
X0142516Y0157115D01*
G37*
G36*
X0142508Y0159674D02*
X0142513Y0158075D01*
X0138214Y0158060D01*
X0138209Y0159659D01*
X0142508Y0159674D01*
G37*
G36*
X0142499Y0162233D02*
X0142504Y0160634D01*
X0138205Y0160619D01*
X0138200Y0162218D01*
X0142499Y0162233D01*
G37*
G36*
X0142490Y0164792D02*
X0142495Y0163193D01*
X0138196Y0163178D01*
X0138191Y0164777D01*
X0142490Y0164792D01*
G37*
G36*
X0142481Y0167351D02*
X0142486Y0165752D01*
X0138187Y0165737D01*
X0138182Y0167336D01*
X0142481Y0167351D01*
G37*
G36*
X0142472Y0169910D02*
X0142477Y0168311D01*
X0138178Y0168296D01*
X0138173Y0169895D01*
X0142472Y0169910D01*
G37*
D19*
X0273769Y0079004D03*
X0273769Y0071130D03*
X0273769Y0063256D03*
X0273769Y0055382D03*
D20*
X0266288Y0086878D03*
D21*
X0093672Y0179122D02*
X0090872Y0179122D01*
X0090872Y0189122D02*
X0093672Y0189122D01*
D22*
X0116288Y0134516D03*
X0171800Y0148295D03*
X0182824Y0156957D03*
X0222194Y0151839D03*
X0258414Y0151445D03*
X0258414Y0181760D03*
D23*
X0247784Y0149870D03*
X0213139Y0131760D03*
X0208808Y0111681D03*
X0167469Y0111681D03*
X0159202Y0111681D03*
X0157627Y0103807D03*
X0147391Y0100264D03*
X0137942Y0108138D03*
X0120619Y0108138D03*
X0100934Y0100264D03*
X0092272Y0081760D03*
X0092666Y0072311D03*
X0100934Y0068768D03*
X0123375Y0058531D03*
X0137942Y0072311D03*
X0133217Y0079398D03*
X0162745Y0086878D03*
X0182036Y0072311D03*
X0192272Y0079398D03*
X0197391Y0075854D03*
X0172587Y0058531D03*
X0167469Y0130972D03*
X0159989Y0130972D03*
X0148178Y0139240D03*
X0150146Y0145146D03*
X0155658Y0148689D03*
X0141485Y0133335D03*
X0124950Y0146720D03*
X0133217Y0165224D03*
X0124950Y0178217D03*
X0152902Y0166799D03*
X0159202Y0175461D03*
M02*
