G75*
%MOIN*%
%OFA0B0*%
%FSLAX25Y25*%
%IPPOS*%
%LPD*%
%AMOC8*
5,1,8,0,0,1.08239X$1,22.5*
%
%ADD10C,0.05740*%
%ADD11C,0.06000*%
%ADD12OC8,0.06102*%
%ADD13OC8,0.06000*%
%ADD14OC8,0.06575*%
%ADD15R,0.08661X0.02362*%
%ADD16R,0.05906X0.05118*%
%ADD17R,0.07087X0.06299*%
%ADD18R,0.05118X0.05906*%
%ADD19R,0.02362X0.05906*%
%ADD20R,0.05150X0.05150*%
%ADD21C,0.05600*%
%ADD22R,0.07874X0.06299*%
%ADD23C,0.01000*%
%ADD24C,0.01600*%
%ADD25C,0.03962*%
%ADD26R,0.03962X0.03962*%
D10*
X0134556Y0019065D02*
X0134556Y0021935D01*
X0134556Y0029065D02*
X0134556Y0031935D01*
X0144556Y0031935D02*
X0144556Y0029065D01*
X0144556Y0021935D02*
X0144556Y0019065D01*
X0154556Y0019065D02*
X0154556Y0021935D01*
X0154556Y0029065D02*
X0154556Y0031935D01*
X0164556Y0031935D02*
X0164556Y0029065D01*
X0164556Y0021935D02*
X0164556Y0019065D01*
X0174556Y0019065D02*
X0174556Y0021935D01*
X0174556Y0029065D02*
X0174556Y0031935D01*
X0184556Y0031935D02*
X0184556Y0029065D01*
X0184556Y0021935D02*
X0184556Y0019065D01*
X0194556Y0019065D02*
X0194556Y0021935D01*
X0194556Y0029065D02*
X0194556Y0031935D01*
X0204556Y0031935D02*
X0204556Y0029065D01*
X0204556Y0021935D02*
X0204556Y0019065D01*
X0204556Y0199065D02*
X0204556Y0201935D01*
X0204556Y0209065D02*
X0204556Y0211935D01*
X0214556Y0211935D02*
X0214556Y0209065D01*
X0214556Y0201935D02*
X0214556Y0199065D01*
X0224556Y0199065D02*
X0224556Y0201935D01*
X0224556Y0209065D02*
X0224556Y0211935D01*
X0234556Y0211935D02*
X0234556Y0209065D01*
X0234556Y0201935D02*
X0234556Y0199065D01*
X0244556Y0199065D02*
X0244556Y0201935D01*
X0244556Y0209065D02*
X0244556Y0211935D01*
X0254556Y0211935D02*
X0254556Y0209065D01*
X0254556Y0201935D02*
X0254556Y0199065D01*
X0264556Y0199065D02*
X0264556Y0201935D01*
X0264556Y0209065D02*
X0264556Y0211935D01*
X0274556Y0211935D02*
X0274556Y0209065D01*
X0274556Y0201935D02*
X0274556Y0199065D01*
X0188556Y0199065D02*
X0188556Y0201935D01*
X0188556Y0209065D02*
X0188556Y0211935D01*
X0178556Y0211935D02*
X0178556Y0209065D01*
X0178556Y0201935D02*
X0178556Y0199065D01*
X0168556Y0199065D02*
X0168556Y0201935D01*
X0168556Y0209065D02*
X0168556Y0211935D01*
X0158556Y0211935D02*
X0158556Y0209065D01*
X0158556Y0201935D02*
X0158556Y0199065D01*
X0148556Y0199065D02*
X0148556Y0201935D01*
X0148556Y0209065D02*
X0148556Y0211935D01*
X0138556Y0211935D02*
X0138556Y0209065D01*
X0138556Y0201935D02*
X0138556Y0199065D01*
X0128556Y0199065D02*
X0128556Y0201935D01*
X0128556Y0209065D02*
X0128556Y0211935D01*
X0118556Y0211935D02*
X0118556Y0209065D01*
X0118556Y0201935D02*
X0118556Y0199065D01*
X0108556Y0199065D02*
X0108556Y0201935D01*
X0108556Y0209065D02*
X0108556Y0211935D01*
X0098556Y0211935D02*
X0098556Y0209065D01*
X0098556Y0201935D02*
X0098556Y0199065D01*
D11*
X0224556Y0032000D02*
X0224556Y0029000D01*
X0224556Y0022000D02*
X0224556Y0019000D01*
X0234556Y0019000D02*
X0234556Y0022000D01*
X0234556Y0029000D02*
X0234556Y0032000D01*
X0244556Y0032000D02*
X0244556Y0029000D01*
X0244556Y0022000D02*
X0244556Y0019000D01*
X0254556Y0019000D02*
X0254556Y0022000D01*
X0254556Y0029000D02*
X0254556Y0032000D01*
X0264556Y0032000D02*
X0264556Y0029000D01*
X0264556Y0022000D02*
X0264556Y0019000D01*
X0274556Y0019000D02*
X0274556Y0022000D01*
X0274556Y0029000D02*
X0274556Y0032000D01*
D12*
X0275056Y0110500D03*
X0285056Y0110500D03*
X0285056Y0120500D03*
X0275056Y0120500D03*
X0275056Y0130500D03*
X0285056Y0130500D03*
D13*
X0076800Y0125731D03*
X0066800Y0131131D03*
X0076800Y0136531D03*
X0066800Y0142031D03*
X0076800Y0147431D03*
X0066800Y0152831D03*
X0076800Y0158331D03*
X0066800Y0163731D03*
X0076800Y0169131D03*
X0066800Y0174631D03*
X0076800Y0180031D03*
X0066800Y0120231D03*
X0076800Y0093131D03*
X0076800Y0082231D03*
X0066800Y0076831D03*
X0076800Y0071331D03*
X0066800Y0065931D03*
X0076800Y0060531D03*
X0066800Y0055031D03*
X0076800Y0049631D03*
D14*
X0066800Y0087631D03*
X0066800Y0098531D03*
X0076800Y0103931D03*
X0066800Y0109431D03*
X0076800Y0114831D03*
D15*
X0210776Y0159299D03*
X0210776Y0164299D03*
X0210776Y0169299D03*
X0210776Y0174299D03*
X0231249Y0174299D03*
X0231249Y0169299D03*
X0231249Y0164299D03*
X0231249Y0159299D03*
D16*
X0248965Y0163453D03*
X0248965Y0170933D03*
X0195422Y0173295D03*
X0195422Y0165815D03*
X0181249Y0166209D03*
X0181249Y0173689D03*
D17*
X0166288Y0171917D03*
X0166288Y0160894D03*
X0271800Y0159713D03*
X0271800Y0170736D03*
D18*
X0199162Y0148689D03*
X0191682Y0148689D03*
D19*
X0192410Y0124673D03*
X0187410Y0124673D03*
X0182410Y0124673D03*
X0177410Y0124673D03*
X0172410Y0124673D03*
X0167410Y0124673D03*
X0153355Y0124673D03*
X0148355Y0124673D03*
X0143355Y0124673D03*
X0138355Y0124673D03*
X0133355Y0124673D03*
X0128355Y0124673D03*
X0123355Y0124673D03*
X0118355Y0124673D03*
X0113355Y0124673D03*
X0108355Y0124673D03*
X0108355Y0085303D03*
X0113355Y0085303D03*
X0118355Y0085303D03*
X0123355Y0085303D03*
X0128355Y0085303D03*
X0133355Y0085303D03*
X0138355Y0085303D03*
X0143355Y0085303D03*
X0148355Y0085303D03*
X0153355Y0085303D03*
X0167410Y0085303D03*
X0172410Y0085303D03*
X0177410Y0085303D03*
X0182410Y0085303D03*
X0187410Y0085303D03*
X0192410Y0085303D03*
X0197410Y0085303D03*
X0202410Y0085303D03*
X0207410Y0085303D03*
X0212410Y0085303D03*
X0212410Y0124673D03*
X0207410Y0124673D03*
X0202410Y0124673D03*
X0197410Y0124673D03*
D20*
X0273769Y0079004D03*
X0273769Y0071130D03*
X0273769Y0063256D03*
X0273769Y0055382D03*
D21*
X0093672Y0179122D02*
X0090872Y0179122D01*
X0090872Y0189122D02*
X0093672Y0189122D01*
D22*
X0235186Y0108531D03*
X0235186Y0097508D03*
D23*
X0235186Y0108531D02*
X0226918Y0117980D01*
X0208414Y0117980D01*
X0207410Y0124673D01*
X0202410Y0124673D02*
X0198178Y0130579D01*
X0178099Y0130579D01*
X0176918Y0124673D01*
X0177410Y0124673D01*
X0172410Y0124673D02*
X0172194Y0124457D01*
X0172194Y0109319D01*
X0177410Y0104102D01*
X0177410Y0085303D01*
X0172410Y0085303D02*
X0172410Y0061504D01*
X0172587Y0058531D01*
X0181623Y0071543D02*
X0182410Y0072331D01*
X0182410Y0085303D01*
X0192410Y0085303D02*
X0192410Y0079535D01*
X0192272Y0079398D01*
X0192272Y0057744D01*
X0174556Y0040028D01*
X0174556Y0030500D01*
X0174856Y0030300D01*
X0174856Y0021300D01*
X0174556Y0020500D01*
X0164556Y0020500D02*
X0164556Y0030500D01*
X0155056Y0030300D02*
X0155056Y0021300D01*
X0154556Y0020500D01*
X0145156Y0021300D02*
X0144556Y0020500D01*
X0145156Y0021300D02*
X0145156Y0030300D01*
X0144556Y0030500D01*
X0135256Y0030300D02*
X0134556Y0030500D01*
X0135256Y0030300D02*
X0135256Y0021300D01*
X0134556Y0020500D01*
X0154556Y0030500D02*
X0155056Y0030300D01*
X0123375Y0058531D02*
X0123355Y0062055D01*
X0123355Y0085303D01*
X0118355Y0085303D02*
X0118355Y0100953D01*
X0113532Y0105776D01*
X0113532Y0124496D01*
X0113355Y0124673D01*
X0108355Y0124673D02*
X0108414Y0125520D01*
X0108414Y0169161D01*
X0120619Y0181760D01*
X0242272Y0181760D01*
X0244556Y0195461D01*
X0244556Y0200500D01*
X0245056Y0201300D01*
X0245056Y0210300D01*
X0244556Y0210500D01*
X0254556Y0210500D02*
X0254956Y0210300D01*
X0254956Y0201300D01*
X0254556Y0200500D01*
X0254556Y0194043D01*
X0250540Y0179398D01*
X0160776Y0179398D01*
X0159202Y0175461D01*
X0166288Y0171917D02*
X0173093Y0172723D01*
X0176918Y0152232D01*
X0191682Y0148689D01*
X0199162Y0148689D02*
X0203690Y0164437D01*
X0210776Y0164299D01*
X0210776Y0169299D02*
X0208808Y0173098D01*
X0210776Y0174299D01*
X0208808Y0173098D02*
X0195422Y0173295D01*
X0181249Y0173689D01*
X0173093Y0172723D01*
X0166288Y0171917D02*
X0152902Y0166799D01*
X0133217Y0165224D02*
X0133217Y0130579D01*
X0137548Y0130579D01*
X0138335Y0129791D01*
X0138335Y0124693D01*
X0138355Y0124673D01*
X0143355Y0124673D02*
X0143454Y0124575D01*
X0143454Y0112469D01*
X0139123Y0108138D01*
X0137942Y0108138D01*
X0148355Y0113079D02*
X0157627Y0103807D01*
X0159202Y0111681D02*
X0167469Y0111681D01*
X0182430Y0118374D02*
X0202410Y0098394D01*
X0202410Y0085303D01*
X0197410Y0085303D02*
X0197410Y0077055D01*
X0197391Y0075854D01*
X0212410Y0085303D02*
X0208808Y0111681D01*
X0212410Y0124673D02*
X0213139Y0131760D01*
X0224556Y0137272D02*
X0235973Y0120500D01*
X0275056Y0120500D01*
X0279674Y0125461D02*
X0285056Y0120500D01*
X0279674Y0125461D02*
X0236367Y0125461D01*
X0226918Y0139240D01*
X0148178Y0139240D01*
X0153690Y0137272D02*
X0224556Y0137272D01*
X0229280Y0141602D02*
X0154083Y0141602D01*
X0150146Y0145146D01*
X0155658Y0148689D02*
X0159202Y0143571D01*
X0230855Y0143571D01*
X0236761Y0136484D01*
X0280068Y0136484D01*
X0285056Y0130500D01*
X0275056Y0130500D02*
X0237548Y0130500D01*
X0229280Y0141602D01*
X0239517Y0158138D02*
X0247784Y0149870D01*
X0239517Y0158138D02*
X0239517Y0169555D01*
X0237548Y0170343D01*
X0231249Y0174299D01*
X0231249Y0169299D02*
X0237548Y0170343D01*
X0231249Y0169299D02*
X0248965Y0170933D01*
X0271800Y0170736D01*
X0274556Y0200500D02*
X0274756Y0201300D01*
X0274756Y0210300D01*
X0274556Y0210500D01*
X0264856Y0210300D02*
X0264556Y0210500D01*
X0264856Y0210300D02*
X0264856Y0201300D01*
X0264556Y0200500D01*
X0224556Y0200500D02*
X0220619Y0184516D01*
X0119044Y0184516D01*
X0104871Y0170343D01*
X0104871Y0087272D01*
X0108355Y0085303D01*
X0113355Y0085303D02*
X0113355Y0054024D01*
X0111387Y0052055D01*
X0108020Y0049870D01*
X0077706Y0049476D01*
X0078099Y0049870D01*
X0077039Y0049870D02*
X0076800Y0049631D01*
X0077039Y0049870D02*
X0108020Y0049870D01*
X0100934Y0068768D02*
X0100934Y0085303D01*
X0098965Y0087272D01*
X0067159Y0087272D01*
X0066800Y0087631D01*
X0076800Y0082231D02*
X0077271Y0081760D01*
X0092272Y0081760D01*
X0092666Y0072311D02*
X0076800Y0071331D01*
X0100934Y0100264D02*
X0100934Y0175461D01*
X0111957Y0186484D01*
X0209989Y0186484D01*
X0214556Y0200500D01*
X0138856Y0201300D02*
X0138556Y0200500D01*
X0138856Y0201300D02*
X0138856Y0210300D01*
X0138556Y0210500D01*
X0128956Y0210300D02*
X0128556Y0210500D01*
X0128956Y0210300D02*
X0128956Y0201300D01*
X0128556Y0200500D01*
X0119056Y0201300D02*
X0119056Y0210300D01*
X0118556Y0210500D01*
X0109156Y0210300D02*
X0108556Y0210500D01*
X0109156Y0210300D02*
X0109156Y0201300D01*
X0108556Y0200500D01*
X0099256Y0201300D02*
X0098556Y0200500D01*
X0099256Y0201300D02*
X0099256Y0210300D01*
X0098556Y0210500D01*
X0118556Y0200500D02*
X0119056Y0201300D01*
X0092272Y0189122D02*
X0080461Y0189122D01*
X0076800Y0180031D01*
X0124950Y0178217D02*
X0124950Y0146720D01*
X0141485Y0133335D02*
X0151328Y0133335D01*
X0153690Y0137272D01*
X0159989Y0130972D02*
X0153355Y0124673D01*
X0153690Y0125402D01*
X0148355Y0124673D02*
X0148355Y0113079D01*
X0133355Y0124673D02*
X0128355Y0124673D01*
X0123375Y0124654D02*
X0123375Y0116406D01*
X0143355Y0096425D01*
X0143355Y0085303D01*
X0138355Y0085303D02*
X0138355Y0072331D01*
X0137942Y0072311D01*
X0133217Y0079398D02*
X0133217Y0085165D01*
X0133355Y0085303D01*
X0147391Y0100264D02*
X0149359Y0100264D01*
X0153690Y0095933D01*
X0153690Y0085638D01*
X0153355Y0085303D01*
X0162745Y0086878D02*
X0167410Y0085303D01*
X0182036Y0072311D02*
X0181623Y0071543D01*
X0204556Y0030500D02*
X0204556Y0020500D01*
X0224356Y0021300D02*
X0224556Y0020500D01*
X0224356Y0021300D02*
X0224356Y0030300D01*
X0224556Y0030500D01*
X0234556Y0030500D02*
X0235156Y0030300D01*
X0235156Y0021300D01*
X0234556Y0020500D01*
X0254556Y0020500D02*
X0254956Y0021300D01*
X0254956Y0030300D01*
X0254556Y0030500D01*
X0264556Y0030500D02*
X0264856Y0030300D01*
X0264856Y0021300D01*
X0264556Y0020500D01*
X0274556Y0020500D02*
X0274756Y0021300D01*
X0274756Y0030300D01*
X0274556Y0030500D01*
X0182430Y0118374D02*
X0182430Y0124654D01*
X0182410Y0124673D01*
X0167410Y0124673D02*
X0167469Y0130972D01*
X0123375Y0124654D02*
X0123355Y0124673D01*
X0118355Y0124673D02*
X0118355Y0110402D01*
X0120619Y0108138D01*
D24*
X0029856Y0015800D02*
X0029856Y0215200D01*
X0063589Y0215200D01*
X0062758Y0214369D01*
X0061270Y0211792D01*
X0060500Y0208918D01*
X0060500Y0205943D01*
X0061270Y0203069D01*
X0062758Y0200492D01*
X0064862Y0198388D01*
X0067438Y0196901D01*
X0070312Y0196131D01*
X0073288Y0196131D01*
X0076162Y0196901D01*
X0078738Y0198388D01*
X0080842Y0200492D01*
X0082330Y0203069D01*
X0083100Y0205943D01*
X0083100Y0208918D01*
X0082330Y0211792D01*
X0080842Y0214369D01*
X0080011Y0215200D01*
X0095499Y0215200D01*
X0094766Y0214467D01*
X0094086Y0212824D01*
X0094086Y0208176D01*
X0094766Y0206533D01*
X0095799Y0205500D01*
X0094766Y0204467D01*
X0094086Y0202824D01*
X0094086Y0198176D01*
X0094766Y0196533D01*
X0096024Y0195275D01*
X0097667Y0194595D01*
X0099445Y0194595D01*
X0101088Y0195275D01*
X0102345Y0196533D01*
X0103026Y0198176D01*
X0103026Y0202824D01*
X0102345Y0204467D01*
X0101356Y0205457D01*
X0101356Y0205543D01*
X0102345Y0206533D01*
X0103026Y0208176D01*
X0103026Y0212824D01*
X0102345Y0214467D01*
X0101613Y0215200D01*
X0105499Y0215200D01*
X0104766Y0214467D01*
X0104086Y0212824D01*
X0104086Y0208176D01*
X0104766Y0206533D01*
X0105799Y0205500D01*
X0104766Y0204467D01*
X0104086Y0202824D01*
X0104086Y0198176D01*
X0104766Y0196533D01*
X0106024Y0195275D01*
X0107667Y0194595D01*
X0109445Y0194595D01*
X0111088Y0195275D01*
X0112345Y0196533D01*
X0113026Y0198176D01*
X0113026Y0202824D01*
X0112345Y0204467D01*
X0111313Y0205500D01*
X0112345Y0206533D01*
X0113026Y0208176D01*
X0113026Y0212824D01*
X0112345Y0214467D01*
X0111613Y0215200D01*
X0115499Y0215200D01*
X0114766Y0214467D01*
X0114086Y0212824D01*
X0114086Y0208176D01*
X0114766Y0206533D01*
X0115799Y0205500D01*
X0114766Y0204467D01*
X0114086Y0202824D01*
X0114086Y0198176D01*
X0114766Y0196533D01*
X0116024Y0195275D01*
X0117667Y0194595D01*
X0119445Y0194595D01*
X0121088Y0195275D01*
X0122345Y0196533D01*
X0123026Y0198176D01*
X0123026Y0202824D01*
X0122345Y0204467D01*
X0121313Y0205500D01*
X0122345Y0206533D01*
X0123026Y0208176D01*
X0123026Y0212824D01*
X0122345Y0214467D01*
X0121613Y0215200D01*
X0125216Y0215200D01*
X0124994Y0214977D01*
X0124562Y0214383D01*
X0124228Y0213728D01*
X0124001Y0213029D01*
X0123886Y0212303D01*
X0123886Y0210635D01*
X0128421Y0210635D01*
X0128421Y0210365D01*
X0128691Y0210365D01*
X0128691Y0210635D01*
X0133226Y0210635D01*
X0133226Y0212303D01*
X0133111Y0213029D01*
X0132884Y0213728D01*
X0132550Y0214383D01*
X0132118Y0214977D01*
X0131895Y0215200D01*
X0135499Y0215200D01*
X0134766Y0214467D01*
X0134086Y0212824D01*
X0134086Y0208176D01*
X0134766Y0206533D01*
X0135799Y0205500D01*
X0134766Y0204467D01*
X0134086Y0202824D01*
X0134086Y0198176D01*
X0134766Y0196533D01*
X0136024Y0195275D01*
X0137667Y0194595D01*
X0139445Y0194595D01*
X0141088Y0195275D01*
X0142345Y0196533D01*
X0143026Y0198176D01*
X0143026Y0202824D01*
X0142345Y0204467D01*
X0141313Y0205500D01*
X0142345Y0206533D01*
X0143026Y0208176D01*
X0143026Y0212824D01*
X0142345Y0214467D01*
X0141613Y0215200D01*
X0145499Y0215200D01*
X0144766Y0214467D01*
X0144086Y0212824D01*
X0144086Y0208176D01*
X0144766Y0206533D01*
X0145799Y0205500D01*
X0144766Y0204467D01*
X0144086Y0202824D01*
X0144086Y0198176D01*
X0144766Y0196533D01*
X0146024Y0195275D01*
X0147667Y0194595D01*
X0149445Y0194595D01*
X0151088Y0195275D01*
X0152345Y0196533D01*
X0153026Y0198176D01*
X0153026Y0202824D01*
X0152345Y0204467D01*
X0151313Y0205500D01*
X0152345Y0206533D01*
X0153026Y0208176D01*
X0153026Y0212824D01*
X0152345Y0214467D01*
X0151613Y0215200D01*
X0155499Y0215200D01*
X0154766Y0214467D01*
X0154086Y0212824D01*
X0154086Y0208176D01*
X0154766Y0206533D01*
X0155799Y0205500D01*
X0154766Y0204467D01*
X0154086Y0202824D01*
X0154086Y0198176D01*
X0154766Y0196533D01*
X0156024Y0195275D01*
X0157667Y0194595D01*
X0159445Y0194595D01*
X0161088Y0195275D01*
X0162345Y0196533D01*
X0163026Y0198176D01*
X0163026Y0202824D01*
X0162345Y0204467D01*
X0161313Y0205500D01*
X0162345Y0206533D01*
X0163026Y0208176D01*
X0163026Y0212824D01*
X0162345Y0214467D01*
X0161613Y0215200D01*
X0165499Y0215200D01*
X0164766Y0214467D01*
X0164086Y0212824D01*
X0164086Y0208176D01*
X0164766Y0206533D01*
X0165799Y0205500D01*
X0164766Y0204467D01*
X0164086Y0202824D01*
X0164086Y0198176D01*
X0164766Y0196533D01*
X0166024Y0195275D01*
X0167667Y0194595D01*
X0169445Y0194595D01*
X0171088Y0195275D01*
X0172345Y0196533D01*
X0173026Y0198176D01*
X0173026Y0202824D01*
X0172345Y0204467D01*
X0171313Y0205500D01*
X0172345Y0206533D01*
X0173026Y0208176D01*
X0173026Y0212824D01*
X0172345Y0214467D01*
X0171613Y0215200D01*
X0175499Y0215200D01*
X0174766Y0214467D01*
X0174086Y0212824D01*
X0174086Y0208176D01*
X0174766Y0206533D01*
X0175799Y0205500D01*
X0174766Y0204467D01*
X0174086Y0202824D01*
X0174086Y0198176D01*
X0174766Y0196533D01*
X0176024Y0195275D01*
X0177667Y0194595D01*
X0179445Y0194595D01*
X0181088Y0195275D01*
X0182345Y0196533D01*
X0183026Y0198176D01*
X0183026Y0202824D01*
X0182345Y0204467D01*
X0181313Y0205500D01*
X0182345Y0206533D01*
X0183026Y0208176D01*
X0183026Y0212824D01*
X0182345Y0214467D01*
X0181613Y0215200D01*
X0185499Y0215200D01*
X0184766Y0214467D01*
X0184086Y0212824D01*
X0184086Y0208176D01*
X0184766Y0206533D01*
X0185799Y0205500D01*
X0184766Y0204467D01*
X0184086Y0202824D01*
X0184086Y0198176D01*
X0184766Y0196533D01*
X0186024Y0195275D01*
X0187667Y0194595D01*
X0189445Y0194595D01*
X0191088Y0195275D01*
X0192345Y0196533D01*
X0193026Y0198176D01*
X0193026Y0202824D01*
X0192345Y0204467D01*
X0191313Y0205500D01*
X0192345Y0206533D01*
X0193026Y0208176D01*
X0193026Y0212824D01*
X0192345Y0214467D01*
X0191613Y0215200D01*
X0201499Y0215200D01*
X0200766Y0214467D01*
X0200086Y0212824D01*
X0200086Y0208176D01*
X0200766Y0206533D01*
X0201799Y0205500D01*
X0200766Y0204467D01*
X0200086Y0202824D01*
X0200086Y0198176D01*
X0200766Y0196533D01*
X0202024Y0195275D01*
X0203667Y0194595D01*
X0205445Y0194595D01*
X0207088Y0195275D01*
X0208345Y0196533D01*
X0209026Y0198176D01*
X0209026Y0202824D01*
X0208345Y0204467D01*
X0207313Y0205500D01*
X0208345Y0206533D01*
X0209026Y0208176D01*
X0209026Y0212824D01*
X0208345Y0214467D01*
X0207613Y0215200D01*
X0211499Y0215200D01*
X0210766Y0214467D01*
X0210086Y0212824D01*
X0210086Y0208176D01*
X0210766Y0206533D01*
X0211799Y0205500D01*
X0210766Y0204467D01*
X0210086Y0202824D01*
X0210086Y0198176D01*
X0210766Y0196533D01*
X0210984Y0196315D01*
X0208465Y0188584D01*
X0111088Y0188584D01*
X0109857Y0187354D01*
X0100064Y0177561D01*
X0098834Y0176330D01*
X0098834Y0103845D01*
X0098290Y0103845D01*
X0097353Y0102908D01*
X0097353Y0097620D01*
X0098290Y0096683D01*
X0102771Y0096683D01*
X0102771Y0087824D01*
X0102615Y0087547D01*
X0102771Y0086985D01*
X0102771Y0086436D01*
X0101065Y0088141D01*
X0099835Y0089372D01*
X0079546Y0089372D01*
X0081400Y0091225D01*
X0081400Y0095036D01*
X0078705Y0097731D01*
X0074895Y0097731D01*
X0072200Y0095036D01*
X0072200Y0091225D01*
X0074054Y0089372D01*
X0071687Y0089372D01*
X0071687Y0089655D01*
X0068824Y0092518D01*
X0064776Y0092518D01*
X0061913Y0089655D01*
X0061913Y0085606D01*
X0064776Y0082743D01*
X0068824Y0082743D01*
X0071253Y0085172D01*
X0073236Y0085172D01*
X0072200Y0084136D01*
X0072200Y0080325D01*
X0074895Y0077631D01*
X0078705Y0077631D01*
X0080735Y0079660D01*
X0088691Y0079660D01*
X0088691Y0079116D01*
X0089629Y0078179D01*
X0094916Y0078179D01*
X0095854Y0079116D01*
X0095854Y0084404D01*
X0095086Y0085172D01*
X0098095Y0085172D01*
X0098834Y0084433D01*
X0098834Y0072349D01*
X0098290Y0072349D01*
X0097353Y0071412D01*
X0097353Y0066124D01*
X0098290Y0065187D01*
X0103578Y0065187D01*
X0104515Y0066124D01*
X0104515Y0071412D01*
X0103578Y0072349D01*
X0103034Y0072349D01*
X0103034Y0086039D01*
X0103081Y0085871D01*
X0103588Y0085584D01*
X0104001Y0085172D01*
X0104319Y0085172D01*
X0105574Y0084462D01*
X0105574Y0081688D01*
X0106511Y0080750D01*
X0110199Y0080750D01*
X0110855Y0081407D01*
X0111255Y0081007D01*
X0111255Y0054893D01*
X0110058Y0053696D01*
X0107399Y0051970D01*
X0080966Y0051970D01*
X0078705Y0054231D01*
X0074895Y0054231D01*
X0072200Y0051536D01*
X0072200Y0047725D01*
X0074895Y0045031D01*
X0078705Y0045031D01*
X0081095Y0047420D01*
X0107813Y0047767D01*
X0108434Y0047635D01*
X0108642Y0047770D01*
X0108890Y0047770D01*
X0108902Y0047781D01*
X0108918Y0047782D01*
X0109361Y0048236D01*
X0112008Y0049955D01*
X0112256Y0049955D01*
X0112715Y0050414D01*
X0113260Y0050767D01*
X0113311Y0051010D01*
X0114225Y0051924D01*
X0115455Y0053154D01*
X0115455Y0081007D01*
X0115855Y0081407D01*
X0116511Y0080750D01*
X0120199Y0080750D01*
X0120855Y0081407D01*
X0121255Y0081007D01*
X0121255Y0062918D01*
X0121250Y0062913D01*
X0121255Y0062113D01*
X0120731Y0062113D01*
X0119794Y0061175D01*
X0119794Y0055888D01*
X0120731Y0054950D01*
X0126019Y0054950D01*
X0126956Y0055888D01*
X0126956Y0061175D01*
X0126019Y0062113D01*
X0125455Y0062113D01*
X0125455Y0081007D01*
X0125855Y0081407D01*
X0126511Y0080750D01*
X0129636Y0080750D01*
X0129636Y0076754D01*
X0130573Y0075817D01*
X0135222Y0075817D01*
X0134361Y0074955D01*
X0134361Y0069667D01*
X0135298Y0068730D01*
X0140586Y0068730D01*
X0141523Y0069667D01*
X0141523Y0074955D01*
X0140586Y0075892D01*
X0140455Y0075892D01*
X0140455Y0081007D01*
X0140855Y0081407D01*
X0141511Y0080750D01*
X0145199Y0080750D01*
X0145855Y0081407D01*
X0146511Y0080750D01*
X0150199Y0080750D01*
X0150855Y0081407D01*
X0151511Y0080750D01*
X0155199Y0080750D01*
X0156136Y0081688D01*
X0156136Y0088919D01*
X0155790Y0089265D01*
X0155790Y0096803D01*
X0154560Y0098033D01*
X0150972Y0101621D01*
X0150972Y0102908D01*
X0150034Y0103845D01*
X0144747Y0103845D01*
X0143809Y0102908D01*
X0143809Y0098941D01*
X0138193Y0104557D01*
X0140586Y0104557D01*
X0141523Y0105494D01*
X0141523Y0107568D01*
X0144323Y0110369D01*
X0145554Y0111599D01*
X0145554Y0120475D01*
X0145855Y0120777D01*
X0146255Y0120377D01*
X0146255Y0112209D01*
X0154046Y0104418D01*
X0154046Y0101163D01*
X0154983Y0100226D01*
X0160271Y0100226D01*
X0161208Y0101163D01*
X0161208Y0106451D01*
X0160271Y0107388D01*
X0157016Y0107388D01*
X0150455Y0113949D01*
X0150455Y0120377D01*
X0150855Y0120777D01*
X0151511Y0120120D01*
X0155199Y0120120D01*
X0156136Y0121058D01*
X0156136Y0124418D01*
X0159267Y0127391D01*
X0162633Y0127391D01*
X0163570Y0128329D01*
X0163570Y0133616D01*
X0162633Y0134554D01*
X0157345Y0134554D01*
X0156408Y0133616D01*
X0156408Y0130468D01*
X0155100Y0129226D01*
X0151511Y0129226D01*
X0150855Y0128570D01*
X0150199Y0129226D01*
X0146511Y0129226D01*
X0145855Y0128570D01*
X0145199Y0129226D01*
X0141511Y0129226D01*
X0140855Y0128570D01*
X0140435Y0128990D01*
X0140435Y0129754D01*
X0144129Y0129754D01*
X0145066Y0130691D01*
X0145066Y0131235D01*
X0150746Y0131235D01*
X0150993Y0131086D01*
X0151586Y0131235D01*
X0152197Y0131235D01*
X0152401Y0131438D01*
X0152681Y0131508D01*
X0152995Y0132033D01*
X0153428Y0132465D01*
X0153428Y0132753D01*
X0154879Y0135172D01*
X0210325Y0135172D01*
X0209557Y0134404D01*
X0209557Y0129116D01*
X0210007Y0128667D01*
X0209910Y0128570D01*
X0209254Y0129226D01*
X0205566Y0129226D01*
X0204910Y0128570D01*
X0204254Y0129226D01*
X0201731Y0129226D01*
X0200278Y0131254D01*
X0200278Y0131449D01*
X0199785Y0131942D01*
X0199378Y0132509D01*
X0199186Y0132541D01*
X0199048Y0132679D01*
X0198350Y0132679D01*
X0197662Y0132792D01*
X0197503Y0132679D01*
X0178307Y0132679D01*
X0177658Y0132809D01*
X0177463Y0132679D01*
X0177229Y0132679D01*
X0176761Y0132211D01*
X0176211Y0131844D01*
X0176165Y0131614D01*
X0175999Y0131449D01*
X0175999Y0130787D01*
X0175687Y0129226D01*
X0175566Y0129226D01*
X0174910Y0128570D01*
X0174254Y0129226D01*
X0171050Y0129226D01*
X0171050Y0133616D01*
X0170113Y0134554D01*
X0164825Y0134554D01*
X0163888Y0133616D01*
X0163888Y0128329D01*
X0164629Y0127588D01*
X0164629Y0121058D01*
X0165566Y0120120D01*
X0169254Y0120120D01*
X0169910Y0120777D01*
X0170094Y0120593D01*
X0170094Y0115262D01*
X0164825Y0115262D01*
X0163888Y0114325D01*
X0163888Y0113781D01*
X0162783Y0113781D01*
X0162783Y0114325D01*
X0161845Y0115262D01*
X0156558Y0115262D01*
X0155620Y0114325D01*
X0155620Y0109037D01*
X0156558Y0108100D01*
X0161845Y0108100D01*
X0162783Y0109037D01*
X0162783Y0109581D01*
X0163888Y0109581D01*
X0163888Y0109037D01*
X0164825Y0108100D01*
X0170113Y0108100D01*
X0170278Y0108265D01*
X0175310Y0103233D01*
X0175310Y0089600D01*
X0174910Y0089200D01*
X0174254Y0089856D01*
X0170566Y0089856D01*
X0169910Y0089200D01*
X0169254Y0089856D01*
X0165992Y0089856D01*
X0165389Y0090459D01*
X0160101Y0090459D01*
X0159164Y0089522D01*
X0159164Y0084234D01*
X0160101Y0083297D01*
X0164629Y0083297D01*
X0164629Y0081688D01*
X0165566Y0080750D01*
X0169254Y0080750D01*
X0169910Y0081407D01*
X0170310Y0081007D01*
X0170310Y0062301D01*
X0170262Y0062247D01*
X0170270Y0062113D01*
X0169944Y0062113D01*
X0169006Y0061175D01*
X0169006Y0055888D01*
X0169944Y0054950D01*
X0175231Y0054950D01*
X0176168Y0055888D01*
X0176168Y0061175D01*
X0175231Y0062113D01*
X0174510Y0062113D01*
X0174510Y0081007D01*
X0174910Y0081407D01*
X0175566Y0080750D01*
X0179254Y0080750D01*
X0179910Y0081407D01*
X0180310Y0081007D01*
X0180310Y0075892D01*
X0179392Y0075892D01*
X0178455Y0074955D01*
X0178455Y0069667D01*
X0179392Y0068730D01*
X0184680Y0068730D01*
X0185617Y0069667D01*
X0185617Y0074955D01*
X0184680Y0075892D01*
X0184510Y0075892D01*
X0184510Y0081007D01*
X0184910Y0081407D01*
X0185566Y0080750D01*
X0188691Y0080750D01*
X0188691Y0076754D01*
X0189629Y0075817D01*
X0190172Y0075817D01*
X0190172Y0058614D01*
X0172456Y0040897D01*
X0172456Y0035904D01*
X0172024Y0035725D01*
X0170766Y0034467D01*
X0170086Y0032824D01*
X0170086Y0028176D01*
X0170766Y0026533D01*
X0171799Y0025500D01*
X0170766Y0024467D01*
X0170086Y0022824D01*
X0170086Y0018176D01*
X0170766Y0016533D01*
X0171499Y0015800D01*
X0167613Y0015800D01*
X0168345Y0016533D01*
X0169026Y0018176D01*
X0169026Y0022824D01*
X0168345Y0024467D01*
X0167313Y0025500D01*
X0168345Y0026533D01*
X0169026Y0028176D01*
X0169026Y0032824D01*
X0168345Y0034467D01*
X0167088Y0035725D01*
X0165445Y0036405D01*
X0163667Y0036405D01*
X0162024Y0035725D01*
X0160766Y0034467D01*
X0160086Y0032824D01*
X0160086Y0028176D01*
X0160766Y0026533D01*
X0161799Y0025500D01*
X0160766Y0024467D01*
X0160086Y0022824D01*
X0160086Y0018176D01*
X0160766Y0016533D01*
X0161499Y0015800D01*
X0157613Y0015800D01*
X0158345Y0016533D01*
X0159026Y0018176D01*
X0159026Y0022824D01*
X0158345Y0024467D01*
X0157313Y0025500D01*
X0158345Y0026533D01*
X0159026Y0028176D01*
X0159026Y0032824D01*
X0158345Y0034467D01*
X0157088Y0035725D01*
X0155445Y0036405D01*
X0153667Y0036405D01*
X0152024Y0035725D01*
X0150766Y0034467D01*
X0150086Y0032824D01*
X0150086Y0028176D01*
X0150766Y0026533D01*
X0151799Y0025500D01*
X0150766Y0024467D01*
X0150086Y0022824D01*
X0150086Y0018176D01*
X0150766Y0016533D01*
X0151499Y0015800D01*
X0147613Y0015800D01*
X0148345Y0016533D01*
X0149026Y0018176D01*
X0149026Y0022824D01*
X0148345Y0024467D01*
X0147313Y0025500D01*
X0148345Y0026533D01*
X0149026Y0028176D01*
X0149026Y0032824D01*
X0148345Y0034467D01*
X0147088Y0035725D01*
X0145445Y0036405D01*
X0143667Y0036405D01*
X0142024Y0035725D01*
X0140766Y0034467D01*
X0140086Y0032824D01*
X0140086Y0028176D01*
X0140766Y0026533D01*
X0141799Y0025500D01*
X0140766Y0024467D01*
X0140086Y0022824D01*
X0140086Y0018176D01*
X0140766Y0016533D01*
X0141499Y0015800D01*
X0137613Y0015800D01*
X0138345Y0016533D01*
X0139026Y0018176D01*
X0139026Y0022824D01*
X0138345Y0024467D01*
X0137356Y0025457D01*
X0137356Y0025543D01*
X0138345Y0026533D01*
X0139026Y0028176D01*
X0139026Y0032824D01*
X0138345Y0034467D01*
X0137088Y0035725D01*
X0135445Y0036405D01*
X0133667Y0036405D01*
X0132024Y0035725D01*
X0130766Y0034467D01*
X0130086Y0032824D01*
X0130086Y0028176D01*
X0130766Y0026533D01*
X0131799Y0025500D01*
X0130766Y0024467D01*
X0130086Y0022824D01*
X0130086Y0018176D01*
X0130766Y0016533D01*
X0131499Y0015800D01*
X0081135Y0015800D01*
X0082330Y0017869D01*
X0083100Y0020743D01*
X0083100Y0023718D01*
X0082330Y0026592D01*
X0080842Y0029169D01*
X0078738Y0031273D01*
X0076162Y0032761D01*
X0073288Y0033531D01*
X0070312Y0033531D01*
X0067438Y0032761D01*
X0064862Y0031273D01*
X0062758Y0029169D01*
X0061270Y0026592D01*
X0060500Y0023718D01*
X0060500Y0020743D01*
X0061270Y0017869D01*
X0062465Y0015800D01*
X0029856Y0015800D01*
X0029856Y0016894D02*
X0061833Y0016894D01*
X0061103Y0018493D02*
X0029856Y0018493D01*
X0029856Y0020091D02*
X0060675Y0020091D01*
X0060500Y0021690D02*
X0029856Y0021690D01*
X0029856Y0023288D02*
X0060500Y0023288D01*
X0060813Y0024887D02*
X0029856Y0024887D01*
X0029856Y0026485D02*
X0061241Y0026485D01*
X0062131Y0028084D02*
X0029856Y0028084D01*
X0029856Y0029682D02*
X0063271Y0029682D01*
X0064875Y0031281D02*
X0029856Y0031281D01*
X0029856Y0032879D02*
X0067881Y0032879D01*
X0075719Y0032879D02*
X0130109Y0032879D01*
X0130086Y0031281D02*
X0078725Y0031281D01*
X0080329Y0029682D02*
X0130086Y0029682D01*
X0130124Y0028084D02*
X0081469Y0028084D01*
X0082359Y0026485D02*
X0130814Y0026485D01*
X0131186Y0024887D02*
X0082787Y0024887D01*
X0083100Y0023288D02*
X0130278Y0023288D01*
X0130086Y0021690D02*
X0083100Y0021690D01*
X0082925Y0020091D02*
X0130086Y0020091D01*
X0130086Y0018493D02*
X0082497Y0018493D01*
X0081767Y0016894D02*
X0130617Y0016894D01*
X0138495Y0016894D02*
X0140617Y0016894D01*
X0140086Y0018493D02*
X0139026Y0018493D01*
X0139026Y0020091D02*
X0140086Y0020091D01*
X0140086Y0021690D02*
X0139026Y0021690D01*
X0138834Y0023288D02*
X0140278Y0023288D01*
X0141186Y0024887D02*
X0137926Y0024887D01*
X0138298Y0026485D02*
X0140814Y0026485D01*
X0140124Y0028084D02*
X0138988Y0028084D01*
X0139026Y0029682D02*
X0140086Y0029682D01*
X0140086Y0031281D02*
X0139026Y0031281D01*
X0139003Y0032879D02*
X0140109Y0032879D01*
X0140777Y0034478D02*
X0138335Y0034478D01*
X0136239Y0036076D02*
X0142873Y0036076D01*
X0146239Y0036076D02*
X0152873Y0036076D01*
X0150777Y0034478D02*
X0148335Y0034478D01*
X0149003Y0032879D02*
X0150109Y0032879D01*
X0150086Y0031281D02*
X0149026Y0031281D01*
X0149026Y0029682D02*
X0150086Y0029682D01*
X0150124Y0028084D02*
X0148988Y0028084D01*
X0148298Y0026485D02*
X0150814Y0026485D01*
X0151186Y0024887D02*
X0147926Y0024887D01*
X0148834Y0023288D02*
X0150278Y0023288D01*
X0150086Y0021690D02*
X0149026Y0021690D01*
X0149026Y0020091D02*
X0150086Y0020091D01*
X0150086Y0018493D02*
X0149026Y0018493D01*
X0148495Y0016894D02*
X0150617Y0016894D01*
X0158495Y0016894D02*
X0160617Y0016894D01*
X0160086Y0018493D02*
X0159026Y0018493D01*
X0159026Y0020091D02*
X0160086Y0020091D01*
X0160086Y0021690D02*
X0159026Y0021690D01*
X0158834Y0023288D02*
X0160278Y0023288D01*
X0161186Y0024887D02*
X0157926Y0024887D01*
X0158298Y0026485D02*
X0160814Y0026485D01*
X0160124Y0028084D02*
X0158988Y0028084D01*
X0159026Y0029682D02*
X0160086Y0029682D01*
X0160086Y0031281D02*
X0159026Y0031281D01*
X0159003Y0032879D02*
X0160109Y0032879D01*
X0160777Y0034478D02*
X0158335Y0034478D01*
X0156239Y0036076D02*
X0162873Y0036076D01*
X0166239Y0036076D02*
X0172456Y0036076D01*
X0172456Y0037675D02*
X0029856Y0037675D01*
X0029856Y0039273D02*
X0172456Y0039273D01*
X0172456Y0040872D02*
X0029856Y0040872D01*
X0029856Y0042470D02*
X0174029Y0042470D01*
X0175627Y0044069D02*
X0029856Y0044069D01*
X0029856Y0045667D02*
X0074258Y0045667D01*
X0072660Y0047266D02*
X0029856Y0047266D01*
X0029856Y0048864D02*
X0072200Y0048864D01*
X0072200Y0050463D02*
X0068737Y0050463D01*
X0068705Y0050431D02*
X0071400Y0053125D01*
X0071400Y0056936D01*
X0068705Y0059631D01*
X0064895Y0059631D01*
X0062200Y0056936D01*
X0062200Y0053125D01*
X0064895Y0050431D01*
X0068705Y0050431D01*
X0070336Y0052061D02*
X0072725Y0052061D01*
X0071400Y0053660D02*
X0074324Y0053660D01*
X0074895Y0055931D02*
X0078705Y0055931D01*
X0081400Y0058625D01*
X0081400Y0062436D01*
X0078705Y0065131D01*
X0074895Y0065131D01*
X0072200Y0062436D01*
X0072200Y0058625D01*
X0074895Y0055931D01*
X0073968Y0056857D02*
X0071400Y0056857D01*
X0071400Y0055258D02*
X0111255Y0055258D01*
X0111255Y0056857D02*
X0079631Y0056857D01*
X0081230Y0058455D02*
X0111255Y0058455D01*
X0111255Y0060054D02*
X0081400Y0060054D01*
X0081400Y0061652D02*
X0111255Y0061652D01*
X0111255Y0063251D02*
X0080585Y0063251D01*
X0078987Y0064849D02*
X0111255Y0064849D01*
X0111255Y0066448D02*
X0104515Y0066448D01*
X0104515Y0068046D02*
X0111255Y0068046D01*
X0111255Y0069645D02*
X0104515Y0069645D01*
X0104515Y0071243D02*
X0111255Y0071243D01*
X0111255Y0072842D02*
X0103034Y0072842D01*
X0103034Y0074440D02*
X0111255Y0074440D01*
X0111255Y0076039D02*
X0103034Y0076039D01*
X0103034Y0077637D02*
X0111255Y0077637D01*
X0111255Y0079236D02*
X0103034Y0079236D01*
X0103034Y0080834D02*
X0106427Y0080834D01*
X0105574Y0082433D02*
X0103034Y0082433D01*
X0103034Y0084032D02*
X0105574Y0084032D01*
X0103507Y0085630D02*
X0103034Y0085630D01*
X0102703Y0087229D02*
X0101978Y0087229D01*
X0102771Y0088827D02*
X0100380Y0088827D01*
X0102771Y0090426D02*
X0080600Y0090426D01*
X0081400Y0092024D02*
X0102771Y0092024D01*
X0102771Y0093623D02*
X0081400Y0093623D01*
X0081215Y0095221D02*
X0102771Y0095221D01*
X0098153Y0096820D02*
X0079616Y0096820D01*
X0078824Y0099043D02*
X0074776Y0099043D01*
X0071913Y0101906D01*
X0071913Y0105955D01*
X0074776Y0108818D01*
X0078824Y0108818D01*
X0081687Y0105955D01*
X0081687Y0101906D01*
X0078824Y0099043D01*
X0079798Y0100017D02*
X0097353Y0100017D01*
X0097353Y0101615D02*
X0081396Y0101615D01*
X0081687Y0103214D02*
X0097659Y0103214D01*
X0098834Y0104812D02*
X0081687Y0104812D01*
X0081232Y0106411D02*
X0098834Y0106411D01*
X0098834Y0108009D02*
X0079633Y0108009D01*
X0078824Y0109943D02*
X0074776Y0109943D01*
X0071913Y0112806D01*
X0071913Y0116855D01*
X0074776Y0119718D01*
X0078824Y0119718D01*
X0081687Y0116855D01*
X0081687Y0112806D01*
X0078824Y0109943D01*
X0080087Y0111206D02*
X0098834Y0111206D01*
X0098834Y0109608D02*
X0071687Y0109608D01*
X0071687Y0111206D02*
X0073513Y0111206D01*
X0071687Y0111455D02*
X0068824Y0114318D01*
X0064776Y0114318D01*
X0061913Y0111455D01*
X0061913Y0107406D01*
X0064776Y0104543D01*
X0068824Y0104543D01*
X0071687Y0107406D01*
X0071687Y0111455D01*
X0071914Y0112805D02*
X0070338Y0112805D01*
X0071913Y0114403D02*
X0029856Y0114403D01*
X0029856Y0112805D02*
X0063262Y0112805D01*
X0061913Y0111206D02*
X0029856Y0111206D01*
X0029856Y0109608D02*
X0061913Y0109608D01*
X0061913Y0108009D02*
X0029856Y0108009D01*
X0029856Y0106411D02*
X0062908Y0106411D01*
X0064507Y0104812D02*
X0029856Y0104812D01*
X0029856Y0103214D02*
X0064571Y0103214D01*
X0064776Y0103418D02*
X0061913Y0100555D01*
X0061913Y0096506D01*
X0064776Y0093643D01*
X0068824Y0093643D01*
X0071687Y0096506D01*
X0071687Y0100555D01*
X0068824Y0103418D01*
X0064776Y0103418D01*
X0062973Y0101615D02*
X0029856Y0101615D01*
X0029856Y0100017D02*
X0061913Y0100017D01*
X0061913Y0098418D02*
X0029856Y0098418D01*
X0029856Y0096820D02*
X0061913Y0096820D01*
X0063198Y0095221D02*
X0029856Y0095221D01*
X0029856Y0093623D02*
X0072200Y0093623D01*
X0072200Y0092024D02*
X0069318Y0092024D01*
X0070917Y0090426D02*
X0073000Y0090426D01*
X0072385Y0095221D02*
X0070402Y0095221D01*
X0071687Y0096820D02*
X0073984Y0096820D01*
X0071687Y0098418D02*
X0097353Y0098418D01*
X0098834Y0084032D02*
X0095854Y0084032D01*
X0095854Y0082433D02*
X0098834Y0082433D01*
X0098834Y0080834D02*
X0095854Y0080834D01*
X0095854Y0079236D02*
X0098834Y0079236D01*
X0098834Y0077637D02*
X0078712Y0077637D01*
X0078705Y0075931D02*
X0074895Y0075931D01*
X0072200Y0073236D01*
X0072200Y0069425D01*
X0074895Y0066731D01*
X0078705Y0066731D01*
X0081400Y0069425D01*
X0081400Y0069511D01*
X0089085Y0069986D01*
X0089085Y0069667D01*
X0090022Y0068730D01*
X0095310Y0068730D01*
X0096247Y0069667D01*
X0096247Y0074955D01*
X0095310Y0075892D01*
X0090022Y0075892D01*
X0089085Y0074955D01*
X0089085Y0074194D01*
X0080945Y0073691D01*
X0078705Y0075931D01*
X0080196Y0074440D02*
X0089085Y0074440D01*
X0089107Y0069645D02*
X0083569Y0069645D01*
X0080021Y0068046D02*
X0097353Y0068046D01*
X0097353Y0066448D02*
X0071400Y0066448D01*
X0071400Y0067836D02*
X0071400Y0064025D01*
X0068705Y0061331D01*
X0064895Y0061331D01*
X0062200Y0064025D01*
X0062200Y0067836D01*
X0064895Y0070531D01*
X0068705Y0070531D01*
X0071400Y0067836D01*
X0071190Y0068046D02*
X0073579Y0068046D01*
X0072200Y0069645D02*
X0069591Y0069645D01*
X0068705Y0072231D02*
X0071400Y0074925D01*
X0071400Y0078736D01*
X0068705Y0081431D01*
X0064895Y0081431D01*
X0062200Y0078736D01*
X0062200Y0074925D01*
X0064895Y0072231D01*
X0068705Y0072231D01*
X0069317Y0072842D02*
X0072200Y0072842D01*
X0072200Y0071243D02*
X0029856Y0071243D01*
X0029856Y0069645D02*
X0064009Y0069645D01*
X0062410Y0068046D02*
X0029856Y0068046D01*
X0029856Y0066448D02*
X0062200Y0066448D01*
X0062200Y0064849D02*
X0029856Y0064849D01*
X0029856Y0063251D02*
X0062974Y0063251D01*
X0064573Y0061652D02*
X0029856Y0061652D01*
X0029856Y0060054D02*
X0072200Y0060054D01*
X0072200Y0061652D02*
X0069027Y0061652D01*
X0070626Y0063251D02*
X0073015Y0063251D01*
X0074613Y0064849D02*
X0071400Y0064849D01*
X0072370Y0058455D02*
X0069881Y0058455D01*
X0063719Y0058455D02*
X0029856Y0058455D01*
X0029856Y0056857D02*
X0062200Y0056857D01*
X0062200Y0055258D02*
X0029856Y0055258D01*
X0029856Y0053660D02*
X0062200Y0053660D01*
X0063264Y0052061D02*
X0029856Y0052061D01*
X0029856Y0050463D02*
X0064863Y0050463D01*
X0079276Y0053660D02*
X0110002Y0053660D01*
X0107539Y0052061D02*
X0080875Y0052061D01*
X0080940Y0047266D02*
X0178824Y0047266D01*
X0177226Y0045667D02*
X0079342Y0045667D01*
X0110328Y0048864D02*
X0180423Y0048864D01*
X0182021Y0050463D02*
X0112790Y0050463D01*
X0114363Y0052061D02*
X0183620Y0052061D01*
X0185218Y0053660D02*
X0115455Y0053660D01*
X0115455Y0055258D02*
X0120423Y0055258D01*
X0119794Y0056857D02*
X0115455Y0056857D01*
X0115455Y0058455D02*
X0119794Y0058455D01*
X0119794Y0060054D02*
X0115455Y0060054D01*
X0115455Y0061652D02*
X0120271Y0061652D01*
X0121255Y0063251D02*
X0115455Y0063251D01*
X0115455Y0064849D02*
X0121255Y0064849D01*
X0121255Y0066448D02*
X0115455Y0066448D01*
X0115455Y0068046D02*
X0121255Y0068046D01*
X0121255Y0069645D02*
X0115455Y0069645D01*
X0115455Y0071243D02*
X0121255Y0071243D01*
X0121255Y0072842D02*
X0115455Y0072842D01*
X0115455Y0074440D02*
X0121255Y0074440D01*
X0121255Y0076039D02*
X0115455Y0076039D01*
X0115455Y0077637D02*
X0121255Y0077637D01*
X0121255Y0079236D02*
X0115455Y0079236D01*
X0115455Y0080834D02*
X0116427Y0080834D01*
X0111255Y0080834D02*
X0110283Y0080834D01*
X0098834Y0076039D02*
X0071400Y0076039D01*
X0071400Y0077637D02*
X0074888Y0077637D01*
X0073289Y0079236D02*
X0070900Y0079236D01*
X0072200Y0080834D02*
X0069302Y0080834D01*
X0070113Y0084032D02*
X0072200Y0084032D01*
X0072200Y0082433D02*
X0029856Y0082433D01*
X0029856Y0080834D02*
X0064298Y0080834D01*
X0062700Y0079236D02*
X0029856Y0079236D01*
X0029856Y0077637D02*
X0062200Y0077637D01*
X0062200Y0076039D02*
X0029856Y0076039D01*
X0029856Y0074440D02*
X0062685Y0074440D01*
X0064283Y0072842D02*
X0029856Y0072842D01*
X0029856Y0084032D02*
X0063487Y0084032D01*
X0061913Y0085630D02*
X0029856Y0085630D01*
X0029856Y0087229D02*
X0061913Y0087229D01*
X0061913Y0088827D02*
X0029856Y0088827D01*
X0029856Y0090426D02*
X0062683Y0090426D01*
X0064282Y0092024D02*
X0029856Y0092024D01*
X0029856Y0116002D02*
X0064524Y0116002D01*
X0064895Y0115631D02*
X0068705Y0115631D01*
X0071400Y0118325D01*
X0071400Y0122136D01*
X0068705Y0124831D01*
X0064895Y0124831D01*
X0062200Y0122136D01*
X0062200Y0118325D01*
X0064895Y0115631D01*
X0062925Y0117600D02*
X0029856Y0117600D01*
X0029856Y0119199D02*
X0062200Y0119199D01*
X0062200Y0120797D02*
X0029856Y0120797D01*
X0029856Y0122396D02*
X0062460Y0122396D01*
X0064058Y0123994D02*
X0029856Y0123994D01*
X0029856Y0125593D02*
X0072200Y0125593D01*
X0072200Y0127191D02*
X0069366Y0127191D01*
X0068705Y0126531D02*
X0071400Y0129225D01*
X0071400Y0133036D01*
X0068705Y0135731D01*
X0064895Y0135731D01*
X0062200Y0133036D01*
X0062200Y0129225D01*
X0064895Y0126531D01*
X0068705Y0126531D01*
X0069542Y0123994D02*
X0072200Y0123994D01*
X0072200Y0123825D02*
X0074895Y0121131D01*
X0078705Y0121131D01*
X0081400Y0123825D01*
X0081400Y0127636D01*
X0078705Y0130331D01*
X0074895Y0130331D01*
X0072200Y0127636D01*
X0072200Y0123825D01*
X0071140Y0122396D02*
X0073630Y0122396D01*
X0071400Y0120797D02*
X0098834Y0120797D01*
X0098834Y0119199D02*
X0079344Y0119199D01*
X0080942Y0117600D02*
X0098834Y0117600D01*
X0098834Y0116002D02*
X0081687Y0116002D01*
X0081687Y0114403D02*
X0098834Y0114403D01*
X0098834Y0112805D02*
X0081686Y0112805D01*
X0073967Y0108009D02*
X0071687Y0108009D01*
X0072368Y0106411D02*
X0070692Y0106411D01*
X0071913Y0104812D02*
X0069093Y0104812D01*
X0069029Y0103214D02*
X0071913Y0103214D01*
X0072204Y0101615D02*
X0070627Y0101615D01*
X0071687Y0100017D02*
X0073802Y0100017D01*
X0071913Y0116002D02*
X0069076Y0116002D01*
X0070675Y0117600D02*
X0072658Y0117600D01*
X0071400Y0119199D02*
X0074256Y0119199D01*
X0079970Y0122396D02*
X0098834Y0122396D01*
X0098834Y0123994D02*
X0081400Y0123994D01*
X0081400Y0125593D02*
X0098834Y0125593D01*
X0098834Y0127191D02*
X0081400Y0127191D01*
X0080246Y0128790D02*
X0098834Y0128790D01*
X0098834Y0130388D02*
X0071400Y0130388D01*
X0071400Y0131987D02*
X0074838Y0131987D01*
X0074895Y0131931D02*
X0078705Y0131931D01*
X0081400Y0134625D01*
X0081400Y0138436D01*
X0078705Y0141131D01*
X0074895Y0141131D01*
X0072200Y0138436D01*
X0072200Y0134625D01*
X0074895Y0131931D01*
X0073240Y0133585D02*
X0070851Y0133585D01*
X0072200Y0135184D02*
X0069252Y0135184D01*
X0068705Y0137431D02*
X0071400Y0140125D01*
X0071400Y0143936D01*
X0068705Y0146631D01*
X0064895Y0146631D01*
X0062200Y0143936D01*
X0062200Y0140125D01*
X0064895Y0137431D01*
X0068705Y0137431D01*
X0069656Y0138381D02*
X0072200Y0138381D01*
X0072200Y0136782D02*
X0029856Y0136782D01*
X0029856Y0135184D02*
X0064348Y0135184D01*
X0062749Y0133585D02*
X0029856Y0133585D01*
X0029856Y0131987D02*
X0062200Y0131987D01*
X0062200Y0130388D02*
X0029856Y0130388D01*
X0029856Y0128790D02*
X0062635Y0128790D01*
X0064234Y0127191D02*
X0029856Y0127191D01*
X0029856Y0138381D02*
X0063944Y0138381D01*
X0062346Y0139979D02*
X0029856Y0139979D01*
X0029856Y0141578D02*
X0062200Y0141578D01*
X0062200Y0143176D02*
X0029856Y0143176D01*
X0029856Y0144775D02*
X0063039Y0144775D01*
X0064637Y0146373D02*
X0029856Y0146373D01*
X0029856Y0147972D02*
X0072200Y0147972D01*
X0072200Y0149336D02*
X0072200Y0145525D01*
X0074895Y0142831D01*
X0078705Y0142831D01*
X0081400Y0145525D01*
X0081400Y0149336D01*
X0078705Y0152031D01*
X0074895Y0152031D01*
X0072200Y0149336D01*
X0072434Y0149570D02*
X0070045Y0149570D01*
X0068705Y0148231D02*
X0071400Y0150925D01*
X0071400Y0154736D01*
X0068705Y0157431D01*
X0064895Y0157431D01*
X0062200Y0154736D01*
X0062200Y0150925D01*
X0064895Y0148231D01*
X0068705Y0148231D01*
X0068963Y0146373D02*
X0072200Y0146373D01*
X0072950Y0144775D02*
X0070561Y0144775D01*
X0071400Y0143176D02*
X0074549Y0143176D01*
X0073743Y0139979D02*
X0071254Y0139979D01*
X0071400Y0141578D02*
X0098834Y0141578D01*
X0098834Y0143176D02*
X0079051Y0143176D01*
X0080650Y0144775D02*
X0098834Y0144775D01*
X0098834Y0146373D02*
X0081400Y0146373D01*
X0081400Y0147972D02*
X0098834Y0147972D01*
X0098834Y0149570D02*
X0081166Y0149570D01*
X0079567Y0151169D02*
X0098834Y0151169D01*
X0098834Y0152768D02*
X0071400Y0152768D01*
X0071400Y0154366D02*
X0074259Y0154366D01*
X0074895Y0153731D02*
X0072200Y0156425D01*
X0072200Y0160236D01*
X0074895Y0162931D01*
X0078705Y0162931D01*
X0081400Y0160236D01*
X0081400Y0156425D01*
X0078705Y0153731D01*
X0074895Y0153731D01*
X0074033Y0151169D02*
X0071400Y0151169D01*
X0070172Y0155965D02*
X0072661Y0155965D01*
X0072200Y0157563D02*
X0029856Y0157563D01*
X0029856Y0155965D02*
X0063428Y0155965D01*
X0062200Y0154366D02*
X0029856Y0154366D01*
X0029856Y0152768D02*
X0062200Y0152768D01*
X0062200Y0151169D02*
X0029856Y0151169D01*
X0029856Y0149570D02*
X0063555Y0149570D01*
X0064895Y0159131D02*
X0068705Y0159131D01*
X0071400Y0161825D01*
X0071400Y0165636D01*
X0068705Y0168331D01*
X0064895Y0168331D01*
X0062200Y0165636D01*
X0062200Y0161825D01*
X0064895Y0159131D01*
X0064864Y0159162D02*
X0029856Y0159162D01*
X0029856Y0160760D02*
X0063265Y0160760D01*
X0062200Y0162359D02*
X0029856Y0162359D01*
X0029856Y0163957D02*
X0062200Y0163957D01*
X0062200Y0165556D02*
X0029856Y0165556D01*
X0029856Y0167154D02*
X0063718Y0167154D01*
X0064895Y0170031D02*
X0068705Y0170031D01*
X0071400Y0172725D01*
X0071400Y0176536D01*
X0068705Y0179231D01*
X0064895Y0179231D01*
X0062200Y0176536D01*
X0062200Y0172725D01*
X0064895Y0170031D01*
X0064574Y0170351D02*
X0029856Y0170351D01*
X0029856Y0168753D02*
X0072200Y0168753D01*
X0072200Y0167225D02*
X0074895Y0164531D01*
X0078705Y0164531D01*
X0081400Y0167225D01*
X0081400Y0171036D01*
X0078705Y0173731D01*
X0074895Y0173731D01*
X0072200Y0171036D01*
X0072200Y0167225D01*
X0072271Y0167154D02*
X0069882Y0167154D01*
X0071400Y0165556D02*
X0073870Y0165556D01*
X0071400Y0163957D02*
X0098834Y0163957D01*
X0098834Y0162359D02*
X0079277Y0162359D01*
X0080876Y0160760D02*
X0098834Y0160760D01*
X0098834Y0159162D02*
X0081400Y0159162D01*
X0081400Y0157563D02*
X0098834Y0157563D01*
X0098834Y0155965D02*
X0080939Y0155965D01*
X0079341Y0154366D02*
X0098834Y0154366D01*
X0110514Y0154366D02*
X0122850Y0154366D01*
X0122850Y0152768D02*
X0110514Y0152768D01*
X0110514Y0151169D02*
X0122850Y0151169D01*
X0122850Y0150302D02*
X0122306Y0150302D01*
X0121369Y0149364D01*
X0121369Y0144077D01*
X0122306Y0143139D01*
X0127593Y0143139D01*
X0128531Y0144077D01*
X0128531Y0149364D01*
X0127593Y0150302D01*
X0127050Y0150302D01*
X0127050Y0174635D01*
X0127593Y0174635D01*
X0128531Y0175573D01*
X0128531Y0179660D01*
X0158620Y0179660D01*
X0158372Y0179042D01*
X0156558Y0179042D01*
X0155620Y0178104D01*
X0155620Y0172817D01*
X0156558Y0171880D01*
X0160309Y0171880D01*
X0155779Y0170147D01*
X0155546Y0170380D01*
X0150259Y0170380D01*
X0149321Y0169443D01*
X0149321Y0164155D01*
X0150259Y0163218D01*
X0155546Y0163218D01*
X0156483Y0164155D01*
X0156483Y0165920D01*
X0161436Y0167814D01*
X0162082Y0167168D01*
X0170494Y0167168D01*
X0171431Y0168105D01*
X0171431Y0170179D01*
X0174772Y0152287D01*
X0174673Y0151877D01*
X0174925Y0151466D01*
X0175013Y0150992D01*
X0175362Y0150753D01*
X0175582Y0150393D01*
X0176051Y0150281D01*
X0176448Y0150008D01*
X0176863Y0150086D01*
X0187523Y0147528D01*
X0187523Y0145671D01*
X0160302Y0145671D01*
X0159239Y0147206D01*
X0159239Y0151333D01*
X0158302Y0152270D01*
X0153014Y0152270D01*
X0152077Y0151333D01*
X0152077Y0148727D01*
X0147503Y0148727D01*
X0146565Y0147790D01*
X0146565Y0142821D01*
X0145534Y0142821D01*
X0144597Y0141884D01*
X0144597Y0136596D01*
X0145534Y0135659D01*
X0150273Y0135659D01*
X0150139Y0135435D01*
X0145066Y0135435D01*
X0145066Y0135978D01*
X0144129Y0136916D01*
X0138841Y0136916D01*
X0137904Y0135978D01*
X0137904Y0132679D01*
X0135317Y0132679D01*
X0135317Y0161643D01*
X0135861Y0161643D01*
X0136798Y0162581D01*
X0136798Y0167868D01*
X0135861Y0168805D01*
X0130573Y0168805D01*
X0129636Y0167868D01*
X0129636Y0162581D01*
X0130573Y0161643D01*
X0131117Y0161643D01*
X0131117Y0129709D01*
X0131514Y0129313D01*
X0131479Y0129303D01*
X0131069Y0129066D01*
X0130855Y0128853D01*
X0130641Y0129066D01*
X0130231Y0129303D01*
X0129773Y0129426D01*
X0128355Y0129426D01*
X0126937Y0129426D01*
X0126479Y0129303D01*
X0126069Y0129066D01*
X0125734Y0128731D01*
X0125719Y0128706D01*
X0125199Y0129226D01*
X0121511Y0129226D01*
X0120855Y0128570D01*
X0120199Y0129226D01*
X0116511Y0129226D01*
X0115855Y0128570D01*
X0115199Y0129226D01*
X0111511Y0129226D01*
X0110855Y0128570D01*
X0110514Y0128911D01*
X0110514Y0168311D01*
X0121369Y0179516D01*
X0121369Y0175573D01*
X0122306Y0174635D01*
X0122850Y0174635D01*
X0122850Y0150302D01*
X0121575Y0149570D02*
X0110514Y0149570D01*
X0110514Y0147972D02*
X0121369Y0147972D01*
X0121369Y0146373D02*
X0110514Y0146373D01*
X0110514Y0144775D02*
X0121369Y0144775D01*
X0122269Y0143176D02*
X0110514Y0143176D01*
X0110514Y0141578D02*
X0131117Y0141578D01*
X0131117Y0143176D02*
X0127631Y0143176D01*
X0128531Y0144775D02*
X0131117Y0144775D01*
X0131117Y0146373D02*
X0128531Y0146373D01*
X0128531Y0147972D02*
X0131117Y0147972D01*
X0131117Y0149570D02*
X0128325Y0149570D01*
X0127050Y0151169D02*
X0131117Y0151169D01*
X0131117Y0152768D02*
X0127050Y0152768D01*
X0127050Y0154366D02*
X0131117Y0154366D01*
X0131117Y0155965D02*
X0127050Y0155965D01*
X0127050Y0157563D02*
X0131117Y0157563D01*
X0131117Y0159162D02*
X0127050Y0159162D01*
X0127050Y0160760D02*
X0131117Y0160760D01*
X0129858Y0162359D02*
X0127050Y0162359D01*
X0127050Y0163957D02*
X0129636Y0163957D01*
X0129636Y0165556D02*
X0127050Y0165556D01*
X0127050Y0167154D02*
X0129636Y0167154D01*
X0130521Y0168753D02*
X0127050Y0168753D01*
X0127050Y0170351D02*
X0150229Y0170351D01*
X0149321Y0168753D02*
X0135914Y0168753D01*
X0136798Y0167154D02*
X0149321Y0167154D01*
X0149321Y0165556D02*
X0136798Y0165556D01*
X0136798Y0163957D02*
X0149520Y0163957D01*
X0156285Y0163957D02*
X0160945Y0163957D01*
X0160945Y0164280D02*
X0160945Y0161669D01*
X0165513Y0161669D01*
X0165513Y0165843D01*
X0162508Y0165843D01*
X0162050Y0165721D01*
X0161640Y0165484D01*
X0161305Y0165149D01*
X0161068Y0164738D01*
X0160945Y0164280D01*
X0161764Y0165556D02*
X0156483Y0165556D01*
X0159711Y0167154D02*
X0171996Y0167154D01*
X0172295Y0165556D02*
X0170812Y0165556D01*
X0170937Y0165484D02*
X0170526Y0165721D01*
X0170068Y0165843D01*
X0167063Y0165843D01*
X0167063Y0161669D01*
X0165513Y0161669D01*
X0165513Y0160119D01*
X0160945Y0160119D01*
X0160945Y0157507D01*
X0161068Y0157049D01*
X0161305Y0156639D01*
X0161640Y0156304D01*
X0162050Y0156067D01*
X0162508Y0155944D01*
X0165513Y0155944D01*
X0165513Y0160119D01*
X0167063Y0160119D01*
X0167063Y0161669D01*
X0171631Y0161669D01*
X0171631Y0164280D01*
X0171509Y0164738D01*
X0171272Y0165149D01*
X0170937Y0165484D01*
X0171631Y0163957D02*
X0172593Y0163957D01*
X0172891Y0162359D02*
X0171631Y0162359D01*
X0173190Y0160760D02*
X0167063Y0160760D01*
X0167063Y0160119D02*
X0171631Y0160119D01*
X0171631Y0157507D01*
X0171509Y0157049D01*
X0171272Y0156639D01*
X0170937Y0156304D01*
X0170526Y0156067D01*
X0170068Y0155944D01*
X0167063Y0155944D01*
X0167063Y0160119D01*
X0167063Y0159162D02*
X0165513Y0159162D01*
X0165513Y0160760D02*
X0135317Y0160760D01*
X0135317Y0159162D02*
X0160945Y0159162D01*
X0160945Y0157563D02*
X0135317Y0157563D01*
X0135317Y0155965D02*
X0162432Y0155965D01*
X0165513Y0155965D02*
X0167063Y0155965D01*
X0167063Y0157563D02*
X0165513Y0157563D01*
X0170145Y0155965D02*
X0174085Y0155965D01*
X0173787Y0157563D02*
X0171631Y0157563D01*
X0171631Y0159162D02*
X0173488Y0159162D01*
X0177761Y0159162D02*
X0199988Y0159162D01*
X0200448Y0160760D02*
X0177462Y0160760D01*
X0177601Y0161972D02*
X0178059Y0161850D01*
X0180769Y0161850D01*
X0180769Y0165729D01*
X0176535Y0165729D01*
X0175569Y0170902D01*
X0176696Y0171035D01*
X0176696Y0170467D01*
X0177073Y0170090D01*
X0176856Y0169873D01*
X0176619Y0169462D01*
X0176496Y0169005D01*
X0176496Y0166688D01*
X0180769Y0166688D01*
X0180769Y0165729D01*
X0181728Y0165729D01*
X0181728Y0161850D01*
X0184439Y0161850D01*
X0184896Y0161972D01*
X0185307Y0162209D01*
X0185642Y0162544D01*
X0185879Y0162955D01*
X0186002Y0163413D01*
X0186002Y0165729D01*
X0181728Y0165729D01*
X0181728Y0166688D01*
X0186002Y0166688D01*
X0186002Y0169005D01*
X0185879Y0169462D01*
X0185642Y0169873D01*
X0185425Y0170090D01*
X0185802Y0170467D01*
X0185802Y0171462D01*
X0190869Y0171321D01*
X0190869Y0170073D01*
X0191246Y0169697D01*
X0191029Y0169479D01*
X0190792Y0169069D01*
X0190669Y0168611D01*
X0190669Y0166294D01*
X0194942Y0166294D01*
X0194942Y0165335D01*
X0195902Y0165335D01*
X0195902Y0166294D01*
X0200175Y0166294D01*
X0200175Y0168611D01*
X0200052Y0169069D01*
X0199815Y0169479D01*
X0199598Y0169697D01*
X0199975Y0170073D01*
X0199975Y0171128D01*
X0204846Y0171056D01*
X0204846Y0167455D01*
X0205502Y0166799D01*
X0205210Y0166508D01*
X0204006Y0166531D01*
X0203434Y0166696D01*
X0203167Y0166548D01*
X0202861Y0166554D01*
X0202432Y0166141D01*
X0201912Y0165853D01*
X0201827Y0165559D01*
X0201607Y0165348D01*
X0201596Y0164753D01*
X0198286Y0153242D01*
X0195940Y0153242D01*
X0195422Y0152723D01*
X0194904Y0153242D01*
X0188460Y0153242D01*
X0187523Y0152304D01*
X0187523Y0151847D01*
X0178733Y0153956D01*
X0177192Y0162209D01*
X0177601Y0161972D01*
X0180769Y0162359D02*
X0181728Y0162359D01*
X0181728Y0163957D02*
X0180769Y0163957D01*
X0180769Y0165556D02*
X0181728Y0165556D01*
X0176496Y0167154D02*
X0176269Y0167154D01*
X0176496Y0168753D02*
X0175970Y0168753D01*
X0175672Y0170351D02*
X0176812Y0170351D01*
X0171698Y0168753D02*
X0171431Y0168753D01*
X0167063Y0165556D02*
X0165513Y0165556D01*
X0165513Y0163957D02*
X0167063Y0163957D01*
X0167063Y0162359D02*
X0165513Y0162359D01*
X0160945Y0162359D02*
X0136576Y0162359D01*
X0135317Y0154366D02*
X0174384Y0154366D01*
X0174682Y0152768D02*
X0135317Y0152768D01*
X0135317Y0151169D02*
X0152077Y0151169D01*
X0152077Y0149570D02*
X0135317Y0149570D01*
X0135317Y0147972D02*
X0146748Y0147972D01*
X0146565Y0146373D02*
X0135317Y0146373D01*
X0135317Y0144775D02*
X0146565Y0144775D01*
X0146565Y0143176D02*
X0135317Y0143176D01*
X0135317Y0141578D02*
X0144597Y0141578D01*
X0144597Y0139979D02*
X0135317Y0139979D01*
X0135317Y0138381D02*
X0144597Y0138381D01*
X0144597Y0136782D02*
X0144262Y0136782D01*
X0138708Y0136782D02*
X0135317Y0136782D01*
X0135317Y0135184D02*
X0137904Y0135184D01*
X0137904Y0133585D02*
X0135317Y0133585D01*
X0131117Y0133585D02*
X0110514Y0133585D01*
X0110514Y0131987D02*
X0131117Y0131987D01*
X0131117Y0130388D02*
X0110514Y0130388D01*
X0110635Y0128790D02*
X0111075Y0128790D01*
X0115635Y0128790D02*
X0116075Y0128790D01*
X0120635Y0128790D02*
X0121075Y0128790D01*
X0125635Y0128790D02*
X0125792Y0128790D01*
X0128355Y0128790D02*
X0128355Y0128790D01*
X0128355Y0129426D02*
X0128355Y0124673D01*
X0128355Y0124673D01*
X0128355Y0119920D01*
X0126937Y0119920D01*
X0126479Y0120043D01*
X0126069Y0120280D01*
X0125734Y0120615D01*
X0125719Y0120641D01*
X0125475Y0120396D01*
X0125475Y0117275D01*
X0134361Y0108390D01*
X0134361Y0110782D01*
X0135298Y0111719D01*
X0139734Y0111719D01*
X0141354Y0113338D01*
X0141354Y0120278D01*
X0140855Y0120777D01*
X0140199Y0120120D01*
X0136511Y0120120D01*
X0135991Y0120641D01*
X0135977Y0120615D01*
X0135641Y0120280D01*
X0135231Y0120043D01*
X0134773Y0119920D01*
X0133355Y0119920D01*
X0133355Y0124673D01*
X0133355Y0124673D01*
X0128355Y0124673D01*
X0128355Y0119920D01*
X0129773Y0119920D01*
X0130231Y0120043D01*
X0130641Y0120280D01*
X0130855Y0120494D01*
X0131069Y0120280D01*
X0131479Y0120043D01*
X0131937Y0119920D01*
X0133355Y0119920D01*
X0133355Y0124673D01*
X0133355Y0124673D01*
X0131336Y0124673D01*
X0128355Y0124673D01*
X0128355Y0124673D01*
X0128355Y0124673D01*
X0128355Y0129426D01*
X0128355Y0127191D02*
X0128355Y0127191D01*
X0128355Y0125593D02*
X0128355Y0125593D01*
X0128355Y0123994D02*
X0128355Y0123994D01*
X0128355Y0122396D02*
X0128355Y0122396D01*
X0128355Y0120797D02*
X0128355Y0120797D01*
X0125475Y0119199D02*
X0141354Y0119199D01*
X0141354Y0117600D02*
X0125475Y0117600D01*
X0126748Y0116002D02*
X0141354Y0116002D01*
X0141354Y0114403D02*
X0128347Y0114403D01*
X0129945Y0112805D02*
X0140820Y0112805D01*
X0145161Y0111206D02*
X0147258Y0111206D01*
X0146255Y0112805D02*
X0145554Y0112805D01*
X0145554Y0114403D02*
X0146255Y0114403D01*
X0146255Y0116002D02*
X0145554Y0116002D01*
X0145554Y0117600D02*
X0146255Y0117600D01*
X0146255Y0119199D02*
X0145554Y0119199D01*
X0150455Y0119199D02*
X0170094Y0119199D01*
X0170094Y0117600D02*
X0150455Y0117600D01*
X0150455Y0116002D02*
X0170094Y0116002D01*
X0163966Y0114403D02*
X0162704Y0114403D01*
X0164890Y0120797D02*
X0155876Y0120797D01*
X0156136Y0122396D02*
X0164629Y0122396D01*
X0164629Y0123994D02*
X0156136Y0123994D01*
X0157373Y0125593D02*
X0164629Y0125593D01*
X0164629Y0127191D02*
X0159057Y0127191D01*
X0163570Y0128790D02*
X0163888Y0128790D01*
X0163888Y0130388D02*
X0163570Y0130388D01*
X0163570Y0131987D02*
X0163888Y0131987D01*
X0163888Y0133585D02*
X0163570Y0133585D01*
X0156408Y0133585D02*
X0153927Y0133585D01*
X0152968Y0131987D02*
X0156408Y0131987D01*
X0156324Y0130388D02*
X0144764Y0130388D01*
X0145635Y0128790D02*
X0146075Y0128790D01*
X0141075Y0128790D02*
X0140635Y0128790D01*
X0133355Y0123994D02*
X0133355Y0123994D01*
X0133355Y0122396D02*
X0133355Y0122396D01*
X0133355Y0120797D02*
X0133355Y0120797D01*
X0134785Y0111206D02*
X0131544Y0111206D01*
X0133142Y0109608D02*
X0134361Y0109608D01*
X0139536Y0103214D02*
X0144115Y0103214D01*
X0143809Y0101615D02*
X0141135Y0101615D01*
X0142734Y0100017D02*
X0143809Y0100017D01*
X0140841Y0104812D02*
X0153652Y0104812D01*
X0154046Y0103214D02*
X0150666Y0103214D01*
X0150978Y0101615D02*
X0154046Y0101615D01*
X0152576Y0100017D02*
X0175310Y0100017D01*
X0175310Y0101615D02*
X0161208Y0101615D01*
X0161208Y0103214D02*
X0175310Y0103214D01*
X0173731Y0104812D02*
X0161208Y0104812D01*
X0161208Y0106411D02*
X0172132Y0106411D01*
X0170534Y0108009D02*
X0156395Y0108009D01*
X0155620Y0109608D02*
X0154796Y0109608D01*
X0155620Y0111206D02*
X0153197Y0111206D01*
X0151599Y0112805D02*
X0155620Y0112805D01*
X0155699Y0114403D02*
X0150455Y0114403D01*
X0148856Y0109608D02*
X0143563Y0109608D01*
X0141964Y0108009D02*
X0150455Y0108009D01*
X0152053Y0106411D02*
X0141523Y0106411D01*
X0154175Y0098418D02*
X0175310Y0098418D01*
X0175310Y0096820D02*
X0155773Y0096820D01*
X0155790Y0095221D02*
X0175310Y0095221D01*
X0175310Y0093623D02*
X0155790Y0093623D01*
X0155790Y0092024D02*
X0175310Y0092024D01*
X0175310Y0090426D02*
X0165422Y0090426D01*
X0160068Y0090426D02*
X0155790Y0090426D01*
X0156136Y0088827D02*
X0159164Y0088827D01*
X0159164Y0087229D02*
X0156136Y0087229D01*
X0156136Y0085630D02*
X0159164Y0085630D01*
X0159366Y0084032D02*
X0156136Y0084032D01*
X0156136Y0082433D02*
X0164629Y0082433D01*
X0165482Y0080834D02*
X0155283Y0080834D01*
X0151427Y0080834D02*
X0150283Y0080834D01*
X0146427Y0080834D02*
X0145283Y0080834D01*
X0141427Y0080834D02*
X0140455Y0080834D01*
X0140455Y0079236D02*
X0170310Y0079236D01*
X0170310Y0080834D02*
X0169338Y0080834D01*
X0170310Y0077637D02*
X0140455Y0077637D01*
X0140455Y0076039D02*
X0170310Y0076039D01*
X0170310Y0074440D02*
X0141523Y0074440D01*
X0141523Y0072842D02*
X0170310Y0072842D01*
X0170310Y0071243D02*
X0141523Y0071243D01*
X0141501Y0069645D02*
X0170310Y0069645D01*
X0170310Y0068046D02*
X0125455Y0068046D01*
X0125455Y0066448D02*
X0170310Y0066448D01*
X0170310Y0064849D02*
X0125455Y0064849D01*
X0125455Y0063251D02*
X0170310Y0063251D01*
X0169483Y0061652D02*
X0126479Y0061652D01*
X0126956Y0060054D02*
X0169006Y0060054D01*
X0169006Y0058455D02*
X0126956Y0058455D01*
X0126956Y0056857D02*
X0169006Y0056857D01*
X0169636Y0055258D02*
X0126327Y0055258D01*
X0125455Y0069645D02*
X0134383Y0069645D01*
X0134361Y0071243D02*
X0125455Y0071243D01*
X0125455Y0072842D02*
X0134361Y0072842D01*
X0134361Y0074440D02*
X0125455Y0074440D01*
X0125455Y0076039D02*
X0130351Y0076039D01*
X0129636Y0077637D02*
X0125455Y0077637D01*
X0125455Y0079236D02*
X0129636Y0079236D01*
X0126427Y0080834D02*
X0125455Y0080834D01*
X0121255Y0080834D02*
X0120283Y0080834D01*
X0098834Y0074440D02*
X0096247Y0074440D01*
X0096247Y0072842D02*
X0098834Y0072842D01*
X0097353Y0071243D02*
X0096247Y0071243D01*
X0096225Y0069645D02*
X0097353Y0069645D01*
X0088691Y0079236D02*
X0080311Y0079236D01*
X0073404Y0074440D02*
X0070915Y0074440D01*
X0029856Y0036076D02*
X0132873Y0036076D01*
X0130777Y0034478D02*
X0029856Y0034478D01*
X0070965Y0128790D02*
X0073354Y0128790D01*
X0078762Y0131987D02*
X0098834Y0131987D01*
X0098834Y0133585D02*
X0080360Y0133585D01*
X0081400Y0135184D02*
X0098834Y0135184D01*
X0098834Y0136782D02*
X0081400Y0136782D01*
X0081400Y0138381D02*
X0098834Y0138381D01*
X0098834Y0139979D02*
X0079857Y0139979D01*
X0072200Y0159162D02*
X0068736Y0159162D01*
X0070335Y0160760D02*
X0072724Y0160760D01*
X0071400Y0162359D02*
X0074322Y0162359D01*
X0079730Y0165556D02*
X0098834Y0165556D01*
X0098834Y0167154D02*
X0081329Y0167154D01*
X0081400Y0168753D02*
X0098834Y0168753D01*
X0098834Y0170351D02*
X0081400Y0170351D01*
X0080486Y0171950D02*
X0098834Y0171950D01*
X0098834Y0173548D02*
X0078888Y0173548D01*
X0078705Y0175431D02*
X0074895Y0175431D01*
X0072200Y0178125D01*
X0072200Y0181936D01*
X0074895Y0184631D01*
X0076389Y0184631D01*
X0078361Y0189529D01*
X0078361Y0189992D01*
X0078674Y0190304D01*
X0078838Y0190713D01*
X0079264Y0190895D01*
X0079592Y0191222D01*
X0080033Y0191222D01*
X0080439Y0191395D01*
X0080868Y0191222D01*
X0086980Y0191222D01*
X0087142Y0191614D01*
X0088380Y0192852D01*
X0089997Y0193522D01*
X0094548Y0193522D01*
X0096165Y0192852D01*
X0097403Y0191614D01*
X0098072Y0189997D01*
X0098072Y0188247D01*
X0097403Y0186630D01*
X0096165Y0185392D01*
X0094548Y0184722D01*
X0089997Y0184722D01*
X0088380Y0185392D01*
X0087142Y0186630D01*
X0086980Y0187022D01*
X0081880Y0187022D01*
X0080282Y0183054D01*
X0081400Y0181936D01*
X0081400Y0178125D01*
X0078705Y0175431D01*
X0080020Y0176745D02*
X0086921Y0176745D01*
X0086938Y0176711D02*
X0087364Y0176125D01*
X0087876Y0175613D01*
X0088462Y0175188D01*
X0089107Y0174859D01*
X0089795Y0174635D01*
X0090510Y0174522D01*
X0092172Y0174522D01*
X0092172Y0179022D01*
X0086272Y0179022D01*
X0086272Y0178760D01*
X0086386Y0178045D01*
X0086609Y0177356D01*
X0086938Y0176711D01*
X0086338Y0178344D02*
X0081400Y0178344D01*
X0081400Y0179942D02*
X0086345Y0179942D01*
X0086386Y0180199D02*
X0086272Y0179484D01*
X0086272Y0179222D01*
X0092172Y0179222D01*
X0092172Y0179022D01*
X0092372Y0179022D01*
X0092372Y0174522D01*
X0094034Y0174522D01*
X0094750Y0174635D01*
X0095438Y0174859D01*
X0096083Y0175188D01*
X0096669Y0175613D01*
X0097181Y0176125D01*
X0097607Y0176711D01*
X0097935Y0177356D01*
X0098159Y0178045D01*
X0098272Y0178760D01*
X0098272Y0179022D01*
X0092373Y0179022D01*
X0092373Y0179222D01*
X0098272Y0179222D01*
X0098272Y0179484D01*
X0098159Y0180199D01*
X0097935Y0180888D01*
X0097607Y0181533D01*
X0097181Y0182119D01*
X0096669Y0182631D01*
X0096083Y0183056D01*
X0095438Y0183385D01*
X0094750Y0183609D01*
X0094034Y0183722D01*
X0092372Y0183722D01*
X0092372Y0179222D01*
X0092172Y0179222D01*
X0092172Y0183722D01*
X0090510Y0183722D01*
X0089795Y0183609D01*
X0089107Y0183385D01*
X0088462Y0183056D01*
X0087876Y0182631D01*
X0087364Y0182119D01*
X0086938Y0181533D01*
X0086609Y0180888D01*
X0086386Y0180199D01*
X0086944Y0181541D02*
X0081400Y0181541D01*
X0080316Y0183139D02*
X0088624Y0183139D01*
X0089959Y0184738D02*
X0080960Y0184738D01*
X0081603Y0186336D02*
X0087436Y0186336D01*
X0092172Y0183139D02*
X0092372Y0183139D01*
X0092372Y0181541D02*
X0092172Y0181541D01*
X0092172Y0179942D02*
X0092372Y0179942D01*
X0092372Y0178344D02*
X0092172Y0178344D01*
X0092172Y0176745D02*
X0092372Y0176745D01*
X0092372Y0175147D02*
X0092172Y0175147D01*
X0088542Y0175147D02*
X0071400Y0175147D01*
X0071400Y0173548D02*
X0074712Y0173548D01*
X0073114Y0171950D02*
X0070624Y0171950D01*
X0072200Y0170351D02*
X0069026Y0170351D01*
X0062976Y0171950D02*
X0029856Y0171950D01*
X0029856Y0173548D02*
X0062200Y0173548D01*
X0062200Y0175147D02*
X0029856Y0175147D01*
X0029856Y0176745D02*
X0062409Y0176745D01*
X0064008Y0178344D02*
X0029856Y0178344D01*
X0029856Y0179942D02*
X0072200Y0179942D01*
X0072200Y0178344D02*
X0069592Y0178344D01*
X0071191Y0176745D02*
X0073580Y0176745D01*
X0072200Y0181541D02*
X0029856Y0181541D01*
X0029856Y0183139D02*
X0073403Y0183139D01*
X0076432Y0184738D02*
X0029856Y0184738D01*
X0029856Y0186336D02*
X0077076Y0186336D01*
X0077719Y0187935D02*
X0029856Y0187935D01*
X0029856Y0189533D02*
X0078361Y0189533D01*
X0079501Y0191132D02*
X0029856Y0191132D01*
X0029856Y0192730D02*
X0088258Y0192730D01*
X0094355Y0197526D02*
X0077244Y0197526D01*
X0079474Y0199124D02*
X0094086Y0199124D01*
X0094086Y0200723D02*
X0080975Y0200723D01*
X0081898Y0202321D02*
X0094086Y0202321D01*
X0094540Y0203920D02*
X0082558Y0203920D01*
X0082986Y0205518D02*
X0095781Y0205518D01*
X0094524Y0207117D02*
X0083100Y0207117D01*
X0083100Y0208715D02*
X0094086Y0208715D01*
X0094086Y0210314D02*
X0082726Y0210314D01*
X0082261Y0211912D02*
X0094086Y0211912D01*
X0094370Y0213511D02*
X0081338Y0213511D01*
X0080102Y0215109D02*
X0095409Y0215109D01*
X0101703Y0215109D02*
X0105409Y0215109D01*
X0104370Y0213511D02*
X0102742Y0213511D01*
X0103026Y0211912D02*
X0104086Y0211912D01*
X0104086Y0210314D02*
X0103026Y0210314D01*
X0103026Y0208715D02*
X0104086Y0208715D01*
X0104524Y0207117D02*
X0102587Y0207117D01*
X0101356Y0205518D02*
X0105781Y0205518D01*
X0104540Y0203920D02*
X0102572Y0203920D01*
X0103026Y0202321D02*
X0104086Y0202321D01*
X0104086Y0200723D02*
X0103026Y0200723D01*
X0103026Y0199124D02*
X0104086Y0199124D01*
X0104355Y0197526D02*
X0102757Y0197526D01*
X0101740Y0195927D02*
X0105372Y0195927D01*
X0111740Y0195927D02*
X0115372Y0195927D01*
X0114355Y0197526D02*
X0112757Y0197526D01*
X0113026Y0199124D02*
X0114086Y0199124D01*
X0114086Y0200723D02*
X0113026Y0200723D01*
X0113026Y0202321D02*
X0114086Y0202321D01*
X0114540Y0203920D02*
X0112572Y0203920D01*
X0111331Y0205518D02*
X0115781Y0205518D01*
X0114524Y0207117D02*
X0112587Y0207117D01*
X0113026Y0208715D02*
X0114086Y0208715D01*
X0114086Y0210314D02*
X0113026Y0210314D01*
X0113026Y0211912D02*
X0114086Y0211912D01*
X0114370Y0213511D02*
X0112742Y0213511D01*
X0111703Y0215109D02*
X0115409Y0215109D01*
X0121703Y0215109D02*
X0125126Y0215109D01*
X0124158Y0213511D02*
X0122742Y0213511D01*
X0123026Y0211912D02*
X0123886Y0211912D01*
X0123886Y0210365D02*
X0123886Y0208697D01*
X0124001Y0207971D01*
X0124228Y0207272D01*
X0124562Y0206617D01*
X0124994Y0206023D01*
X0125514Y0205503D01*
X0125517Y0205500D01*
X0125514Y0205497D01*
X0124994Y0204977D01*
X0124562Y0204383D01*
X0124228Y0203728D01*
X0124001Y0203029D01*
X0123886Y0202303D01*
X0123886Y0200635D01*
X0128421Y0200635D01*
X0128421Y0204395D01*
X0128421Y0210365D01*
X0123886Y0210365D01*
X0123886Y0210314D02*
X0123026Y0210314D01*
X0123026Y0208715D02*
X0123886Y0208715D01*
X0124307Y0207117D02*
X0122587Y0207117D01*
X0121331Y0205518D02*
X0125498Y0205518D01*
X0124326Y0203920D02*
X0122572Y0203920D01*
X0123026Y0202321D02*
X0123889Y0202321D01*
X0123886Y0200723D02*
X0123026Y0200723D01*
X0123886Y0200365D02*
X0123886Y0198697D01*
X0124001Y0197971D01*
X0124228Y0197272D01*
X0124562Y0196617D01*
X0124994Y0196023D01*
X0125514Y0195503D01*
X0126108Y0195071D01*
X0126763Y0194737D01*
X0127462Y0194510D01*
X0128188Y0194395D01*
X0128421Y0194395D01*
X0128421Y0200365D01*
X0128691Y0200365D01*
X0128691Y0200635D01*
X0133226Y0200635D01*
X0133226Y0202303D01*
X0133111Y0203029D01*
X0132884Y0203728D01*
X0132550Y0204383D01*
X0132118Y0204977D01*
X0131598Y0205497D01*
X0131594Y0205500D01*
X0131598Y0205503D01*
X0132118Y0206023D01*
X0132550Y0206617D01*
X0132884Y0207272D01*
X0133111Y0207971D01*
X0133226Y0208697D01*
X0133226Y0210365D01*
X0128691Y0210365D01*
X0128691Y0200635D01*
X0128421Y0200635D01*
X0128421Y0200365D01*
X0123886Y0200365D01*
X0123886Y0199124D02*
X0123026Y0199124D01*
X0122757Y0197526D02*
X0124146Y0197526D01*
X0125089Y0195927D02*
X0121740Y0195927D01*
X0128421Y0195927D02*
X0128691Y0195927D01*
X0128691Y0194395D02*
X0128923Y0194395D01*
X0129649Y0194510D01*
X0130349Y0194737D01*
X0131004Y0195071D01*
X0131598Y0195503D01*
X0132118Y0196023D01*
X0132550Y0196617D01*
X0132884Y0197272D01*
X0133111Y0197971D01*
X0133226Y0198697D01*
X0133226Y0200365D01*
X0128691Y0200365D01*
X0128691Y0194395D01*
X0132023Y0195927D02*
X0135372Y0195927D01*
X0134355Y0197526D02*
X0132966Y0197526D01*
X0133226Y0199124D02*
X0134086Y0199124D01*
X0134086Y0200723D02*
X0133226Y0200723D01*
X0133223Y0202321D02*
X0134086Y0202321D01*
X0134540Y0203920D02*
X0132786Y0203920D01*
X0131614Y0205518D02*
X0135781Y0205518D01*
X0134524Y0207117D02*
X0132805Y0207117D01*
X0133226Y0208715D02*
X0134086Y0208715D01*
X0134086Y0210314D02*
X0133226Y0210314D01*
X0133226Y0211912D02*
X0134086Y0211912D01*
X0134370Y0213511D02*
X0132954Y0213511D01*
X0131986Y0215109D02*
X0135409Y0215109D01*
X0141703Y0215109D02*
X0145409Y0215109D01*
X0144370Y0213511D02*
X0142742Y0213511D01*
X0143026Y0211912D02*
X0144086Y0211912D01*
X0144086Y0210314D02*
X0143026Y0210314D01*
X0143026Y0208715D02*
X0144086Y0208715D01*
X0144524Y0207117D02*
X0142587Y0207117D01*
X0141331Y0205518D02*
X0145781Y0205518D01*
X0144540Y0203920D02*
X0142572Y0203920D01*
X0143026Y0202321D02*
X0144086Y0202321D01*
X0144086Y0200723D02*
X0143026Y0200723D01*
X0143026Y0199124D02*
X0144086Y0199124D01*
X0144355Y0197526D02*
X0142757Y0197526D01*
X0141740Y0195927D02*
X0145372Y0195927D01*
X0151740Y0195927D02*
X0155372Y0195927D01*
X0154355Y0197526D02*
X0152757Y0197526D01*
X0153026Y0199124D02*
X0154086Y0199124D01*
X0154086Y0200723D02*
X0153026Y0200723D01*
X0153026Y0202321D02*
X0154086Y0202321D01*
X0154540Y0203920D02*
X0152572Y0203920D01*
X0151331Y0205518D02*
X0155781Y0205518D01*
X0154524Y0207117D02*
X0152587Y0207117D01*
X0153026Y0208715D02*
X0154086Y0208715D01*
X0154086Y0210314D02*
X0153026Y0210314D01*
X0153026Y0211912D02*
X0154086Y0211912D01*
X0154370Y0213511D02*
X0152742Y0213511D01*
X0151703Y0215109D02*
X0155409Y0215109D01*
X0161703Y0215109D02*
X0165409Y0215109D01*
X0164370Y0213511D02*
X0162742Y0213511D01*
X0163026Y0211912D02*
X0164086Y0211912D01*
X0164086Y0210314D02*
X0163026Y0210314D01*
X0163026Y0208715D02*
X0164086Y0208715D01*
X0164524Y0207117D02*
X0162587Y0207117D01*
X0161331Y0205518D02*
X0165781Y0205518D01*
X0164540Y0203920D02*
X0162572Y0203920D01*
X0163026Y0202321D02*
X0164086Y0202321D01*
X0164086Y0200723D02*
X0163026Y0200723D01*
X0163026Y0199124D02*
X0164086Y0199124D01*
X0164355Y0197526D02*
X0162757Y0197526D01*
X0161740Y0195927D02*
X0165372Y0195927D01*
X0171740Y0195927D02*
X0175372Y0195927D01*
X0174355Y0197526D02*
X0172757Y0197526D01*
X0173026Y0199124D02*
X0174086Y0199124D01*
X0174086Y0200723D02*
X0173026Y0200723D01*
X0173026Y0202321D02*
X0174086Y0202321D01*
X0174540Y0203920D02*
X0172572Y0203920D01*
X0171331Y0205518D02*
X0175781Y0205518D01*
X0174524Y0207117D02*
X0172587Y0207117D01*
X0173026Y0208715D02*
X0174086Y0208715D01*
X0174086Y0210314D02*
X0173026Y0210314D01*
X0173026Y0211912D02*
X0174086Y0211912D01*
X0174370Y0213511D02*
X0172742Y0213511D01*
X0171703Y0215109D02*
X0175409Y0215109D01*
X0181703Y0215109D02*
X0185409Y0215109D01*
X0184370Y0213511D02*
X0182742Y0213511D01*
X0183026Y0211912D02*
X0184086Y0211912D01*
X0184086Y0210314D02*
X0183026Y0210314D01*
X0183026Y0208715D02*
X0184086Y0208715D01*
X0184524Y0207117D02*
X0182587Y0207117D01*
X0181331Y0205518D02*
X0185781Y0205518D01*
X0184540Y0203920D02*
X0182572Y0203920D01*
X0183026Y0202321D02*
X0184086Y0202321D01*
X0184086Y0200723D02*
X0183026Y0200723D01*
X0183026Y0199124D02*
X0184086Y0199124D01*
X0184355Y0197526D02*
X0182757Y0197526D01*
X0181740Y0195927D02*
X0185372Y0195927D01*
X0191740Y0195927D02*
X0201372Y0195927D01*
X0200355Y0197526D02*
X0192757Y0197526D01*
X0193026Y0199124D02*
X0200086Y0199124D01*
X0200086Y0200723D02*
X0193026Y0200723D01*
X0193026Y0202321D02*
X0200086Y0202321D01*
X0200540Y0203920D02*
X0192572Y0203920D01*
X0191331Y0205518D02*
X0201781Y0205518D01*
X0200524Y0207117D02*
X0192587Y0207117D01*
X0193026Y0208715D02*
X0200086Y0208715D01*
X0200086Y0210314D02*
X0193026Y0210314D01*
X0193026Y0211912D02*
X0200086Y0211912D01*
X0200370Y0213511D02*
X0192742Y0213511D01*
X0191703Y0215109D02*
X0201409Y0215109D01*
X0207703Y0215109D02*
X0211409Y0215109D01*
X0210370Y0213511D02*
X0208742Y0213511D01*
X0209026Y0211912D02*
X0210086Y0211912D01*
X0210086Y0210314D02*
X0209026Y0210314D01*
X0209026Y0208715D02*
X0210086Y0208715D01*
X0210524Y0207117D02*
X0208587Y0207117D01*
X0207331Y0205518D02*
X0211781Y0205518D01*
X0210540Y0203920D02*
X0208572Y0203920D01*
X0209026Y0202321D02*
X0210086Y0202321D01*
X0210086Y0200723D02*
X0209026Y0200723D01*
X0209026Y0199124D02*
X0210086Y0199124D01*
X0210355Y0197526D02*
X0208757Y0197526D01*
X0207740Y0195927D02*
X0210857Y0195927D01*
X0210336Y0194329D02*
X0029856Y0194329D01*
X0029856Y0195927D02*
X0095372Y0195927D01*
X0096287Y0192730D02*
X0209816Y0192730D01*
X0209295Y0191132D02*
X0097602Y0191132D01*
X0098072Y0189533D02*
X0208774Y0189533D01*
X0205783Y0177080D02*
X0204846Y0176143D01*
X0204846Y0175257D01*
X0199975Y0175329D01*
X0199975Y0176517D01*
X0199194Y0177298D01*
X0250257Y0177298D01*
X0250824Y0177142D01*
X0251096Y0177298D01*
X0251410Y0177298D01*
X0251825Y0177713D01*
X0252335Y0178003D01*
X0252418Y0178306D01*
X0252640Y0178528D01*
X0252640Y0179115D01*
X0256434Y0192952D01*
X0256656Y0193173D01*
X0256656Y0193761D01*
X0256811Y0194327D01*
X0256656Y0194599D01*
X0256656Y0195096D01*
X0257088Y0195275D01*
X0258345Y0196533D01*
X0259026Y0198176D01*
X0259026Y0202824D01*
X0258345Y0204467D01*
X0257313Y0205500D01*
X0258345Y0206533D01*
X0259026Y0208176D01*
X0259026Y0212824D01*
X0258345Y0214467D01*
X0257613Y0215200D01*
X0261499Y0215200D01*
X0260766Y0214467D01*
X0260086Y0212824D01*
X0260086Y0208176D01*
X0260766Y0206533D01*
X0261799Y0205500D01*
X0260766Y0204467D01*
X0260086Y0202824D01*
X0260086Y0198176D01*
X0260766Y0196533D01*
X0262024Y0195275D01*
X0263667Y0194595D01*
X0265445Y0194595D01*
X0267088Y0195275D01*
X0268345Y0196533D01*
X0269026Y0198176D01*
X0269026Y0202824D01*
X0268345Y0204467D01*
X0267313Y0205500D01*
X0268345Y0206533D01*
X0269026Y0208176D01*
X0269026Y0212824D01*
X0268345Y0214467D01*
X0267613Y0215200D01*
X0271499Y0215200D01*
X0270766Y0214467D01*
X0270086Y0212824D01*
X0270086Y0208176D01*
X0270766Y0206533D01*
X0271799Y0205500D01*
X0270766Y0204467D01*
X0270086Y0202824D01*
X0270086Y0198176D01*
X0270766Y0196533D01*
X0272024Y0195275D01*
X0273667Y0194595D01*
X0275445Y0194595D01*
X0277088Y0195275D01*
X0278345Y0196533D01*
X0279026Y0198176D01*
X0279026Y0202824D01*
X0278345Y0204467D01*
X0277313Y0205500D01*
X0278345Y0206533D01*
X0279026Y0208176D01*
X0279026Y0212824D01*
X0278345Y0214467D01*
X0277613Y0215200D01*
X0292091Y0215200D01*
X0292091Y0158662D01*
X0291371Y0159382D01*
X0288840Y0160843D01*
X0286017Y0161599D01*
X0283095Y0161599D01*
X0280272Y0160843D01*
X0277741Y0159382D01*
X0277143Y0158784D01*
X0277143Y0158938D01*
X0272575Y0158938D01*
X0272575Y0160487D01*
X0277143Y0160487D01*
X0277143Y0163099D01*
X0277021Y0163557D01*
X0276784Y0163967D01*
X0276449Y0164303D01*
X0276038Y0164540D01*
X0275580Y0164662D01*
X0272575Y0164662D01*
X0272575Y0160487D01*
X0271025Y0160487D01*
X0271025Y0158938D01*
X0266457Y0158938D01*
X0266457Y0156326D01*
X0266579Y0155868D01*
X0266816Y0155458D01*
X0267151Y0155123D01*
X0267562Y0154886D01*
X0268020Y0154763D01*
X0271025Y0154763D01*
X0271025Y0158938D01*
X0272575Y0158938D01*
X0272575Y0154763D01*
X0274207Y0154763D01*
X0273457Y0151961D01*
X0273457Y0149039D01*
X0274213Y0146216D01*
X0275674Y0143685D01*
X0277741Y0141618D01*
X0280272Y0140157D01*
X0283095Y0139401D01*
X0286017Y0139401D01*
X0288840Y0140157D01*
X0291371Y0141618D01*
X0292091Y0142338D01*
X0292091Y0035530D01*
X0290142Y0033581D01*
X0281554Y0024993D01*
X0281554Y0024993D01*
X0280063Y0023502D01*
X0279256Y0021554D01*
X0279256Y0015800D01*
X0277861Y0015800D01*
X0278456Y0016394D01*
X0279156Y0018085D01*
X0279156Y0022915D01*
X0278456Y0024606D01*
X0277561Y0025500D01*
X0278456Y0026394D01*
X0279156Y0028085D01*
X0279156Y0032915D01*
X0278456Y0034606D01*
X0277162Y0035900D01*
X0275471Y0036600D01*
X0273641Y0036600D01*
X0271950Y0035900D01*
X0270656Y0034606D01*
X0269956Y0032915D01*
X0269956Y0028085D01*
X0270656Y0026394D01*
X0271551Y0025500D01*
X0270656Y0024606D01*
X0269956Y0022915D01*
X0269956Y0018085D01*
X0270656Y0016394D01*
X0271251Y0015800D01*
X0267861Y0015800D01*
X0268456Y0016394D01*
X0269156Y0018085D01*
X0269156Y0022915D01*
X0268456Y0024606D01*
X0267561Y0025500D01*
X0268456Y0026394D01*
X0269156Y0028085D01*
X0269156Y0032915D01*
X0268456Y0034606D01*
X0267162Y0035900D01*
X0265471Y0036600D01*
X0263641Y0036600D01*
X0261950Y0035900D01*
X0260656Y0034606D01*
X0259956Y0032915D01*
X0259956Y0028085D01*
X0260656Y0026394D01*
X0261551Y0025500D01*
X0260656Y0024606D01*
X0259956Y0022915D01*
X0259956Y0018085D01*
X0260656Y0016394D01*
X0261251Y0015800D01*
X0257861Y0015800D01*
X0258456Y0016394D01*
X0259156Y0018085D01*
X0259156Y0022915D01*
X0258456Y0024606D01*
X0257561Y0025500D01*
X0258456Y0026394D01*
X0259156Y0028085D01*
X0259156Y0032915D01*
X0258456Y0034606D01*
X0257162Y0035900D01*
X0255471Y0036600D01*
X0253641Y0036600D01*
X0251950Y0035900D01*
X0250656Y0034606D01*
X0249956Y0032915D01*
X0249956Y0028085D01*
X0250656Y0026394D01*
X0251551Y0025500D01*
X0250656Y0024606D01*
X0249956Y0022915D01*
X0249956Y0018085D01*
X0250656Y0016394D01*
X0251251Y0015800D01*
X0247861Y0015800D01*
X0248456Y0016394D01*
X0249156Y0018085D01*
X0249156Y0022915D01*
X0248456Y0024606D01*
X0247561Y0025500D01*
X0248456Y0026394D01*
X0249156Y0028085D01*
X0249156Y0032915D01*
X0248456Y0034606D01*
X0247162Y0035900D01*
X0245471Y0036600D01*
X0243641Y0036600D01*
X0241950Y0035900D01*
X0240656Y0034606D01*
X0239956Y0032915D01*
X0239956Y0028085D01*
X0240656Y0026394D01*
X0241551Y0025500D01*
X0240656Y0024606D01*
X0239956Y0022915D01*
X0239956Y0018085D01*
X0240656Y0016394D01*
X0241251Y0015800D01*
X0237861Y0015800D01*
X0238456Y0016394D01*
X0239156Y0018085D01*
X0239156Y0022915D01*
X0238456Y0024606D01*
X0237561Y0025500D01*
X0238456Y0026394D01*
X0239156Y0028085D01*
X0239156Y0032915D01*
X0238456Y0034606D01*
X0237162Y0035900D01*
X0235471Y0036600D01*
X0233641Y0036600D01*
X0231950Y0035900D01*
X0230656Y0034606D01*
X0229956Y0032915D01*
X0229956Y0028085D01*
X0230656Y0026394D01*
X0231551Y0025500D01*
X0230656Y0024606D01*
X0229956Y0022915D01*
X0229956Y0018085D01*
X0230656Y0016394D01*
X0231251Y0015800D01*
X0227861Y0015800D01*
X0228456Y0016394D01*
X0229156Y0018085D01*
X0229156Y0022915D01*
X0228456Y0024606D01*
X0227561Y0025500D01*
X0228456Y0026394D01*
X0229156Y0028085D01*
X0229156Y0032915D01*
X0228456Y0034606D01*
X0227162Y0035900D01*
X0225471Y0036600D01*
X0223641Y0036600D01*
X0221950Y0035900D01*
X0220656Y0034606D01*
X0219956Y0032915D01*
X0219956Y0028085D01*
X0220656Y0026394D01*
X0221551Y0025500D01*
X0220656Y0024606D01*
X0219956Y0022915D01*
X0219956Y0018085D01*
X0220656Y0016394D01*
X0221251Y0015800D01*
X0207613Y0015800D01*
X0208345Y0016533D01*
X0209026Y0018176D01*
X0209026Y0022824D01*
X0208345Y0024467D01*
X0207313Y0025500D01*
X0208345Y0026533D01*
X0209026Y0028176D01*
X0209026Y0032824D01*
X0208345Y0034467D01*
X0207088Y0035725D01*
X0205445Y0036405D01*
X0203667Y0036405D01*
X0202024Y0035725D01*
X0200766Y0034467D01*
X0200086Y0032824D01*
X0200086Y0028176D01*
X0200766Y0026533D01*
X0201799Y0025500D01*
X0200766Y0024467D01*
X0200086Y0022824D01*
X0200086Y0018176D01*
X0200766Y0016533D01*
X0201499Y0015800D01*
X0197895Y0015800D01*
X0198118Y0016023D01*
X0198550Y0016617D01*
X0198884Y0017272D01*
X0199111Y0017971D01*
X0199226Y0018697D01*
X0199226Y0020365D01*
X0194691Y0020365D01*
X0194691Y0020635D01*
X0199226Y0020635D01*
X0199226Y0022303D01*
X0199111Y0023029D01*
X0198884Y0023728D01*
X0198550Y0024383D01*
X0198118Y0024977D01*
X0197598Y0025497D01*
X0197594Y0025500D01*
X0197598Y0025503D01*
X0198118Y0026023D01*
X0198550Y0026617D01*
X0198884Y0027272D01*
X0199111Y0027971D01*
X0199226Y0028697D01*
X0199226Y0030365D01*
X0194691Y0030365D01*
X0194691Y0030635D01*
X0199226Y0030635D01*
X0199226Y0032303D01*
X0199111Y0033029D01*
X0198884Y0033728D01*
X0198550Y0034383D01*
X0198118Y0034977D01*
X0197598Y0035497D01*
X0197004Y0035929D01*
X0196349Y0036263D01*
X0195649Y0036490D01*
X0194923Y0036605D01*
X0194691Y0036605D01*
X0194691Y0030635D01*
X0194421Y0030635D01*
X0194421Y0036605D01*
X0194188Y0036605D01*
X0193462Y0036490D01*
X0192763Y0036263D01*
X0192108Y0035929D01*
X0191514Y0035497D01*
X0190994Y0034977D01*
X0190562Y0034383D01*
X0190228Y0033728D01*
X0190001Y0033029D01*
X0189886Y0032303D01*
X0189886Y0030635D01*
X0194421Y0030635D01*
X0194421Y0030365D01*
X0194691Y0030365D01*
X0194691Y0024395D01*
X0194691Y0020635D01*
X0194421Y0020635D01*
X0194421Y0030365D01*
X0189886Y0030365D01*
X0189886Y0028697D01*
X0190001Y0027971D01*
X0190228Y0027272D01*
X0190562Y0026617D01*
X0190994Y0026023D01*
X0191514Y0025503D01*
X0191517Y0025500D01*
X0191514Y0025497D01*
X0190994Y0024977D01*
X0190562Y0024383D01*
X0190228Y0023728D01*
X0190001Y0023029D01*
X0189886Y0022303D01*
X0189886Y0020635D01*
X0194421Y0020635D01*
X0194421Y0020365D01*
X0189886Y0020365D01*
X0189886Y0018697D01*
X0190001Y0017971D01*
X0190228Y0017272D01*
X0190562Y0016617D01*
X0190994Y0016023D01*
X0191216Y0015800D01*
X0187895Y0015800D01*
X0188118Y0016023D01*
X0188550Y0016617D01*
X0188884Y0017272D01*
X0189111Y0017971D01*
X0189226Y0018697D01*
X0189226Y0020365D01*
X0184691Y0020365D01*
X0184691Y0020635D01*
X0189226Y0020635D01*
X0189226Y0022303D01*
X0189111Y0023029D01*
X0188884Y0023728D01*
X0188550Y0024383D01*
X0188118Y0024977D01*
X0187598Y0025497D01*
X0187594Y0025500D01*
X0187598Y0025503D01*
X0188118Y0026023D01*
X0188550Y0026617D01*
X0188884Y0027272D01*
X0189111Y0027971D01*
X0189226Y0028697D01*
X0189226Y0030365D01*
X0184691Y0030365D01*
X0184691Y0030635D01*
X0189226Y0030635D01*
X0189226Y0032303D01*
X0189111Y0033029D01*
X0188884Y0033728D01*
X0188550Y0034383D01*
X0188118Y0034977D01*
X0187598Y0035497D01*
X0187004Y0035929D01*
X0186349Y0036263D01*
X0185649Y0036490D01*
X0184923Y0036605D01*
X0184691Y0036605D01*
X0184691Y0030635D01*
X0184421Y0030635D01*
X0184421Y0036605D01*
X0184188Y0036605D01*
X0183462Y0036490D01*
X0182763Y0036263D01*
X0182108Y0035929D01*
X0181514Y0035497D01*
X0180994Y0034977D01*
X0180562Y0034383D01*
X0180228Y0033728D01*
X0180001Y0033029D01*
X0179886Y0032303D01*
X0179886Y0030635D01*
X0184421Y0030635D01*
X0184421Y0030365D01*
X0184691Y0030365D01*
X0184691Y0026605D01*
X0184691Y0020635D01*
X0184421Y0020635D01*
X0184421Y0030365D01*
X0179886Y0030365D01*
X0179886Y0028697D01*
X0180001Y0027971D01*
X0180228Y0027272D01*
X0180562Y0026617D01*
X0180994Y0026023D01*
X0181514Y0025503D01*
X0181517Y0025500D01*
X0181514Y0025497D01*
X0180994Y0024977D01*
X0180562Y0024383D01*
X0180228Y0023728D01*
X0180001Y0023029D01*
X0179886Y0022303D01*
X0179886Y0020635D01*
X0184421Y0020635D01*
X0184421Y0020365D01*
X0179886Y0020365D01*
X0179886Y0018697D01*
X0180001Y0017971D01*
X0180228Y0017272D01*
X0180562Y0016617D01*
X0180994Y0016023D01*
X0181216Y0015800D01*
X0177613Y0015800D01*
X0178345Y0016533D01*
X0179026Y0018176D01*
X0179026Y0022824D01*
X0178345Y0024467D01*
X0177313Y0025500D01*
X0178345Y0026533D01*
X0179026Y0028176D01*
X0179026Y0032824D01*
X0178345Y0034467D01*
X0177088Y0035725D01*
X0176656Y0035904D01*
X0176656Y0039158D01*
X0193142Y0055644D01*
X0194372Y0056874D01*
X0194372Y0072648D01*
X0194747Y0072273D01*
X0200034Y0072273D01*
X0200972Y0073210D01*
X0200972Y0078498D01*
X0200034Y0079435D01*
X0199510Y0079435D01*
X0199510Y0081007D01*
X0199910Y0081407D01*
X0200566Y0080750D01*
X0204254Y0080750D01*
X0204910Y0081407D01*
X0205566Y0080750D01*
X0209254Y0080750D01*
X0209910Y0081407D01*
X0210566Y0080750D01*
X0214254Y0080750D01*
X0215191Y0081688D01*
X0215191Y0088919D01*
X0214254Y0089856D01*
X0213908Y0089856D01*
X0211416Y0108100D01*
X0211452Y0108100D01*
X0212389Y0109037D01*
X0212389Y0114325D01*
X0211452Y0115262D01*
X0206164Y0115262D01*
X0205227Y0114325D01*
X0205227Y0109037D01*
X0206164Y0108100D01*
X0207177Y0108100D01*
X0209735Y0089375D01*
X0209254Y0089856D01*
X0205566Y0089856D01*
X0204910Y0089200D01*
X0204510Y0089600D01*
X0204510Y0099264D01*
X0203280Y0100494D01*
X0184530Y0119244D01*
X0184530Y0120396D01*
X0184774Y0120641D01*
X0184789Y0120615D01*
X0185124Y0120280D01*
X0185534Y0120043D01*
X0185992Y0119920D01*
X0187410Y0119920D01*
X0187410Y0124673D01*
X0187410Y0124673D01*
X0187410Y0119920D01*
X0188828Y0119920D01*
X0189286Y0120043D01*
X0189697Y0120280D01*
X0189910Y0120494D01*
X0190124Y0120280D01*
X0190534Y0120043D01*
X0190992Y0119920D01*
X0192410Y0119920D01*
X0192410Y0124673D01*
X0187410Y0124673D01*
X0187410Y0124673D01*
X0190391Y0124673D01*
X0192410Y0124673D01*
X0192410Y0124673D01*
X0192410Y0124673D01*
X0192410Y0119920D01*
X0193828Y0119920D01*
X0194286Y0120043D01*
X0194697Y0120280D01*
X0194910Y0120494D01*
X0195124Y0120280D01*
X0195534Y0120043D01*
X0195992Y0119920D01*
X0197410Y0119920D01*
X0197410Y0124673D01*
X0192410Y0124673D01*
X0192410Y0124673D01*
X0195391Y0124673D01*
X0197410Y0124673D01*
X0197410Y0124673D01*
X0197410Y0124673D01*
X0197410Y0119920D01*
X0198828Y0119920D01*
X0199286Y0120043D01*
X0199697Y0120280D01*
X0200032Y0120615D01*
X0200046Y0120641D01*
X0200566Y0120120D01*
X0204254Y0120120D01*
X0204910Y0120777D01*
X0205566Y0120120D01*
X0205970Y0120120D01*
X0206314Y0117824D01*
X0206314Y0117110D01*
X0206440Y0116985D01*
X0206466Y0116809D01*
X0207040Y0116385D01*
X0207544Y0115880D01*
X0207722Y0115880D01*
X0207865Y0115775D01*
X0208571Y0115880D01*
X0225965Y0115880D01*
X0229649Y0111670D01*
X0229649Y0104719D01*
X0230586Y0103782D01*
X0239786Y0103782D01*
X0240723Y0104719D01*
X0240723Y0112344D01*
X0239786Y0113281D01*
X0233820Y0113281D01*
X0229018Y0118769D01*
X0229018Y0118850D01*
X0228452Y0119416D01*
X0227926Y0120018D01*
X0227845Y0120023D01*
X0227788Y0120080D01*
X0226988Y0120080D01*
X0226190Y0120134D01*
X0226129Y0120080D01*
X0210223Y0120080D01*
X0210155Y0120532D01*
X0210566Y0120120D01*
X0214254Y0120120D01*
X0215191Y0121058D01*
X0215191Y0128179D01*
X0215782Y0128179D01*
X0216720Y0129116D01*
X0216720Y0134404D01*
X0215952Y0135172D01*
X0223445Y0135172D01*
X0233873Y0119853D01*
X0233873Y0119630D01*
X0234349Y0119155D01*
X0234727Y0118599D01*
X0234946Y0118558D01*
X0235103Y0118400D01*
X0235776Y0118400D01*
X0236436Y0118275D01*
X0236620Y0118400D01*
X0270578Y0118400D01*
X0273129Y0115849D01*
X0276982Y0115849D01*
X0279707Y0118573D01*
X0279707Y0122427D01*
X0278773Y0123361D01*
X0278854Y0123361D01*
X0280405Y0121931D01*
X0280405Y0118573D01*
X0283129Y0115849D01*
X0286982Y0115849D01*
X0289707Y0118573D01*
X0289707Y0122427D01*
X0286982Y0125151D01*
X0283129Y0125151D01*
X0283119Y0125141D01*
X0281129Y0126976D01*
X0280544Y0127561D01*
X0280494Y0127561D01*
X0280458Y0127594D01*
X0279631Y0127561D01*
X0278694Y0127561D01*
X0279707Y0128573D01*
X0279707Y0132427D01*
X0277749Y0134384D01*
X0279084Y0134384D01*
X0280575Y0132596D01*
X0280405Y0132427D01*
X0280405Y0128573D01*
X0283129Y0125849D01*
X0286982Y0125849D01*
X0289707Y0128573D01*
X0289707Y0132427D01*
X0286982Y0135151D01*
X0283913Y0135151D01*
X0282168Y0137245D01*
X0282168Y0137354D01*
X0281620Y0137902D01*
X0281124Y0138497D01*
X0281015Y0138507D01*
X0280938Y0138584D01*
X0280163Y0138584D01*
X0279391Y0138654D01*
X0279307Y0138584D01*
X0237744Y0138584D01*
X0232955Y0144331D01*
X0232955Y0144441D01*
X0232407Y0144988D01*
X0231912Y0145583D01*
X0231802Y0145593D01*
X0231725Y0145671D01*
X0230950Y0145671D01*
X0230179Y0145741D01*
X0230095Y0145671D01*
X0203321Y0145671D01*
X0203321Y0152304D01*
X0202595Y0153030D01*
X0204646Y0160162D01*
X0204646Y0159299D01*
X0204646Y0157881D01*
X0204768Y0157423D01*
X0205005Y0157013D01*
X0205340Y0156678D01*
X0205751Y0156441D01*
X0206209Y0156318D01*
X0210776Y0156318D01*
X0210776Y0159299D01*
X0204646Y0159299D01*
X0210776Y0159299D01*
X0210776Y0159299D01*
X0210776Y0159299D01*
X0210776Y0156318D01*
X0215344Y0156318D01*
X0215802Y0156441D01*
X0216212Y0156678D01*
X0216547Y0157013D01*
X0216784Y0157423D01*
X0216907Y0157881D01*
X0216907Y0159299D01*
X0210777Y0159299D01*
X0210777Y0159299D01*
X0216907Y0159299D01*
X0216907Y0160717D01*
X0216784Y0161175D01*
X0216547Y0161586D01*
X0216212Y0161921D01*
X0216187Y0161935D01*
X0216707Y0162455D01*
X0216707Y0166143D01*
X0216051Y0166799D01*
X0216707Y0167455D01*
X0216707Y0171143D01*
X0216051Y0171799D01*
X0216707Y0172455D01*
X0216707Y0176143D01*
X0215770Y0177080D01*
X0205783Y0177080D01*
X0205448Y0176745D02*
X0199747Y0176745D01*
X0199975Y0170351D02*
X0204846Y0170351D01*
X0204846Y0168753D02*
X0200137Y0168753D01*
X0200175Y0167154D02*
X0205147Y0167154D01*
X0201823Y0165556D02*
X0195902Y0165556D01*
X0195902Y0165335D02*
X0200175Y0165335D01*
X0200175Y0163019D01*
X0200052Y0162561D01*
X0199815Y0162151D01*
X0199480Y0161816D01*
X0199070Y0161579D01*
X0198612Y0161456D01*
X0195902Y0161456D01*
X0195902Y0165335D01*
X0194942Y0165335D02*
X0194942Y0161456D01*
X0192232Y0161456D01*
X0191775Y0161579D01*
X0191364Y0161816D01*
X0191029Y0162151D01*
X0190792Y0162561D01*
X0190669Y0163019D01*
X0190669Y0165335D01*
X0194942Y0165335D01*
X0194942Y0165556D02*
X0186002Y0165556D01*
X0186002Y0167154D02*
X0190669Y0167154D01*
X0190707Y0168753D02*
X0186002Y0168753D01*
X0185686Y0170351D02*
X0190869Y0170351D01*
X0190669Y0163957D02*
X0186002Y0163957D01*
X0185456Y0162359D02*
X0190909Y0162359D01*
X0194942Y0162359D02*
X0195902Y0162359D01*
X0195902Y0163957D02*
X0194942Y0163957D01*
X0200175Y0163957D02*
X0201367Y0163957D01*
X0200907Y0162359D02*
X0199935Y0162359D01*
X0199528Y0157563D02*
X0178059Y0157563D01*
X0178358Y0155965D02*
X0199069Y0155965D01*
X0198609Y0154366D02*
X0178656Y0154366D01*
X0174980Y0151169D02*
X0159239Y0151169D01*
X0159239Y0149570D02*
X0179010Y0149570D01*
X0183686Y0152768D02*
X0187986Y0152768D01*
X0185671Y0147972D02*
X0159239Y0147972D01*
X0159815Y0146373D02*
X0187523Y0146373D01*
X0195378Y0152768D02*
X0195466Y0152768D01*
X0202858Y0152768D02*
X0241917Y0152768D01*
X0240318Y0154366D02*
X0202979Y0154366D01*
X0203439Y0155965D02*
X0238720Y0155965D01*
X0237417Y0157268D02*
X0244203Y0150481D01*
X0244203Y0147226D01*
X0245140Y0146289D01*
X0250428Y0146289D01*
X0251365Y0147226D01*
X0251365Y0152514D01*
X0250428Y0153451D01*
X0247173Y0153451D01*
X0241617Y0159008D01*
X0241617Y0168146D01*
X0244413Y0168404D01*
X0244413Y0167711D01*
X0244790Y0167334D01*
X0244572Y0167117D01*
X0244335Y0166707D01*
X0244213Y0166249D01*
X0244213Y0163932D01*
X0248486Y0163932D01*
X0248486Y0162973D01*
X0249445Y0162973D01*
X0249445Y0159094D01*
X0252155Y0159094D01*
X0252613Y0159216D01*
X0253023Y0159453D01*
X0253358Y0159788D01*
X0253595Y0160199D01*
X0253718Y0160657D01*
X0253718Y0162973D01*
X0249445Y0162973D01*
X0249445Y0163932D01*
X0253718Y0163932D01*
X0253718Y0166249D01*
X0253595Y0166707D01*
X0253358Y0167117D01*
X0253141Y0167334D01*
X0253518Y0167711D01*
X0253518Y0168794D01*
X0266657Y0168680D01*
X0266657Y0166924D01*
X0267594Y0165987D01*
X0276006Y0165987D01*
X0276943Y0166924D01*
X0276943Y0174549D01*
X0276006Y0175486D01*
X0267594Y0175486D01*
X0266657Y0174549D01*
X0266657Y0172881D01*
X0253518Y0172994D01*
X0253518Y0174155D01*
X0252581Y0175092D01*
X0245350Y0175092D01*
X0244413Y0174155D01*
X0244413Y0172622D01*
X0238798Y0172104D01*
X0238564Y0172198D01*
X0238063Y0172556D01*
X0237991Y0172544D01*
X0237180Y0173054D01*
X0237180Y0176143D01*
X0236242Y0177080D01*
X0226255Y0177080D01*
X0225318Y0176143D01*
X0225318Y0172455D01*
X0225974Y0171799D01*
X0225318Y0171143D01*
X0225318Y0167455D01*
X0225974Y0166799D01*
X0225318Y0166143D01*
X0225318Y0162455D01*
X0225974Y0161799D01*
X0225318Y0161143D01*
X0225318Y0157455D01*
X0226255Y0156518D01*
X0236242Y0156518D01*
X0237180Y0157455D01*
X0237180Y0161143D01*
X0236523Y0161799D01*
X0237180Y0162455D01*
X0237180Y0166143D01*
X0236523Y0166799D01*
X0237180Y0167455D01*
X0237180Y0167737D01*
X0237417Y0167759D01*
X0237417Y0157268D01*
X0237417Y0157563D02*
X0237180Y0157563D01*
X0237180Y0159162D02*
X0237417Y0159162D01*
X0237417Y0160760D02*
X0237180Y0160760D01*
X0237083Y0162359D02*
X0237417Y0162359D01*
X0237417Y0163957D02*
X0237180Y0163957D01*
X0237180Y0165556D02*
X0237417Y0165556D01*
X0237417Y0167154D02*
X0236878Y0167154D01*
X0241617Y0167154D02*
X0244609Y0167154D01*
X0244213Y0165556D02*
X0241617Y0165556D01*
X0241617Y0163957D02*
X0244213Y0163957D01*
X0244213Y0162973D02*
X0244213Y0160657D01*
X0244335Y0160199D01*
X0244572Y0159788D01*
X0244907Y0159453D01*
X0245318Y0159216D01*
X0245776Y0159094D01*
X0248486Y0159094D01*
X0248486Y0162973D01*
X0244213Y0162973D01*
X0244213Y0162359D02*
X0241617Y0162359D01*
X0241617Y0160760D02*
X0244213Y0160760D01*
X0245522Y0159162D02*
X0241617Y0159162D01*
X0243061Y0157563D02*
X0266457Y0157563D01*
X0266554Y0155965D02*
X0244660Y0155965D01*
X0246258Y0154366D02*
X0274101Y0154366D01*
X0273673Y0152768D02*
X0251112Y0152768D01*
X0251365Y0151169D02*
X0273457Y0151169D01*
X0273457Y0149570D02*
X0251365Y0149570D01*
X0251365Y0147972D02*
X0273743Y0147972D01*
X0274171Y0146373D02*
X0250513Y0146373D01*
X0245056Y0146373D02*
X0203321Y0146373D01*
X0203321Y0147972D02*
X0244203Y0147972D01*
X0244203Y0149570D02*
X0203321Y0149570D01*
X0203321Y0151169D02*
X0243515Y0151169D01*
X0248486Y0159162D02*
X0249445Y0159162D01*
X0249445Y0160760D02*
X0248486Y0160760D01*
X0248486Y0162359D02*
X0249445Y0162359D01*
X0253718Y0162359D02*
X0266457Y0162359D01*
X0266457Y0163099D02*
X0266457Y0160487D01*
X0271025Y0160487D01*
X0271025Y0164662D01*
X0268020Y0164662D01*
X0267562Y0164540D01*
X0267151Y0164303D01*
X0266816Y0163967D01*
X0266579Y0163557D01*
X0266457Y0163099D01*
X0266810Y0163957D02*
X0253718Y0163957D01*
X0253718Y0165556D02*
X0292091Y0165556D01*
X0292091Y0167154D02*
X0276943Y0167154D01*
X0276943Y0168753D02*
X0292091Y0168753D01*
X0292091Y0170351D02*
X0276943Y0170351D01*
X0276943Y0171950D02*
X0292091Y0171950D01*
X0292091Y0173548D02*
X0276943Y0173548D01*
X0276345Y0175147D02*
X0292091Y0175147D01*
X0292091Y0176745D02*
X0236577Y0176745D01*
X0237180Y0175147D02*
X0267255Y0175147D01*
X0266657Y0173548D02*
X0253518Y0173548D01*
X0253518Y0168753D02*
X0258289Y0168753D01*
X0253321Y0167154D02*
X0266657Y0167154D01*
X0271025Y0163957D02*
X0272575Y0163957D01*
X0272575Y0162359D02*
X0271025Y0162359D01*
X0271025Y0160760D02*
X0272575Y0160760D01*
X0272575Y0159162D02*
X0277521Y0159162D01*
X0277143Y0160760D02*
X0280128Y0160760D01*
X0277143Y0162359D02*
X0292091Y0162359D01*
X0292091Y0163957D02*
X0276790Y0163957D01*
X0271025Y0159162D02*
X0252408Y0159162D01*
X0253718Y0160760D02*
X0266457Y0160760D01*
X0271025Y0157563D02*
X0272575Y0157563D01*
X0272575Y0155965D02*
X0271025Y0155965D01*
X0275045Y0144775D02*
X0232621Y0144775D01*
X0233917Y0143176D02*
X0276183Y0143176D01*
X0277811Y0141578D02*
X0235249Y0141578D01*
X0236582Y0139979D02*
X0280935Y0139979D01*
X0281221Y0138381D02*
X0292091Y0138381D01*
X0292091Y0139979D02*
X0288177Y0139979D01*
X0291301Y0141578D02*
X0292091Y0141578D01*
X0292091Y0136782D02*
X0282553Y0136782D01*
X0283886Y0135184D02*
X0292091Y0135184D01*
X0292091Y0133585D02*
X0288548Y0133585D01*
X0289707Y0131987D02*
X0292091Y0131987D01*
X0292091Y0130388D02*
X0289707Y0130388D01*
X0289707Y0128790D02*
X0292091Y0128790D01*
X0292091Y0127191D02*
X0288325Y0127191D01*
X0288139Y0123994D02*
X0292091Y0123994D01*
X0292091Y0122396D02*
X0289707Y0122396D01*
X0289707Y0120797D02*
X0292091Y0120797D01*
X0292091Y0119199D02*
X0289707Y0119199D01*
X0288734Y0117600D02*
X0292091Y0117600D01*
X0292091Y0116002D02*
X0287135Y0116002D01*
X0287065Y0115351D02*
X0285191Y0115351D01*
X0285191Y0110635D01*
X0289907Y0110635D01*
X0289907Y0112509D01*
X0287065Y0115351D01*
X0288013Y0114403D02*
X0292091Y0114403D01*
X0292091Y0112805D02*
X0289612Y0112805D01*
X0289907Y0111206D02*
X0292091Y0111206D01*
X0292091Y0109608D02*
X0289907Y0109608D01*
X0289907Y0110365D02*
X0289907Y0108491D01*
X0287065Y0105649D01*
X0285191Y0105649D01*
X0285191Y0110365D01*
X0285191Y0110635D01*
X0284921Y0110635D01*
X0284921Y0115351D01*
X0283046Y0115351D01*
X0280205Y0112509D01*
X0280205Y0110635D01*
X0284921Y0110635D01*
X0284921Y0110365D01*
X0285191Y0110365D01*
X0289907Y0110365D01*
X0289426Y0108009D02*
X0292091Y0108009D01*
X0292091Y0106411D02*
X0287827Y0106411D01*
X0285191Y0106411D02*
X0284921Y0106411D01*
X0284921Y0105649D02*
X0284921Y0110365D01*
X0280205Y0110365D01*
X0280205Y0108491D01*
X0283046Y0105649D01*
X0284921Y0105649D01*
X0284921Y0108009D02*
X0285191Y0108009D01*
X0285191Y0109608D02*
X0284921Y0109608D01*
X0284921Y0111206D02*
X0285191Y0111206D01*
X0285191Y0112805D02*
X0284921Y0112805D01*
X0284921Y0114403D02*
X0285191Y0114403D01*
X0282976Y0116002D02*
X0277135Y0116002D01*
X0276982Y0115151D02*
X0273129Y0115151D01*
X0270405Y0112427D01*
X0270405Y0108573D01*
X0273129Y0105849D01*
X0276982Y0105849D01*
X0279707Y0108573D01*
X0279707Y0112427D01*
X0276982Y0115151D01*
X0277730Y0114403D02*
X0282099Y0114403D01*
X0280500Y0112805D02*
X0279329Y0112805D01*
X0279707Y0111206D02*
X0280205Y0111206D01*
X0280205Y0109608D02*
X0279707Y0109608D01*
X0279143Y0108009D02*
X0280686Y0108009D01*
X0282285Y0106411D02*
X0277544Y0106411D01*
X0272567Y0106411D02*
X0240723Y0106411D01*
X0240723Y0108009D02*
X0270969Y0108009D01*
X0270405Y0109608D02*
X0240723Y0109608D01*
X0240723Y0111206D02*
X0270405Y0111206D01*
X0270783Y0112805D02*
X0240262Y0112805D01*
X0232838Y0114403D02*
X0272381Y0114403D01*
X0272976Y0116002D02*
X0231440Y0116002D01*
X0230041Y0117600D02*
X0271378Y0117600D01*
X0278734Y0117600D02*
X0281378Y0117600D01*
X0280405Y0119199D02*
X0279707Y0119199D01*
X0279707Y0120797D02*
X0280405Y0120797D01*
X0279901Y0122396D02*
X0279707Y0122396D01*
X0282629Y0125593D02*
X0292091Y0125593D01*
X0281787Y0127191D02*
X0280913Y0127191D01*
X0280405Y0128790D02*
X0279707Y0128790D01*
X0279707Y0130388D02*
X0280405Y0130388D01*
X0280405Y0131987D02*
X0279707Y0131987D01*
X0279750Y0133585D02*
X0278548Y0133585D01*
X0291591Y0159162D02*
X0292091Y0159162D01*
X0292091Y0160760D02*
X0288983Y0160760D01*
X0292091Y0178344D02*
X0252456Y0178344D01*
X0252867Y0179942D02*
X0292091Y0179942D01*
X0292091Y0181541D02*
X0253305Y0181541D01*
X0253744Y0183139D02*
X0292091Y0183139D01*
X0292091Y0184738D02*
X0254182Y0184738D01*
X0254620Y0186336D02*
X0292091Y0186336D01*
X0292091Y0187935D02*
X0255058Y0187935D01*
X0255497Y0189533D02*
X0292091Y0189533D01*
X0292091Y0191132D02*
X0255935Y0191132D01*
X0256373Y0192730D02*
X0292091Y0192730D01*
X0292091Y0194329D02*
X0256810Y0194329D01*
X0257740Y0195927D02*
X0261372Y0195927D01*
X0260355Y0197526D02*
X0258757Y0197526D01*
X0259026Y0199124D02*
X0260086Y0199124D01*
X0260086Y0200723D02*
X0259026Y0200723D01*
X0259026Y0202321D02*
X0260086Y0202321D01*
X0260540Y0203920D02*
X0258572Y0203920D01*
X0257331Y0205518D02*
X0261781Y0205518D01*
X0260524Y0207117D02*
X0258587Y0207117D01*
X0259026Y0208715D02*
X0260086Y0208715D01*
X0260086Y0210314D02*
X0259026Y0210314D01*
X0259026Y0211912D02*
X0260086Y0211912D01*
X0260370Y0213511D02*
X0258742Y0213511D01*
X0257703Y0215109D02*
X0261409Y0215109D01*
X0267703Y0215109D02*
X0271409Y0215109D01*
X0270370Y0213511D02*
X0268742Y0213511D01*
X0269026Y0211912D02*
X0270086Y0211912D01*
X0270086Y0210314D02*
X0269026Y0210314D01*
X0269026Y0208715D02*
X0270086Y0208715D01*
X0270524Y0207117D02*
X0268587Y0207117D01*
X0267331Y0205518D02*
X0271781Y0205518D01*
X0270540Y0203920D02*
X0268572Y0203920D01*
X0269026Y0202321D02*
X0270086Y0202321D01*
X0270086Y0200723D02*
X0269026Y0200723D01*
X0269026Y0199124D02*
X0270086Y0199124D01*
X0270355Y0197526D02*
X0268757Y0197526D01*
X0267740Y0195927D02*
X0271372Y0195927D01*
X0277740Y0195927D02*
X0292091Y0195927D01*
X0292091Y0197526D02*
X0278757Y0197526D01*
X0279026Y0199124D02*
X0292091Y0199124D01*
X0292091Y0200723D02*
X0279026Y0200723D01*
X0279026Y0202321D02*
X0292091Y0202321D01*
X0292091Y0203920D02*
X0278572Y0203920D01*
X0277331Y0205518D02*
X0292091Y0205518D01*
X0292091Y0207117D02*
X0278587Y0207117D01*
X0279026Y0208715D02*
X0292091Y0208715D01*
X0292091Y0210314D02*
X0279026Y0210314D01*
X0279026Y0211912D02*
X0292091Y0211912D01*
X0292091Y0213511D02*
X0278742Y0213511D01*
X0277703Y0215109D02*
X0292091Y0215109D01*
X0244413Y0173548D02*
X0237180Y0173548D01*
X0225824Y0171950D02*
X0216201Y0171950D01*
X0216707Y0173548D02*
X0225318Y0173548D01*
X0225318Y0175147D02*
X0216707Y0175147D01*
X0216105Y0176745D02*
X0225920Y0176745D01*
X0225318Y0170351D02*
X0216707Y0170351D01*
X0216707Y0168753D02*
X0225318Y0168753D01*
X0225619Y0167154D02*
X0216406Y0167154D01*
X0216707Y0165556D02*
X0225318Y0165556D01*
X0225318Y0163957D02*
X0216707Y0163957D01*
X0216610Y0162359D02*
X0225415Y0162359D01*
X0225318Y0160760D02*
X0216896Y0160760D01*
X0216907Y0159162D02*
X0225318Y0159162D01*
X0225318Y0157563D02*
X0216822Y0157563D01*
X0210776Y0157563D02*
X0210776Y0157563D01*
X0210776Y0159162D02*
X0210776Y0159162D01*
X0204646Y0159162D02*
X0204358Y0159162D01*
X0204731Y0157563D02*
X0203899Y0157563D01*
X0209557Y0133585D02*
X0171050Y0133585D01*
X0171050Y0131987D02*
X0176426Y0131987D01*
X0175920Y0130388D02*
X0171050Y0130388D01*
X0174690Y0128790D02*
X0175130Y0128790D01*
X0187410Y0123994D02*
X0187410Y0123994D01*
X0187410Y0122396D02*
X0187410Y0122396D01*
X0187410Y0120797D02*
X0187410Y0120797D01*
X0184575Y0119199D02*
X0206108Y0119199D01*
X0206314Y0117600D02*
X0186174Y0117600D01*
X0187772Y0116002D02*
X0207423Y0116002D01*
X0205305Y0114403D02*
X0189371Y0114403D01*
X0190969Y0112805D02*
X0205227Y0112805D01*
X0205227Y0111206D02*
X0192568Y0111206D01*
X0194166Y0109608D02*
X0205227Y0109608D01*
X0207190Y0108009D02*
X0195765Y0108009D01*
X0197363Y0106411D02*
X0207408Y0106411D01*
X0207626Y0104812D02*
X0198962Y0104812D01*
X0200560Y0103214D02*
X0207845Y0103214D01*
X0208063Y0101615D02*
X0202159Y0101615D01*
X0203757Y0100017D02*
X0208281Y0100017D01*
X0208500Y0098418D02*
X0204510Y0098418D01*
X0204510Y0096820D02*
X0208718Y0096820D01*
X0208936Y0095221D02*
X0204510Y0095221D01*
X0204510Y0093623D02*
X0209155Y0093623D01*
X0209373Y0092024D02*
X0204510Y0092024D01*
X0204510Y0090426D02*
X0209591Y0090426D01*
X0213830Y0090426D02*
X0258514Y0090426D01*
X0259048Y0091716D02*
X0257748Y0088577D01*
X0257748Y0085179D01*
X0259048Y0082040D01*
X0261451Y0079638D01*
X0264589Y0078338D01*
X0267987Y0078338D01*
X0269594Y0079003D01*
X0269594Y0075766D01*
X0270293Y0075067D01*
X0269594Y0074367D01*
X0269594Y0067892D01*
X0270293Y0067193D01*
X0269594Y0066493D01*
X0269594Y0060018D01*
X0270293Y0059319D01*
X0269594Y0058619D01*
X0269594Y0052144D01*
X0270531Y0051207D01*
X0277006Y0051207D01*
X0277943Y0052144D01*
X0277943Y0058619D01*
X0277244Y0059319D01*
X0277943Y0060018D01*
X0277943Y0066493D01*
X0277244Y0067193D01*
X0277943Y0067892D01*
X0277943Y0074367D01*
X0277244Y0075067D01*
X0277943Y0075766D01*
X0277943Y0082241D01*
X0277006Y0083179D01*
X0274000Y0083179D01*
X0274828Y0085179D01*
X0274828Y0088577D01*
X0273528Y0091716D01*
X0271126Y0094118D01*
X0267987Y0095418D01*
X0264589Y0095418D01*
X0261451Y0094118D01*
X0259048Y0091716D01*
X0259357Y0092024D02*
X0213612Y0092024D01*
X0213394Y0093623D02*
X0229595Y0093623D01*
X0229571Y0093663D02*
X0229808Y0093253D01*
X0230144Y0092918D01*
X0230554Y0092681D01*
X0231012Y0092558D01*
X0234411Y0092558D01*
X0234411Y0096733D01*
X0235961Y0096733D01*
X0235961Y0098283D01*
X0240923Y0098283D01*
X0240923Y0100894D01*
X0240800Y0101352D01*
X0240563Y0101763D01*
X0240228Y0102098D01*
X0239818Y0102335D01*
X0239360Y0102457D01*
X0235961Y0102457D01*
X0235961Y0098283D01*
X0234411Y0098283D01*
X0234411Y0102457D01*
X0231012Y0102457D01*
X0230554Y0102335D01*
X0230144Y0102098D01*
X0229808Y0101763D01*
X0229571Y0101352D01*
X0229449Y0100894D01*
X0229449Y0098283D01*
X0234411Y0098283D01*
X0234411Y0096733D01*
X0229449Y0096733D01*
X0229449Y0094121D01*
X0229571Y0093663D01*
X0229449Y0095221D02*
X0213175Y0095221D01*
X0212957Y0096820D02*
X0234411Y0096820D01*
X0235961Y0096820D02*
X0292091Y0096820D01*
X0292091Y0098418D02*
X0240923Y0098418D01*
X0240923Y0100017D02*
X0292091Y0100017D01*
X0292091Y0101615D02*
X0240648Y0101615D01*
X0240723Y0104812D02*
X0292091Y0104812D01*
X0292091Y0103214D02*
X0212084Y0103214D01*
X0211865Y0104812D02*
X0229649Y0104812D01*
X0229649Y0106411D02*
X0211647Y0106411D01*
X0211429Y0108009D02*
X0229649Y0108009D01*
X0229649Y0109608D02*
X0212389Y0109608D01*
X0212389Y0111206D02*
X0229649Y0111206D01*
X0228656Y0112805D02*
X0212389Y0112805D01*
X0212311Y0114403D02*
X0227258Y0114403D01*
X0228669Y0119199D02*
X0234305Y0119199D01*
X0233230Y0120797D02*
X0214931Y0120797D01*
X0215191Y0122396D02*
X0232142Y0122396D01*
X0231054Y0123994D02*
X0215191Y0123994D01*
X0215191Y0125593D02*
X0229966Y0125593D01*
X0228878Y0127191D02*
X0215191Y0127191D01*
X0216394Y0128790D02*
X0227790Y0128790D01*
X0226701Y0130388D02*
X0216720Y0130388D01*
X0216720Y0131987D02*
X0225613Y0131987D01*
X0224525Y0133585D02*
X0216720Y0133585D01*
X0209557Y0131987D02*
X0199752Y0131987D01*
X0200898Y0130388D02*
X0209557Y0130388D01*
X0209690Y0128790D02*
X0209884Y0128790D01*
X0205130Y0128790D02*
X0204690Y0128790D01*
X0197410Y0123994D02*
X0197410Y0123994D01*
X0197410Y0122396D02*
X0197410Y0122396D01*
X0197410Y0120797D02*
X0197410Y0120797D01*
X0192410Y0120797D02*
X0192410Y0120797D01*
X0192410Y0122396D02*
X0192410Y0122396D01*
X0192410Y0123994D02*
X0192410Y0123994D01*
X0212302Y0101615D02*
X0229723Y0101615D01*
X0229449Y0100017D02*
X0212520Y0100017D01*
X0212739Y0098418D02*
X0229449Y0098418D01*
X0234411Y0098418D02*
X0235961Y0098418D01*
X0235961Y0100017D02*
X0234411Y0100017D01*
X0234411Y0101615D02*
X0235961Y0101615D01*
X0235961Y0096733D02*
X0240923Y0096733D01*
X0240923Y0094121D01*
X0240800Y0093663D01*
X0240563Y0093253D01*
X0240228Y0092918D01*
X0239818Y0092681D01*
X0239360Y0092558D01*
X0235961Y0092558D01*
X0235961Y0096733D01*
X0235961Y0095221D02*
X0234411Y0095221D01*
X0234411Y0093623D02*
X0235961Y0093623D01*
X0240777Y0093623D02*
X0260955Y0093623D01*
X0264114Y0095221D02*
X0240923Y0095221D01*
X0257852Y0088827D02*
X0215191Y0088827D01*
X0215191Y0087229D02*
X0257748Y0087229D01*
X0257748Y0085630D02*
X0215191Y0085630D01*
X0215191Y0084032D02*
X0258223Y0084032D01*
X0258886Y0082433D02*
X0215191Y0082433D01*
X0214338Y0080834D02*
X0260254Y0080834D01*
X0262421Y0079236D02*
X0200234Y0079236D01*
X0200482Y0080834D02*
X0199510Y0080834D01*
X0200972Y0077637D02*
X0269594Y0077637D01*
X0269594Y0076039D02*
X0200972Y0076039D01*
X0200972Y0074440D02*
X0269667Y0074440D01*
X0269594Y0072842D02*
X0200603Y0072842D01*
X0194372Y0071243D02*
X0269594Y0071243D01*
X0269594Y0069645D02*
X0194372Y0069645D01*
X0194372Y0068046D02*
X0269594Y0068046D01*
X0269594Y0066448D02*
X0194372Y0066448D01*
X0194372Y0064849D02*
X0269594Y0064849D01*
X0269594Y0063251D02*
X0194372Y0063251D01*
X0194372Y0061652D02*
X0269594Y0061652D01*
X0269594Y0060054D02*
X0194372Y0060054D01*
X0194372Y0058455D02*
X0269594Y0058455D01*
X0269594Y0056857D02*
X0194355Y0056857D01*
X0192757Y0055258D02*
X0269594Y0055258D01*
X0269594Y0053660D02*
X0191158Y0053660D01*
X0189559Y0052061D02*
X0269677Y0052061D01*
X0277860Y0052061D02*
X0292091Y0052061D01*
X0292091Y0050463D02*
X0187961Y0050463D01*
X0186362Y0048864D02*
X0292091Y0048864D01*
X0292091Y0047266D02*
X0184764Y0047266D01*
X0183165Y0045667D02*
X0292091Y0045667D01*
X0292091Y0044069D02*
X0181567Y0044069D01*
X0179968Y0042470D02*
X0292091Y0042470D01*
X0292091Y0040872D02*
X0178370Y0040872D01*
X0176771Y0039273D02*
X0292091Y0039273D01*
X0292091Y0037675D02*
X0176656Y0037675D01*
X0176656Y0036076D02*
X0182397Y0036076D01*
X0184421Y0036076D02*
X0184691Y0036076D01*
X0184691Y0034478D02*
X0184421Y0034478D01*
X0184421Y0032879D02*
X0184691Y0032879D01*
X0184691Y0031281D02*
X0184421Y0031281D01*
X0184421Y0029682D02*
X0184691Y0029682D01*
X0184691Y0028084D02*
X0184421Y0028084D01*
X0184421Y0026485D02*
X0184691Y0026485D01*
X0184691Y0024887D02*
X0184421Y0024887D01*
X0184421Y0023288D02*
X0184691Y0023288D01*
X0184691Y0021690D02*
X0184421Y0021690D01*
X0179886Y0021690D02*
X0179026Y0021690D01*
X0179026Y0020091D02*
X0179886Y0020091D01*
X0179918Y0018493D02*
X0179026Y0018493D01*
X0178495Y0016894D02*
X0180421Y0016894D01*
X0180085Y0023288D02*
X0178834Y0023288D01*
X0177926Y0024887D02*
X0180928Y0024887D01*
X0180658Y0026485D02*
X0178298Y0026485D01*
X0178988Y0028084D02*
X0179983Y0028084D01*
X0179886Y0029682D02*
X0179026Y0029682D01*
X0179026Y0031281D02*
X0179886Y0031281D01*
X0179977Y0032879D02*
X0179003Y0032879D01*
X0178335Y0034478D02*
X0180631Y0034478D01*
X0186715Y0036076D02*
X0192397Y0036076D01*
X0194421Y0036076D02*
X0194691Y0036076D01*
X0194691Y0034478D02*
X0194421Y0034478D01*
X0194421Y0032879D02*
X0194691Y0032879D01*
X0194691Y0031281D02*
X0194421Y0031281D01*
X0194421Y0029682D02*
X0194691Y0029682D01*
X0194691Y0028084D02*
X0194421Y0028084D01*
X0194421Y0026485D02*
X0194691Y0026485D01*
X0194691Y0024887D02*
X0194421Y0024887D01*
X0194421Y0023288D02*
X0194691Y0023288D01*
X0194691Y0021690D02*
X0194421Y0021690D01*
X0199226Y0021690D02*
X0200086Y0021690D01*
X0200086Y0020091D02*
X0199226Y0020091D01*
X0199194Y0018493D02*
X0200086Y0018493D01*
X0200617Y0016894D02*
X0198691Y0016894D01*
X0199027Y0023288D02*
X0200278Y0023288D01*
X0201186Y0024887D02*
X0198184Y0024887D01*
X0198454Y0026485D02*
X0200814Y0026485D01*
X0200124Y0028084D02*
X0199129Y0028084D01*
X0199226Y0029682D02*
X0200086Y0029682D01*
X0200086Y0031281D02*
X0199226Y0031281D01*
X0199135Y0032879D02*
X0200109Y0032879D01*
X0200777Y0034478D02*
X0198481Y0034478D01*
X0196715Y0036076D02*
X0202873Y0036076D01*
X0206239Y0036076D02*
X0222376Y0036076D01*
X0220603Y0034478D02*
X0208335Y0034478D01*
X0209003Y0032879D02*
X0219956Y0032879D01*
X0219956Y0031281D02*
X0209026Y0031281D01*
X0209026Y0029682D02*
X0219956Y0029682D01*
X0219956Y0028084D02*
X0208988Y0028084D01*
X0208298Y0026485D02*
X0220619Y0026485D01*
X0220937Y0024887D02*
X0207926Y0024887D01*
X0208834Y0023288D02*
X0220110Y0023288D01*
X0219956Y0021690D02*
X0209026Y0021690D01*
X0209026Y0020091D02*
X0219956Y0020091D01*
X0219956Y0018493D02*
X0209026Y0018493D01*
X0208495Y0016894D02*
X0220449Y0016894D01*
X0228663Y0016894D02*
X0230449Y0016894D01*
X0229956Y0018493D02*
X0229156Y0018493D01*
X0229156Y0020091D02*
X0229956Y0020091D01*
X0229956Y0021690D02*
X0229156Y0021690D01*
X0229001Y0023288D02*
X0230110Y0023288D01*
X0230937Y0024887D02*
X0228175Y0024887D01*
X0228493Y0026485D02*
X0230619Y0026485D01*
X0229956Y0028084D02*
X0229155Y0028084D01*
X0229156Y0029682D02*
X0229956Y0029682D01*
X0229956Y0031281D02*
X0229156Y0031281D01*
X0229156Y0032879D02*
X0229956Y0032879D01*
X0230603Y0034478D02*
X0228509Y0034478D01*
X0226735Y0036076D02*
X0232376Y0036076D01*
X0236735Y0036076D02*
X0242376Y0036076D01*
X0240603Y0034478D02*
X0238509Y0034478D01*
X0239156Y0032879D02*
X0239956Y0032879D01*
X0239956Y0031281D02*
X0239156Y0031281D01*
X0239156Y0029682D02*
X0239956Y0029682D01*
X0239956Y0028084D02*
X0239155Y0028084D01*
X0238493Y0026485D02*
X0240619Y0026485D01*
X0240937Y0024887D02*
X0238175Y0024887D01*
X0239001Y0023288D02*
X0240110Y0023288D01*
X0239956Y0021690D02*
X0239156Y0021690D01*
X0239156Y0020091D02*
X0239956Y0020091D01*
X0239956Y0018493D02*
X0239156Y0018493D01*
X0238663Y0016894D02*
X0240449Y0016894D01*
X0248663Y0016894D02*
X0250449Y0016894D01*
X0249956Y0018493D02*
X0249156Y0018493D01*
X0249156Y0020091D02*
X0249956Y0020091D01*
X0249956Y0021690D02*
X0249156Y0021690D01*
X0249001Y0023288D02*
X0250110Y0023288D01*
X0250937Y0024887D02*
X0248175Y0024887D01*
X0248493Y0026485D02*
X0250619Y0026485D01*
X0249956Y0028084D02*
X0249155Y0028084D01*
X0249156Y0029682D02*
X0249956Y0029682D01*
X0249956Y0031281D02*
X0249156Y0031281D01*
X0249156Y0032879D02*
X0249956Y0032879D01*
X0250603Y0034478D02*
X0248509Y0034478D01*
X0246735Y0036076D02*
X0252376Y0036076D01*
X0256735Y0036076D02*
X0262376Y0036076D01*
X0260603Y0034478D02*
X0258509Y0034478D01*
X0259156Y0032879D02*
X0259956Y0032879D01*
X0259956Y0031281D02*
X0259156Y0031281D01*
X0259156Y0029682D02*
X0259956Y0029682D01*
X0259956Y0028084D02*
X0259155Y0028084D01*
X0258493Y0026485D02*
X0260619Y0026485D01*
X0260937Y0024887D02*
X0258175Y0024887D01*
X0259001Y0023288D02*
X0260110Y0023288D01*
X0259956Y0021690D02*
X0259156Y0021690D01*
X0259156Y0020091D02*
X0259956Y0020091D01*
X0259956Y0018493D02*
X0259156Y0018493D01*
X0258663Y0016894D02*
X0260449Y0016894D01*
X0268663Y0016894D02*
X0270449Y0016894D01*
X0269956Y0018493D02*
X0269156Y0018493D01*
X0269156Y0020091D02*
X0269956Y0020091D01*
X0269956Y0021690D02*
X0269156Y0021690D01*
X0269001Y0023288D02*
X0270110Y0023288D01*
X0270937Y0024887D02*
X0268175Y0024887D01*
X0268493Y0026485D02*
X0270619Y0026485D01*
X0269956Y0028084D02*
X0269155Y0028084D01*
X0269156Y0029682D02*
X0269956Y0029682D01*
X0269956Y0031281D02*
X0269156Y0031281D01*
X0269156Y0032879D02*
X0269956Y0032879D01*
X0270603Y0034478D02*
X0268509Y0034478D01*
X0266735Y0036076D02*
X0272376Y0036076D01*
X0276735Y0036076D02*
X0292091Y0036076D01*
X0291038Y0034478D02*
X0278509Y0034478D01*
X0279156Y0032879D02*
X0289440Y0032879D01*
X0290142Y0033581D02*
X0290142Y0033581D01*
X0287841Y0031281D02*
X0279156Y0031281D01*
X0279156Y0029682D02*
X0286243Y0029682D01*
X0284644Y0028084D02*
X0279155Y0028084D01*
X0278493Y0026485D02*
X0283046Y0026485D01*
X0281447Y0024887D02*
X0278175Y0024887D01*
X0279001Y0023288D02*
X0279974Y0023288D01*
X0279312Y0021690D02*
X0279156Y0021690D01*
X0279156Y0020091D02*
X0279256Y0020091D01*
X0279256Y0018493D02*
X0279156Y0018493D01*
X0279256Y0016894D02*
X0278663Y0016894D01*
X0277943Y0053660D02*
X0292091Y0053660D01*
X0292091Y0055258D02*
X0277943Y0055258D01*
X0277943Y0056857D02*
X0292091Y0056857D01*
X0292091Y0058455D02*
X0277943Y0058455D01*
X0277943Y0060054D02*
X0292091Y0060054D01*
X0292091Y0061652D02*
X0277943Y0061652D01*
X0277943Y0063251D02*
X0292091Y0063251D01*
X0292091Y0064849D02*
X0277943Y0064849D01*
X0277943Y0066448D02*
X0292091Y0066448D01*
X0292091Y0068046D02*
X0277943Y0068046D01*
X0277943Y0069645D02*
X0292091Y0069645D01*
X0292091Y0071243D02*
X0277943Y0071243D01*
X0277943Y0072842D02*
X0292091Y0072842D01*
X0292091Y0074440D02*
X0277870Y0074440D01*
X0277943Y0076039D02*
X0292091Y0076039D01*
X0292091Y0077637D02*
X0277943Y0077637D01*
X0277943Y0079236D02*
X0292091Y0079236D01*
X0292091Y0080834D02*
X0277943Y0080834D01*
X0277752Y0082433D02*
X0292091Y0082433D01*
X0292091Y0084032D02*
X0274353Y0084032D01*
X0274828Y0085630D02*
X0292091Y0085630D01*
X0292091Y0087229D02*
X0274828Y0087229D01*
X0274725Y0088827D02*
X0292091Y0088827D01*
X0292091Y0090426D02*
X0274063Y0090426D01*
X0273220Y0092024D02*
X0292091Y0092024D01*
X0292091Y0093623D02*
X0271621Y0093623D01*
X0268463Y0095221D02*
X0292091Y0095221D01*
X0210482Y0080834D02*
X0209338Y0080834D01*
X0205482Y0080834D02*
X0204338Y0080834D01*
X0190172Y0074440D02*
X0185617Y0074440D01*
X0185617Y0072842D02*
X0190172Y0072842D01*
X0190172Y0071243D02*
X0185617Y0071243D01*
X0185595Y0069645D02*
X0190172Y0069645D01*
X0190172Y0068046D02*
X0174510Y0068046D01*
X0174510Y0066448D02*
X0190172Y0066448D01*
X0190172Y0064849D02*
X0174510Y0064849D01*
X0174510Y0063251D02*
X0190172Y0063251D01*
X0190172Y0061652D02*
X0175691Y0061652D01*
X0176168Y0060054D02*
X0190172Y0060054D01*
X0190014Y0058455D02*
X0176168Y0058455D01*
X0176168Y0056857D02*
X0188415Y0056857D01*
X0186817Y0055258D02*
X0175539Y0055258D01*
X0174510Y0069645D02*
X0178477Y0069645D01*
X0178455Y0071243D02*
X0174510Y0071243D01*
X0174510Y0072842D02*
X0178455Y0072842D01*
X0178455Y0074440D02*
X0174510Y0074440D01*
X0174510Y0076039D02*
X0180310Y0076039D01*
X0180310Y0077637D02*
X0174510Y0077637D01*
X0174510Y0079236D02*
X0180310Y0079236D01*
X0180310Y0080834D02*
X0179338Y0080834D01*
X0184510Y0080834D02*
X0185482Y0080834D01*
X0184510Y0079236D02*
X0188691Y0079236D01*
X0188691Y0077637D02*
X0184510Y0077637D01*
X0184510Y0076039D02*
X0189406Y0076039D01*
X0175482Y0080834D02*
X0174510Y0080834D01*
X0170777Y0034478D02*
X0168335Y0034478D01*
X0169003Y0032879D02*
X0170109Y0032879D01*
X0170086Y0031281D02*
X0169026Y0031281D01*
X0169026Y0029682D02*
X0170086Y0029682D01*
X0170124Y0028084D02*
X0168988Y0028084D01*
X0168298Y0026485D02*
X0170814Y0026485D01*
X0171186Y0024887D02*
X0167926Y0024887D01*
X0168834Y0023288D02*
X0170278Y0023288D01*
X0170086Y0021690D02*
X0169026Y0021690D01*
X0169026Y0020091D02*
X0170086Y0020091D01*
X0170086Y0018493D02*
X0169026Y0018493D01*
X0168495Y0016894D02*
X0170617Y0016894D01*
X0188184Y0024887D02*
X0190928Y0024887D01*
X0190658Y0026485D02*
X0188454Y0026485D01*
X0189129Y0028084D02*
X0189983Y0028084D01*
X0189886Y0029682D02*
X0189226Y0029682D01*
X0189226Y0031281D02*
X0189886Y0031281D01*
X0189977Y0032879D02*
X0189135Y0032879D01*
X0188481Y0034478D02*
X0190631Y0034478D01*
X0190085Y0023288D02*
X0189027Y0023288D01*
X0189226Y0021690D02*
X0189886Y0021690D01*
X0189886Y0020091D02*
X0189226Y0020091D01*
X0189194Y0018493D02*
X0189918Y0018493D01*
X0190421Y0016894D02*
X0188691Y0016894D01*
X0151075Y0128790D02*
X0150635Y0128790D01*
X0131117Y0135184D02*
X0110514Y0135184D01*
X0110514Y0136782D02*
X0131117Y0136782D01*
X0131117Y0138381D02*
X0110514Y0138381D01*
X0110514Y0139979D02*
X0131117Y0139979D01*
X0122850Y0155965D02*
X0110514Y0155965D01*
X0110514Y0157563D02*
X0122850Y0157563D01*
X0122850Y0159162D02*
X0110514Y0159162D01*
X0110514Y0160760D02*
X0122850Y0160760D01*
X0122850Y0162359D02*
X0110514Y0162359D01*
X0110514Y0163957D02*
X0122850Y0163957D01*
X0122850Y0165556D02*
X0110514Y0165556D01*
X0110514Y0167154D02*
X0122850Y0167154D01*
X0122850Y0168753D02*
X0110942Y0168753D01*
X0112491Y0170351D02*
X0122850Y0170351D01*
X0122850Y0171950D02*
X0114039Y0171950D01*
X0115588Y0173548D02*
X0122850Y0173548D01*
X0121795Y0175147D02*
X0117136Y0175147D01*
X0118685Y0176745D02*
X0121369Y0176745D01*
X0121369Y0178344D02*
X0120233Y0178344D01*
X0127050Y0173548D02*
X0155620Y0173548D01*
X0155620Y0175147D02*
X0128105Y0175147D01*
X0128531Y0176745D02*
X0155620Y0176745D01*
X0155860Y0178344D02*
X0128531Y0178344D01*
X0127050Y0171950D02*
X0156488Y0171950D01*
X0156312Y0170351D02*
X0155575Y0170351D01*
X0128691Y0197526D02*
X0128421Y0197526D01*
X0128421Y0199124D02*
X0128691Y0199124D01*
X0128691Y0200723D02*
X0128421Y0200723D01*
X0128421Y0202321D02*
X0128691Y0202321D01*
X0128691Y0203920D02*
X0128421Y0203920D01*
X0128421Y0205518D02*
X0128691Y0205518D01*
X0128691Y0207117D02*
X0128421Y0207117D01*
X0128421Y0208715D02*
X0128691Y0208715D01*
X0128691Y0210314D02*
X0128421Y0210314D01*
X0110438Y0187935D02*
X0097943Y0187935D01*
X0097109Y0186336D02*
X0108840Y0186336D01*
X0109857Y0187354D02*
X0109857Y0187354D01*
X0107241Y0184738D02*
X0094586Y0184738D01*
X0095921Y0183139D02*
X0105643Y0183139D01*
X0104044Y0181541D02*
X0097601Y0181541D01*
X0098200Y0179942D02*
X0102446Y0179942D01*
X0100847Y0178344D02*
X0098206Y0178344D01*
X0097624Y0176745D02*
X0099249Y0176745D01*
X0098834Y0175147D02*
X0096003Y0175147D01*
X0066356Y0197526D02*
X0029856Y0197526D01*
X0029856Y0199124D02*
X0064126Y0199124D01*
X0062625Y0200723D02*
X0029856Y0200723D01*
X0029856Y0202321D02*
X0061702Y0202321D01*
X0061042Y0203920D02*
X0029856Y0203920D01*
X0029856Y0205518D02*
X0060614Y0205518D01*
X0060500Y0207117D02*
X0029856Y0207117D01*
X0029856Y0208715D02*
X0060500Y0208715D01*
X0060874Y0210314D02*
X0029856Y0210314D01*
X0029856Y0211912D02*
X0061339Y0211912D01*
X0062262Y0213511D02*
X0029856Y0213511D01*
X0029856Y0215109D02*
X0063498Y0215109D01*
D25*
X0116288Y0134516D03*
X0171800Y0148295D03*
X0182824Y0156957D03*
X0222194Y0151839D03*
X0258414Y0151445D03*
X0258414Y0181760D03*
D26*
X0247784Y0149870D03*
X0213139Y0131760D03*
X0208808Y0111681D03*
X0167469Y0111681D03*
X0159202Y0111681D03*
X0157627Y0103807D03*
X0147391Y0100264D03*
X0137942Y0108138D03*
X0120619Y0108138D03*
X0100934Y0100264D03*
X0092272Y0081760D03*
X0092666Y0072311D03*
X0100934Y0068768D03*
X0123375Y0058531D03*
X0137942Y0072311D03*
X0133217Y0079398D03*
X0162745Y0086878D03*
X0182036Y0072311D03*
X0192272Y0079398D03*
X0197391Y0075854D03*
X0172587Y0058531D03*
X0167469Y0130972D03*
X0159989Y0130972D03*
X0148178Y0139240D03*
X0150146Y0145146D03*
X0155658Y0148689D03*
X0141485Y0133335D03*
X0124950Y0146720D03*
X0133217Y0165224D03*
X0124950Y0178217D03*
X0152902Y0166799D03*
X0159202Y0175461D03*
M02*
