%
M48
M72
T01C0.02362
T02C0.03150
T03C0.03600
T04C0.03740
T05C0.04000
T06C0.07480
T07C0.12598
T08C0.13000
%
T01
X92666Y72311
X100934Y68768
X92272Y81760
X100934Y100264
X120619Y108138
X137942Y108138
X147391Y100264
X157627Y103807
X159202Y111681
X167469Y111681
X167469Y130972
X159989Y130972
X148178Y139240
X150146Y145146
X155658Y148689
X171800Y148295
X182824Y156957
X159202Y175461
X152902Y166799
X133217Y165224
X124950Y178217
X124950Y146720
X116288Y134516
X141485Y133335
X162745Y86878
X182036Y72311
X192272Y79398
X197391Y75854
X172587Y58531
X137942Y72311
X133217Y79398
X123375Y58531
X208808Y111681
X213139Y131760
X222194Y151839
X247784Y149870
X258414Y151445
X258414Y181760
T02
X273769Y79004
X273769Y71130
X273769Y63256
X273769Y55382
T03
X92272Y179122
X92272Y189122
T04
X98556Y200500
X108556Y200500
X118556Y200500
X128556Y200500
X138556Y200500
X148556Y200500
X158556Y200500
X168556Y200500
X178556Y200500
X188556Y200500
X188556Y210500
X178556Y210500
X168556Y210500
X158556Y210500
X148556Y210500
X138556Y210500
X128556Y210500
X118556Y210500
X108556Y210500
X98556Y210500
X204556Y210500
X214556Y210500
X224556Y210500
X234556Y210500
X244556Y210500
X254556Y210500
X264556Y210500
X274556Y210500
X274556Y200500
X264556Y200500
X254556Y200500
X244556Y200500
X234556Y200500
X224556Y200500
X214556Y200500
X204556Y200500
X275056Y130500
X285056Y130500
X285056Y120500
X275056Y120500
X275056Y110500
X285056Y110500
X204556Y30500
X194556Y30500
X194556Y20500
X204556Y20500
X184556Y20500
X174556Y20500
X164556Y20500
X164556Y30500
X174556Y30500
X184556Y30500
X154556Y30500
X144556Y30500
X134556Y30500
X134556Y20500
X144556Y20500
X154556Y20500
T05
X224556Y20500
X234556Y20500
X244556Y20500
X254556Y20500
X264556Y20500
X274556Y20500
X274556Y30500
X264556Y30500
X254556Y30500
X244556Y30500
X234556Y30500
X224556Y30500
X76800Y49631
X66800Y55031
X76800Y60531
X66800Y65931
X76800Y71331
X66800Y76831
X76800Y82231
X66800Y87631
X76800Y93131
X66800Y98531
X76800Y103931
X66800Y109431
X76800Y114831
X66800Y120231
X76800Y125731
X66800Y131131
X76800Y136531
X66800Y142031
X76800Y147431
X66800Y152831
X76800Y158331
X66800Y163731
X76800Y169131
X66800Y174631
X76800Y180031
T06
X266288Y86878
T07
X284556Y150500
T08
X71800Y22231
X71800Y207431
M30
