G75*
%MOIN*%
%OFA0B0*%
%FSLAX25Y25*%
%IPPOS*%
%LPD*%
%AMOC8*
5,1,8,0,0,1.08239X$1,22.5*
%
%ADD10C,0.01000*%
%ADD11C,0.00500*%
%ADD12C,0.00600*%
%ADD13C,0.00000*%
%ADD14C,0.00300*%
%ADD15C,0.00700*%
%ADD16R,0.03000X1.60000*%
%ADD17R,0.02000X2.09000*%
%ADD18R,0.28500X0.03200*%
%ADD19R,0.18500X0.03200*%
%ADD20C,0.00400*%
%ADD21C,0.00800*%
D10*
X0024556Y0014500D02*
X0024556Y0216500D01*
X0024556Y0216563D02*
X0024558Y0216687D01*
X0024564Y0216810D01*
X0024573Y0216934D01*
X0024587Y0217056D01*
X0024604Y0217179D01*
X0024626Y0217301D01*
X0024651Y0217422D01*
X0024680Y0217542D01*
X0024712Y0217661D01*
X0024749Y0217780D01*
X0024789Y0217897D01*
X0024832Y0218012D01*
X0024880Y0218127D01*
X0024931Y0218239D01*
X0024985Y0218350D01*
X0025043Y0218460D01*
X0025104Y0218567D01*
X0025169Y0218673D01*
X0025237Y0218776D01*
X0025308Y0218877D01*
X0025382Y0218976D01*
X0025459Y0219073D01*
X0025540Y0219167D01*
X0025623Y0219258D01*
X0025709Y0219347D01*
X0025798Y0219433D01*
X0025889Y0219516D01*
X0025983Y0219597D01*
X0026080Y0219674D01*
X0026179Y0219748D01*
X0026280Y0219819D01*
X0026383Y0219887D01*
X0026489Y0219952D01*
X0026596Y0220013D01*
X0026706Y0220071D01*
X0026817Y0220125D01*
X0026929Y0220176D01*
X0027044Y0220224D01*
X0027159Y0220267D01*
X0027276Y0220307D01*
X0027395Y0220344D01*
X0027514Y0220376D01*
X0027634Y0220405D01*
X0027755Y0220430D01*
X0027877Y0220452D01*
X0028000Y0220469D01*
X0028122Y0220483D01*
X0028246Y0220492D01*
X0028369Y0220498D01*
X0028493Y0220500D01*
X0289973Y0220500D01*
X0290304Y0220500D02*
X0297391Y0220500D01*
X0297391Y0033335D01*
X0294635Y0030579D01*
X0294556Y0030500D02*
X0284556Y0020500D01*
X0284556Y0014437D01*
X0284554Y0014313D01*
X0284548Y0014190D01*
X0284539Y0014066D01*
X0284525Y0013944D01*
X0284508Y0013821D01*
X0284486Y0013699D01*
X0284461Y0013578D01*
X0284432Y0013458D01*
X0284400Y0013339D01*
X0284363Y0013220D01*
X0284323Y0013103D01*
X0284280Y0012988D01*
X0284232Y0012873D01*
X0284181Y0012761D01*
X0284127Y0012650D01*
X0284069Y0012540D01*
X0284008Y0012433D01*
X0283943Y0012327D01*
X0283875Y0012224D01*
X0283804Y0012123D01*
X0283730Y0012024D01*
X0283653Y0011927D01*
X0283572Y0011833D01*
X0283489Y0011742D01*
X0283403Y0011653D01*
X0283314Y0011567D01*
X0283223Y0011484D01*
X0283129Y0011403D01*
X0283032Y0011326D01*
X0282933Y0011252D01*
X0282832Y0011181D01*
X0282729Y0011113D01*
X0282623Y0011048D01*
X0282516Y0010987D01*
X0282406Y0010929D01*
X0282295Y0010875D01*
X0282183Y0010824D01*
X0282068Y0010776D01*
X0281953Y0010733D01*
X0281836Y0010693D01*
X0281717Y0010656D01*
X0281598Y0010624D01*
X0281478Y0010595D01*
X0281357Y0010570D01*
X0281235Y0010548D01*
X0281112Y0010531D01*
X0280990Y0010517D01*
X0280866Y0010508D01*
X0280743Y0010502D01*
X0280619Y0010500D01*
X0028493Y0010500D01*
X0028369Y0010502D01*
X0028246Y0010508D01*
X0028122Y0010517D01*
X0028000Y0010531D01*
X0027877Y0010548D01*
X0027755Y0010570D01*
X0027634Y0010595D01*
X0027514Y0010624D01*
X0027395Y0010656D01*
X0027276Y0010693D01*
X0027159Y0010733D01*
X0027044Y0010776D01*
X0026929Y0010824D01*
X0026817Y0010875D01*
X0026706Y0010929D01*
X0026596Y0010987D01*
X0026489Y0011048D01*
X0026383Y0011113D01*
X0026280Y0011181D01*
X0026179Y0011252D01*
X0026080Y0011326D01*
X0025983Y0011403D01*
X0025889Y0011484D01*
X0025798Y0011567D01*
X0025709Y0011653D01*
X0025623Y0011742D01*
X0025540Y0011833D01*
X0025459Y0011927D01*
X0025382Y0012024D01*
X0025308Y0012123D01*
X0025237Y0012224D01*
X0025169Y0012327D01*
X0025104Y0012433D01*
X0025043Y0012540D01*
X0024985Y0012650D01*
X0024931Y0012761D01*
X0024880Y0012873D01*
X0024832Y0012988D01*
X0024789Y0013103D01*
X0024749Y0013220D01*
X0024712Y0013339D01*
X0024680Y0013458D01*
X0024651Y0013578D01*
X0024626Y0013699D01*
X0024604Y0013821D01*
X0024587Y0013944D01*
X0024573Y0014066D01*
X0024564Y0014190D01*
X0024558Y0014313D01*
X0024556Y0014437D01*
X0024558Y0014313D01*
X0024564Y0014190D01*
X0024573Y0014066D01*
X0024587Y0013944D01*
X0024604Y0013821D01*
X0024626Y0013699D01*
X0024651Y0013578D01*
X0024680Y0013458D01*
X0024712Y0013339D01*
X0024749Y0013220D01*
X0024789Y0013103D01*
X0024832Y0012988D01*
X0024880Y0012873D01*
X0024931Y0012761D01*
X0024985Y0012650D01*
X0025043Y0012540D01*
X0025104Y0012433D01*
X0025169Y0012327D01*
X0025237Y0012224D01*
X0025308Y0012123D01*
X0025382Y0012024D01*
X0025459Y0011927D01*
X0025540Y0011833D01*
X0025623Y0011742D01*
X0025709Y0011653D01*
X0025798Y0011567D01*
X0025889Y0011484D01*
X0025983Y0011403D01*
X0026080Y0011326D01*
X0026179Y0011252D01*
X0026280Y0011181D01*
X0026383Y0011113D01*
X0026489Y0011048D01*
X0026596Y0010987D01*
X0026706Y0010929D01*
X0026817Y0010875D01*
X0026929Y0010824D01*
X0027044Y0010776D01*
X0027159Y0010733D01*
X0027276Y0010693D01*
X0027395Y0010656D01*
X0027514Y0010624D01*
X0027634Y0010595D01*
X0027755Y0010570D01*
X0027877Y0010548D01*
X0028000Y0010531D01*
X0028122Y0010517D01*
X0028246Y0010508D01*
X0028369Y0010502D01*
X0028493Y0010500D01*
X0028369Y0010502D01*
X0028246Y0010508D01*
X0028122Y0010517D01*
X0028000Y0010531D01*
X0027877Y0010548D01*
X0027755Y0010570D01*
X0027634Y0010595D01*
X0027514Y0010624D01*
X0027395Y0010656D01*
X0027276Y0010693D01*
X0027159Y0010733D01*
X0027044Y0010776D01*
X0026929Y0010824D01*
X0026817Y0010875D01*
X0026706Y0010929D01*
X0026596Y0010987D01*
X0026489Y0011048D01*
X0026383Y0011113D01*
X0026280Y0011181D01*
X0026179Y0011252D01*
X0026080Y0011326D01*
X0025983Y0011403D01*
X0025889Y0011484D01*
X0025798Y0011567D01*
X0025709Y0011653D01*
X0025623Y0011742D01*
X0025540Y0011833D01*
X0025459Y0011927D01*
X0025382Y0012024D01*
X0025308Y0012123D01*
X0025237Y0012224D01*
X0025169Y0012327D01*
X0025104Y0012433D01*
X0025043Y0012540D01*
X0024985Y0012650D01*
X0024931Y0012761D01*
X0024880Y0012873D01*
X0024832Y0012988D01*
X0024789Y0013103D01*
X0024749Y0013220D01*
X0024712Y0013339D01*
X0024680Y0013458D01*
X0024651Y0013578D01*
X0024626Y0013699D01*
X0024604Y0013821D01*
X0024587Y0013944D01*
X0024573Y0014066D01*
X0024564Y0014190D01*
X0024558Y0014313D01*
X0024556Y0014437D01*
X0024558Y0014313D01*
X0024564Y0014190D01*
X0024573Y0014066D01*
X0024587Y0013944D01*
X0024604Y0013821D01*
X0024626Y0013699D01*
X0024651Y0013578D01*
X0024680Y0013458D01*
X0024712Y0013339D01*
X0024749Y0013220D01*
X0024789Y0013103D01*
X0024832Y0012988D01*
X0024880Y0012873D01*
X0024931Y0012761D01*
X0024985Y0012650D01*
X0025043Y0012540D01*
X0025104Y0012433D01*
X0025169Y0012327D01*
X0025237Y0012224D01*
X0025308Y0012123D01*
X0025382Y0012024D01*
X0025459Y0011927D01*
X0025540Y0011833D01*
X0025623Y0011742D01*
X0025709Y0011653D01*
X0025798Y0011567D01*
X0025889Y0011484D01*
X0025983Y0011403D01*
X0026080Y0011326D01*
X0026179Y0011252D01*
X0026280Y0011181D01*
X0026383Y0011113D01*
X0026489Y0011048D01*
X0026596Y0010987D01*
X0026706Y0010929D01*
X0026817Y0010875D01*
X0026929Y0010824D01*
X0027044Y0010776D01*
X0027159Y0010733D01*
X0027276Y0010693D01*
X0027395Y0010656D01*
X0027514Y0010624D01*
X0027634Y0010595D01*
X0027755Y0010570D01*
X0027877Y0010548D01*
X0028000Y0010531D01*
X0028122Y0010517D01*
X0028246Y0010508D01*
X0028369Y0010502D01*
X0028493Y0010500D01*
X0104556Y0193000D02*
X0102056Y0195500D01*
X0028493Y0220500D02*
X0028369Y0220498D01*
X0028246Y0220492D01*
X0028122Y0220483D01*
X0028000Y0220469D01*
X0027877Y0220452D01*
X0027755Y0220430D01*
X0027634Y0220405D01*
X0027514Y0220376D01*
X0027395Y0220344D01*
X0027276Y0220307D01*
X0027159Y0220267D01*
X0027044Y0220224D01*
X0026929Y0220176D01*
X0026817Y0220125D01*
X0026706Y0220071D01*
X0026596Y0220013D01*
X0026489Y0219952D01*
X0026383Y0219887D01*
X0026280Y0219819D01*
X0026179Y0219748D01*
X0026080Y0219674D01*
X0025983Y0219597D01*
X0025889Y0219516D01*
X0025798Y0219433D01*
X0025709Y0219347D01*
X0025623Y0219258D01*
X0025540Y0219167D01*
X0025459Y0219073D01*
X0025382Y0218976D01*
X0025308Y0218877D01*
X0025237Y0218776D01*
X0025169Y0218673D01*
X0025104Y0218567D01*
X0025043Y0218460D01*
X0024985Y0218350D01*
X0024931Y0218239D01*
X0024880Y0218127D01*
X0024832Y0218012D01*
X0024789Y0217897D01*
X0024749Y0217780D01*
X0024712Y0217661D01*
X0024680Y0217542D01*
X0024651Y0217422D01*
X0024626Y0217301D01*
X0024604Y0217179D01*
X0024587Y0217056D01*
X0024573Y0216934D01*
X0024564Y0216810D01*
X0024558Y0216687D01*
X0024556Y0216563D01*
X0024558Y0216687D01*
X0024564Y0216810D01*
X0024573Y0216934D01*
X0024587Y0217056D01*
X0024604Y0217179D01*
X0024626Y0217301D01*
X0024651Y0217422D01*
X0024680Y0217542D01*
X0024712Y0217661D01*
X0024749Y0217780D01*
X0024789Y0217897D01*
X0024832Y0218012D01*
X0024880Y0218127D01*
X0024931Y0218239D01*
X0024985Y0218350D01*
X0025043Y0218460D01*
X0025104Y0218567D01*
X0025169Y0218673D01*
X0025237Y0218776D01*
X0025308Y0218877D01*
X0025382Y0218976D01*
X0025459Y0219073D01*
X0025540Y0219167D01*
X0025623Y0219258D01*
X0025709Y0219347D01*
X0025798Y0219433D01*
X0025889Y0219516D01*
X0025983Y0219597D01*
X0026080Y0219674D01*
X0026179Y0219748D01*
X0026280Y0219819D01*
X0026383Y0219887D01*
X0026489Y0219952D01*
X0026596Y0220013D01*
X0026706Y0220071D01*
X0026817Y0220125D01*
X0026929Y0220176D01*
X0027044Y0220224D01*
X0027159Y0220267D01*
X0027276Y0220307D01*
X0027395Y0220344D01*
X0027514Y0220376D01*
X0027634Y0220405D01*
X0027755Y0220430D01*
X0027877Y0220452D01*
X0028000Y0220469D01*
X0028122Y0220483D01*
X0028246Y0220492D01*
X0028369Y0220498D01*
X0028493Y0220500D01*
X0028369Y0220498D01*
X0028246Y0220492D01*
X0028122Y0220483D01*
X0028000Y0220469D01*
X0027877Y0220452D01*
X0027755Y0220430D01*
X0027634Y0220405D01*
X0027514Y0220376D01*
X0027395Y0220344D01*
X0027276Y0220307D01*
X0027159Y0220267D01*
X0027044Y0220224D01*
X0026929Y0220176D01*
X0026817Y0220125D01*
X0026706Y0220071D01*
X0026596Y0220013D01*
X0026489Y0219952D01*
X0026383Y0219887D01*
X0026280Y0219819D01*
X0026179Y0219748D01*
X0026080Y0219674D01*
X0025983Y0219597D01*
X0025889Y0219516D01*
X0025798Y0219433D01*
X0025709Y0219347D01*
X0025623Y0219258D01*
X0025540Y0219167D01*
X0025459Y0219073D01*
X0025382Y0218976D01*
X0025308Y0218877D01*
X0025237Y0218776D01*
X0025169Y0218673D01*
X0025104Y0218567D01*
X0025043Y0218460D01*
X0024985Y0218350D01*
X0024931Y0218239D01*
X0024880Y0218127D01*
X0024832Y0218012D01*
X0024789Y0217897D01*
X0024749Y0217780D01*
X0024712Y0217661D01*
X0024680Y0217542D01*
X0024651Y0217422D01*
X0024626Y0217301D01*
X0024604Y0217179D01*
X0024587Y0217056D01*
X0024573Y0216934D01*
X0024564Y0216810D01*
X0024558Y0216687D01*
X0024556Y0216563D01*
X0280619Y0010500D02*
X0280743Y0010502D01*
X0280866Y0010508D01*
X0280990Y0010517D01*
X0281112Y0010531D01*
X0281235Y0010548D01*
X0281357Y0010570D01*
X0281478Y0010595D01*
X0281598Y0010624D01*
X0281717Y0010656D01*
X0281836Y0010693D01*
X0281953Y0010733D01*
X0282068Y0010776D01*
X0282183Y0010824D01*
X0282295Y0010875D01*
X0282406Y0010929D01*
X0282516Y0010987D01*
X0282623Y0011048D01*
X0282729Y0011113D01*
X0282832Y0011181D01*
X0282933Y0011252D01*
X0283032Y0011326D01*
X0283129Y0011403D01*
X0283223Y0011484D01*
X0283314Y0011567D01*
X0283403Y0011653D01*
X0283489Y0011742D01*
X0283572Y0011833D01*
X0283653Y0011927D01*
X0283730Y0012024D01*
X0283804Y0012123D01*
X0283875Y0012224D01*
X0283943Y0012327D01*
X0284008Y0012433D01*
X0284069Y0012540D01*
X0284127Y0012650D01*
X0284181Y0012761D01*
X0284232Y0012873D01*
X0284280Y0012988D01*
X0284323Y0013103D01*
X0284363Y0013220D01*
X0284400Y0013339D01*
X0284432Y0013458D01*
X0284461Y0013578D01*
X0284486Y0013699D01*
X0284508Y0013821D01*
X0284525Y0013944D01*
X0284539Y0014066D01*
X0284548Y0014190D01*
X0284554Y0014313D01*
X0284556Y0014437D01*
X0284554Y0014313D01*
X0284548Y0014190D01*
X0284539Y0014066D01*
X0284525Y0013944D01*
X0284508Y0013821D01*
X0284486Y0013699D01*
X0284461Y0013578D01*
X0284432Y0013458D01*
X0284400Y0013339D01*
X0284363Y0013220D01*
X0284323Y0013103D01*
X0284280Y0012988D01*
X0284232Y0012873D01*
X0284181Y0012761D01*
X0284127Y0012650D01*
X0284069Y0012540D01*
X0284008Y0012433D01*
X0283943Y0012327D01*
X0283875Y0012224D01*
X0283804Y0012123D01*
X0283730Y0012024D01*
X0283653Y0011927D01*
X0283572Y0011833D01*
X0283489Y0011742D01*
X0283403Y0011653D01*
X0283314Y0011567D01*
X0283223Y0011484D01*
X0283129Y0011403D01*
X0283032Y0011326D01*
X0282933Y0011252D01*
X0282832Y0011181D01*
X0282729Y0011113D01*
X0282623Y0011048D01*
X0282516Y0010987D01*
X0282406Y0010929D01*
X0282295Y0010875D01*
X0282183Y0010824D01*
X0282068Y0010776D01*
X0281953Y0010733D01*
X0281836Y0010693D01*
X0281717Y0010656D01*
X0281598Y0010624D01*
X0281478Y0010595D01*
X0281357Y0010570D01*
X0281235Y0010548D01*
X0281112Y0010531D01*
X0280990Y0010517D01*
X0280866Y0010508D01*
X0280743Y0010502D01*
X0280619Y0010500D01*
X0280743Y0010502D01*
X0280866Y0010508D01*
X0280990Y0010517D01*
X0281112Y0010531D01*
X0281235Y0010548D01*
X0281357Y0010570D01*
X0281478Y0010595D01*
X0281598Y0010624D01*
X0281717Y0010656D01*
X0281836Y0010693D01*
X0281953Y0010733D01*
X0282068Y0010776D01*
X0282183Y0010824D01*
X0282295Y0010875D01*
X0282406Y0010929D01*
X0282516Y0010987D01*
X0282623Y0011048D01*
X0282729Y0011113D01*
X0282832Y0011181D01*
X0282933Y0011252D01*
X0283032Y0011326D01*
X0283129Y0011403D01*
X0283223Y0011484D01*
X0283314Y0011567D01*
X0283403Y0011653D01*
X0283489Y0011742D01*
X0283572Y0011833D01*
X0283653Y0011927D01*
X0283730Y0012024D01*
X0283804Y0012123D01*
X0283875Y0012224D01*
X0283943Y0012327D01*
X0284008Y0012433D01*
X0284069Y0012540D01*
X0284127Y0012650D01*
X0284181Y0012761D01*
X0284232Y0012873D01*
X0284280Y0012988D01*
X0284323Y0013103D01*
X0284363Y0013220D01*
X0284400Y0013339D01*
X0284432Y0013458D01*
X0284461Y0013578D01*
X0284486Y0013699D01*
X0284508Y0013821D01*
X0284525Y0013944D01*
X0284539Y0014066D01*
X0284548Y0014190D01*
X0284554Y0014313D01*
X0284556Y0014437D01*
D11*
X0252412Y0007754D02*
X0250911Y0007003D01*
X0249410Y0005502D01*
X0251662Y0005502D01*
X0252412Y0004751D01*
X0252412Y0004001D01*
X0251662Y0003250D01*
X0250160Y0003250D01*
X0249410Y0004001D01*
X0249410Y0005502D01*
X0247808Y0007754D02*
X0246307Y0007754D01*
X0247058Y0007754D02*
X0247058Y0004001D01*
X0246307Y0003250D01*
X0245557Y0003250D01*
X0244806Y0004001D01*
X0261957Y0043571D02*
X0285580Y0043571D01*
X0285580Y0090815D01*
X0261957Y0090815D01*
X0261957Y0043571D01*
X0172412Y0007003D02*
X0172412Y0006253D01*
X0169410Y0003250D01*
X0172412Y0003250D01*
X0172412Y0007003D02*
X0171662Y0007754D01*
X0170160Y0007754D01*
X0169410Y0007003D01*
X0167808Y0007754D02*
X0166307Y0007754D01*
X0167058Y0007754D02*
X0167058Y0004001D01*
X0166307Y0003250D01*
X0165557Y0003250D01*
X0164806Y0004001D01*
X0165722Y0037250D02*
X0166306Y0037834D01*
X0166306Y0039001D01*
X0165722Y0039585D01*
X0165138Y0039585D01*
X0164554Y0039001D01*
X0164554Y0038418D01*
X0164554Y0039001D02*
X0163971Y0039585D01*
X0163387Y0039585D01*
X0162803Y0039001D01*
X0162803Y0037834D01*
X0163387Y0037250D01*
X0162803Y0040933D02*
X0165138Y0040933D01*
X0166306Y0042101D01*
X0165138Y0043268D01*
X0162803Y0043268D01*
X0163387Y0044616D02*
X0162803Y0045200D01*
X0162803Y0046368D01*
X0163387Y0046952D01*
X0163971Y0046952D01*
X0164554Y0046368D01*
X0165138Y0046952D01*
X0165722Y0046952D01*
X0166306Y0046368D01*
X0166306Y0045200D01*
X0165722Y0044616D01*
X0164554Y0045784D02*
X0164554Y0046368D01*
X0156306Y0046368D02*
X0156306Y0045200D01*
X0155722Y0044616D01*
X0154554Y0045200D02*
X0154554Y0046368D01*
X0155138Y0046952D01*
X0155722Y0046952D01*
X0156306Y0046368D01*
X0154554Y0045200D02*
X0153971Y0044616D01*
X0153387Y0044616D01*
X0152803Y0045200D01*
X0152803Y0046368D01*
X0153387Y0046952D01*
X0152803Y0043268D02*
X0152803Y0040933D01*
X0156306Y0040933D01*
X0156306Y0043268D01*
X0154554Y0042101D02*
X0154554Y0040933D01*
X0154554Y0039585D02*
X0155138Y0039001D01*
X0155138Y0037250D01*
X0155138Y0038418D02*
X0156306Y0039585D01*
X0154554Y0039585D02*
X0153387Y0039585D01*
X0152803Y0039001D01*
X0152803Y0037250D01*
X0156306Y0037250D01*
X0079050Y0041581D02*
X0079050Y0044583D01*
X0079050Y0043082D02*
X0074546Y0043082D01*
X0076047Y0041581D01*
X0069050Y0041083D02*
X0069050Y0038081D01*
X0069050Y0039582D02*
X0064546Y0039582D01*
X0066047Y0038081D01*
X0066798Y0042685D02*
X0066798Y0045687D01*
X0064546Y0044937D02*
X0066798Y0042685D01*
X0069050Y0044937D02*
X0064546Y0044937D01*
X0038050Y0046185D02*
X0035047Y0049187D01*
X0034297Y0049187D01*
X0033546Y0048437D01*
X0033546Y0046935D01*
X0034297Y0046185D01*
X0033546Y0044583D02*
X0033546Y0041581D01*
X0038050Y0041581D01*
X0035798Y0041581D02*
X0035798Y0043082D01*
X0038050Y0046185D02*
X0038050Y0049187D01*
X0037299Y0050789D02*
X0038050Y0051539D01*
X0038050Y0053040D01*
X0037299Y0053791D01*
X0035798Y0053791D01*
X0035047Y0053040D01*
X0035047Y0052290D01*
X0035798Y0050789D01*
X0033546Y0050789D01*
X0033546Y0053791D01*
X0084772Y0174372D02*
X0085522Y0175123D01*
X0085522Y0175873D01*
X0084772Y0176624D01*
X0081019Y0176624D01*
X0081019Y0175873D02*
X0081019Y0177375D01*
X0081019Y0178976D02*
X0081019Y0181228D01*
X0081769Y0181979D01*
X0083271Y0181979D01*
X0084021Y0181228D01*
X0084021Y0178976D01*
X0085522Y0178976D02*
X0081019Y0178976D01*
X0082520Y0183580D02*
X0081019Y0185081D01*
X0085522Y0185081D01*
X0085522Y0183580D02*
X0085522Y0186582D01*
X0079050Y0186582D02*
X0074546Y0186582D01*
X0076047Y0185081D01*
X0079050Y0185081D02*
X0079050Y0188083D01*
X0078299Y0189685D02*
X0079050Y0190435D01*
X0079050Y0191937D01*
X0078299Y0192687D01*
X0077549Y0192687D01*
X0076798Y0191937D01*
X0076798Y0191186D01*
X0076798Y0191937D02*
X0076047Y0192687D01*
X0075297Y0192687D01*
X0074546Y0191937D01*
X0074546Y0190435D01*
X0075297Y0189685D01*
X0069050Y0190435D02*
X0068299Y0189685D01*
X0069050Y0190435D02*
X0069050Y0191937D01*
X0068299Y0192687D01*
X0066798Y0192687D01*
X0066047Y0191937D01*
X0066047Y0191186D01*
X0066798Y0189685D01*
X0064546Y0189685D01*
X0064546Y0192687D01*
X0065297Y0188083D02*
X0064546Y0187333D01*
X0064546Y0185831D01*
X0065297Y0185081D01*
X0065297Y0188083D02*
X0066047Y0188083D01*
X0069050Y0185081D01*
X0069050Y0188083D01*
X0097803Y0188517D02*
X0098387Y0187933D01*
X0100722Y0187933D01*
X0101306Y0188517D01*
X0101306Y0189685D01*
X0100722Y0190268D01*
X0101306Y0191616D02*
X0101306Y0193952D01*
X0101306Y0191616D02*
X0097803Y0191616D01*
X0098387Y0190268D02*
X0097803Y0189685D01*
X0097803Y0188517D01*
X0098387Y0186585D02*
X0097803Y0186001D01*
X0097803Y0184834D01*
X0098387Y0184250D01*
X0098971Y0184250D01*
X0099554Y0184834D01*
X0099554Y0186001D01*
X0100138Y0186585D01*
X0100722Y0186585D01*
X0101306Y0186001D01*
X0101306Y0184834D01*
X0100722Y0184250D01*
X0108303Y0184834D02*
X0108887Y0184250D01*
X0109471Y0184250D01*
X0110054Y0184834D01*
X0110054Y0186001D01*
X0110638Y0186585D01*
X0111222Y0186585D01*
X0111806Y0186001D01*
X0111806Y0184834D01*
X0111222Y0184250D01*
X0108303Y0184834D02*
X0108303Y0186001D01*
X0108887Y0186585D01*
X0108303Y0187933D02*
X0108303Y0189685D01*
X0108887Y0190268D01*
X0111222Y0190268D01*
X0111806Y0189685D01*
X0111806Y0187933D01*
X0108303Y0187933D01*
X0109471Y0191616D02*
X0108303Y0192784D01*
X0109471Y0193952D01*
X0111806Y0193952D01*
X0110054Y0193952D02*
X0110054Y0191616D01*
X0109471Y0191616D02*
X0111806Y0191616D01*
X0127303Y0191116D02*
X0127303Y0192868D01*
X0127887Y0193452D01*
X0130222Y0193452D01*
X0130806Y0192868D01*
X0130806Y0191116D01*
X0127303Y0191116D01*
X0127303Y0189768D02*
X0130806Y0189768D01*
X0127303Y0187433D01*
X0130806Y0187433D01*
X0130222Y0186085D02*
X0129054Y0186085D01*
X0129054Y0184918D01*
X0127887Y0186085D02*
X0127303Y0185501D01*
X0127303Y0184334D01*
X0127887Y0183750D01*
X0130222Y0183750D01*
X0130806Y0184334D01*
X0130806Y0185501D01*
X0130222Y0186085D01*
X0060449Y0214833D02*
X0057446Y0214833D01*
X0059698Y0217085D01*
X0059698Y0212581D01*
X0055845Y0213331D02*
X0055094Y0212581D01*
X0053593Y0212581D01*
X0052842Y0213331D01*
X0052842Y0214833D02*
X0054343Y0215583D01*
X0055094Y0215583D01*
X0055845Y0214833D01*
X0055845Y0213331D01*
X0052842Y0214833D02*
X0052842Y0217085D01*
X0055845Y0217085D01*
X0051274Y0213331D02*
X0050523Y0213331D01*
X0050523Y0212581D01*
X0051274Y0212581D01*
X0051274Y0213331D01*
X0051274Y0212581D02*
X0049773Y0211079D01*
X0048171Y0212581D02*
X0045169Y0212581D01*
X0048171Y0215583D01*
X0048171Y0216334D01*
X0047421Y0217085D01*
X0045920Y0217085D01*
X0045169Y0216334D01*
X0217013Y0173799D02*
X0217015Y0173862D01*
X0217021Y0173924D01*
X0217031Y0173986D01*
X0217044Y0174048D01*
X0217062Y0174108D01*
X0217083Y0174167D01*
X0217108Y0174225D01*
X0217137Y0174281D01*
X0217169Y0174335D01*
X0217204Y0174387D01*
X0217242Y0174436D01*
X0217284Y0174484D01*
X0217328Y0174528D01*
X0217376Y0174570D01*
X0217425Y0174608D01*
X0217477Y0174643D01*
X0217531Y0174675D01*
X0217587Y0174704D01*
X0217645Y0174729D01*
X0217704Y0174750D01*
X0217764Y0174768D01*
X0217826Y0174781D01*
X0217888Y0174791D01*
X0217950Y0174797D01*
X0218013Y0174799D01*
X0218076Y0174797D01*
X0218138Y0174791D01*
X0218200Y0174781D01*
X0218262Y0174768D01*
X0218322Y0174750D01*
X0218381Y0174729D01*
X0218439Y0174704D01*
X0218495Y0174675D01*
X0218549Y0174643D01*
X0218601Y0174608D01*
X0218650Y0174570D01*
X0218698Y0174528D01*
X0218742Y0174484D01*
X0218784Y0174436D01*
X0218822Y0174387D01*
X0218857Y0174335D01*
X0218889Y0174281D01*
X0218918Y0174225D01*
X0218943Y0174167D01*
X0218964Y0174108D01*
X0218982Y0174048D01*
X0218995Y0173986D01*
X0219005Y0173924D01*
X0219011Y0173862D01*
X0219013Y0173799D01*
X0219011Y0173736D01*
X0219005Y0173674D01*
X0218995Y0173612D01*
X0218982Y0173550D01*
X0218964Y0173490D01*
X0218943Y0173431D01*
X0218918Y0173373D01*
X0218889Y0173317D01*
X0218857Y0173263D01*
X0218822Y0173211D01*
X0218784Y0173162D01*
X0218742Y0173114D01*
X0218698Y0173070D01*
X0218650Y0173028D01*
X0218601Y0172990D01*
X0218549Y0172955D01*
X0218495Y0172923D01*
X0218439Y0172894D01*
X0218381Y0172869D01*
X0218322Y0172848D01*
X0218262Y0172830D01*
X0218200Y0172817D01*
X0218138Y0172807D01*
X0218076Y0172801D01*
X0218013Y0172799D01*
X0217950Y0172801D01*
X0217888Y0172807D01*
X0217826Y0172817D01*
X0217764Y0172830D01*
X0217704Y0172848D01*
X0217645Y0172869D01*
X0217587Y0172894D01*
X0217531Y0172923D01*
X0217477Y0172955D01*
X0217425Y0172990D01*
X0217376Y0173028D01*
X0217328Y0173070D01*
X0217284Y0173114D01*
X0217242Y0173162D01*
X0217204Y0173211D01*
X0217169Y0173263D01*
X0217137Y0173317D01*
X0217108Y0173373D01*
X0217083Y0173431D01*
X0217062Y0173490D01*
X0217044Y0173550D01*
X0217031Y0173612D01*
X0217021Y0173674D01*
X0217015Y0173736D01*
X0217013Y0173799D01*
D12*
X0025800Y0040831D02*
X0025800Y0010331D01*
X0027800Y0010331D01*
X0027800Y0020331D01*
X0027800Y0030331D01*
X0027800Y0199331D01*
X0029800Y0199331D01*
X0029800Y0198831D01*
X0039300Y0198831D01*
X0039398Y0198829D01*
X0039496Y0198823D01*
X0039594Y0198814D01*
X0039691Y0198800D01*
X0039788Y0198783D01*
X0039884Y0198762D01*
X0039979Y0198737D01*
X0040073Y0198709D01*
X0040165Y0198676D01*
X0040257Y0198641D01*
X0040347Y0198601D01*
X0040435Y0198559D01*
X0040522Y0198512D01*
X0040606Y0198463D01*
X0040689Y0198410D01*
X0040769Y0198354D01*
X0040848Y0198294D01*
X0040924Y0198232D01*
X0040997Y0198167D01*
X0041068Y0198099D01*
X0041136Y0198028D01*
X0041201Y0197955D01*
X0041263Y0197879D01*
X0041323Y0197800D01*
X0041379Y0197720D01*
X0041432Y0197637D01*
X0041481Y0197553D01*
X0041528Y0197466D01*
X0041570Y0197378D01*
X0041610Y0197288D01*
X0041645Y0197196D01*
X0041678Y0197104D01*
X0041706Y0197010D01*
X0041731Y0196915D01*
X0041752Y0196819D01*
X0041769Y0196722D01*
X0041783Y0196625D01*
X0041792Y0196527D01*
X0041798Y0196429D01*
X0041800Y0196331D01*
X0041800Y0195831D02*
X0082300Y0195831D01*
X0084300Y0197831D01*
X0084300Y0217331D01*
X0082300Y0219331D01*
X0042300Y0219331D01*
X0041800Y0219331D01*
X0041800Y0199331D01*
X0041800Y0195831D01*
X0041800Y0194831D01*
X0044800Y0194831D01*
X0044800Y0034831D01*
X0041800Y0034831D01*
X0041800Y0194831D01*
X0030800Y0199331D02*
X0029800Y0199331D01*
X0027800Y0199331D02*
X0027800Y0209331D01*
X0027800Y0219331D01*
X0029800Y0219331D01*
X0041800Y0219331D01*
X0027800Y0219331D02*
X0025800Y0219331D01*
X0025800Y0188831D01*
X0025800Y0040831D01*
X0023300Y0039331D02*
X0003300Y0039331D01*
X0003213Y0039333D01*
X0003126Y0039339D01*
X0003039Y0039348D01*
X0002953Y0039361D01*
X0002867Y0039378D01*
X0002782Y0039399D01*
X0002699Y0039424D01*
X0002616Y0039452D01*
X0002535Y0039483D01*
X0002455Y0039518D01*
X0002377Y0039557D01*
X0002300Y0039599D01*
X0002225Y0039644D01*
X0002153Y0039693D01*
X0002082Y0039744D01*
X0002014Y0039799D01*
X0001949Y0039856D01*
X0001886Y0039917D01*
X0001825Y0039980D01*
X0001768Y0040045D01*
X0001713Y0040113D01*
X0001662Y0040184D01*
X0001613Y0040256D01*
X0001568Y0040331D01*
X0001526Y0040408D01*
X0001487Y0040486D01*
X0001452Y0040566D01*
X0001421Y0040647D01*
X0001393Y0040730D01*
X0001368Y0040813D01*
X0001347Y0040898D01*
X0001330Y0040984D01*
X0001317Y0041070D01*
X0001308Y0041157D01*
X0001302Y0041244D01*
X0001300Y0041331D01*
X0001300Y0042331D01*
X0001300Y0187331D01*
X0001300Y0188331D01*
X0001302Y0188418D01*
X0001308Y0188505D01*
X0001317Y0188592D01*
X0001330Y0188678D01*
X0001347Y0188764D01*
X0001368Y0188849D01*
X0001393Y0188932D01*
X0001421Y0189015D01*
X0001452Y0189096D01*
X0001487Y0189176D01*
X0001526Y0189254D01*
X0001568Y0189331D01*
X0001613Y0189406D01*
X0001662Y0189478D01*
X0001713Y0189549D01*
X0001768Y0189617D01*
X0001825Y0189682D01*
X0001886Y0189745D01*
X0001949Y0189806D01*
X0002014Y0189863D01*
X0002082Y0189918D01*
X0002153Y0189969D01*
X0002225Y0190018D01*
X0002300Y0190063D01*
X0002377Y0190105D01*
X0002455Y0190144D01*
X0002535Y0190179D01*
X0002616Y0190210D01*
X0002699Y0190238D01*
X0002782Y0190263D01*
X0002867Y0190284D01*
X0002953Y0190301D01*
X0003039Y0190314D01*
X0003126Y0190323D01*
X0003213Y0190329D01*
X0003300Y0190331D01*
X0023300Y0190331D01*
X0023398Y0190333D01*
X0023496Y0190339D01*
X0023594Y0190348D01*
X0023691Y0190362D01*
X0023788Y0190379D01*
X0023884Y0190400D01*
X0023979Y0190425D01*
X0024073Y0190453D01*
X0024165Y0190486D01*
X0024257Y0190521D01*
X0024347Y0190561D01*
X0024435Y0190603D01*
X0024522Y0190650D01*
X0024606Y0190699D01*
X0024689Y0190752D01*
X0024769Y0190808D01*
X0024848Y0190868D01*
X0024924Y0190930D01*
X0024997Y0190995D01*
X0025068Y0191063D01*
X0025136Y0191134D01*
X0025201Y0191207D01*
X0025263Y0191283D01*
X0025323Y0191362D01*
X0025379Y0191442D01*
X0025432Y0191525D01*
X0025481Y0191609D01*
X0025528Y0191696D01*
X0025570Y0191784D01*
X0025610Y0191874D01*
X0025645Y0191966D01*
X0025678Y0192058D01*
X0025706Y0192152D01*
X0025731Y0192247D01*
X0025752Y0192343D01*
X0025769Y0192440D01*
X0025783Y0192537D01*
X0025792Y0192635D01*
X0025798Y0192733D01*
X0025800Y0192831D01*
X0065300Y0207431D02*
X0065302Y0207592D01*
X0065308Y0207752D01*
X0065318Y0207913D01*
X0065332Y0208073D01*
X0065350Y0208233D01*
X0065371Y0208392D01*
X0065397Y0208551D01*
X0065427Y0208709D01*
X0065460Y0208866D01*
X0065498Y0209023D01*
X0065539Y0209178D01*
X0065584Y0209332D01*
X0065633Y0209485D01*
X0065686Y0209637D01*
X0065742Y0209788D01*
X0065803Y0209937D01*
X0065866Y0210085D01*
X0065934Y0210231D01*
X0066005Y0210375D01*
X0066079Y0210517D01*
X0066157Y0210658D01*
X0066239Y0210796D01*
X0066324Y0210933D01*
X0066412Y0211067D01*
X0066504Y0211199D01*
X0066599Y0211329D01*
X0066697Y0211457D01*
X0066798Y0211582D01*
X0066902Y0211704D01*
X0067009Y0211824D01*
X0067119Y0211941D01*
X0067232Y0212056D01*
X0067348Y0212167D01*
X0067467Y0212276D01*
X0067588Y0212381D01*
X0067712Y0212484D01*
X0067838Y0212584D01*
X0067966Y0212680D01*
X0068097Y0212773D01*
X0068231Y0212863D01*
X0068366Y0212950D01*
X0068504Y0213033D01*
X0068643Y0213113D01*
X0068785Y0213189D01*
X0068928Y0213262D01*
X0069073Y0213331D01*
X0069220Y0213397D01*
X0069368Y0213459D01*
X0069518Y0213517D01*
X0069669Y0213572D01*
X0069822Y0213623D01*
X0069976Y0213670D01*
X0070131Y0213713D01*
X0070287Y0213752D01*
X0070443Y0213788D01*
X0070601Y0213819D01*
X0070759Y0213847D01*
X0070918Y0213871D01*
X0071078Y0213891D01*
X0071238Y0213907D01*
X0071398Y0213919D01*
X0071559Y0213927D01*
X0071720Y0213931D01*
X0071880Y0213931D01*
X0072041Y0213927D01*
X0072202Y0213919D01*
X0072362Y0213907D01*
X0072522Y0213891D01*
X0072682Y0213871D01*
X0072841Y0213847D01*
X0072999Y0213819D01*
X0073157Y0213788D01*
X0073313Y0213752D01*
X0073469Y0213713D01*
X0073624Y0213670D01*
X0073778Y0213623D01*
X0073931Y0213572D01*
X0074082Y0213517D01*
X0074232Y0213459D01*
X0074380Y0213397D01*
X0074527Y0213331D01*
X0074672Y0213262D01*
X0074815Y0213189D01*
X0074957Y0213113D01*
X0075096Y0213033D01*
X0075234Y0212950D01*
X0075369Y0212863D01*
X0075503Y0212773D01*
X0075634Y0212680D01*
X0075762Y0212584D01*
X0075888Y0212484D01*
X0076012Y0212381D01*
X0076133Y0212276D01*
X0076252Y0212167D01*
X0076368Y0212056D01*
X0076481Y0211941D01*
X0076591Y0211824D01*
X0076698Y0211704D01*
X0076802Y0211582D01*
X0076903Y0211457D01*
X0077001Y0211329D01*
X0077096Y0211199D01*
X0077188Y0211067D01*
X0077276Y0210933D01*
X0077361Y0210796D01*
X0077443Y0210658D01*
X0077521Y0210517D01*
X0077595Y0210375D01*
X0077666Y0210231D01*
X0077734Y0210085D01*
X0077797Y0209937D01*
X0077858Y0209788D01*
X0077914Y0209637D01*
X0077967Y0209485D01*
X0078016Y0209332D01*
X0078061Y0209178D01*
X0078102Y0209023D01*
X0078140Y0208866D01*
X0078173Y0208709D01*
X0078203Y0208551D01*
X0078229Y0208392D01*
X0078250Y0208233D01*
X0078268Y0208073D01*
X0078282Y0207913D01*
X0078292Y0207752D01*
X0078298Y0207592D01*
X0078300Y0207431D01*
X0078298Y0207270D01*
X0078292Y0207110D01*
X0078282Y0206949D01*
X0078268Y0206789D01*
X0078250Y0206629D01*
X0078229Y0206470D01*
X0078203Y0206311D01*
X0078173Y0206153D01*
X0078140Y0205996D01*
X0078102Y0205839D01*
X0078061Y0205684D01*
X0078016Y0205530D01*
X0077967Y0205377D01*
X0077914Y0205225D01*
X0077858Y0205074D01*
X0077797Y0204925D01*
X0077734Y0204777D01*
X0077666Y0204631D01*
X0077595Y0204487D01*
X0077521Y0204345D01*
X0077443Y0204204D01*
X0077361Y0204066D01*
X0077276Y0203929D01*
X0077188Y0203795D01*
X0077096Y0203663D01*
X0077001Y0203533D01*
X0076903Y0203405D01*
X0076802Y0203280D01*
X0076698Y0203158D01*
X0076591Y0203038D01*
X0076481Y0202921D01*
X0076368Y0202806D01*
X0076252Y0202695D01*
X0076133Y0202586D01*
X0076012Y0202481D01*
X0075888Y0202378D01*
X0075762Y0202278D01*
X0075634Y0202182D01*
X0075503Y0202089D01*
X0075369Y0201999D01*
X0075234Y0201912D01*
X0075096Y0201829D01*
X0074957Y0201749D01*
X0074815Y0201673D01*
X0074672Y0201600D01*
X0074527Y0201531D01*
X0074380Y0201465D01*
X0074232Y0201403D01*
X0074082Y0201345D01*
X0073931Y0201290D01*
X0073778Y0201239D01*
X0073624Y0201192D01*
X0073469Y0201149D01*
X0073313Y0201110D01*
X0073157Y0201074D01*
X0072999Y0201043D01*
X0072841Y0201015D01*
X0072682Y0200991D01*
X0072522Y0200971D01*
X0072362Y0200955D01*
X0072202Y0200943D01*
X0072041Y0200935D01*
X0071880Y0200931D01*
X0071720Y0200931D01*
X0071559Y0200935D01*
X0071398Y0200943D01*
X0071238Y0200955D01*
X0071078Y0200971D01*
X0070918Y0200991D01*
X0070759Y0201015D01*
X0070601Y0201043D01*
X0070443Y0201074D01*
X0070287Y0201110D01*
X0070131Y0201149D01*
X0069976Y0201192D01*
X0069822Y0201239D01*
X0069669Y0201290D01*
X0069518Y0201345D01*
X0069368Y0201403D01*
X0069220Y0201465D01*
X0069073Y0201531D01*
X0068928Y0201600D01*
X0068785Y0201673D01*
X0068643Y0201749D01*
X0068504Y0201829D01*
X0068366Y0201912D01*
X0068231Y0201999D01*
X0068097Y0202089D01*
X0067966Y0202182D01*
X0067838Y0202278D01*
X0067712Y0202378D01*
X0067588Y0202481D01*
X0067467Y0202586D01*
X0067348Y0202695D01*
X0067232Y0202806D01*
X0067119Y0202921D01*
X0067009Y0203038D01*
X0066902Y0203158D01*
X0066798Y0203280D01*
X0066697Y0203405D01*
X0066599Y0203533D01*
X0066504Y0203663D01*
X0066412Y0203795D01*
X0066324Y0203929D01*
X0066239Y0204066D01*
X0066157Y0204204D01*
X0066079Y0204345D01*
X0066005Y0204487D01*
X0065934Y0204631D01*
X0065866Y0204777D01*
X0065803Y0204925D01*
X0065742Y0205074D01*
X0065686Y0205225D01*
X0065633Y0205377D01*
X0065584Y0205530D01*
X0065539Y0205684D01*
X0065498Y0205839D01*
X0065460Y0205996D01*
X0065427Y0206153D01*
X0065397Y0206311D01*
X0065371Y0206470D01*
X0065350Y0206629D01*
X0065332Y0206789D01*
X0065318Y0206949D01*
X0065308Y0207110D01*
X0065302Y0207270D01*
X0065300Y0207431D01*
X0087272Y0193122D02*
X0087272Y0185122D01*
X0088272Y0184122D01*
X0087272Y0183122D01*
X0087272Y0175122D01*
X0088272Y0174122D01*
X0096272Y0174122D01*
X0097272Y0175122D01*
X0097272Y0183122D01*
X0096272Y0184122D01*
X0097272Y0185122D01*
X0097272Y0193122D01*
X0096272Y0194122D01*
X0088272Y0194122D01*
X0087272Y0193122D01*
X0093556Y0198000D02*
X0093556Y0203000D01*
X0096056Y0205500D01*
X0101056Y0205500D01*
X0103556Y0203000D01*
X0106056Y0205500D01*
X0111056Y0205500D01*
X0113556Y0203000D01*
X0116056Y0205500D01*
X0121056Y0205500D01*
X0123556Y0203000D01*
X0126056Y0205500D01*
X0131056Y0205500D01*
X0133556Y0203000D01*
X0136056Y0205500D01*
X0141056Y0205500D01*
X0143556Y0203000D01*
X0146056Y0205500D01*
X0151056Y0205500D01*
X0153556Y0203000D01*
X0156056Y0205500D01*
X0161056Y0205500D01*
X0163556Y0203000D01*
X0166056Y0205500D01*
X0171056Y0205500D01*
X0173556Y0203000D01*
X0176056Y0205500D01*
X0181056Y0205500D01*
X0183556Y0203000D01*
X0186056Y0205500D01*
X0191056Y0205500D01*
X0193556Y0203000D01*
X0193556Y0198000D01*
X0191056Y0195500D01*
X0186056Y0195500D01*
X0183556Y0198000D01*
X0181056Y0195500D01*
X0176056Y0195500D01*
X0173556Y0198000D01*
X0173556Y0203000D01*
X0176056Y0205500D02*
X0173556Y0208000D01*
X0173556Y0213000D01*
X0176056Y0215500D01*
X0181056Y0215500D01*
X0183556Y0213000D01*
X0186056Y0215500D01*
X0191056Y0215500D01*
X0193556Y0213000D01*
X0193556Y0208000D01*
X0191056Y0205500D01*
X0186056Y0205500D01*
X0183556Y0208000D01*
X0181056Y0205500D01*
X0176056Y0205500D01*
X0173556Y0208000D02*
X0171056Y0205500D01*
X0166056Y0205500D01*
X0163556Y0208000D01*
X0161056Y0205500D01*
X0156056Y0205500D01*
X0153556Y0208000D01*
X0151056Y0205500D01*
X0146056Y0205500D01*
X0143556Y0208000D01*
X0143556Y0213000D01*
X0146056Y0215500D01*
X0151056Y0215500D01*
X0153556Y0213000D01*
X0156056Y0215500D01*
X0161056Y0215500D01*
X0163556Y0213000D01*
X0166056Y0215500D01*
X0171056Y0215500D01*
X0173556Y0213000D01*
X0183556Y0213000D02*
X0183556Y0208000D01*
X0183556Y0203000D02*
X0183556Y0198000D01*
X0181022Y0193736D02*
X0178086Y0193736D01*
X0177352Y0193002D01*
X0177352Y0191534D01*
X0178086Y0190800D01*
X0178820Y0190800D01*
X0179554Y0191534D01*
X0179554Y0193736D01*
X0181022Y0193736D02*
X0181756Y0193002D01*
X0181756Y0191534D01*
X0181022Y0190800D01*
X0187352Y0191534D02*
X0187352Y0193002D01*
X0188086Y0193736D01*
X0188820Y0193736D01*
X0189554Y0193002D01*
X0189554Y0191534D01*
X0188820Y0190800D01*
X0188086Y0190800D01*
X0187352Y0191534D01*
X0189554Y0191534D02*
X0190288Y0190800D01*
X0191022Y0190800D01*
X0191756Y0191534D01*
X0191756Y0193002D01*
X0191022Y0193736D01*
X0190288Y0193736D01*
X0189554Y0193002D01*
X0199556Y0198000D02*
X0199556Y0203000D01*
X0202056Y0205500D01*
X0207056Y0205500D01*
X0209556Y0203000D01*
X0212056Y0205500D01*
X0217056Y0205500D01*
X0219556Y0203000D01*
X0222056Y0205500D01*
X0227056Y0205500D01*
X0229556Y0203000D01*
X0232056Y0205500D01*
X0237056Y0205500D01*
X0239556Y0203000D01*
X0242056Y0205500D01*
X0247056Y0205500D01*
X0249556Y0203000D01*
X0252056Y0205500D01*
X0257056Y0205500D01*
X0259556Y0203000D01*
X0262056Y0205500D01*
X0267056Y0205500D01*
X0269556Y0203000D01*
X0272056Y0205500D01*
X0277056Y0205500D01*
X0279556Y0203000D01*
X0279556Y0198000D01*
X0277056Y0195500D01*
X0272056Y0195500D01*
X0269556Y0198000D01*
X0267056Y0195500D01*
X0262056Y0195500D01*
X0259556Y0198000D01*
X0259556Y0203000D01*
X0262056Y0205500D02*
X0259556Y0208000D01*
X0259556Y0213000D01*
X0262056Y0215500D01*
X0267056Y0215500D01*
X0269556Y0213000D01*
X0272056Y0215500D01*
X0277056Y0215500D01*
X0279556Y0213000D01*
X0279556Y0208000D01*
X0277056Y0205500D01*
X0272056Y0205500D01*
X0269556Y0208000D01*
X0267056Y0205500D01*
X0262056Y0205500D01*
X0259556Y0208000D02*
X0257056Y0205500D01*
X0252056Y0205500D01*
X0249556Y0208000D01*
X0247056Y0205500D01*
X0242056Y0205500D01*
X0239556Y0208000D01*
X0237056Y0205500D01*
X0232056Y0205500D01*
X0229556Y0208000D01*
X0229556Y0213000D01*
X0232056Y0215500D01*
X0237056Y0215500D01*
X0239556Y0213000D01*
X0242056Y0215500D01*
X0247056Y0215500D01*
X0249556Y0213000D01*
X0252056Y0215500D01*
X0257056Y0215500D01*
X0259556Y0213000D01*
X0249556Y0213000D02*
X0249556Y0208000D01*
X0249556Y0203000D02*
X0249556Y0198000D01*
X0247056Y0195500D01*
X0242056Y0195500D01*
X0239556Y0198000D01*
X0237056Y0195500D01*
X0232056Y0195500D01*
X0229556Y0198000D01*
X0229556Y0203000D01*
X0227056Y0205500D02*
X0222056Y0205500D01*
X0219556Y0208000D01*
X0217056Y0205500D01*
X0212056Y0205500D01*
X0209556Y0208000D01*
X0207056Y0205500D01*
X0202056Y0205500D01*
X0199556Y0208000D01*
X0199556Y0213000D01*
X0202056Y0215500D01*
X0207056Y0215500D01*
X0209556Y0213000D01*
X0212056Y0215500D01*
X0217056Y0215500D01*
X0219556Y0213000D01*
X0222056Y0215500D01*
X0227056Y0215500D01*
X0229556Y0213000D01*
X0229556Y0208000D02*
X0227056Y0205500D01*
X0219556Y0203000D02*
X0219556Y0198000D01*
X0217056Y0195500D01*
X0212056Y0195500D01*
X0209556Y0198000D01*
X0207056Y0195500D01*
X0202056Y0195500D01*
X0199556Y0198000D01*
X0202352Y0193736D02*
X0203086Y0193736D01*
X0206022Y0190800D01*
X0206756Y0190800D01*
X0202352Y0190800D02*
X0202352Y0193736D01*
X0209556Y0198000D02*
X0209556Y0203000D01*
X0209556Y0208000D02*
X0209556Y0213000D01*
X0219556Y0213000D02*
X0219556Y0208000D01*
X0219556Y0198000D02*
X0222056Y0195500D01*
X0227056Y0195500D01*
X0229556Y0198000D01*
X0226022Y0193736D02*
X0226756Y0193002D01*
X0226756Y0191534D01*
X0226022Y0190800D01*
X0224554Y0190800D02*
X0223820Y0192268D01*
X0223820Y0193002D01*
X0224554Y0193736D01*
X0226022Y0193736D01*
X0224554Y0190800D02*
X0222352Y0190800D01*
X0222352Y0193736D01*
X0216756Y0193002D02*
X0216756Y0191534D01*
X0216022Y0190800D01*
X0214554Y0190800D01*
X0214554Y0193002D01*
X0215288Y0193736D01*
X0216022Y0193736D01*
X0216756Y0193002D01*
X0214554Y0190800D02*
X0213086Y0192268D01*
X0212352Y0193736D01*
X0232352Y0193002D02*
X0234554Y0190800D01*
X0234554Y0193736D01*
X0236756Y0193002D02*
X0232352Y0193002D01*
X0239556Y0198000D02*
X0239556Y0203000D01*
X0239556Y0208000D02*
X0239556Y0213000D01*
X0249556Y0198000D02*
X0252056Y0195500D01*
X0257056Y0195500D01*
X0259556Y0198000D01*
X0256756Y0193736D02*
X0256756Y0190800D01*
X0253820Y0193736D01*
X0253086Y0193736D01*
X0252352Y0193002D01*
X0252352Y0191534D01*
X0253086Y0190800D01*
X0246756Y0191534D02*
X0246022Y0190800D01*
X0246756Y0191534D02*
X0246756Y0193002D01*
X0246022Y0193736D01*
X0245288Y0193736D01*
X0244554Y0193002D01*
X0244554Y0192268D01*
X0244554Y0193002D02*
X0243820Y0193736D01*
X0243086Y0193736D01*
X0242352Y0193002D01*
X0242352Y0191534D01*
X0243086Y0190800D01*
X0262352Y0192268D02*
X0266756Y0192268D01*
X0266756Y0190800D02*
X0266756Y0193736D01*
X0263820Y0190800D02*
X0262352Y0192268D01*
X0269556Y0198000D02*
X0269556Y0203000D01*
X0269556Y0208000D02*
X0269556Y0213000D01*
X0273086Y0193736D02*
X0276022Y0190800D01*
X0276756Y0191534D01*
X0276756Y0193002D01*
X0276022Y0193736D01*
X0273086Y0193736D01*
X0272352Y0193002D01*
X0272352Y0191534D01*
X0273086Y0190800D01*
X0276022Y0190800D01*
X0278856Y0141703D02*
X0279990Y0141703D01*
X0279423Y0141703D02*
X0279423Y0138300D01*
X0278856Y0138300D02*
X0279990Y0138300D01*
X0281311Y0138867D02*
X0281878Y0138300D01*
X0283013Y0138300D01*
X0283580Y0138867D01*
X0284994Y0138867D02*
X0285562Y0138300D01*
X0286696Y0138300D01*
X0287263Y0138867D01*
X0287263Y0139434D01*
X0286696Y0140001D01*
X0285562Y0140001D01*
X0284994Y0140569D01*
X0284994Y0141136D01*
X0285562Y0141703D01*
X0286696Y0141703D01*
X0287263Y0141136D01*
X0288678Y0141703D02*
X0290379Y0141703D01*
X0290946Y0141136D01*
X0290946Y0140001D01*
X0290379Y0139434D01*
X0288678Y0139434D01*
X0288678Y0138300D02*
X0288678Y0141703D01*
X0283580Y0141136D02*
X0283013Y0141703D01*
X0281878Y0141703D01*
X0281311Y0141136D01*
X0281311Y0138867D01*
X0287556Y0135500D02*
X0290056Y0133000D01*
X0290056Y0128000D01*
X0287556Y0125500D01*
X0272556Y0125500D01*
X0270056Y0123000D01*
X0270056Y0118000D01*
X0272556Y0115500D01*
X0270056Y0113000D01*
X0270056Y0108000D01*
X0272556Y0105500D01*
X0287556Y0105500D01*
X0290056Y0108000D01*
X0290056Y0113000D01*
X0287556Y0115500D01*
X0272556Y0115500D01*
X0272556Y0125500D02*
X0270056Y0128000D01*
X0270056Y0133000D01*
X0272556Y0135500D01*
X0287556Y0135500D01*
X0287556Y0125500D02*
X0290056Y0123000D01*
X0290056Y0118000D01*
X0287556Y0115500D01*
X0261188Y0061704D02*
X0261188Y0057300D01*
X0258986Y0057300D01*
X0258252Y0058034D01*
X0258252Y0059502D01*
X0258986Y0060236D01*
X0261188Y0060236D01*
X0256651Y0057300D02*
X0255183Y0057300D01*
X0255917Y0057300D02*
X0255917Y0061704D01*
X0255183Y0061704D01*
X0253515Y0059502D02*
X0253515Y0058768D01*
X0250579Y0058768D01*
X0250579Y0059502D02*
X0251313Y0060236D01*
X0252781Y0060236D01*
X0253515Y0059502D01*
X0252781Y0057300D02*
X0251313Y0057300D01*
X0250579Y0058034D01*
X0250579Y0059502D01*
X0248243Y0060236D02*
X0248243Y0057300D01*
X0247509Y0057300D02*
X0248977Y0057300D01*
X0248243Y0060236D02*
X0247509Y0060236D01*
X0248243Y0061704D02*
X0248243Y0062438D01*
X0245841Y0059502D02*
X0245841Y0057300D01*
X0245841Y0059502D02*
X0245107Y0060236D01*
X0243639Y0060236D01*
X0242905Y0059502D01*
X0241237Y0058768D02*
X0241237Y0058034D01*
X0240503Y0057300D01*
X0239035Y0057300D01*
X0238302Y0058034D01*
X0239035Y0059502D02*
X0240503Y0059502D01*
X0241237Y0058768D01*
X0241237Y0060970D02*
X0240503Y0061704D01*
X0239035Y0061704D01*
X0238302Y0060970D01*
X0238302Y0060236D01*
X0239035Y0059502D01*
X0242905Y0061704D02*
X0242905Y0057300D01*
X0241216Y0051236D02*
X0239748Y0051236D01*
X0239014Y0050502D01*
X0239014Y0049034D01*
X0239748Y0048300D01*
X0241216Y0048300D01*
X0241950Y0049034D01*
X0241950Y0050502D01*
X0241216Y0051236D01*
X0243618Y0049034D02*
X0244352Y0049034D01*
X0244352Y0048300D01*
X0243618Y0048300D01*
X0243618Y0049034D01*
X0245920Y0049034D02*
X0245920Y0050502D01*
X0246654Y0051236D01*
X0248856Y0051236D01*
X0250524Y0050502D02*
X0250524Y0049034D01*
X0251258Y0048300D01*
X0252726Y0048300D01*
X0253460Y0049034D01*
X0253460Y0050502D01*
X0252726Y0051236D01*
X0251258Y0051236D01*
X0250524Y0050502D01*
X0248856Y0048300D02*
X0246654Y0048300D01*
X0245920Y0049034D01*
X0245473Y0042704D02*
X0244006Y0042704D01*
X0243272Y0041970D01*
X0245473Y0042704D02*
X0246207Y0041970D01*
X0246207Y0041236D01*
X0243272Y0038300D01*
X0246207Y0038300D01*
X0247056Y0035500D02*
X0242056Y0035500D01*
X0239556Y0033000D01*
X0239556Y0028000D01*
X0237056Y0025500D01*
X0232056Y0025500D01*
X0229556Y0028000D01*
X0227056Y0025500D01*
X0222056Y0025500D01*
X0219556Y0028000D01*
X0219556Y0033000D01*
X0222056Y0035500D01*
X0227056Y0035500D01*
X0229556Y0033000D01*
X0232056Y0035500D01*
X0237056Y0035500D01*
X0239556Y0033000D01*
X0239556Y0028000D02*
X0242056Y0025500D01*
X0247056Y0025500D01*
X0249556Y0028000D01*
X0252056Y0025500D01*
X0257056Y0025500D01*
X0259556Y0028000D01*
X0262056Y0025500D01*
X0267056Y0025500D01*
X0269556Y0028000D01*
X0272056Y0025500D01*
X0277056Y0025500D01*
X0279556Y0028000D01*
X0279556Y0033000D01*
X0277056Y0035500D01*
X0272056Y0035500D01*
X0269556Y0033000D01*
X0269556Y0028000D01*
X0272056Y0025500D02*
X0269556Y0023000D01*
X0269556Y0018000D01*
X0272056Y0015500D01*
X0277056Y0015500D01*
X0279556Y0018000D01*
X0279556Y0023000D01*
X0277056Y0025500D01*
X0272056Y0025500D01*
X0269556Y0023000D02*
X0267056Y0025500D01*
X0262056Y0025500D01*
X0259556Y0023000D01*
X0259556Y0018000D01*
X0262056Y0015500D01*
X0267056Y0015500D01*
X0269556Y0018000D01*
X0259556Y0018000D02*
X0257056Y0015500D01*
X0252056Y0015500D01*
X0249556Y0018000D01*
X0247056Y0015500D01*
X0242056Y0015500D01*
X0239556Y0018000D01*
X0237056Y0015500D01*
X0232056Y0015500D01*
X0229556Y0018000D01*
X0227056Y0015500D01*
X0222056Y0015500D01*
X0219556Y0018000D01*
X0219556Y0023000D01*
X0222056Y0025500D01*
X0227056Y0025500D01*
X0229556Y0023000D01*
X0232056Y0025500D01*
X0237056Y0025500D01*
X0239556Y0023000D01*
X0239556Y0018000D01*
X0239556Y0023000D02*
X0242056Y0025500D01*
X0247056Y0025500D01*
X0249556Y0023000D01*
X0252056Y0025500D01*
X0257056Y0025500D01*
X0259556Y0023000D01*
X0259556Y0028000D02*
X0259556Y0033000D01*
X0262056Y0035500D01*
X0267056Y0035500D01*
X0269556Y0033000D01*
X0271629Y0038300D02*
X0270895Y0039034D01*
X0271629Y0038300D02*
X0273097Y0038300D01*
X0273831Y0039034D01*
X0273831Y0040502D01*
X0273097Y0041236D01*
X0272363Y0041236D01*
X0270895Y0040502D01*
X0270895Y0042704D01*
X0273831Y0042704D01*
X0264623Y0040502D02*
X0261687Y0040502D01*
X0263889Y0042704D01*
X0263889Y0038300D01*
X0259556Y0033000D02*
X0257056Y0035500D01*
X0252056Y0035500D01*
X0249556Y0033000D01*
X0249556Y0028000D01*
X0249556Y0023000D02*
X0249556Y0018000D01*
X0249556Y0033000D02*
X0247056Y0035500D01*
X0252479Y0039034D02*
X0253213Y0038300D01*
X0254681Y0038300D01*
X0255415Y0039034D01*
X0255415Y0039768D01*
X0254681Y0040502D01*
X0253947Y0040502D01*
X0254681Y0040502D02*
X0255415Y0041236D01*
X0255415Y0041970D01*
X0254681Y0042704D01*
X0253213Y0042704D01*
X0252479Y0041970D01*
X0255128Y0048300D02*
X0255128Y0051236D01*
X0255862Y0051236D01*
X0256596Y0050502D01*
X0257330Y0051236D01*
X0258064Y0050502D01*
X0258064Y0048300D01*
X0256596Y0048300D02*
X0256596Y0050502D01*
X0237346Y0050502D02*
X0237346Y0048300D01*
X0237346Y0050502D02*
X0236612Y0051236D01*
X0234410Y0051236D01*
X0234410Y0048300D01*
X0232809Y0048300D02*
X0231341Y0048300D01*
X0232075Y0048300D02*
X0232075Y0051236D01*
X0231341Y0051236D01*
X0232075Y0052704D02*
X0232075Y0053438D01*
X0229673Y0051236D02*
X0229673Y0048300D01*
X0227471Y0048300D01*
X0226737Y0049034D01*
X0226737Y0051236D01*
X0225069Y0051970D02*
X0225069Y0049034D01*
X0224335Y0048300D01*
X0222133Y0048300D01*
X0222133Y0052704D01*
X0224335Y0052704D01*
X0225069Y0051970D01*
X0225958Y0055832D02*
X0226692Y0055832D01*
X0227426Y0056566D01*
X0227426Y0060236D01*
X0229094Y0059502D02*
X0229094Y0058034D01*
X0229828Y0057300D01*
X0231296Y0057300D01*
X0232030Y0058034D01*
X0232030Y0059502D01*
X0231296Y0060236D01*
X0229828Y0060236D01*
X0229094Y0059502D01*
X0227426Y0057300D02*
X0225224Y0057300D01*
X0224490Y0058034D01*
X0224490Y0060236D01*
X0222855Y0060236D02*
X0222121Y0060236D01*
X0220653Y0058768D01*
X0220653Y0057300D02*
X0220653Y0060236D01*
X0218985Y0060970D02*
X0218251Y0061704D01*
X0216783Y0061704D01*
X0216049Y0060970D01*
X0216049Y0058034D01*
X0216783Y0057300D01*
X0218251Y0057300D01*
X0218985Y0058034D01*
X0219798Y0053438D02*
X0219798Y0052704D01*
X0219798Y0051236D02*
X0219798Y0048300D01*
X0219064Y0048300D02*
X0220532Y0048300D01*
X0219798Y0051236D02*
X0219064Y0051236D01*
X0217396Y0051236D02*
X0215194Y0051236D01*
X0214460Y0050502D01*
X0214460Y0049034D01*
X0215194Y0048300D01*
X0217396Y0048300D01*
X0212792Y0049034D02*
X0212058Y0049768D01*
X0210590Y0049768D01*
X0209856Y0050502D01*
X0210590Y0051236D01*
X0212792Y0051236D01*
X0212792Y0049034D02*
X0212058Y0048300D01*
X0209856Y0048300D01*
X0209623Y0042704D02*
X0209623Y0039768D01*
X0208155Y0038300D01*
X0206687Y0039768D01*
X0206687Y0042704D01*
X0205019Y0041970D02*
X0204285Y0042704D01*
X0202817Y0042704D01*
X0202083Y0041970D01*
X0202083Y0041236D01*
X0202817Y0040502D01*
X0205019Y0040502D01*
X0205019Y0039034D02*
X0205019Y0041970D01*
X0205019Y0039034D02*
X0204285Y0038300D01*
X0202817Y0038300D01*
X0202083Y0039034D01*
X0202056Y0035500D02*
X0199556Y0033000D01*
X0199556Y0028000D01*
X0202056Y0025500D01*
X0207056Y0025500D01*
X0209556Y0028000D01*
X0209556Y0033000D01*
X0207056Y0035500D01*
X0202056Y0035500D01*
X0199556Y0033000D02*
X0197056Y0035500D01*
X0192056Y0035500D01*
X0189556Y0033000D01*
X0189556Y0028000D01*
X0192056Y0025500D01*
X0197056Y0025500D01*
X0199556Y0028000D01*
X0202056Y0025500D02*
X0199556Y0023000D01*
X0199556Y0018000D01*
X0202056Y0015500D01*
X0207056Y0015500D01*
X0209556Y0018000D01*
X0209556Y0023000D01*
X0207056Y0025500D01*
X0202056Y0025500D01*
X0199556Y0023000D02*
X0197056Y0025500D01*
X0192056Y0025500D01*
X0189556Y0023000D01*
X0189556Y0018000D01*
X0192056Y0015500D01*
X0197056Y0015500D01*
X0199556Y0018000D01*
X0189556Y0018000D02*
X0187056Y0015500D01*
X0182056Y0015500D01*
X0179556Y0018000D01*
X0177056Y0015500D01*
X0172056Y0015500D01*
X0169556Y0018000D01*
X0167056Y0015500D01*
X0162056Y0015500D01*
X0159556Y0018000D01*
X0157056Y0015500D01*
X0152056Y0015500D01*
X0149556Y0018000D01*
X0147056Y0015500D01*
X0142056Y0015500D01*
X0139556Y0018000D01*
X0137056Y0015500D01*
X0132056Y0015500D01*
X0129556Y0018000D01*
X0129556Y0023000D01*
X0132056Y0025500D01*
X0137056Y0025500D01*
X0139556Y0028000D01*
X0142056Y0025500D01*
X0147056Y0025500D01*
X0149556Y0028000D01*
X0149556Y0033000D01*
X0147056Y0035500D01*
X0142056Y0035500D01*
X0139556Y0033000D01*
X0139556Y0028000D01*
X0142056Y0025500D02*
X0147056Y0025500D01*
X0149556Y0023000D01*
X0149556Y0018000D01*
X0149556Y0023000D02*
X0152056Y0025500D01*
X0149556Y0028000D01*
X0152056Y0025500D02*
X0157056Y0025500D01*
X0159556Y0028000D01*
X0162056Y0025500D01*
X0167056Y0025500D01*
X0169556Y0028000D01*
X0172056Y0025500D01*
X0177056Y0025500D01*
X0179556Y0028000D01*
X0179556Y0033000D01*
X0177056Y0035500D01*
X0172056Y0035500D01*
X0169556Y0033000D01*
X0169556Y0028000D01*
X0172056Y0025500D02*
X0177056Y0025500D01*
X0179556Y0023000D01*
X0179556Y0018000D01*
X0179556Y0023000D02*
X0182056Y0025500D01*
X0179556Y0028000D01*
X0182056Y0025500D02*
X0187056Y0025500D01*
X0189556Y0028000D01*
X0187056Y0025500D02*
X0189556Y0023000D01*
X0187056Y0025500D02*
X0182056Y0025500D01*
X0179556Y0033000D02*
X0182056Y0035500D01*
X0187056Y0035500D01*
X0189556Y0033000D01*
X0188272Y0038300D02*
X0188272Y0041236D01*
X0190473Y0041236D01*
X0191207Y0040502D01*
X0191207Y0038300D01*
X0192876Y0039034D02*
X0192876Y0040502D01*
X0193609Y0041236D01*
X0195811Y0041236D01*
X0195811Y0042704D02*
X0195811Y0038300D01*
X0193609Y0038300D01*
X0192876Y0039034D01*
X0186604Y0039034D02*
X0186604Y0040502D01*
X0185136Y0040502D01*
X0186604Y0041970D02*
X0185870Y0042704D01*
X0184402Y0042704D01*
X0183668Y0041970D01*
X0183668Y0039034D01*
X0184402Y0038300D01*
X0185870Y0038300D01*
X0186604Y0039034D01*
X0177396Y0039768D02*
X0177396Y0042704D01*
X0174460Y0042704D02*
X0174460Y0039768D01*
X0175928Y0038300D01*
X0177396Y0039768D01*
X0172792Y0040502D02*
X0172792Y0039034D01*
X0172058Y0038300D01*
X0170590Y0038300D01*
X0169856Y0039034D01*
X0169856Y0040502D02*
X0171324Y0041236D01*
X0172058Y0041236D01*
X0172792Y0040502D01*
X0172792Y0042704D02*
X0169856Y0042704D01*
X0169856Y0040502D01*
X0167056Y0035500D02*
X0162056Y0035500D01*
X0159556Y0033000D01*
X0159556Y0028000D01*
X0162056Y0025500D02*
X0159556Y0023000D01*
X0159556Y0018000D01*
X0159556Y0023000D02*
X0157056Y0025500D01*
X0152056Y0025500D01*
X0149556Y0033000D02*
X0152056Y0035500D01*
X0157056Y0035500D01*
X0159556Y0033000D01*
X0167056Y0035500D02*
X0169556Y0033000D01*
X0172056Y0025500D02*
X0169556Y0023000D01*
X0169556Y0018000D01*
X0169556Y0023000D02*
X0167056Y0025500D01*
X0162056Y0025500D01*
X0142056Y0025500D02*
X0139556Y0023000D01*
X0139556Y0018000D01*
X0139556Y0023000D02*
X0137056Y0025500D01*
X0132056Y0025500D01*
X0129556Y0028000D01*
X0129556Y0033000D01*
X0132056Y0035500D01*
X0137056Y0035500D01*
X0139556Y0033000D01*
X0084300Y0031831D02*
X0084300Y0012831D01*
X0081800Y0010331D01*
X0042300Y0010331D01*
X0041800Y0010331D01*
X0029800Y0010331D01*
X0027800Y0010331D01*
X0041800Y0010331D02*
X0041800Y0030331D01*
X0041800Y0033831D01*
X0082300Y0033831D01*
X0084300Y0031831D01*
X0065300Y0022231D02*
X0065302Y0022392D01*
X0065308Y0022552D01*
X0065318Y0022713D01*
X0065332Y0022873D01*
X0065350Y0023033D01*
X0065371Y0023192D01*
X0065397Y0023351D01*
X0065427Y0023509D01*
X0065460Y0023666D01*
X0065498Y0023823D01*
X0065539Y0023978D01*
X0065584Y0024132D01*
X0065633Y0024285D01*
X0065686Y0024437D01*
X0065742Y0024588D01*
X0065803Y0024737D01*
X0065866Y0024885D01*
X0065934Y0025031D01*
X0066005Y0025175D01*
X0066079Y0025317D01*
X0066157Y0025458D01*
X0066239Y0025596D01*
X0066324Y0025733D01*
X0066412Y0025867D01*
X0066504Y0025999D01*
X0066599Y0026129D01*
X0066697Y0026257D01*
X0066798Y0026382D01*
X0066902Y0026504D01*
X0067009Y0026624D01*
X0067119Y0026741D01*
X0067232Y0026856D01*
X0067348Y0026967D01*
X0067467Y0027076D01*
X0067588Y0027181D01*
X0067712Y0027284D01*
X0067838Y0027384D01*
X0067966Y0027480D01*
X0068097Y0027573D01*
X0068231Y0027663D01*
X0068366Y0027750D01*
X0068504Y0027833D01*
X0068643Y0027913D01*
X0068785Y0027989D01*
X0068928Y0028062D01*
X0069073Y0028131D01*
X0069220Y0028197D01*
X0069368Y0028259D01*
X0069518Y0028317D01*
X0069669Y0028372D01*
X0069822Y0028423D01*
X0069976Y0028470D01*
X0070131Y0028513D01*
X0070287Y0028552D01*
X0070443Y0028588D01*
X0070601Y0028619D01*
X0070759Y0028647D01*
X0070918Y0028671D01*
X0071078Y0028691D01*
X0071238Y0028707D01*
X0071398Y0028719D01*
X0071559Y0028727D01*
X0071720Y0028731D01*
X0071880Y0028731D01*
X0072041Y0028727D01*
X0072202Y0028719D01*
X0072362Y0028707D01*
X0072522Y0028691D01*
X0072682Y0028671D01*
X0072841Y0028647D01*
X0072999Y0028619D01*
X0073157Y0028588D01*
X0073313Y0028552D01*
X0073469Y0028513D01*
X0073624Y0028470D01*
X0073778Y0028423D01*
X0073931Y0028372D01*
X0074082Y0028317D01*
X0074232Y0028259D01*
X0074380Y0028197D01*
X0074527Y0028131D01*
X0074672Y0028062D01*
X0074815Y0027989D01*
X0074957Y0027913D01*
X0075096Y0027833D01*
X0075234Y0027750D01*
X0075369Y0027663D01*
X0075503Y0027573D01*
X0075634Y0027480D01*
X0075762Y0027384D01*
X0075888Y0027284D01*
X0076012Y0027181D01*
X0076133Y0027076D01*
X0076252Y0026967D01*
X0076368Y0026856D01*
X0076481Y0026741D01*
X0076591Y0026624D01*
X0076698Y0026504D01*
X0076802Y0026382D01*
X0076903Y0026257D01*
X0077001Y0026129D01*
X0077096Y0025999D01*
X0077188Y0025867D01*
X0077276Y0025733D01*
X0077361Y0025596D01*
X0077443Y0025458D01*
X0077521Y0025317D01*
X0077595Y0025175D01*
X0077666Y0025031D01*
X0077734Y0024885D01*
X0077797Y0024737D01*
X0077858Y0024588D01*
X0077914Y0024437D01*
X0077967Y0024285D01*
X0078016Y0024132D01*
X0078061Y0023978D01*
X0078102Y0023823D01*
X0078140Y0023666D01*
X0078173Y0023509D01*
X0078203Y0023351D01*
X0078229Y0023192D01*
X0078250Y0023033D01*
X0078268Y0022873D01*
X0078282Y0022713D01*
X0078292Y0022552D01*
X0078298Y0022392D01*
X0078300Y0022231D01*
X0078298Y0022070D01*
X0078292Y0021910D01*
X0078282Y0021749D01*
X0078268Y0021589D01*
X0078250Y0021429D01*
X0078229Y0021270D01*
X0078203Y0021111D01*
X0078173Y0020953D01*
X0078140Y0020796D01*
X0078102Y0020639D01*
X0078061Y0020484D01*
X0078016Y0020330D01*
X0077967Y0020177D01*
X0077914Y0020025D01*
X0077858Y0019874D01*
X0077797Y0019725D01*
X0077734Y0019577D01*
X0077666Y0019431D01*
X0077595Y0019287D01*
X0077521Y0019145D01*
X0077443Y0019004D01*
X0077361Y0018866D01*
X0077276Y0018729D01*
X0077188Y0018595D01*
X0077096Y0018463D01*
X0077001Y0018333D01*
X0076903Y0018205D01*
X0076802Y0018080D01*
X0076698Y0017958D01*
X0076591Y0017838D01*
X0076481Y0017721D01*
X0076368Y0017606D01*
X0076252Y0017495D01*
X0076133Y0017386D01*
X0076012Y0017281D01*
X0075888Y0017178D01*
X0075762Y0017078D01*
X0075634Y0016982D01*
X0075503Y0016889D01*
X0075369Y0016799D01*
X0075234Y0016712D01*
X0075096Y0016629D01*
X0074957Y0016549D01*
X0074815Y0016473D01*
X0074672Y0016400D01*
X0074527Y0016331D01*
X0074380Y0016265D01*
X0074232Y0016203D01*
X0074082Y0016145D01*
X0073931Y0016090D01*
X0073778Y0016039D01*
X0073624Y0015992D01*
X0073469Y0015949D01*
X0073313Y0015910D01*
X0073157Y0015874D01*
X0072999Y0015843D01*
X0072841Y0015815D01*
X0072682Y0015791D01*
X0072522Y0015771D01*
X0072362Y0015755D01*
X0072202Y0015743D01*
X0072041Y0015735D01*
X0071880Y0015731D01*
X0071720Y0015731D01*
X0071559Y0015735D01*
X0071398Y0015743D01*
X0071238Y0015755D01*
X0071078Y0015771D01*
X0070918Y0015791D01*
X0070759Y0015815D01*
X0070601Y0015843D01*
X0070443Y0015874D01*
X0070287Y0015910D01*
X0070131Y0015949D01*
X0069976Y0015992D01*
X0069822Y0016039D01*
X0069669Y0016090D01*
X0069518Y0016145D01*
X0069368Y0016203D01*
X0069220Y0016265D01*
X0069073Y0016331D01*
X0068928Y0016400D01*
X0068785Y0016473D01*
X0068643Y0016549D01*
X0068504Y0016629D01*
X0068366Y0016712D01*
X0068231Y0016799D01*
X0068097Y0016889D01*
X0067966Y0016982D01*
X0067838Y0017078D01*
X0067712Y0017178D01*
X0067588Y0017281D01*
X0067467Y0017386D01*
X0067348Y0017495D01*
X0067232Y0017606D01*
X0067119Y0017721D01*
X0067009Y0017838D01*
X0066902Y0017958D01*
X0066798Y0018080D01*
X0066697Y0018205D01*
X0066599Y0018333D01*
X0066504Y0018463D01*
X0066412Y0018595D01*
X0066324Y0018729D01*
X0066239Y0018866D01*
X0066157Y0019004D01*
X0066079Y0019145D01*
X0066005Y0019287D01*
X0065934Y0019431D01*
X0065866Y0019577D01*
X0065803Y0019725D01*
X0065742Y0019874D01*
X0065686Y0020025D01*
X0065633Y0020177D01*
X0065584Y0020330D01*
X0065539Y0020484D01*
X0065498Y0020639D01*
X0065460Y0020796D01*
X0065427Y0020953D01*
X0065397Y0021111D01*
X0065371Y0021270D01*
X0065350Y0021429D01*
X0065332Y0021589D01*
X0065318Y0021749D01*
X0065308Y0021910D01*
X0065302Y0022070D01*
X0065300Y0022231D01*
X0041800Y0033831D02*
X0041800Y0034831D01*
X0041800Y0033331D02*
X0041798Y0033233D01*
X0041792Y0033135D01*
X0041783Y0033037D01*
X0041769Y0032940D01*
X0041752Y0032843D01*
X0041731Y0032747D01*
X0041706Y0032652D01*
X0041678Y0032558D01*
X0041645Y0032466D01*
X0041610Y0032374D01*
X0041570Y0032284D01*
X0041528Y0032196D01*
X0041481Y0032109D01*
X0041432Y0032025D01*
X0041379Y0031942D01*
X0041323Y0031862D01*
X0041263Y0031783D01*
X0041201Y0031707D01*
X0041136Y0031634D01*
X0041068Y0031563D01*
X0040997Y0031495D01*
X0040924Y0031430D01*
X0040848Y0031368D01*
X0040769Y0031308D01*
X0040689Y0031252D01*
X0040606Y0031199D01*
X0040522Y0031150D01*
X0040435Y0031103D01*
X0040347Y0031061D01*
X0040257Y0031021D01*
X0040165Y0030986D01*
X0040073Y0030953D01*
X0039979Y0030925D01*
X0039884Y0030900D01*
X0039788Y0030879D01*
X0039691Y0030862D01*
X0039594Y0030848D01*
X0039496Y0030839D01*
X0039398Y0030833D01*
X0039300Y0030831D01*
X0029800Y0030831D01*
X0029800Y0030331D01*
X0027800Y0030331D01*
X0029800Y0030331D02*
X0030800Y0030331D01*
X0025800Y0036831D02*
X0025798Y0036929D01*
X0025792Y0037027D01*
X0025783Y0037125D01*
X0025769Y0037222D01*
X0025752Y0037319D01*
X0025731Y0037415D01*
X0025706Y0037510D01*
X0025678Y0037604D01*
X0025645Y0037696D01*
X0025610Y0037788D01*
X0025570Y0037878D01*
X0025528Y0037966D01*
X0025481Y0038053D01*
X0025432Y0038137D01*
X0025379Y0038220D01*
X0025323Y0038300D01*
X0025263Y0038379D01*
X0025201Y0038455D01*
X0025136Y0038528D01*
X0025068Y0038599D01*
X0024997Y0038667D01*
X0024924Y0038732D01*
X0024848Y0038794D01*
X0024769Y0038854D01*
X0024689Y0038910D01*
X0024606Y0038963D01*
X0024522Y0039012D01*
X0024435Y0039059D01*
X0024347Y0039101D01*
X0024257Y0039141D01*
X0024165Y0039176D01*
X0024073Y0039209D01*
X0023979Y0039237D01*
X0023884Y0039262D01*
X0023788Y0039283D01*
X0023691Y0039300D01*
X0023594Y0039314D01*
X0023496Y0039323D01*
X0023398Y0039329D01*
X0023300Y0039331D01*
X0138820Y0185800D02*
X0137352Y0187268D01*
X0141756Y0187268D01*
X0141756Y0185800D02*
X0141756Y0188736D01*
X0141022Y0190404D02*
X0141756Y0191138D01*
X0141756Y0192606D01*
X0141022Y0193340D01*
X0140288Y0193340D01*
X0139554Y0192606D01*
X0139554Y0191872D01*
X0139554Y0192606D02*
X0138820Y0193340D01*
X0138086Y0193340D01*
X0137352Y0192606D01*
X0137352Y0191138D01*
X0138086Y0190404D01*
X0136056Y0195500D02*
X0133556Y0198000D01*
X0131056Y0195500D01*
X0126056Y0195500D01*
X0123556Y0198000D01*
X0121056Y0195500D01*
X0116056Y0195500D01*
X0113556Y0198000D01*
X0113556Y0203000D01*
X0116056Y0205500D02*
X0113556Y0208000D01*
X0113556Y0213000D01*
X0116056Y0215500D01*
X0121056Y0215500D01*
X0123556Y0213000D01*
X0126056Y0215500D01*
X0131056Y0215500D01*
X0133556Y0213000D01*
X0136056Y0215500D01*
X0141056Y0215500D01*
X0143556Y0213000D01*
X0143556Y0208000D02*
X0141056Y0205500D01*
X0136056Y0205500D01*
X0133556Y0208000D01*
X0131056Y0205500D01*
X0126056Y0205500D01*
X0123556Y0208000D01*
X0121056Y0205500D01*
X0116056Y0205500D01*
X0113556Y0208000D02*
X0111056Y0205500D01*
X0106056Y0205500D01*
X0103556Y0208000D01*
X0101056Y0205500D01*
X0096056Y0205500D01*
X0093556Y0208000D01*
X0093556Y0213000D01*
X0096056Y0215500D01*
X0101056Y0215500D01*
X0103556Y0213000D01*
X0106056Y0215500D01*
X0111056Y0215500D01*
X0113556Y0213000D01*
X0103556Y0213000D02*
X0103556Y0208000D01*
X0103556Y0203000D02*
X0103556Y0198000D01*
X0101056Y0195500D01*
X0096056Y0195500D01*
X0093556Y0198000D01*
X0103556Y0198000D02*
X0106056Y0195500D01*
X0111056Y0195500D01*
X0113556Y0198000D01*
X0123556Y0198000D02*
X0123556Y0203000D01*
X0123556Y0208000D02*
X0123556Y0213000D01*
X0133556Y0213000D02*
X0133556Y0208000D01*
X0133556Y0203000D02*
X0133556Y0198000D01*
X0136056Y0195500D02*
X0141056Y0195500D01*
X0143556Y0198000D01*
X0143556Y0203000D01*
X0143556Y0198000D02*
X0146056Y0195500D01*
X0151056Y0195500D01*
X0153556Y0198000D01*
X0153556Y0203000D01*
X0153556Y0198000D02*
X0156056Y0195500D01*
X0161056Y0195500D01*
X0163556Y0198000D01*
X0163556Y0203000D01*
X0163556Y0198000D02*
X0166056Y0195500D01*
X0171056Y0195500D01*
X0173556Y0198000D01*
X0171022Y0193340D02*
X0168086Y0193340D01*
X0171022Y0190404D01*
X0171756Y0191138D01*
X0171756Y0192606D01*
X0171022Y0193340D01*
X0171756Y0192606D01*
X0171756Y0191138D01*
X0171022Y0190404D01*
X0168086Y0190404D01*
X0167352Y0191138D01*
X0167352Y0192606D01*
X0168086Y0193340D01*
X0171022Y0190404D01*
X0168086Y0190404D01*
X0167352Y0191138D01*
X0167352Y0192606D01*
X0168086Y0193340D01*
X0171022Y0193340D01*
X0171756Y0188736D02*
X0171756Y0185800D01*
X0171756Y0188736D01*
X0171756Y0187268D02*
X0167352Y0187268D01*
X0168820Y0185800D01*
X0167352Y0187268D01*
X0171756Y0187268D01*
X0161256Y0187268D02*
X0156852Y0187268D01*
X0158320Y0185800D01*
X0161256Y0185800D02*
X0161256Y0188736D01*
X0161256Y0190404D02*
X0161256Y0193340D01*
X0161256Y0191872D02*
X0156852Y0191872D01*
X0158320Y0190404D01*
X0151756Y0190404D02*
X0148820Y0193340D01*
X0148086Y0193340D01*
X0147352Y0192606D01*
X0147352Y0191138D01*
X0148086Y0190404D01*
X0151756Y0190404D02*
X0151756Y0193340D01*
X0151756Y0188736D02*
X0151756Y0185800D01*
X0151756Y0187268D02*
X0147352Y0187268D01*
X0148820Y0185800D01*
X0153556Y0208000D02*
X0153556Y0213000D01*
X0163556Y0213000D02*
X0163556Y0208000D01*
X0225590Y0042704D02*
X0227058Y0042704D01*
X0227792Y0041970D01*
X0224856Y0039034D01*
X0225590Y0038300D01*
X0227058Y0038300D01*
X0227792Y0039034D01*
X0227792Y0041970D01*
X0225590Y0042704D02*
X0224856Y0041970D01*
X0224856Y0039034D01*
X0229556Y0033000D02*
X0229556Y0028000D01*
X0229556Y0023000D02*
X0229556Y0018000D01*
X0234064Y0038300D02*
X0237000Y0038300D01*
X0235532Y0038300D02*
X0235532Y0042704D01*
X0234064Y0041236D01*
D13*
X0262548Y0086878D02*
X0262550Y0087000D01*
X0262556Y0087121D01*
X0262566Y0087243D01*
X0262580Y0087364D01*
X0262597Y0087484D01*
X0262619Y0087604D01*
X0262645Y0087723D01*
X0262674Y0087841D01*
X0262707Y0087958D01*
X0262744Y0088074D01*
X0262785Y0088189D01*
X0262830Y0088302D01*
X0262878Y0088414D01*
X0262930Y0088524D01*
X0262985Y0088633D01*
X0263044Y0088739D01*
X0263106Y0088844D01*
X0263172Y0088946D01*
X0263241Y0089047D01*
X0263313Y0089145D01*
X0263389Y0089240D01*
X0263467Y0089333D01*
X0263548Y0089424D01*
X0263633Y0089512D01*
X0263720Y0089597D01*
X0263810Y0089679D01*
X0263902Y0089758D01*
X0263997Y0089834D01*
X0264095Y0089907D01*
X0264194Y0089977D01*
X0264296Y0090044D01*
X0264400Y0090107D01*
X0264507Y0090166D01*
X0264615Y0090223D01*
X0264724Y0090275D01*
X0264836Y0090325D01*
X0264949Y0090370D01*
X0265063Y0090412D01*
X0265179Y0090450D01*
X0265296Y0090484D01*
X0265413Y0090514D01*
X0265532Y0090541D01*
X0265652Y0090564D01*
X0265772Y0090582D01*
X0265893Y0090597D01*
X0266014Y0090608D01*
X0266136Y0090615D01*
X0266258Y0090618D01*
X0266379Y0090617D01*
X0266501Y0090612D01*
X0266622Y0090603D01*
X0266743Y0090590D01*
X0266864Y0090573D01*
X0266984Y0090553D01*
X0267103Y0090528D01*
X0267222Y0090500D01*
X0267339Y0090467D01*
X0267455Y0090431D01*
X0267570Y0090391D01*
X0267684Y0090348D01*
X0267796Y0090300D01*
X0267907Y0090250D01*
X0268016Y0090195D01*
X0268123Y0090137D01*
X0268228Y0090076D01*
X0268331Y0090011D01*
X0268432Y0089943D01*
X0268530Y0089871D01*
X0268627Y0089797D01*
X0268720Y0089719D01*
X0268812Y0089638D01*
X0268900Y0089555D01*
X0268986Y0089468D01*
X0269069Y0089379D01*
X0269149Y0089287D01*
X0269226Y0089193D01*
X0269299Y0089096D01*
X0269370Y0088997D01*
X0269437Y0088895D01*
X0269501Y0088792D01*
X0269562Y0088686D01*
X0269619Y0088579D01*
X0269673Y0088469D01*
X0269723Y0088358D01*
X0269769Y0088246D01*
X0269812Y0088132D01*
X0269851Y0088016D01*
X0269886Y0087900D01*
X0269917Y0087782D01*
X0269945Y0087664D01*
X0269968Y0087544D01*
X0269988Y0087424D01*
X0270004Y0087303D01*
X0270016Y0087182D01*
X0270024Y0087061D01*
X0270028Y0086939D01*
X0270028Y0086817D01*
X0270024Y0086695D01*
X0270016Y0086574D01*
X0270004Y0086453D01*
X0269988Y0086332D01*
X0269968Y0086212D01*
X0269945Y0086092D01*
X0269917Y0085974D01*
X0269886Y0085856D01*
X0269851Y0085740D01*
X0269812Y0085624D01*
X0269769Y0085510D01*
X0269723Y0085398D01*
X0269673Y0085287D01*
X0269619Y0085177D01*
X0269562Y0085070D01*
X0269501Y0084964D01*
X0269437Y0084861D01*
X0269370Y0084759D01*
X0269299Y0084660D01*
X0269226Y0084563D01*
X0269149Y0084469D01*
X0269069Y0084377D01*
X0268986Y0084288D01*
X0268900Y0084201D01*
X0268812Y0084118D01*
X0268720Y0084037D01*
X0268627Y0083959D01*
X0268530Y0083885D01*
X0268432Y0083813D01*
X0268331Y0083745D01*
X0268228Y0083680D01*
X0268123Y0083619D01*
X0268016Y0083561D01*
X0267907Y0083506D01*
X0267796Y0083456D01*
X0267684Y0083408D01*
X0267570Y0083365D01*
X0267455Y0083325D01*
X0267339Y0083289D01*
X0267222Y0083256D01*
X0267103Y0083228D01*
X0266984Y0083203D01*
X0266864Y0083183D01*
X0266743Y0083166D01*
X0266622Y0083153D01*
X0266501Y0083144D01*
X0266379Y0083139D01*
X0266258Y0083138D01*
X0266136Y0083141D01*
X0266014Y0083148D01*
X0265893Y0083159D01*
X0265772Y0083174D01*
X0265652Y0083192D01*
X0265532Y0083215D01*
X0265413Y0083242D01*
X0265296Y0083272D01*
X0265179Y0083306D01*
X0265063Y0083344D01*
X0264949Y0083386D01*
X0264836Y0083431D01*
X0264724Y0083481D01*
X0264615Y0083533D01*
X0264507Y0083590D01*
X0264400Y0083649D01*
X0264296Y0083712D01*
X0264194Y0083779D01*
X0264095Y0083849D01*
X0263997Y0083922D01*
X0263902Y0083998D01*
X0263810Y0084077D01*
X0263720Y0084159D01*
X0263633Y0084244D01*
X0263548Y0084332D01*
X0263467Y0084423D01*
X0263389Y0084516D01*
X0263313Y0084611D01*
X0263241Y0084709D01*
X0263172Y0084810D01*
X0263106Y0084912D01*
X0263044Y0085017D01*
X0262985Y0085123D01*
X0262930Y0085232D01*
X0262878Y0085342D01*
X0262830Y0085454D01*
X0262785Y0085567D01*
X0262744Y0085682D01*
X0262707Y0085798D01*
X0262674Y0085915D01*
X0262645Y0086033D01*
X0262619Y0086152D01*
X0262597Y0086272D01*
X0262580Y0086392D01*
X0262566Y0086513D01*
X0262556Y0086635D01*
X0262550Y0086756D01*
X0262548Y0086878D01*
X0278257Y0150500D02*
X0278259Y0150658D01*
X0278265Y0150816D01*
X0278275Y0150974D01*
X0278289Y0151132D01*
X0278307Y0151289D01*
X0278328Y0151446D01*
X0278354Y0151602D01*
X0278384Y0151758D01*
X0278417Y0151913D01*
X0278455Y0152066D01*
X0278496Y0152219D01*
X0278541Y0152371D01*
X0278590Y0152522D01*
X0278643Y0152671D01*
X0278699Y0152819D01*
X0278759Y0152965D01*
X0278823Y0153110D01*
X0278891Y0153253D01*
X0278962Y0153395D01*
X0279036Y0153535D01*
X0279114Y0153672D01*
X0279196Y0153808D01*
X0279280Y0153942D01*
X0279369Y0154073D01*
X0279460Y0154202D01*
X0279555Y0154329D01*
X0279652Y0154454D01*
X0279753Y0154576D01*
X0279857Y0154695D01*
X0279964Y0154812D01*
X0280074Y0154926D01*
X0280187Y0155037D01*
X0280302Y0155146D01*
X0280420Y0155251D01*
X0280541Y0155353D01*
X0280664Y0155453D01*
X0280790Y0155549D01*
X0280918Y0155642D01*
X0281048Y0155732D01*
X0281181Y0155818D01*
X0281316Y0155902D01*
X0281452Y0155981D01*
X0281591Y0156058D01*
X0281732Y0156130D01*
X0281874Y0156200D01*
X0282018Y0156265D01*
X0282164Y0156327D01*
X0282311Y0156385D01*
X0282460Y0156440D01*
X0282610Y0156491D01*
X0282761Y0156538D01*
X0282913Y0156581D01*
X0283066Y0156620D01*
X0283221Y0156656D01*
X0283376Y0156687D01*
X0283532Y0156715D01*
X0283688Y0156739D01*
X0283845Y0156759D01*
X0284003Y0156775D01*
X0284160Y0156787D01*
X0284319Y0156795D01*
X0284477Y0156799D01*
X0284635Y0156799D01*
X0284793Y0156795D01*
X0284952Y0156787D01*
X0285109Y0156775D01*
X0285267Y0156759D01*
X0285424Y0156739D01*
X0285580Y0156715D01*
X0285736Y0156687D01*
X0285891Y0156656D01*
X0286046Y0156620D01*
X0286199Y0156581D01*
X0286351Y0156538D01*
X0286502Y0156491D01*
X0286652Y0156440D01*
X0286801Y0156385D01*
X0286948Y0156327D01*
X0287094Y0156265D01*
X0287238Y0156200D01*
X0287380Y0156130D01*
X0287521Y0156058D01*
X0287660Y0155981D01*
X0287796Y0155902D01*
X0287931Y0155818D01*
X0288064Y0155732D01*
X0288194Y0155642D01*
X0288322Y0155549D01*
X0288448Y0155453D01*
X0288571Y0155353D01*
X0288692Y0155251D01*
X0288810Y0155146D01*
X0288925Y0155037D01*
X0289038Y0154926D01*
X0289148Y0154812D01*
X0289255Y0154695D01*
X0289359Y0154576D01*
X0289460Y0154454D01*
X0289557Y0154329D01*
X0289652Y0154202D01*
X0289743Y0154073D01*
X0289832Y0153942D01*
X0289916Y0153808D01*
X0289998Y0153672D01*
X0290076Y0153535D01*
X0290150Y0153395D01*
X0290221Y0153253D01*
X0290289Y0153110D01*
X0290353Y0152965D01*
X0290413Y0152819D01*
X0290469Y0152671D01*
X0290522Y0152522D01*
X0290571Y0152371D01*
X0290616Y0152219D01*
X0290657Y0152066D01*
X0290695Y0151913D01*
X0290728Y0151758D01*
X0290758Y0151602D01*
X0290784Y0151446D01*
X0290805Y0151289D01*
X0290823Y0151132D01*
X0290837Y0150974D01*
X0290847Y0150816D01*
X0290853Y0150658D01*
X0290855Y0150500D01*
X0290853Y0150342D01*
X0290847Y0150184D01*
X0290837Y0150026D01*
X0290823Y0149868D01*
X0290805Y0149711D01*
X0290784Y0149554D01*
X0290758Y0149398D01*
X0290728Y0149242D01*
X0290695Y0149087D01*
X0290657Y0148934D01*
X0290616Y0148781D01*
X0290571Y0148629D01*
X0290522Y0148478D01*
X0290469Y0148329D01*
X0290413Y0148181D01*
X0290353Y0148035D01*
X0290289Y0147890D01*
X0290221Y0147747D01*
X0290150Y0147605D01*
X0290076Y0147465D01*
X0289998Y0147328D01*
X0289916Y0147192D01*
X0289832Y0147058D01*
X0289743Y0146927D01*
X0289652Y0146798D01*
X0289557Y0146671D01*
X0289460Y0146546D01*
X0289359Y0146424D01*
X0289255Y0146305D01*
X0289148Y0146188D01*
X0289038Y0146074D01*
X0288925Y0145963D01*
X0288810Y0145854D01*
X0288692Y0145749D01*
X0288571Y0145647D01*
X0288448Y0145547D01*
X0288322Y0145451D01*
X0288194Y0145358D01*
X0288064Y0145268D01*
X0287931Y0145182D01*
X0287796Y0145098D01*
X0287660Y0145019D01*
X0287521Y0144942D01*
X0287380Y0144870D01*
X0287238Y0144800D01*
X0287094Y0144735D01*
X0286948Y0144673D01*
X0286801Y0144615D01*
X0286652Y0144560D01*
X0286502Y0144509D01*
X0286351Y0144462D01*
X0286199Y0144419D01*
X0286046Y0144380D01*
X0285891Y0144344D01*
X0285736Y0144313D01*
X0285580Y0144285D01*
X0285424Y0144261D01*
X0285267Y0144241D01*
X0285109Y0144225D01*
X0284952Y0144213D01*
X0284793Y0144205D01*
X0284635Y0144201D01*
X0284477Y0144201D01*
X0284319Y0144205D01*
X0284160Y0144213D01*
X0284003Y0144225D01*
X0283845Y0144241D01*
X0283688Y0144261D01*
X0283532Y0144285D01*
X0283376Y0144313D01*
X0283221Y0144344D01*
X0283066Y0144380D01*
X0282913Y0144419D01*
X0282761Y0144462D01*
X0282610Y0144509D01*
X0282460Y0144560D01*
X0282311Y0144615D01*
X0282164Y0144673D01*
X0282018Y0144735D01*
X0281874Y0144800D01*
X0281732Y0144870D01*
X0281591Y0144942D01*
X0281452Y0145019D01*
X0281316Y0145098D01*
X0281181Y0145182D01*
X0281048Y0145268D01*
X0280918Y0145358D01*
X0280790Y0145451D01*
X0280664Y0145547D01*
X0280541Y0145647D01*
X0280420Y0145749D01*
X0280302Y0145854D01*
X0280187Y0145963D01*
X0280074Y0146074D01*
X0279964Y0146188D01*
X0279857Y0146305D01*
X0279753Y0146424D01*
X0279652Y0146546D01*
X0279555Y0146671D01*
X0279460Y0146798D01*
X0279369Y0146927D01*
X0279280Y0147058D01*
X0279196Y0147192D01*
X0279114Y0147328D01*
X0279036Y0147465D01*
X0278962Y0147605D01*
X0278891Y0147747D01*
X0278823Y0147890D01*
X0278759Y0148035D01*
X0278699Y0148181D01*
X0278643Y0148329D01*
X0278590Y0148478D01*
X0278541Y0148629D01*
X0278496Y0148781D01*
X0278455Y0148934D01*
X0278417Y0149087D01*
X0278384Y0149242D01*
X0278354Y0149398D01*
X0278328Y0149554D01*
X0278307Y0149711D01*
X0278289Y0149868D01*
X0278275Y0150026D01*
X0278265Y0150184D01*
X0278259Y0150342D01*
X0278257Y0150500D01*
X0065300Y0207431D02*
X0065302Y0207592D01*
X0065308Y0207752D01*
X0065318Y0207913D01*
X0065332Y0208073D01*
X0065350Y0208233D01*
X0065371Y0208392D01*
X0065397Y0208551D01*
X0065427Y0208709D01*
X0065460Y0208866D01*
X0065498Y0209023D01*
X0065539Y0209178D01*
X0065584Y0209332D01*
X0065633Y0209485D01*
X0065686Y0209637D01*
X0065742Y0209788D01*
X0065803Y0209937D01*
X0065866Y0210085D01*
X0065934Y0210231D01*
X0066005Y0210375D01*
X0066079Y0210517D01*
X0066157Y0210658D01*
X0066239Y0210796D01*
X0066324Y0210933D01*
X0066412Y0211067D01*
X0066504Y0211199D01*
X0066599Y0211329D01*
X0066697Y0211457D01*
X0066798Y0211582D01*
X0066902Y0211704D01*
X0067009Y0211824D01*
X0067119Y0211941D01*
X0067232Y0212056D01*
X0067348Y0212167D01*
X0067467Y0212276D01*
X0067588Y0212381D01*
X0067712Y0212484D01*
X0067838Y0212584D01*
X0067966Y0212680D01*
X0068097Y0212773D01*
X0068231Y0212863D01*
X0068366Y0212950D01*
X0068504Y0213033D01*
X0068643Y0213113D01*
X0068785Y0213189D01*
X0068928Y0213262D01*
X0069073Y0213331D01*
X0069220Y0213397D01*
X0069368Y0213459D01*
X0069518Y0213517D01*
X0069669Y0213572D01*
X0069822Y0213623D01*
X0069976Y0213670D01*
X0070131Y0213713D01*
X0070287Y0213752D01*
X0070443Y0213788D01*
X0070601Y0213819D01*
X0070759Y0213847D01*
X0070918Y0213871D01*
X0071078Y0213891D01*
X0071238Y0213907D01*
X0071398Y0213919D01*
X0071559Y0213927D01*
X0071720Y0213931D01*
X0071880Y0213931D01*
X0072041Y0213927D01*
X0072202Y0213919D01*
X0072362Y0213907D01*
X0072522Y0213891D01*
X0072682Y0213871D01*
X0072841Y0213847D01*
X0072999Y0213819D01*
X0073157Y0213788D01*
X0073313Y0213752D01*
X0073469Y0213713D01*
X0073624Y0213670D01*
X0073778Y0213623D01*
X0073931Y0213572D01*
X0074082Y0213517D01*
X0074232Y0213459D01*
X0074380Y0213397D01*
X0074527Y0213331D01*
X0074672Y0213262D01*
X0074815Y0213189D01*
X0074957Y0213113D01*
X0075096Y0213033D01*
X0075234Y0212950D01*
X0075369Y0212863D01*
X0075503Y0212773D01*
X0075634Y0212680D01*
X0075762Y0212584D01*
X0075888Y0212484D01*
X0076012Y0212381D01*
X0076133Y0212276D01*
X0076252Y0212167D01*
X0076368Y0212056D01*
X0076481Y0211941D01*
X0076591Y0211824D01*
X0076698Y0211704D01*
X0076802Y0211582D01*
X0076903Y0211457D01*
X0077001Y0211329D01*
X0077096Y0211199D01*
X0077188Y0211067D01*
X0077276Y0210933D01*
X0077361Y0210796D01*
X0077443Y0210658D01*
X0077521Y0210517D01*
X0077595Y0210375D01*
X0077666Y0210231D01*
X0077734Y0210085D01*
X0077797Y0209937D01*
X0077858Y0209788D01*
X0077914Y0209637D01*
X0077967Y0209485D01*
X0078016Y0209332D01*
X0078061Y0209178D01*
X0078102Y0209023D01*
X0078140Y0208866D01*
X0078173Y0208709D01*
X0078203Y0208551D01*
X0078229Y0208392D01*
X0078250Y0208233D01*
X0078268Y0208073D01*
X0078282Y0207913D01*
X0078292Y0207752D01*
X0078298Y0207592D01*
X0078300Y0207431D01*
X0078298Y0207270D01*
X0078292Y0207110D01*
X0078282Y0206949D01*
X0078268Y0206789D01*
X0078250Y0206629D01*
X0078229Y0206470D01*
X0078203Y0206311D01*
X0078173Y0206153D01*
X0078140Y0205996D01*
X0078102Y0205839D01*
X0078061Y0205684D01*
X0078016Y0205530D01*
X0077967Y0205377D01*
X0077914Y0205225D01*
X0077858Y0205074D01*
X0077797Y0204925D01*
X0077734Y0204777D01*
X0077666Y0204631D01*
X0077595Y0204487D01*
X0077521Y0204345D01*
X0077443Y0204204D01*
X0077361Y0204066D01*
X0077276Y0203929D01*
X0077188Y0203795D01*
X0077096Y0203663D01*
X0077001Y0203533D01*
X0076903Y0203405D01*
X0076802Y0203280D01*
X0076698Y0203158D01*
X0076591Y0203038D01*
X0076481Y0202921D01*
X0076368Y0202806D01*
X0076252Y0202695D01*
X0076133Y0202586D01*
X0076012Y0202481D01*
X0075888Y0202378D01*
X0075762Y0202278D01*
X0075634Y0202182D01*
X0075503Y0202089D01*
X0075369Y0201999D01*
X0075234Y0201912D01*
X0075096Y0201829D01*
X0074957Y0201749D01*
X0074815Y0201673D01*
X0074672Y0201600D01*
X0074527Y0201531D01*
X0074380Y0201465D01*
X0074232Y0201403D01*
X0074082Y0201345D01*
X0073931Y0201290D01*
X0073778Y0201239D01*
X0073624Y0201192D01*
X0073469Y0201149D01*
X0073313Y0201110D01*
X0073157Y0201074D01*
X0072999Y0201043D01*
X0072841Y0201015D01*
X0072682Y0200991D01*
X0072522Y0200971D01*
X0072362Y0200955D01*
X0072202Y0200943D01*
X0072041Y0200935D01*
X0071880Y0200931D01*
X0071720Y0200931D01*
X0071559Y0200935D01*
X0071398Y0200943D01*
X0071238Y0200955D01*
X0071078Y0200971D01*
X0070918Y0200991D01*
X0070759Y0201015D01*
X0070601Y0201043D01*
X0070443Y0201074D01*
X0070287Y0201110D01*
X0070131Y0201149D01*
X0069976Y0201192D01*
X0069822Y0201239D01*
X0069669Y0201290D01*
X0069518Y0201345D01*
X0069368Y0201403D01*
X0069220Y0201465D01*
X0069073Y0201531D01*
X0068928Y0201600D01*
X0068785Y0201673D01*
X0068643Y0201749D01*
X0068504Y0201829D01*
X0068366Y0201912D01*
X0068231Y0201999D01*
X0068097Y0202089D01*
X0067966Y0202182D01*
X0067838Y0202278D01*
X0067712Y0202378D01*
X0067588Y0202481D01*
X0067467Y0202586D01*
X0067348Y0202695D01*
X0067232Y0202806D01*
X0067119Y0202921D01*
X0067009Y0203038D01*
X0066902Y0203158D01*
X0066798Y0203280D01*
X0066697Y0203405D01*
X0066599Y0203533D01*
X0066504Y0203663D01*
X0066412Y0203795D01*
X0066324Y0203929D01*
X0066239Y0204066D01*
X0066157Y0204204D01*
X0066079Y0204345D01*
X0066005Y0204487D01*
X0065934Y0204631D01*
X0065866Y0204777D01*
X0065803Y0204925D01*
X0065742Y0205074D01*
X0065686Y0205225D01*
X0065633Y0205377D01*
X0065584Y0205530D01*
X0065539Y0205684D01*
X0065498Y0205839D01*
X0065460Y0205996D01*
X0065427Y0206153D01*
X0065397Y0206311D01*
X0065371Y0206470D01*
X0065350Y0206629D01*
X0065332Y0206789D01*
X0065318Y0206949D01*
X0065308Y0207110D01*
X0065302Y0207270D01*
X0065300Y0207431D01*
X0065300Y0022231D02*
X0065302Y0022392D01*
X0065308Y0022552D01*
X0065318Y0022713D01*
X0065332Y0022873D01*
X0065350Y0023033D01*
X0065371Y0023192D01*
X0065397Y0023351D01*
X0065427Y0023509D01*
X0065460Y0023666D01*
X0065498Y0023823D01*
X0065539Y0023978D01*
X0065584Y0024132D01*
X0065633Y0024285D01*
X0065686Y0024437D01*
X0065742Y0024588D01*
X0065803Y0024737D01*
X0065866Y0024885D01*
X0065934Y0025031D01*
X0066005Y0025175D01*
X0066079Y0025317D01*
X0066157Y0025458D01*
X0066239Y0025596D01*
X0066324Y0025733D01*
X0066412Y0025867D01*
X0066504Y0025999D01*
X0066599Y0026129D01*
X0066697Y0026257D01*
X0066798Y0026382D01*
X0066902Y0026504D01*
X0067009Y0026624D01*
X0067119Y0026741D01*
X0067232Y0026856D01*
X0067348Y0026967D01*
X0067467Y0027076D01*
X0067588Y0027181D01*
X0067712Y0027284D01*
X0067838Y0027384D01*
X0067966Y0027480D01*
X0068097Y0027573D01*
X0068231Y0027663D01*
X0068366Y0027750D01*
X0068504Y0027833D01*
X0068643Y0027913D01*
X0068785Y0027989D01*
X0068928Y0028062D01*
X0069073Y0028131D01*
X0069220Y0028197D01*
X0069368Y0028259D01*
X0069518Y0028317D01*
X0069669Y0028372D01*
X0069822Y0028423D01*
X0069976Y0028470D01*
X0070131Y0028513D01*
X0070287Y0028552D01*
X0070443Y0028588D01*
X0070601Y0028619D01*
X0070759Y0028647D01*
X0070918Y0028671D01*
X0071078Y0028691D01*
X0071238Y0028707D01*
X0071398Y0028719D01*
X0071559Y0028727D01*
X0071720Y0028731D01*
X0071880Y0028731D01*
X0072041Y0028727D01*
X0072202Y0028719D01*
X0072362Y0028707D01*
X0072522Y0028691D01*
X0072682Y0028671D01*
X0072841Y0028647D01*
X0072999Y0028619D01*
X0073157Y0028588D01*
X0073313Y0028552D01*
X0073469Y0028513D01*
X0073624Y0028470D01*
X0073778Y0028423D01*
X0073931Y0028372D01*
X0074082Y0028317D01*
X0074232Y0028259D01*
X0074380Y0028197D01*
X0074527Y0028131D01*
X0074672Y0028062D01*
X0074815Y0027989D01*
X0074957Y0027913D01*
X0075096Y0027833D01*
X0075234Y0027750D01*
X0075369Y0027663D01*
X0075503Y0027573D01*
X0075634Y0027480D01*
X0075762Y0027384D01*
X0075888Y0027284D01*
X0076012Y0027181D01*
X0076133Y0027076D01*
X0076252Y0026967D01*
X0076368Y0026856D01*
X0076481Y0026741D01*
X0076591Y0026624D01*
X0076698Y0026504D01*
X0076802Y0026382D01*
X0076903Y0026257D01*
X0077001Y0026129D01*
X0077096Y0025999D01*
X0077188Y0025867D01*
X0077276Y0025733D01*
X0077361Y0025596D01*
X0077443Y0025458D01*
X0077521Y0025317D01*
X0077595Y0025175D01*
X0077666Y0025031D01*
X0077734Y0024885D01*
X0077797Y0024737D01*
X0077858Y0024588D01*
X0077914Y0024437D01*
X0077967Y0024285D01*
X0078016Y0024132D01*
X0078061Y0023978D01*
X0078102Y0023823D01*
X0078140Y0023666D01*
X0078173Y0023509D01*
X0078203Y0023351D01*
X0078229Y0023192D01*
X0078250Y0023033D01*
X0078268Y0022873D01*
X0078282Y0022713D01*
X0078292Y0022552D01*
X0078298Y0022392D01*
X0078300Y0022231D01*
X0078298Y0022070D01*
X0078292Y0021910D01*
X0078282Y0021749D01*
X0078268Y0021589D01*
X0078250Y0021429D01*
X0078229Y0021270D01*
X0078203Y0021111D01*
X0078173Y0020953D01*
X0078140Y0020796D01*
X0078102Y0020639D01*
X0078061Y0020484D01*
X0078016Y0020330D01*
X0077967Y0020177D01*
X0077914Y0020025D01*
X0077858Y0019874D01*
X0077797Y0019725D01*
X0077734Y0019577D01*
X0077666Y0019431D01*
X0077595Y0019287D01*
X0077521Y0019145D01*
X0077443Y0019004D01*
X0077361Y0018866D01*
X0077276Y0018729D01*
X0077188Y0018595D01*
X0077096Y0018463D01*
X0077001Y0018333D01*
X0076903Y0018205D01*
X0076802Y0018080D01*
X0076698Y0017958D01*
X0076591Y0017838D01*
X0076481Y0017721D01*
X0076368Y0017606D01*
X0076252Y0017495D01*
X0076133Y0017386D01*
X0076012Y0017281D01*
X0075888Y0017178D01*
X0075762Y0017078D01*
X0075634Y0016982D01*
X0075503Y0016889D01*
X0075369Y0016799D01*
X0075234Y0016712D01*
X0075096Y0016629D01*
X0074957Y0016549D01*
X0074815Y0016473D01*
X0074672Y0016400D01*
X0074527Y0016331D01*
X0074380Y0016265D01*
X0074232Y0016203D01*
X0074082Y0016145D01*
X0073931Y0016090D01*
X0073778Y0016039D01*
X0073624Y0015992D01*
X0073469Y0015949D01*
X0073313Y0015910D01*
X0073157Y0015874D01*
X0072999Y0015843D01*
X0072841Y0015815D01*
X0072682Y0015791D01*
X0072522Y0015771D01*
X0072362Y0015755D01*
X0072202Y0015743D01*
X0072041Y0015735D01*
X0071880Y0015731D01*
X0071720Y0015731D01*
X0071559Y0015735D01*
X0071398Y0015743D01*
X0071238Y0015755D01*
X0071078Y0015771D01*
X0070918Y0015791D01*
X0070759Y0015815D01*
X0070601Y0015843D01*
X0070443Y0015874D01*
X0070287Y0015910D01*
X0070131Y0015949D01*
X0069976Y0015992D01*
X0069822Y0016039D01*
X0069669Y0016090D01*
X0069518Y0016145D01*
X0069368Y0016203D01*
X0069220Y0016265D01*
X0069073Y0016331D01*
X0068928Y0016400D01*
X0068785Y0016473D01*
X0068643Y0016549D01*
X0068504Y0016629D01*
X0068366Y0016712D01*
X0068231Y0016799D01*
X0068097Y0016889D01*
X0067966Y0016982D01*
X0067838Y0017078D01*
X0067712Y0017178D01*
X0067588Y0017281D01*
X0067467Y0017386D01*
X0067348Y0017495D01*
X0067232Y0017606D01*
X0067119Y0017721D01*
X0067009Y0017838D01*
X0066902Y0017958D01*
X0066798Y0018080D01*
X0066697Y0018205D01*
X0066599Y0018333D01*
X0066504Y0018463D01*
X0066412Y0018595D01*
X0066324Y0018729D01*
X0066239Y0018866D01*
X0066157Y0019004D01*
X0066079Y0019145D01*
X0066005Y0019287D01*
X0065934Y0019431D01*
X0065866Y0019577D01*
X0065803Y0019725D01*
X0065742Y0019874D01*
X0065686Y0020025D01*
X0065633Y0020177D01*
X0065584Y0020330D01*
X0065539Y0020484D01*
X0065498Y0020639D01*
X0065460Y0020796D01*
X0065427Y0020953D01*
X0065397Y0021111D01*
X0065371Y0021270D01*
X0065350Y0021429D01*
X0065332Y0021589D01*
X0065318Y0021749D01*
X0065308Y0021910D01*
X0065302Y0022070D01*
X0065300Y0022231D01*
D14*
X0118937Y0180150D02*
X0117703Y0181384D01*
X0118937Y0182619D01*
X0121406Y0182619D01*
X0121406Y0183833D02*
X0117703Y0183833D01*
X0117703Y0185685D01*
X0118320Y0186302D01*
X0119554Y0186302D01*
X0120172Y0185685D01*
X0120172Y0183833D01*
X0120172Y0185068D02*
X0121406Y0186302D01*
X0121406Y0187516D02*
X0121406Y0189985D01*
X0121406Y0191199D02*
X0117703Y0191199D01*
X0117703Y0193668D01*
X0119554Y0192434D02*
X0119554Y0191199D01*
X0117703Y0189985D02*
X0117703Y0187516D01*
X0121406Y0187516D01*
X0119554Y0187516D02*
X0119554Y0188751D01*
X0119554Y0182619D02*
X0119554Y0180150D01*
X0118937Y0180150D02*
X0121406Y0180150D01*
D15*
X0096450Y0022330D02*
X0096450Y0018126D01*
X0096450Y0020228D02*
X0090145Y0020228D01*
X0092246Y0018126D01*
X0090145Y0015884D02*
X0096450Y0011681D01*
X0096450Y0015884D02*
X0090145Y0011681D01*
D16*
X0043300Y0114831D03*
D17*
X0026800Y0114831D03*
D18*
X0059050Y0114831D03*
X0059050Y0125731D03*
X0059050Y0136531D03*
X0059050Y0147431D03*
X0059050Y0158331D03*
X0059050Y0169131D03*
X0059050Y0180031D03*
X0059050Y0103931D03*
X0059050Y0093131D03*
X0059050Y0082231D03*
X0059050Y0071331D03*
X0059050Y0060531D03*
X0059050Y0049631D03*
D19*
X0054050Y0055031D03*
X0054050Y0065931D03*
X0054050Y0076831D03*
X0054050Y0087631D03*
X0054050Y0098531D03*
X0054050Y0109431D03*
X0054050Y0120231D03*
X0054050Y0131131D03*
X0054050Y0141931D03*
X0054050Y0152831D03*
X0054050Y0163731D03*
X0054050Y0174631D03*
D20*
X0158551Y0117119D02*
X0160086Y0115584D01*
X0160086Y0114050D02*
X0160853Y0113282D01*
X0161620Y0114050D01*
X0162388Y0114050D01*
X0163155Y0113282D01*
X0163155Y0111748D01*
X0162388Y0110980D01*
X0162388Y0109446D02*
X0163155Y0108678D01*
X0163155Y0107144D01*
X0162388Y0106376D01*
X0162388Y0104842D02*
X0163155Y0104074D01*
X0163155Y0102540D01*
X0162388Y0101772D01*
X0162388Y0100238D02*
X0160853Y0100238D01*
X0160853Y0098703D01*
X0159319Y0097169D02*
X0162388Y0097169D01*
X0163155Y0097936D01*
X0163155Y0099470D01*
X0162388Y0100238D01*
X0159319Y0100238D02*
X0158551Y0099470D01*
X0158551Y0097936D01*
X0159319Y0097169D01*
X0159319Y0095634D02*
X0158551Y0094867D01*
X0158551Y0092565D01*
X0163155Y0092565D01*
X0163155Y0094867D01*
X0162388Y0095634D01*
X0159319Y0095634D01*
X0160086Y0091030D02*
X0163155Y0091030D01*
X0160853Y0091030D02*
X0160853Y0087961D01*
X0160086Y0087961D02*
X0158551Y0089495D01*
X0160086Y0091030D01*
X0160086Y0087961D02*
X0163155Y0087961D01*
X0159319Y0101772D02*
X0158551Y0102540D01*
X0158551Y0104074D01*
X0159319Y0104842D01*
X0160086Y0104842D01*
X0160853Y0104074D01*
X0161620Y0104842D01*
X0162388Y0104842D01*
X0160853Y0104074D02*
X0160853Y0103307D01*
X0159319Y0106376D02*
X0158551Y0107144D01*
X0158551Y0108678D01*
X0159319Y0109446D01*
X0160086Y0109446D01*
X0160853Y0108678D01*
X0161620Y0109446D01*
X0162388Y0109446D01*
X0160853Y0108678D02*
X0160853Y0107911D01*
X0159319Y0110980D02*
X0158551Y0111748D01*
X0158551Y0113282D01*
X0159319Y0114050D01*
X0160086Y0114050D01*
X0160853Y0113282D02*
X0160853Y0112515D01*
X0163155Y0115584D02*
X0163155Y0118653D01*
X0163155Y0117119D02*
X0158551Y0117119D01*
X0191414Y0139656D02*
X0191414Y0142726D01*
X0192181Y0143493D01*
X0193716Y0143493D01*
X0194483Y0142726D01*
X0196018Y0143493D02*
X0196018Y0141191D01*
X0197553Y0141958D01*
X0198320Y0141958D01*
X0199087Y0141191D01*
X0199087Y0139656D01*
X0198320Y0138889D01*
X0196785Y0138889D01*
X0196018Y0139656D01*
X0194483Y0139656D02*
X0193716Y0138889D01*
X0192181Y0138889D01*
X0191414Y0139656D01*
X0196018Y0143493D02*
X0199087Y0143493D01*
X0176088Y0163165D02*
X0176088Y0164700D01*
X0175321Y0165467D01*
X0173786Y0167002D02*
X0173786Y0170071D01*
X0173786Y0172002D02*
X0173786Y0175071D01*
X0172252Y0173536D02*
X0175321Y0173536D01*
X0176088Y0169304D02*
X0171484Y0169304D01*
X0173786Y0167002D01*
X0172252Y0165467D02*
X0171484Y0164700D01*
X0171484Y0163165D01*
X0172252Y0162398D01*
X0175321Y0162398D01*
X0176088Y0163165D01*
X0186445Y0166708D02*
X0187212Y0165941D01*
X0190282Y0165941D01*
X0191049Y0166708D01*
X0191049Y0168243D01*
X0190282Y0169010D01*
X0191049Y0170545D02*
X0187980Y0173614D01*
X0187212Y0173614D01*
X0186445Y0172847D01*
X0186445Y0171312D01*
X0187212Y0170545D01*
X0187212Y0169010D02*
X0186445Y0168243D01*
X0186445Y0166708D01*
X0191049Y0170545D02*
X0191049Y0173614D01*
X0200618Y0173220D02*
X0201385Y0171686D01*
X0202920Y0170151D01*
X0202920Y0172453D01*
X0203687Y0173220D01*
X0204455Y0173220D01*
X0205222Y0172453D01*
X0205222Y0170918D01*
X0204455Y0170151D01*
X0202920Y0170151D01*
X0201385Y0168617D02*
X0200618Y0167849D01*
X0200618Y0166315D01*
X0201385Y0165547D01*
X0204455Y0165547D01*
X0205222Y0166315D01*
X0205222Y0167849D01*
X0204455Y0168617D01*
X0213713Y0177499D02*
X0213713Y0180568D01*
X0215247Y0182103D01*
X0216782Y0180568D01*
X0216782Y0177499D01*
X0218317Y0177499D02*
X0220618Y0177499D01*
X0221386Y0178267D01*
X0221386Y0181336D01*
X0220618Y0182103D01*
X0218317Y0182103D01*
X0218317Y0177499D01*
X0216782Y0179801D02*
X0213713Y0179801D01*
X0222920Y0179034D02*
X0225222Y0179034D01*
X0225990Y0179801D01*
X0225990Y0181336D01*
X0225222Y0182103D01*
X0222920Y0182103D01*
X0222920Y0177499D01*
X0227524Y0178267D02*
X0228292Y0177499D01*
X0229826Y0177499D01*
X0230594Y0178267D01*
X0230594Y0179034D01*
X0229826Y0179801D01*
X0229059Y0179801D01*
X0229826Y0179801D02*
X0230594Y0180568D01*
X0230594Y0181336D01*
X0229826Y0182103D01*
X0228292Y0182103D01*
X0227524Y0181336D01*
X0232128Y0181336D02*
X0232896Y0182103D01*
X0234430Y0182103D01*
X0235198Y0181336D01*
X0235198Y0180568D01*
X0234430Y0179801D01*
X0235198Y0179034D01*
X0235198Y0178267D01*
X0234430Y0177499D01*
X0232896Y0177499D01*
X0232128Y0178267D01*
X0233663Y0179801D02*
X0234430Y0179801D01*
X0236732Y0178267D02*
X0239802Y0181336D01*
X0239802Y0178267D01*
X0239034Y0177499D01*
X0237500Y0177499D01*
X0236732Y0178267D01*
X0236732Y0181336D01*
X0237500Y0182103D01*
X0239034Y0182103D01*
X0239802Y0181336D01*
X0241336Y0181336D02*
X0242103Y0182103D01*
X0243638Y0182103D01*
X0244405Y0181336D01*
X0244405Y0180568D01*
X0243638Y0179801D01*
X0244405Y0179034D01*
X0244405Y0178267D01*
X0243638Y0177499D01*
X0242103Y0177499D01*
X0241336Y0178267D01*
X0242871Y0179801D02*
X0243638Y0179801D01*
X0254161Y0169324D02*
X0258765Y0169324D01*
X0258765Y0170858D02*
X0258765Y0167789D01*
X0257998Y0166254D02*
X0258765Y0165487D01*
X0258765Y0163952D01*
X0257998Y0163185D01*
X0254929Y0163185D01*
X0254161Y0163952D01*
X0254161Y0165487D01*
X0254929Y0166254D01*
X0255696Y0167789D02*
X0254161Y0169324D01*
X0276996Y0168122D02*
X0276996Y0166588D01*
X0277763Y0165820D01*
X0277763Y0164286D02*
X0276996Y0163519D01*
X0276996Y0161984D01*
X0277763Y0161217D01*
X0280833Y0161217D01*
X0281600Y0161984D01*
X0281600Y0163519D01*
X0280833Y0164286D01*
X0280833Y0165820D02*
X0281600Y0166588D01*
X0281600Y0168122D01*
X0280833Y0168890D01*
X0280065Y0168890D01*
X0279298Y0168122D01*
X0279298Y0167355D01*
X0279298Y0168122D02*
X0278531Y0168890D01*
X0277763Y0168890D01*
X0276996Y0168122D01*
X0279298Y0170820D02*
X0279298Y0173890D01*
X0277763Y0172355D02*
X0280833Y0172355D01*
X0222210Y0118653D02*
X0222210Y0115584D01*
X0219141Y0118653D01*
X0218374Y0118653D01*
X0217606Y0117886D01*
X0217606Y0116352D01*
X0218374Y0115584D01*
X0218374Y0114050D02*
X0217606Y0113282D01*
X0217606Y0111748D01*
X0218374Y0110980D01*
X0218374Y0109446D02*
X0217606Y0108678D01*
X0217606Y0107144D01*
X0218374Y0106376D01*
X0218374Y0104842D02*
X0217606Y0104074D01*
X0217606Y0102540D01*
X0218374Y0101772D01*
X0218374Y0100238D02*
X0217606Y0099470D01*
X0217606Y0097936D01*
X0218374Y0097169D01*
X0221443Y0097169D01*
X0222210Y0097936D01*
X0222210Y0099470D01*
X0221443Y0100238D01*
X0219908Y0100238D01*
X0219908Y0098703D01*
X0221443Y0101772D02*
X0222210Y0102540D01*
X0222210Y0104074D01*
X0221443Y0104842D01*
X0220676Y0104842D01*
X0219908Y0104074D01*
X0219908Y0103307D01*
X0219908Y0104074D02*
X0219141Y0104842D01*
X0218374Y0104842D01*
X0221443Y0106376D02*
X0222210Y0107144D01*
X0222210Y0108678D01*
X0221443Y0109446D01*
X0220676Y0109446D01*
X0219908Y0108678D01*
X0219908Y0107911D01*
X0219908Y0108678D02*
X0219141Y0109446D01*
X0218374Y0109446D01*
X0221443Y0110980D02*
X0222210Y0111748D01*
X0222210Y0113282D01*
X0221443Y0114050D01*
X0220676Y0114050D01*
X0219908Y0113282D01*
X0219908Y0112515D01*
X0219908Y0113282D02*
X0219141Y0114050D01*
X0218374Y0114050D01*
X0229986Y0105893D02*
X0229986Y0102824D01*
X0229986Y0104358D02*
X0225382Y0104358D01*
X0226917Y0102824D01*
X0227684Y0101289D02*
X0226149Y0101289D01*
X0225382Y0100522D01*
X0225382Y0098220D01*
X0229986Y0098220D01*
X0228451Y0098220D02*
X0228451Y0100522D01*
X0227684Y0101289D01*
X0228451Y0099754D02*
X0229986Y0101289D01*
X0222210Y0094867D02*
X0221443Y0095634D01*
X0218374Y0095634D01*
X0217606Y0094867D01*
X0217606Y0092565D01*
X0222210Y0092565D01*
X0222210Y0094867D01*
X0222210Y0091030D02*
X0219141Y0091030D01*
X0217606Y0089495D01*
X0219141Y0087961D01*
X0222210Y0087961D01*
X0219908Y0087961D02*
X0219908Y0091030D01*
D21*
X0215107Y0090421D02*
X0215107Y0120343D01*
X0164713Y0120343D01*
X0164713Y0090421D01*
X0215107Y0090421D01*
X0209950Y0116405D02*
X0209952Y0116494D01*
X0209958Y0116584D01*
X0209968Y0116673D01*
X0209982Y0116761D01*
X0210000Y0116848D01*
X0210021Y0116935D01*
X0210047Y0117021D01*
X0210076Y0117105D01*
X0210109Y0117189D01*
X0210146Y0117270D01*
X0210186Y0117350D01*
X0210230Y0117428D01*
X0210277Y0117504D01*
X0210328Y0117577D01*
X0210382Y0117649D01*
X0210439Y0117718D01*
X0210499Y0117784D01*
X0210562Y0117848D01*
X0210627Y0117908D01*
X0210696Y0117966D01*
X0210766Y0118021D01*
X0210840Y0118072D01*
X0210915Y0118120D01*
X0210992Y0118165D01*
X0211072Y0118206D01*
X0211153Y0118244D01*
X0211236Y0118278D01*
X0211320Y0118308D01*
X0211405Y0118335D01*
X0211492Y0118357D01*
X0211579Y0118376D01*
X0211667Y0118391D01*
X0211756Y0118402D01*
X0211845Y0118409D01*
X0211935Y0118412D01*
X0212024Y0118411D01*
X0212113Y0118406D01*
X0212202Y0118397D01*
X0212291Y0118384D01*
X0212379Y0118367D01*
X0212466Y0118346D01*
X0212552Y0118322D01*
X0212636Y0118293D01*
X0212720Y0118261D01*
X0212802Y0118226D01*
X0212882Y0118186D01*
X0212960Y0118143D01*
X0213037Y0118097D01*
X0213111Y0118047D01*
X0213183Y0117994D01*
X0213253Y0117938D01*
X0213320Y0117878D01*
X0213384Y0117816D01*
X0213445Y0117751D01*
X0213504Y0117684D01*
X0213559Y0117613D01*
X0213612Y0117541D01*
X0213661Y0117466D01*
X0213706Y0117389D01*
X0213748Y0117310D01*
X0213787Y0117229D01*
X0213822Y0117147D01*
X0213853Y0117063D01*
X0213880Y0116978D01*
X0213904Y0116892D01*
X0213924Y0116805D01*
X0213940Y0116717D01*
X0213952Y0116628D01*
X0213960Y0116539D01*
X0213964Y0116450D01*
X0213964Y0116360D01*
X0213960Y0116271D01*
X0213952Y0116182D01*
X0213940Y0116093D01*
X0213924Y0116005D01*
X0213904Y0115918D01*
X0213880Y0115832D01*
X0213853Y0115747D01*
X0213822Y0115663D01*
X0213787Y0115581D01*
X0213748Y0115500D01*
X0213706Y0115421D01*
X0213661Y0115344D01*
X0213612Y0115269D01*
X0213559Y0115197D01*
X0213504Y0115126D01*
X0213445Y0115059D01*
X0213384Y0114994D01*
X0213320Y0114932D01*
X0213253Y0114872D01*
X0213183Y0114816D01*
X0213111Y0114763D01*
X0213037Y0114713D01*
X0212961Y0114667D01*
X0212882Y0114624D01*
X0212802Y0114584D01*
X0212720Y0114549D01*
X0212636Y0114517D01*
X0212552Y0114488D01*
X0212466Y0114464D01*
X0212379Y0114443D01*
X0212291Y0114426D01*
X0212202Y0114413D01*
X0212113Y0114404D01*
X0212024Y0114399D01*
X0211935Y0114398D01*
X0211845Y0114401D01*
X0211756Y0114408D01*
X0211667Y0114419D01*
X0211579Y0114434D01*
X0211492Y0114453D01*
X0211405Y0114475D01*
X0211320Y0114502D01*
X0211236Y0114532D01*
X0211153Y0114566D01*
X0211072Y0114604D01*
X0210992Y0114645D01*
X0210915Y0114690D01*
X0210840Y0114738D01*
X0210766Y0114789D01*
X0210696Y0114844D01*
X0210627Y0114902D01*
X0210562Y0114962D01*
X0210499Y0115026D01*
X0210439Y0115092D01*
X0210382Y0115161D01*
X0210328Y0115233D01*
X0210277Y0115306D01*
X0210230Y0115382D01*
X0210186Y0115460D01*
X0210146Y0115540D01*
X0210109Y0115621D01*
X0210076Y0115705D01*
X0210047Y0115789D01*
X0210021Y0115875D01*
X0210000Y0115962D01*
X0209982Y0116049D01*
X0209968Y0116137D01*
X0209958Y0116226D01*
X0209952Y0116316D01*
X0209950Y0116405D01*
X0156052Y0120343D02*
X0156052Y0090421D01*
X0105658Y0090421D01*
X0105658Y0120343D01*
X0156052Y0120343D01*
X0150895Y0116405D02*
X0150897Y0116494D01*
X0150903Y0116584D01*
X0150913Y0116673D01*
X0150927Y0116761D01*
X0150945Y0116848D01*
X0150966Y0116935D01*
X0150992Y0117021D01*
X0151021Y0117105D01*
X0151054Y0117189D01*
X0151091Y0117270D01*
X0151131Y0117350D01*
X0151175Y0117428D01*
X0151222Y0117504D01*
X0151273Y0117577D01*
X0151327Y0117649D01*
X0151384Y0117718D01*
X0151444Y0117784D01*
X0151507Y0117848D01*
X0151572Y0117908D01*
X0151641Y0117966D01*
X0151711Y0118021D01*
X0151785Y0118072D01*
X0151860Y0118120D01*
X0151937Y0118165D01*
X0152017Y0118206D01*
X0152098Y0118244D01*
X0152181Y0118278D01*
X0152265Y0118308D01*
X0152350Y0118335D01*
X0152437Y0118357D01*
X0152524Y0118376D01*
X0152612Y0118391D01*
X0152701Y0118402D01*
X0152790Y0118409D01*
X0152880Y0118412D01*
X0152969Y0118411D01*
X0153058Y0118406D01*
X0153147Y0118397D01*
X0153236Y0118384D01*
X0153324Y0118367D01*
X0153411Y0118346D01*
X0153497Y0118322D01*
X0153581Y0118293D01*
X0153665Y0118261D01*
X0153747Y0118226D01*
X0153827Y0118186D01*
X0153905Y0118143D01*
X0153982Y0118097D01*
X0154056Y0118047D01*
X0154128Y0117994D01*
X0154198Y0117938D01*
X0154265Y0117878D01*
X0154329Y0117816D01*
X0154390Y0117751D01*
X0154449Y0117684D01*
X0154504Y0117613D01*
X0154557Y0117541D01*
X0154606Y0117466D01*
X0154651Y0117389D01*
X0154693Y0117310D01*
X0154732Y0117229D01*
X0154767Y0117147D01*
X0154798Y0117063D01*
X0154825Y0116978D01*
X0154849Y0116892D01*
X0154869Y0116805D01*
X0154885Y0116717D01*
X0154897Y0116628D01*
X0154905Y0116539D01*
X0154909Y0116450D01*
X0154909Y0116360D01*
X0154905Y0116271D01*
X0154897Y0116182D01*
X0154885Y0116093D01*
X0154869Y0116005D01*
X0154849Y0115918D01*
X0154825Y0115832D01*
X0154798Y0115747D01*
X0154767Y0115663D01*
X0154732Y0115581D01*
X0154693Y0115500D01*
X0154651Y0115421D01*
X0154606Y0115344D01*
X0154557Y0115269D01*
X0154504Y0115197D01*
X0154449Y0115126D01*
X0154390Y0115059D01*
X0154329Y0114994D01*
X0154265Y0114932D01*
X0154198Y0114872D01*
X0154128Y0114816D01*
X0154056Y0114763D01*
X0153982Y0114713D01*
X0153906Y0114667D01*
X0153827Y0114624D01*
X0153747Y0114584D01*
X0153665Y0114549D01*
X0153581Y0114517D01*
X0153497Y0114488D01*
X0153411Y0114464D01*
X0153324Y0114443D01*
X0153236Y0114426D01*
X0153147Y0114413D01*
X0153058Y0114404D01*
X0152969Y0114399D01*
X0152880Y0114398D01*
X0152790Y0114401D01*
X0152701Y0114408D01*
X0152612Y0114419D01*
X0152524Y0114434D01*
X0152437Y0114453D01*
X0152350Y0114475D01*
X0152265Y0114502D01*
X0152181Y0114532D01*
X0152098Y0114566D01*
X0152017Y0114604D01*
X0151937Y0114645D01*
X0151860Y0114690D01*
X0151785Y0114738D01*
X0151711Y0114789D01*
X0151641Y0114844D01*
X0151572Y0114902D01*
X0151507Y0114962D01*
X0151444Y0115026D01*
X0151384Y0115092D01*
X0151327Y0115161D01*
X0151273Y0115233D01*
X0151222Y0115306D01*
X0151175Y0115382D01*
X0151131Y0115460D01*
X0151091Y0115540D01*
X0151054Y0115621D01*
X0151021Y0115705D01*
X0150992Y0115789D01*
X0150966Y0115875D01*
X0150945Y0115962D01*
X0150927Y0116049D01*
X0150913Y0116137D01*
X0150903Y0116226D01*
X0150897Y0116316D01*
X0150895Y0116405D01*
M02*
