G75*
%MOIN*%
%OFA0B0*%
%FSLAX25Y25*%
%IPPOS*%
%LPD*%
%AMOC8*
5,1,8,0,0,1.08239X$1,22.5*
%
%ADD10C,0.12998*%
%ADD11C,0.06140*%
%ADD12C,0.06400*%
%ADD13OC8,0.06502*%
%ADD14OC8,0.06400*%
%ADD15OC8,0.06975*%
%ADD16C,0.13400*%
%ADD17R,0.09061X0.02762*%
%ADD18R,0.06306X0.05518*%
%ADD19R,0.07487X0.06699*%
%ADD20R,0.05518X0.06306*%
%ADD21R,0.02762X0.06306*%
%ADD22R,0.05550X0.05550*%
%ADD23C,0.07880*%
%ADD24C,0.06000*%
%ADD25R,0.08274X0.06699*%
%ADD26C,0.04362*%
%ADD27R,0.04362X0.04362*%
D10*
X0284556Y0150500D03*
D11*
X0274556Y0199065D02*
X0274556Y0201935D01*
X0274556Y0209065D02*
X0274556Y0211935D01*
X0264556Y0211935D02*
X0264556Y0209065D01*
X0264556Y0201935D02*
X0264556Y0199065D01*
X0254556Y0199065D02*
X0254556Y0201935D01*
X0254556Y0209065D02*
X0254556Y0211935D01*
X0244556Y0211935D02*
X0244556Y0209065D01*
X0244556Y0201935D02*
X0244556Y0199065D01*
X0234556Y0199065D02*
X0234556Y0201935D01*
X0234556Y0209065D02*
X0234556Y0211935D01*
X0224556Y0211935D02*
X0224556Y0209065D01*
X0224556Y0201935D02*
X0224556Y0199065D01*
X0214556Y0199065D02*
X0214556Y0201935D01*
X0214556Y0209065D02*
X0214556Y0211935D01*
X0204556Y0211935D02*
X0204556Y0209065D01*
X0204556Y0201935D02*
X0204556Y0199065D01*
X0188556Y0199065D02*
X0188556Y0201935D01*
X0188556Y0209065D02*
X0188556Y0211935D01*
X0178556Y0211935D02*
X0178556Y0209065D01*
X0178556Y0201935D02*
X0178556Y0199065D01*
X0168556Y0199065D02*
X0168556Y0201935D01*
X0168556Y0209065D02*
X0168556Y0211935D01*
X0158556Y0211935D02*
X0158556Y0209065D01*
X0158556Y0201935D02*
X0158556Y0199065D01*
X0148556Y0199065D02*
X0148556Y0201935D01*
X0148556Y0209065D02*
X0148556Y0211935D01*
X0138556Y0211935D02*
X0138556Y0209065D01*
X0138556Y0201935D02*
X0138556Y0199065D01*
X0128556Y0199065D02*
X0128556Y0201935D01*
X0128556Y0209065D02*
X0128556Y0211935D01*
X0118556Y0211935D02*
X0118556Y0209065D01*
X0118556Y0201935D02*
X0118556Y0199065D01*
X0108556Y0199065D02*
X0108556Y0201935D01*
X0108556Y0209065D02*
X0108556Y0211935D01*
X0098556Y0211935D02*
X0098556Y0209065D01*
X0098556Y0201935D02*
X0098556Y0199065D01*
X0134556Y0031935D02*
X0134556Y0029065D01*
X0134556Y0021935D02*
X0134556Y0019065D01*
X0144556Y0019065D02*
X0144556Y0021935D01*
X0144556Y0029065D02*
X0144556Y0031935D01*
X0154556Y0031935D02*
X0154556Y0029065D01*
X0154556Y0021935D02*
X0154556Y0019065D01*
X0164556Y0019065D02*
X0164556Y0021935D01*
X0164556Y0029065D02*
X0164556Y0031935D01*
X0174556Y0031935D02*
X0174556Y0029065D01*
X0174556Y0021935D02*
X0174556Y0019065D01*
X0184556Y0019065D02*
X0184556Y0021935D01*
X0184556Y0029065D02*
X0184556Y0031935D01*
X0194556Y0031935D02*
X0194556Y0029065D01*
X0194556Y0021935D02*
X0194556Y0019065D01*
X0204556Y0019065D02*
X0204556Y0021935D01*
X0204556Y0029065D02*
X0204556Y0031935D01*
D12*
X0224556Y0032000D02*
X0224556Y0029000D01*
X0224556Y0022000D02*
X0224556Y0019000D01*
X0234556Y0019000D02*
X0234556Y0022000D01*
X0234556Y0029000D02*
X0234556Y0032000D01*
X0244556Y0032000D02*
X0244556Y0029000D01*
X0244556Y0022000D02*
X0244556Y0019000D01*
X0254556Y0019000D02*
X0254556Y0022000D01*
X0254556Y0029000D02*
X0254556Y0032000D01*
X0264556Y0032000D02*
X0264556Y0029000D01*
X0264556Y0022000D02*
X0264556Y0019000D01*
X0274556Y0019000D02*
X0274556Y0022000D01*
X0274556Y0029000D02*
X0274556Y0032000D01*
D13*
X0275056Y0110500D03*
X0285056Y0110500D03*
X0285056Y0120500D03*
X0275056Y0120500D03*
X0275056Y0130500D03*
X0285056Y0130500D03*
D14*
X0076800Y0125731D03*
X0066800Y0131131D03*
X0076800Y0136531D03*
X0066800Y0142031D03*
X0076800Y0147431D03*
X0066800Y0152831D03*
X0076800Y0158331D03*
X0066800Y0163731D03*
X0076800Y0169131D03*
X0066800Y0174631D03*
X0076800Y0180031D03*
X0066800Y0120231D03*
X0076800Y0093131D03*
X0076800Y0082231D03*
X0066800Y0076831D03*
X0076800Y0071331D03*
X0066800Y0065931D03*
X0076800Y0060531D03*
X0066800Y0055031D03*
X0076800Y0049631D03*
D15*
X0066800Y0087631D03*
X0066800Y0098531D03*
X0076800Y0103931D03*
X0066800Y0109431D03*
X0076800Y0114831D03*
D16*
X0071800Y0022231D03*
X0071800Y0207431D03*
D17*
X0210776Y0174299D03*
X0210776Y0169299D03*
X0210776Y0164299D03*
X0210776Y0159299D03*
X0231249Y0159299D03*
X0231249Y0164299D03*
X0231249Y0169299D03*
X0231249Y0174299D03*
D18*
X0248965Y0170933D03*
X0248965Y0163453D03*
X0195422Y0165815D03*
X0195422Y0173295D03*
X0181249Y0173689D03*
X0181249Y0166209D03*
D19*
X0166288Y0160894D03*
X0166288Y0171917D03*
X0271800Y0170736D03*
X0271800Y0159713D03*
D20*
X0199162Y0148689D03*
X0191682Y0148689D03*
D21*
X0192410Y0124673D03*
X0187410Y0124673D03*
X0182410Y0124673D03*
X0177410Y0124673D03*
X0172410Y0124673D03*
X0167410Y0124673D03*
X0153355Y0124673D03*
X0148355Y0124673D03*
X0143355Y0124673D03*
X0138355Y0124673D03*
X0133355Y0124673D03*
X0128355Y0124673D03*
X0123355Y0124673D03*
X0118355Y0124673D03*
X0113355Y0124673D03*
X0108355Y0124673D03*
X0108355Y0085303D03*
X0113355Y0085303D03*
X0118355Y0085303D03*
X0123355Y0085303D03*
X0128355Y0085303D03*
X0133355Y0085303D03*
X0138355Y0085303D03*
X0143355Y0085303D03*
X0148355Y0085303D03*
X0153355Y0085303D03*
X0167410Y0085303D03*
X0172410Y0085303D03*
X0177410Y0085303D03*
X0182410Y0085303D03*
X0187410Y0085303D03*
X0192410Y0085303D03*
X0197410Y0085303D03*
X0202410Y0085303D03*
X0207410Y0085303D03*
X0212410Y0085303D03*
X0212410Y0124673D03*
X0207410Y0124673D03*
X0202410Y0124673D03*
X0197410Y0124673D03*
D22*
X0273769Y0079004D03*
X0273769Y0071130D03*
X0273769Y0063256D03*
X0273769Y0055382D03*
D23*
X0266288Y0086878D03*
D24*
X0093672Y0179122D02*
X0090872Y0179122D01*
X0090872Y0189122D02*
X0093672Y0189122D01*
D25*
X0235186Y0108531D03*
X0235186Y0097508D03*
D26*
X0171800Y0148295D03*
X0182824Y0156957D03*
X0222194Y0151839D03*
X0258414Y0151445D03*
X0258414Y0181760D03*
X0116288Y0134516D03*
D27*
X0124950Y0146720D03*
X0141485Y0133335D03*
X0148178Y0139240D03*
X0150146Y0145146D03*
X0155658Y0148689D03*
X0159989Y0130972D03*
X0167469Y0130972D03*
X0167469Y0111681D03*
X0159202Y0111681D03*
X0157627Y0103807D03*
X0147391Y0100264D03*
X0137942Y0108138D03*
X0120619Y0108138D03*
X0100934Y0100264D03*
X0092272Y0081760D03*
X0092666Y0072311D03*
X0100934Y0068768D03*
X0123375Y0058531D03*
X0137942Y0072311D03*
X0133217Y0079398D03*
X0162745Y0086878D03*
X0182036Y0072311D03*
X0192272Y0079398D03*
X0197391Y0075854D03*
X0172587Y0058531D03*
X0208808Y0111681D03*
X0213139Y0131760D03*
X0247784Y0149870D03*
X0159202Y0175461D03*
X0152902Y0166799D03*
X0133217Y0165224D03*
X0124950Y0178217D03*
M02*
