%
M48
M72
T01C0.0236
T02C0.0240
T03C0.0315
T04C0.0320
T05C0.0374
T06C0.0400
T07C0.0500
T08C0.0700
T09C0.1260
%
T01
X12637Y21900
X16419Y21900
X26800Y22300
T02
X17614Y26923
X16826Y27710
X22535Y13143
X22535Y12553
X25291Y12553
X25291Y13143
X19582Y12750
X19189Y12356
X18598Y12946
X18204Y12553
T03
X11850Y13250
X11850Y14250
X11850Y15250
X11850Y16250
X8850Y16250
X8850Y15250
X8850Y14250
X8850Y13250
T04
X19250Y16850
X20250Y16850
X21250Y16850
X22250Y16850
X23250Y16850
X24250Y16850
X25250Y16850
X26250Y16850
X25300Y18400
X23400Y18350
X21450Y18300
X21450Y22300
X22400Y22350
X23400Y22350
X24450Y22500
X25300Y22400
X20300Y22400
X20300Y26400
X22400Y26350
X24450Y26500
X12650Y19513
X8650Y19513
T05
X13850Y11600
X14850Y11600
X15850Y11600
X16850Y11600
X17850Y11600
X18850Y11600
X19850Y11600
X20850Y11600
X20850Y10600
X19850Y10600
X18850Y10600
X17850Y10600
X16850Y10600
X15850Y10600
X14850Y10600
X13850Y10600
X27900Y19600
X28900Y19600
X28900Y20600
X27900Y20600
X27900Y21600
X28900Y21600
X27850Y28600
X26850Y28600
X25850Y28600
X24850Y28600
X23850Y28600
X22850Y28600
X21850Y28600
X20850Y28600
X20850Y29600
X21850Y29600
X22850Y29600
X23850Y29600
X24850Y29600
X25850Y29600
X26850Y29600
X27850Y29600
X19250Y29600
X18250Y29600
X17250Y29600
X16250Y29600
X15250Y29600
X14250Y29600
X13250Y29600
X12250Y29600
X11250Y29600
X10250Y29600
X10250Y28600
X11250Y28600
X12250Y28600
X13250Y28600
X14250Y28600
X15250Y28600
X16250Y28600
X17250Y28600
X18250Y28600
X19250Y28600
T06
X22850Y11600
X23850Y11600
X24850Y11600
X25850Y11600
X26850Y11600
X27850Y11600
X27850Y10600
X26850Y10600
X25850Y10600
X24850Y10600
X23850Y10600
X22850Y10600
T07
X4850Y11372
X4850Y15309
X4819Y19246
T08
X3846Y10368
X5854Y10368
X5854Y12376
X3846Y12376
X3846Y14305
X5854Y14305
X5854Y16313
X3846Y16313
X3815Y18242
X5822Y18242
X5822Y20250
X3815Y20250
T09
X8850Y29600
X28850Y23600
X28850Y12600
M30
