G75*
%MOIN*%
%OFA0B0*%
%FSLAX24Y24*%
%IPPOS*%
%LPD*%
%AMOC8*
5,1,8,0,0,1.08239X$1,22.5*
%
%ADD10C,0.0100*%
%ADD11C,0.0050*%
%ADD12C,0.0060*%
%ADD13C,0.0000*%
%ADD14C,0.0030*%
%ADD15C,0.0080*%
%ADD16C,0.0040*%
%ADD17R,0.0240X0.0340*%
%ADD18R,0.0340X0.0240*%
D10*
X003244Y009600D02*
X028456Y009600D01*
X028495Y009602D01*
X028533Y009608D01*
X028570Y009617D01*
X028607Y009630D01*
X028642Y009647D01*
X028675Y009666D01*
X028706Y009689D01*
X028735Y009715D01*
X028761Y009744D01*
X028784Y009775D01*
X028803Y009808D01*
X028820Y009843D01*
X028833Y009880D01*
X028842Y009917D01*
X028848Y009955D01*
X028850Y009994D01*
X028850Y010600D01*
X029850Y011600D01*
X029850Y024500D01*
X028850Y025500D01*
X028850Y030000D01*
X028250Y030600D01*
X003244Y030600D01*
X003205Y030598D01*
X003167Y030592D01*
X003130Y030583D01*
X003093Y030570D01*
X003058Y030553D01*
X003025Y030534D01*
X002994Y030511D01*
X002965Y030485D01*
X002939Y030456D01*
X002916Y030425D01*
X002897Y030392D01*
X002880Y030357D01*
X002867Y030320D01*
X002858Y030283D01*
X002852Y030245D01*
X002850Y030206D01*
X002850Y030200D02*
X002850Y028498D01*
X009900Y028498D01*
X009900Y021411D01*
X002850Y021411D01*
X002850Y010000D01*
X002850Y009994D02*
X002852Y009955D01*
X002858Y009917D01*
X002867Y009880D01*
X002880Y009843D01*
X002897Y009808D01*
X002916Y009775D01*
X002939Y009744D01*
X002965Y009715D01*
X002994Y009689D01*
X003025Y009666D01*
X003058Y009647D01*
X003093Y009630D01*
X003130Y009617D01*
X003167Y009608D01*
X003205Y009602D01*
X003244Y009600D01*
X003205Y009602D01*
X003167Y009608D01*
X003130Y009617D01*
X003093Y009630D01*
X003058Y009647D01*
X003025Y009666D01*
X002994Y009689D01*
X002965Y009715D01*
X002939Y009744D01*
X002916Y009775D01*
X002897Y009808D01*
X002880Y009843D01*
X002867Y009880D01*
X002858Y009917D01*
X002852Y009955D01*
X002850Y009994D01*
X002852Y009955D01*
X002858Y009917D01*
X002867Y009880D01*
X002880Y009843D01*
X002897Y009808D01*
X002916Y009775D01*
X002939Y009744D01*
X002965Y009715D01*
X002994Y009689D01*
X003025Y009666D01*
X003058Y009647D01*
X003093Y009630D01*
X003130Y009617D01*
X003167Y009608D01*
X003205Y009602D01*
X003244Y009600D01*
X003205Y009602D01*
X003167Y009608D01*
X003130Y009617D01*
X003093Y009630D01*
X003058Y009647D01*
X003025Y009666D01*
X002994Y009689D01*
X002965Y009715D01*
X002939Y009744D01*
X002916Y009775D01*
X002897Y009808D01*
X002880Y009843D01*
X002867Y009880D01*
X002858Y009917D01*
X002852Y009955D01*
X002850Y009994D01*
X028456Y009600D02*
X028495Y009602D01*
X028533Y009608D01*
X028570Y009617D01*
X028607Y009630D01*
X028642Y009647D01*
X028675Y009666D01*
X028706Y009689D01*
X028735Y009715D01*
X028761Y009744D01*
X028784Y009775D01*
X028803Y009808D01*
X028820Y009843D01*
X028833Y009880D01*
X028842Y009917D01*
X028848Y009955D01*
X028850Y009994D01*
X028848Y009955D01*
X028842Y009917D01*
X028833Y009880D01*
X028820Y009843D01*
X028803Y009808D01*
X028784Y009775D01*
X028761Y009744D01*
X028735Y009715D01*
X028706Y009689D01*
X028675Y009666D01*
X028642Y009647D01*
X028607Y009630D01*
X028570Y009617D01*
X028533Y009608D01*
X028495Y009602D01*
X028456Y009600D01*
X028495Y009602D01*
X028533Y009608D01*
X028570Y009617D01*
X028607Y009630D01*
X028642Y009647D01*
X028675Y009666D01*
X028706Y009689D01*
X028735Y009715D01*
X028761Y009744D01*
X028784Y009775D01*
X028803Y009808D01*
X028820Y009843D01*
X028833Y009880D01*
X028842Y009917D01*
X028848Y009955D01*
X028850Y009994D01*
X010850Y027850D02*
X010600Y028100D01*
X003244Y030600D02*
X003205Y030598D01*
X003167Y030592D01*
X003130Y030583D01*
X003093Y030570D01*
X003058Y030553D01*
X003025Y030534D01*
X002994Y030511D01*
X002965Y030485D01*
X002939Y030456D01*
X002916Y030425D01*
X002897Y030392D01*
X002880Y030357D01*
X002867Y030320D01*
X002858Y030283D01*
X002852Y030245D01*
X002850Y030206D01*
X002852Y030245D01*
X002858Y030283D01*
X002867Y030320D01*
X002880Y030357D01*
X002897Y030392D01*
X002916Y030425D01*
X002939Y030456D01*
X002965Y030485D01*
X002994Y030511D01*
X003025Y030534D01*
X003058Y030553D01*
X003093Y030570D01*
X003130Y030583D01*
X003167Y030592D01*
X003205Y030598D01*
X003244Y030600D01*
X003205Y030598D01*
X003167Y030592D01*
X003130Y030583D01*
X003093Y030570D01*
X003058Y030553D01*
X003025Y030534D01*
X002994Y030511D01*
X002965Y030485D01*
X002939Y030456D01*
X002916Y030425D01*
X002897Y030392D01*
X002880Y030357D01*
X002867Y030320D01*
X002858Y030283D01*
X002852Y030245D01*
X002850Y030206D01*
D11*
X010175Y027712D02*
X010525Y027712D01*
X010525Y027945D01*
X010467Y027577D02*
X010525Y027518D01*
X010525Y027402D01*
X010467Y027343D01*
X010233Y027343D01*
X010175Y027402D01*
X010175Y027518D01*
X010233Y027577D01*
X010233Y027209D02*
X010175Y027150D01*
X010175Y027033D01*
X010233Y026975D01*
X010291Y026975D01*
X010350Y027033D01*
X010350Y027150D01*
X010408Y027209D01*
X010467Y027209D01*
X010525Y027150D01*
X010525Y027033D01*
X010467Y026975D01*
X011225Y027033D02*
X011283Y026975D01*
X011341Y026975D01*
X011400Y027033D01*
X011400Y027150D01*
X011458Y027209D01*
X011517Y027209D01*
X011575Y027150D01*
X011575Y027033D01*
X011517Y026975D01*
X011225Y027033D02*
X011225Y027150D01*
X011283Y027209D01*
X011225Y027343D02*
X011225Y027518D01*
X011283Y027577D01*
X011517Y027577D01*
X011575Y027518D01*
X011575Y027343D01*
X011225Y027343D01*
X011341Y027712D02*
X011225Y027828D01*
X011341Y027945D01*
X011575Y027945D01*
X011400Y027945D02*
X011400Y027712D01*
X011341Y027712D02*
X011575Y027712D01*
X013125Y027662D02*
X013125Y027837D01*
X013183Y027895D01*
X013417Y027895D01*
X013475Y027837D01*
X013475Y027662D01*
X013125Y027662D01*
X013125Y027527D02*
X013475Y027527D01*
X013125Y027293D01*
X013475Y027293D01*
X013417Y027159D02*
X013300Y027159D01*
X013300Y027042D01*
X013417Y027159D02*
X013475Y027100D01*
X013475Y026983D01*
X013417Y026925D01*
X013183Y026925D01*
X013125Y026983D01*
X013125Y027100D01*
X013183Y027159D01*
X019225Y023986D02*
X019300Y023836D01*
X019450Y023685D01*
X019450Y023911D01*
X019525Y023986D01*
X019600Y023986D01*
X019675Y023911D01*
X019675Y023760D01*
X019600Y023685D01*
X019450Y023685D01*
X019450Y023525D02*
X019525Y023450D01*
X019525Y023225D01*
X019675Y023225D02*
X019225Y023225D01*
X019225Y023450D01*
X019300Y023525D01*
X019450Y023525D01*
X019525Y023375D02*
X019675Y023525D01*
X021325Y023400D02*
X021325Y023175D01*
X021775Y023175D01*
X021625Y023175D02*
X021625Y023400D01*
X021550Y023475D01*
X021400Y023475D01*
X021325Y023400D01*
X021625Y023325D02*
X021775Y023475D01*
X021550Y023635D02*
X021550Y023936D01*
X021775Y023861D02*
X021325Y023861D01*
X021550Y023635D01*
X023375Y023550D02*
X023375Y023325D01*
X023825Y023325D01*
X023675Y023325D02*
X023675Y023550D01*
X023600Y023625D01*
X023450Y023625D01*
X023375Y023550D01*
X023450Y023785D02*
X023375Y023860D01*
X023375Y024011D01*
X023450Y024086D01*
X023525Y024086D01*
X023825Y023785D01*
X023825Y024086D01*
X023825Y023625D02*
X023675Y023475D01*
X024100Y021415D02*
X024175Y021415D01*
X024250Y021340D01*
X024325Y021415D01*
X024400Y021415D01*
X024475Y021340D01*
X024475Y021190D01*
X024400Y021115D01*
X024475Y020954D02*
X024325Y020804D01*
X024325Y020879D02*
X024325Y020654D01*
X024475Y020654D02*
X024025Y020654D01*
X024025Y020879D01*
X024100Y020954D01*
X024250Y020954D01*
X024325Y020879D01*
X024100Y021115D02*
X024025Y021190D01*
X024025Y021340D01*
X024100Y021415D01*
X024250Y021340D02*
X024250Y021265D01*
X024675Y019986D02*
X024675Y019685D01*
X024675Y019836D02*
X024225Y019836D01*
X024375Y019685D01*
X024300Y019525D02*
X024450Y019525D01*
X024525Y019450D01*
X024525Y019225D01*
X024675Y019225D02*
X024225Y019225D01*
X024225Y019450D01*
X024300Y019525D01*
X024525Y019375D02*
X024675Y019525D01*
X026150Y017925D02*
X026300Y017925D01*
X026375Y017850D01*
X026375Y017775D01*
X026300Y017700D01*
X026150Y017700D01*
X026075Y017775D01*
X026075Y017850D01*
X026150Y017925D01*
X026150Y017700D02*
X026075Y017625D01*
X026075Y017550D01*
X026150Y017475D01*
X026300Y017475D01*
X026375Y017550D01*
X026375Y017625D01*
X026300Y017700D01*
X021496Y017525D02*
X021196Y017525D01*
X021346Y017525D02*
X021346Y017975D01*
X021196Y017825D01*
X021036Y017675D02*
X020886Y017525D01*
X020735Y017675D01*
X020735Y017975D01*
X020575Y017900D02*
X020500Y017975D01*
X020350Y017975D01*
X020275Y017900D01*
X020275Y017825D01*
X020350Y017750D01*
X020500Y017750D01*
X020575Y017675D01*
X020575Y017600D01*
X020500Y017525D01*
X020350Y017525D01*
X020275Y017600D01*
X021036Y017675D02*
X021036Y017975D01*
X020825Y019125D02*
X020375Y019125D01*
X020375Y019350D01*
X020450Y019425D01*
X020600Y019425D01*
X020675Y019350D01*
X020675Y019125D01*
X020675Y019275D02*
X020825Y019425D01*
X020750Y019585D02*
X020825Y019660D01*
X020825Y019811D01*
X020750Y019886D01*
X020600Y019886D01*
X020525Y019811D01*
X020525Y019736D01*
X020600Y019585D01*
X020375Y019585D01*
X020375Y019886D01*
X019225Y017925D02*
X019225Y017475D01*
X019075Y017475D02*
X019375Y017475D01*
X019075Y017775D02*
X019225Y017925D01*
X016967Y013245D02*
X017025Y013187D01*
X017025Y013070D01*
X016967Y013012D01*
X016908Y012877D02*
X016675Y012877D01*
X016733Y013012D02*
X016675Y013070D01*
X016675Y013187D01*
X016733Y013245D01*
X016791Y013245D01*
X016850Y013187D01*
X016908Y013245D01*
X016967Y013245D01*
X016850Y013187D02*
X016850Y013128D01*
X016908Y012877D02*
X017025Y012760D01*
X016908Y012643D01*
X016675Y012643D01*
X016733Y012509D02*
X016791Y012509D01*
X016850Y012450D01*
X016908Y012509D01*
X016967Y012509D01*
X017025Y012450D01*
X017025Y012333D01*
X016967Y012275D01*
X016850Y012392D02*
X016850Y012450D01*
X016733Y012509D02*
X016675Y012450D01*
X016675Y012333D01*
X016733Y012275D01*
X016025Y012275D02*
X015675Y012275D01*
X015675Y012450D01*
X015733Y012509D01*
X015850Y012509D01*
X015908Y012450D01*
X015908Y012275D01*
X015908Y012392D02*
X016025Y012509D01*
X016025Y012643D02*
X016025Y012877D01*
X015967Y013012D02*
X016025Y013070D01*
X016025Y013187D01*
X015967Y013245D01*
X015908Y013245D01*
X015850Y013187D01*
X015850Y013070D01*
X015791Y013012D01*
X015733Y013012D01*
X015675Y013070D01*
X015675Y013187D01*
X015733Y013245D01*
X015675Y012877D02*
X015675Y012643D01*
X016025Y012643D01*
X015850Y012643D02*
X015850Y012760D01*
X011365Y012175D02*
X011065Y012175D01*
X011215Y012175D02*
X011215Y012625D01*
X011065Y012475D01*
X010904Y012550D02*
X010829Y012625D01*
X010679Y012625D01*
X010604Y012550D01*
X010604Y012250D01*
X010679Y012175D01*
X010829Y012175D01*
X010904Y012250D01*
X010447Y012175D02*
X010297Y012175D01*
X010372Y012175D02*
X010372Y012625D01*
X010297Y012625D02*
X010447Y012625D01*
X017025Y009325D02*
X017175Y009325D01*
X017100Y009325D02*
X017100Y008950D01*
X017025Y008875D01*
X016950Y008875D01*
X016875Y008950D01*
X017335Y008875D02*
X017636Y009175D01*
X017636Y009250D01*
X017561Y009325D01*
X017410Y009325D01*
X017335Y009250D01*
X017335Y008875D02*
X017636Y008875D01*
X024875Y008950D02*
X024950Y008875D01*
X025025Y008875D01*
X025100Y008950D01*
X025100Y009325D01*
X025025Y009325D02*
X025175Y009325D01*
X025335Y009100D02*
X025561Y009100D01*
X025636Y009025D01*
X025636Y008950D01*
X025561Y008875D01*
X025410Y008875D01*
X025335Y008950D01*
X025335Y009100D01*
X025486Y009250D01*
X025636Y009325D01*
X010236Y020513D02*
X009935Y020213D01*
X009935Y020138D01*
X009775Y020138D02*
X009625Y020288D01*
X009700Y020288D02*
X009475Y020288D01*
X009475Y020138D02*
X009475Y020588D01*
X009700Y020588D01*
X009775Y020513D01*
X009775Y020363D01*
X009700Y020288D01*
X009935Y020588D02*
X010236Y020588D01*
X010236Y020513D01*
D12*
X009650Y019963D02*
X009700Y019913D01*
X011600Y019913D01*
X011650Y019963D01*
X011800Y019963D01*
X011817Y019961D01*
X011834Y019957D01*
X011850Y019950D01*
X011864Y019940D01*
X011877Y019927D01*
X011887Y019913D01*
X011894Y019897D01*
X011898Y019880D01*
X011900Y019863D01*
X011900Y019163D01*
X011898Y019146D01*
X011894Y019129D01*
X011887Y019113D01*
X011877Y019099D01*
X011864Y019086D01*
X011850Y019076D01*
X011834Y019069D01*
X011817Y019065D01*
X011800Y019063D01*
X011650Y019063D01*
X011600Y019113D01*
X009700Y019113D01*
X009650Y019063D01*
X009500Y019063D01*
X009483Y019065D01*
X009466Y019069D01*
X009450Y019076D01*
X009436Y019086D01*
X009423Y019099D01*
X009413Y019113D01*
X009406Y019129D01*
X009402Y019146D01*
X009400Y019163D01*
X009400Y019863D01*
X009402Y019880D01*
X009406Y019897D01*
X009413Y019913D01*
X009423Y019927D01*
X009436Y019940D01*
X009450Y019950D01*
X009466Y019957D01*
X009483Y019961D01*
X009500Y019963D01*
X009650Y019963D01*
X009200Y016750D02*
X011500Y016750D01*
X011500Y012750D01*
X010750Y012750D01*
X010748Y012789D01*
X010742Y012828D01*
X010733Y012866D01*
X010720Y012903D01*
X010703Y012939D01*
X010683Y012972D01*
X010659Y013004D01*
X010633Y013033D01*
X010604Y013059D01*
X010572Y013083D01*
X010539Y013103D01*
X010503Y013120D01*
X010466Y013133D01*
X010428Y013142D01*
X010389Y013148D01*
X010350Y013150D01*
X010311Y013148D01*
X010272Y013142D01*
X010234Y013133D01*
X010197Y013120D01*
X010161Y013103D01*
X010128Y013083D01*
X010096Y013059D01*
X010067Y013033D01*
X010041Y013004D01*
X010017Y012972D01*
X009997Y012939D01*
X009980Y012903D01*
X009967Y012866D01*
X009958Y012828D01*
X009952Y012789D01*
X009950Y012750D01*
X009200Y012750D01*
X009200Y016750D01*
X013600Y012100D02*
X013350Y011850D01*
X013350Y011350D01*
X013600Y011100D01*
X014100Y011100D01*
X014350Y011350D01*
X014600Y011100D01*
X015100Y011100D01*
X015350Y011350D01*
X015350Y011850D01*
X015100Y012100D01*
X014600Y012100D01*
X014350Y011850D01*
X014350Y011350D01*
X014100Y011100D02*
X014350Y010850D01*
X014600Y011100D01*
X015100Y011100D01*
X015350Y010850D01*
X015350Y010350D01*
X015100Y010100D01*
X014600Y010100D01*
X014350Y010350D01*
X014100Y010100D01*
X013600Y010100D01*
X013350Y010350D01*
X013350Y010850D01*
X013600Y011100D01*
X014100Y011100D01*
X014350Y010850D02*
X014350Y010350D01*
X015350Y010350D02*
X015600Y010100D01*
X016100Y010100D01*
X016350Y010350D01*
X016600Y010100D01*
X017100Y010100D01*
X017350Y010350D01*
X017600Y010100D01*
X018100Y010100D01*
X018350Y010350D01*
X018350Y010850D01*
X018100Y011100D01*
X017600Y011100D01*
X017350Y011350D01*
X017100Y011100D01*
X016600Y011100D01*
X016350Y011350D01*
X016100Y011100D01*
X015600Y011100D01*
X015350Y011350D01*
X015600Y011100D02*
X016100Y011100D01*
X016350Y010850D01*
X016600Y011100D01*
X017100Y011100D01*
X017350Y010850D01*
X017600Y011100D01*
X018100Y011100D01*
X018350Y011350D01*
X018350Y011850D01*
X018100Y012100D01*
X017600Y012100D01*
X017350Y011850D01*
X017350Y011350D01*
X017350Y010850D02*
X017350Y010350D01*
X016350Y010350D02*
X016350Y010850D01*
X016350Y011350D02*
X016350Y011850D01*
X016600Y012100D01*
X017100Y012100D01*
X017350Y011850D01*
X016350Y011850D02*
X016100Y012100D01*
X015600Y012100D01*
X015350Y011850D01*
X014350Y011850D02*
X014100Y012100D01*
X013600Y012100D01*
X015350Y010850D02*
X015600Y011100D01*
X017380Y012453D02*
X017453Y012380D01*
X017600Y012380D01*
X017674Y012453D01*
X017674Y012600D01*
X017600Y012674D01*
X017527Y012674D01*
X017380Y012600D01*
X017380Y012820D01*
X017674Y012820D01*
X017840Y012820D02*
X017840Y012527D01*
X017987Y012380D01*
X018134Y012527D01*
X018134Y012820D01*
X018761Y012747D02*
X018761Y012453D01*
X018835Y012380D01*
X018981Y012380D01*
X019055Y012453D01*
X019055Y012600D01*
X018908Y012600D01*
X019055Y012747D02*
X018981Y012820D01*
X018835Y012820D01*
X018761Y012747D01*
X019222Y012674D02*
X019442Y012674D01*
X019515Y012600D01*
X019515Y012380D01*
X019682Y012453D02*
X019682Y012600D01*
X019755Y012674D01*
X019976Y012674D01*
X019976Y012820D02*
X019976Y012380D01*
X019755Y012380D01*
X019682Y012453D01*
X019600Y012100D02*
X019350Y011850D01*
X019350Y011350D01*
X019600Y011100D01*
X020100Y011100D01*
X020350Y011350D01*
X020600Y011100D01*
X021100Y011100D01*
X021350Y011350D01*
X021350Y011850D01*
X021100Y012100D01*
X020600Y012100D01*
X020350Y011850D01*
X020350Y011350D01*
X020100Y011100D02*
X019600Y011100D01*
X019350Y010850D01*
X019350Y010350D01*
X019600Y010100D01*
X020100Y010100D01*
X020350Y010350D01*
X020600Y010100D01*
X021100Y010100D01*
X021350Y010350D01*
X021350Y010850D01*
X021100Y011100D01*
X020600Y011100D01*
X020350Y010850D01*
X020350Y010350D01*
X020350Y010850D02*
X020100Y011100D01*
X019350Y011350D02*
X019100Y011100D01*
X018600Y011100D01*
X018350Y011350D01*
X018600Y011100D02*
X018350Y010850D01*
X018600Y011100D02*
X019100Y011100D01*
X019350Y010850D01*
X019350Y010350D02*
X019100Y010100D01*
X018600Y010100D01*
X018350Y010350D01*
X018350Y011850D02*
X018600Y012100D01*
X019100Y012100D01*
X019350Y011850D01*
X019600Y012100D02*
X020100Y012100D01*
X020350Y011850D01*
X020676Y012380D02*
X020603Y012453D01*
X020676Y012380D02*
X020823Y012380D01*
X020896Y012453D01*
X020896Y012747D01*
X020823Y012820D01*
X020676Y012820D01*
X020603Y012747D01*
X020603Y012674D01*
X020676Y012600D01*
X020896Y012600D01*
X021063Y012527D02*
X021210Y012380D01*
X021357Y012527D01*
X021357Y012820D01*
X021063Y012820D02*
X021063Y012527D01*
X021380Y013380D02*
X021600Y013380D01*
X021674Y013453D01*
X021600Y013527D01*
X021453Y013527D01*
X021380Y013600D01*
X021453Y013674D01*
X021674Y013674D01*
X021840Y013600D02*
X021840Y013453D01*
X021914Y013380D01*
X022134Y013380D01*
X022301Y013380D02*
X022448Y013380D01*
X022374Y013380D02*
X022374Y013674D01*
X022301Y013674D01*
X022374Y013820D02*
X022374Y013894D01*
X022608Y013820D02*
X022828Y013820D01*
X022901Y013747D01*
X022901Y013453D01*
X022828Y013380D01*
X022608Y013380D01*
X022608Y013820D01*
X023068Y013674D02*
X023068Y013453D01*
X023142Y013380D01*
X023362Y013380D01*
X023362Y013674D01*
X023528Y013674D02*
X023602Y013674D01*
X023602Y013380D01*
X023675Y013380D02*
X023528Y013380D01*
X023835Y013380D02*
X023835Y013674D01*
X024056Y013674D01*
X024129Y013600D01*
X024129Y013380D01*
X024296Y013453D02*
X024369Y013380D01*
X024516Y013380D01*
X024589Y013453D01*
X024589Y013600D01*
X024516Y013674D01*
X024369Y013674D01*
X024296Y013600D01*
X024296Y013453D01*
X024756Y013453D02*
X024830Y013453D01*
X024830Y013380D01*
X024756Y013380D01*
X024756Y013453D01*
X024986Y013453D02*
X025060Y013380D01*
X025280Y013380D01*
X025447Y013453D02*
X025520Y013380D01*
X025667Y013380D01*
X025740Y013453D01*
X025740Y013600D01*
X025667Y013674D01*
X025520Y013674D01*
X025447Y013600D01*
X025447Y013453D01*
X025280Y013674D02*
X025060Y013674D01*
X024986Y013600D01*
X024986Y013453D01*
X025907Y013380D02*
X025907Y013674D01*
X025981Y013674D01*
X026054Y013600D01*
X026127Y013674D01*
X026201Y013600D01*
X026201Y013380D01*
X026054Y013380D02*
X026054Y013600D01*
X025863Y012820D02*
X025936Y012747D01*
X025936Y012674D01*
X025863Y012600D01*
X025936Y012527D01*
X025936Y012453D01*
X025863Y012380D01*
X025716Y012380D01*
X025642Y012453D01*
X025789Y012600D02*
X025863Y012600D01*
X025863Y012820D02*
X025716Y012820D01*
X025642Y012747D01*
X025015Y012747D02*
X025015Y012674D01*
X024722Y012380D01*
X025015Y012380D01*
X025100Y012100D02*
X024600Y012100D01*
X024350Y011850D01*
X024350Y011350D01*
X024100Y011100D01*
X023600Y011100D01*
X023350Y011350D01*
X023100Y011100D01*
X022600Y011100D01*
X022350Y011350D01*
X022350Y011850D01*
X022600Y012100D01*
X023100Y012100D01*
X023350Y011850D01*
X023600Y012100D01*
X024100Y012100D01*
X024350Y011850D01*
X023350Y011850D02*
X023350Y011350D01*
X023100Y011100D02*
X023350Y010850D01*
X023600Y011100D01*
X024100Y011100D01*
X024350Y010850D01*
X024350Y010350D01*
X024100Y010100D01*
X023600Y010100D01*
X023350Y010350D01*
X023100Y010100D01*
X022600Y010100D01*
X022350Y010350D01*
X022350Y010850D01*
X022600Y011100D01*
X023100Y011100D01*
X023350Y010850D02*
X023350Y010350D01*
X024350Y010350D02*
X024600Y010100D01*
X025100Y010100D01*
X025350Y010350D01*
X025600Y010100D01*
X026100Y010100D01*
X026350Y010350D01*
X026600Y010100D01*
X027100Y010100D01*
X027350Y010350D01*
X027600Y010100D01*
X028100Y010100D01*
X028350Y010350D01*
X028350Y010850D01*
X028100Y011100D01*
X027600Y011100D01*
X027350Y011350D01*
X027100Y011100D01*
X026600Y011100D01*
X026350Y011350D01*
X026100Y011100D01*
X025600Y011100D01*
X025350Y011350D01*
X025100Y011100D01*
X024600Y011100D01*
X024350Y011350D01*
X024600Y011100D02*
X024350Y010850D01*
X024600Y011100D02*
X025100Y011100D01*
X025350Y010850D01*
X025600Y011100D01*
X026100Y011100D01*
X026350Y010850D01*
X026600Y011100D01*
X027100Y011100D01*
X027350Y010850D01*
X027600Y011100D01*
X028100Y011100D01*
X028350Y011350D01*
X028350Y011850D01*
X028100Y012100D01*
X027600Y012100D01*
X027350Y011850D01*
X027350Y011350D01*
X027350Y010850D02*
X027350Y010350D01*
X026350Y010350D02*
X026350Y010850D01*
X026350Y011350D02*
X026350Y011850D01*
X026600Y012100D01*
X027100Y012100D01*
X027350Y011850D01*
X027557Y012380D02*
X027484Y012453D01*
X027557Y012380D02*
X027704Y012380D01*
X027778Y012453D01*
X027778Y012600D01*
X027704Y012674D01*
X027631Y012674D01*
X027484Y012600D01*
X027484Y012820D01*
X027778Y012820D01*
X026857Y012600D02*
X026563Y012600D01*
X026783Y012820D01*
X026783Y012380D01*
X026350Y011850D02*
X026100Y012100D01*
X025600Y012100D01*
X025350Y011850D01*
X025350Y011350D01*
X025350Y010850D02*
X025350Y010350D01*
X025350Y011850D02*
X025100Y012100D01*
X025015Y012747D02*
X024942Y012820D01*
X024795Y012820D01*
X024722Y012747D01*
X024094Y012380D02*
X023801Y012380D01*
X023948Y012380D02*
X023948Y012820D01*
X023801Y012674D01*
X023174Y012747D02*
X022880Y012453D01*
X022953Y012380D01*
X023100Y012380D01*
X023174Y012453D01*
X023174Y012747D01*
X023100Y012820D01*
X022953Y012820D01*
X022880Y012747D01*
X022880Y012453D01*
X021840Y013600D02*
X021914Y013674D01*
X022134Y013674D01*
X022063Y014280D02*
X022063Y014574D01*
X022230Y014574D02*
X022376Y014574D01*
X022303Y014647D02*
X022303Y014353D01*
X022376Y014280D01*
X022536Y014280D02*
X022683Y014280D01*
X022610Y014280D02*
X022610Y014574D01*
X022536Y014574D01*
X022610Y014720D02*
X022610Y014794D01*
X022843Y014500D02*
X022843Y014353D01*
X022917Y014280D01*
X023064Y014280D01*
X023137Y014353D01*
X023137Y014500D01*
X023064Y014574D01*
X022917Y014574D01*
X022843Y014500D01*
X023304Y014574D02*
X023304Y014280D01*
X023597Y014280D02*
X023597Y014500D01*
X023524Y014574D01*
X023304Y014574D01*
X024225Y014574D02*
X024298Y014500D01*
X024445Y014500D01*
X024518Y014427D01*
X024518Y014353D01*
X024445Y014280D01*
X024298Y014280D01*
X024225Y014353D01*
X024225Y014574D02*
X024225Y014647D01*
X024298Y014720D01*
X024445Y014720D01*
X024518Y014647D01*
X024685Y014720D02*
X024685Y014280D01*
X024685Y014500D02*
X024758Y014574D01*
X024905Y014574D01*
X024979Y014500D01*
X024979Y014280D01*
X025145Y014280D02*
X025292Y014280D01*
X025219Y014280D02*
X025219Y014574D01*
X025145Y014574D01*
X025219Y014720D02*
X025219Y014794D01*
X025452Y014500D02*
X025526Y014574D01*
X025672Y014574D01*
X025746Y014500D01*
X025746Y014427D01*
X025452Y014427D01*
X025452Y014500D02*
X025452Y014353D01*
X025526Y014280D01*
X025672Y014280D01*
X025913Y014280D02*
X026059Y014280D01*
X025986Y014280D02*
X025986Y014720D01*
X025913Y014720D01*
X026220Y014500D02*
X026293Y014574D01*
X026513Y014574D01*
X026513Y014720D02*
X026513Y014280D01*
X026293Y014280D01*
X026220Y014353D01*
X026220Y014500D01*
X023602Y013894D02*
X023602Y013820D01*
X022063Y014280D02*
X021843Y014280D01*
X021769Y014353D01*
X021769Y014574D01*
X021536Y014720D02*
X021536Y014280D01*
X021609Y014280D02*
X021462Y014280D01*
X021295Y014353D02*
X021295Y014500D01*
X021222Y014574D01*
X021075Y014574D01*
X021002Y014500D01*
X021002Y014353D01*
X021075Y014280D01*
X021222Y014280D01*
X021295Y014353D01*
X021462Y014720D02*
X021536Y014720D01*
X020835Y014574D02*
X020615Y014574D01*
X020541Y014500D01*
X020615Y014427D01*
X020762Y014427D01*
X020835Y014353D01*
X020762Y014280D01*
X020541Y014280D01*
X020375Y014353D02*
X020301Y014427D01*
X020154Y014427D01*
X020081Y014500D01*
X020154Y014574D01*
X020375Y014574D01*
X020375Y014353D02*
X020301Y014280D01*
X020081Y014280D01*
X019921Y014280D02*
X019774Y014280D01*
X019847Y014280D02*
X019847Y014574D01*
X019774Y014574D01*
X019847Y014720D02*
X019847Y014794D01*
X019607Y014647D02*
X019534Y014720D01*
X019314Y014720D01*
X019314Y014280D01*
X019534Y014280D01*
X019607Y014353D01*
X019607Y014647D01*
X019650Y016350D02*
X018750Y016350D01*
X018750Y017350D01*
X019650Y017350D01*
X019750Y017250D01*
X019850Y017350D01*
X020650Y017350D01*
X020750Y017250D01*
X020850Y017350D01*
X021650Y017350D01*
X021750Y017250D01*
X021850Y017350D01*
X022650Y017350D01*
X022750Y017250D01*
X022850Y017350D01*
X023650Y017350D01*
X023750Y017250D01*
X023850Y017350D01*
X024650Y017350D01*
X024750Y017250D01*
X024850Y017350D01*
X025650Y017350D01*
X025750Y017250D01*
X025850Y017350D01*
X026750Y017350D01*
X026750Y016350D01*
X025850Y016350D01*
X025750Y016450D01*
X025650Y016350D01*
X024850Y016350D01*
X024750Y016450D01*
X024650Y016350D01*
X023850Y016350D01*
X023750Y016450D01*
X023650Y016350D01*
X022850Y016350D01*
X022750Y016450D01*
X022650Y016350D01*
X021850Y016350D01*
X021750Y016450D01*
X021650Y016350D01*
X020850Y016350D01*
X020750Y016450D01*
X020650Y016350D01*
X019850Y016350D01*
X019750Y016450D01*
X019650Y016350D01*
X021100Y019050D02*
X021800Y019050D01*
X021817Y019052D01*
X021834Y019056D01*
X021850Y019063D01*
X021864Y019073D01*
X021877Y019086D01*
X021887Y019100D01*
X021894Y019116D01*
X021898Y019133D01*
X021900Y019150D01*
X021900Y019300D01*
X021850Y019350D01*
X021850Y021250D01*
X021900Y021300D01*
X021900Y021450D01*
X021898Y021467D01*
X021894Y021484D01*
X021887Y021500D01*
X021877Y021514D01*
X021864Y021527D01*
X021850Y021537D01*
X021834Y021544D01*
X021817Y021548D01*
X021800Y021550D01*
X021100Y021550D01*
X021083Y021548D01*
X021066Y021544D01*
X021050Y021537D01*
X021036Y021527D01*
X021023Y021514D01*
X021013Y021500D01*
X021006Y021484D01*
X021002Y021467D01*
X021000Y021450D01*
X021000Y021300D01*
X021050Y021250D01*
X021050Y019350D01*
X021000Y019300D01*
X021000Y019150D01*
X021002Y019133D01*
X021006Y019116D01*
X021013Y019100D01*
X021023Y019086D01*
X021036Y019073D01*
X021050Y019063D01*
X021066Y019056D01*
X021083Y019052D01*
X021100Y019050D01*
X022950Y019200D02*
X022950Y019350D01*
X023000Y019400D01*
X023000Y021300D01*
X022950Y021350D01*
X022950Y021500D01*
X022952Y021517D01*
X022956Y021534D01*
X022963Y021550D01*
X022973Y021564D01*
X022986Y021577D01*
X023000Y021587D01*
X023016Y021594D01*
X023033Y021598D01*
X023050Y021600D01*
X023750Y021600D01*
X023767Y021598D01*
X023784Y021594D01*
X023800Y021587D01*
X023814Y021577D01*
X023827Y021564D01*
X023837Y021550D01*
X023844Y021534D01*
X023848Y021517D01*
X023850Y021500D01*
X023850Y021350D01*
X023800Y021300D01*
X023800Y019400D01*
X023850Y019350D01*
X023850Y019200D01*
X023848Y019183D01*
X023844Y019166D01*
X023837Y019150D01*
X023827Y019136D01*
X023814Y019123D01*
X023800Y019113D01*
X023784Y019106D01*
X023767Y019102D01*
X023750Y019100D01*
X023050Y019100D01*
X023033Y019102D01*
X023016Y019106D01*
X023000Y019113D01*
X022986Y019123D01*
X022973Y019136D01*
X022963Y019150D01*
X022956Y019166D01*
X022952Y019183D01*
X022950Y019200D01*
X024850Y019250D02*
X024850Y019400D01*
X024900Y019450D01*
X024900Y021350D01*
X024850Y021400D01*
X024850Y021550D01*
X024852Y021567D01*
X024856Y021584D01*
X024863Y021600D01*
X024873Y021614D01*
X024886Y021627D01*
X024900Y021637D01*
X024916Y021644D01*
X024933Y021648D01*
X024950Y021650D01*
X025650Y021650D01*
X025667Y021648D01*
X025684Y021644D01*
X025700Y021637D01*
X025714Y021627D01*
X025727Y021614D01*
X025737Y021600D01*
X025744Y021584D01*
X025748Y021567D01*
X025750Y021550D01*
X025750Y021400D01*
X025700Y021350D01*
X025700Y019450D01*
X025750Y019400D01*
X025750Y019250D01*
X025748Y019233D01*
X025744Y019216D01*
X025737Y019200D01*
X025727Y019186D01*
X025714Y019173D01*
X025700Y019163D01*
X025684Y019156D01*
X025667Y019152D01*
X025650Y019150D01*
X024950Y019150D01*
X024933Y019152D01*
X024916Y019156D01*
X024900Y019163D01*
X024886Y019173D01*
X024873Y019186D01*
X024863Y019200D01*
X024856Y019216D01*
X024852Y019233D01*
X024850Y019250D01*
X027400Y019350D02*
X027650Y019100D01*
X029150Y019100D01*
X029400Y019350D01*
X029400Y019850D01*
X029150Y020100D01*
X027650Y020100D01*
X027400Y019850D01*
X027400Y019350D01*
X027650Y020100D02*
X027400Y020350D01*
X027400Y020850D01*
X027650Y021100D01*
X029150Y021100D01*
X029400Y020850D01*
X029400Y020350D01*
X029150Y020100D01*
X029150Y021100D02*
X029400Y021350D01*
X029400Y021850D01*
X029150Y022100D01*
X027650Y022100D01*
X027400Y021850D01*
X027400Y021350D01*
X027650Y021100D01*
X028280Y022380D02*
X028393Y022380D01*
X028337Y022380D02*
X028337Y022720D01*
X028393Y022720D02*
X028280Y022720D01*
X028526Y022664D02*
X028526Y022437D01*
X028582Y022380D01*
X028696Y022380D01*
X028752Y022437D01*
X028894Y022437D02*
X028951Y022380D01*
X029064Y022380D01*
X029121Y022437D01*
X029121Y022493D01*
X029064Y022550D01*
X028951Y022550D01*
X028894Y022607D01*
X028894Y022664D01*
X028951Y022720D01*
X029064Y022720D01*
X029121Y022664D01*
X029262Y022720D02*
X029432Y022720D01*
X029489Y022664D01*
X029489Y022550D01*
X029432Y022493D01*
X029262Y022493D01*
X029262Y022380D02*
X029262Y022720D01*
X028752Y022664D02*
X028696Y022720D01*
X028582Y022720D01*
X028526Y022664D01*
X024900Y023350D02*
X024900Y023500D01*
X024850Y023550D01*
X024850Y025450D01*
X024900Y025500D01*
X024900Y025650D01*
X024898Y025667D01*
X024894Y025684D01*
X024887Y025700D01*
X024877Y025714D01*
X024864Y025727D01*
X024850Y025737D01*
X024834Y025744D01*
X024817Y025748D01*
X024800Y025750D01*
X024100Y025750D01*
X024083Y025748D01*
X024066Y025744D01*
X024050Y025737D01*
X024036Y025727D01*
X024023Y025714D01*
X024013Y025700D01*
X024006Y025684D01*
X024002Y025667D01*
X024000Y025650D01*
X024000Y025500D01*
X024050Y025450D01*
X024050Y023550D01*
X024000Y023500D01*
X024000Y023350D01*
X024002Y023333D01*
X024006Y023316D01*
X024013Y023300D01*
X024023Y023286D01*
X024036Y023273D01*
X024050Y023263D01*
X024066Y023256D01*
X024083Y023252D01*
X024100Y023250D01*
X024800Y023250D01*
X024817Y023252D01*
X024834Y023256D01*
X024850Y023263D01*
X024864Y023273D01*
X024877Y023286D01*
X024887Y023300D01*
X024894Y023316D01*
X024898Y023333D01*
X024900Y023350D01*
X022850Y023350D02*
X022800Y023400D01*
X022800Y025300D01*
X022850Y025350D01*
X022850Y025500D01*
X022848Y025517D01*
X022844Y025534D01*
X022837Y025550D01*
X022827Y025564D01*
X022814Y025577D01*
X022800Y025587D01*
X022784Y025594D01*
X022767Y025598D01*
X022750Y025600D01*
X022050Y025600D01*
X022033Y025598D01*
X022016Y025594D01*
X022000Y025587D01*
X021986Y025577D01*
X021973Y025564D01*
X021963Y025550D01*
X021956Y025534D01*
X021952Y025517D01*
X021950Y025500D01*
X021950Y025350D01*
X022000Y025300D01*
X022000Y023400D01*
X021950Y023350D01*
X021950Y023200D01*
X021952Y023183D01*
X021956Y023166D01*
X021963Y023150D01*
X021973Y023136D01*
X021986Y023123D01*
X022000Y023113D01*
X022016Y023106D01*
X022033Y023102D01*
X022050Y023100D01*
X022750Y023100D01*
X022767Y023102D01*
X022784Y023106D01*
X022800Y023113D01*
X022814Y023123D01*
X022827Y023136D01*
X022837Y023150D01*
X022844Y023166D01*
X022848Y023183D01*
X022850Y023200D01*
X022850Y023350D01*
X020750Y023400D02*
X020700Y023450D01*
X020700Y025350D01*
X020750Y025400D01*
X020750Y025550D01*
X020748Y025567D01*
X020744Y025584D01*
X020737Y025600D01*
X020727Y025614D01*
X020714Y025627D01*
X020700Y025637D01*
X020684Y025644D01*
X020667Y025648D01*
X020650Y025650D01*
X019950Y025650D01*
X019933Y025648D01*
X019916Y025644D01*
X019900Y025637D01*
X019886Y025627D01*
X019873Y025614D01*
X019863Y025600D01*
X019856Y025584D01*
X019852Y025567D01*
X019850Y025550D01*
X019850Y025400D01*
X019900Y025350D01*
X019900Y023450D01*
X019850Y023400D01*
X019850Y023250D01*
X019852Y023233D01*
X019856Y023216D01*
X019863Y023200D01*
X019873Y023186D01*
X019886Y023173D01*
X019900Y023163D01*
X019916Y023156D01*
X019933Y023152D01*
X019950Y023150D01*
X020650Y023150D01*
X020667Y023152D01*
X020684Y023156D01*
X020700Y023163D01*
X020714Y023173D01*
X020727Y023186D01*
X020737Y023200D01*
X020744Y023216D01*
X020748Y023233D01*
X020750Y023250D01*
X020750Y023400D01*
X017570Y027130D02*
X017570Y027424D01*
X017570Y027130D01*
X017570Y027277D02*
X017130Y027277D01*
X017276Y027130D01*
X017130Y027277D01*
X017570Y027277D01*
X017497Y027590D02*
X017203Y027590D01*
X017130Y027664D01*
X017130Y027811D01*
X017203Y027884D01*
X017497Y027590D01*
X017570Y027664D01*
X017570Y027811D01*
X017497Y027884D01*
X017203Y027884D01*
X017497Y027590D01*
X017570Y027664D01*
X017570Y027811D01*
X017497Y027884D01*
X017203Y027884D01*
X017130Y027811D01*
X017130Y027664D01*
X017203Y027590D01*
X017497Y027590D01*
X017500Y028100D02*
X017000Y028100D01*
X016750Y028350D01*
X016500Y028100D01*
X016000Y028100D01*
X015750Y028350D01*
X015500Y028100D01*
X015000Y028100D01*
X014750Y028350D01*
X014750Y028850D01*
X015000Y029100D01*
X015500Y029100D01*
X015750Y028850D01*
X016000Y029100D01*
X016500Y029100D01*
X016750Y028850D01*
X017000Y029100D01*
X017500Y029100D01*
X017750Y028850D01*
X018000Y029100D01*
X018500Y029100D01*
X018750Y028850D01*
X019000Y029100D01*
X019500Y029100D01*
X019750Y028850D01*
X019750Y028350D01*
X019500Y028100D01*
X019000Y028100D01*
X018750Y028350D01*
X018500Y028100D01*
X018000Y028100D01*
X017750Y028350D01*
X017750Y028850D01*
X017500Y029100D02*
X017000Y029100D01*
X016750Y029350D01*
X016500Y029100D01*
X016000Y029100D01*
X015750Y029350D01*
X015500Y029100D01*
X015000Y029100D01*
X014750Y029350D01*
X014750Y029850D01*
X015000Y030100D01*
X015500Y030100D01*
X015750Y029850D01*
X016000Y030100D01*
X016500Y030100D01*
X016750Y029850D01*
X017000Y030100D01*
X017500Y030100D01*
X017750Y029850D01*
X018000Y030100D01*
X018500Y030100D01*
X018750Y029850D01*
X019000Y030100D01*
X019500Y030100D01*
X019750Y029850D01*
X019750Y029350D01*
X019500Y029100D01*
X019000Y029100D01*
X018750Y029350D01*
X018500Y029100D01*
X018000Y029100D01*
X017750Y029350D01*
X017750Y029850D01*
X017750Y029350D02*
X017500Y029100D01*
X016750Y029350D02*
X016750Y029850D01*
X015750Y029850D02*
X015750Y029350D01*
X015750Y028850D02*
X015750Y028350D01*
X015570Y027884D02*
X015570Y027590D01*
X015276Y027884D01*
X015203Y027884D01*
X015130Y027811D01*
X015130Y027664D01*
X015203Y027590D01*
X015130Y027277D02*
X015570Y027277D01*
X015570Y027130D02*
X015570Y027424D01*
X015276Y027130D02*
X015130Y027277D01*
X014570Y027277D02*
X014130Y027277D01*
X014276Y027130D01*
X014570Y027130D02*
X014570Y027424D01*
X014497Y027590D02*
X014570Y027664D01*
X014570Y027811D01*
X014497Y027884D01*
X014423Y027884D01*
X014350Y027811D01*
X014350Y027737D01*
X014350Y027811D02*
X014276Y027884D01*
X014203Y027884D01*
X014130Y027811D01*
X014130Y027664D01*
X014203Y027590D01*
X014000Y028100D02*
X013750Y028350D01*
X013500Y028100D01*
X013000Y028100D01*
X012750Y028350D01*
X012500Y028100D01*
X012000Y028100D01*
X011750Y028350D01*
X011750Y028850D01*
X012000Y029100D01*
X012500Y029100D01*
X012750Y028850D01*
X013000Y029100D01*
X013500Y029100D01*
X013750Y028850D01*
X014000Y029100D01*
X014500Y029100D01*
X014750Y028850D01*
X014500Y029100D02*
X014000Y029100D01*
X013750Y029350D01*
X013500Y029100D01*
X013000Y029100D01*
X012750Y029350D01*
X012500Y029100D01*
X012000Y029100D01*
X011750Y029350D01*
X011750Y029850D01*
X012000Y030100D01*
X012500Y030100D01*
X012750Y029850D01*
X013000Y030100D01*
X013500Y030100D01*
X013750Y029850D01*
X014000Y030100D01*
X014500Y030100D01*
X014750Y029850D01*
X014750Y029350D02*
X014500Y029100D01*
X013750Y028850D02*
X013750Y028350D01*
X014000Y028100D02*
X014500Y028100D01*
X014750Y028350D01*
X016080Y027737D02*
X016520Y027737D01*
X016520Y027590D02*
X016520Y027884D01*
X016226Y027590D02*
X016080Y027737D01*
X016080Y027277D02*
X016520Y027277D01*
X016520Y027130D02*
X016520Y027424D01*
X016226Y027130D02*
X016080Y027277D01*
X016750Y028350D02*
X016750Y028850D01*
X017500Y028100D02*
X017750Y028350D01*
X018203Y027924D02*
X018130Y027850D01*
X018130Y027703D01*
X018203Y027630D01*
X018276Y027630D01*
X018350Y027703D01*
X018350Y027924D01*
X018497Y027924D02*
X018203Y027924D01*
X018497Y027924D02*
X018570Y027850D01*
X018570Y027703D01*
X018497Y027630D01*
X019130Y027703D02*
X019130Y027850D01*
X019203Y027924D01*
X019276Y027924D01*
X019350Y027850D01*
X019350Y027703D01*
X019276Y027630D01*
X019203Y027630D01*
X019130Y027703D01*
X019350Y027703D02*
X019423Y027630D01*
X019497Y027630D01*
X019570Y027703D01*
X019570Y027850D01*
X019497Y027924D01*
X019423Y027924D01*
X019350Y027850D01*
X018750Y028350D02*
X018750Y028850D01*
X018750Y029350D02*
X018750Y029850D01*
X020350Y029850D02*
X020350Y029350D01*
X020600Y029100D01*
X021100Y029100D01*
X021350Y028850D01*
X021600Y029100D01*
X022100Y029100D01*
X022350Y028850D01*
X022600Y029100D01*
X023100Y029100D01*
X023350Y028850D01*
X023600Y029100D01*
X024100Y029100D01*
X024350Y028850D01*
X024600Y029100D01*
X025100Y029100D01*
X025350Y028850D01*
X025600Y029100D01*
X026100Y029100D01*
X026350Y028850D01*
X026600Y029100D01*
X027100Y029100D01*
X027350Y028850D01*
X027600Y029100D01*
X028100Y029100D01*
X028350Y028850D01*
X028350Y028350D01*
X028100Y028100D01*
X027600Y028100D01*
X027350Y028350D01*
X027100Y028100D01*
X026600Y028100D01*
X026350Y028350D01*
X026350Y028850D01*
X026100Y029100D02*
X025600Y029100D01*
X025350Y029350D01*
X025100Y029100D01*
X024600Y029100D01*
X024350Y029350D01*
X024100Y029100D01*
X023600Y029100D01*
X023350Y029350D01*
X023350Y029850D01*
X023600Y030100D01*
X024100Y030100D01*
X024350Y029850D01*
X024600Y030100D01*
X025100Y030100D01*
X025350Y029850D01*
X025600Y030100D01*
X026100Y030100D01*
X026350Y029850D01*
X026600Y030100D01*
X027100Y030100D01*
X027350Y029850D01*
X027600Y030100D01*
X028100Y030100D01*
X028350Y029850D01*
X028350Y029350D01*
X028100Y029100D01*
X027600Y029100D01*
X027350Y029350D01*
X027100Y029100D01*
X026600Y029100D01*
X026350Y029350D01*
X026350Y029850D01*
X026350Y029350D02*
X026100Y029100D01*
X025350Y029350D02*
X025350Y029850D01*
X024350Y029850D02*
X024350Y029350D01*
X024350Y028850D02*
X024350Y028350D01*
X024100Y028100D01*
X023600Y028100D01*
X023350Y028350D01*
X023350Y028850D01*
X023100Y029100D02*
X022600Y029100D01*
X022350Y029350D01*
X022100Y029100D01*
X021600Y029100D01*
X021350Y029350D01*
X021100Y029100D01*
X020600Y029100D01*
X020350Y028850D01*
X020350Y028350D01*
X020600Y028100D01*
X021100Y028100D01*
X021350Y028350D01*
X021350Y028850D01*
X021350Y029350D02*
X021350Y029850D01*
X021100Y030100D01*
X020600Y030100D01*
X020350Y029850D01*
X021350Y029850D02*
X021600Y030100D01*
X022100Y030100D01*
X022350Y029850D01*
X022600Y030100D01*
X023100Y030100D01*
X023350Y029850D01*
X023350Y029350D02*
X023100Y029100D01*
X022350Y028850D02*
X022350Y028350D01*
X022100Y028100D01*
X021600Y028100D01*
X021350Y028350D01*
X021630Y027924D02*
X021703Y027777D01*
X021850Y027630D01*
X021850Y027850D01*
X021923Y027924D01*
X021997Y027924D01*
X022070Y027850D01*
X022070Y027703D01*
X021997Y027630D01*
X021850Y027630D01*
X022630Y027630D02*
X022630Y027924D01*
X022776Y027850D02*
X022850Y027924D01*
X022997Y027924D01*
X023070Y027850D01*
X023070Y027703D01*
X022997Y027630D01*
X022850Y027630D02*
X022776Y027777D01*
X022776Y027850D01*
X022850Y027630D02*
X022630Y027630D01*
X022600Y028100D02*
X022350Y028350D01*
X022600Y028100D02*
X023100Y028100D01*
X023350Y028350D01*
X023630Y027850D02*
X023850Y027630D01*
X023850Y027924D01*
X024070Y027850D02*
X023630Y027850D01*
X024350Y028350D02*
X024600Y028100D01*
X025100Y028100D01*
X025350Y028350D01*
X025350Y028850D01*
X025350Y028350D02*
X025600Y028100D01*
X026100Y028100D01*
X026350Y028350D01*
X026070Y027924D02*
X026070Y027630D01*
X025776Y027924D01*
X025703Y027924D01*
X025630Y027850D01*
X025630Y027703D01*
X025703Y027630D01*
X025070Y027703D02*
X025070Y027850D01*
X024997Y027924D01*
X024923Y027924D01*
X024850Y027850D01*
X024850Y027777D01*
X024850Y027850D02*
X024776Y027924D01*
X024703Y027924D01*
X024630Y027850D01*
X024630Y027703D01*
X024703Y027630D01*
X024997Y027630D02*
X025070Y027703D01*
X026630Y027777D02*
X027070Y027777D01*
X027070Y027630D02*
X027070Y027924D01*
X026776Y027630D02*
X026630Y027777D01*
X027630Y027850D02*
X027703Y027924D01*
X027997Y027630D01*
X028070Y027703D01*
X028070Y027850D01*
X027997Y027924D01*
X027703Y027924D01*
X027630Y027850D02*
X027630Y027703D01*
X027703Y027630D01*
X027997Y027630D01*
X027350Y028350D02*
X027350Y028850D01*
X027350Y029350D02*
X027350Y029850D01*
X022350Y029850D02*
X022350Y029350D01*
X020703Y027924D02*
X020997Y027630D01*
X021070Y027630D01*
X020630Y027630D02*
X020630Y027924D01*
X020703Y027924D01*
X013750Y029350D02*
X013750Y029850D01*
X012750Y029850D02*
X012750Y029350D01*
X012750Y028850D02*
X012750Y028350D01*
X011750Y028350D02*
X011500Y028100D01*
X011000Y028100D01*
X010750Y028350D01*
X010500Y028100D01*
X010000Y028100D01*
X009750Y028350D01*
X009750Y028850D01*
X010000Y029100D01*
X010500Y029100D01*
X010750Y028850D01*
X011000Y029100D01*
X011500Y029100D01*
X011750Y028850D01*
X011500Y029100D02*
X011000Y029100D01*
X010750Y029350D01*
X010500Y029100D01*
X010000Y029100D01*
X009750Y029350D01*
X009750Y029850D01*
X010000Y030100D01*
X010500Y030100D01*
X010750Y029850D01*
X011000Y030100D01*
X011500Y030100D01*
X011750Y029850D01*
X011750Y029350D02*
X011500Y029100D01*
X010750Y029350D02*
X010750Y029850D01*
X010750Y028850D02*
X010750Y028350D01*
X019222Y012674D02*
X019222Y012380D01*
D13*
X028220Y012600D02*
X028222Y012650D01*
X028228Y012700D01*
X028238Y012749D01*
X028252Y012797D01*
X028269Y012844D01*
X028290Y012889D01*
X028315Y012933D01*
X028343Y012974D01*
X028375Y013013D01*
X028409Y013050D01*
X028446Y013084D01*
X028486Y013114D01*
X028528Y013141D01*
X028572Y013165D01*
X028618Y013186D01*
X028665Y013202D01*
X028713Y013215D01*
X028763Y013224D01*
X028812Y013229D01*
X028863Y013230D01*
X028913Y013227D01*
X028962Y013220D01*
X029011Y013209D01*
X029059Y013194D01*
X029105Y013176D01*
X029150Y013154D01*
X029193Y013128D01*
X029234Y013099D01*
X029273Y013067D01*
X029309Y013032D01*
X029341Y012994D01*
X029371Y012954D01*
X029398Y012911D01*
X029421Y012867D01*
X029440Y012821D01*
X029456Y012773D01*
X029468Y012724D01*
X029476Y012675D01*
X029480Y012625D01*
X029480Y012575D01*
X029476Y012525D01*
X029468Y012476D01*
X029456Y012427D01*
X029440Y012379D01*
X029421Y012333D01*
X029398Y012289D01*
X029371Y012246D01*
X029341Y012206D01*
X029309Y012168D01*
X029273Y012133D01*
X029234Y012101D01*
X029193Y012072D01*
X029150Y012046D01*
X029105Y012024D01*
X029059Y012006D01*
X029011Y011991D01*
X028962Y011980D01*
X028913Y011973D01*
X028863Y011970D01*
X028812Y011971D01*
X028763Y011976D01*
X028713Y011985D01*
X028665Y011998D01*
X028618Y012014D01*
X028572Y012035D01*
X028528Y012059D01*
X028486Y012086D01*
X028446Y012116D01*
X028409Y012150D01*
X028375Y012187D01*
X028343Y012226D01*
X028315Y012267D01*
X028290Y012311D01*
X028269Y012356D01*
X028252Y012403D01*
X028238Y012451D01*
X028228Y012500D01*
X028222Y012550D01*
X028220Y012600D01*
X028220Y023600D02*
X028222Y023650D01*
X028228Y023700D01*
X028238Y023749D01*
X028252Y023797D01*
X028269Y023844D01*
X028290Y023889D01*
X028315Y023933D01*
X028343Y023974D01*
X028375Y024013D01*
X028409Y024050D01*
X028446Y024084D01*
X028486Y024114D01*
X028528Y024141D01*
X028572Y024165D01*
X028618Y024186D01*
X028665Y024202D01*
X028713Y024215D01*
X028763Y024224D01*
X028812Y024229D01*
X028863Y024230D01*
X028913Y024227D01*
X028962Y024220D01*
X029011Y024209D01*
X029059Y024194D01*
X029105Y024176D01*
X029150Y024154D01*
X029193Y024128D01*
X029234Y024099D01*
X029273Y024067D01*
X029309Y024032D01*
X029341Y023994D01*
X029371Y023954D01*
X029398Y023911D01*
X029421Y023867D01*
X029440Y023821D01*
X029456Y023773D01*
X029468Y023724D01*
X029476Y023675D01*
X029480Y023625D01*
X029480Y023575D01*
X029476Y023525D01*
X029468Y023476D01*
X029456Y023427D01*
X029440Y023379D01*
X029421Y023333D01*
X029398Y023289D01*
X029371Y023246D01*
X029341Y023206D01*
X029309Y023168D01*
X029273Y023133D01*
X029234Y023101D01*
X029193Y023072D01*
X029150Y023046D01*
X029105Y023024D01*
X029059Y023006D01*
X029011Y022991D01*
X028962Y022980D01*
X028913Y022973D01*
X028863Y022970D01*
X028812Y022971D01*
X028763Y022976D01*
X028713Y022985D01*
X028665Y022998D01*
X028618Y023014D01*
X028572Y023035D01*
X028528Y023059D01*
X028486Y023086D01*
X028446Y023116D01*
X028409Y023150D01*
X028375Y023187D01*
X028343Y023226D01*
X028315Y023267D01*
X028290Y023311D01*
X028269Y023356D01*
X028252Y023403D01*
X028238Y023451D01*
X028228Y023500D01*
X028222Y023550D01*
X028220Y023600D01*
X008220Y029600D02*
X008222Y029650D01*
X008228Y029700D01*
X008238Y029749D01*
X008252Y029797D01*
X008269Y029844D01*
X008290Y029889D01*
X008315Y029933D01*
X008343Y029974D01*
X008375Y030013D01*
X008409Y030050D01*
X008446Y030084D01*
X008486Y030114D01*
X008528Y030141D01*
X008572Y030165D01*
X008618Y030186D01*
X008665Y030202D01*
X008713Y030215D01*
X008763Y030224D01*
X008812Y030229D01*
X008863Y030230D01*
X008913Y030227D01*
X008962Y030220D01*
X009011Y030209D01*
X009059Y030194D01*
X009105Y030176D01*
X009150Y030154D01*
X009193Y030128D01*
X009234Y030099D01*
X009273Y030067D01*
X009309Y030032D01*
X009341Y029994D01*
X009371Y029954D01*
X009398Y029911D01*
X009421Y029867D01*
X009440Y029821D01*
X009456Y029773D01*
X009468Y029724D01*
X009476Y029675D01*
X009480Y029625D01*
X009480Y029575D01*
X009476Y029525D01*
X009468Y029476D01*
X009456Y029427D01*
X009440Y029379D01*
X009421Y029333D01*
X009398Y029289D01*
X009371Y029246D01*
X009341Y029206D01*
X009309Y029168D01*
X009273Y029133D01*
X009234Y029101D01*
X009193Y029072D01*
X009150Y029046D01*
X009105Y029024D01*
X009059Y029006D01*
X009011Y028991D01*
X008962Y028980D01*
X008913Y028973D01*
X008863Y028970D01*
X008812Y028971D01*
X008763Y028976D01*
X008713Y028985D01*
X008665Y028998D01*
X008618Y029014D01*
X008572Y029035D01*
X008528Y029059D01*
X008486Y029086D01*
X008446Y029116D01*
X008409Y029150D01*
X008375Y029187D01*
X008343Y029226D01*
X008315Y029267D01*
X008290Y029311D01*
X008269Y029356D01*
X008252Y029403D01*
X008238Y029451D01*
X008228Y029500D01*
X008222Y029550D01*
X008220Y029600D01*
D14*
X012165Y027917D02*
X012165Y027670D01*
X012535Y027670D01*
X012535Y027549D02*
X012535Y027302D01*
X012165Y027302D01*
X012165Y027549D01*
X012350Y027670D02*
X012350Y027793D01*
X012350Y027425D02*
X012350Y027302D01*
X012350Y027180D02*
X012412Y027118D01*
X012412Y026933D01*
X012535Y026933D02*
X012165Y026933D01*
X012165Y027118D01*
X012226Y027180D01*
X012350Y027180D01*
X012412Y027057D02*
X012535Y027180D01*
X012535Y026812D02*
X012288Y026812D01*
X012165Y026688D01*
X012288Y026565D01*
X012535Y026565D01*
X012350Y026565D02*
X012350Y026812D01*
D15*
X005252Y020506D02*
X004385Y020506D01*
X003559Y019679D02*
X003559Y018813D01*
X003126Y018104D02*
X001551Y018104D01*
X001551Y020387D01*
X001433Y020584D01*
X000606Y020584D01*
X000488Y020387D01*
X000488Y018104D01*
X000252Y018104D01*
X000252Y020387D01*
X000488Y020387D01*
X001551Y020387D02*
X003126Y020387D01*
X004150Y019246D02*
X004152Y019297D01*
X004158Y019348D01*
X004168Y019398D01*
X004181Y019448D01*
X004199Y019496D01*
X004219Y019543D01*
X004244Y019588D01*
X004272Y019631D01*
X004303Y019672D01*
X004337Y019710D01*
X004374Y019745D01*
X004413Y019778D01*
X004455Y019808D01*
X004499Y019834D01*
X004545Y019856D01*
X004593Y019876D01*
X004642Y019891D01*
X004692Y019903D01*
X004742Y019911D01*
X004793Y019915D01*
X004845Y019915D01*
X004896Y019911D01*
X004946Y019903D01*
X004996Y019891D01*
X005045Y019876D01*
X005093Y019856D01*
X005139Y019834D01*
X005183Y019808D01*
X005225Y019778D01*
X005264Y019745D01*
X005301Y019710D01*
X005335Y019672D01*
X005366Y019631D01*
X005394Y019588D01*
X005419Y019543D01*
X005439Y019496D01*
X005457Y019448D01*
X005470Y019398D01*
X005480Y019348D01*
X005486Y019297D01*
X005488Y019246D01*
X005486Y019195D01*
X005480Y019144D01*
X005470Y019094D01*
X005457Y019044D01*
X005439Y018996D01*
X005419Y018949D01*
X005394Y018904D01*
X005366Y018861D01*
X005335Y018820D01*
X005301Y018782D01*
X005264Y018747D01*
X005225Y018714D01*
X005183Y018684D01*
X005139Y018658D01*
X005093Y018636D01*
X005045Y018616D01*
X004996Y018601D01*
X004946Y018589D01*
X004896Y018581D01*
X004845Y018577D01*
X004793Y018577D01*
X004742Y018581D01*
X004692Y018589D01*
X004642Y018601D01*
X004593Y018616D01*
X004545Y018636D01*
X004499Y018658D01*
X004455Y018684D01*
X004413Y018714D01*
X004374Y018747D01*
X004337Y018782D01*
X004303Y018820D01*
X004272Y018861D01*
X004244Y018904D01*
X004219Y018949D01*
X004199Y018996D01*
X004181Y019044D01*
X004168Y019094D01*
X004158Y019144D01*
X004152Y019195D01*
X004150Y019246D01*
X004385Y017986D02*
X005252Y017986D01*
X006078Y018813D02*
X006078Y019679D01*
X001551Y018104D02*
X001433Y017907D01*
X000606Y017907D01*
X000488Y018104D01*
X000637Y016647D02*
X000519Y016450D01*
X000519Y014167D01*
X000283Y014167D01*
X000283Y016450D01*
X000519Y016450D01*
X000637Y016647D02*
X001464Y016647D01*
X001582Y016450D01*
X001582Y014167D01*
X001464Y013970D01*
X000637Y013970D01*
X000519Y014167D01*
X001582Y014167D02*
X003157Y014167D01*
X003590Y014876D02*
X003590Y015742D01*
X004181Y015309D02*
X004183Y015360D01*
X004189Y015411D01*
X004199Y015461D01*
X004212Y015511D01*
X004230Y015559D01*
X004250Y015606D01*
X004275Y015651D01*
X004303Y015694D01*
X004334Y015735D01*
X004368Y015773D01*
X004405Y015808D01*
X004444Y015841D01*
X004486Y015871D01*
X004530Y015897D01*
X004576Y015919D01*
X004624Y015939D01*
X004673Y015954D01*
X004723Y015966D01*
X004773Y015974D01*
X004824Y015978D01*
X004876Y015978D01*
X004927Y015974D01*
X004977Y015966D01*
X005027Y015954D01*
X005076Y015939D01*
X005124Y015919D01*
X005170Y015897D01*
X005214Y015871D01*
X005256Y015841D01*
X005295Y015808D01*
X005332Y015773D01*
X005366Y015735D01*
X005397Y015694D01*
X005425Y015651D01*
X005450Y015606D01*
X005470Y015559D01*
X005488Y015511D01*
X005501Y015461D01*
X005511Y015411D01*
X005517Y015360D01*
X005519Y015309D01*
X005517Y015258D01*
X005511Y015207D01*
X005501Y015157D01*
X005488Y015107D01*
X005470Y015059D01*
X005450Y015012D01*
X005425Y014967D01*
X005397Y014924D01*
X005366Y014883D01*
X005332Y014845D01*
X005295Y014810D01*
X005256Y014777D01*
X005214Y014747D01*
X005170Y014721D01*
X005124Y014699D01*
X005076Y014679D01*
X005027Y014664D01*
X004977Y014652D01*
X004927Y014644D01*
X004876Y014640D01*
X004824Y014640D01*
X004773Y014644D01*
X004723Y014652D01*
X004673Y014664D01*
X004624Y014679D01*
X004576Y014699D01*
X004530Y014721D01*
X004486Y014747D01*
X004444Y014777D01*
X004405Y014810D01*
X004368Y014845D01*
X004334Y014883D01*
X004303Y014924D01*
X004275Y014967D01*
X004250Y015012D01*
X004230Y015059D01*
X004212Y015107D01*
X004199Y015157D01*
X004189Y015207D01*
X004183Y015258D01*
X004181Y015309D01*
X004417Y016569D02*
X005283Y016569D01*
X006110Y015742D02*
X006110Y014876D01*
X005283Y014049D02*
X004417Y014049D01*
X004417Y012631D02*
X005283Y012631D01*
X006110Y011805D02*
X006110Y010939D01*
X005283Y010112D02*
X004417Y010112D01*
X003590Y010939D02*
X003590Y011805D01*
X003157Y012513D02*
X001582Y012513D01*
X001582Y010230D01*
X001464Y010033D01*
X000637Y010033D01*
X000519Y010230D01*
X000519Y012513D01*
X000283Y012513D01*
X000283Y010230D01*
X000519Y010230D01*
X001582Y010230D02*
X003157Y010230D01*
X004181Y011372D02*
X004183Y011423D01*
X004189Y011474D01*
X004199Y011524D01*
X004212Y011574D01*
X004230Y011622D01*
X004250Y011669D01*
X004275Y011714D01*
X004303Y011757D01*
X004334Y011798D01*
X004368Y011836D01*
X004405Y011871D01*
X004444Y011904D01*
X004486Y011934D01*
X004530Y011960D01*
X004576Y011982D01*
X004624Y012002D01*
X004673Y012017D01*
X004723Y012029D01*
X004773Y012037D01*
X004824Y012041D01*
X004876Y012041D01*
X004927Y012037D01*
X004977Y012029D01*
X005027Y012017D01*
X005076Y012002D01*
X005124Y011982D01*
X005170Y011960D01*
X005214Y011934D01*
X005256Y011904D01*
X005295Y011871D01*
X005332Y011836D01*
X005366Y011798D01*
X005397Y011757D01*
X005425Y011714D01*
X005450Y011669D01*
X005470Y011622D01*
X005488Y011574D01*
X005501Y011524D01*
X005511Y011474D01*
X005517Y011423D01*
X005519Y011372D01*
X005517Y011321D01*
X005511Y011270D01*
X005501Y011220D01*
X005488Y011170D01*
X005470Y011122D01*
X005450Y011075D01*
X005425Y011030D01*
X005397Y010987D01*
X005366Y010946D01*
X005332Y010908D01*
X005295Y010873D01*
X005256Y010840D01*
X005214Y010810D01*
X005170Y010784D01*
X005124Y010762D01*
X005076Y010742D01*
X005027Y010727D01*
X004977Y010715D01*
X004927Y010707D01*
X004876Y010703D01*
X004824Y010703D01*
X004773Y010707D01*
X004723Y010715D01*
X004673Y010727D01*
X004624Y010742D01*
X004576Y010762D01*
X004530Y010784D01*
X004486Y010810D01*
X004444Y010840D01*
X004405Y010873D01*
X004368Y010908D01*
X004334Y010946D01*
X004303Y010987D01*
X004275Y011030D01*
X004250Y011075D01*
X004230Y011122D01*
X004212Y011170D01*
X004199Y011220D01*
X004189Y011270D01*
X004183Y011321D01*
X004181Y011372D01*
X001582Y012513D02*
X001464Y012710D01*
X000637Y012710D01*
X000519Y012513D01*
X001582Y016450D02*
X003157Y016450D01*
D16*
X004105Y009142D02*
X004259Y009142D01*
X004335Y009218D01*
X004335Y009525D01*
X004259Y009602D01*
X004105Y009602D01*
X004028Y009525D01*
X004028Y009218D01*
X004105Y009142D01*
X004489Y009218D02*
X004566Y009142D01*
X004719Y009142D01*
X004796Y009218D01*
X004796Y009602D01*
X004949Y009602D02*
X005256Y009602D01*
X005103Y009602D02*
X005103Y009142D01*
X005410Y009142D02*
X005410Y009449D01*
X005563Y009602D01*
X005717Y009449D01*
X005717Y009142D01*
X005717Y009372D02*
X005410Y009372D01*
X004489Y009218D02*
X004489Y009602D01*
X004566Y013079D02*
X004719Y013079D01*
X004796Y013155D01*
X004796Y013539D01*
X004949Y013539D02*
X005256Y013539D01*
X005103Y013539D02*
X005103Y013079D01*
X005410Y013079D02*
X005640Y013079D01*
X005717Y013155D01*
X005717Y013232D01*
X005640Y013309D01*
X005410Y013309D01*
X005640Y013309D02*
X005717Y013386D01*
X005717Y013462D01*
X005640Y013539D01*
X005410Y013539D01*
X005410Y013079D01*
X004566Y013079D02*
X004489Y013155D01*
X004489Y013539D01*
X004335Y013462D02*
X004335Y013155D01*
X004259Y013079D01*
X004105Y013079D01*
X004028Y013155D01*
X004028Y013462D01*
X004105Y013539D01*
X004259Y013539D01*
X004335Y013462D01*
X004304Y017016D02*
X004304Y017476D01*
X004457Y017476D02*
X004150Y017476D01*
X003997Y017476D02*
X003690Y017476D01*
X003843Y017476D02*
X003843Y017016D01*
X004611Y017016D02*
X004611Y017476D01*
X005071Y017476D02*
X005225Y017476D01*
X005148Y017476D02*
X005148Y017016D01*
X005071Y017016D02*
X005225Y017016D01*
X005378Y017016D02*
X005378Y017476D01*
X005685Y017016D01*
X005685Y017476D01*
X004918Y017016D02*
X004611Y017016D01*
D17*
X020300Y022980D03*
X021450Y021720D03*
X022400Y022930D03*
X023400Y021770D03*
X025300Y021820D03*
X024450Y023080D03*
X024450Y025920D03*
X022400Y025770D03*
X020300Y025820D03*
X021450Y018880D03*
X023400Y018930D03*
X025300Y018980D03*
D18*
X012070Y019513D03*
X009230Y019513D03*
M02*
