G75*
%MOIN*%
%OFA0B0*%
%FSLAX24Y24*%
%IPPOS*%
%LPD*%
%AMOC8*
5,1,8,0,0,1.08239X$1,22.5*
%
%ADD10C,0.0574*%
%ADD11C,0.0600*%
%ADD12OC8,0.0610*%
%ADD13C,0.0050*%
%ADD14C,0.0750*%
%ADD15C,0.1050*%
%ADD16C,0.0520*%
%ADD17OC8,0.0520*%
%ADD18C,0.0551*%
%ADD19C,0.0100*%
%ADD20C,0.0400*%
%ADD21R,0.0396X0.0396*%
%ADD22C,0.0160*%
D10*
X013850Y010456D02*
X013850Y010744D01*
X014850Y010744D02*
X014850Y010456D01*
X015850Y010456D02*
X015850Y010744D01*
X016850Y010744D02*
X016850Y010456D01*
X017850Y010456D02*
X017850Y010744D01*
X018850Y010744D02*
X018850Y010456D01*
X019850Y010456D02*
X019850Y010744D01*
X020850Y010744D02*
X020850Y010456D01*
X020850Y011456D02*
X020850Y011744D01*
X019850Y011744D02*
X019850Y011456D01*
X018850Y011456D02*
X018850Y011744D01*
X017850Y011744D02*
X017850Y011456D01*
X016850Y011456D02*
X016850Y011744D01*
X015850Y011744D02*
X015850Y011456D01*
X014850Y011456D02*
X014850Y011744D01*
X013850Y011744D02*
X013850Y011456D01*
X014250Y028456D02*
X014250Y028744D01*
X013250Y028744D02*
X013250Y028456D01*
X012250Y028456D02*
X012250Y028744D01*
X011250Y028744D02*
X011250Y028456D01*
X010250Y028456D02*
X010250Y028744D01*
X010250Y029456D02*
X010250Y029744D01*
X011250Y029744D02*
X011250Y029456D01*
X012250Y029456D02*
X012250Y029744D01*
X013250Y029744D02*
X013250Y029456D01*
X014250Y029456D02*
X014250Y029744D01*
X015250Y029744D02*
X015250Y029456D01*
X016250Y029456D02*
X016250Y029744D01*
X017250Y029744D02*
X017250Y029456D01*
X018250Y029456D02*
X018250Y029744D01*
X019250Y029744D02*
X019250Y029456D01*
X019250Y028744D02*
X019250Y028456D01*
X018250Y028456D02*
X018250Y028744D01*
X017250Y028744D02*
X017250Y028456D01*
X016250Y028456D02*
X016250Y028744D01*
X015250Y028744D02*
X015250Y028456D01*
X020850Y028456D02*
X020850Y028744D01*
X021850Y028744D02*
X021850Y028456D01*
X022850Y028456D02*
X022850Y028744D01*
X023850Y028744D02*
X023850Y028456D01*
X024850Y028456D02*
X024850Y028744D01*
X025850Y028744D02*
X025850Y028456D01*
X026850Y028456D02*
X026850Y028744D01*
X027850Y028744D02*
X027850Y028456D01*
X027850Y029456D02*
X027850Y029744D01*
X026850Y029744D02*
X026850Y029456D01*
X025850Y029456D02*
X025850Y029744D01*
X024850Y029744D02*
X024850Y029456D01*
X023850Y029456D02*
X023850Y029744D01*
X022850Y029744D02*
X022850Y029456D01*
X021850Y029456D02*
X021850Y029744D01*
X020850Y029744D02*
X020850Y029456D01*
D11*
X022850Y011750D02*
X022850Y011450D01*
X023850Y011450D02*
X023850Y011750D01*
X024850Y011750D02*
X024850Y011450D01*
X025850Y011450D02*
X025850Y011750D01*
X026850Y011750D02*
X026850Y011450D01*
X027850Y011450D02*
X027850Y011750D01*
X027850Y010750D02*
X027850Y010450D01*
X026850Y010450D02*
X026850Y010750D01*
X025850Y010750D02*
X025850Y010450D01*
X024850Y010450D02*
X024850Y010750D01*
X023850Y010750D02*
X023850Y010450D01*
X022850Y010450D02*
X022850Y010750D01*
D12*
X027900Y019600D03*
X028900Y019600D03*
X028900Y020600D03*
X027900Y020600D03*
X027900Y021600D03*
X028900Y021600D03*
D13*
X000525Y002082D02*
X000525Y001675D01*
X000525Y001980D02*
X000932Y001980D01*
X000932Y002082D02*
X000932Y001675D01*
X001133Y001675D02*
X001133Y002286D01*
X001438Y002286D01*
X001540Y002184D01*
X001540Y001980D01*
X001438Y001879D01*
X001133Y001879D01*
X001336Y001879D02*
X001540Y001675D01*
X001740Y001675D02*
X002046Y001675D01*
X002147Y001777D01*
X002147Y002184D01*
X002046Y002286D01*
X001740Y002286D01*
X001740Y001675D01*
X002348Y001777D02*
X002450Y001675D01*
X002653Y001675D01*
X002755Y001777D01*
X002755Y002286D01*
X002956Y002286D02*
X003159Y002286D01*
X003058Y002286D02*
X003058Y001675D01*
X003159Y001675D02*
X002956Y001675D01*
X003361Y001675D02*
X003361Y002286D01*
X003768Y001675D01*
X003768Y002286D01*
X003969Y002184D02*
X003969Y001777D01*
X004070Y001675D01*
X004274Y001675D01*
X004376Y001777D01*
X004376Y002184D01*
X004274Y002286D01*
X004070Y002286D01*
X003969Y002184D01*
X003971Y002875D02*
X003746Y002875D01*
X003671Y002950D01*
X003671Y003100D01*
X003746Y003175D01*
X003971Y003175D01*
X003971Y003325D02*
X003971Y002875D01*
X004131Y002950D02*
X004206Y002875D01*
X004432Y002875D01*
X004432Y003175D01*
X004592Y003100D02*
X004592Y002950D01*
X004667Y002875D01*
X004892Y002875D01*
X005127Y002950D02*
X005202Y002875D01*
X005127Y002950D02*
X005127Y003250D01*
X005052Y003175D02*
X005202Y003175D01*
X004892Y003175D02*
X004667Y003175D01*
X004592Y003100D01*
X004131Y003175D02*
X004131Y002950D01*
X003511Y002950D02*
X003511Y003100D01*
X003436Y003175D01*
X003286Y003175D01*
X003211Y003100D01*
X003211Y002950D01*
X003286Y002875D01*
X003436Y002875D01*
X003511Y002950D01*
X003052Y003175D02*
X002977Y003175D01*
X002827Y003025D01*
X002827Y002875D02*
X002827Y003175D01*
X002667Y003100D02*
X002667Y002950D01*
X002592Y002875D01*
X002367Y002875D01*
X002367Y002725D02*
X002367Y003175D01*
X002592Y003175D01*
X002667Y003100D01*
X001746Y003100D02*
X001746Y003025D01*
X001446Y003025D01*
X001446Y002950D02*
X001446Y003100D01*
X001521Y003175D01*
X001671Y003175D01*
X001746Y003100D01*
X001671Y002875D02*
X001521Y002875D01*
X001446Y002950D01*
X001286Y002875D02*
X001286Y003100D01*
X001211Y003175D01*
X001060Y003175D01*
X000985Y003100D01*
X000985Y003325D02*
X000985Y002875D01*
X000675Y002875D02*
X000675Y003325D01*
X000525Y003325D02*
X000825Y003325D01*
X000832Y004075D02*
X000832Y004525D01*
X000907Y004375D02*
X001057Y004375D01*
X001132Y004300D01*
X001132Y004075D01*
X001292Y004150D02*
X001292Y004300D01*
X001367Y004375D01*
X001518Y004375D01*
X001593Y004300D01*
X001593Y004225D01*
X001292Y004225D01*
X001292Y004150D02*
X001367Y004075D01*
X001518Y004075D01*
X001753Y004075D02*
X001978Y004075D01*
X002053Y004150D01*
X001978Y004225D01*
X001828Y004225D01*
X001753Y004300D01*
X001828Y004375D01*
X002053Y004375D01*
X002213Y004300D02*
X002288Y004375D01*
X002438Y004375D01*
X002513Y004300D01*
X002513Y004225D01*
X002213Y004225D01*
X002213Y004150D02*
X002213Y004300D01*
X002213Y004150D02*
X002288Y004075D01*
X002438Y004075D01*
X003134Y004300D02*
X003284Y004300D01*
X003441Y004300D02*
X003441Y004150D01*
X003516Y004075D01*
X003666Y004075D01*
X003741Y004150D01*
X003741Y004300D01*
X003666Y004375D01*
X003516Y004375D01*
X003441Y004300D01*
X003284Y004525D02*
X003209Y004450D01*
X003209Y004075D01*
X003901Y004075D02*
X003901Y004375D01*
X003901Y004225D02*
X004051Y004375D01*
X004126Y004375D01*
X004128Y004875D02*
X004053Y004950D01*
X004053Y005250D01*
X003978Y005175D02*
X004128Y005175D01*
X004285Y005100D02*
X004360Y005175D01*
X004510Y005175D01*
X004585Y005100D01*
X004585Y004875D01*
X004745Y004950D02*
X004820Y004875D01*
X004970Y004875D01*
X005046Y005025D02*
X004745Y005025D01*
X004745Y004950D02*
X004745Y005100D01*
X004820Y005175D01*
X004970Y005175D01*
X005046Y005100D01*
X005046Y005025D01*
X005049Y005525D02*
X005124Y005525D01*
X005199Y005600D01*
X005199Y005975D01*
X005199Y005675D02*
X004974Y005675D01*
X004899Y005750D01*
X004899Y005975D01*
X004739Y005900D02*
X004739Y005675D01*
X004513Y005675D01*
X004438Y005750D01*
X004513Y005825D01*
X004739Y005825D01*
X004739Y005900D02*
X004664Y005975D01*
X004513Y005975D01*
X004278Y005900D02*
X004278Y005675D01*
X004128Y005675D02*
X004128Y005900D01*
X004203Y005975D01*
X004278Y005900D01*
X004128Y005900D02*
X004053Y005975D01*
X003978Y005975D01*
X003978Y005675D01*
X004285Y005325D02*
X004285Y004875D01*
X004820Y004450D02*
X004895Y004525D01*
X004820Y004450D02*
X004820Y004075D01*
X004745Y004300D02*
X004895Y004300D01*
X005052Y004375D02*
X005052Y004150D01*
X005127Y004075D01*
X005352Y004075D01*
X005352Y004375D01*
X005513Y004375D02*
X005663Y004375D01*
X005588Y004450D02*
X005588Y004150D01*
X005663Y004075D01*
X005820Y004150D02*
X005895Y004075D01*
X006120Y004075D01*
X006120Y004375D01*
X006280Y004375D02*
X006280Y004075D01*
X006280Y004225D02*
X006430Y004375D01*
X006505Y004375D01*
X006664Y004300D02*
X006739Y004375D01*
X006889Y004375D01*
X006964Y004300D01*
X006964Y004225D01*
X006664Y004225D01*
X006664Y004150D02*
X006664Y004300D01*
X006664Y004150D02*
X006739Y004075D01*
X006889Y004075D01*
X007584Y004150D02*
X007584Y004300D01*
X007659Y004375D01*
X007885Y004375D01*
X007885Y004525D02*
X007885Y004075D01*
X007659Y004075D01*
X007584Y004150D01*
X008045Y004150D02*
X008045Y004300D01*
X008120Y004375D01*
X008270Y004375D01*
X008345Y004300D01*
X008345Y004225D01*
X008045Y004225D01*
X008045Y004150D02*
X008120Y004075D01*
X008270Y004075D01*
X008580Y004075D02*
X008580Y004450D01*
X008655Y004525D01*
X008812Y004375D02*
X008887Y004375D01*
X008887Y004075D01*
X008812Y004075D02*
X008962Y004075D01*
X009119Y004075D02*
X009119Y004375D01*
X009344Y004375D01*
X009419Y004300D01*
X009419Y004075D01*
X009579Y004075D02*
X009730Y004075D01*
X009654Y004075D02*
X009654Y004375D01*
X009579Y004375D01*
X009654Y004525D02*
X009654Y004600D01*
X009574Y004875D02*
X009649Y004950D01*
X009649Y005100D01*
X009574Y005175D01*
X009424Y005175D01*
X009349Y005100D01*
X009349Y004950D01*
X009424Y004875D01*
X009574Y004875D01*
X009810Y004875D02*
X009810Y005175D01*
X009960Y005175D02*
X010035Y005175D01*
X009960Y005175D02*
X009810Y005025D01*
X010036Y005525D02*
X010112Y005525D01*
X010187Y005600D01*
X010187Y005975D01*
X009961Y005975D01*
X009886Y005900D01*
X009886Y005750D01*
X009961Y005675D01*
X010187Y005675D01*
X010347Y005750D02*
X010347Y005900D01*
X010422Y005975D01*
X010572Y005975D01*
X010647Y005900D01*
X010647Y005825D01*
X010347Y005825D01*
X010347Y005750D02*
X010422Y005675D01*
X010572Y005675D01*
X010807Y005675D02*
X011032Y005675D01*
X011107Y005750D01*
X011032Y005825D01*
X010882Y005825D01*
X010807Y005900D01*
X010882Y005975D01*
X011107Y005975D01*
X011728Y005975D02*
X011878Y005975D01*
X011803Y006050D02*
X011803Y005750D01*
X011878Y005675D01*
X012035Y005750D02*
X012035Y005900D01*
X012110Y005975D01*
X012260Y005975D01*
X012335Y005900D01*
X012335Y005750D01*
X012260Y005675D01*
X012110Y005675D01*
X012035Y005750D01*
X012956Y005675D02*
X013181Y005675D01*
X013256Y005750D01*
X013181Y005825D01*
X013031Y005825D01*
X012956Y005900D01*
X013031Y005975D01*
X013256Y005975D01*
X013416Y005975D02*
X013641Y005975D01*
X013716Y005900D01*
X013716Y005750D01*
X013641Y005675D01*
X013416Y005675D01*
X013416Y005525D02*
X013416Y005975D01*
X013876Y005900D02*
X013876Y005750D01*
X013951Y005675D01*
X014102Y005675D01*
X014177Y005825D02*
X013876Y005825D01*
X013876Y005900D02*
X013951Y005975D01*
X014102Y005975D01*
X014177Y005900D01*
X014177Y005825D01*
X014337Y005750D02*
X014412Y005675D01*
X014637Y005675D01*
X014797Y005675D02*
X014947Y005675D01*
X014872Y005675D02*
X014872Y005975D01*
X014797Y005975D01*
X014637Y005975D02*
X014412Y005975D01*
X014337Y005900D01*
X014337Y005750D01*
X014565Y005400D02*
X014565Y005325D01*
X014565Y005175D02*
X014565Y004875D01*
X014490Y004875D02*
X014640Y004875D01*
X014797Y004875D02*
X015022Y004875D01*
X015097Y004950D01*
X015022Y005025D01*
X014872Y005025D01*
X014797Y005100D01*
X014872Y005175D01*
X015097Y005175D01*
X015258Y005175D02*
X015408Y005175D01*
X015333Y005250D02*
X015333Y004950D01*
X015408Y004875D01*
X015564Y004875D02*
X015715Y004875D01*
X015640Y004875D02*
X015640Y005175D01*
X015564Y005175D01*
X015640Y005325D02*
X015640Y005400D01*
X015561Y005675D02*
X015411Y005675D01*
X015486Y005675D02*
X015486Y005975D01*
X015411Y005975D01*
X015486Y006125D02*
X015486Y006200D01*
X015254Y006125D02*
X015179Y006050D01*
X015179Y005675D01*
X015104Y005900D02*
X015254Y005900D01*
X014872Y006125D02*
X014872Y006200D01*
X015718Y005900D02*
X015718Y005750D01*
X015793Y005675D01*
X016018Y005675D01*
X016178Y005750D02*
X016253Y005825D01*
X016479Y005825D01*
X016479Y005900D02*
X016479Y005675D01*
X016253Y005675D01*
X016178Y005750D01*
X016253Y005975D02*
X016404Y005975D01*
X016479Y005900D01*
X016639Y005975D02*
X016789Y005975D01*
X016714Y006050D02*
X016714Y005750D01*
X016789Y005675D01*
X016946Y005675D02*
X017096Y005675D01*
X017021Y005675D02*
X017021Y005975D01*
X016946Y005975D01*
X017021Y006125D02*
X017021Y006200D01*
X017253Y005900D02*
X017253Y005750D01*
X017328Y005675D01*
X017478Y005675D01*
X017553Y005750D01*
X017553Y005900D01*
X017478Y005975D01*
X017328Y005975D01*
X017253Y005900D01*
X017713Y005975D02*
X017713Y005675D01*
X018013Y005675D02*
X018013Y005900D01*
X017938Y005975D01*
X017713Y005975D01*
X018173Y005900D02*
X018248Y005825D01*
X018399Y005825D01*
X018474Y005750D01*
X018399Y005675D01*
X018173Y005675D01*
X018173Y005900D02*
X018248Y005975D01*
X018474Y005975D01*
X019094Y005750D02*
X019169Y005825D01*
X019394Y005825D01*
X019394Y005900D02*
X019394Y005675D01*
X019169Y005675D01*
X019094Y005750D01*
X019169Y005975D02*
X019319Y005975D01*
X019394Y005900D01*
X019555Y005975D02*
X019555Y005675D01*
X019855Y005675D02*
X019855Y005900D01*
X019780Y005975D01*
X019555Y005975D01*
X020015Y005900D02*
X020090Y005975D01*
X020315Y005975D01*
X020315Y006125D02*
X020315Y005675D01*
X020090Y005675D01*
X020015Y005750D01*
X020015Y005900D01*
X020472Y005325D02*
X020397Y005250D01*
X020397Y004875D01*
X020322Y005100D02*
X020472Y005100D01*
X020629Y005100D02*
X020704Y005175D01*
X020854Y005175D01*
X020929Y005100D01*
X020929Y005025D01*
X020629Y005025D01*
X020629Y004950D02*
X020629Y005100D01*
X020629Y004950D02*
X020704Y004875D01*
X020854Y004875D01*
X021089Y004950D02*
X021164Y004875D01*
X021389Y004875D01*
X021389Y005100D01*
X021314Y005175D01*
X021164Y005175D01*
X021164Y005025D02*
X021389Y005025D01*
X021550Y005175D02*
X021700Y005175D01*
X021625Y005250D02*
X021625Y004950D01*
X021700Y004875D01*
X021857Y004950D02*
X021932Y004875D01*
X022157Y004875D01*
X022157Y005175D01*
X022317Y005175D02*
X022317Y004875D01*
X022317Y005025D02*
X022467Y005175D01*
X022542Y005175D01*
X022701Y005100D02*
X022776Y005175D01*
X022926Y005175D01*
X023001Y005100D01*
X023001Y005025D01*
X022701Y005025D01*
X022701Y004950D02*
X022701Y005100D01*
X022701Y004950D02*
X022776Y004875D01*
X022926Y004875D01*
X023161Y004875D02*
X023386Y004875D01*
X023461Y004950D01*
X023386Y005025D01*
X023236Y005025D01*
X023161Y005100D01*
X023236Y005175D01*
X023461Y005175D01*
X024082Y005100D02*
X024082Y004950D01*
X024157Y004875D01*
X024307Y004875D01*
X024382Y004950D01*
X024382Y005100D01*
X024307Y005175D01*
X024157Y005175D01*
X024082Y005100D01*
X024542Y005025D02*
X024692Y005175D01*
X024767Y005175D01*
X024542Y005175D02*
X024542Y004875D01*
X024464Y004600D02*
X024464Y004525D01*
X024464Y004375D02*
X024464Y004075D01*
X024389Y004075D02*
X024539Y004075D01*
X024771Y004150D02*
X024846Y004075D01*
X024771Y004150D02*
X024771Y004450D01*
X024696Y004375D02*
X024846Y004375D01*
X025003Y004375D02*
X025003Y004150D01*
X025078Y004075D01*
X025303Y004075D01*
X025303Y004000D02*
X025228Y003925D01*
X025153Y003925D01*
X025303Y004000D02*
X025303Y004375D01*
X025386Y004875D02*
X025536Y004875D01*
X025461Y004875D02*
X025461Y005175D01*
X025386Y005175D01*
X025461Y005325D02*
X025461Y005400D01*
X025535Y005675D02*
X025309Y005675D01*
X025385Y005825D02*
X025309Y005900D01*
X025385Y005975D01*
X025610Y005975D01*
X025535Y005825D02*
X025385Y005825D01*
X025535Y005825D02*
X025610Y005750D01*
X025535Y005675D01*
X025770Y005750D02*
X025845Y005675D01*
X026070Y005675D01*
X026230Y005675D02*
X026230Y005975D01*
X026230Y005825D02*
X026380Y005975D01*
X026455Y005975D01*
X026614Y005975D02*
X026689Y005975D01*
X026689Y005675D01*
X026614Y005675D02*
X026764Y005675D01*
X026921Y005675D02*
X027146Y005675D01*
X027221Y005750D01*
X027221Y005900D01*
X027146Y005975D01*
X026921Y005975D01*
X026921Y005525D01*
X026921Y005175D02*
X026921Y004875D01*
X026921Y005025D02*
X027071Y005175D01*
X027146Y005175D01*
X027304Y005175D02*
X027304Y004950D01*
X027380Y004875D01*
X027605Y004875D01*
X027605Y005175D01*
X027765Y005100D02*
X027765Y004950D01*
X027840Y004875D01*
X028065Y004875D01*
X028300Y004950D02*
X028375Y004875D01*
X028300Y004950D02*
X028300Y005250D01*
X028225Y005175D02*
X028375Y005175D01*
X028532Y005175D02*
X028607Y005175D01*
X028607Y004875D01*
X028532Y004875D02*
X028682Y004875D01*
X028839Y004950D02*
X028914Y004875D01*
X029064Y004875D01*
X029139Y004950D01*
X029139Y005100D01*
X029064Y005175D01*
X028914Y005175D01*
X028839Y005100D01*
X028839Y004950D01*
X028607Y005325D02*
X028607Y005400D01*
X028756Y005675D02*
X028756Y005900D01*
X028681Y005975D01*
X028455Y005975D01*
X028455Y005675D01*
X028295Y005750D02*
X028295Y005900D01*
X028220Y005975D01*
X028070Y005975D01*
X027995Y005900D01*
X027995Y005750D01*
X028070Y005675D01*
X028220Y005675D01*
X028295Y005750D01*
X027838Y005675D02*
X027688Y005675D01*
X027763Y005675D02*
X027763Y005975D01*
X027688Y005975D01*
X027531Y005975D02*
X027381Y005975D01*
X027456Y006050D02*
X027456Y005750D01*
X027531Y005675D01*
X027763Y006125D02*
X027763Y006200D01*
X027688Y006875D02*
X027838Y007025D01*
X027988Y006875D01*
X027988Y007325D01*
X028149Y007175D02*
X028299Y007325D01*
X028449Y007175D01*
X028449Y006875D01*
X028609Y006875D02*
X028609Y007325D01*
X028834Y007325D01*
X028909Y007250D01*
X028909Y007100D01*
X028834Y007025D01*
X028609Y007025D01*
X028759Y007025D02*
X028909Y006875D01*
X029069Y006875D02*
X029069Y007325D01*
X029295Y007325D01*
X029370Y007250D01*
X029370Y007100D01*
X029295Y007025D01*
X029069Y007025D01*
X029219Y007025D02*
X029370Y006875D01*
X029530Y006875D02*
X029530Y007175D01*
X029680Y007325D01*
X029830Y007175D01*
X029830Y006875D01*
X029990Y006875D02*
X029990Y007325D01*
X030290Y006875D01*
X030290Y007325D01*
X030451Y007325D02*
X030751Y007325D01*
X030601Y007325D02*
X030601Y006875D01*
X030911Y006875D02*
X031061Y006875D01*
X030986Y006875D02*
X030986Y007325D01*
X030911Y007325D02*
X031061Y007325D01*
X031218Y007325D02*
X031218Y006875D01*
X031518Y006875D01*
X031678Y006950D02*
X031753Y006875D01*
X031903Y006875D01*
X031978Y006950D01*
X031978Y007025D01*
X031903Y007100D01*
X031753Y007100D01*
X031678Y007175D01*
X031678Y007250D01*
X031753Y007325D01*
X031903Y007325D01*
X031978Y007250D01*
X032060Y007675D02*
X032210Y007675D01*
X032285Y007750D01*
X032446Y007675D02*
X032746Y007675D01*
X032906Y007675D02*
X032906Y007975D01*
X033056Y008125D01*
X033206Y007975D01*
X033206Y007675D01*
X033366Y007675D02*
X033516Y007675D01*
X033441Y007675D02*
X033441Y008125D01*
X033366Y008125D02*
X033516Y008125D01*
X033673Y008125D02*
X033823Y007975D01*
X033974Y008125D01*
X033974Y007675D01*
X034134Y007750D02*
X034209Y007675D01*
X034359Y007675D01*
X034434Y007750D01*
X034434Y007825D01*
X034359Y007900D01*
X034209Y007900D01*
X034134Y007975D01*
X034134Y008050D01*
X034209Y008125D01*
X034359Y008125D01*
X034434Y008050D01*
X035054Y007975D02*
X035205Y008125D01*
X035355Y007975D01*
X035355Y007675D01*
X035515Y007675D02*
X035815Y007675D01*
X035975Y007675D02*
X036275Y007675D01*
X035975Y007675D02*
X035975Y008125D01*
X035515Y008125D02*
X035515Y007675D01*
X035355Y007900D02*
X035054Y007900D01*
X035054Y007975D02*
X035054Y007675D01*
X035126Y007325D02*
X035201Y007250D01*
X035201Y007100D01*
X035126Y007025D01*
X034901Y007025D01*
X034901Y006875D02*
X034901Y007325D01*
X035126Y007325D01*
X035361Y007250D02*
X035361Y006950D01*
X035436Y006875D01*
X035587Y006875D01*
X035662Y006950D01*
X035822Y006875D02*
X035822Y007325D01*
X035662Y007250D02*
X035587Y007325D01*
X035436Y007325D01*
X035361Y007250D01*
X035051Y007025D02*
X035201Y006875D01*
X034741Y006875D02*
X034441Y006875D01*
X034441Y007325D01*
X034741Y007325D01*
X034591Y007100D02*
X034441Y007100D01*
X034280Y007325D02*
X034280Y006875D01*
X033980Y006875D02*
X033980Y007325D01*
X034130Y007175D01*
X034280Y007325D01*
X033673Y007675D02*
X033673Y008125D01*
X033206Y007900D02*
X032906Y007900D01*
X032446Y008125D02*
X032446Y007675D01*
X032060Y007675D02*
X031985Y007750D01*
X031985Y008050D01*
X032060Y008125D01*
X032210Y008125D01*
X032285Y008050D01*
X031825Y008050D02*
X031750Y008125D01*
X031600Y008125D01*
X031525Y008050D01*
X031525Y007975D01*
X031600Y007900D01*
X031750Y007900D01*
X031825Y007825D01*
X031825Y007750D01*
X031750Y007675D01*
X031600Y007675D01*
X031525Y007750D01*
X031368Y007675D02*
X031218Y007675D01*
X031293Y007675D02*
X031293Y008125D01*
X031218Y008125D02*
X031368Y008125D01*
X031058Y008050D02*
X030983Y008125D01*
X030757Y008125D01*
X030757Y007675D01*
X030983Y007675D01*
X031058Y007750D01*
X031058Y008050D01*
X030137Y007900D02*
X030062Y007975D01*
X029912Y007975D01*
X029837Y007900D01*
X029837Y007750D01*
X029912Y007675D01*
X030062Y007675D01*
X030137Y007750D01*
X030137Y007900D01*
X029677Y007900D02*
X029677Y007675D01*
X029677Y007900D02*
X029601Y007975D01*
X029376Y007975D01*
X029376Y007675D01*
X029219Y007675D02*
X029069Y007675D01*
X029144Y007675D02*
X029144Y007975D01*
X029069Y007975D01*
X028909Y007975D02*
X028909Y007675D01*
X028684Y007675D01*
X028609Y007750D01*
X028609Y007975D01*
X028449Y007975D02*
X028224Y007975D01*
X028149Y007900D01*
X028149Y007750D01*
X028224Y007675D01*
X028449Y007675D01*
X028449Y008125D01*
X027990Y007975D02*
X027915Y007975D01*
X027765Y007825D01*
X027765Y007675D02*
X027765Y007975D01*
X027605Y007975D02*
X027605Y007675D01*
X027605Y007900D02*
X027304Y007900D01*
X027304Y007975D02*
X027455Y008125D01*
X027605Y007975D01*
X027304Y007975D02*
X027304Y007675D01*
X026993Y007325D02*
X026767Y007325D01*
X026767Y006875D01*
X026993Y006875D01*
X027068Y006950D01*
X027068Y007250D01*
X026993Y007325D01*
X026607Y007325D02*
X026307Y007325D01*
X026307Y006875D01*
X026607Y006875D01*
X026457Y007100D02*
X026307Y007100D01*
X026150Y006875D02*
X026000Y006875D01*
X026075Y006875D02*
X026075Y007325D01*
X026000Y007325D02*
X026150Y007325D01*
X026229Y007675D02*
X026154Y007750D01*
X026229Y007675D02*
X026379Y007675D01*
X026454Y007750D01*
X026454Y007825D01*
X026379Y007900D01*
X026229Y007900D01*
X026154Y007975D01*
X026154Y008050D01*
X026229Y008125D01*
X026379Y008125D01*
X026454Y008050D01*
X026614Y007750D02*
X026689Y007750D01*
X026689Y007675D01*
X026614Y007675D01*
X026614Y007750D01*
X025993Y008125D02*
X025693Y008125D01*
X025843Y008125D02*
X025843Y007675D01*
X025533Y007675D02*
X025233Y007675D01*
X025233Y008125D01*
X025073Y008125D02*
X025073Y007750D01*
X024998Y007675D01*
X024847Y007675D01*
X024772Y007750D01*
X024772Y008125D01*
X024612Y007975D02*
X024462Y008125D01*
X024312Y007975D01*
X024312Y007675D01*
X024312Y007900D02*
X024612Y007900D01*
X024612Y007975D02*
X024612Y007675D01*
X024619Y007325D02*
X024769Y007175D01*
X024919Y007325D01*
X024919Y006875D01*
X025079Y006875D02*
X025079Y007325D01*
X025304Y007325D01*
X025380Y007250D01*
X025380Y007100D01*
X025304Y007025D01*
X025079Y007025D01*
X024619Y006875D02*
X024619Y007325D01*
X024462Y007325D02*
X024312Y007325D01*
X024387Y007325D02*
X024387Y006875D01*
X024312Y006875D02*
X024462Y006875D01*
X023691Y007250D02*
X023541Y007100D01*
X023541Y006875D01*
X023541Y007100D02*
X023391Y007250D01*
X023391Y007325D01*
X023231Y007325D02*
X023231Y006875D01*
X022931Y007325D01*
X022931Y006875D01*
X022771Y006875D02*
X022771Y007175D01*
X022620Y007325D01*
X022470Y007175D01*
X022470Y006875D01*
X022470Y007100D02*
X022771Y007100D01*
X021853Y006950D02*
X021778Y006950D01*
X021778Y006875D01*
X021853Y006875D01*
X021853Y006950D01*
X021853Y006875D02*
X021703Y006725D01*
X021543Y006950D02*
X021543Y007250D01*
X021468Y007325D01*
X021318Y007325D01*
X021243Y007250D01*
X021243Y006950D01*
X021318Y006875D01*
X021468Y006875D01*
X021543Y006950D01*
X021083Y007325D02*
X020782Y007325D01*
X020932Y007325D02*
X020932Y006875D01*
X020162Y006950D02*
X020162Y007250D01*
X020087Y007325D01*
X019861Y007325D01*
X019861Y006875D01*
X020087Y006875D01*
X020162Y006950D01*
X019701Y006875D02*
X019401Y006875D01*
X019401Y007325D01*
X019701Y007325D01*
X019551Y007100D02*
X019401Y007100D01*
X019241Y007325D02*
X018941Y007325D01*
X019091Y007325D02*
X019091Y006875D01*
X018784Y006875D02*
X018634Y006875D01*
X018709Y006875D02*
X018709Y007325D01*
X018634Y007325D02*
X018784Y007325D01*
X018474Y007325D02*
X018474Y006875D01*
X018173Y006875D02*
X018173Y007325D01*
X018324Y007175D01*
X018474Y007325D01*
X018397Y007675D02*
X018397Y008125D01*
X018557Y008125D02*
X018782Y008125D01*
X018857Y008050D01*
X018857Y007750D01*
X018782Y007675D01*
X018557Y007675D01*
X018557Y008125D01*
X018097Y008125D02*
X018397Y007675D01*
X018097Y007675D02*
X018097Y008125D01*
X017937Y007975D02*
X017937Y007675D01*
X017937Y007900D02*
X017636Y007900D01*
X017636Y007975D02*
X017786Y008125D01*
X017937Y007975D01*
X017636Y007975D02*
X017636Y007675D01*
X017406Y007325D02*
X017406Y006875D01*
X017706Y006875D01*
X017866Y006875D02*
X018017Y006875D01*
X017942Y006875D02*
X017942Y007325D01*
X018017Y007325D02*
X017866Y007325D01*
X016786Y007325D02*
X016485Y007325D01*
X016635Y007325D02*
X016635Y006875D01*
X016325Y006950D02*
X016325Y007250D01*
X016250Y007325D01*
X016100Y007325D01*
X016025Y007250D01*
X016025Y006950D01*
X016100Y006875D01*
X016250Y006875D01*
X016325Y006950D01*
X015865Y006875D02*
X015865Y007325D01*
X015564Y007325D02*
X015564Y006875D01*
X015865Y006875D02*
X015564Y007325D01*
X015329Y007675D02*
X015179Y007675D01*
X015104Y007750D01*
X015179Y007900D02*
X015329Y007900D01*
X015404Y007825D01*
X015404Y007750D01*
X015329Y007675D01*
X015179Y007900D02*
X015104Y007975D01*
X015104Y008050D01*
X015179Y008125D01*
X015329Y008125D01*
X015404Y008050D01*
X014944Y007975D02*
X014944Y007675D01*
X014944Y007900D02*
X014644Y007900D01*
X014644Y007975D02*
X014794Y008125D01*
X014944Y007975D01*
X014644Y007975D02*
X014644Y007675D01*
X014644Y007325D02*
X014944Y007325D01*
X014794Y007325D02*
X014794Y006875D01*
X014484Y006950D02*
X014484Y007325D01*
X014183Y007325D02*
X014183Y006950D01*
X014258Y006875D01*
X014409Y006875D01*
X014484Y006950D01*
X014023Y006950D02*
X013948Y006875D01*
X013723Y006875D01*
X013723Y007325D01*
X013948Y007325D01*
X014023Y007250D01*
X014023Y007175D01*
X013948Y007100D01*
X013723Y007100D01*
X013948Y007100D02*
X014023Y007025D01*
X014023Y006950D01*
X013102Y006950D02*
X013102Y007100D01*
X012952Y007100D01*
X012802Y006950D02*
X012877Y006875D01*
X013027Y006875D01*
X013102Y006950D01*
X012802Y006950D02*
X012802Y007250D01*
X012877Y007325D01*
X013027Y007325D01*
X013102Y007250D01*
X013179Y007675D02*
X012879Y007675D01*
X012879Y008125D01*
X013179Y008125D01*
X013339Y008125D02*
X013564Y008125D01*
X013640Y008050D01*
X013640Y007750D01*
X013564Y007675D01*
X013339Y007675D01*
X013339Y008125D01*
X013029Y007900D02*
X012879Y007900D01*
X012719Y007750D02*
X012719Y008050D01*
X012644Y008125D01*
X012418Y008125D01*
X012418Y007675D01*
X012644Y007675D01*
X012719Y007750D01*
X012262Y007675D02*
X012112Y007675D01*
X012187Y007675D02*
X012187Y008125D01*
X012112Y008125D02*
X012262Y008125D01*
X011951Y008125D02*
X011951Y007825D01*
X011801Y007675D01*
X011651Y007825D01*
X011651Y008125D01*
X011491Y008050D02*
X011416Y008125D01*
X011266Y008125D01*
X011191Y008050D01*
X011191Y007750D01*
X011266Y007675D01*
X011416Y007675D01*
X011491Y007750D01*
X011491Y008050D01*
X011031Y008050D02*
X011031Y007900D01*
X010956Y007825D01*
X010730Y007825D01*
X010730Y007675D02*
X010730Y008125D01*
X010956Y008125D01*
X011031Y008050D01*
X010880Y007825D02*
X011031Y007675D01*
X011114Y007325D02*
X011114Y006950D01*
X011189Y006875D01*
X011339Y006875D01*
X011414Y006950D01*
X011414Y007325D01*
X011574Y007325D02*
X011800Y007325D01*
X011875Y007250D01*
X011875Y006950D01*
X011800Y006875D01*
X011574Y006875D01*
X011574Y007325D01*
X012035Y007325D02*
X012185Y007325D01*
X012110Y007325D02*
X012110Y006875D01*
X012035Y006875D02*
X012185Y006875D01*
X012342Y006875D02*
X012342Y007325D01*
X012642Y006875D01*
X012642Y007325D01*
X014260Y007975D02*
X014335Y008050D01*
X014335Y008200D01*
X014485Y008200D02*
X014485Y008050D01*
X014410Y007975D01*
X016025Y008125D02*
X016175Y008125D01*
X016100Y008125D02*
X016100Y007675D01*
X016025Y007675D02*
X016175Y007675D01*
X016332Y007750D02*
X016407Y007675D01*
X016557Y007675D01*
X016632Y007750D01*
X016632Y007825D01*
X016557Y007900D01*
X016407Y007900D01*
X016332Y007975D01*
X016332Y008050D01*
X016407Y008125D01*
X016557Y008125D01*
X016632Y008050D01*
X016792Y007975D02*
X016867Y008050D01*
X016867Y008200D01*
X017017Y008200D02*
X017017Y008050D01*
X016942Y007975D01*
X019478Y007975D02*
X019553Y008050D01*
X019553Y008200D01*
X019703Y008200D02*
X019703Y008050D01*
X019628Y007975D01*
X019861Y008125D02*
X019861Y007675D01*
X020012Y007825D01*
X020162Y007675D01*
X020162Y008125D01*
X020322Y008125D02*
X020472Y008125D01*
X020397Y008125D02*
X020397Y007675D01*
X020322Y007675D02*
X020472Y007675D01*
X020779Y007675D02*
X020779Y008125D01*
X020629Y008125D02*
X020929Y008125D01*
X021089Y008125D02*
X021089Y007675D01*
X021089Y007900D02*
X021389Y007900D01*
X021389Y008125D02*
X021389Y007675D01*
X022010Y007675D02*
X022010Y007975D01*
X022160Y008125D01*
X022310Y007975D01*
X022310Y007675D01*
X022470Y007675D02*
X022771Y007675D01*
X022931Y007675D02*
X023231Y007675D01*
X022931Y007675D02*
X022931Y008125D01*
X022470Y008125D02*
X022470Y007675D01*
X022310Y007900D02*
X022010Y007900D01*
X023691Y007325D02*
X023691Y007250D01*
X023852Y007675D02*
X023852Y008125D01*
X024152Y008125D01*
X024002Y007900D02*
X023852Y007900D01*
X025540Y007325D02*
X025540Y006875D01*
X025840Y006875D01*
X026689Y006200D02*
X026689Y006125D01*
X026070Y005975D02*
X025845Y005975D01*
X025770Y005900D01*
X025770Y005750D01*
X025149Y005825D02*
X025149Y005900D01*
X025074Y005975D01*
X024924Y005975D01*
X024849Y005900D01*
X024849Y005750D01*
X024924Y005675D01*
X025074Y005675D01*
X025149Y005825D02*
X024849Y005825D01*
X024689Y005675D02*
X024464Y005675D01*
X024389Y005750D01*
X024389Y005900D01*
X024464Y005975D01*
X024689Y005975D01*
X024689Y006125D02*
X024689Y005675D01*
X023771Y005675D02*
X023696Y005750D01*
X023696Y006050D01*
X023621Y005975D02*
X023771Y005975D01*
X023461Y005975D02*
X023236Y005975D01*
X023161Y005900D01*
X023161Y005750D01*
X023236Y005675D01*
X023461Y005675D01*
X023001Y005675D02*
X023001Y005975D01*
X023001Y005675D02*
X022776Y005675D01*
X022701Y005750D01*
X022701Y005975D01*
X022540Y005975D02*
X022315Y005975D01*
X022240Y005900D01*
X022240Y005750D01*
X022315Y005675D01*
X022540Y005675D01*
X022540Y006125D01*
X022080Y005900D02*
X022080Y005750D01*
X022005Y005675D01*
X021855Y005675D01*
X021780Y005750D01*
X021780Y005900D01*
X021855Y005975D01*
X022005Y005975D01*
X022080Y005900D01*
X021621Y005975D02*
X021546Y005975D01*
X021396Y005825D01*
X021396Y005675D02*
X021396Y005975D01*
X021236Y005900D02*
X021236Y005750D01*
X021161Y005675D01*
X020936Y005675D01*
X020936Y005525D02*
X020936Y005975D01*
X021161Y005975D01*
X021236Y005900D01*
X021164Y005025D02*
X021089Y004950D01*
X021166Y004375D02*
X021391Y004375D01*
X021466Y004300D01*
X021466Y004150D01*
X021391Y004075D01*
X021166Y004075D01*
X021166Y003925D02*
X021166Y004375D01*
X021006Y004375D02*
X020781Y004375D01*
X020706Y004300D01*
X020781Y004225D01*
X020931Y004225D01*
X021006Y004150D01*
X020931Y004075D01*
X020706Y004075D01*
X020545Y004225D02*
X020245Y004225D01*
X020245Y004150D02*
X020245Y004300D01*
X020320Y004375D01*
X020470Y004375D01*
X020545Y004300D01*
X020545Y004225D01*
X020470Y004075D02*
X020320Y004075D01*
X020245Y004150D01*
X020087Y004375D02*
X020012Y004375D01*
X019861Y004225D01*
X019861Y004075D02*
X019861Y004375D01*
X019626Y004725D02*
X019551Y004725D01*
X019626Y004725D02*
X019701Y004800D01*
X019701Y005175D01*
X019401Y005175D02*
X019401Y004950D01*
X019476Y004875D01*
X019701Y004875D01*
X019241Y004875D02*
X019241Y005100D01*
X019166Y005175D01*
X018941Y005175D01*
X018941Y004875D01*
X018781Y004875D02*
X018555Y004875D01*
X018480Y004950D01*
X018555Y005025D01*
X018781Y005025D01*
X018781Y005100D02*
X018781Y004875D01*
X018781Y005100D02*
X018705Y005175D01*
X018555Y005175D01*
X017863Y005100D02*
X017713Y005100D01*
X017553Y005100D02*
X017478Y005175D01*
X017328Y005175D01*
X017253Y005100D01*
X017253Y004950D01*
X017328Y004875D01*
X017478Y004875D01*
X017553Y004950D01*
X017553Y005100D01*
X017788Y005250D02*
X017863Y005325D01*
X017788Y005250D02*
X017788Y004875D01*
X017785Y004375D02*
X017860Y004300D01*
X017860Y004225D01*
X017560Y004225D01*
X017560Y004150D02*
X017560Y004300D01*
X017635Y004375D01*
X017785Y004375D01*
X017785Y004075D02*
X017635Y004075D01*
X017560Y004150D01*
X017399Y004375D02*
X017249Y004075D01*
X017099Y004375D01*
X016939Y004300D02*
X016864Y004375D01*
X016714Y004375D01*
X016714Y004225D02*
X016939Y004225D01*
X016939Y004300D02*
X016939Y004075D01*
X016714Y004075D01*
X016639Y004150D01*
X016714Y004225D01*
X016479Y004300D02*
X016479Y004075D01*
X016479Y004300D02*
X016404Y004375D01*
X016253Y004375D01*
X016178Y004300D01*
X016178Y004525D02*
X016178Y004075D01*
X015561Y004075D02*
X015411Y004075D01*
X015486Y004075D02*
X015486Y004525D01*
X015411Y004525D01*
X015179Y004525D02*
X015179Y004075D01*
X015104Y004075D02*
X015254Y004075D01*
X014944Y004075D02*
X014719Y004075D01*
X014644Y004150D01*
X014719Y004225D01*
X014944Y004225D01*
X014944Y004300D02*
X014944Y004075D01*
X014944Y004300D02*
X014869Y004375D01*
X014719Y004375D01*
X014484Y004300D02*
X014484Y004075D01*
X014484Y004300D02*
X014408Y004375D01*
X014258Y004375D01*
X014183Y004300D01*
X014023Y004375D02*
X013798Y004375D01*
X013723Y004300D01*
X013798Y004225D01*
X013948Y004225D01*
X014023Y004150D01*
X013948Y004075D01*
X013723Y004075D01*
X014183Y004075D02*
X014183Y004525D01*
X014107Y004875D02*
X014107Y005175D01*
X014107Y005025D02*
X014257Y005175D01*
X014332Y005175D01*
X014490Y005175D02*
X014565Y005175D01*
X013946Y005100D02*
X013946Y005025D01*
X013646Y005025D01*
X013646Y004950D02*
X013646Y005100D01*
X013721Y005175D01*
X013871Y005175D01*
X013946Y005100D01*
X013871Y004875D02*
X013721Y004875D01*
X013646Y004950D01*
X013489Y004875D02*
X013414Y004950D01*
X013414Y005250D01*
X013339Y005175D02*
X013489Y005175D01*
X013179Y005175D02*
X012954Y005175D01*
X012879Y005100D01*
X012879Y004950D01*
X012954Y004875D01*
X013179Y004875D01*
X013102Y004525D02*
X013102Y004075D01*
X012877Y004075D01*
X012802Y004150D01*
X012802Y004300D01*
X012877Y004375D01*
X013102Y004375D01*
X012642Y004300D02*
X012642Y004075D01*
X012642Y004300D02*
X012567Y004375D01*
X012342Y004375D01*
X012342Y004075D01*
X012182Y004075D02*
X011956Y004075D01*
X011881Y004150D01*
X011956Y004225D01*
X012182Y004225D01*
X012182Y004300D02*
X012182Y004075D01*
X012182Y004300D02*
X012107Y004375D01*
X011956Y004375D01*
X012035Y004875D02*
X012035Y005175D01*
X012035Y005025D02*
X012185Y005175D01*
X012260Y005175D01*
X012494Y005175D02*
X012644Y005175D01*
X012719Y005100D01*
X012719Y004875D01*
X012494Y004875D01*
X012418Y004950D01*
X012494Y005025D01*
X012719Y005025D01*
X011875Y005025D02*
X011649Y005025D01*
X011574Y004950D01*
X011649Y004875D01*
X011875Y004875D01*
X011875Y005100D01*
X011800Y005175D01*
X011649Y005175D01*
X011414Y005100D02*
X011414Y004875D01*
X011414Y005100D02*
X011339Y005175D01*
X011189Y005175D01*
X011114Y005100D01*
X010954Y005175D02*
X010729Y005175D01*
X010654Y005100D01*
X010654Y004950D01*
X010729Y004875D01*
X010954Y004875D01*
X011114Y004875D02*
X011114Y005325D01*
X011186Y004375D02*
X011261Y004300D01*
X011261Y004075D01*
X010961Y004075D02*
X010961Y004375D01*
X011186Y004375D01*
X010800Y004300D02*
X010725Y004375D01*
X010575Y004375D01*
X010500Y004300D01*
X010500Y004150D01*
X010575Y004075D01*
X010725Y004075D01*
X010800Y004150D01*
X010800Y004300D01*
X010343Y004075D02*
X010193Y004075D01*
X010268Y004075D02*
X010268Y004375D01*
X010193Y004375D01*
X010036Y004375D02*
X009886Y004375D01*
X009961Y004450D02*
X009961Y004150D01*
X010036Y004075D01*
X010268Y004525D02*
X010268Y004600D01*
X008887Y004600D02*
X008887Y004525D01*
X008655Y004300D02*
X008505Y004300D01*
X008503Y004875D02*
X008428Y004950D01*
X008428Y005100D01*
X008503Y005175D01*
X008654Y005175D01*
X008729Y005100D01*
X008729Y005025D01*
X008428Y005025D01*
X008503Y004875D02*
X008654Y004875D01*
X008268Y004875D02*
X008043Y004875D01*
X007968Y004950D01*
X007968Y005100D01*
X008043Y005175D01*
X008268Y005175D01*
X007808Y005100D02*
X007808Y004875D01*
X007808Y005100D02*
X007733Y005175D01*
X007508Y005175D01*
X007508Y004875D01*
X007347Y005025D02*
X007047Y005025D01*
X007047Y004950D02*
X007047Y005100D01*
X007122Y005175D01*
X007272Y005175D01*
X007347Y005100D01*
X007347Y005025D01*
X007272Y004875D02*
X007122Y004875D01*
X007047Y004950D01*
X006887Y004950D02*
X006812Y005025D01*
X006662Y005025D01*
X006587Y005100D01*
X006662Y005175D01*
X006887Y005175D01*
X006887Y004950D02*
X006812Y004875D01*
X006587Y004875D01*
X006427Y004950D02*
X006427Y005100D01*
X006352Y005175D01*
X006126Y005175D01*
X006126Y005325D02*
X006126Y004875D01*
X006352Y004875D01*
X006427Y004950D01*
X005966Y004875D02*
X005741Y004875D01*
X005666Y004950D01*
X005741Y005025D01*
X005966Y005025D01*
X005966Y005100D02*
X005966Y004875D01*
X005966Y005100D02*
X005891Y005175D01*
X005741Y005175D01*
X005820Y005675D02*
X005820Y005975D01*
X005895Y005975D01*
X005970Y005900D01*
X006045Y005975D01*
X006120Y005900D01*
X006120Y005675D01*
X005970Y005675D02*
X005970Y005900D01*
X006280Y005750D02*
X006355Y005825D01*
X006580Y005825D01*
X006580Y005900D02*
X006580Y005675D01*
X006355Y005675D01*
X006280Y005750D01*
X006355Y005975D02*
X006505Y005975D01*
X006580Y005900D01*
X006740Y005825D02*
X006965Y005975D01*
X007124Y005900D02*
X007124Y005750D01*
X007199Y005675D01*
X007349Y005675D01*
X007424Y005825D02*
X007124Y005825D01*
X007124Y005900D02*
X007199Y005975D01*
X007349Y005975D01*
X007424Y005900D01*
X007424Y005825D01*
X006965Y005675D02*
X006740Y005825D01*
X006740Y005675D02*
X006740Y006125D01*
X008045Y005900D02*
X008045Y005750D01*
X008120Y005675D01*
X008345Y005675D01*
X008505Y005675D02*
X008505Y006125D01*
X008580Y005975D02*
X008730Y005975D01*
X008805Y005900D01*
X008805Y005675D01*
X008966Y005750D02*
X009041Y005825D01*
X009266Y005825D01*
X009266Y005900D02*
X009266Y005675D01*
X009041Y005675D01*
X008966Y005750D01*
X009041Y005975D02*
X009191Y005975D01*
X009266Y005900D01*
X009426Y005975D02*
X009651Y005975D01*
X009726Y005900D01*
X009726Y005675D01*
X009426Y005675D02*
X009426Y005975D01*
X008580Y005975D02*
X008505Y005900D01*
X008345Y005975D02*
X008120Y005975D01*
X008045Y005900D01*
X008659Y006725D02*
X008809Y006875D01*
X008734Y006875D01*
X008734Y006950D01*
X008809Y006950D01*
X008809Y006875D01*
X008498Y006950D02*
X008423Y006875D01*
X008273Y006875D01*
X008198Y006950D01*
X008273Y007100D02*
X008423Y007100D01*
X008498Y007025D01*
X008498Y006950D01*
X008273Y007100D02*
X008198Y007175D01*
X008198Y007250D01*
X008273Y007325D01*
X008423Y007325D01*
X008498Y007250D01*
X008428Y007675D02*
X008428Y007975D01*
X008579Y008125D01*
X008729Y007975D01*
X008729Y007675D01*
X008889Y007675D02*
X008889Y008125D01*
X009114Y008125D01*
X009189Y008050D01*
X009189Y007900D01*
X009114Y007825D01*
X008889Y007825D01*
X009039Y007825D02*
X009189Y007675D01*
X009349Y007675D02*
X009649Y007675D01*
X009499Y007900D02*
X009349Y007900D01*
X009349Y008125D02*
X009349Y007675D01*
X009426Y007325D02*
X009576Y007325D01*
X009501Y007325D02*
X009501Y006875D01*
X009426Y006875D02*
X009576Y006875D01*
X009733Y006875D02*
X009733Y007325D01*
X010033Y006875D01*
X010033Y007325D01*
X010193Y007250D02*
X010193Y006950D01*
X010268Y006875D01*
X010418Y006875D01*
X010493Y006950D01*
X010654Y006875D02*
X010954Y006875D01*
X010654Y006875D02*
X010654Y007325D01*
X010493Y007250D02*
X010418Y007325D01*
X010268Y007325D01*
X010193Y007250D01*
X010270Y007675D02*
X010270Y008125D01*
X010495Y008125D01*
X010570Y008050D01*
X010570Y007900D01*
X010495Y007825D01*
X010270Y007825D01*
X009649Y008125D02*
X009349Y008125D01*
X008729Y007900D02*
X008428Y007900D01*
X007808Y007975D02*
X007583Y007975D01*
X007508Y007900D01*
X007583Y007825D01*
X007733Y007825D01*
X007808Y007750D01*
X007733Y007675D01*
X007508Y007675D01*
X007347Y007675D02*
X007347Y007900D01*
X007272Y007975D01*
X007047Y007975D01*
X007047Y007675D01*
X006887Y007675D02*
X006662Y007675D01*
X006587Y007750D01*
X006587Y007900D01*
X006662Y007975D01*
X006887Y007975D01*
X006887Y007600D01*
X006812Y007525D01*
X006737Y007525D01*
X006817Y007325D02*
X006817Y006950D01*
X006892Y006875D01*
X007042Y006875D01*
X007117Y006950D01*
X007117Y007325D01*
X007277Y007250D02*
X007277Y006950D01*
X007352Y006875D01*
X007503Y006875D01*
X007578Y006950D01*
X007578Y007250D02*
X007503Y007325D01*
X007352Y007325D01*
X007277Y007250D01*
X007738Y007325D02*
X008038Y007325D01*
X007888Y007325D02*
X007888Y006875D01*
X006657Y006950D02*
X006657Y007250D01*
X006582Y007325D01*
X006357Y007325D01*
X006357Y006875D01*
X006582Y006875D01*
X006657Y006950D01*
X006197Y006950D02*
X006197Y007250D01*
X006121Y007325D01*
X005971Y007325D01*
X005896Y007250D01*
X005896Y006950D01*
X005971Y006875D01*
X006121Y006875D01*
X006197Y006950D01*
X005736Y006875D02*
X005586Y007025D01*
X005661Y007025D02*
X005436Y007025D01*
X005436Y006875D02*
X005436Y007325D01*
X005661Y007325D01*
X005736Y007250D01*
X005736Y007100D01*
X005661Y007025D01*
X005276Y007100D02*
X005276Y007250D01*
X005201Y007325D01*
X004975Y007325D01*
X004975Y006875D01*
X004975Y007025D02*
X005201Y007025D01*
X005276Y007100D01*
X004355Y007100D02*
X004205Y007100D01*
X004355Y007100D02*
X004355Y006950D01*
X004280Y006875D01*
X004130Y006875D01*
X004055Y006950D01*
X004055Y007250D01*
X004130Y007325D01*
X004280Y007325D01*
X004355Y007250D01*
X004203Y007675D02*
X004053Y007675D01*
X003978Y007750D01*
X003978Y007900D01*
X004053Y007975D01*
X004203Y007975D01*
X004278Y007900D01*
X004278Y007825D01*
X003978Y007825D01*
X003818Y007675D02*
X003593Y007675D01*
X003518Y007750D01*
X003518Y007900D01*
X003593Y007975D01*
X003818Y007975D01*
X003357Y007900D02*
X003357Y007675D01*
X003357Y007900D02*
X003282Y007975D01*
X003057Y007975D01*
X003057Y007675D01*
X002897Y007825D02*
X002597Y007825D01*
X002597Y007750D02*
X002597Y007900D01*
X002672Y007975D01*
X002822Y007975D01*
X002897Y007900D01*
X002897Y007825D01*
X002822Y007675D02*
X002672Y007675D01*
X002597Y007750D01*
X002438Y007975D02*
X002363Y007975D01*
X002213Y007825D01*
X002213Y007675D02*
X002213Y007975D01*
X002053Y007900D02*
X002053Y007825D01*
X001753Y007825D01*
X001753Y007750D02*
X001753Y007900D01*
X001828Y007975D01*
X001978Y007975D01*
X002053Y007900D01*
X001978Y007675D02*
X001828Y007675D01*
X001753Y007750D01*
X001596Y007900D02*
X001446Y007900D01*
X001286Y007900D02*
X001286Y007825D01*
X000985Y007825D01*
X000985Y007750D02*
X000985Y007900D01*
X001060Y007975D01*
X001211Y007975D01*
X001286Y007900D01*
X001211Y007675D02*
X001060Y007675D01*
X000985Y007750D01*
X000825Y007675D02*
X000675Y007825D01*
X000750Y007825D02*
X000525Y007825D01*
X000525Y007675D02*
X000525Y008125D01*
X000750Y008125D01*
X000825Y008050D01*
X000825Y007900D01*
X000750Y007825D01*
X001521Y007675D02*
X001521Y008050D01*
X001596Y008125D01*
X001671Y007325D02*
X001521Y007325D01*
X001446Y007250D01*
X001446Y006950D01*
X001521Y006875D01*
X001671Y006875D01*
X001746Y006950D01*
X001746Y007100D01*
X001596Y007100D01*
X001746Y007250D02*
X001671Y007325D01*
X001906Y007175D02*
X002056Y007325D01*
X002206Y007175D01*
X002206Y006875D01*
X002367Y006875D02*
X002367Y007325D01*
X002592Y007325D01*
X002667Y007250D01*
X002667Y007100D01*
X002592Y007025D01*
X002367Y007025D01*
X002517Y007025D02*
X002667Y006875D01*
X002827Y006875D02*
X002827Y007325D01*
X003052Y007325D01*
X003127Y007250D01*
X003127Y006950D01*
X003052Y006875D01*
X002827Y006875D01*
X003287Y006875D02*
X003437Y006875D01*
X003362Y006875D02*
X003362Y007325D01*
X003287Y007325D02*
X003437Y007325D01*
X003594Y007325D02*
X003895Y006875D01*
X003895Y007325D01*
X003594Y007325D02*
X003594Y006875D01*
X002365Y006200D02*
X002365Y006125D01*
X002365Y005975D02*
X002365Y005675D01*
X002290Y005675D02*
X002440Y005675D01*
X002597Y005675D02*
X002597Y005975D01*
X002822Y005975D01*
X002897Y005900D01*
X002897Y005675D01*
X003057Y005750D02*
X003132Y005675D01*
X003282Y005675D01*
X003357Y005750D01*
X003357Y005900D01*
X003282Y005975D01*
X003132Y005975D01*
X003057Y005900D01*
X003057Y005750D01*
X002365Y005975D02*
X002290Y005975D01*
X002130Y005975D02*
X002130Y005675D01*
X001905Y005675D01*
X001829Y005750D01*
X001829Y005975D01*
X001669Y005975D02*
X001444Y005975D01*
X001369Y005900D01*
X001369Y005750D01*
X001444Y005675D01*
X001669Y005675D01*
X001669Y006125D01*
X001211Y005975D02*
X001136Y005975D01*
X000985Y005825D01*
X000985Y005675D02*
X000985Y005975D01*
X000825Y005975D02*
X000825Y005675D01*
X000825Y005900D02*
X000525Y005900D01*
X000525Y005975D02*
X000675Y006125D01*
X000825Y005975D01*
X000525Y005975D02*
X000525Y005675D01*
X000525Y005175D02*
X000525Y004875D01*
X000525Y005025D02*
X000675Y005175D01*
X000750Y005175D01*
X000909Y005100D02*
X000984Y005175D01*
X001134Y005175D01*
X001209Y005100D01*
X001209Y005025D01*
X000909Y005025D01*
X000909Y004950D02*
X000909Y005100D01*
X000909Y004950D02*
X000984Y004875D01*
X001134Y004875D01*
X001369Y004875D02*
X001519Y004875D01*
X001444Y004875D02*
X001444Y005325D01*
X001369Y005325D01*
X001676Y005175D02*
X001676Y004950D01*
X001751Y004875D01*
X001976Y004875D01*
X001976Y004800D02*
X001901Y004725D01*
X001826Y004725D01*
X001976Y004800D02*
X001976Y005175D01*
X002597Y005100D02*
X002597Y004950D01*
X002672Y004875D01*
X002822Y004875D01*
X002897Y004950D01*
X002897Y005100D01*
X002822Y005175D01*
X002672Y005175D01*
X002597Y005100D01*
X003057Y005175D02*
X003057Y004875D01*
X003057Y005175D02*
X003282Y005175D01*
X003357Y005100D01*
X003357Y004875D01*
X005820Y004375D02*
X005820Y004150D01*
X005895Y003400D02*
X005895Y003325D01*
X005895Y003175D02*
X005895Y002875D01*
X005820Y002875D02*
X005970Y002875D01*
X006126Y002875D02*
X006126Y003175D01*
X006352Y003175D01*
X006427Y003100D01*
X006427Y002875D01*
X006662Y002875D02*
X006662Y003250D01*
X006737Y003325D01*
X006737Y003100D02*
X006587Y003100D01*
X006894Y003100D02*
X006894Y002950D01*
X006969Y002875D01*
X007119Y002875D01*
X007194Y002950D01*
X007194Y003100D01*
X007119Y003175D01*
X006969Y003175D01*
X006894Y003100D01*
X007354Y003025D02*
X007504Y003175D01*
X007579Y003175D01*
X007738Y003175D02*
X007738Y002875D01*
X007888Y002875D02*
X007888Y003100D01*
X007963Y003175D01*
X008038Y003100D01*
X008038Y002875D01*
X008198Y002950D02*
X008273Y003025D01*
X008498Y003025D01*
X008498Y003100D02*
X008498Y002875D01*
X008273Y002875D01*
X008198Y002950D01*
X008273Y003175D02*
X008423Y003175D01*
X008498Y003100D01*
X008659Y003175D02*
X008809Y003175D01*
X008734Y003250D02*
X008734Y002950D01*
X008809Y002875D01*
X008966Y002875D02*
X009116Y002875D01*
X009041Y002875D02*
X009041Y003175D01*
X008966Y003175D01*
X009041Y003325D02*
X009041Y003400D01*
X009272Y003100D02*
X009272Y002950D01*
X009348Y002875D01*
X009498Y002875D01*
X009573Y002950D01*
X009573Y003100D01*
X009498Y003175D01*
X009348Y003175D01*
X009272Y003100D01*
X009733Y003175D02*
X009958Y003175D01*
X010033Y003100D01*
X010033Y002875D01*
X009733Y002875D02*
X009733Y003175D01*
X010654Y003100D02*
X010654Y002950D01*
X010729Y002875D01*
X010879Y002875D01*
X010954Y002950D01*
X010954Y003100D01*
X010879Y003175D01*
X010729Y003175D01*
X010654Y003100D01*
X011114Y003175D02*
X011114Y002875D01*
X011114Y003175D02*
X011339Y003175D01*
X011414Y003100D01*
X011414Y002875D01*
X012035Y003175D02*
X012185Y003175D01*
X012110Y003250D02*
X012110Y002950D01*
X012185Y002875D01*
X012342Y002875D02*
X012342Y003325D01*
X012417Y003175D02*
X012567Y003175D01*
X012642Y003100D01*
X012642Y002875D01*
X012802Y002950D02*
X012802Y003100D01*
X012877Y003175D01*
X013027Y003175D01*
X013102Y003100D01*
X013102Y003025D01*
X012802Y003025D01*
X012802Y002950D02*
X012877Y002875D01*
X013027Y002875D01*
X013723Y002875D02*
X013723Y003325D01*
X014023Y003325D02*
X014023Y002875D01*
X013873Y003025D01*
X013723Y002875D01*
X014183Y002950D02*
X014183Y003100D01*
X014258Y003175D01*
X014408Y003175D01*
X014484Y003100D01*
X014484Y003025D01*
X014183Y003025D01*
X014183Y002950D02*
X014258Y002875D01*
X014408Y002875D01*
X014644Y002875D02*
X014869Y002875D01*
X014944Y002950D01*
X014944Y003100D01*
X014869Y003175D01*
X014644Y003175D01*
X014644Y003325D02*
X014644Y002875D01*
X014199Y002184D02*
X014199Y001777D01*
X014301Y001675D01*
X014503Y001675D02*
X014503Y002082D01*
X014301Y002082D02*
X014097Y002082D01*
X014503Y001879D02*
X014706Y002082D01*
X014808Y002082D01*
X015111Y002082D02*
X015314Y002082D01*
X015416Y001980D01*
X015416Y001675D01*
X015111Y001675D01*
X015009Y001777D01*
X015111Y001879D01*
X015416Y001879D01*
X015617Y001980D02*
X015718Y002082D01*
X016024Y002082D01*
X016024Y002286D02*
X016024Y001675D01*
X015718Y001675D01*
X015617Y001777D01*
X015617Y001980D01*
X016224Y001980D02*
X016224Y001777D01*
X016326Y001675D01*
X016530Y001675D01*
X016631Y001879D02*
X016224Y001879D01*
X016224Y001980D02*
X016326Y002082D01*
X016530Y002082D01*
X016631Y001980D01*
X016631Y001879D01*
X016832Y002082D02*
X016832Y001675D01*
X017036Y001675D02*
X017036Y001980D01*
X017137Y002082D01*
X017239Y001980D01*
X017239Y001675D01*
X017440Y001777D02*
X017542Y001879D01*
X017847Y001879D01*
X017847Y001980D02*
X017847Y001675D01*
X017542Y001675D01*
X017440Y001777D01*
X017542Y002082D02*
X017745Y002082D01*
X017847Y001980D01*
X018048Y001879D02*
X018251Y002082D01*
X018353Y002082D01*
X018554Y001879D02*
X018859Y001675D01*
X019060Y001675D02*
X019162Y001675D01*
X019162Y001777D01*
X019060Y001777D01*
X019060Y001675D01*
X018859Y002082D02*
X018554Y001879D01*
X018554Y001675D02*
X018554Y002286D01*
X018048Y002082D02*
X018048Y001675D01*
X017036Y001980D02*
X016934Y002082D01*
X016832Y002082D01*
X016864Y002875D02*
X016714Y002875D01*
X016639Y002950D01*
X016639Y003100D01*
X016714Y003175D01*
X016864Y003175D01*
X016939Y003100D01*
X016939Y003025D01*
X016639Y003025D01*
X016482Y002875D02*
X016407Y002950D01*
X016407Y003250D01*
X016332Y003175D02*
X016482Y003175D01*
X016100Y003175D02*
X016100Y002875D01*
X016025Y002875D02*
X016175Y002875D01*
X016100Y003175D02*
X016025Y003175D01*
X016100Y003325D02*
X016100Y003400D01*
X015865Y003250D02*
X015790Y003325D01*
X015640Y003325D01*
X015564Y003250D01*
X015564Y003175D01*
X015640Y003100D01*
X015790Y003100D01*
X015865Y003025D01*
X015865Y002950D01*
X015790Y002875D01*
X015640Y002875D01*
X015564Y002950D01*
X017560Y002950D02*
X017635Y002875D01*
X017785Y002875D01*
X017860Y002950D01*
X017860Y003100D01*
X017785Y003175D01*
X017635Y003175D01*
X017560Y003100D01*
X017560Y002950D01*
X018020Y002875D02*
X018020Y003175D01*
X018020Y003025D02*
X018170Y003175D01*
X018245Y003175D01*
X018864Y003325D02*
X018864Y002875D01*
X019164Y002875D02*
X019164Y003325D01*
X019014Y003175D01*
X018864Y003325D01*
X019399Y003175D02*
X019550Y003175D01*
X019625Y003100D01*
X019625Y002875D01*
X019399Y002875D01*
X019324Y002950D01*
X019399Y003025D01*
X019625Y003025D01*
X019785Y003175D02*
X019935Y003175D01*
X019860Y003250D02*
X019860Y002950D01*
X019935Y002875D01*
X020092Y002950D02*
X020092Y003100D01*
X020167Y003175D01*
X020317Y003175D01*
X020392Y003100D01*
X020392Y003025D01*
X020092Y003025D01*
X020092Y002950D02*
X020167Y002875D01*
X020317Y002875D01*
X020552Y002875D02*
X020552Y003175D01*
X020552Y003025D02*
X020702Y003175D01*
X020777Y003175D01*
X020936Y003175D02*
X021011Y003175D01*
X021011Y002875D01*
X020936Y002875D02*
X021086Y002875D01*
X021243Y002950D02*
X021318Y003025D01*
X021543Y003025D01*
X021543Y003100D02*
X021543Y002875D01*
X021318Y002875D01*
X021243Y002950D01*
X021318Y003175D02*
X021468Y003175D01*
X021543Y003100D01*
X021703Y002875D02*
X021853Y002875D01*
X021778Y002875D02*
X021778Y003325D01*
X021703Y003325D01*
X022010Y003100D02*
X022085Y003025D01*
X022235Y003025D01*
X022310Y002950D01*
X022235Y002875D01*
X022010Y002875D01*
X022010Y003100D02*
X022085Y003175D01*
X022310Y003175D01*
X022931Y003175D02*
X023006Y003175D01*
X023006Y002875D01*
X022931Y002875D02*
X023081Y002875D01*
X023238Y002875D02*
X023463Y002875D01*
X023538Y002950D01*
X023463Y003025D01*
X023313Y003025D01*
X023238Y003100D01*
X023313Y003175D01*
X023538Y003175D01*
X023006Y003325D02*
X023006Y003400D01*
X024158Y003100D02*
X024234Y003025D01*
X024384Y003025D01*
X024459Y002950D01*
X024384Y002875D01*
X024158Y002875D01*
X024158Y003100D02*
X024234Y003175D01*
X024459Y003175D01*
X024619Y003175D02*
X024619Y002950D01*
X024694Y002875D01*
X024919Y002875D01*
X024919Y003175D01*
X025079Y003175D02*
X025304Y003175D01*
X025380Y003100D01*
X025380Y002950D01*
X025304Y002875D01*
X025079Y002875D01*
X025079Y003325D01*
X025690Y003325D02*
X025690Y003400D01*
X025690Y003175D02*
X025690Y002800D01*
X025615Y002725D01*
X025540Y002725D01*
X025847Y002950D02*
X025847Y003100D01*
X025922Y003175D01*
X026072Y003175D01*
X026147Y003100D01*
X026147Y003025D01*
X025847Y003025D01*
X025847Y002950D02*
X025922Y002875D01*
X026072Y002875D01*
X026307Y002950D02*
X026382Y002875D01*
X026607Y002875D01*
X026842Y002950D02*
X026917Y002875D01*
X026842Y002950D02*
X026842Y003250D01*
X026767Y003175D02*
X026917Y003175D01*
X026607Y003175D02*
X026382Y003175D01*
X026307Y003100D01*
X026307Y002950D01*
X027535Y003175D02*
X027685Y003175D01*
X027610Y003250D02*
X027610Y002950D01*
X027685Y002875D01*
X027842Y002950D02*
X027917Y002875D01*
X028067Y002875D01*
X028142Y002950D01*
X028142Y003100D01*
X028067Y003175D01*
X027917Y003175D01*
X027842Y003100D01*
X027842Y002950D01*
X028762Y002950D02*
X028762Y003100D01*
X028837Y003175D01*
X029063Y003175D01*
X029223Y003100D02*
X029298Y003175D01*
X029448Y003175D01*
X029523Y003100D01*
X029523Y002875D01*
X029683Y002950D02*
X029758Y003025D01*
X029983Y003025D01*
X029983Y003100D02*
X029983Y002875D01*
X029758Y002875D01*
X029683Y002950D01*
X029758Y003175D02*
X029908Y003175D01*
X029983Y003100D01*
X030144Y003175D02*
X030369Y003175D01*
X030444Y003100D01*
X030444Y002875D01*
X030604Y002950D02*
X030679Y002875D01*
X030904Y002875D01*
X030904Y002800D02*
X030904Y003175D01*
X030679Y003175D01*
X030604Y003100D01*
X030604Y002950D01*
X030754Y002725D02*
X030829Y002725D01*
X030904Y002800D01*
X031064Y002950D02*
X031064Y003100D01*
X031139Y003175D01*
X031290Y003175D01*
X031365Y003100D01*
X031365Y003025D01*
X031064Y003025D01*
X031064Y002950D02*
X031139Y002875D01*
X031290Y002875D01*
X031985Y002950D02*
X031985Y003175D01*
X031985Y002950D02*
X032060Y002875D01*
X032135Y002950D01*
X032210Y002875D01*
X032285Y002950D01*
X032285Y003175D01*
X032446Y003175D02*
X032521Y003175D01*
X032521Y002875D01*
X032446Y002875D02*
X032596Y002875D01*
X032828Y002950D02*
X032903Y002875D01*
X032828Y002950D02*
X032828Y003250D01*
X032752Y003175D02*
X032903Y003175D01*
X033059Y003100D02*
X033134Y003175D01*
X033285Y003175D01*
X033360Y003100D01*
X033360Y002875D01*
X033520Y002950D02*
X033595Y002875D01*
X033745Y002875D01*
X033820Y002950D01*
X033820Y003100D01*
X033745Y003175D01*
X033595Y003175D01*
X033520Y003100D01*
X033520Y002950D01*
X033980Y002950D02*
X033980Y003175D01*
X033980Y002950D02*
X034055Y002875D01*
X034280Y002875D01*
X034280Y003175D01*
X034441Y003175D02*
X034591Y003175D01*
X034516Y003250D02*
X034516Y002950D01*
X034591Y002875D01*
X035208Y002875D02*
X035208Y003175D01*
X035433Y003175D01*
X035508Y003100D01*
X035508Y002875D01*
X035668Y002950D02*
X035743Y002875D01*
X035893Y002875D01*
X035969Y002950D01*
X035969Y003100D01*
X035893Y003175D01*
X035743Y003175D01*
X035668Y003100D01*
X035668Y002950D01*
X036129Y003175D02*
X036279Y003175D01*
X036204Y003250D02*
X036204Y002950D01*
X036279Y002875D01*
X036436Y002875D02*
X036586Y002875D01*
X036511Y002875D02*
X036511Y003175D01*
X036436Y003175D01*
X036511Y003325D02*
X036511Y003400D01*
X036743Y003100D02*
X036743Y002950D01*
X036818Y002875D01*
X037043Y002875D01*
X037203Y002950D02*
X037203Y003100D01*
X037278Y003175D01*
X037428Y003175D01*
X037503Y003100D01*
X037503Y003025D01*
X037203Y003025D01*
X037203Y002950D02*
X037278Y002875D01*
X037428Y002875D01*
X037663Y002875D02*
X037738Y002875D01*
X037738Y002950D01*
X037663Y002950D01*
X037663Y002875D01*
X037043Y003175D02*
X036818Y003175D01*
X036743Y003100D01*
X036819Y004075D02*
X036819Y004375D01*
X036819Y004225D02*
X036969Y004375D01*
X037044Y004375D01*
X036659Y004300D02*
X036584Y004375D01*
X036434Y004375D01*
X036359Y004300D01*
X036359Y004150D01*
X036434Y004075D01*
X036584Y004075D01*
X036659Y004150D01*
X036659Y004300D01*
X036818Y004875D02*
X036743Y004950D01*
X036743Y005100D01*
X036818Y005175D01*
X036968Y005175D01*
X037043Y005100D01*
X037043Y005025D01*
X036743Y005025D01*
X036818Y004875D02*
X036968Y004875D01*
X037203Y004950D02*
X037278Y004875D01*
X037503Y004875D01*
X037503Y005325D01*
X037503Y005175D02*
X037278Y005175D01*
X037203Y005100D01*
X037203Y004950D01*
X037663Y005175D02*
X037738Y005250D01*
X037738Y005400D01*
X037889Y005400D02*
X037889Y005250D01*
X037813Y005175D01*
X038507Y005100D02*
X038507Y004950D01*
X038582Y004875D01*
X038733Y004875D01*
X038808Y004950D01*
X038808Y005100D01*
X038733Y005175D01*
X038582Y005175D01*
X038507Y005100D01*
X038968Y005025D02*
X039118Y005175D01*
X039193Y005175D01*
X038968Y005175D02*
X038968Y004875D01*
X038966Y004375D02*
X038891Y004300D01*
X038891Y004150D01*
X038966Y004075D01*
X039116Y004075D01*
X039191Y004150D01*
X039191Y004300D01*
X039116Y004375D01*
X038966Y004375D01*
X038731Y004375D02*
X038506Y004375D01*
X038431Y004300D01*
X038431Y004150D01*
X038506Y004075D01*
X038731Y004075D01*
X038270Y004075D02*
X038270Y004300D01*
X038195Y004375D01*
X037970Y004375D01*
X037970Y004075D01*
X037813Y004075D02*
X037663Y004075D01*
X037738Y004075D02*
X037738Y004375D01*
X037663Y004375D01*
X037738Y004525D02*
X037738Y004600D01*
X036582Y005175D02*
X036432Y004875D01*
X036282Y005175D01*
X036124Y005175D02*
X036049Y005175D01*
X035898Y005025D01*
X035898Y004875D02*
X035898Y005175D01*
X035738Y005100D02*
X035738Y005025D01*
X035438Y005025D01*
X035438Y004950D02*
X035438Y005100D01*
X035513Y005175D01*
X035663Y005175D01*
X035738Y005100D01*
X035663Y004875D02*
X035513Y004875D01*
X035438Y004950D01*
X035278Y004950D02*
X035203Y004875D01*
X034978Y004875D01*
X035053Y005025D02*
X034978Y005100D01*
X035053Y005175D01*
X035278Y005175D01*
X035203Y005025D02*
X035053Y005025D01*
X035203Y005025D02*
X035278Y004950D01*
X034818Y005025D02*
X034517Y005025D01*
X034517Y004950D02*
X034517Y005100D01*
X034592Y005175D01*
X034742Y005175D01*
X034818Y005100D01*
X034818Y005025D01*
X034742Y004875D02*
X034592Y004875D01*
X034517Y004950D01*
X034359Y005175D02*
X034284Y005175D01*
X034134Y005025D01*
X034134Y004875D02*
X034134Y005175D01*
X033975Y005250D02*
X033900Y005175D01*
X033825Y005250D02*
X033750Y005175D01*
X033825Y005250D02*
X033825Y005400D01*
X033975Y005400D02*
X033975Y005250D01*
X034441Y005525D02*
X034591Y005675D01*
X034516Y005675D01*
X034516Y005750D01*
X034591Y005750D01*
X034591Y005675D01*
X034280Y005825D02*
X033980Y005825D01*
X033980Y005750D02*
X033980Y005900D01*
X034055Y005975D01*
X034205Y005975D01*
X034280Y005900D01*
X034280Y005825D01*
X034205Y005675D02*
X034055Y005675D01*
X033980Y005750D01*
X033820Y005675D02*
X033820Y005900D01*
X033745Y005975D01*
X033670Y005900D01*
X033670Y005675D01*
X033520Y005675D02*
X033520Y005975D01*
X033595Y005975D01*
X033670Y005900D01*
X033363Y005675D02*
X033213Y005675D01*
X033288Y005675D02*
X033288Y005975D01*
X033213Y005975D01*
X033056Y005975D02*
X032906Y005975D01*
X032981Y006050D02*
X032981Y005750D01*
X033056Y005675D01*
X033129Y005325D02*
X033129Y004875D01*
X032904Y004875D01*
X032829Y004950D01*
X032829Y005100D01*
X032904Y005175D01*
X033129Y005175D01*
X032669Y005100D02*
X032669Y005025D01*
X032369Y005025D01*
X032369Y004950D02*
X032369Y005100D01*
X032444Y005175D01*
X032594Y005175D01*
X032669Y005100D01*
X032594Y004875D02*
X032444Y004875D01*
X032369Y004950D01*
X032210Y004875D02*
X031985Y005025D01*
X032210Y005175D01*
X031985Y005325D02*
X031985Y004875D01*
X031827Y005175D02*
X031752Y005175D01*
X031601Y005025D01*
X031601Y004875D02*
X031601Y005175D01*
X031441Y005100D02*
X031441Y004875D01*
X031216Y004875D01*
X031141Y004950D01*
X031216Y005025D01*
X031441Y005025D01*
X031441Y005100D02*
X031366Y005175D01*
X031216Y005175D01*
X030981Y005100D02*
X030981Y004875D01*
X030831Y004875D02*
X030831Y005100D01*
X030906Y005175D01*
X030981Y005100D01*
X030831Y005100D02*
X030756Y005175D01*
X030681Y005175D01*
X030681Y004875D01*
X030908Y004525D02*
X030832Y004450D01*
X030832Y004075D01*
X030757Y004300D02*
X030908Y004300D01*
X031064Y004300D02*
X031139Y004375D01*
X031290Y004375D01*
X031365Y004300D01*
X031365Y004150D01*
X031290Y004075D01*
X031139Y004075D01*
X031064Y004150D01*
X031064Y004300D01*
X031525Y004225D02*
X031675Y004375D01*
X031750Y004375D01*
X031525Y004375D02*
X031525Y004075D01*
X032369Y004150D02*
X032444Y004075D01*
X032669Y004075D01*
X032829Y004150D02*
X032904Y004075D01*
X033054Y004075D01*
X033129Y004150D01*
X033129Y004300D01*
X033054Y004375D01*
X032904Y004375D01*
X032829Y004300D01*
X032829Y004150D01*
X032669Y004375D02*
X032444Y004375D01*
X032369Y004300D01*
X032369Y004150D01*
X033290Y004075D02*
X033290Y004375D01*
X033515Y004375D01*
X033590Y004300D01*
X033590Y004075D01*
X033825Y004075D02*
X033825Y004450D01*
X033900Y004525D01*
X034057Y004525D02*
X034132Y004525D01*
X034132Y004075D01*
X034057Y004075D02*
X034207Y004075D01*
X034364Y004075D02*
X034514Y004075D01*
X034439Y004075D02*
X034439Y004375D01*
X034364Y004375D01*
X034439Y004525D02*
X034439Y004600D01*
X034671Y004300D02*
X034671Y004150D01*
X034746Y004075D01*
X034971Y004075D01*
X035206Y004150D02*
X035281Y004075D01*
X035206Y004150D02*
X035206Y004450D01*
X035131Y004375D02*
X035281Y004375D01*
X035438Y004300D02*
X035513Y004375D01*
X035738Y004375D01*
X035663Y004225D02*
X035513Y004225D01*
X035438Y004300D01*
X035438Y004075D02*
X035663Y004075D01*
X035738Y004150D01*
X035663Y004225D01*
X034971Y004375D02*
X034746Y004375D01*
X034671Y004300D01*
X033900Y004300D02*
X033750Y004300D01*
X033059Y003325D02*
X033059Y002875D01*
X032521Y003325D02*
X032521Y003400D01*
X030144Y003175D02*
X030144Y002875D01*
X029223Y002875D02*
X029223Y003325D01*
X029063Y002875D02*
X028837Y002875D01*
X028762Y002950D01*
X028757Y004075D02*
X028607Y004075D01*
X028532Y004150D01*
X028532Y004300D01*
X028607Y004375D01*
X028757Y004375D01*
X028832Y004300D01*
X028832Y004225D01*
X028532Y004225D01*
X028372Y004150D02*
X028372Y004300D01*
X028297Y004375D01*
X028147Y004375D01*
X028072Y004300D01*
X028072Y004150D01*
X028147Y004075D01*
X028297Y004075D01*
X028372Y004150D01*
X027912Y004150D02*
X027837Y004225D01*
X027686Y004225D01*
X027611Y004300D01*
X027686Y004375D01*
X027912Y004375D01*
X027912Y004150D02*
X027837Y004075D01*
X027611Y004075D01*
X027455Y004075D02*
X027380Y004150D01*
X027380Y004450D01*
X027304Y004375D02*
X027455Y004375D01*
X027144Y004300D02*
X027144Y004075D01*
X026919Y004075D01*
X026844Y004150D01*
X026919Y004225D01*
X027144Y004225D01*
X027144Y004300D02*
X027069Y004375D01*
X026919Y004375D01*
X026684Y004300D02*
X026609Y004375D01*
X026459Y004375D01*
X026384Y004300D01*
X026224Y004375D02*
X026224Y004150D01*
X026149Y004075D01*
X026073Y004150D01*
X025998Y004075D01*
X025923Y004150D01*
X025923Y004375D01*
X026384Y004525D02*
X026384Y004075D01*
X026684Y004075D02*
X026684Y004300D01*
X026764Y004875D02*
X026689Y004950D01*
X026689Y005250D01*
X026614Y005175D02*
X026764Y005175D01*
X026454Y005175D02*
X026229Y005175D01*
X026154Y005100D01*
X026229Y005025D01*
X026379Y005025D01*
X026454Y004950D01*
X026379Y004875D01*
X026154Y004875D01*
X025993Y004875D02*
X025993Y005100D01*
X025918Y005175D01*
X025693Y005175D01*
X025693Y004875D01*
X024464Y004375D02*
X024389Y004375D01*
X024157Y004525D02*
X024157Y004075D01*
X024082Y004075D02*
X024232Y004075D01*
X023925Y004075D02*
X023775Y004075D01*
X023850Y004075D02*
X023850Y004375D01*
X023775Y004375D01*
X023850Y004525D02*
X023850Y004600D01*
X024082Y004525D02*
X024157Y004525D01*
X023615Y004300D02*
X023540Y004375D01*
X023314Y004375D01*
X023314Y004525D02*
X023314Y004075D01*
X023540Y004075D01*
X023615Y004150D01*
X023615Y004300D01*
X023158Y004075D02*
X023007Y004075D01*
X023083Y004075D02*
X023083Y004375D01*
X023007Y004375D01*
X022847Y004375D02*
X022622Y004375D01*
X022547Y004300D01*
X022622Y004225D01*
X022772Y004225D01*
X022847Y004150D01*
X022772Y004075D01*
X022547Y004075D01*
X022387Y004075D02*
X022387Y004300D01*
X022312Y004375D01*
X022087Y004375D01*
X022087Y004075D01*
X021927Y004150D02*
X021927Y004300D01*
X021852Y004375D01*
X021701Y004375D01*
X021626Y004300D01*
X021626Y004150D01*
X021701Y004075D01*
X021852Y004075D01*
X021927Y004150D01*
X023083Y004525D02*
X023083Y004600D01*
X021857Y004950D02*
X021857Y005175D01*
X019241Y004300D02*
X019166Y004375D01*
X019016Y004375D01*
X018941Y004300D01*
X018941Y004150D01*
X019016Y004075D01*
X019166Y004075D01*
X019241Y004150D01*
X019241Y004300D01*
X018781Y004300D02*
X018705Y004375D01*
X018480Y004375D01*
X018480Y004075D01*
X018781Y004075D02*
X018781Y004300D01*
X016632Y004950D02*
X016557Y004875D01*
X016332Y004875D01*
X016172Y004875D02*
X015946Y004875D01*
X015871Y004950D01*
X015871Y005100D01*
X015946Y005175D01*
X016172Y005175D01*
X016332Y005100D02*
X016407Y005175D01*
X016632Y005175D01*
X016557Y005025D02*
X016407Y005025D01*
X016332Y005100D01*
X016557Y005025D02*
X016632Y004950D01*
X016018Y005975D02*
X015793Y005975D01*
X015718Y005900D01*
X015179Y004525D02*
X015104Y004525D01*
X012417Y003175D02*
X012342Y003100D01*
X013289Y002286D02*
X013289Y001675D01*
X012984Y001675D01*
X012882Y001777D01*
X012882Y001980D01*
X012984Y002082D01*
X013289Y002082D01*
X012681Y001980D02*
X012681Y001879D01*
X012274Y001879D01*
X012274Y001980D02*
X012376Y002082D01*
X012579Y002082D01*
X012681Y001980D01*
X012579Y001675D02*
X012376Y001675D01*
X012274Y001777D01*
X012274Y001980D01*
X012073Y002082D02*
X011971Y002082D01*
X011768Y001879D01*
X011567Y001879D02*
X011160Y001879D01*
X011160Y001980D02*
X011262Y002082D01*
X011465Y002082D01*
X011567Y001980D01*
X011567Y001879D01*
X011465Y001675D02*
X011262Y001675D01*
X011160Y001777D01*
X011160Y001980D01*
X010958Y002082D02*
X010755Y002082D01*
X010857Y002184D02*
X010857Y001777D01*
X010958Y001675D01*
X010554Y001777D02*
X010452Y001879D01*
X010249Y001879D01*
X010147Y001980D01*
X010249Y002082D01*
X010554Y002082D01*
X010554Y001777D02*
X010452Y001675D01*
X010147Y001675D01*
X009946Y001675D02*
X009742Y001675D01*
X009844Y001675D02*
X009844Y002082D01*
X009742Y002082D01*
X009541Y002082D02*
X009236Y002082D01*
X009134Y001980D01*
X009134Y001777D01*
X009236Y001675D01*
X009541Y001675D01*
X009541Y001573D02*
X009541Y002082D01*
X009844Y002286D02*
X009844Y002387D01*
X009541Y001573D02*
X009440Y001471D01*
X009338Y001471D01*
X008832Y001675D02*
X008628Y001675D01*
X008527Y001777D01*
X008527Y001980D01*
X008628Y002082D01*
X008832Y002082D01*
X008934Y001980D01*
X008934Y001879D01*
X008527Y001879D01*
X008325Y002082D02*
X008224Y002082D01*
X008020Y001879D01*
X008020Y002082D02*
X008020Y001675D01*
X007212Y001675D02*
X007212Y001980D01*
X007110Y002082D01*
X006907Y002082D01*
X006907Y001879D02*
X007212Y001879D01*
X007212Y001675D02*
X006907Y001675D01*
X006805Y001777D01*
X006907Y001879D01*
X005996Y001777D02*
X005895Y001879D01*
X005691Y001879D01*
X005589Y001980D01*
X005691Y002082D01*
X005996Y002082D01*
X005996Y001777D02*
X005895Y001675D01*
X005589Y001675D01*
X005388Y001675D02*
X005184Y001675D01*
X005286Y001675D02*
X005286Y002082D01*
X005184Y002082D01*
X005286Y002286D02*
X005286Y002387D01*
X005820Y003175D02*
X005895Y003175D01*
X007354Y003175D02*
X007354Y002875D01*
X007738Y003175D02*
X007813Y003175D01*
X007888Y003100D01*
X011768Y002082D02*
X011768Y001675D01*
X021011Y003325D02*
X021011Y003400D01*
X027765Y005100D02*
X027840Y005175D01*
X028065Y005175D01*
X028916Y005675D02*
X029141Y005675D01*
X029216Y005750D01*
X029141Y005825D01*
X028991Y005825D01*
X028916Y005900D01*
X028991Y005975D01*
X029216Y005975D01*
X029837Y005750D02*
X029912Y005825D01*
X030137Y005825D01*
X030137Y005900D02*
X030137Y005675D01*
X029912Y005675D01*
X029837Y005750D01*
X029912Y005975D02*
X030062Y005975D01*
X030137Y005900D01*
X030297Y005975D02*
X030447Y005975D01*
X030372Y006050D02*
X030372Y005750D01*
X030447Y005675D01*
X031064Y005750D02*
X031139Y005825D01*
X031365Y005825D01*
X031365Y005900D02*
X031365Y005675D01*
X031139Y005675D01*
X031064Y005750D01*
X031139Y005975D02*
X031290Y005975D01*
X031365Y005900D01*
X031525Y005975D02*
X031525Y005675D01*
X031825Y005675D02*
X031825Y005900D01*
X031750Y005975D01*
X031525Y005975D01*
X031985Y005975D02*
X031985Y005750D01*
X032060Y005675D01*
X032285Y005675D01*
X032285Y005600D02*
X032210Y005525D01*
X032135Y005525D01*
X032285Y005600D02*
X032285Y005975D01*
X033288Y006125D02*
X033288Y006200D01*
X033059Y006875D02*
X033059Y007325D01*
X033360Y007325D01*
X033210Y007100D02*
X033059Y007100D01*
X032899Y006950D02*
X032899Y007250D01*
X032824Y007325D01*
X032674Y007325D01*
X032599Y007250D01*
X032599Y006950D01*
X032674Y006875D01*
X032824Y006875D01*
X032899Y006950D01*
X031518Y007325D02*
X031218Y007325D01*
X031218Y007100D02*
X031368Y007100D01*
X029830Y007100D02*
X029530Y007100D01*
X028449Y007100D02*
X028149Y007100D01*
X028149Y007175D02*
X028149Y006875D01*
X027688Y006875D02*
X027688Y007325D01*
X029144Y008125D02*
X029144Y008200D01*
X029300Y005175D02*
X029525Y005175D01*
X029600Y005100D01*
X029600Y004875D01*
X029760Y004875D02*
X029985Y004875D01*
X030060Y004950D01*
X029985Y005025D01*
X029835Y005025D01*
X029760Y005100D01*
X029835Y005175D01*
X030060Y005175D01*
X029300Y005175D02*
X029300Y004875D01*
X029293Y004375D02*
X029143Y004075D01*
X028993Y004375D01*
X029453Y004300D02*
X029528Y004375D01*
X029678Y004375D01*
X029753Y004300D01*
X029753Y004225D01*
X029453Y004225D01*
X029453Y004150D02*
X029453Y004300D01*
X029453Y004150D02*
X029528Y004075D01*
X029678Y004075D01*
X029913Y004075D02*
X029913Y004375D01*
X029913Y004225D02*
X030064Y004375D01*
X030139Y004375D01*
X035208Y005750D02*
X035283Y005675D01*
X035358Y005750D01*
X035433Y005675D01*
X035508Y005750D01*
X035508Y005975D01*
X035668Y005975D02*
X035743Y005975D01*
X035743Y005675D01*
X035668Y005675D02*
X035818Y005675D01*
X036050Y005750D02*
X036050Y006050D01*
X035975Y005975D02*
X036125Y005975D01*
X036282Y005900D02*
X036357Y005975D01*
X036507Y005975D01*
X036582Y005900D01*
X036582Y005675D01*
X036743Y005750D02*
X036818Y005675D01*
X036968Y005675D01*
X037043Y005750D01*
X037043Y005900D01*
X036968Y005975D01*
X036818Y005975D01*
X036743Y005900D01*
X036743Y005750D01*
X037203Y005750D02*
X037203Y005975D01*
X037203Y005750D02*
X037278Y005675D01*
X037503Y005675D01*
X037503Y005975D01*
X037663Y005975D02*
X037813Y005975D01*
X037738Y006050D02*
X037738Y005750D01*
X037813Y005675D01*
X038431Y005675D02*
X038431Y005975D01*
X038656Y005975D01*
X038731Y005900D01*
X038731Y005675D01*
X038891Y005750D02*
X038966Y005675D01*
X039116Y005675D01*
X039191Y005750D01*
X039191Y005900D01*
X039116Y005975D01*
X038966Y005975D01*
X038891Y005900D01*
X038891Y005750D01*
X039351Y005975D02*
X039502Y005975D01*
X039426Y006050D02*
X039426Y005750D01*
X039502Y005675D01*
X039658Y005675D02*
X039808Y005675D01*
X039733Y005675D02*
X039733Y005975D01*
X039658Y005975D01*
X039733Y006125D02*
X039733Y006200D01*
X039965Y005900D02*
X039965Y005750D01*
X040040Y005675D01*
X040266Y005675D01*
X040426Y005750D02*
X040426Y005900D01*
X040501Y005975D01*
X040651Y005975D01*
X040726Y005900D01*
X040726Y005825D01*
X040426Y005825D01*
X040426Y005750D02*
X040501Y005675D01*
X040651Y005675D01*
X040886Y005675D02*
X040961Y005675D01*
X040961Y005750D01*
X040886Y005750D01*
X040886Y005675D01*
X041417Y005325D02*
X041417Y004875D01*
X041191Y004875D01*
X041116Y004950D01*
X041116Y005100D01*
X041191Y005175D01*
X041417Y005175D01*
X041577Y005100D02*
X041652Y005175D01*
X041802Y005175D01*
X041877Y005100D01*
X041877Y005025D01*
X041577Y005025D01*
X041577Y004950D02*
X041577Y005100D01*
X041577Y004950D02*
X041652Y004875D01*
X041802Y004875D01*
X041882Y004600D02*
X041882Y004525D01*
X041882Y004375D02*
X041882Y004075D01*
X041807Y004075D02*
X041957Y004075D01*
X042114Y004075D02*
X042264Y004075D01*
X042189Y004075D02*
X042189Y004525D01*
X042114Y004525D01*
X041882Y004375D02*
X041807Y004375D01*
X041647Y004300D02*
X041572Y004375D01*
X041346Y004375D01*
X041346Y004525D02*
X041346Y004075D01*
X041572Y004075D01*
X041647Y004150D01*
X041647Y004300D01*
X041190Y004075D02*
X041040Y004075D01*
X041115Y004075D02*
X041115Y004375D01*
X041040Y004375D01*
X040883Y004375D02*
X040733Y004375D01*
X040808Y004450D02*
X040808Y004150D01*
X040883Y004075D01*
X040572Y004075D02*
X040347Y004075D01*
X040272Y004150D01*
X040347Y004225D01*
X040572Y004225D01*
X040572Y004300D02*
X040572Y004075D01*
X040572Y004300D02*
X040497Y004375D01*
X040347Y004375D01*
X040112Y004300D02*
X040112Y004150D01*
X040037Y004075D01*
X039812Y004075D01*
X039812Y003925D02*
X039812Y004375D01*
X040037Y004375D01*
X040112Y004300D01*
X039652Y004300D02*
X039652Y004075D01*
X039502Y004075D02*
X039502Y004300D01*
X039577Y004375D01*
X039652Y004300D01*
X039502Y004300D02*
X039426Y004375D01*
X039351Y004375D01*
X039351Y004075D01*
X040195Y004950D02*
X040271Y004875D01*
X040496Y004875D01*
X040496Y005175D01*
X040656Y005175D02*
X040881Y005175D01*
X040956Y005100D01*
X040956Y004875D01*
X040656Y004875D02*
X040656Y005175D01*
X040195Y005175D02*
X040195Y004950D01*
X039962Y005175D02*
X040037Y005250D01*
X040037Y005400D01*
X039887Y005400D02*
X039887Y005250D01*
X039812Y005175D01*
X041115Y004600D02*
X041115Y004525D01*
X042112Y004875D02*
X042112Y005250D01*
X042187Y005325D01*
X042344Y005175D02*
X042419Y005175D01*
X042419Y004875D01*
X042344Y004875D02*
X042494Y004875D01*
X042651Y004875D02*
X042651Y005175D01*
X042876Y005175D01*
X042951Y005100D01*
X042951Y004875D01*
X043111Y004950D02*
X043186Y004875D01*
X043336Y004875D01*
X043412Y005025D02*
X043111Y005025D01*
X043111Y004950D02*
X043111Y005100D01*
X043186Y005175D01*
X043336Y005175D01*
X043412Y005100D01*
X043412Y005025D01*
X043572Y004950D02*
X043647Y004875D01*
X043872Y004875D01*
X043872Y005325D01*
X043872Y005175D02*
X043647Y005175D01*
X043572Y005100D01*
X043572Y004950D01*
X044032Y004950D02*
X044032Y004875D01*
X044107Y004875D01*
X044107Y004950D01*
X044032Y004950D01*
X044262Y005175D02*
X044337Y005250D01*
X044337Y005400D01*
X044487Y005400D02*
X044487Y005250D01*
X044412Y005175D01*
X044339Y005675D02*
X044564Y005675D01*
X044639Y005750D01*
X044564Y005825D01*
X044414Y005825D01*
X044339Y005900D01*
X044414Y005975D01*
X044639Y005975D01*
X044799Y005975D02*
X044950Y005975D01*
X044874Y006050D02*
X044874Y005750D01*
X044950Y005675D01*
X045106Y005750D02*
X045106Y005900D01*
X045181Y005975D01*
X045332Y005975D01*
X045407Y005900D01*
X045407Y005750D01*
X045332Y005675D01*
X045181Y005675D01*
X045106Y005750D01*
X045256Y005325D02*
X045407Y005175D01*
X045407Y004875D01*
X045567Y004875D02*
X045567Y005175D01*
X045567Y005025D02*
X045717Y005175D01*
X045792Y005175D01*
X045950Y005100D02*
X046025Y005175D01*
X046251Y005175D01*
X046251Y005325D02*
X046251Y004875D01*
X046025Y004875D01*
X045950Y004950D01*
X045950Y005100D01*
X046411Y005175D02*
X046411Y004950D01*
X046486Y004875D01*
X046711Y004875D01*
X046711Y005175D01*
X046871Y005175D02*
X046946Y005175D01*
X046946Y004875D01*
X046871Y004875D02*
X047021Y004875D01*
X047178Y004875D02*
X047178Y005175D01*
X047403Y005175D01*
X047478Y005100D01*
X047478Y004875D01*
X047638Y004950D02*
X047714Y004875D01*
X047864Y004875D01*
X047939Y004950D01*
X047939Y005100D01*
X047864Y005175D01*
X047714Y005175D01*
X047638Y005100D01*
X047638Y004950D01*
X046946Y005325D02*
X046946Y005400D01*
X047332Y005675D02*
X047332Y005975D01*
X047407Y005975D01*
X047482Y005900D01*
X047557Y005975D01*
X047632Y005900D01*
X047632Y005675D01*
X047482Y005675D02*
X047482Y005900D01*
X047792Y005975D02*
X047792Y005750D01*
X047867Y005675D01*
X048092Y005675D01*
X048092Y005975D01*
X048252Y005900D02*
X048327Y005975D01*
X048553Y005975D01*
X048713Y005975D02*
X048863Y005975D01*
X048788Y006050D02*
X048788Y005750D01*
X048863Y005675D01*
X048553Y005750D02*
X048478Y005825D01*
X048327Y005825D01*
X048252Y005900D01*
X048252Y005675D02*
X048478Y005675D01*
X048553Y005750D01*
X048559Y005175D02*
X048559Y004875D01*
X048559Y005025D02*
X048709Y005175D01*
X048784Y005175D01*
X048943Y005100D02*
X049018Y005175D01*
X049168Y005175D01*
X049243Y005100D01*
X049243Y005025D01*
X048943Y005025D01*
X048943Y004950D02*
X048943Y005100D01*
X048943Y004950D02*
X049018Y004875D01*
X049168Y004875D01*
X049403Y004875D02*
X049629Y004875D01*
X049704Y004950D01*
X049629Y005025D01*
X049478Y005025D01*
X049403Y005100D01*
X049478Y005175D01*
X049704Y005175D01*
X049864Y005100D02*
X049939Y005175D01*
X050089Y005175D01*
X050164Y005100D01*
X050164Y005025D01*
X049864Y005025D01*
X049864Y004950D02*
X049864Y005100D01*
X049864Y004950D02*
X049939Y004875D01*
X050089Y004875D01*
X050324Y004875D02*
X050324Y005175D01*
X050324Y005025D02*
X050474Y005175D01*
X050549Y005175D01*
X050708Y005175D02*
X050858Y004875D01*
X051008Y005175D01*
X051168Y005100D02*
X051243Y005175D01*
X051393Y005175D01*
X051468Y005100D01*
X051468Y005025D01*
X051168Y005025D01*
X051168Y004950D02*
X051168Y005100D01*
X051168Y004950D02*
X051243Y004875D01*
X051393Y004875D01*
X051629Y004875D02*
X051854Y004875D01*
X051929Y004950D01*
X051854Y005025D01*
X051704Y005025D01*
X051629Y005100D01*
X051704Y005175D01*
X051929Y005175D01*
X051854Y004375D02*
X051779Y004375D01*
X051629Y004225D01*
X051629Y004075D02*
X051629Y004375D01*
X051468Y004375D02*
X051468Y004075D01*
X051243Y004075D01*
X051168Y004150D01*
X051168Y004375D01*
X051011Y004375D02*
X050861Y004375D01*
X050936Y004450D02*
X050936Y004150D01*
X051011Y004075D01*
X050701Y004075D02*
X050701Y004375D01*
X050701Y004075D02*
X050476Y004075D01*
X050401Y004150D01*
X050401Y004375D01*
X050244Y004300D02*
X050094Y004300D01*
X050169Y004450D02*
X050169Y004075D01*
X050169Y004450D02*
X050244Y004525D01*
X049473Y004300D02*
X049473Y004075D01*
X049323Y004075D02*
X049323Y004300D01*
X049398Y004375D01*
X049473Y004300D01*
X049323Y004300D02*
X049248Y004375D01*
X049173Y004375D01*
X049173Y004075D01*
X049013Y004150D02*
X049013Y004300D01*
X048938Y004375D01*
X048788Y004375D01*
X048713Y004300D01*
X048713Y004150D01*
X048788Y004075D01*
X048938Y004075D01*
X049013Y004150D01*
X048554Y004375D02*
X048479Y004375D01*
X048329Y004225D01*
X048329Y004075D02*
X048329Y004375D01*
X048172Y004300D02*
X048022Y004300D01*
X048097Y004450D02*
X048097Y004075D01*
X048097Y004450D02*
X048172Y004525D01*
X047402Y004375D02*
X047176Y004375D01*
X047101Y004300D01*
X047101Y004150D01*
X047176Y004075D01*
X047402Y004075D01*
X047402Y004000D02*
X047402Y004375D01*
X046941Y004300D02*
X046941Y004075D01*
X046941Y004300D02*
X046866Y004375D01*
X046641Y004375D01*
X046641Y004075D01*
X046484Y004075D02*
X046334Y004075D01*
X046409Y004075D02*
X046409Y004375D01*
X046334Y004375D01*
X046174Y004375D02*
X045949Y004375D01*
X045874Y004300D01*
X045949Y004225D01*
X046099Y004225D01*
X046174Y004150D01*
X046099Y004075D01*
X045874Y004075D01*
X045717Y004075D02*
X045567Y004075D01*
X045642Y004075D02*
X045642Y004375D01*
X045567Y004375D01*
X045408Y004375D02*
X045333Y004375D01*
X045183Y004225D01*
X045183Y004075D02*
X045183Y004375D01*
X045023Y004300D02*
X045023Y004075D01*
X044798Y004075D01*
X044723Y004150D01*
X044798Y004225D01*
X045023Y004225D01*
X045023Y004300D02*
X044948Y004375D01*
X044798Y004375D01*
X045106Y004875D02*
X045106Y005175D01*
X045256Y005325D01*
X045106Y005100D02*
X045407Y005100D01*
X045642Y004600D02*
X045642Y004525D01*
X046409Y004525D02*
X046409Y004600D01*
X047251Y003925D02*
X047327Y003925D01*
X047402Y004000D01*
X047330Y003400D02*
X047330Y003325D01*
X047330Y003175D02*
X047330Y002875D01*
X047255Y002875D02*
X047405Y002875D01*
X047562Y002950D02*
X047637Y002875D01*
X047862Y002875D01*
X047862Y002800D02*
X047862Y003175D01*
X047637Y003175D01*
X047562Y003100D01*
X047562Y002950D01*
X047712Y002725D02*
X047787Y002725D01*
X047862Y002800D01*
X048022Y002875D02*
X048022Y003175D01*
X048247Y003175D01*
X048322Y003100D01*
X048322Y002875D01*
X048943Y002950D02*
X048943Y003175D01*
X048943Y002950D02*
X049018Y002875D01*
X049093Y002950D01*
X049168Y002875D01*
X049243Y002950D01*
X049243Y003175D01*
X049403Y003175D02*
X049478Y003175D01*
X049478Y002875D01*
X049403Y002875D02*
X049553Y002875D01*
X049785Y002950D02*
X049860Y002875D01*
X049785Y002950D02*
X049785Y003250D01*
X049710Y003175D02*
X049860Y003175D01*
X050017Y003100D02*
X050092Y003175D01*
X050242Y003175D01*
X050317Y003100D01*
X050317Y002875D01*
X050017Y002875D02*
X050017Y003325D01*
X049478Y003325D02*
X049478Y003400D01*
X050938Y003175D02*
X051088Y003175D01*
X051013Y003250D02*
X051013Y002950D01*
X051088Y002875D01*
X051245Y002875D02*
X051245Y003325D01*
X051320Y003175D02*
X051470Y003175D01*
X051545Y003100D01*
X051545Y002875D01*
X051705Y002875D02*
X051855Y002875D01*
X051780Y002875D02*
X051780Y003175D01*
X051705Y003175D01*
X051780Y003325D02*
X051780Y003400D01*
X052012Y003100D02*
X052087Y003175D01*
X052312Y003175D01*
X052237Y003025D02*
X052087Y003025D01*
X052012Y003100D01*
X052012Y002875D02*
X052237Y002875D01*
X052312Y002950D01*
X052237Y003025D01*
X052933Y002875D02*
X053083Y002875D01*
X053008Y002875D02*
X053008Y003175D01*
X052933Y003175D01*
X053008Y003325D02*
X053008Y003400D01*
X053240Y003175D02*
X053240Y002875D01*
X053540Y002875D02*
X053540Y003100D01*
X053465Y003175D01*
X053240Y003175D01*
X053700Y003100D02*
X053850Y003100D01*
X054007Y003100D02*
X054007Y002950D01*
X054082Y002875D01*
X054232Y002875D01*
X054308Y002950D01*
X054308Y003100D01*
X054232Y003175D01*
X054082Y003175D01*
X054007Y003100D01*
X053850Y003325D02*
X053775Y003250D01*
X053775Y002875D01*
X054468Y002875D02*
X054468Y003175D01*
X054618Y003175D02*
X054693Y003175D01*
X054618Y003175D02*
X054468Y003025D01*
X054851Y002875D02*
X054851Y003175D01*
X054926Y003175D01*
X055001Y003100D01*
X055076Y003175D01*
X055152Y003100D01*
X055152Y002875D01*
X055001Y002875D02*
X055001Y003100D01*
X055312Y002950D02*
X055387Y003025D01*
X055612Y003025D01*
X055612Y003100D02*
X055612Y002875D01*
X055387Y002875D01*
X055312Y002950D01*
X055387Y003175D02*
X055537Y003175D01*
X055612Y003100D01*
X055772Y003175D02*
X055922Y003175D01*
X055847Y003250D02*
X055847Y002950D01*
X055922Y002875D01*
X056079Y002875D02*
X056229Y002875D01*
X056154Y002875D02*
X056154Y003175D01*
X056079Y003175D01*
X056154Y003325D02*
X056154Y003400D01*
X056386Y003100D02*
X056386Y002950D01*
X056461Y002875D01*
X056611Y002875D01*
X056686Y002950D01*
X056686Y003100D01*
X056611Y003175D01*
X056461Y003175D01*
X056386Y003100D01*
X056846Y003175D02*
X057072Y003175D01*
X057147Y003100D01*
X057147Y002875D01*
X057307Y002875D02*
X057382Y002875D01*
X057382Y002950D01*
X057307Y002950D01*
X057307Y002875D01*
X056846Y002875D02*
X056846Y003175D01*
X055075Y004000D02*
X055075Y004375D01*
X054850Y004375D01*
X054775Y004300D01*
X054775Y004150D01*
X054850Y004075D01*
X055075Y004075D01*
X055075Y004000D02*
X055000Y003925D01*
X054925Y003925D01*
X054614Y004075D02*
X054614Y004300D01*
X054539Y004375D01*
X054314Y004375D01*
X054314Y004075D01*
X054154Y004075D02*
X053929Y004075D01*
X053854Y004150D01*
X053929Y004225D01*
X054154Y004225D01*
X054154Y004300D02*
X054154Y004075D01*
X054154Y004300D02*
X054079Y004375D01*
X053929Y004375D01*
X053694Y004300D02*
X053694Y004075D01*
X053694Y004300D02*
X053619Y004375D01*
X053468Y004375D01*
X053393Y004300D01*
X053233Y004375D02*
X053008Y004375D01*
X052933Y004300D01*
X052933Y004150D01*
X053008Y004075D01*
X053233Y004075D01*
X053393Y004075D02*
X053393Y004525D01*
X055235Y004300D02*
X055310Y004375D01*
X055460Y004375D01*
X055535Y004300D01*
X055535Y004225D01*
X055235Y004225D01*
X055235Y004150D02*
X055235Y004300D01*
X055235Y004150D02*
X055310Y004075D01*
X055460Y004075D01*
X055695Y004075D02*
X055921Y004075D01*
X055996Y004150D01*
X055921Y004225D01*
X055770Y004225D01*
X055695Y004300D01*
X055770Y004375D01*
X055996Y004375D01*
X056616Y004375D02*
X056766Y004375D01*
X056691Y004450D02*
X056691Y004150D01*
X056766Y004075D01*
X056923Y004150D02*
X056998Y004075D01*
X057148Y004075D01*
X057223Y004150D01*
X057223Y004300D01*
X057148Y004375D01*
X056998Y004375D01*
X056923Y004300D01*
X056923Y004150D01*
X057844Y004375D02*
X057994Y004375D01*
X057919Y004450D02*
X057919Y004150D01*
X057994Y004075D01*
X058151Y004075D02*
X058151Y004525D01*
X058226Y004375D02*
X058376Y004375D01*
X058451Y004300D01*
X058451Y004075D01*
X058611Y004150D02*
X058611Y004300D01*
X058686Y004375D01*
X058836Y004375D01*
X058911Y004300D01*
X058911Y004225D01*
X058611Y004225D01*
X058611Y004150D02*
X058686Y004075D01*
X058836Y004075D01*
X059072Y004075D02*
X059072Y004375D01*
X059147Y004375D01*
X059222Y004300D01*
X059297Y004375D01*
X059372Y004300D01*
X059372Y004075D01*
X059222Y004075D02*
X059222Y004300D01*
X059532Y004150D02*
X059607Y004150D01*
X059607Y004075D01*
X059532Y004075D01*
X059532Y004150D01*
X058226Y004375D02*
X058151Y004300D01*
X052312Y004300D02*
X052312Y004225D01*
X052012Y004225D01*
X052012Y004150D02*
X052012Y004300D01*
X052087Y004375D01*
X052237Y004375D01*
X052312Y004300D01*
X052237Y004075D02*
X052087Y004075D01*
X052012Y004150D01*
X051320Y003175D02*
X051245Y003100D01*
X047330Y003175D02*
X047255Y003175D01*
X047095Y003175D02*
X046869Y003175D01*
X046794Y003100D01*
X046869Y003025D01*
X047020Y003025D01*
X047095Y002950D01*
X047020Y002875D01*
X046794Y002875D01*
X046634Y003025D02*
X046634Y003100D01*
X046559Y003175D01*
X046409Y003175D01*
X046334Y003100D01*
X046334Y002950D01*
X046409Y002875D01*
X046559Y002875D01*
X046634Y003025D02*
X046334Y003025D01*
X046174Y002875D02*
X045949Y002875D01*
X045874Y002950D01*
X045874Y003100D01*
X045949Y003175D01*
X046174Y003175D01*
X046174Y003325D02*
X046174Y002875D01*
X045253Y002875D02*
X045028Y002875D01*
X044953Y002950D01*
X045028Y003025D01*
X045253Y003025D01*
X045253Y003100D02*
X045253Y002875D01*
X045253Y003100D02*
X045178Y003175D01*
X045028Y003175D01*
X044332Y003100D02*
X044332Y003025D01*
X044032Y003025D01*
X044032Y002950D02*
X044032Y003100D01*
X044107Y003175D01*
X044257Y003175D01*
X044332Y003100D01*
X044257Y002875D02*
X044107Y002875D01*
X044032Y002950D01*
X043872Y002875D02*
X043572Y002875D01*
X043872Y003175D01*
X043572Y003175D01*
X043340Y003175D02*
X043340Y002875D01*
X043265Y002875D02*
X043415Y002875D01*
X043108Y002875D02*
X042958Y002875D01*
X043033Y002875D02*
X043033Y003325D01*
X042958Y003325D01*
X042798Y003100D02*
X042798Y002875D01*
X042573Y002875D01*
X042497Y002950D01*
X042573Y003025D01*
X042798Y003025D01*
X042798Y003100D02*
X042723Y003175D01*
X042573Y003175D01*
X042337Y003100D02*
X042337Y002875D01*
X042337Y003100D02*
X042262Y003175D01*
X042037Y003175D01*
X042037Y002875D01*
X041880Y002875D02*
X041730Y002875D01*
X041805Y002875D02*
X041805Y003175D01*
X041730Y003175D01*
X041805Y003325D02*
X041805Y003400D01*
X041573Y003325D02*
X041498Y003250D01*
X041498Y002875D01*
X041423Y003100D02*
X041573Y003100D01*
X040806Y003175D02*
X040656Y003175D01*
X040731Y003250D02*
X040731Y002950D01*
X040806Y002875D01*
X040496Y002950D02*
X040496Y003100D01*
X040421Y003175D01*
X040271Y003175D01*
X040195Y003100D01*
X040195Y002950D01*
X040271Y002875D01*
X040421Y002875D01*
X040496Y002950D01*
X040035Y002875D02*
X040035Y003100D01*
X039960Y003175D01*
X039735Y003175D01*
X039735Y002875D01*
X039115Y002950D02*
X039115Y003100D01*
X039039Y003175D01*
X038889Y003175D01*
X038814Y003100D01*
X038814Y002950D01*
X038889Y002875D01*
X039039Y002875D01*
X039115Y002950D01*
X038654Y002950D02*
X038654Y003250D01*
X038579Y003325D01*
X038354Y003325D01*
X038354Y002875D01*
X038579Y002875D01*
X038654Y002950D01*
X042421Y004075D02*
X042571Y004075D01*
X042496Y004075D02*
X042496Y004375D01*
X042421Y004375D01*
X042496Y004525D02*
X042496Y004600D01*
X042728Y004375D02*
X042878Y004375D01*
X042803Y004450D02*
X042803Y004150D01*
X042878Y004075D01*
X043035Y004075D02*
X043185Y004075D01*
X043110Y004075D02*
X043110Y004375D01*
X043035Y004375D01*
X043110Y004525D02*
X043110Y004600D01*
X043341Y004300D02*
X043417Y004375D01*
X043567Y004375D01*
X043642Y004300D01*
X043642Y004225D01*
X043341Y004225D01*
X043341Y004150D02*
X043341Y004300D01*
X043341Y004150D02*
X043417Y004075D01*
X043567Y004075D01*
X043802Y004075D02*
X044027Y004075D01*
X044102Y004150D01*
X044027Y004225D01*
X043877Y004225D01*
X043802Y004300D01*
X043877Y004375D01*
X044102Y004375D01*
X042419Y005325D02*
X042419Y005400D01*
X042337Y005675D02*
X042337Y005900D01*
X042262Y005975D01*
X042112Y005975D01*
X042037Y005900D01*
X042037Y006125D02*
X042037Y005675D01*
X041727Y005675D02*
X041727Y006125D01*
X041577Y006125D02*
X041877Y006125D01*
X042497Y005900D02*
X042497Y005750D01*
X042573Y005675D01*
X042723Y005675D01*
X042798Y005825D02*
X042497Y005825D01*
X042497Y005900D02*
X042573Y005975D01*
X042723Y005975D01*
X042798Y005900D01*
X042798Y005825D01*
X043418Y005750D02*
X043418Y006050D01*
X043493Y006125D01*
X043643Y006125D01*
X043718Y006050D01*
X043879Y005975D02*
X043879Y005750D01*
X043954Y005675D01*
X044179Y005675D01*
X044179Y005975D01*
X043718Y005750D02*
X043643Y005675D01*
X043493Y005675D01*
X043418Y005750D01*
X042187Y005100D02*
X042037Y005100D01*
X040266Y005975D02*
X040040Y005975D01*
X039965Y005900D01*
X039808Y006875D02*
X039808Y007325D01*
X039658Y007325D02*
X039959Y007325D01*
X040119Y007325D02*
X040119Y007250D01*
X040269Y007100D01*
X040269Y006875D01*
X040269Y007100D02*
X040419Y007250D01*
X040419Y007325D01*
X040419Y007675D02*
X040419Y007975D01*
X040269Y008125D01*
X040119Y007975D01*
X040119Y007675D01*
X039959Y007675D02*
X039959Y008125D01*
X040119Y007900D02*
X040419Y007900D01*
X040579Y007825D02*
X040804Y007825D01*
X040879Y007900D01*
X040879Y008050D01*
X040804Y008125D01*
X040579Y008125D01*
X040579Y007675D01*
X040729Y007825D02*
X040879Y007675D01*
X041040Y007675D02*
X041040Y008125D01*
X041265Y008125D01*
X041340Y008050D01*
X041340Y007900D01*
X041265Y007825D01*
X041040Y007825D01*
X041190Y007825D02*
X041340Y007675D01*
X041500Y007675D02*
X041500Y007975D01*
X041650Y008125D01*
X041800Y007975D01*
X041800Y007675D01*
X041960Y007675D02*
X041960Y008125D01*
X042261Y007675D01*
X042261Y008125D01*
X042421Y008125D02*
X042721Y008125D01*
X042571Y008125D02*
X042571Y007675D01*
X042881Y007675D02*
X043031Y007675D01*
X042956Y007675D02*
X042956Y008125D01*
X042881Y008125D02*
X043031Y008125D01*
X043188Y008125D02*
X043188Y007675D01*
X043488Y007675D01*
X043648Y007750D02*
X043723Y007675D01*
X043874Y007675D01*
X043949Y007750D01*
X043949Y007825D01*
X043874Y007900D01*
X043723Y007900D01*
X043648Y007975D01*
X043648Y008050D01*
X043723Y008125D01*
X043874Y008125D01*
X043949Y008050D01*
X044184Y007750D02*
X044184Y007675D01*
X044259Y007675D01*
X044259Y007750D01*
X044184Y007750D01*
X044259Y007675D02*
X044109Y007525D01*
X044109Y007325D02*
X044109Y006875D01*
X044409Y006875D01*
X044569Y006950D02*
X044644Y006875D01*
X044794Y006875D01*
X044869Y006950D01*
X044869Y007025D01*
X044794Y007100D01*
X044644Y007100D01*
X044569Y007175D01*
X044569Y007250D01*
X044644Y007325D01*
X044794Y007325D01*
X044869Y007250D01*
X045030Y007250D02*
X045030Y007175D01*
X045105Y007100D01*
X045255Y007100D01*
X045330Y007025D01*
X045330Y006950D01*
X045255Y006875D01*
X045105Y006875D01*
X045030Y006950D01*
X045030Y007250D02*
X045105Y007325D01*
X045255Y007325D01*
X045330Y007250D01*
X045337Y007675D02*
X045637Y008125D01*
X045797Y008125D02*
X046022Y008125D01*
X046097Y008050D01*
X046097Y007900D01*
X046022Y007825D01*
X045797Y007825D01*
X045797Y007675D02*
X045797Y008125D01*
X046257Y008125D02*
X046483Y008125D01*
X046558Y008050D01*
X046558Y007900D01*
X046483Y007825D01*
X046257Y007825D01*
X046257Y007675D02*
X046257Y008125D01*
X046407Y007825D02*
X046558Y007675D01*
X046718Y007675D02*
X047018Y007675D01*
X047178Y007750D02*
X047253Y007675D01*
X047403Y007675D01*
X047478Y007750D01*
X047478Y007825D01*
X047403Y007900D01*
X047253Y007900D01*
X047178Y007975D01*
X047178Y008050D01*
X047253Y008125D01*
X047403Y008125D01*
X047478Y008050D01*
X047638Y008050D02*
X047638Y007975D01*
X047714Y007900D01*
X047864Y007900D01*
X047939Y007825D01*
X047939Y007750D01*
X047864Y007675D01*
X047714Y007675D01*
X047638Y007750D01*
X047638Y008050D02*
X047714Y008125D01*
X047864Y008125D01*
X047939Y008050D01*
X048559Y008050D02*
X048559Y007750D01*
X048634Y007675D01*
X048784Y007675D01*
X048860Y007750D01*
X048860Y008050D01*
X048784Y008125D01*
X048634Y008125D01*
X048559Y008050D01*
X049020Y008125D02*
X049245Y008125D01*
X049320Y008050D01*
X049320Y007900D01*
X049245Y007825D01*
X049020Y007825D01*
X049170Y007825D02*
X049320Y007675D01*
X049020Y007675D02*
X049020Y008125D01*
X049940Y008125D02*
X050091Y008125D01*
X050016Y008125D02*
X050016Y007675D01*
X050091Y007675D02*
X049940Y007675D01*
X050247Y007675D02*
X050247Y008125D01*
X050398Y007975D01*
X050548Y008125D01*
X050548Y007675D01*
X050708Y007675D02*
X050708Y008125D01*
X050933Y008125D01*
X051008Y008050D01*
X051008Y007900D01*
X050933Y007825D01*
X050708Y007825D01*
X051168Y007675D02*
X051468Y007675D01*
X051629Y007675D02*
X051779Y007675D01*
X051704Y007675D02*
X051704Y008125D01*
X051629Y008125D02*
X051779Y008125D01*
X051935Y008125D02*
X051935Y007675D01*
X052236Y007675D01*
X052396Y007675D02*
X052621Y007675D01*
X052696Y007750D01*
X052696Y008050D01*
X052621Y008125D01*
X052396Y008125D01*
X052396Y007675D01*
X052393Y007325D02*
X052543Y007175D01*
X052543Y006875D01*
X052703Y006875D02*
X052703Y007325D01*
X052928Y007325D01*
X053003Y007250D01*
X053003Y007100D01*
X052928Y007025D01*
X052703Y007025D01*
X052853Y007025D02*
X053003Y006875D01*
X052543Y007100D02*
X052242Y007100D01*
X052242Y007175D02*
X052242Y006875D01*
X052082Y006875D02*
X051782Y006875D01*
X051782Y007325D01*
X051622Y007325D02*
X051622Y006950D01*
X051547Y006875D01*
X051397Y006875D01*
X051322Y006950D01*
X051322Y007325D01*
X051161Y007250D02*
X051086Y007325D01*
X050936Y007325D01*
X050861Y007250D01*
X050861Y006950D01*
X050936Y006875D01*
X051086Y006875D01*
X051161Y006950D01*
X050704Y006875D02*
X050554Y006875D01*
X050629Y006875D02*
X050629Y007325D01*
X050554Y007325D02*
X050704Y007325D01*
X050394Y007325D02*
X050094Y007325D01*
X050244Y007325D02*
X050244Y006875D01*
X049934Y006875D02*
X049784Y007025D01*
X049859Y007025D02*
X049634Y007025D01*
X049634Y006875D02*
X049634Y007325D01*
X049859Y007325D01*
X049934Y007250D01*
X049934Y007100D01*
X049859Y007025D01*
X049473Y007100D02*
X049173Y007100D01*
X049173Y007175D02*
X049173Y006875D01*
X049013Y007100D02*
X048938Y007025D01*
X048713Y007025D01*
X048713Y006875D02*
X048713Y007325D01*
X048938Y007325D01*
X049013Y007250D01*
X049013Y007100D01*
X049173Y007175D02*
X049323Y007325D01*
X049473Y007175D01*
X049473Y006875D01*
X049480Y005975D02*
X049705Y005975D01*
X049780Y005900D01*
X049780Y005675D01*
X049940Y005750D02*
X049940Y005900D01*
X050016Y005975D01*
X050166Y005975D01*
X050241Y005900D01*
X050241Y005750D01*
X050166Y005675D01*
X050016Y005675D01*
X049940Y005750D01*
X049480Y005675D02*
X049480Y005975D01*
X050401Y005975D02*
X050551Y005975D01*
X050476Y006050D02*
X050476Y005750D01*
X050551Y005675D01*
X052242Y007175D02*
X052393Y007325D01*
X052856Y007525D02*
X053006Y007675D01*
X052931Y007675D01*
X052931Y007750D01*
X053006Y007750D01*
X053006Y007675D01*
X053624Y007325D02*
X053849Y007325D01*
X053924Y007250D01*
X053924Y007100D01*
X053849Y007025D01*
X053624Y007025D01*
X053624Y006875D02*
X053624Y007325D01*
X054084Y007325D02*
X054084Y006950D01*
X054159Y006875D01*
X054309Y006875D01*
X054384Y006950D01*
X054384Y007325D01*
X054544Y007325D02*
X054770Y007325D01*
X054845Y007250D01*
X054845Y007100D01*
X054770Y007025D01*
X054544Y007025D01*
X054544Y006875D02*
X054544Y007325D01*
X054695Y007025D02*
X054845Y006875D01*
X055005Y006875D02*
X055005Y007325D01*
X055230Y007325D01*
X055305Y007250D01*
X055305Y007100D01*
X055230Y007025D01*
X055005Y007025D01*
X055465Y006950D02*
X055540Y006875D01*
X055690Y006875D01*
X055765Y006950D01*
X055765Y007250D01*
X055690Y007325D01*
X055540Y007325D01*
X055465Y007250D01*
X055465Y006950D01*
X055926Y006950D02*
X056001Y006875D01*
X056151Y006875D01*
X056226Y006950D01*
X056226Y007025D01*
X056151Y007100D01*
X056001Y007100D01*
X055926Y007175D01*
X055926Y007250D01*
X056001Y007325D01*
X056151Y007325D01*
X056226Y007250D01*
X056386Y007325D02*
X056386Y006875D01*
X056686Y006875D01*
X056536Y007100D02*
X056386Y007100D01*
X056386Y007325D02*
X056686Y007325D01*
X052236Y008125D02*
X051935Y008125D01*
X051935Y007900D02*
X052086Y007900D01*
X051168Y008125D02*
X051168Y007675D01*
X048092Y007175D02*
X048092Y006875D01*
X048092Y007100D02*
X047792Y007100D01*
X047792Y007175D02*
X047792Y006875D01*
X047792Y007175D02*
X047942Y007325D01*
X048092Y007175D01*
X047171Y007100D02*
X047096Y007025D01*
X046871Y007025D01*
X046871Y006875D02*
X046871Y007325D01*
X047096Y007325D01*
X047171Y007250D01*
X047171Y007100D01*
X047021Y007025D02*
X047171Y006875D01*
X046711Y006950D02*
X046711Y007250D01*
X046636Y007325D01*
X046486Y007325D01*
X046411Y007250D01*
X046411Y006950D01*
X046486Y006875D01*
X046636Y006875D01*
X046711Y006950D01*
X046251Y007325D02*
X045950Y007325D01*
X045950Y006875D01*
X045950Y007100D02*
X046101Y007100D01*
X045637Y007675D02*
X045337Y008125D01*
X045176Y008125D02*
X044876Y008125D01*
X044876Y007675D01*
X045176Y007675D01*
X045026Y007900D02*
X044876Y007900D01*
X044409Y007325D02*
X044109Y007325D01*
X043949Y007325D02*
X043949Y006875D01*
X043648Y007325D01*
X043648Y006875D01*
X043338Y006875D02*
X043338Y007325D01*
X043188Y007325D02*
X043488Y007325D01*
X043031Y007325D02*
X042881Y007325D01*
X042956Y007325D02*
X042956Y006875D01*
X042881Y006875D02*
X043031Y006875D01*
X042571Y007100D02*
X042421Y007100D01*
X042421Y006875D02*
X042421Y007325D01*
X042721Y007325D01*
X041800Y007250D02*
X041800Y007100D01*
X041725Y007025D01*
X041500Y007025D01*
X041500Y006875D02*
X041500Y007325D01*
X041725Y007325D01*
X041800Y007250D01*
X041650Y007025D02*
X041800Y006875D01*
X041340Y006950D02*
X041340Y007250D01*
X041265Y007325D01*
X041115Y007325D01*
X041040Y007250D01*
X041040Y006950D01*
X041115Y006875D01*
X041265Y006875D01*
X041340Y006950D01*
X041500Y007900D02*
X041800Y007900D01*
X043188Y007900D02*
X043338Y007900D01*
X043488Y008125D02*
X043188Y008125D01*
X044109Y007100D02*
X044259Y007100D01*
X045567Y005975D02*
X045642Y005975D01*
X045717Y005900D01*
X045792Y005975D01*
X045867Y005900D01*
X045867Y005675D01*
X045717Y005675D02*
X045717Y005900D01*
X045567Y005975D02*
X045567Y005675D01*
X046027Y005750D02*
X046027Y005900D01*
X046102Y005975D01*
X046252Y005975D01*
X046327Y005900D01*
X046327Y005825D01*
X046027Y005825D01*
X046027Y005750D02*
X046102Y005675D01*
X046252Y005675D01*
X046488Y005675D02*
X046488Y005975D01*
X046638Y005975D02*
X046713Y005975D01*
X046638Y005975D02*
X046488Y005825D01*
X046718Y007675D02*
X046718Y008125D01*
X047018Y008125D01*
X046868Y007900D02*
X046718Y007900D01*
X039959Y007675D02*
X039808Y007825D01*
X039658Y007675D01*
X039658Y008125D01*
X039038Y008050D02*
X039038Y007900D01*
X038963Y007825D01*
X038738Y007825D01*
X038888Y007825D02*
X039038Y007675D01*
X038738Y007675D02*
X038738Y008125D01*
X038963Y008125D01*
X039038Y008050D01*
X038577Y008125D02*
X038277Y008125D01*
X038277Y007675D01*
X038577Y007675D01*
X038427Y007900D02*
X038277Y007900D01*
X038117Y007900D02*
X037817Y007900D01*
X037817Y007675D02*
X037817Y008125D01*
X037657Y008125D02*
X037356Y008125D01*
X037507Y008125D02*
X037507Y007675D01*
X037196Y007750D02*
X037196Y008050D01*
X037121Y008125D01*
X036971Y008125D01*
X036896Y008050D01*
X036896Y007750D01*
X036971Y007675D01*
X037121Y007675D01*
X037196Y007750D01*
X037203Y007325D02*
X037503Y007325D01*
X037353Y007325D02*
X037353Y006875D01*
X037043Y006875D02*
X037043Y007325D01*
X036743Y007325D02*
X036743Y006875D01*
X036582Y006875D02*
X036582Y007175D01*
X036432Y007325D01*
X036282Y007175D01*
X036282Y006875D01*
X036122Y006875D02*
X036122Y007325D01*
X036122Y007100D02*
X035822Y007100D01*
X036282Y007100D02*
X036582Y007100D01*
X036743Y007325D02*
X037043Y006875D01*
X037663Y006875D02*
X037663Y007175D01*
X037813Y007325D01*
X037964Y007175D01*
X037964Y006875D01*
X038124Y006875D02*
X038124Y007325D01*
X038349Y007325D01*
X038424Y007250D01*
X038424Y007175D01*
X038349Y007100D01*
X038124Y007100D01*
X037964Y007100D02*
X037663Y007100D01*
X038124Y006875D02*
X038349Y006875D01*
X038424Y006950D01*
X038424Y007025D01*
X038349Y007100D01*
X038584Y006875D02*
X038734Y006875D01*
X038659Y006875D02*
X038659Y007325D01*
X038584Y007325D02*
X038734Y007325D01*
X038891Y007325D02*
X038891Y006875D01*
X039191Y006875D01*
X039351Y006875D02*
X039502Y006875D01*
X039426Y006875D02*
X039426Y007325D01*
X039351Y007325D02*
X039502Y007325D01*
X038117Y007675D02*
X038117Y008125D01*
X035743Y006200D02*
X035743Y006125D01*
X036050Y005750D02*
X036125Y005675D01*
X036282Y005675D02*
X036282Y006125D01*
X035208Y005975D02*
X035208Y005750D01*
X043265Y003175D02*
X043340Y003175D01*
X043340Y003325D02*
X043340Y003400D01*
X006430Y007675D02*
X006280Y007675D01*
X006355Y007675D02*
X006355Y007975D01*
X006280Y007975D01*
X006120Y007975D02*
X005895Y007975D01*
X005820Y007900D01*
X005895Y007825D01*
X006045Y007825D01*
X006120Y007750D01*
X006045Y007675D01*
X005820Y007675D01*
X005659Y007825D02*
X005359Y007825D01*
X005359Y007750D02*
X005359Y007900D01*
X005434Y007975D01*
X005584Y007975D01*
X005659Y007900D01*
X005659Y007825D01*
X005584Y007675D02*
X005434Y007675D01*
X005359Y007750D01*
X005199Y007750D02*
X005199Y008050D01*
X005124Y008125D01*
X004899Y008125D01*
X004899Y007675D01*
X005124Y007675D01*
X005199Y007750D01*
X006355Y008125D02*
X006355Y008200D01*
X002206Y007100D02*
X001906Y007100D01*
X001906Y007175D02*
X001906Y006875D01*
X001286Y006875D02*
X000985Y006875D01*
X000985Y007325D01*
X001286Y007325D01*
X001136Y007100D02*
X000985Y007100D01*
X000825Y007100D02*
X000750Y007025D01*
X000525Y007025D01*
X000525Y006875D02*
X000525Y007325D01*
X000750Y007325D01*
X000825Y007250D01*
X000825Y007100D01*
X000675Y007025D02*
X000825Y006875D01*
X000600Y004450D02*
X000600Y004150D01*
X000675Y004075D01*
X000832Y004300D02*
X000907Y004375D01*
X000675Y004375D02*
X000525Y004375D01*
X000729Y002286D02*
X000932Y002082D01*
X000729Y002286D02*
X000525Y002082D01*
X002348Y002286D02*
X002348Y001777D01*
D14*
X004850Y011372D03*
X004850Y015309D03*
X004819Y019246D03*
D15*
X005822Y020250D03*
X003815Y020250D03*
X003815Y018242D03*
X005822Y018242D03*
X005854Y016313D03*
X003846Y016313D03*
X003846Y014305D03*
X005854Y014305D03*
X005854Y012376D03*
X003846Y012376D03*
X003846Y010368D03*
X005854Y010368D03*
D16*
X019250Y016720D02*
X019250Y016980D01*
X020250Y016980D02*
X020250Y016720D01*
X021250Y016720D02*
X021250Y016980D01*
X022250Y016980D02*
X022250Y016720D01*
X023250Y016720D02*
X023250Y016980D01*
X024250Y016980D02*
X024250Y016720D01*
X025250Y016720D02*
X025250Y016980D01*
X026250Y016980D02*
X026250Y016720D01*
D17*
X025300Y018400D03*
X023400Y018350D03*
X021450Y018300D03*
X021450Y022300D03*
X022400Y022350D03*
X023400Y022350D03*
X024450Y022500D03*
X025300Y022400D03*
X020300Y022400D03*
X020300Y026400D03*
X022400Y026350D03*
X024450Y026500D03*
X012650Y019513D03*
X008650Y019513D03*
D18*
X008850Y016250D03*
X008850Y015250D03*
X008850Y014250D03*
X008850Y013250D03*
X011850Y013250D03*
X011850Y014250D03*
X011850Y015250D03*
X011850Y016250D03*
D19*
X011905Y016096D01*
X012496Y015506D01*
X012496Y013931D01*
X013677Y012750D01*
X017811Y012750D01*
X018007Y012946D01*
X018598Y012946D01*
X018204Y012553D02*
X013480Y012553D01*
X011905Y014128D01*
X011850Y014250D01*
X011708Y012356D02*
X008952Y015112D01*
X008850Y015250D01*
X008756Y016096D02*
X007968Y015309D01*
X004850Y015309D01*
X008756Y016096D02*
X008850Y016250D01*
X008850Y014250D02*
X008756Y014128D01*
X006000Y011372D01*
X004850Y011372D01*
X011708Y012356D02*
X017811Y012356D01*
X017811Y011765D01*
X017850Y011600D01*
X018007Y011765D01*
X022732Y016490D01*
X022732Y017080D01*
X022535Y017277D01*
X022535Y020427D01*
X023322Y021214D01*
X023322Y022198D01*
X023400Y022350D01*
X023519Y022395D01*
X024307Y022395D01*
X024450Y022500D01*
X024897Y022198D02*
X025094Y022002D01*
X025094Y019246D01*
X024700Y018852D01*
X024700Y017868D01*
X024307Y017474D01*
X024307Y016883D01*
X024250Y016850D01*
X024110Y016687D01*
X023913Y016490D01*
X023913Y011765D01*
X023850Y011600D01*
X022929Y011569D02*
X022850Y011600D01*
X022929Y011765D01*
X022929Y015309D01*
X023322Y015702D01*
X023322Y016687D01*
X023250Y016850D01*
X023322Y016883D01*
X023322Y018261D01*
X023400Y018350D01*
X024897Y018065D02*
X025291Y017671D01*
X025291Y016883D01*
X025250Y016850D01*
X025291Y016687D01*
X025291Y015702D01*
X024897Y015309D01*
X024897Y011765D01*
X024850Y011600D01*
X025291Y012553D02*
X026866Y012553D01*
X026866Y011765D01*
X026850Y011600D01*
X026850Y010600D01*
X027850Y010600D02*
X027850Y011600D01*
X027850Y012159D01*
X027653Y012356D01*
X027653Y012750D01*
X025685Y012750D01*
X025291Y013143D01*
X022535Y013143D02*
X022141Y012750D01*
X022141Y012553D01*
X019779Y012553D01*
X019582Y012750D01*
X019189Y012356D02*
X022535Y012356D01*
X022535Y012553D01*
X022929Y011569D02*
X022929Y010781D01*
X022850Y010600D01*
X017850Y010600D02*
X017850Y011600D01*
X020250Y016850D02*
X020370Y016883D01*
X020370Y022395D01*
X020300Y022400D01*
X021354Y022395D02*
X021354Y023183D01*
X017614Y026923D01*
X017220Y027513D02*
X017220Y028498D01*
X017250Y028600D01*
X016826Y027710D02*
X016236Y028301D01*
X016236Y028498D01*
X016250Y028600D01*
X016225Y028600D01*
X016225Y029600D01*
X016250Y029600D01*
X015250Y028600D02*
X015252Y028498D01*
X015252Y027317D01*
X019385Y027317D01*
X020173Y026529D01*
X020300Y026400D01*
X021354Y027513D02*
X017220Y027513D01*
X019189Y028694D02*
X019250Y028600D01*
X019189Y028694D02*
X019189Y029482D01*
X019250Y029600D01*
X020763Y029482D02*
X020763Y028694D01*
X020850Y028600D01*
X021850Y028600D02*
X021944Y028694D01*
X021944Y029482D01*
X021850Y029600D01*
X020850Y029600D02*
X020763Y029482D01*
X021354Y027513D02*
X022338Y026529D01*
X022400Y026350D01*
X024450Y026500D02*
X024504Y026332D01*
X024504Y023773D01*
X024897Y023380D01*
X024897Y022198D01*
X025291Y022395D02*
X025300Y022400D01*
X025291Y022395D02*
X025291Y019049D01*
X024897Y018655D01*
X024897Y018065D01*
X022338Y016883D02*
X022250Y016850D01*
X022338Y016883D02*
X022338Y022198D01*
X022400Y022350D01*
X021450Y022300D02*
X021354Y022395D01*
X021450Y018300D02*
X021354Y018261D01*
X021354Y016883D01*
X021250Y016850D01*
X010527Y021214D02*
X010133Y020820D01*
X008559Y020820D01*
X008559Y019639D01*
X008650Y019513D01*
X008559Y019443D01*
X004819Y019443D01*
X004819Y019246D01*
X010527Y021214D02*
X010527Y024954D01*
X014070Y028498D01*
X014250Y028600D01*
X011315Y028694D02*
X011250Y028600D01*
X011315Y028694D02*
X011315Y029482D01*
X011250Y029600D01*
X024850Y029600D02*
X024897Y029482D01*
X024897Y028694D01*
X024850Y028600D01*
X025850Y028600D02*
X025881Y028694D01*
X025881Y029482D01*
X025850Y029600D01*
X027850Y029600D02*
X027850Y028600D01*
D20*
X017614Y026923D03*
X016826Y027710D03*
X022535Y013143D03*
X022535Y012553D03*
X025291Y012553D03*
X025291Y013143D03*
X019582Y012750D03*
X019189Y012356D03*
X018598Y012946D03*
X018204Y012553D03*
D21*
X016419Y021900D03*
X012637Y021900D03*
X026800Y022300D03*
D22*
X027605Y021963D02*
X025501Y021963D01*
X025501Y022007D02*
X025720Y022226D01*
X025720Y022574D01*
X025474Y022820D01*
X025126Y022820D01*
X025107Y022801D01*
X025107Y023467D01*
X024984Y023590D01*
X024714Y023860D01*
X024714Y026170D01*
X024870Y026326D01*
X024870Y026674D01*
X024624Y026920D01*
X024276Y026920D01*
X024030Y026674D01*
X024030Y026326D01*
X024276Y026080D01*
X024294Y026080D01*
X024294Y023686D01*
X024687Y023293D01*
X024687Y022857D01*
X024624Y022920D01*
X024276Y022920D01*
X024030Y022674D01*
X024030Y022605D01*
X023739Y022605D01*
X023574Y022770D01*
X023226Y022770D01*
X022980Y022524D01*
X022980Y022176D01*
X023112Y022044D01*
X023112Y021301D01*
X022548Y020737D01*
X022548Y021930D01*
X022574Y021930D01*
X022820Y022176D01*
X022820Y022524D01*
X022574Y022770D01*
X022226Y022770D01*
X021980Y022524D01*
X021980Y022176D01*
X022128Y022028D01*
X022128Y017384D01*
X022012Y017336D01*
X021894Y017218D01*
X021830Y017064D01*
X021830Y016636D01*
X021894Y016482D01*
X022012Y016364D01*
X022166Y016300D01*
X022245Y016300D01*
X018958Y013013D01*
X018958Y013018D01*
X018903Y013150D01*
X018802Y013252D01*
X018670Y013306D01*
X018526Y013306D01*
X018394Y013252D01*
X018299Y013156D01*
X017920Y013156D01*
X017797Y013033D01*
X017724Y012960D01*
X013764Y012960D01*
X012706Y014018D01*
X012706Y015592D01*
X012583Y015716D01*
X012241Y016057D01*
X012286Y016163D01*
X012286Y016337D01*
X012219Y016497D01*
X012097Y016619D01*
X011937Y016686D01*
X011763Y016686D01*
X011603Y016619D01*
X011481Y016497D01*
X011414Y016337D01*
X011414Y016163D01*
X011481Y016003D01*
X011603Y015881D01*
X011763Y015814D01*
X011890Y015814D01*
X012039Y015665D01*
X012025Y015672D01*
X011957Y015694D01*
X011886Y015706D01*
X011850Y015706D01*
X011814Y015706D01*
X011743Y015694D01*
X011675Y015672D01*
X011611Y015640D01*
X011553Y015598D01*
X011502Y015547D01*
X011460Y015489D01*
X011428Y015425D01*
X011406Y015357D01*
X011394Y015286D01*
X011394Y015250D01*
X011394Y015214D01*
X011406Y015143D01*
X011428Y015075D01*
X011460Y015011D01*
X011502Y014953D01*
X011553Y014902D01*
X011611Y014860D01*
X011675Y014828D01*
X011743Y014806D01*
X011814Y014794D01*
X011850Y014794D01*
X011850Y015250D01*
X011850Y015250D01*
X011850Y015706D01*
X011850Y015250D01*
X011850Y014794D01*
X011886Y014794D01*
X011957Y014806D01*
X012025Y014828D01*
X012089Y014860D01*
X012147Y014902D01*
X012198Y014953D01*
X012240Y015011D01*
X012272Y015075D01*
X012286Y015117D01*
X012286Y014044D01*
X012251Y014079D01*
X012286Y014163D01*
X012286Y014337D01*
X012219Y014497D01*
X012097Y014619D01*
X011937Y014686D01*
X011763Y014686D01*
X011603Y014619D01*
X011481Y014497D01*
X011414Y014337D01*
X011414Y014163D01*
X011481Y014003D01*
X011603Y013881D01*
X011763Y013814D01*
X011921Y013814D01*
X013170Y012566D01*
X011795Y012566D01*
X009260Y015101D01*
X009286Y015163D01*
X009286Y015337D01*
X009219Y015497D01*
X009097Y015619D01*
X008937Y015686D01*
X008763Y015686D01*
X008603Y015619D01*
X008481Y015497D01*
X008414Y015337D01*
X008414Y015163D01*
X008481Y015003D01*
X008603Y014881D01*
X008763Y014814D01*
X008937Y014814D01*
X008948Y014819D01*
X011498Y012269D01*
X011621Y012146D01*
X013653Y012146D01*
X013597Y012122D01*
X013471Y011997D01*
X013403Y011832D01*
X013403Y011368D01*
X013471Y011203D01*
X013574Y011100D01*
X013471Y010997D01*
X013403Y010832D01*
X013403Y010368D01*
X013471Y010203D01*
X013544Y010130D01*
X006519Y010130D01*
X006523Y010141D01*
X006547Y010230D01*
X006554Y010288D01*
X005934Y010288D01*
X005934Y010448D01*
X005774Y010448D01*
X005774Y011068D01*
X005716Y011061D01*
X005627Y011037D01*
X005541Y011001D01*
X005461Y010955D01*
X005388Y010899D01*
X005323Y010834D01*
X005266Y010760D01*
X005220Y010680D01*
X005185Y010595D01*
X005161Y010506D01*
X005153Y010448D01*
X005774Y010448D01*
X005774Y010288D01*
X005153Y010288D01*
X005161Y010230D01*
X005185Y010141D01*
X005189Y010130D01*
X004511Y010130D01*
X004515Y010141D01*
X004539Y010230D01*
X004547Y010288D01*
X003926Y010288D01*
X003926Y010448D01*
X003766Y010448D01*
X003766Y011068D01*
X003708Y011061D01*
X003619Y011037D01*
X003534Y011001D01*
X003454Y010955D01*
X003380Y010899D01*
X003380Y010899D01*
X003380Y011845D01*
X003380Y011844D01*
X003454Y011788D01*
X003534Y011742D01*
X003619Y011707D01*
X003708Y011683D01*
X003766Y011675D01*
X003766Y012296D01*
X003926Y012296D01*
X003926Y012456D01*
X003766Y012456D01*
X003766Y013076D01*
X003708Y013068D01*
X003619Y013045D01*
X003534Y013009D01*
X003454Y012963D01*
X003380Y012907D01*
X003380Y012906D01*
X003380Y013774D01*
X003380Y013774D01*
X003454Y013717D01*
X003534Y013671D01*
X003619Y013636D01*
X003708Y013612D01*
X003766Y013604D01*
X003766Y014225D01*
X003926Y014225D01*
X003926Y014385D01*
X003766Y014385D01*
X003766Y015005D01*
X003708Y014998D01*
X003619Y014974D01*
X003534Y014938D01*
X003454Y014892D01*
X003380Y014836D01*
X003380Y014836D01*
X003380Y015782D01*
X003380Y015781D01*
X003454Y015725D01*
X003534Y015679D01*
X003619Y015644D01*
X003708Y015620D01*
X003766Y015612D01*
X003766Y016233D01*
X003926Y016233D01*
X003926Y016393D01*
X003766Y016393D01*
X003766Y017013D01*
X003708Y017005D01*
X003619Y016982D01*
X003534Y016946D01*
X003454Y016900D01*
X003380Y016844D01*
X003380Y016843D01*
X003380Y017687D01*
X003422Y017654D01*
X003502Y017608D01*
X003588Y017573D01*
X003677Y017549D01*
X003735Y017541D01*
X003735Y018162D01*
X003895Y018162D01*
X003895Y018322D01*
X004515Y018322D01*
X004508Y018380D01*
X004484Y018469D01*
X004448Y018554D01*
X004402Y018634D01*
X004346Y018708D01*
X004280Y018773D01*
X004207Y018829D01*
X004127Y018875D01*
X004042Y018911D01*
X003952Y018935D01*
X003895Y018942D01*
X003895Y018322D01*
X003735Y018322D01*
X003735Y018942D01*
X003677Y018935D01*
X003588Y018911D01*
X003502Y018875D01*
X003422Y018829D01*
X003380Y018797D01*
X003380Y019694D01*
X003422Y019662D01*
X003502Y019616D01*
X003588Y019581D01*
X003677Y019557D01*
X003735Y019549D01*
X003735Y020170D01*
X003895Y020170D01*
X003895Y020330D01*
X004515Y020330D01*
X004508Y020387D01*
X004484Y020477D01*
X004448Y020562D01*
X004402Y020642D01*
X004346Y020715D01*
X004280Y020781D01*
X004207Y020837D01*
X004131Y020881D01*
X005506Y020881D01*
X005430Y020837D01*
X005357Y020781D01*
X005291Y020715D01*
X005235Y020642D01*
X005189Y020562D01*
X005153Y020477D01*
X005129Y020387D01*
X005122Y020330D01*
X005742Y020330D01*
X005742Y020170D01*
X005122Y020170D01*
X005129Y020112D01*
X005153Y020022D01*
X005189Y019937D01*
X005235Y019857D01*
X005291Y019784D01*
X005357Y019718D01*
X005430Y019662D01*
X005447Y019653D01*
X005168Y019653D01*
X005122Y019699D01*
X004925Y019781D01*
X004712Y019781D01*
X004515Y019699D01*
X004365Y019549D01*
X004284Y019352D01*
X004284Y019139D01*
X004365Y018943D01*
X004515Y018792D01*
X004712Y018711D01*
X004925Y018711D01*
X005122Y018792D01*
X005272Y018943D01*
X005354Y019139D01*
X005354Y019233D01*
X008336Y019233D01*
X008476Y019093D01*
X008824Y019093D01*
X009070Y019339D01*
X009070Y019687D01*
X008824Y019933D01*
X008769Y019933D01*
X008769Y020610D01*
X010220Y020610D01*
X010343Y020733D01*
X010737Y021127D01*
X010737Y024867D01*
X013972Y028102D01*
X013997Y028078D01*
X014161Y028009D01*
X014339Y028009D01*
X014503Y028078D01*
X014629Y028203D01*
X014697Y028368D01*
X014697Y028832D01*
X014629Y028997D01*
X014526Y029100D01*
X014629Y029203D01*
X014697Y029368D01*
X014697Y029832D01*
X014629Y029997D01*
X014556Y030070D01*
X014944Y030070D01*
X014871Y029997D01*
X014803Y029832D01*
X014803Y029368D01*
X014871Y029203D01*
X014974Y029100D01*
X014871Y028997D01*
X014803Y028832D01*
X014803Y028368D01*
X014871Y028203D01*
X014997Y028078D01*
X015042Y028059D01*
X015042Y027230D01*
X015165Y027107D01*
X017300Y027107D01*
X017254Y026994D01*
X017254Y026851D01*
X017309Y026719D01*
X017410Y026618D01*
X017542Y026563D01*
X017677Y026563D01*
X021144Y023096D01*
X021144Y022588D01*
X021030Y022474D01*
X021030Y022126D01*
X021276Y021880D01*
X021624Y021880D01*
X021870Y022126D01*
X021870Y022474D01*
X021624Y022720D01*
X021564Y022720D01*
X021564Y023270D01*
X017974Y026860D01*
X017974Y026994D01*
X017927Y027107D01*
X019298Y027107D01*
X019880Y026525D01*
X019880Y026226D01*
X020126Y025980D01*
X020474Y025980D01*
X020720Y026226D01*
X020720Y026574D01*
X020474Y026820D01*
X020179Y026820D01*
X019696Y027303D01*
X021267Y027303D01*
X022013Y026557D01*
X021980Y026524D01*
X021980Y026176D01*
X022226Y025930D01*
X022574Y025930D01*
X022820Y026176D01*
X022820Y026524D01*
X022574Y026770D01*
X022394Y026770D01*
X021564Y027600D01*
X021441Y027723D01*
X017430Y027723D01*
X017430Y028047D01*
X017503Y028078D01*
X017629Y028203D01*
X017697Y028368D01*
X017697Y028832D01*
X017629Y028997D01*
X017526Y029100D01*
X017629Y029203D01*
X017697Y029368D01*
X017697Y029832D01*
X017629Y029997D01*
X017556Y030070D01*
X017944Y030070D01*
X017871Y029997D01*
X017803Y029832D01*
X017803Y029368D01*
X017871Y029203D01*
X017974Y029100D01*
X017871Y028997D01*
X017803Y028832D01*
X017803Y028368D01*
X017871Y028203D01*
X017997Y028078D01*
X018161Y028009D01*
X018339Y028009D01*
X018503Y028078D01*
X018629Y028203D01*
X018697Y028368D01*
X018697Y028832D01*
X018629Y028997D01*
X018526Y029100D01*
X018629Y029203D01*
X018697Y029368D01*
X018697Y029832D01*
X018629Y029997D01*
X018556Y030070D01*
X018944Y030070D01*
X018871Y029997D01*
X018803Y029832D01*
X018803Y029368D01*
X018871Y029203D01*
X018974Y029100D01*
X018871Y028997D01*
X018803Y028832D01*
X018803Y028368D01*
X018871Y028203D01*
X018997Y028078D01*
X019161Y028009D01*
X019339Y028009D01*
X019503Y028078D01*
X019629Y028203D01*
X019697Y028368D01*
X019697Y028832D01*
X019629Y028997D01*
X019526Y029100D01*
X019629Y029203D01*
X019697Y029368D01*
X019697Y029832D01*
X019629Y029997D01*
X019556Y030070D01*
X020544Y030070D01*
X020471Y029997D01*
X020403Y029832D01*
X020403Y029368D01*
X020471Y029203D01*
X020553Y029121D01*
X020553Y029079D01*
X020471Y028997D01*
X020403Y028832D01*
X020403Y028368D01*
X020471Y028203D01*
X020597Y028078D01*
X020761Y028009D01*
X020939Y028009D01*
X021103Y028078D01*
X021229Y028203D01*
X021297Y028368D01*
X021297Y028832D01*
X021229Y028997D01*
X021126Y029100D01*
X021229Y029203D01*
X021297Y029368D01*
X021297Y029832D01*
X021229Y029997D01*
X021156Y030070D01*
X021544Y030070D01*
X021471Y029997D01*
X021403Y029832D01*
X021403Y029368D01*
X021471Y029203D01*
X021574Y029100D01*
X021471Y028997D01*
X021403Y028832D01*
X021403Y028368D01*
X021471Y028203D01*
X021597Y028078D01*
X021761Y028009D01*
X021939Y028009D01*
X022103Y028078D01*
X022229Y028203D01*
X022297Y028368D01*
X022297Y028832D01*
X022229Y028997D01*
X022154Y029071D01*
X022154Y029129D01*
X022229Y029203D01*
X022297Y029368D01*
X022297Y029832D01*
X022229Y029997D01*
X022156Y030070D01*
X022544Y030070D01*
X022471Y029997D01*
X022403Y029832D01*
X022403Y029368D01*
X022471Y029203D01*
X022574Y029100D01*
X022471Y028997D01*
X022403Y028832D01*
X022403Y028368D01*
X022471Y028203D01*
X022597Y028078D01*
X022761Y028009D01*
X022939Y028009D01*
X023103Y028078D01*
X023229Y028203D01*
X023297Y028368D01*
X023297Y028832D01*
X023229Y028997D01*
X023126Y029100D01*
X023229Y029203D01*
X023297Y029368D01*
X023297Y029832D01*
X023229Y029997D01*
X023156Y030070D01*
X023544Y030070D01*
X023471Y029997D01*
X023403Y029832D01*
X023403Y029368D01*
X023471Y029203D01*
X023574Y029100D01*
X023471Y028997D01*
X023403Y028832D01*
X023403Y028368D01*
X023471Y028203D01*
X023597Y028078D01*
X023761Y028009D01*
X023939Y028009D01*
X024103Y028078D01*
X024229Y028203D01*
X024297Y028368D01*
X024297Y028832D01*
X024229Y028997D01*
X024126Y029100D01*
X024229Y029203D01*
X024297Y029368D01*
X024297Y029832D01*
X024229Y029997D01*
X024156Y030070D01*
X024544Y030070D01*
X024471Y029997D01*
X024403Y029832D01*
X024403Y029368D01*
X024471Y029203D01*
X024574Y029100D01*
X024471Y028997D01*
X024403Y028832D01*
X024403Y028368D01*
X024471Y028203D01*
X024597Y028078D01*
X024761Y028009D01*
X024939Y028009D01*
X025103Y028078D01*
X025229Y028203D01*
X025297Y028368D01*
X025297Y028832D01*
X025229Y028997D01*
X025126Y029100D01*
X025229Y029203D01*
X025297Y029368D01*
X025297Y029832D01*
X025229Y029997D01*
X025156Y030070D01*
X025544Y030070D01*
X025471Y029997D01*
X025403Y029832D01*
X025403Y029368D01*
X025471Y029203D01*
X025574Y029100D01*
X025471Y028997D01*
X025403Y028832D01*
X025403Y028368D01*
X025471Y028203D01*
X025597Y028078D01*
X025761Y028009D01*
X025939Y028009D01*
X026103Y028078D01*
X026229Y028203D01*
X026297Y028368D01*
X026297Y028832D01*
X026229Y028997D01*
X026126Y029100D01*
X026229Y029203D01*
X026297Y029368D01*
X026297Y029832D01*
X026229Y029997D01*
X026156Y030070D01*
X026544Y030070D01*
X026471Y029997D01*
X026403Y029832D01*
X026403Y029368D01*
X026471Y029203D01*
X026574Y029100D01*
X026471Y028997D01*
X026403Y028832D01*
X026403Y028368D01*
X026471Y028203D01*
X026597Y028078D01*
X026761Y028009D01*
X026939Y028009D01*
X027103Y028078D01*
X027229Y028203D01*
X027297Y028368D01*
X027297Y028832D01*
X027229Y028997D01*
X027126Y029100D01*
X027229Y029203D01*
X027297Y029368D01*
X027297Y029832D01*
X027229Y029997D01*
X027156Y030070D01*
X027544Y030070D01*
X027471Y029997D01*
X027403Y029832D01*
X027403Y029368D01*
X027471Y029203D01*
X027574Y029100D01*
X027471Y028997D01*
X027403Y028832D01*
X027403Y028368D01*
X027471Y028203D01*
X027597Y028078D01*
X027761Y028009D01*
X027939Y028009D01*
X028103Y028078D01*
X028229Y028203D01*
X028297Y028368D01*
X028297Y028832D01*
X028229Y028997D01*
X028126Y029100D01*
X028229Y029203D01*
X028297Y029368D01*
X028297Y029803D01*
X028320Y029780D01*
X028320Y025395D01*
X028401Y025200D01*
X028550Y025051D01*
X028891Y024710D01*
X028704Y024710D01*
X028422Y024634D01*
X028168Y024488D01*
X027962Y024282D01*
X027816Y024028D01*
X027740Y023746D01*
X027740Y023454D01*
X027816Y023172D01*
X027962Y022918D01*
X028168Y022712D01*
X028422Y022566D01*
X028704Y022490D01*
X028996Y022490D01*
X029278Y022566D01*
X029320Y022590D01*
X029320Y021838D01*
X029093Y022065D01*
X028707Y022065D01*
X028435Y021793D01*
X028435Y021407D01*
X028707Y021135D01*
X029093Y021135D01*
X029320Y021362D01*
X029320Y020838D01*
X029093Y021065D01*
X028707Y021065D01*
X028435Y020793D01*
X028435Y020407D01*
X028707Y020135D01*
X029093Y020135D01*
X029320Y020362D01*
X029320Y019866D01*
X029101Y020085D01*
X028914Y020085D01*
X028914Y019614D01*
X028886Y019614D01*
X028886Y020085D01*
X028699Y020085D01*
X028415Y019801D01*
X028415Y019614D01*
X028886Y019614D01*
X028886Y019586D01*
X028914Y019586D01*
X028914Y019115D01*
X029101Y019115D01*
X029320Y019334D01*
X029320Y013610D01*
X029278Y013634D01*
X028996Y013710D01*
X028704Y013710D01*
X028422Y013634D01*
X028168Y013488D01*
X027962Y013282D01*
X027816Y013028D01*
X027785Y012915D01*
X027740Y012960D01*
X025772Y012960D01*
X025651Y013080D01*
X025651Y013215D01*
X025596Y013347D01*
X025495Y013448D01*
X025363Y013503D01*
X025219Y013503D01*
X025107Y013457D01*
X025107Y015222D01*
X025378Y015492D01*
X025501Y015615D01*
X025501Y016377D01*
X025606Y016482D01*
X025670Y016636D01*
X025670Y017064D01*
X025606Y017218D01*
X025501Y017323D01*
X025501Y017758D01*
X025378Y017881D01*
X025299Y017960D01*
X025300Y017960D01*
X025482Y017960D01*
X025740Y018218D01*
X025740Y018400D01*
X025740Y018582D01*
X025482Y018840D01*
X025379Y018840D01*
X025501Y018962D01*
X025501Y022007D01*
X025615Y022122D02*
X029320Y022122D01*
X029320Y022280D02*
X025720Y022280D01*
X025720Y022439D02*
X029320Y022439D01*
X029320Y021963D02*
X029195Y021963D01*
X028605Y021963D02*
X028195Y021963D01*
X028093Y022065D02*
X027707Y022065D01*
X027435Y021793D01*
X027435Y021407D01*
X027707Y021135D01*
X028093Y021135D01*
X028365Y021407D01*
X028365Y021793D01*
X028093Y022065D01*
X028353Y021805D02*
X028447Y021805D01*
X028435Y021646D02*
X028365Y021646D01*
X028365Y021488D02*
X028435Y021488D01*
X028513Y021329D02*
X028287Y021329D01*
X028128Y021171D02*
X028672Y021171D01*
X028654Y021012D02*
X028146Y021012D01*
X028093Y021065D02*
X027707Y021065D01*
X027435Y020793D01*
X027435Y020407D01*
X027707Y020135D01*
X028093Y020135D01*
X028365Y020407D01*
X028365Y020793D01*
X028093Y021065D01*
X028304Y020854D02*
X028496Y020854D01*
X028435Y020695D02*
X028365Y020695D01*
X028365Y020537D02*
X028435Y020537D01*
X028464Y020378D02*
X028336Y020378D01*
X028177Y020220D02*
X028623Y020220D01*
X028675Y020061D02*
X028097Y020061D01*
X028093Y020065D02*
X027707Y020065D01*
X027435Y019793D01*
X027435Y019407D01*
X027707Y019135D01*
X028093Y019135D01*
X028365Y019407D01*
X028365Y019793D01*
X028093Y020065D01*
X028255Y019903D02*
X028516Y019903D01*
X028415Y019744D02*
X028365Y019744D01*
X028365Y019586D02*
X028415Y019586D01*
X028415Y019399D01*
X028699Y019115D01*
X028886Y019115D01*
X028886Y019586D01*
X028914Y019586D01*
X028886Y019586D02*
X028415Y019586D01*
X028415Y019427D02*
X028365Y019427D01*
X028226Y019269D02*
X028545Y019269D01*
X028886Y019269D02*
X028914Y019269D01*
X028914Y019427D02*
X028886Y019427D01*
X028886Y019744D02*
X028914Y019744D01*
X028914Y019903D02*
X028886Y019903D01*
X028886Y020061D02*
X028914Y020061D01*
X029125Y020061D02*
X029320Y020061D01*
X029320Y019903D02*
X029284Y019903D01*
X029320Y020220D02*
X029177Y020220D01*
X029304Y020854D02*
X029320Y020854D01*
X029320Y021012D02*
X029146Y021012D01*
X029128Y021171D02*
X029320Y021171D01*
X029320Y021329D02*
X029287Y021329D01*
X027672Y021171D02*
X025501Y021171D01*
X025501Y021329D02*
X027513Y021329D01*
X027435Y021488D02*
X025501Y021488D01*
X025501Y021646D02*
X027435Y021646D01*
X027447Y021805D02*
X025501Y021805D01*
X025501Y021012D02*
X027654Y021012D01*
X027496Y020854D02*
X025501Y020854D01*
X025501Y020695D02*
X027435Y020695D01*
X027435Y020537D02*
X025501Y020537D01*
X025501Y020378D02*
X027464Y020378D01*
X027623Y020220D02*
X025501Y020220D01*
X025501Y020061D02*
X027703Y020061D01*
X027545Y019903D02*
X025501Y019903D01*
X025501Y019744D02*
X027435Y019744D01*
X027435Y019586D02*
X025501Y019586D01*
X025501Y019427D02*
X027435Y019427D01*
X027574Y019269D02*
X025501Y019269D01*
X025501Y019110D02*
X029320Y019110D01*
X029320Y018952D02*
X025491Y018952D01*
X025529Y018793D02*
X029320Y018793D01*
X029320Y018635D02*
X025688Y018635D01*
X025740Y018476D02*
X029320Y018476D01*
X029320Y018318D02*
X025740Y018318D01*
X025740Y018400D02*
X025300Y018400D01*
X025740Y018400D01*
X025681Y018159D02*
X029320Y018159D01*
X029320Y018001D02*
X025523Y018001D01*
X025417Y017842D02*
X029320Y017842D01*
X029320Y017684D02*
X025501Y017684D01*
X025501Y017525D02*
X029320Y017525D01*
X029320Y017367D02*
X026461Y017367D01*
X026481Y017356D02*
X026419Y017388D01*
X026353Y017409D01*
X026285Y017420D01*
X026250Y017420D01*
X026250Y016850D01*
X026690Y016850D01*
X026690Y017015D01*
X026679Y017083D01*
X026658Y017149D01*
X026626Y017211D01*
X026586Y017267D01*
X026537Y017316D01*
X026481Y017356D01*
X026628Y017208D02*
X029320Y017208D01*
X029320Y017050D02*
X026684Y017050D01*
X026690Y016891D02*
X029320Y016891D01*
X029320Y016733D02*
X026690Y016733D01*
X026690Y016685D02*
X026690Y016850D01*
X026250Y016850D01*
X026250Y016850D01*
X026250Y016850D01*
X026250Y016280D01*
X026285Y016280D01*
X026353Y016291D01*
X026419Y016312D01*
X026481Y016344D01*
X026537Y016384D01*
X026586Y016433D01*
X026626Y016489D01*
X026658Y016551D01*
X026679Y016617D01*
X026690Y016685D01*
X026665Y016574D02*
X029320Y016574D01*
X029320Y016416D02*
X026568Y016416D01*
X026250Y016416D02*
X026250Y016416D01*
X026250Y016280D02*
X026250Y016850D01*
X026250Y016850D01*
X026250Y016850D01*
X025810Y016850D01*
X025810Y017015D01*
X025821Y017083D01*
X025842Y017149D01*
X025874Y017211D01*
X025914Y017267D01*
X025963Y017316D01*
X026019Y017356D01*
X026081Y017388D01*
X026147Y017409D01*
X026215Y017420D01*
X026250Y017420D01*
X026250Y016850D01*
X025810Y016850D01*
X025810Y016685D01*
X025821Y016617D01*
X025842Y016551D01*
X025874Y016489D01*
X025914Y016433D01*
X025963Y016384D01*
X026019Y016344D01*
X026081Y016312D01*
X026147Y016291D01*
X026215Y016280D01*
X026250Y016280D01*
X026250Y016574D02*
X026250Y016574D01*
X026250Y016733D02*
X026250Y016733D01*
X026250Y016891D02*
X026250Y016891D01*
X026250Y017050D02*
X026250Y017050D01*
X026250Y017208D02*
X026250Y017208D01*
X026250Y017367D02*
X026250Y017367D01*
X026039Y017367D02*
X025501Y017367D01*
X025610Y017208D02*
X025872Y017208D01*
X025816Y017050D02*
X025670Y017050D01*
X025670Y016891D02*
X025810Y016891D01*
X025810Y016733D02*
X025670Y016733D01*
X025644Y016574D02*
X025835Y016574D01*
X025932Y016416D02*
X025539Y016416D01*
X025501Y016257D02*
X029320Y016257D01*
X029320Y016099D02*
X025501Y016099D01*
X025501Y015940D02*
X029320Y015940D01*
X029320Y015782D02*
X025501Y015782D01*
X025501Y015623D02*
X029320Y015623D01*
X029320Y015465D02*
X025350Y015465D01*
X025378Y015492D02*
X025378Y015492D01*
X025192Y015306D02*
X029320Y015306D01*
X029320Y015148D02*
X025107Y015148D01*
X025107Y014989D02*
X029320Y014989D01*
X029320Y014831D02*
X025107Y014831D01*
X025107Y014672D02*
X029320Y014672D01*
X029320Y014514D02*
X025107Y014514D01*
X025107Y014355D02*
X029320Y014355D01*
X029320Y014197D02*
X025107Y014197D01*
X025107Y014038D02*
X029320Y014038D01*
X029320Y013880D02*
X025107Y013880D01*
X025107Y013721D02*
X029320Y013721D01*
X028297Y013563D02*
X025107Y013563D01*
X025539Y013404D02*
X028084Y013404D01*
X027941Y013246D02*
X025638Y013246D01*
X025651Y013087D02*
X027850Y013087D01*
X027789Y012929D02*
X027771Y012929D01*
X022202Y016257D02*
X012286Y016257D01*
X012259Y016099D02*
X022044Y016099D01*
X021885Y015940D02*
X012358Y015940D01*
X012517Y015782D02*
X021727Y015782D01*
X021568Y015623D02*
X012675Y015623D01*
X012706Y015465D02*
X021410Y015465D01*
X021251Y015306D02*
X012706Y015306D01*
X012706Y015148D02*
X021093Y015148D01*
X020934Y014989D02*
X012706Y014989D01*
X012706Y014831D02*
X020776Y014831D01*
X020617Y014672D02*
X012706Y014672D01*
X012706Y014514D02*
X020459Y014514D01*
X020300Y014355D02*
X012706Y014355D01*
X012706Y014197D02*
X020142Y014197D01*
X019983Y014038D02*
X012706Y014038D01*
X012844Y013880D02*
X019825Y013880D01*
X019666Y013721D02*
X013002Y013721D01*
X013161Y013563D02*
X019508Y013563D01*
X019349Y013404D02*
X013319Y013404D01*
X013478Y013246D02*
X018388Y013246D01*
X018808Y013246D02*
X019191Y013246D01*
X019032Y013087D02*
X018929Y013087D01*
X017851Y013087D02*
X013636Y013087D01*
X013124Y012612D02*
X011750Y012612D01*
X011763Y012814D02*
X011937Y012814D01*
X012097Y012881D01*
X012219Y013003D01*
X012286Y013163D01*
X012286Y013337D01*
X012219Y013497D01*
X012097Y013619D01*
X011937Y013686D01*
X011763Y013686D01*
X011603Y013619D01*
X011481Y013497D01*
X011414Y013337D01*
X011414Y013163D01*
X011481Y013003D01*
X011603Y012881D01*
X011763Y012814D01*
X011591Y012770D02*
X012966Y012770D01*
X012807Y012929D02*
X012145Y012929D01*
X012254Y013087D02*
X012649Y013087D01*
X012490Y013246D02*
X012286Y013246D01*
X012258Y013404D02*
X012332Y013404D01*
X012173Y013563D02*
X012154Y013563D01*
X012015Y013721D02*
X010640Y013721D01*
X010482Y013880D02*
X011606Y013880D01*
X011466Y014038D02*
X010323Y014038D01*
X010165Y014197D02*
X011414Y014197D01*
X011422Y014355D02*
X010006Y014355D01*
X009848Y014514D02*
X011497Y014514D01*
X011731Y014672D02*
X009689Y014672D01*
X009531Y014831D02*
X011670Y014831D01*
X011850Y014831D02*
X011850Y014831D01*
X011850Y014989D02*
X011850Y014989D01*
X011850Y015148D02*
X011850Y015148D01*
X011850Y015250D02*
X011850Y015250D01*
X011850Y015250D01*
X011394Y015250D01*
X011850Y015250D01*
X011850Y015306D02*
X011850Y015306D01*
X011850Y015465D02*
X011850Y015465D01*
X011850Y015623D02*
X011850Y015623D01*
X011923Y015782D02*
X008738Y015782D01*
X008771Y015814D02*
X008937Y015814D01*
X009097Y015881D01*
X009219Y016003D01*
X009286Y016163D01*
X009286Y016337D01*
X009219Y016497D01*
X009097Y016619D01*
X008937Y016686D01*
X008763Y016686D01*
X008603Y016619D01*
X008481Y016497D01*
X008414Y016337D01*
X008414Y016163D01*
X008447Y016085D01*
X007881Y015519D01*
X005342Y015519D01*
X005304Y015612D01*
X005153Y015762D01*
X004956Y015844D01*
X004744Y015844D01*
X004547Y015762D01*
X004396Y015612D01*
X004315Y015415D01*
X004315Y015202D01*
X004396Y015006D01*
X004547Y014855D01*
X004744Y014774D01*
X004956Y014774D01*
X005153Y014855D01*
X005304Y015006D01*
X005342Y015099D01*
X008055Y015099D01*
X008178Y015222D01*
X008771Y015814D01*
X008612Y015623D02*
X008579Y015623D01*
X008467Y015465D02*
X008421Y015465D01*
X008414Y015306D02*
X008262Y015306D01*
X008104Y015148D02*
X008421Y015148D01*
X008495Y014989D02*
X006024Y014989D01*
X005992Y014998D02*
X005934Y015005D01*
X005934Y014385D01*
X005774Y014385D01*
X005774Y015005D01*
X005716Y014998D01*
X005627Y014974D01*
X005541Y014938D01*
X005461Y014892D01*
X005388Y014836D01*
X005323Y014771D01*
X005266Y014697D01*
X005220Y014617D01*
X005185Y014532D01*
X005161Y014443D01*
X005153Y014385D01*
X005774Y014385D01*
X005774Y014225D01*
X005153Y014225D01*
X005161Y014167D01*
X005185Y014078D01*
X005220Y013992D01*
X005266Y013912D01*
X005323Y013839D01*
X005388Y013774D01*
X005461Y013717D01*
X005541Y013671D01*
X005627Y013636D01*
X005716Y013612D01*
X005774Y013604D01*
X005774Y014225D01*
X005934Y014225D01*
X005934Y014385D01*
X006554Y014385D01*
X006547Y014443D01*
X006523Y014532D01*
X006488Y014617D01*
X006441Y014697D01*
X006385Y014771D01*
X006320Y014836D01*
X006246Y014892D01*
X006166Y014938D01*
X006081Y014974D01*
X005992Y014998D01*
X005934Y014989D02*
X005774Y014989D01*
X005684Y014989D02*
X005287Y014989D01*
X005383Y014831D02*
X005094Y014831D01*
X005252Y014672D02*
X004448Y014672D01*
X004434Y014697D02*
X004377Y014771D01*
X004312Y014836D01*
X004239Y014892D01*
X004159Y014938D01*
X004073Y014974D01*
X003984Y014998D01*
X003926Y015005D01*
X003926Y014385D01*
X004547Y014385D01*
X004539Y014443D01*
X004515Y014532D01*
X004480Y014617D01*
X004434Y014697D01*
X004317Y014831D02*
X004606Y014831D01*
X004413Y014989D02*
X004016Y014989D01*
X003926Y014989D02*
X003766Y014989D01*
X003676Y014989D02*
X003380Y014989D01*
X003380Y015148D02*
X004338Y015148D01*
X004315Y015306D02*
X003380Y015306D01*
X003380Y015465D02*
X004335Y015465D01*
X004408Y015623D02*
X003997Y015623D01*
X003984Y015620D02*
X004073Y015644D01*
X004159Y015679D01*
X004239Y015725D01*
X004312Y015781D01*
X004377Y015847D01*
X004434Y015920D01*
X004480Y016000D01*
X004515Y016085D01*
X004539Y016175D01*
X004547Y016233D01*
X003926Y016233D01*
X003926Y015612D01*
X003984Y015620D01*
X003926Y015623D02*
X003766Y015623D01*
X003696Y015623D02*
X003380Y015623D01*
X003380Y015782D02*
X003380Y015782D01*
X003766Y015782D02*
X003926Y015782D01*
X003926Y015940D02*
X003766Y015940D01*
X003766Y016099D02*
X003926Y016099D01*
X003926Y016257D02*
X005774Y016257D01*
X005774Y016233D02*
X005153Y016233D01*
X005161Y016175D01*
X005185Y016085D01*
X005220Y016000D01*
X005266Y015920D01*
X005323Y015847D01*
X005388Y015781D01*
X005461Y015725D01*
X005541Y015679D01*
X005627Y015644D01*
X005716Y015620D01*
X005774Y015612D01*
X005774Y016233D01*
X005774Y016393D01*
X005774Y017013D01*
X005716Y017005D01*
X005627Y016982D01*
X005541Y016946D01*
X005461Y016900D01*
X005388Y016844D01*
X005323Y016778D01*
X005266Y016705D01*
X005220Y016625D01*
X005185Y016540D01*
X005161Y016450D01*
X005153Y016393D01*
X005774Y016393D01*
X005934Y016393D01*
X005934Y017013D01*
X005992Y017005D01*
X006081Y016982D01*
X006166Y016946D01*
X006246Y016900D01*
X006320Y016844D01*
X006385Y016778D01*
X006441Y016705D01*
X006488Y016625D01*
X006523Y016540D01*
X006547Y016450D01*
X006554Y016393D01*
X005934Y016393D01*
X005934Y016233D01*
X006554Y016233D01*
X006547Y016175D01*
X006523Y016085D01*
X006488Y016000D01*
X006441Y015920D01*
X006385Y015847D01*
X006320Y015781D01*
X006246Y015725D01*
X006166Y015679D01*
X006081Y015644D01*
X005992Y015620D01*
X005934Y015612D01*
X005934Y016233D01*
X005774Y016233D01*
X005774Y016099D02*
X005934Y016099D01*
X005934Y016257D02*
X008414Y016257D01*
X008441Y016099D02*
X006526Y016099D01*
X006453Y015940D02*
X008302Y015940D01*
X008144Y015782D02*
X006320Y015782D01*
X006004Y015623D02*
X007985Y015623D01*
X009088Y015623D02*
X011588Y015623D01*
X011448Y015465D02*
X009233Y015465D01*
X009286Y015306D02*
X011398Y015306D01*
X011405Y015148D02*
X009279Y015148D01*
X009372Y014989D02*
X011476Y014989D01*
X012030Y014831D02*
X012286Y014831D01*
X012286Y014989D02*
X012224Y014989D01*
X012286Y014672D02*
X011969Y014672D01*
X012203Y014514D02*
X012286Y014514D01*
X012278Y014355D02*
X012286Y014355D01*
X012286Y014197D02*
X012286Y014197D01*
X011546Y013563D02*
X010799Y013563D01*
X010957Y013404D02*
X011442Y013404D01*
X011414Y013246D02*
X011116Y013246D01*
X011274Y013087D02*
X011446Y013087D01*
X011433Y012929D02*
X011555Y012929D01*
X011156Y012612D02*
X007536Y012612D01*
X007695Y012770D02*
X010997Y012770D01*
X010839Y012929D02*
X009145Y012929D01*
X009097Y012881D02*
X009219Y013003D01*
X009286Y013163D01*
X009286Y013337D01*
X009219Y013497D01*
X009097Y013619D01*
X008937Y013686D01*
X008763Y013686D01*
X008603Y013619D01*
X008481Y013497D01*
X008414Y013337D01*
X008414Y013163D01*
X008481Y013003D01*
X008603Y012881D01*
X008763Y012814D01*
X008937Y012814D01*
X009097Y012881D01*
X009254Y013087D02*
X010680Y013087D01*
X010522Y013246D02*
X009286Y013246D01*
X009258Y013404D02*
X010363Y013404D01*
X010205Y013563D02*
X009154Y013563D01*
X009094Y013880D02*
X009888Y013880D01*
X009729Y014038D02*
X009234Y014038D01*
X009219Y014003D02*
X009286Y014163D01*
X009286Y014337D01*
X009219Y014497D01*
X009097Y014619D01*
X008937Y014686D01*
X008763Y014686D01*
X008603Y014619D01*
X008481Y014497D01*
X008414Y014337D01*
X008414Y014163D01*
X008438Y014107D01*
X006539Y012208D01*
X006547Y012238D01*
X006554Y012296D01*
X005934Y012296D01*
X005934Y012456D01*
X005774Y012456D01*
X005774Y013076D01*
X005716Y013068D01*
X005627Y013045D01*
X005541Y013009D01*
X005461Y012963D01*
X005388Y012907D01*
X005323Y012841D01*
X005266Y012768D01*
X005220Y012688D01*
X005185Y012603D01*
X005161Y012513D01*
X005153Y012456D01*
X005774Y012456D01*
X005774Y012296D01*
X005153Y012296D01*
X005161Y012238D01*
X005185Y012148D01*
X005220Y012063D01*
X005266Y011983D01*
X005323Y011910D01*
X005388Y011844D01*
X005461Y011788D01*
X005541Y011742D01*
X005627Y011707D01*
X005716Y011683D01*
X005774Y011675D01*
X005774Y012296D01*
X005934Y012296D01*
X005934Y011675D01*
X005992Y011683D01*
X006022Y011691D01*
X005913Y011582D01*
X005342Y011582D01*
X005304Y011675D01*
X005153Y011825D01*
X004956Y011907D01*
X004744Y011907D01*
X004547Y011825D01*
X004396Y011675D01*
X004315Y011478D01*
X004315Y011265D01*
X004396Y011069D01*
X004547Y010918D01*
X004744Y010837D01*
X004956Y010837D01*
X005153Y010918D01*
X005304Y011069D01*
X005342Y011162D01*
X006087Y011162D01*
X006210Y011285D01*
X008746Y013821D01*
X008763Y013814D01*
X008937Y013814D01*
X009097Y013881D01*
X009219Y014003D01*
X009286Y014197D02*
X009571Y014197D01*
X009412Y014355D02*
X009278Y014355D01*
X009254Y014514D02*
X009203Y014514D01*
X009095Y014672D02*
X008969Y014672D01*
X008731Y014672D02*
X006456Y014672D01*
X006528Y014514D02*
X008497Y014514D01*
X008422Y014355D02*
X005934Y014355D01*
X005934Y014225D02*
X006554Y014225D01*
X006547Y014167D01*
X006523Y014078D01*
X006488Y013992D01*
X006441Y013912D01*
X006385Y013839D01*
X006320Y013774D01*
X006246Y013717D01*
X006166Y013671D01*
X006081Y013636D01*
X005992Y013612D01*
X005934Y013604D01*
X005934Y014225D01*
X005934Y014197D02*
X005774Y014197D01*
X005774Y014355D02*
X003926Y014355D01*
X003926Y014225D02*
X004547Y014225D01*
X004539Y014167D01*
X004515Y014078D01*
X004480Y013992D01*
X004434Y013912D01*
X004377Y013839D01*
X004312Y013774D01*
X004239Y013717D01*
X004159Y013671D01*
X004073Y013636D01*
X003984Y013612D01*
X003926Y013604D01*
X003926Y014225D01*
X003926Y014197D02*
X003766Y014197D01*
X003766Y014038D02*
X003926Y014038D01*
X003926Y013880D02*
X003766Y013880D01*
X003766Y013721D02*
X003926Y013721D01*
X004243Y013721D02*
X005457Y013721D01*
X005292Y013880D02*
X004408Y013880D01*
X004499Y014038D02*
X005201Y014038D01*
X005157Y014197D02*
X004543Y014197D01*
X004520Y014514D02*
X005180Y014514D01*
X005774Y014514D02*
X005934Y014514D01*
X005934Y014672D02*
X005774Y014672D01*
X005774Y014831D02*
X005934Y014831D01*
X006325Y014831D02*
X008724Y014831D01*
X008414Y014197D02*
X006551Y014197D01*
X006506Y014038D02*
X008369Y014038D01*
X008210Y013880D02*
X006416Y013880D01*
X006251Y013721D02*
X008052Y013721D01*
X007893Y013563D02*
X003380Y013563D01*
X003380Y013721D02*
X003449Y013721D01*
X003380Y013404D02*
X007735Y013404D01*
X007576Y013246D02*
X003380Y013246D01*
X003380Y013087D02*
X007418Y013087D01*
X007259Y012929D02*
X006291Y012929D01*
X006320Y012907D02*
X006246Y012963D01*
X006166Y013009D01*
X006081Y013045D01*
X005992Y013068D01*
X005934Y013076D01*
X005934Y012456D01*
X006554Y012456D01*
X006547Y012513D01*
X006523Y012603D01*
X006488Y012688D01*
X006441Y012768D01*
X006385Y012841D01*
X006320Y012907D01*
X006440Y012770D02*
X007101Y012770D01*
X006942Y012612D02*
X006519Y012612D01*
X006784Y012453D02*
X005934Y012453D01*
X005934Y012295D02*
X005774Y012295D01*
X005774Y012453D02*
X003926Y012453D01*
X003926Y012456D02*
X004547Y012456D01*
X004539Y012513D01*
X004515Y012603D01*
X004480Y012688D01*
X004434Y012768D01*
X004377Y012841D01*
X004312Y012907D01*
X004239Y012963D01*
X004159Y013009D01*
X004073Y013045D01*
X003984Y013068D01*
X003926Y013076D01*
X003926Y012456D01*
X003926Y012612D02*
X003766Y012612D01*
X003766Y012770D02*
X003926Y012770D01*
X003926Y012929D02*
X003766Y012929D01*
X003409Y012929D02*
X003380Y012929D01*
X004284Y012929D02*
X005416Y012929D01*
X005268Y012770D02*
X004432Y012770D01*
X004511Y012612D02*
X005189Y012612D01*
X005153Y012295D02*
X004547Y012295D01*
X004547Y012296D02*
X003926Y012296D01*
X003926Y011675D01*
X003984Y011683D01*
X004073Y011707D01*
X004159Y011742D01*
X004239Y011788D01*
X004312Y011844D01*
X004377Y011910D01*
X004434Y011983D01*
X004480Y012063D01*
X004515Y012148D01*
X004539Y012238D01*
X004547Y012296D01*
X004510Y012136D02*
X005190Y012136D01*
X005271Y011978D02*
X004429Y011978D01*
X004541Y011819D02*
X004279Y011819D01*
X004391Y011661D02*
X003380Y011661D01*
X003380Y011819D02*
X003413Y011819D01*
X003380Y011502D02*
X004325Y011502D01*
X004315Y011344D02*
X003380Y011344D01*
X003380Y011185D02*
X004348Y011185D01*
X004439Y011027D02*
X004098Y011027D01*
X004073Y011037D02*
X003984Y011061D01*
X003926Y011068D01*
X003926Y010448D01*
X004547Y010448D01*
X004539Y010506D01*
X004515Y010595D01*
X004480Y010680D01*
X004434Y010760D01*
X004377Y010834D01*
X004312Y010899D01*
X004239Y010955D01*
X004159Y011001D01*
X004073Y011037D01*
X003926Y011027D02*
X003766Y011027D01*
X003766Y010868D02*
X003926Y010868D01*
X003926Y010710D02*
X003766Y010710D01*
X003766Y010551D02*
X003926Y010551D01*
X003926Y010393D02*
X005774Y010393D01*
X005774Y010551D02*
X005934Y010551D01*
X005934Y010448D02*
X005934Y011068D01*
X005992Y011061D01*
X006081Y011037D01*
X006166Y011001D01*
X006246Y010955D01*
X006320Y010899D01*
X006385Y010834D01*
X006441Y010760D01*
X006488Y010680D01*
X006523Y010595D01*
X006547Y010506D01*
X006554Y010448D01*
X005934Y010448D01*
X005934Y010393D02*
X013403Y010393D01*
X013403Y010551D02*
X006535Y010551D01*
X006471Y010710D02*
X013403Y010710D01*
X013418Y010868D02*
X006351Y010868D01*
X006106Y011027D02*
X013501Y011027D01*
X013489Y011185D02*
X006110Y011185D01*
X006268Y011344D02*
X013413Y011344D01*
X013403Y011502D02*
X006427Y011502D01*
X006585Y011661D02*
X013403Y011661D01*
X013403Y011819D02*
X006744Y011819D01*
X006902Y011978D02*
X013463Y011978D01*
X013629Y012136D02*
X007061Y012136D01*
X007219Y012295D02*
X011473Y012295D01*
X011314Y012453D02*
X007378Y012453D01*
X007853Y012929D02*
X008555Y012929D01*
X008446Y013087D02*
X008012Y013087D01*
X008170Y013246D02*
X008414Y013246D01*
X008442Y013404D02*
X008329Y013404D01*
X008487Y013563D02*
X008546Y013563D01*
X008646Y013721D02*
X010046Y013721D01*
X006625Y012295D02*
X006554Y012295D01*
X005934Y012136D02*
X005774Y012136D01*
X005774Y011978D02*
X005934Y011978D01*
X005934Y011819D02*
X005774Y011819D01*
X005991Y011661D02*
X005309Y011661D01*
X005421Y011819D02*
X005159Y011819D01*
X005774Y012612D02*
X005934Y012612D01*
X005934Y012770D02*
X005774Y012770D01*
X005774Y012929D02*
X005934Y012929D01*
X005934Y013721D02*
X005774Y013721D01*
X005774Y013880D02*
X005934Y013880D01*
X005934Y014038D02*
X005774Y014038D01*
X003926Y014514D02*
X003766Y014514D01*
X003766Y014672D02*
X003926Y014672D01*
X003926Y014831D02*
X003766Y014831D01*
X005292Y015623D02*
X005703Y015623D01*
X005774Y015623D02*
X005934Y015623D01*
X005934Y015782D02*
X005774Y015782D01*
X005774Y015940D02*
X005934Y015940D01*
X005388Y015782D02*
X005106Y015782D01*
X005255Y015940D02*
X004445Y015940D01*
X004519Y016099D02*
X005181Y016099D01*
X005156Y016416D02*
X004544Y016416D01*
X004547Y016393D02*
X004539Y016450D01*
X004515Y016540D01*
X004480Y016625D01*
X004434Y016705D01*
X004377Y016778D01*
X004312Y016844D01*
X004239Y016900D01*
X004159Y016946D01*
X004073Y016982D01*
X003984Y017005D01*
X003926Y017013D01*
X003926Y016393D01*
X004547Y016393D01*
X004501Y016574D02*
X005199Y016574D01*
X005288Y016733D02*
X004412Y016733D01*
X004250Y016891D02*
X005450Y016891D01*
X005774Y016891D02*
X005934Y016891D01*
X005934Y016733D02*
X005774Y016733D01*
X005774Y016574D02*
X005934Y016574D01*
X005934Y016416D02*
X005774Y016416D01*
X006258Y016891D02*
X018830Y016891D01*
X018830Y016733D02*
X006420Y016733D01*
X006509Y016574D02*
X008558Y016574D01*
X008447Y016416D02*
X006551Y016416D01*
X006050Y017573D02*
X005960Y017549D01*
X005902Y017541D01*
X005902Y018162D01*
X005742Y018162D01*
X005122Y018162D01*
X005129Y018104D01*
X005153Y018015D01*
X005189Y017929D01*
X005235Y017849D01*
X005291Y017776D01*
X005357Y017711D01*
X005430Y017654D01*
X005510Y017608D01*
X005595Y017573D01*
X005685Y017549D01*
X005742Y017541D01*
X005742Y018162D01*
X005742Y018322D01*
X005122Y018322D01*
X005129Y018380D01*
X005153Y018469D01*
X005189Y018554D01*
X005235Y018634D01*
X005291Y018708D01*
X005357Y018773D01*
X005430Y018829D01*
X005510Y018875D01*
X005595Y018911D01*
X005685Y018935D01*
X005742Y018942D01*
X005742Y018322D01*
X005902Y018322D01*
X005902Y018942D01*
X005960Y018935D01*
X006050Y018911D01*
X006135Y018875D01*
X006215Y018829D01*
X006288Y018773D01*
X006354Y018708D01*
X006410Y018634D01*
X006456Y018554D01*
X006491Y018469D01*
X006515Y018380D01*
X006523Y018322D01*
X005902Y018322D01*
X005902Y018162D01*
X006523Y018162D01*
X006515Y018104D01*
X006491Y018015D01*
X006456Y017929D01*
X006410Y017849D01*
X006354Y017776D01*
X006288Y017711D01*
X006215Y017654D01*
X006135Y017608D01*
X006050Y017573D01*
X005902Y017684D02*
X005742Y017684D01*
X005742Y017842D02*
X005902Y017842D01*
X005902Y018001D02*
X005742Y018001D01*
X005742Y018159D02*
X005902Y018159D01*
X005902Y018318D02*
X020160Y018318D01*
X020160Y018476D02*
X006488Y018476D01*
X006410Y018635D02*
X020160Y018635D01*
X020160Y018793D02*
X006262Y018793D01*
X005902Y018793D02*
X005742Y018793D01*
X005742Y018635D02*
X005902Y018635D01*
X005902Y018476D02*
X005742Y018476D01*
X005742Y018318D02*
X003895Y018318D01*
X003895Y018162D02*
X004515Y018162D01*
X004508Y018104D01*
X004484Y018015D01*
X004448Y017929D01*
X004402Y017849D01*
X004346Y017776D01*
X004280Y017711D01*
X004207Y017654D01*
X004127Y017608D01*
X004042Y017573D01*
X003952Y017549D01*
X003895Y017541D01*
X003895Y018162D01*
X003895Y018159D02*
X003735Y018159D01*
X003735Y018001D02*
X003895Y018001D01*
X003895Y017842D02*
X003735Y017842D01*
X003735Y017684D02*
X003895Y017684D01*
X004245Y017684D02*
X005392Y017684D01*
X005241Y017842D02*
X004396Y017842D01*
X004478Y018001D02*
X005159Y018001D01*
X005122Y018159D02*
X004515Y018159D01*
X004481Y018476D02*
X005156Y018476D01*
X005235Y018635D02*
X004402Y018635D01*
X004515Y018793D02*
X004254Y018793D01*
X004361Y018952D02*
X003380Y018952D01*
X003380Y019110D02*
X004296Y019110D01*
X004284Y019269D02*
X003380Y019269D01*
X003380Y019427D02*
X004315Y019427D01*
X004402Y019586D02*
X004054Y019586D01*
X004042Y019581D02*
X004127Y019616D01*
X004207Y019662D01*
X004280Y019718D01*
X004346Y019784D01*
X004402Y019857D01*
X004448Y019937D01*
X004484Y020022D01*
X004508Y020112D01*
X004515Y020170D01*
X003895Y020170D01*
X003895Y019549D01*
X003952Y019557D01*
X004042Y019581D01*
X003895Y019586D02*
X003735Y019586D01*
X003735Y019744D02*
X003895Y019744D01*
X003895Y019903D02*
X003735Y019903D01*
X003735Y020061D02*
X003895Y020061D01*
X003895Y020220D02*
X005742Y020220D01*
X005902Y020220D02*
X008349Y020220D01*
X008349Y020378D02*
X006517Y020378D01*
X006515Y020387D02*
X006491Y020477D01*
X006456Y020562D01*
X006410Y020642D01*
X006354Y020715D01*
X006288Y020781D01*
X006215Y020837D01*
X006139Y020881D01*
X008349Y020881D01*
X008349Y019805D01*
X008230Y019687D01*
X008230Y019653D01*
X006198Y019653D01*
X006215Y019662D01*
X006288Y019718D01*
X006354Y019784D01*
X006410Y019857D01*
X006456Y019937D01*
X006491Y020022D01*
X006515Y020112D01*
X006523Y020170D01*
X005902Y020170D01*
X005902Y020330D01*
X006523Y020330D01*
X006515Y020387D01*
X006467Y020537D02*
X008349Y020537D01*
X008349Y020695D02*
X006369Y020695D01*
X006186Y020854D02*
X008349Y020854D01*
X008769Y020537D02*
X020160Y020537D01*
X020160Y020695D02*
X010305Y020695D01*
X010463Y020854D02*
X020160Y020854D01*
X020160Y021012D02*
X010622Y021012D01*
X010737Y021171D02*
X020160Y021171D01*
X020160Y021329D02*
X010737Y021329D01*
X010737Y021488D02*
X020160Y021488D01*
X020160Y021646D02*
X010737Y021646D01*
X010737Y021805D02*
X020160Y021805D01*
X020160Y021963D02*
X010737Y021963D01*
X010737Y022122D02*
X019985Y022122D01*
X019880Y022226D02*
X020126Y021980D01*
X020160Y021980D01*
X020160Y017397D01*
X020012Y017336D01*
X019894Y017218D01*
X019830Y017064D01*
X019830Y016636D01*
X019894Y016482D01*
X020012Y016364D01*
X020166Y016300D01*
X020334Y016300D01*
X020488Y016364D01*
X020606Y016482D01*
X020670Y016636D01*
X020670Y017064D01*
X020606Y017218D01*
X020580Y017244D01*
X020580Y022086D01*
X020720Y022226D01*
X020720Y022574D01*
X020474Y022820D01*
X020126Y022820D01*
X019880Y022574D01*
X019880Y022226D01*
X019880Y022280D02*
X010737Y022280D01*
X010737Y022439D02*
X019880Y022439D01*
X019903Y022597D02*
X010737Y022597D01*
X010737Y022756D02*
X020062Y022756D01*
X020538Y022756D02*
X021144Y022756D01*
X021144Y022914D02*
X010737Y022914D01*
X010737Y023073D02*
X021144Y023073D01*
X021009Y023231D02*
X010737Y023231D01*
X010737Y023390D02*
X020850Y023390D01*
X020692Y023548D02*
X010737Y023548D01*
X010737Y023707D02*
X020533Y023707D01*
X020375Y023865D02*
X010737Y023865D01*
X010737Y024024D02*
X020216Y024024D01*
X020058Y024182D02*
X010737Y024182D01*
X010737Y024341D02*
X019899Y024341D01*
X019741Y024499D02*
X010737Y024499D01*
X010737Y024658D02*
X019582Y024658D01*
X019424Y024816D02*
X010737Y024816D01*
X010844Y024975D02*
X019265Y024975D01*
X019107Y025133D02*
X011003Y025133D01*
X011161Y025292D02*
X018948Y025292D01*
X018790Y025450D02*
X011320Y025450D01*
X011478Y025609D02*
X018631Y025609D01*
X018473Y025767D02*
X011637Y025767D01*
X011795Y025926D02*
X018314Y025926D01*
X018156Y026084D02*
X011954Y026084D01*
X012112Y026243D02*
X017997Y026243D01*
X017839Y026401D02*
X012271Y026401D01*
X012429Y026560D02*
X017680Y026560D01*
X017309Y026718D02*
X012588Y026718D01*
X012746Y026877D02*
X017254Y026877D01*
X017271Y027035D02*
X012905Y027035D01*
X013063Y027194D02*
X015078Y027194D01*
X015042Y027352D02*
X013222Y027352D01*
X013380Y027511D02*
X015042Y027511D01*
X015042Y027669D02*
X013539Y027669D01*
X013697Y027828D02*
X015042Y027828D01*
X015042Y027986D02*
X013856Y027986D01*
X013717Y028441D02*
X013717Y028586D01*
X013264Y028586D01*
X013264Y028614D01*
X013717Y028614D01*
X013717Y028780D01*
X013706Y028853D01*
X013683Y028923D01*
X013649Y028988D01*
X013606Y029048D01*
X013554Y029100D01*
X013554Y029100D01*
X013554Y029100D01*
X013606Y029152D01*
X013649Y029212D01*
X013683Y029277D01*
X013706Y029347D01*
X013717Y029420D01*
X013717Y029586D01*
X013264Y029586D01*
X013264Y029614D01*
X013717Y029614D01*
X013717Y029780D01*
X013706Y029853D01*
X013683Y029923D01*
X013649Y029988D01*
X013606Y030048D01*
X013584Y030070D01*
X013944Y030070D01*
X013871Y029997D01*
X013803Y029832D01*
X013803Y029368D01*
X013871Y029203D01*
X013974Y029100D01*
X013871Y028997D01*
X013803Y028832D01*
X013803Y028527D01*
X013717Y028441D01*
X013717Y028462D02*
X013737Y028462D01*
X013717Y028620D02*
X013803Y028620D01*
X013803Y028779D02*
X013717Y028779D01*
X013676Y028937D02*
X013846Y028937D01*
X013970Y029096D02*
X013558Y029096D01*
X013671Y029254D02*
X013850Y029254D01*
X013803Y029413D02*
X013716Y029413D01*
X013717Y029571D02*
X013803Y029571D01*
X013803Y029730D02*
X013717Y029730D01*
X013694Y029888D02*
X013826Y029888D01*
X013921Y030047D02*
X013607Y030047D01*
X014579Y030047D02*
X014921Y030047D01*
X014826Y029888D02*
X014674Y029888D01*
X014697Y029730D02*
X014803Y029730D01*
X014803Y029571D02*
X014697Y029571D01*
X014697Y029413D02*
X014803Y029413D01*
X014850Y029254D02*
X014650Y029254D01*
X014530Y029096D02*
X014970Y029096D01*
X014846Y028937D02*
X014654Y028937D01*
X014697Y028779D02*
X014803Y028779D01*
X014803Y028620D02*
X014697Y028620D01*
X014697Y028462D02*
X014803Y028462D01*
X014830Y028303D02*
X014670Y028303D01*
X014570Y028145D02*
X014930Y028145D01*
X013264Y028145D02*
X013236Y028145D01*
X013236Y027989D02*
X013236Y028586D01*
X013264Y028586D01*
X013264Y027989D01*
X013265Y027989D01*
X010440Y025164D01*
X010430Y025154D01*
X010430Y028047D01*
X010503Y028078D01*
X010629Y028203D01*
X010697Y028368D01*
X010697Y028832D01*
X010629Y028997D01*
X010526Y029100D01*
X010629Y029203D01*
X010697Y029368D01*
X010697Y029832D01*
X010629Y029997D01*
X010556Y030070D01*
X010944Y030070D01*
X010871Y029997D01*
X010803Y029832D01*
X010803Y029368D01*
X010871Y029203D01*
X010974Y029100D01*
X010871Y028997D01*
X010803Y028832D01*
X010803Y028368D01*
X010871Y028203D01*
X010997Y028078D01*
X011161Y028009D01*
X011339Y028009D01*
X011503Y028078D01*
X011629Y028203D01*
X011697Y028368D01*
X011697Y028832D01*
X011629Y028997D01*
X011526Y029100D01*
X011629Y029203D01*
X011697Y029368D01*
X011697Y029832D01*
X011629Y029997D01*
X011556Y030070D01*
X011944Y030070D01*
X011871Y029997D01*
X011803Y029832D01*
X011803Y029368D01*
X011871Y029203D01*
X011974Y029100D01*
X011871Y028997D01*
X011803Y028832D01*
X011803Y028368D01*
X011871Y028203D01*
X011997Y028078D01*
X012161Y028009D01*
X012339Y028009D01*
X012503Y028078D01*
X012629Y028203D01*
X012697Y028368D01*
X012697Y028832D01*
X012629Y028997D01*
X012526Y029100D01*
X012629Y029203D01*
X012697Y029368D01*
X012697Y029832D01*
X012629Y029997D01*
X012556Y030070D01*
X012916Y030070D01*
X012894Y030048D01*
X012851Y029988D01*
X012817Y029923D01*
X012794Y029853D01*
X012783Y029780D01*
X012783Y029614D01*
X013236Y029614D01*
X013236Y029586D01*
X012783Y029586D01*
X012783Y029420D01*
X012794Y029347D01*
X012817Y029277D01*
X012851Y029212D01*
X012894Y029152D01*
X012946Y029100D01*
X012946Y029100D01*
X012946Y029100D01*
X012894Y029048D01*
X012851Y028988D01*
X012817Y028923D01*
X012794Y028853D01*
X012783Y028780D01*
X012783Y028614D01*
X013236Y028614D01*
X013236Y028989D01*
X013236Y029586D01*
X013264Y029586D01*
X013264Y028614D01*
X013236Y028614D01*
X013236Y028586D01*
X012783Y028586D01*
X012783Y028420D01*
X012794Y028347D01*
X012817Y028277D01*
X012851Y028212D01*
X012894Y028152D01*
X012946Y028100D01*
X013005Y028057D01*
X013071Y028024D01*
X013141Y028001D01*
X013213Y027989D01*
X013236Y027989D01*
X013262Y027986D02*
X010430Y027986D01*
X010430Y027828D02*
X013103Y027828D01*
X012945Y027669D02*
X010430Y027669D01*
X010430Y027511D02*
X012786Y027511D01*
X012628Y027352D02*
X010430Y027352D01*
X010430Y027194D02*
X012469Y027194D01*
X012311Y027035D02*
X010430Y027035D01*
X010430Y026877D02*
X012152Y026877D01*
X011994Y026718D02*
X010430Y026718D01*
X010430Y026560D02*
X011835Y026560D01*
X011677Y026401D02*
X010430Y026401D01*
X010430Y026243D02*
X011518Y026243D01*
X011360Y026084D02*
X010430Y026084D01*
X010430Y025926D02*
X011201Y025926D01*
X011043Y025767D02*
X010430Y025767D01*
X010430Y025609D02*
X010884Y025609D01*
X010726Y025450D02*
X010430Y025450D01*
X010430Y025292D02*
X010567Y025292D01*
X010570Y028145D02*
X010930Y028145D01*
X010830Y028303D02*
X010670Y028303D01*
X010697Y028462D02*
X010803Y028462D01*
X010803Y028620D02*
X010697Y028620D01*
X010697Y028779D02*
X010803Y028779D01*
X010846Y028937D02*
X010654Y028937D01*
X010530Y029096D02*
X010970Y029096D01*
X010850Y029254D02*
X010650Y029254D01*
X010697Y029413D02*
X010803Y029413D01*
X010803Y029571D02*
X010697Y029571D01*
X010697Y029730D02*
X010803Y029730D01*
X010826Y029888D02*
X010674Y029888D01*
X010579Y030047D02*
X010921Y030047D01*
X011579Y030047D02*
X011921Y030047D01*
X011826Y029888D02*
X011674Y029888D01*
X011697Y029730D02*
X011803Y029730D01*
X011803Y029571D02*
X011697Y029571D01*
X011697Y029413D02*
X011803Y029413D01*
X011850Y029254D02*
X011650Y029254D01*
X011530Y029096D02*
X011970Y029096D01*
X011846Y028937D02*
X011654Y028937D01*
X011697Y028779D02*
X011803Y028779D01*
X011803Y028620D02*
X011697Y028620D01*
X011697Y028462D02*
X011803Y028462D01*
X011830Y028303D02*
X011670Y028303D01*
X011570Y028145D02*
X011930Y028145D01*
X012570Y028145D02*
X012902Y028145D01*
X012809Y028303D02*
X012670Y028303D01*
X012697Y028462D02*
X012783Y028462D01*
X012783Y028620D02*
X012697Y028620D01*
X012697Y028779D02*
X012783Y028779D01*
X012824Y028937D02*
X012654Y028937D01*
X012530Y029096D02*
X012942Y029096D01*
X012829Y029254D02*
X012650Y029254D01*
X012697Y029413D02*
X012784Y029413D01*
X012783Y029571D02*
X012697Y029571D01*
X012697Y029730D02*
X012783Y029730D01*
X012806Y029888D02*
X012674Y029888D01*
X012579Y030047D02*
X012893Y030047D01*
X013236Y029571D02*
X013264Y029571D01*
X013264Y029413D02*
X013236Y029413D01*
X013236Y029254D02*
X013264Y029254D01*
X013264Y029096D02*
X013236Y029096D01*
X013236Y028937D02*
X013264Y028937D01*
X013264Y028779D02*
X013236Y028779D01*
X013236Y028620D02*
X013264Y028620D01*
X013264Y028462D02*
X013236Y028462D01*
X013236Y028303D02*
X013264Y028303D01*
X017430Y027986D02*
X028320Y027986D01*
X028320Y027828D02*
X017430Y027828D01*
X017570Y028145D02*
X017930Y028145D01*
X017830Y028303D02*
X017670Y028303D01*
X017697Y028462D02*
X017803Y028462D01*
X017803Y028620D02*
X017697Y028620D01*
X017697Y028779D02*
X017803Y028779D01*
X017846Y028937D02*
X017654Y028937D01*
X017530Y029096D02*
X017970Y029096D01*
X017850Y029254D02*
X017650Y029254D01*
X017697Y029413D02*
X017803Y029413D01*
X017803Y029571D02*
X017697Y029571D01*
X017697Y029730D02*
X017803Y029730D01*
X017826Y029888D02*
X017674Y029888D01*
X017579Y030047D02*
X017921Y030047D01*
X018579Y030047D02*
X018921Y030047D01*
X018826Y029888D02*
X018674Y029888D01*
X018697Y029730D02*
X018803Y029730D01*
X018803Y029571D02*
X018697Y029571D01*
X018697Y029413D02*
X018803Y029413D01*
X018850Y029254D02*
X018650Y029254D01*
X018530Y029096D02*
X018970Y029096D01*
X018846Y028937D02*
X018654Y028937D01*
X018697Y028779D02*
X018803Y028779D01*
X018803Y028620D02*
X018697Y028620D01*
X018697Y028462D02*
X018803Y028462D01*
X018830Y028303D02*
X018670Y028303D01*
X018570Y028145D02*
X018930Y028145D01*
X019570Y028145D02*
X020530Y028145D01*
X020430Y028303D02*
X019670Y028303D01*
X019697Y028462D02*
X020403Y028462D01*
X020403Y028620D02*
X019697Y028620D01*
X019697Y028779D02*
X020403Y028779D01*
X020446Y028937D02*
X019654Y028937D01*
X019530Y029096D02*
X020553Y029096D01*
X020450Y029254D02*
X019650Y029254D01*
X019697Y029413D02*
X020403Y029413D01*
X020403Y029571D02*
X019697Y029571D01*
X019697Y029730D02*
X020403Y029730D01*
X020426Y029888D02*
X019674Y029888D01*
X019579Y030047D02*
X020521Y030047D01*
X021179Y030047D02*
X021521Y030047D01*
X021426Y029888D02*
X021274Y029888D01*
X021297Y029730D02*
X021403Y029730D01*
X021403Y029571D02*
X021297Y029571D01*
X021297Y029413D02*
X021403Y029413D01*
X021450Y029254D02*
X021250Y029254D01*
X021130Y029096D02*
X021570Y029096D01*
X021446Y028937D02*
X021254Y028937D01*
X021297Y028779D02*
X021403Y028779D01*
X021403Y028620D02*
X021297Y028620D01*
X021297Y028462D02*
X021403Y028462D01*
X021430Y028303D02*
X021270Y028303D01*
X021170Y028145D02*
X021530Y028145D01*
X021495Y027669D02*
X028320Y027669D01*
X028320Y027511D02*
X021654Y027511D01*
X021812Y027352D02*
X028320Y027352D01*
X028320Y027194D02*
X021971Y027194D01*
X022129Y027035D02*
X028320Y027035D01*
X028320Y026877D02*
X024667Y026877D01*
X024826Y026718D02*
X028320Y026718D01*
X028320Y026560D02*
X024870Y026560D01*
X024870Y026401D02*
X028320Y026401D01*
X028320Y026243D02*
X024786Y026243D01*
X024714Y026084D02*
X028320Y026084D01*
X028320Y025926D02*
X024714Y025926D01*
X024714Y025767D02*
X028320Y025767D01*
X028320Y025609D02*
X024714Y025609D01*
X024714Y025450D02*
X028320Y025450D01*
X028363Y025292D02*
X024714Y025292D01*
X024714Y025133D02*
X028467Y025133D01*
X028550Y025051D02*
X028550Y025051D01*
X028626Y024975D02*
X024714Y024975D01*
X024714Y024816D02*
X028784Y024816D01*
X028508Y024658D02*
X024714Y024658D01*
X024714Y024499D02*
X028187Y024499D01*
X028021Y024341D02*
X024714Y024341D01*
X024714Y024182D02*
X027904Y024182D01*
X027814Y024024D02*
X024714Y024024D01*
X024714Y023865D02*
X027772Y023865D01*
X027740Y023707D02*
X024867Y023707D01*
X025026Y023548D02*
X027740Y023548D01*
X027757Y023390D02*
X025107Y023390D01*
X025107Y023231D02*
X027800Y023231D01*
X027873Y023073D02*
X025107Y023073D01*
X025107Y022914D02*
X027966Y022914D01*
X028125Y022756D02*
X025538Y022756D01*
X025697Y022597D02*
X028367Y022597D01*
X024687Y022914D02*
X024630Y022914D01*
X024687Y023073D02*
X021564Y023073D01*
X021564Y023231D02*
X024687Y023231D01*
X024590Y023390D02*
X021444Y023390D01*
X021286Y023548D02*
X024432Y023548D01*
X024294Y023707D02*
X021127Y023707D01*
X020969Y023865D02*
X024294Y023865D01*
X024294Y024024D02*
X020810Y024024D01*
X020652Y024182D02*
X024294Y024182D01*
X024294Y024341D02*
X020493Y024341D01*
X020335Y024499D02*
X024294Y024499D01*
X024294Y024658D02*
X020176Y024658D01*
X020018Y024816D02*
X024294Y024816D01*
X024294Y024975D02*
X019859Y024975D01*
X019701Y025133D02*
X024294Y025133D01*
X024294Y025292D02*
X019542Y025292D01*
X019384Y025450D02*
X024294Y025450D01*
X024294Y025609D02*
X019225Y025609D01*
X019067Y025767D02*
X024294Y025767D01*
X024294Y025926D02*
X018908Y025926D01*
X018750Y026084D02*
X020022Y026084D01*
X019880Y026243D02*
X018591Y026243D01*
X018433Y026401D02*
X019880Y026401D01*
X019845Y026560D02*
X018274Y026560D01*
X018116Y026718D02*
X019687Y026718D01*
X019528Y026877D02*
X017974Y026877D01*
X017957Y027035D02*
X019370Y027035D01*
X019805Y027194D02*
X021377Y027194D01*
X021535Y027035D02*
X019964Y027035D01*
X020122Y026877D02*
X021694Y026877D01*
X021852Y026718D02*
X020576Y026718D01*
X020720Y026560D02*
X022011Y026560D01*
X021980Y026401D02*
X020720Y026401D01*
X020720Y026243D02*
X021980Y026243D01*
X022072Y026084D02*
X020578Y026084D01*
X022288Y026877D02*
X024233Y026877D01*
X024074Y026718D02*
X022626Y026718D01*
X022784Y026560D02*
X024030Y026560D01*
X024030Y026401D02*
X022820Y026401D01*
X022820Y026243D02*
X024114Y026243D01*
X024272Y026084D02*
X022728Y026084D01*
X022530Y028145D02*
X022170Y028145D01*
X022270Y028303D02*
X022430Y028303D01*
X022403Y028462D02*
X022297Y028462D01*
X022297Y028620D02*
X022403Y028620D01*
X022403Y028779D02*
X022297Y028779D01*
X022254Y028937D02*
X022446Y028937D01*
X022570Y029096D02*
X022154Y029096D01*
X022250Y029254D02*
X022450Y029254D01*
X022403Y029413D02*
X022297Y029413D01*
X022297Y029571D02*
X022403Y029571D01*
X022403Y029730D02*
X022297Y029730D01*
X022274Y029888D02*
X022426Y029888D01*
X022521Y030047D02*
X022179Y030047D01*
X023179Y030047D02*
X023521Y030047D01*
X023426Y029888D02*
X023274Y029888D01*
X023297Y029730D02*
X023403Y029730D01*
X023403Y029571D02*
X023297Y029571D01*
X023297Y029413D02*
X023403Y029413D01*
X023450Y029254D02*
X023250Y029254D01*
X023130Y029096D02*
X023570Y029096D01*
X023446Y028937D02*
X023254Y028937D01*
X023297Y028779D02*
X023403Y028779D01*
X023403Y028620D02*
X023297Y028620D01*
X023297Y028462D02*
X023403Y028462D01*
X023430Y028303D02*
X023270Y028303D01*
X023170Y028145D02*
X023530Y028145D01*
X024170Y028145D02*
X024530Y028145D01*
X024430Y028303D02*
X024270Y028303D01*
X024297Y028462D02*
X024403Y028462D01*
X024403Y028620D02*
X024297Y028620D01*
X024297Y028779D02*
X024403Y028779D01*
X024446Y028937D02*
X024254Y028937D01*
X024130Y029096D02*
X024570Y029096D01*
X024450Y029254D02*
X024250Y029254D01*
X024297Y029413D02*
X024403Y029413D01*
X024403Y029571D02*
X024297Y029571D01*
X024297Y029730D02*
X024403Y029730D01*
X024426Y029888D02*
X024274Y029888D01*
X024179Y030047D02*
X024521Y030047D01*
X025179Y030047D02*
X025521Y030047D01*
X025426Y029888D02*
X025274Y029888D01*
X025297Y029730D02*
X025403Y029730D01*
X025403Y029571D02*
X025297Y029571D01*
X025297Y029413D02*
X025403Y029413D01*
X025450Y029254D02*
X025250Y029254D01*
X025130Y029096D02*
X025570Y029096D01*
X025446Y028937D02*
X025254Y028937D01*
X025297Y028779D02*
X025403Y028779D01*
X025403Y028620D02*
X025297Y028620D01*
X025297Y028462D02*
X025403Y028462D01*
X025430Y028303D02*
X025270Y028303D01*
X025170Y028145D02*
X025530Y028145D01*
X026170Y028145D02*
X026530Y028145D01*
X026430Y028303D02*
X026270Y028303D01*
X026297Y028462D02*
X026403Y028462D01*
X026403Y028620D02*
X026297Y028620D01*
X026297Y028779D02*
X026403Y028779D01*
X026446Y028937D02*
X026254Y028937D01*
X026130Y029096D02*
X026570Y029096D01*
X026450Y029254D02*
X026250Y029254D01*
X026297Y029413D02*
X026403Y029413D01*
X026403Y029571D02*
X026297Y029571D01*
X026297Y029730D02*
X026403Y029730D01*
X026426Y029888D02*
X026274Y029888D01*
X026179Y030047D02*
X026521Y030047D01*
X027179Y030047D02*
X027521Y030047D01*
X027426Y029888D02*
X027274Y029888D01*
X027297Y029730D02*
X027403Y029730D01*
X027403Y029571D02*
X027297Y029571D01*
X027297Y029413D02*
X027403Y029413D01*
X027450Y029254D02*
X027250Y029254D01*
X027130Y029096D02*
X027570Y029096D01*
X027446Y028937D02*
X027254Y028937D01*
X027297Y028779D02*
X027403Y028779D01*
X027403Y028620D02*
X027297Y028620D01*
X027297Y028462D02*
X027403Y028462D01*
X027430Y028303D02*
X027270Y028303D01*
X027170Y028145D02*
X027530Y028145D01*
X028170Y028145D02*
X028320Y028145D01*
X028320Y028303D02*
X028270Y028303D01*
X028297Y028462D02*
X028320Y028462D01*
X028320Y028620D02*
X028297Y028620D01*
X028297Y028779D02*
X028320Y028779D01*
X028320Y028937D02*
X028254Y028937D01*
X028320Y029096D02*
X028130Y029096D01*
X028250Y029254D02*
X028320Y029254D01*
X028320Y029413D02*
X028297Y029413D01*
X028297Y029571D02*
X028320Y029571D01*
X028320Y029730D02*
X028297Y029730D01*
X024270Y022914D02*
X021564Y022914D01*
X021564Y022756D02*
X022212Y022756D01*
X022053Y022597D02*
X021747Y022597D01*
X021870Y022439D02*
X021980Y022439D01*
X021980Y022280D02*
X021870Y022280D01*
X021865Y022122D02*
X022035Y022122D01*
X022128Y021963D02*
X021707Y021963D01*
X022128Y021805D02*
X020580Y021805D01*
X020580Y021963D02*
X021193Y021963D01*
X021035Y022122D02*
X020615Y022122D01*
X020720Y022280D02*
X021030Y022280D01*
X021030Y022439D02*
X020720Y022439D01*
X020697Y022597D02*
X021144Y022597D01*
X022588Y022756D02*
X023212Y022756D01*
X023053Y022597D02*
X022747Y022597D01*
X022820Y022439D02*
X022980Y022439D01*
X022980Y022280D02*
X022820Y022280D01*
X022765Y022122D02*
X023035Y022122D01*
X023112Y021963D02*
X022607Y021963D01*
X022548Y021805D02*
X023112Y021805D01*
X023112Y021646D02*
X022548Y021646D01*
X022548Y021488D02*
X023112Y021488D01*
X023112Y021329D02*
X022548Y021329D01*
X022548Y021171D02*
X022982Y021171D01*
X022823Y021012D02*
X022548Y021012D01*
X022548Y020854D02*
X022665Y020854D01*
X022128Y020854D02*
X020580Y020854D01*
X020580Y021012D02*
X022128Y021012D01*
X022128Y021171D02*
X020580Y021171D01*
X020580Y021329D02*
X022128Y021329D01*
X022128Y021488D02*
X020580Y021488D01*
X020580Y021646D02*
X022128Y021646D01*
X022128Y020695D02*
X020580Y020695D01*
X020580Y020537D02*
X022128Y020537D01*
X022128Y020378D02*
X020580Y020378D01*
X020580Y020220D02*
X022128Y020220D01*
X022128Y020061D02*
X020580Y020061D01*
X020580Y019903D02*
X022128Y019903D01*
X022128Y019744D02*
X020580Y019744D01*
X020580Y019586D02*
X022128Y019586D01*
X022128Y019427D02*
X020580Y019427D01*
X020580Y019269D02*
X022128Y019269D01*
X022128Y019110D02*
X020580Y019110D01*
X020580Y018952D02*
X022128Y018952D01*
X022128Y018793D02*
X020580Y018793D01*
X020580Y018635D02*
X021191Y018635D01*
X021276Y018720D02*
X021030Y018474D01*
X021030Y018126D01*
X021144Y018012D01*
X021144Y017391D01*
X021012Y017336D01*
X020894Y017218D01*
X020830Y017064D01*
X020830Y016636D01*
X020894Y016482D01*
X021012Y016364D01*
X021166Y016300D01*
X021334Y016300D01*
X021488Y016364D01*
X021606Y016482D01*
X021670Y016636D01*
X021670Y017064D01*
X021606Y017218D01*
X021564Y017260D01*
X021564Y017880D01*
X021624Y017880D01*
X021870Y018126D01*
X021870Y018474D01*
X021624Y018720D01*
X021276Y018720D01*
X021032Y018476D02*
X020580Y018476D01*
X020580Y018318D02*
X021030Y018318D01*
X021030Y018159D02*
X020580Y018159D01*
X020580Y018001D02*
X021144Y018001D01*
X021144Y017842D02*
X020580Y017842D01*
X020580Y017684D02*
X021144Y017684D01*
X021144Y017525D02*
X020580Y017525D01*
X020580Y017367D02*
X021086Y017367D01*
X020890Y017208D02*
X020610Y017208D01*
X020670Y017050D02*
X020830Y017050D01*
X020830Y016891D02*
X020670Y016891D01*
X020670Y016733D02*
X020830Y016733D01*
X020856Y016574D02*
X020644Y016574D01*
X020539Y016416D02*
X020961Y016416D01*
X021539Y016416D02*
X021961Y016416D01*
X021856Y016574D02*
X021644Y016574D01*
X021670Y016733D02*
X021830Y016733D01*
X021830Y016891D02*
X021670Y016891D01*
X021670Y017050D02*
X021830Y017050D01*
X021890Y017208D02*
X021610Y017208D01*
X021564Y017367D02*
X022086Y017367D01*
X022128Y017525D02*
X021564Y017525D01*
X021564Y017684D02*
X022128Y017684D01*
X022128Y017842D02*
X021564Y017842D01*
X021744Y018001D02*
X022128Y018001D01*
X022128Y018159D02*
X021870Y018159D01*
X021870Y018318D02*
X022128Y018318D01*
X022128Y018476D02*
X021868Y018476D01*
X021709Y018635D02*
X022128Y018635D01*
X020160Y018952D02*
X005276Y018952D01*
X005341Y019110D02*
X008459Y019110D01*
X008841Y019110D02*
X012430Y019110D01*
X012468Y019073D02*
X012650Y019073D01*
X012832Y019073D01*
X013090Y019330D01*
X013090Y019513D01*
X013090Y019695D01*
X012832Y019953D01*
X012650Y019953D01*
X012468Y019953D01*
X012210Y019695D01*
X012210Y019513D01*
X012650Y019513D01*
X012650Y019953D01*
X012650Y019513D01*
X012650Y019513D01*
X013090Y019513D01*
X012650Y019513D01*
X012650Y019513D01*
X012650Y019513D01*
X012210Y019513D01*
X012210Y019330D01*
X012468Y019073D01*
X012650Y019073D02*
X012650Y019513D01*
X012650Y019073D01*
X012650Y019110D02*
X012650Y019110D01*
X012650Y019269D02*
X012650Y019269D01*
X012650Y019427D02*
X012650Y019427D01*
X012650Y019513D02*
X012650Y019513D01*
X012650Y019586D02*
X012650Y019586D01*
X012650Y019744D02*
X012650Y019744D01*
X012650Y019903D02*
X012650Y019903D01*
X012882Y019903D02*
X020160Y019903D01*
X020160Y020061D02*
X008769Y020061D01*
X008769Y020220D02*
X020160Y020220D01*
X020160Y020378D02*
X008769Y020378D01*
X008854Y019903D02*
X012418Y019903D01*
X012259Y019744D02*
X009013Y019744D01*
X009070Y019586D02*
X012210Y019586D01*
X012210Y019427D02*
X009070Y019427D01*
X009000Y019269D02*
X012272Y019269D01*
X012870Y019110D02*
X020160Y019110D01*
X020160Y019269D02*
X013028Y019269D01*
X013090Y019427D02*
X020160Y019427D01*
X020160Y019586D02*
X013090Y019586D01*
X013041Y019744D02*
X020160Y019744D01*
X020160Y018159D02*
X006523Y018159D01*
X006486Y018001D02*
X020160Y018001D01*
X020160Y017842D02*
X006404Y017842D01*
X006253Y017684D02*
X020160Y017684D01*
X020160Y017525D02*
X003380Y017525D01*
X003380Y017367D02*
X019086Y017367D01*
X019012Y017336D02*
X018894Y017218D01*
X018830Y017064D01*
X018830Y016636D01*
X018894Y016482D01*
X019012Y016364D01*
X019166Y016300D01*
X019334Y016300D01*
X019488Y016364D01*
X019606Y016482D01*
X019670Y016636D01*
X019670Y017064D01*
X019606Y017218D01*
X019488Y017336D01*
X019334Y017400D01*
X019166Y017400D01*
X019012Y017336D01*
X018890Y017208D02*
X003380Y017208D01*
X003380Y017050D02*
X018830Y017050D01*
X019414Y017367D02*
X020086Y017367D01*
X019890Y017208D02*
X019610Y017208D01*
X019670Y017050D02*
X019830Y017050D01*
X019830Y016891D02*
X019670Y016891D01*
X019670Y016733D02*
X019830Y016733D01*
X019856Y016574D02*
X019644Y016574D01*
X019539Y016416D02*
X019961Y016416D01*
X018961Y016416D02*
X012253Y016416D01*
X012142Y016574D02*
X018856Y016574D01*
X025300Y017960D02*
X025300Y018400D01*
X025300Y018400D01*
X025300Y017960D01*
X025300Y018001D02*
X025300Y018001D01*
X025300Y018159D02*
X025300Y018159D01*
X025300Y018318D02*
X025300Y018318D01*
X025300Y018400D02*
X025300Y018400D01*
X029255Y019269D02*
X029320Y019269D01*
X024112Y022756D02*
X023588Y022756D01*
X011558Y016574D02*
X009142Y016574D01*
X009253Y016416D02*
X011447Y016416D01*
X011414Y016257D02*
X009286Y016257D01*
X009259Y016099D02*
X011441Y016099D01*
X011544Y015940D02*
X009156Y015940D01*
X004594Y015782D02*
X004312Y015782D01*
X003926Y016416D02*
X003766Y016416D01*
X003766Y016574D02*
X003926Y016574D01*
X003926Y016733D02*
X003766Y016733D01*
X003766Y016891D02*
X003926Y016891D01*
X003442Y016891D02*
X003380Y016891D01*
X003380Y017684D02*
X003384Y017684D01*
X003735Y018476D02*
X003895Y018476D01*
X003895Y018635D02*
X003735Y018635D01*
X003735Y018793D02*
X003895Y018793D01*
X005122Y018793D02*
X005383Y018793D01*
X005331Y019744D02*
X005013Y019744D01*
X005209Y019903D02*
X004428Y019903D01*
X004494Y020061D02*
X005143Y020061D01*
X005128Y020378D02*
X004509Y020378D01*
X004459Y020537D02*
X005178Y020537D01*
X005276Y020695D02*
X004361Y020695D01*
X004179Y020854D02*
X005458Y020854D01*
X006502Y020061D02*
X008349Y020061D01*
X008349Y019903D02*
X006436Y019903D01*
X006314Y019744D02*
X008287Y019744D01*
X004624Y019744D02*
X004306Y019744D01*
X003576Y019586D02*
X003380Y019586D01*
X003766Y012295D02*
X003926Y012295D01*
X003926Y012136D02*
X003766Y012136D01*
X003766Y011978D02*
X003926Y011978D01*
X003926Y011819D02*
X003766Y011819D01*
X003594Y011027D02*
X003380Y011027D01*
X004343Y010868D02*
X004668Y010868D01*
X004463Y010710D02*
X005237Y010710D01*
X005173Y010551D02*
X004527Y010551D01*
X004540Y010234D02*
X005160Y010234D01*
X005774Y010710D02*
X005934Y010710D01*
X005934Y010868D02*
X005774Y010868D01*
X005774Y011027D02*
X005934Y011027D01*
X005602Y011027D02*
X005261Y011027D01*
X005357Y010868D02*
X005032Y010868D01*
X006547Y010234D02*
X013458Y010234D01*
X018156Y010130D02*
X018229Y010203D01*
X018297Y010368D01*
X018297Y010832D01*
X018229Y010997D01*
X018126Y011100D01*
X018229Y011203D01*
X018297Y011368D01*
X018297Y011758D01*
X018396Y011857D01*
X018394Y011853D01*
X018383Y011780D01*
X018383Y011614D01*
X018836Y011614D01*
X018836Y012211D01*
X018813Y012211D01*
X018741Y012199D01*
X018737Y012198D01*
X018829Y012289D01*
X018829Y012284D01*
X018864Y012200D01*
X018864Y011614D01*
X018836Y011614D01*
X018836Y011586D01*
X018864Y011586D01*
X018864Y011614D01*
X019317Y011614D01*
X019317Y011780D01*
X019306Y011853D01*
X019283Y011923D01*
X019249Y011988D01*
X019244Y011996D01*
X019260Y011996D01*
X019393Y012051D01*
X019488Y012146D01*
X019611Y012146D01*
X019605Y012143D01*
X019546Y012100D01*
X019494Y012048D01*
X019451Y011988D01*
X019417Y011923D01*
X019394Y011853D01*
X019383Y011780D01*
X019383Y011614D01*
X019836Y011614D01*
X019836Y012146D01*
X019864Y012146D01*
X019864Y011614D01*
X019836Y011614D01*
X019836Y011586D01*
X019864Y011586D01*
X019864Y011614D01*
X020317Y011614D01*
X020317Y011780D01*
X020306Y011853D01*
X020283Y011923D01*
X020249Y011988D01*
X020206Y012048D01*
X020154Y012100D01*
X020095Y012143D01*
X020089Y012146D01*
X020653Y012146D01*
X020597Y012122D01*
X020471Y011997D01*
X020403Y011832D01*
X020403Y011368D01*
X020471Y011203D01*
X020574Y011100D01*
X020471Y010997D01*
X020403Y010832D01*
X020403Y010368D01*
X020471Y010203D01*
X020544Y010130D01*
X020184Y010130D01*
X020206Y010152D01*
X020249Y010212D01*
X020283Y010277D01*
X020306Y010347D01*
X020317Y010420D01*
X020317Y010586D01*
X019864Y010586D01*
X019864Y010614D01*
X019836Y010614D01*
X019836Y011586D01*
X019383Y011586D01*
X019383Y011420D01*
X019394Y011347D01*
X019417Y011277D01*
X019451Y011212D01*
X019494Y011152D01*
X019546Y011100D01*
X019546Y011100D01*
X019546Y011100D01*
X019494Y011048D01*
X019451Y010988D01*
X019417Y010923D01*
X019394Y010853D01*
X019383Y010780D01*
X019383Y010614D01*
X019836Y010614D01*
X019836Y010586D01*
X019383Y010586D01*
X019383Y010420D01*
X019394Y010347D01*
X019417Y010277D01*
X019451Y010212D01*
X019494Y010152D01*
X019516Y010130D01*
X019184Y010130D01*
X019206Y010152D01*
X019249Y010212D01*
X019283Y010277D01*
X019306Y010347D01*
X019317Y010420D01*
X019317Y010586D01*
X018864Y010586D01*
X018864Y010614D01*
X018836Y010614D01*
X018836Y011586D01*
X018383Y011586D01*
X018383Y011420D01*
X018394Y011347D01*
X018417Y011277D01*
X018451Y011212D01*
X018494Y011152D01*
X018546Y011100D01*
X018546Y011100D01*
X018546Y011100D01*
X018494Y011048D01*
X018451Y010988D01*
X018417Y010923D01*
X018394Y010853D01*
X018383Y010780D01*
X018383Y010614D01*
X018836Y010614D01*
X018836Y010586D01*
X018383Y010586D01*
X018383Y010420D01*
X018394Y010347D01*
X018417Y010277D01*
X018451Y010212D01*
X018494Y010152D01*
X018516Y010130D01*
X018156Y010130D01*
X018242Y010234D02*
X018439Y010234D01*
X018387Y010393D02*
X018297Y010393D01*
X018297Y010551D02*
X018383Y010551D01*
X018383Y010710D02*
X018297Y010710D01*
X018282Y010868D02*
X018399Y010868D01*
X018478Y011027D02*
X018199Y011027D01*
X018211Y011185D02*
X018470Y011185D01*
X018396Y011344D02*
X018287Y011344D01*
X018297Y011502D02*
X018383Y011502D01*
X018383Y011661D02*
X018297Y011661D01*
X018358Y011819D02*
X018389Y011819D01*
X018836Y011819D02*
X018864Y011819D01*
X018864Y011661D02*
X018836Y011661D01*
X018864Y011586D02*
X019317Y011586D01*
X019317Y011420D01*
X019306Y011347D01*
X019283Y011277D01*
X019249Y011212D01*
X019206Y011152D01*
X019154Y011100D01*
X019154Y011100D01*
X019154Y011100D01*
X019206Y011048D01*
X019249Y010988D01*
X019283Y010923D01*
X019306Y010853D01*
X019317Y010780D01*
X019317Y010614D01*
X018864Y010614D01*
X018864Y010989D01*
X018864Y011586D01*
X018864Y011502D02*
X018836Y011502D01*
X018836Y011344D02*
X018864Y011344D01*
X018864Y011185D02*
X018836Y011185D01*
X018836Y011027D02*
X018864Y011027D01*
X018864Y010868D02*
X018836Y010868D01*
X018836Y010710D02*
X018864Y010710D01*
X019317Y010710D02*
X019383Y010710D01*
X019399Y010868D02*
X019301Y010868D01*
X019222Y011027D02*
X019478Y011027D01*
X019470Y011185D02*
X019230Y011185D01*
X019304Y011344D02*
X019396Y011344D01*
X019383Y011502D02*
X019317Y011502D01*
X019317Y011661D02*
X019383Y011661D01*
X019389Y011819D02*
X019311Y011819D01*
X019255Y011978D02*
X019445Y011978D01*
X019478Y012136D02*
X019596Y012136D01*
X019836Y012136D02*
X019864Y012136D01*
X019864Y011978D02*
X019836Y011978D01*
X019836Y011819D02*
X019864Y011819D01*
X019864Y011661D02*
X019836Y011661D01*
X019864Y011586D02*
X020317Y011586D01*
X020317Y011420D01*
X020306Y011347D01*
X020283Y011277D01*
X020249Y011212D01*
X020206Y011152D01*
X020154Y011100D01*
X020154Y011100D01*
X020154Y011100D01*
X020206Y011048D01*
X020249Y010988D01*
X020283Y010923D01*
X020306Y010853D01*
X020317Y010780D01*
X020317Y010614D01*
X019864Y010614D01*
X019864Y010989D01*
X019864Y011586D01*
X019864Y011502D02*
X019836Y011502D01*
X019836Y011344D02*
X019864Y011344D01*
X019864Y011185D02*
X019836Y011185D01*
X019836Y011027D02*
X019864Y011027D01*
X019864Y010868D02*
X019836Y010868D01*
X019836Y010710D02*
X019864Y010710D01*
X020317Y010710D02*
X020403Y010710D01*
X020418Y010868D02*
X020301Y010868D01*
X020222Y011027D02*
X020501Y011027D01*
X020489Y011185D02*
X020230Y011185D01*
X020304Y011344D02*
X020413Y011344D01*
X020403Y011502D02*
X020317Y011502D01*
X020317Y011661D02*
X020403Y011661D01*
X020403Y011819D02*
X020311Y011819D01*
X020255Y011978D02*
X020463Y011978D01*
X020629Y012136D02*
X020104Y012136D01*
X018864Y012136D02*
X018836Y012136D01*
X018836Y011978D02*
X018864Y011978D01*
X019317Y010551D02*
X019383Y010551D01*
X019387Y010393D02*
X019313Y010393D01*
X019261Y010234D02*
X019439Y010234D01*
X020261Y010234D02*
X020458Y010234D01*
X020403Y010393D02*
X020313Y010393D01*
X020317Y010551D02*
X020403Y010551D01*
M02*
