G75*
%MOIN*%
%OFA0B0*%
%FSLAX24Y24*%
%IPPOS*%
%LPD*%
%AMOC8*
5,1,8,0,0,1.08239X$1,22.5*
%
%ADD10C,0.0574*%
%ADD11C,0.0600*%
%ADD12OC8,0.0610*%
%ADD13C,0.0750*%
%ADD14C,0.1050*%
%ADD15C,0.0520*%
%ADD16OC8,0.0520*%
%ADD17C,0.0551*%
%ADD18C,0.0240*%
%ADD19C,0.0160*%
%ADD20C,0.0100*%
%ADD21C,0.0400*%
%ADD22R,0.0396X0.0396*%
D10*
X013850Y010456D02*
X013850Y010744D01*
X014850Y010744D02*
X014850Y010456D01*
X015850Y010456D02*
X015850Y010744D01*
X016850Y010744D02*
X016850Y010456D01*
X017850Y010456D02*
X017850Y010744D01*
X018850Y010744D02*
X018850Y010456D01*
X019850Y010456D02*
X019850Y010744D01*
X020850Y010744D02*
X020850Y010456D01*
X020850Y011456D02*
X020850Y011744D01*
X019850Y011744D02*
X019850Y011456D01*
X018850Y011456D02*
X018850Y011744D01*
X017850Y011744D02*
X017850Y011456D01*
X016850Y011456D02*
X016850Y011744D01*
X015850Y011744D02*
X015850Y011456D01*
X014850Y011456D02*
X014850Y011744D01*
X013850Y011744D02*
X013850Y011456D01*
X014250Y028456D02*
X014250Y028744D01*
X013250Y028744D02*
X013250Y028456D01*
X012250Y028456D02*
X012250Y028744D01*
X011250Y028744D02*
X011250Y028456D01*
X010250Y028456D02*
X010250Y028744D01*
X010250Y029456D02*
X010250Y029744D01*
X011250Y029744D02*
X011250Y029456D01*
X012250Y029456D02*
X012250Y029744D01*
X013250Y029744D02*
X013250Y029456D01*
X014250Y029456D02*
X014250Y029744D01*
X015250Y029744D02*
X015250Y029456D01*
X016250Y029456D02*
X016250Y029744D01*
X017250Y029744D02*
X017250Y029456D01*
X018250Y029456D02*
X018250Y029744D01*
X019250Y029744D02*
X019250Y029456D01*
X019250Y028744D02*
X019250Y028456D01*
X018250Y028456D02*
X018250Y028744D01*
X017250Y028744D02*
X017250Y028456D01*
X016250Y028456D02*
X016250Y028744D01*
X015250Y028744D02*
X015250Y028456D01*
X020850Y028456D02*
X020850Y028744D01*
X021850Y028744D02*
X021850Y028456D01*
X022850Y028456D02*
X022850Y028744D01*
X023850Y028744D02*
X023850Y028456D01*
X024850Y028456D02*
X024850Y028744D01*
X025850Y028744D02*
X025850Y028456D01*
X026850Y028456D02*
X026850Y028744D01*
X027850Y028744D02*
X027850Y028456D01*
X027850Y029456D02*
X027850Y029744D01*
X026850Y029744D02*
X026850Y029456D01*
X025850Y029456D02*
X025850Y029744D01*
X024850Y029744D02*
X024850Y029456D01*
X023850Y029456D02*
X023850Y029744D01*
X022850Y029744D02*
X022850Y029456D01*
X021850Y029456D02*
X021850Y029744D01*
X020850Y029744D02*
X020850Y029456D01*
D11*
X022850Y011750D02*
X022850Y011450D01*
X023850Y011450D02*
X023850Y011750D01*
X024850Y011750D02*
X024850Y011450D01*
X025850Y011450D02*
X025850Y011750D01*
X026850Y011750D02*
X026850Y011450D01*
X027850Y011450D02*
X027850Y011750D01*
X027850Y010750D02*
X027850Y010450D01*
X026850Y010450D02*
X026850Y010750D01*
X025850Y010750D02*
X025850Y010450D01*
X024850Y010450D02*
X024850Y010750D01*
X023850Y010750D02*
X023850Y010450D01*
X022850Y010450D02*
X022850Y010750D01*
D12*
X027900Y019600D03*
X028900Y019600D03*
X028900Y020600D03*
X027900Y020600D03*
X027900Y021600D03*
X028900Y021600D03*
D13*
X004819Y019246D03*
X004850Y015309D03*
X004850Y011372D03*
D14*
X003846Y010368D03*
X005854Y010368D03*
X005854Y012376D03*
X003846Y012376D03*
X003846Y014305D03*
X005854Y014305D03*
X005854Y016313D03*
X003846Y016313D03*
X003815Y018242D03*
X005822Y018242D03*
X005822Y020250D03*
X003815Y020250D03*
D15*
X019250Y016980D02*
X019250Y016720D01*
X020250Y016720D02*
X020250Y016980D01*
X021250Y016980D02*
X021250Y016720D01*
X022250Y016720D02*
X022250Y016980D01*
X023250Y016980D02*
X023250Y016720D01*
X024250Y016720D02*
X024250Y016980D01*
X025250Y016980D02*
X025250Y016720D01*
X026250Y016720D02*
X026250Y016980D01*
D16*
X025300Y018400D03*
X023400Y018350D03*
X021450Y018300D03*
X021450Y022300D03*
X022400Y022350D03*
X023400Y022350D03*
X024450Y022500D03*
X025300Y022400D03*
X020300Y022400D03*
X020300Y026400D03*
X022400Y026350D03*
X024450Y026500D03*
X012650Y019513D03*
X008650Y019513D03*
D17*
X008850Y016250D03*
X008850Y015250D03*
X008850Y014250D03*
X008850Y013250D03*
X011850Y013250D03*
X011850Y014250D03*
X011850Y015250D03*
X011850Y016250D03*
D18*
X013850Y011600D02*
X013850Y010600D01*
X014850Y010600D02*
X014850Y011600D01*
X015850Y011600D02*
X015850Y010600D01*
X016850Y010600D02*
X016850Y011600D01*
X018850Y011600D02*
X018850Y010600D01*
X019850Y010600D02*
X019850Y011600D01*
X020850Y011600D02*
X020850Y010600D01*
X023850Y010600D02*
X023850Y011600D01*
X024850Y011600D02*
X024850Y010600D01*
X025850Y010600D02*
X025850Y011600D01*
X026850Y028600D02*
X026850Y029600D01*
X023850Y029600D02*
X023850Y028600D01*
X022850Y028600D02*
X022850Y029600D01*
X018250Y029600D02*
X018250Y028600D01*
X017250Y028600D02*
X017250Y029600D01*
X015250Y029600D02*
X015250Y028600D01*
X014250Y028600D02*
X014250Y029600D01*
X013250Y029600D02*
X013250Y028600D01*
X012250Y028600D02*
X012250Y029600D01*
D19*
X004515Y010141D02*
X004511Y010130D01*
X005189Y010130D01*
X005185Y010141D01*
X005161Y010230D01*
X005153Y010288D01*
X005774Y010288D01*
X005774Y010448D01*
X005774Y011068D01*
X005716Y011061D01*
X005627Y011037D01*
X005541Y011001D01*
X005461Y010955D01*
X005388Y010899D01*
X005323Y010834D01*
X005266Y010760D01*
X005220Y010680D01*
X005185Y010595D01*
X005161Y010506D01*
X005153Y010448D01*
X005774Y010448D01*
X005934Y010448D01*
X005934Y011068D01*
X005992Y011061D01*
X006081Y011037D01*
X006166Y011001D01*
X006246Y010955D01*
X006320Y010899D01*
X006385Y010834D01*
X006441Y010760D01*
X006488Y010680D01*
X006523Y010595D01*
X006547Y010506D01*
X006554Y010448D01*
X005934Y010448D01*
X005934Y010288D01*
X006554Y010288D01*
X006547Y010230D01*
X006523Y010141D01*
X006519Y010130D01*
X013544Y010130D01*
X013471Y010203D01*
X013403Y010368D01*
X013403Y010832D01*
X013471Y010997D01*
X013570Y011096D01*
X013570Y011104D01*
X013471Y011203D01*
X013403Y011368D01*
X013403Y011832D01*
X013471Y011997D01*
X013597Y012122D01*
X013761Y012191D01*
X013939Y012191D01*
X014103Y012122D01*
X014229Y011997D01*
X014297Y011832D01*
X014297Y011368D01*
X014229Y011203D01*
X014130Y011104D01*
X014130Y011096D01*
X014229Y010997D01*
X014297Y010832D01*
X014297Y010368D01*
X014229Y010203D01*
X014156Y010130D01*
X014544Y010130D01*
X014471Y010203D01*
X014403Y010368D01*
X014403Y010832D01*
X014471Y010997D01*
X014570Y011096D01*
X014570Y011104D01*
X014471Y011203D01*
X014403Y011368D01*
X014403Y011832D01*
X014471Y011997D01*
X014597Y012122D01*
X014761Y012191D01*
X014939Y012191D01*
X015103Y012122D01*
X015229Y011997D01*
X015297Y011832D01*
X015297Y011368D01*
X015229Y011203D01*
X015130Y011104D01*
X015130Y011096D01*
X015229Y010997D01*
X015297Y010832D01*
X015297Y010368D01*
X015229Y010203D01*
X015156Y010130D01*
X015544Y010130D01*
X015471Y010203D01*
X015403Y010368D01*
X015403Y010832D01*
X015471Y010997D01*
X015570Y011096D01*
X015570Y011104D01*
X015471Y011203D01*
X015403Y011368D01*
X015403Y011832D01*
X015471Y011997D01*
X015597Y012122D01*
X015761Y012191D01*
X015939Y012191D01*
X016103Y012122D01*
X016229Y011997D01*
X016297Y011832D01*
X016297Y011368D01*
X016229Y011203D01*
X016130Y011104D01*
X016130Y011096D01*
X016229Y010997D01*
X016297Y010832D01*
X016297Y010368D01*
X016229Y010203D01*
X016156Y010130D01*
X016544Y010130D01*
X016471Y010203D01*
X016403Y010368D01*
X016403Y010832D01*
X016471Y010997D01*
X016570Y011096D01*
X016570Y011104D01*
X016471Y011203D01*
X016403Y011368D01*
X016403Y011832D01*
X016471Y011997D01*
X016597Y012122D01*
X016761Y012191D01*
X016939Y012191D01*
X017103Y012122D01*
X017229Y011997D01*
X017297Y011832D01*
X017297Y011368D01*
X017229Y011203D01*
X017130Y011104D01*
X017130Y011096D01*
X017229Y010997D01*
X017297Y010832D01*
X017297Y010368D01*
X017229Y010203D01*
X017156Y010130D01*
X017544Y010130D01*
X017471Y010203D01*
X017403Y010368D01*
X017403Y010832D01*
X017471Y010997D01*
X017574Y011100D01*
X017471Y011203D01*
X017403Y011368D01*
X017403Y011832D01*
X017471Y011997D01*
X017597Y012122D01*
X017761Y012191D01*
X017939Y012191D01*
X018103Y012122D01*
X018229Y011997D01*
X018297Y011832D01*
X018297Y011368D01*
X018229Y011203D01*
X018126Y011100D01*
X018229Y010997D01*
X018297Y010832D01*
X018297Y010368D01*
X018229Y010203D01*
X018156Y010130D01*
X018516Y010130D01*
X018494Y010152D01*
X018451Y010212D01*
X018417Y010277D01*
X018394Y010347D01*
X018383Y010420D01*
X018383Y010586D01*
X018836Y010586D01*
X018836Y010614D01*
X018836Y011586D01*
X018383Y011586D01*
X018383Y011420D01*
X018394Y011347D01*
X018417Y011277D01*
X018451Y011212D01*
X018494Y011152D01*
X018546Y011100D01*
X018546Y011100D01*
X018546Y011100D01*
X018494Y011048D01*
X018451Y010988D01*
X018417Y010923D01*
X018394Y010853D01*
X018383Y010780D01*
X018383Y010614D01*
X018836Y010614D01*
X018864Y010614D01*
X019317Y010614D01*
X019317Y010780D01*
X019306Y010853D01*
X019283Y010923D01*
X019249Y010988D01*
X019206Y011048D01*
X019154Y011100D01*
X019154Y011100D01*
X019154Y011100D01*
X019206Y011152D01*
X019249Y011212D01*
X019283Y011277D01*
X019306Y011347D01*
X019317Y011420D01*
X019317Y011586D01*
X018864Y011586D01*
X018864Y011614D01*
X019317Y011614D01*
X019317Y011780D01*
X019306Y011853D01*
X019283Y011923D01*
X019249Y011988D01*
X019244Y011996D01*
X019260Y011996D01*
X019393Y012051D01*
X019494Y012152D01*
X019549Y012284D01*
X019549Y012390D01*
X019654Y012390D01*
X019786Y012444D01*
X019887Y012546D01*
X019942Y012678D01*
X019942Y012821D01*
X019887Y012954D01*
X019786Y013055D01*
X019654Y013110D01*
X019511Y013110D01*
X019378Y013055D01*
X019283Y012960D01*
X018958Y012960D01*
X018958Y013018D01*
X018903Y013150D01*
X018802Y013252D01*
X018670Y013306D01*
X018526Y013306D01*
X018394Y013252D01*
X018293Y013150D01*
X018238Y013018D01*
X018238Y012913D01*
X018133Y012913D01*
X018000Y012858D01*
X017899Y012757D01*
X017844Y012624D01*
X017844Y012481D01*
X017899Y012349D01*
X018000Y012248D01*
X018133Y012193D01*
X018276Y012193D01*
X018408Y012248D01*
X018503Y012343D01*
X018829Y012343D01*
X018829Y012284D01*
X018864Y012200D01*
X018864Y011614D01*
X018836Y011614D01*
X018836Y012211D01*
X018813Y012211D01*
X018741Y012199D01*
X018671Y012176D01*
X018605Y012143D01*
X018546Y012100D01*
X018494Y012048D01*
X018451Y011988D01*
X018417Y011923D01*
X018394Y011853D01*
X018383Y011780D01*
X018383Y011614D01*
X018836Y011614D01*
X018836Y011586D01*
X018864Y011586D01*
X018864Y010989D01*
X018864Y010614D01*
X018864Y010586D01*
X019317Y010586D01*
X019317Y010420D01*
X019306Y010347D01*
X019283Y010277D01*
X019249Y010212D01*
X019206Y010152D01*
X019184Y010130D01*
X019516Y010130D01*
X019494Y010152D01*
X019451Y010212D01*
X019417Y010277D01*
X019394Y010347D01*
X019383Y010420D01*
X019383Y010586D01*
X019836Y010586D01*
X019836Y010614D01*
X019836Y011586D01*
X019383Y011586D01*
X019383Y011420D01*
X019394Y011347D01*
X019417Y011277D01*
X019451Y011212D01*
X019494Y011152D01*
X019546Y011100D01*
X019546Y011100D01*
X019546Y011100D01*
X019494Y011048D01*
X019451Y010988D01*
X019417Y010923D01*
X019394Y010853D01*
X019383Y010780D01*
X019383Y010614D01*
X019836Y010614D01*
X019864Y010614D01*
X020317Y010614D01*
X020317Y010780D01*
X020306Y010853D01*
X020283Y010923D01*
X020249Y010988D01*
X020206Y011048D01*
X020154Y011100D01*
X020154Y011100D01*
X020154Y011100D01*
X020206Y011152D01*
X020249Y011212D01*
X020283Y011277D01*
X020306Y011347D01*
X020317Y011420D01*
X020317Y011586D01*
X019864Y011586D01*
X019864Y011614D01*
X019836Y011614D01*
X019836Y012211D01*
X019813Y012211D01*
X019741Y012199D01*
X019671Y012176D01*
X019605Y012143D01*
X019546Y012100D01*
X019494Y012048D01*
X019451Y011988D01*
X019417Y011923D01*
X019394Y011853D01*
X019383Y011780D01*
X019383Y011614D01*
X019836Y011614D01*
X019836Y011586D01*
X019864Y011586D01*
X019864Y010989D01*
X019864Y010614D01*
X019864Y010586D01*
X020317Y010586D01*
X020317Y010420D01*
X020306Y010347D01*
X020283Y010277D01*
X020249Y010212D01*
X020206Y010152D01*
X020184Y010130D01*
X020544Y010130D01*
X020471Y010203D01*
X020403Y010368D01*
X020403Y010832D01*
X020471Y010997D01*
X020570Y011096D01*
X020570Y011104D01*
X020471Y011203D01*
X020403Y011368D01*
X020403Y011832D01*
X020471Y011997D01*
X020597Y012122D01*
X020761Y012191D01*
X020939Y012191D01*
X021103Y012122D01*
X021229Y011997D01*
X021297Y011832D01*
X021297Y011368D01*
X021229Y011203D01*
X021130Y011104D01*
X021130Y011096D01*
X021229Y010997D01*
X021297Y010832D01*
X021297Y010368D01*
X021229Y010203D01*
X021156Y010130D01*
X022519Y010130D01*
X022460Y010189D01*
X022390Y010358D01*
X022390Y010841D01*
X022460Y011011D01*
X022549Y011100D01*
X022460Y011189D01*
X022390Y011358D01*
X022390Y011841D01*
X022460Y012011D01*
X022589Y012140D01*
X022758Y012210D01*
X022941Y012210D01*
X023111Y012140D01*
X023240Y012011D01*
X023310Y011841D01*
X023310Y011358D01*
X023240Y011189D01*
X023151Y011100D01*
X023240Y011011D01*
X023310Y010841D01*
X023310Y010358D01*
X023240Y010189D01*
X023181Y010130D01*
X023519Y010130D01*
X023460Y010189D01*
X023390Y010358D01*
X023390Y010841D01*
X023460Y011011D01*
X023549Y011100D01*
X023460Y011189D01*
X023390Y011358D01*
X023390Y011841D01*
X023460Y012011D01*
X023589Y012140D01*
X023758Y012210D01*
X023941Y012210D01*
X024111Y012140D01*
X024240Y012011D01*
X024310Y011841D01*
X024310Y011358D01*
X024240Y011189D01*
X024151Y011100D01*
X024240Y011011D01*
X024310Y010841D01*
X024310Y010358D01*
X024240Y010189D01*
X024181Y010130D01*
X024519Y010130D01*
X024460Y010189D01*
X024390Y010358D01*
X024390Y010841D01*
X024460Y011011D01*
X024549Y011100D01*
X024460Y011189D01*
X024390Y011358D01*
X024390Y011841D01*
X024460Y012011D01*
X024589Y012140D01*
X024758Y012210D01*
X024941Y012210D01*
X025111Y012140D01*
X025240Y012011D01*
X025310Y011841D01*
X025310Y011358D01*
X025240Y011189D01*
X025151Y011100D01*
X025240Y011011D01*
X025310Y010841D01*
X025310Y010358D01*
X025240Y010189D01*
X025181Y010130D01*
X025519Y010130D01*
X025460Y010189D01*
X025390Y010358D01*
X025390Y010841D01*
X025460Y011011D01*
X025549Y011100D01*
X025460Y011189D01*
X025390Y011358D01*
X025390Y011841D01*
X025460Y012011D01*
X025589Y012140D01*
X025758Y012210D01*
X025941Y012210D01*
X026111Y012140D01*
X026240Y012011D01*
X026310Y011841D01*
X026310Y011358D01*
X026240Y011189D01*
X026151Y011100D01*
X026240Y011011D01*
X026310Y010841D01*
X026310Y010358D01*
X026240Y010189D01*
X026181Y010130D01*
X026519Y010130D01*
X026460Y010189D01*
X026390Y010358D01*
X026390Y010841D01*
X026460Y011011D01*
X026549Y011100D01*
X026460Y011189D01*
X026390Y011358D01*
X026390Y011841D01*
X026460Y012011D01*
X026589Y012140D01*
X026758Y012210D01*
X026941Y012210D01*
X027111Y012140D01*
X027240Y012011D01*
X027310Y011841D01*
X027310Y011358D01*
X027240Y011189D01*
X027151Y011100D01*
X027240Y011011D01*
X027310Y010841D01*
X027310Y010358D01*
X027240Y010189D01*
X027181Y010130D01*
X027519Y010130D01*
X027460Y010189D01*
X027390Y010358D01*
X027390Y010841D01*
X027460Y011011D01*
X027549Y011100D01*
X027460Y011189D01*
X027390Y011358D01*
X027390Y011841D01*
X027460Y012011D01*
X027589Y012140D01*
X027758Y012210D01*
X027805Y012210D01*
X027740Y012454D01*
X027740Y012746D01*
X027816Y013028D01*
X027962Y013282D01*
X028168Y013488D01*
X028422Y013634D01*
X028704Y013710D01*
X028996Y013710D01*
X029278Y013634D01*
X029320Y013610D01*
X029320Y019334D01*
X029101Y019115D01*
X028914Y019115D01*
X028914Y019586D01*
X028886Y019586D01*
X028914Y019586D01*
X028886Y019586D02*
X028886Y019115D01*
X028699Y019115D01*
X028415Y019399D01*
X028415Y019586D01*
X028365Y019586D01*
X028415Y019586D02*
X028886Y019586D01*
X028886Y019614D01*
X028886Y020085D01*
X028699Y020085D01*
X028415Y019801D01*
X028415Y019614D01*
X028886Y019614D01*
X028914Y019614D01*
X028914Y020085D01*
X029101Y020085D01*
X029320Y019866D01*
X029320Y020362D01*
X029093Y020135D01*
X028707Y020135D01*
X028435Y020407D01*
X028435Y020793D01*
X028707Y021065D01*
X029093Y021065D01*
X029320Y020838D01*
X029320Y021362D01*
X029093Y021135D01*
X028707Y021135D01*
X028435Y021407D01*
X028435Y021793D01*
X028707Y022065D01*
X029093Y022065D01*
X029320Y021838D01*
X029320Y022590D01*
X029278Y022566D01*
X028996Y022490D01*
X028704Y022490D01*
X028422Y022566D01*
X028168Y022712D01*
X027962Y022918D01*
X027816Y023172D01*
X027740Y023454D01*
X027740Y023746D01*
X027816Y024028D01*
X027962Y024282D01*
X028168Y024488D01*
X028422Y024634D01*
X028704Y024710D01*
X028891Y024710D01*
X028550Y025051D01*
X028550Y025051D01*
X028401Y025200D01*
X028320Y025395D01*
X028320Y029780D01*
X028297Y029803D01*
X028297Y029368D01*
X028229Y029203D01*
X028126Y029100D01*
X028229Y028997D01*
X028297Y028832D01*
X028297Y028368D01*
X028229Y028203D01*
X028103Y028078D01*
X027939Y028009D01*
X027761Y028009D01*
X027597Y028078D01*
X027471Y028203D01*
X027403Y028368D01*
X027403Y028832D01*
X027471Y028997D01*
X027574Y029100D01*
X027471Y029203D01*
X027403Y029368D01*
X027403Y029832D01*
X027471Y029997D01*
X027544Y030070D01*
X027156Y030070D01*
X027229Y029997D01*
X027297Y029832D01*
X027297Y029368D01*
X027229Y029203D01*
X027130Y029104D01*
X027130Y029096D01*
X027229Y028997D01*
X027297Y028832D01*
X027297Y028368D01*
X027229Y028203D01*
X027103Y028078D01*
X026939Y028009D01*
X026761Y028009D01*
X026597Y028078D01*
X026471Y028203D01*
X026403Y028368D01*
X026403Y028832D01*
X026471Y028997D01*
X026570Y029096D01*
X026570Y029104D01*
X026471Y029203D01*
X026403Y029368D01*
X026403Y029832D01*
X026471Y029997D01*
X026544Y030070D01*
X026156Y030070D01*
X026229Y029997D01*
X026297Y029832D01*
X026297Y029368D01*
X026229Y029203D01*
X026126Y029100D01*
X026229Y028997D01*
X026297Y028832D01*
X026297Y028368D01*
X026229Y028203D01*
X026103Y028078D01*
X025939Y028009D01*
X025761Y028009D01*
X025597Y028078D01*
X025471Y028203D01*
X025403Y028368D01*
X025403Y028832D01*
X025471Y028997D01*
X025574Y029100D01*
X025471Y029203D01*
X025403Y029368D01*
X025403Y029832D01*
X025471Y029997D01*
X025544Y030070D01*
X025156Y030070D01*
X025229Y029997D01*
X025297Y029832D01*
X025297Y029368D01*
X025229Y029203D01*
X025126Y029100D01*
X025229Y028997D01*
X025297Y028832D01*
X025297Y028368D01*
X025229Y028203D01*
X025103Y028078D01*
X024939Y028009D01*
X024761Y028009D01*
X024597Y028078D01*
X024471Y028203D01*
X024403Y028368D01*
X024403Y028832D01*
X024471Y028997D01*
X024574Y029100D01*
X024471Y029203D01*
X024403Y029368D01*
X024403Y029832D01*
X024471Y029997D01*
X024544Y030070D01*
X024156Y030070D01*
X024229Y029997D01*
X024297Y029832D01*
X024297Y029368D01*
X024229Y029203D01*
X024130Y029104D01*
X024130Y029096D01*
X024229Y028997D01*
X024297Y028832D01*
X024297Y028368D01*
X024229Y028203D01*
X024103Y028078D01*
X023939Y028009D01*
X023761Y028009D01*
X023597Y028078D01*
X023471Y028203D01*
X023403Y028368D01*
X023403Y028832D01*
X023471Y028997D01*
X023570Y029096D01*
X023570Y029104D01*
X023471Y029203D01*
X023403Y029368D01*
X023403Y029832D01*
X023471Y029997D01*
X023544Y030070D01*
X023156Y030070D01*
X023229Y029997D01*
X023297Y029832D01*
X023297Y029368D01*
X023229Y029203D01*
X023130Y029104D01*
X023130Y029096D01*
X023229Y028997D01*
X023297Y028832D01*
X023297Y028368D01*
X023229Y028203D01*
X023103Y028078D01*
X022939Y028009D01*
X022761Y028009D01*
X022597Y028078D01*
X022471Y028203D01*
X022403Y028368D01*
X022403Y028832D01*
X022471Y028997D01*
X022570Y029096D01*
X022570Y029104D01*
X022471Y029203D01*
X022403Y029368D01*
X022403Y029832D01*
X022471Y029997D01*
X022544Y030070D01*
X022156Y030070D01*
X022229Y029997D01*
X022297Y029832D01*
X022297Y029368D01*
X022229Y029203D01*
X022126Y029100D01*
X022229Y028997D01*
X022297Y028832D01*
X022297Y028368D01*
X022229Y028203D01*
X022103Y028078D01*
X021939Y028009D01*
X021761Y028009D01*
X021597Y028078D01*
X021471Y028203D01*
X021403Y028368D01*
X021403Y028832D01*
X021471Y028997D01*
X021574Y029100D01*
X021471Y029203D01*
X021403Y029368D01*
X021403Y029832D01*
X021471Y029997D01*
X021544Y030070D01*
X021156Y030070D01*
X021229Y029997D01*
X021297Y029832D01*
X021297Y029368D01*
X021229Y029203D01*
X021126Y029100D01*
X021229Y028997D01*
X021297Y028832D01*
X021297Y028368D01*
X021229Y028203D01*
X021103Y028078D01*
X020939Y028009D01*
X020761Y028009D01*
X020597Y028078D01*
X020471Y028203D01*
X020403Y028368D01*
X020403Y028832D01*
X020471Y028997D01*
X020574Y029100D01*
X020471Y029203D01*
X020403Y029368D01*
X020403Y029832D01*
X020471Y029997D01*
X020544Y030070D01*
X019556Y030070D01*
X019629Y029997D01*
X019697Y029832D01*
X019697Y029368D01*
X019629Y029203D01*
X019526Y029100D01*
X019629Y028997D01*
X019697Y028832D01*
X019697Y028368D01*
X019629Y028203D01*
X019503Y028078D01*
X019339Y028009D01*
X019161Y028009D01*
X018997Y028078D01*
X018871Y028203D01*
X018803Y028368D01*
X018803Y028832D01*
X018871Y028997D01*
X018974Y029100D01*
X018871Y029203D01*
X018803Y029368D01*
X018803Y029832D01*
X018871Y029997D01*
X018944Y030070D01*
X018556Y030070D01*
X018629Y029997D01*
X018697Y029832D01*
X018697Y029368D01*
X018629Y029203D01*
X018530Y029104D01*
X018530Y029096D01*
X018629Y028997D01*
X018697Y028832D01*
X018697Y028368D01*
X018629Y028203D01*
X018503Y028078D01*
X018339Y028009D01*
X018161Y028009D01*
X017997Y028078D01*
X017871Y028203D01*
X017803Y028368D01*
X017803Y028832D01*
X017871Y028997D01*
X017970Y029096D01*
X017970Y029104D01*
X017871Y029203D01*
X017803Y029368D01*
X017803Y029832D01*
X017871Y029997D01*
X017944Y030070D01*
X017556Y030070D01*
X017629Y029997D01*
X017697Y029832D01*
X017697Y029368D01*
X017629Y029203D01*
X017530Y029104D01*
X017530Y029096D01*
X017629Y028997D01*
X017697Y028832D01*
X017697Y028368D01*
X017629Y028203D01*
X017503Y028078D01*
X017339Y028009D01*
X017161Y028009D01*
X016997Y028078D01*
X016871Y028203D01*
X016803Y028368D01*
X016803Y028832D01*
X016871Y028997D01*
X016970Y029096D01*
X016970Y029104D01*
X016871Y029203D01*
X016803Y029368D01*
X016803Y029832D01*
X016871Y029997D01*
X016944Y030070D01*
X016556Y030070D01*
X016629Y029997D01*
X016697Y029832D01*
X016697Y029368D01*
X016629Y029203D01*
X016526Y029100D01*
X016629Y028997D01*
X016697Y028832D01*
X016697Y028368D01*
X016629Y028203D01*
X016503Y028078D01*
X016339Y028009D01*
X016161Y028009D01*
X015997Y028078D01*
X015871Y028203D01*
X015803Y028368D01*
X015803Y028832D01*
X015871Y028997D01*
X015974Y029100D01*
X015871Y029203D01*
X015803Y029368D01*
X015803Y029832D01*
X015871Y029997D01*
X015944Y030070D01*
X015556Y030070D01*
X015629Y029997D01*
X015697Y029832D01*
X015697Y029368D01*
X015629Y029203D01*
X015530Y029104D01*
X015530Y029096D01*
X015629Y028997D01*
X015697Y028832D01*
X015697Y028368D01*
X015629Y028203D01*
X015503Y028078D01*
X015339Y028009D01*
X015161Y028009D01*
X014997Y028078D01*
X014871Y028203D01*
X014803Y028368D01*
X014803Y028832D01*
X014871Y028997D01*
X014970Y029096D01*
X014970Y029104D01*
X014871Y029203D01*
X014803Y029368D01*
X014803Y029832D01*
X014871Y029997D01*
X014944Y030070D01*
X014556Y030070D01*
X014629Y029997D01*
X014697Y029832D01*
X014697Y029368D01*
X014629Y029203D01*
X014530Y029104D01*
X014530Y029096D01*
X014629Y028997D01*
X014697Y028832D01*
X014697Y028368D01*
X014629Y028203D01*
X014503Y028078D01*
X014339Y028009D01*
X014161Y028009D01*
X013997Y028078D01*
X013871Y028203D01*
X013803Y028368D01*
X013803Y028832D01*
X013871Y028997D01*
X013970Y029096D01*
X013970Y029104D01*
X013871Y029203D01*
X013803Y029368D01*
X013803Y029832D01*
X013871Y029997D01*
X013944Y030070D01*
X013584Y030070D01*
X013606Y030048D01*
X013649Y029988D01*
X013683Y029923D01*
X013706Y029853D01*
X013717Y029780D01*
X013717Y029614D01*
X013264Y029614D01*
X013264Y029586D01*
X013717Y029586D01*
X013717Y029420D01*
X013706Y029347D01*
X013683Y029277D01*
X013649Y029212D01*
X013606Y029152D01*
X013554Y029100D01*
X013554Y029100D01*
X013554Y029100D01*
X013606Y029048D01*
X013649Y028988D01*
X013683Y028923D01*
X013706Y028853D01*
X013717Y028780D01*
X013717Y028614D01*
X013264Y028614D01*
X013264Y028586D01*
X013717Y028586D01*
X013717Y028420D01*
X013706Y028347D01*
X013683Y028277D01*
X013649Y028212D01*
X013606Y028152D01*
X013554Y028100D01*
X013495Y028057D01*
X013429Y028024D01*
X013359Y028001D01*
X013287Y027989D01*
X013264Y027989D01*
X013264Y028586D01*
X013236Y028586D01*
X013236Y027989D01*
X013213Y027989D01*
X013141Y028001D01*
X013071Y028024D01*
X013005Y028057D01*
X012946Y028100D01*
X012894Y028152D01*
X012851Y028212D01*
X012817Y028277D01*
X012794Y028347D01*
X012783Y028420D01*
X012783Y028586D01*
X013236Y028586D01*
X013236Y028614D01*
X013236Y028989D01*
X013236Y029586D01*
X012783Y029586D01*
X012783Y029420D01*
X012794Y029347D01*
X012817Y029277D01*
X012851Y029212D01*
X012894Y029152D01*
X012946Y029100D01*
X012946Y029100D01*
X012946Y029100D01*
X012894Y029048D01*
X012851Y028988D01*
X012817Y028923D01*
X012794Y028853D01*
X012783Y028780D01*
X012783Y028614D01*
X013236Y028614D01*
X013264Y028614D01*
X013264Y029586D01*
X013236Y029586D01*
X013236Y029614D01*
X012783Y029614D01*
X012783Y029780D01*
X012794Y029853D01*
X012817Y029923D01*
X012851Y029988D01*
X012894Y030048D01*
X012916Y030070D01*
X012556Y030070D01*
X012629Y029997D01*
X012697Y029832D01*
X012697Y029368D01*
X012629Y029203D01*
X012530Y029104D01*
X012530Y029096D01*
X012629Y028997D01*
X012697Y028832D01*
X012697Y028368D01*
X012629Y028203D01*
X012503Y028078D01*
X012339Y028009D01*
X012161Y028009D01*
X011997Y028078D01*
X011871Y028203D01*
X011803Y028368D01*
X011803Y028832D01*
X011871Y028997D01*
X011970Y029096D01*
X011970Y029104D01*
X011871Y029203D01*
X011803Y029368D01*
X011803Y029832D01*
X011871Y029997D01*
X011944Y030070D01*
X011556Y030070D01*
X011629Y029997D01*
X011697Y029832D01*
X011697Y029368D01*
X011629Y029203D01*
X011526Y029100D01*
X011629Y028997D01*
X011697Y028832D01*
X011697Y028368D01*
X011629Y028203D01*
X011503Y028078D01*
X011339Y028009D01*
X011161Y028009D01*
X010997Y028078D01*
X010871Y028203D01*
X010803Y028368D01*
X010803Y028832D01*
X010871Y028997D01*
X010974Y029100D01*
X010871Y029203D01*
X010803Y029368D01*
X010803Y029832D01*
X010871Y029997D01*
X010944Y030070D01*
X010556Y030070D01*
X010629Y029997D01*
X010697Y029832D01*
X010697Y029368D01*
X010629Y029203D01*
X010526Y029100D01*
X010629Y028997D01*
X010697Y028832D01*
X010697Y028368D01*
X010629Y028203D01*
X010503Y028078D01*
X010430Y028047D01*
X010430Y021306D01*
X010349Y021111D01*
X010200Y020962D01*
X010005Y020881D01*
X006139Y020881D01*
X006215Y020837D01*
X006288Y020781D01*
X006354Y020715D01*
X006410Y020642D01*
X006456Y020562D01*
X006491Y020477D01*
X006515Y020387D01*
X006523Y020330D01*
X005902Y020330D01*
X005902Y020170D01*
X006523Y020170D01*
X006515Y020112D01*
X006491Y020022D01*
X006456Y019937D01*
X006410Y019857D01*
X006354Y019784D01*
X006288Y019718D01*
X006215Y019662D01*
X006135Y019616D01*
X006050Y019581D01*
X005960Y019557D01*
X005902Y019549D01*
X005902Y020170D01*
X005742Y020170D01*
X005122Y020170D01*
X005129Y020112D01*
X005153Y020022D01*
X005189Y019937D01*
X005235Y019857D01*
X005291Y019784D01*
X005357Y019718D01*
X005430Y019662D01*
X005510Y019616D01*
X005595Y019581D01*
X005685Y019557D01*
X005742Y019549D01*
X005742Y020170D01*
X005742Y020330D01*
X005122Y020330D01*
X005129Y020387D01*
X005153Y020477D01*
X005189Y020562D01*
X005235Y020642D01*
X005291Y020715D01*
X005357Y020781D01*
X005430Y020837D01*
X005506Y020881D01*
X004131Y020881D01*
X004207Y020837D01*
X004280Y020781D01*
X004346Y020715D01*
X004402Y020642D01*
X004448Y020562D01*
X004484Y020477D01*
X004508Y020387D01*
X004515Y020330D01*
X003895Y020330D01*
X003895Y020170D01*
X004515Y020170D01*
X004508Y020112D01*
X004484Y020022D01*
X004448Y019937D01*
X004402Y019857D01*
X004346Y019784D01*
X004280Y019718D01*
X004207Y019662D01*
X004127Y019616D01*
X004042Y019581D01*
X003952Y019557D01*
X003895Y019549D01*
X003895Y020170D01*
X003735Y020170D01*
X003735Y019549D01*
X003677Y019557D01*
X003588Y019581D01*
X003502Y019616D01*
X003422Y019662D01*
X003380Y019694D01*
X003380Y018797D01*
X003422Y018829D01*
X003502Y018875D01*
X003588Y018911D01*
X003677Y018935D01*
X003735Y018942D01*
X003735Y018322D01*
X003895Y018322D01*
X004515Y018322D01*
X004508Y018380D01*
X004484Y018469D01*
X004448Y018554D01*
X004402Y018634D01*
X004346Y018708D01*
X004280Y018773D01*
X004207Y018829D01*
X004127Y018875D01*
X004042Y018911D01*
X003952Y018935D01*
X003895Y018942D01*
X003895Y018322D01*
X003895Y018162D01*
X004515Y018162D01*
X004508Y018104D01*
X004484Y018015D01*
X004448Y017929D01*
X004402Y017849D01*
X004346Y017776D01*
X004280Y017711D01*
X004207Y017654D01*
X004127Y017608D01*
X004042Y017573D01*
X003952Y017549D01*
X003895Y017541D01*
X003895Y018162D01*
X003735Y018162D01*
X003735Y017541D01*
X003677Y017549D01*
X003588Y017573D01*
X003502Y017608D01*
X003422Y017654D01*
X003380Y017687D01*
X003380Y016843D01*
X003380Y016844D01*
X003454Y016900D01*
X003534Y016946D01*
X003619Y016982D01*
X003708Y017005D01*
X003766Y017013D01*
X003766Y016393D01*
X003926Y016393D01*
X003926Y017013D01*
X003984Y017005D01*
X004073Y016982D01*
X004159Y016946D01*
X004239Y016900D01*
X004312Y016844D01*
X004377Y016778D01*
X004434Y016705D01*
X004480Y016625D01*
X004515Y016540D01*
X004539Y016450D01*
X004547Y016393D01*
X003926Y016393D01*
X003926Y016233D01*
X004547Y016233D01*
X004539Y016175D01*
X004515Y016085D01*
X004480Y016000D01*
X004434Y015920D01*
X004377Y015847D01*
X004312Y015781D01*
X004239Y015725D01*
X004159Y015679D01*
X004073Y015644D01*
X003984Y015620D01*
X003926Y015612D01*
X003926Y016233D01*
X003766Y016233D01*
X003766Y015612D01*
X003708Y015620D01*
X003619Y015644D01*
X003534Y015679D01*
X003454Y015725D01*
X003380Y015781D01*
X003380Y015782D01*
X003380Y014836D01*
X003380Y014836D01*
X003454Y014892D01*
X003534Y014938D01*
X003619Y014974D01*
X003708Y014998D01*
X003766Y015005D01*
X003766Y014385D01*
X003926Y014385D01*
X003926Y015005D01*
X003984Y014998D01*
X004073Y014974D01*
X004159Y014938D01*
X004239Y014892D01*
X004312Y014836D01*
X004377Y014771D01*
X004434Y014697D01*
X004480Y014617D01*
X004515Y014532D01*
X004539Y014443D01*
X004547Y014385D01*
X003926Y014385D01*
X003926Y014225D01*
X004547Y014225D01*
X004539Y014167D01*
X004515Y014078D01*
X004480Y013992D01*
X004434Y013912D01*
X004377Y013839D01*
X004312Y013774D01*
X004239Y013717D01*
X004159Y013671D01*
X004073Y013636D01*
X003984Y013612D01*
X003926Y013604D01*
X003926Y014225D01*
X003766Y014225D01*
X003766Y013604D01*
X003708Y013612D01*
X003619Y013636D01*
X003534Y013671D01*
X003454Y013717D01*
X003380Y013774D01*
X003380Y013774D01*
X003380Y012906D01*
X003380Y012907D01*
X003454Y012963D01*
X003534Y013009D01*
X003619Y013045D01*
X003708Y013068D01*
X003766Y013076D01*
X003766Y012456D01*
X003926Y012456D01*
X003926Y013076D01*
X003984Y013068D01*
X004073Y013045D01*
X004159Y013009D01*
X004239Y012963D01*
X004312Y012907D01*
X004377Y012841D01*
X004434Y012768D01*
X004480Y012688D01*
X004515Y012603D01*
X004539Y012513D01*
X004547Y012456D01*
X003926Y012456D01*
X003926Y012296D01*
X004547Y012296D01*
X004539Y012238D01*
X004515Y012148D01*
X004480Y012063D01*
X004434Y011983D01*
X004377Y011910D01*
X004312Y011844D01*
X004239Y011788D01*
X004159Y011742D01*
X004073Y011707D01*
X003984Y011683D01*
X003926Y011675D01*
X003926Y012296D01*
X003766Y012296D01*
X003766Y011675D01*
X003708Y011683D01*
X003619Y011707D01*
X003534Y011742D01*
X003454Y011788D01*
X003380Y011844D01*
X003380Y011845D01*
X003380Y010899D01*
X003380Y010899D01*
X003454Y010955D01*
X003534Y011001D01*
X003619Y011037D01*
X003708Y011061D01*
X003766Y011068D01*
X003766Y010448D01*
X003926Y010448D01*
X003926Y011068D01*
X003984Y011061D01*
X004073Y011037D01*
X004159Y011001D01*
X004239Y010955D01*
X004312Y010899D01*
X004377Y010834D01*
X004434Y010760D01*
X004480Y010680D01*
X004515Y010595D01*
X004539Y010506D01*
X004547Y010448D01*
X003926Y010448D01*
X003926Y010288D01*
X004547Y010288D01*
X004539Y010230D01*
X004515Y010141D01*
X004540Y010234D02*
X005160Y010234D01*
X005173Y010551D02*
X004527Y010551D01*
X004463Y010710D02*
X005237Y010710D01*
X005357Y010868D02*
X005032Y010868D01*
X004956Y010837D02*
X005153Y010918D01*
X005304Y011069D01*
X005385Y011265D01*
X005385Y011478D01*
X005304Y011675D01*
X005153Y011825D01*
X004956Y011907D01*
X004744Y011907D01*
X004547Y011825D01*
X004396Y011675D01*
X004315Y011478D01*
X004315Y011265D01*
X004396Y011069D01*
X004547Y010918D01*
X004744Y010837D01*
X004956Y010837D01*
X004668Y010868D02*
X004343Y010868D01*
X004439Y011027D02*
X004098Y011027D01*
X003926Y011027D02*
X003766Y011027D01*
X003766Y010868D02*
X003926Y010868D01*
X003926Y010710D02*
X003766Y010710D01*
X003766Y010551D02*
X003926Y010551D01*
X003926Y010393D02*
X005774Y010393D01*
X005774Y010551D02*
X005934Y010551D01*
X005934Y010393D02*
X013403Y010393D01*
X013403Y010551D02*
X006535Y010551D01*
X006471Y010710D02*
X013403Y010710D01*
X013418Y010868D02*
X006351Y010868D01*
X006106Y011027D02*
X013501Y011027D01*
X013489Y011185D02*
X005352Y011185D01*
X005385Y011344D02*
X013413Y011344D01*
X013403Y011502D02*
X005375Y011502D01*
X005309Y011661D02*
X013403Y011661D01*
X013403Y011819D02*
X006287Y011819D01*
X006320Y011844D02*
X006385Y011910D01*
X006441Y011983D01*
X006488Y012063D01*
X006523Y012148D01*
X006547Y012238D01*
X006554Y012296D01*
X005934Y012296D01*
X005934Y012456D01*
X005774Y012456D01*
X005774Y013076D01*
X005716Y013068D01*
X005627Y013045D01*
X005541Y013009D01*
X005461Y012963D01*
X005388Y012907D01*
X005323Y012841D01*
X005266Y012768D01*
X005220Y012688D01*
X005185Y012603D01*
X005161Y012513D01*
X005153Y012456D01*
X005774Y012456D01*
X005774Y012296D01*
X005153Y012296D01*
X005161Y012238D01*
X005185Y012148D01*
X005220Y012063D01*
X005266Y011983D01*
X005323Y011910D01*
X005388Y011844D01*
X005461Y011788D01*
X005541Y011742D01*
X005627Y011707D01*
X005716Y011683D01*
X005774Y011675D01*
X005774Y012296D01*
X005934Y012296D01*
X005934Y011675D01*
X005992Y011683D01*
X006081Y011707D01*
X006166Y011742D01*
X006246Y011788D01*
X006320Y011844D01*
X006437Y011978D02*
X013463Y011978D01*
X013629Y012136D02*
X006518Y012136D01*
X006554Y012295D02*
X017953Y012295D01*
X017856Y012453D02*
X005934Y012453D01*
X005934Y012456D02*
X006554Y012456D01*
X006547Y012513D01*
X006523Y012603D01*
X006488Y012688D01*
X006441Y012768D01*
X006385Y012841D01*
X006320Y012907D01*
X006246Y012963D01*
X006166Y013009D01*
X006081Y013045D01*
X005992Y013068D01*
X005934Y013076D01*
X005934Y012456D01*
X005934Y012612D02*
X005774Y012612D01*
X005774Y012770D02*
X005934Y012770D01*
X005934Y012929D02*
X005774Y012929D01*
X005416Y012929D02*
X004284Y012929D01*
X004432Y012770D02*
X005268Y012770D01*
X005189Y012612D02*
X004511Y012612D01*
X004547Y012295D02*
X005153Y012295D01*
X005190Y012136D02*
X004510Y012136D01*
X004429Y011978D02*
X005271Y011978D01*
X005159Y011819D02*
X005421Y011819D01*
X005774Y011819D02*
X005934Y011819D01*
X005934Y011978D02*
X005774Y011978D01*
X005774Y012136D02*
X005934Y012136D01*
X005934Y012295D02*
X005774Y012295D01*
X005774Y012453D02*
X003926Y012453D01*
X003926Y012295D02*
X003766Y012295D01*
X003766Y012136D02*
X003926Y012136D01*
X003926Y011978D02*
X003766Y011978D01*
X003766Y011819D02*
X003926Y011819D01*
X004279Y011819D02*
X004541Y011819D01*
X004391Y011661D02*
X003380Y011661D01*
X003380Y011819D02*
X003413Y011819D01*
X003380Y011502D02*
X004325Y011502D01*
X004315Y011344D02*
X003380Y011344D01*
X003380Y011185D02*
X004348Y011185D01*
X005261Y011027D02*
X005602Y011027D01*
X005774Y011027D02*
X005934Y011027D01*
X005934Y010868D02*
X005774Y010868D01*
X005774Y010710D02*
X005934Y010710D01*
X006547Y010234D02*
X013458Y010234D01*
X014242Y010234D02*
X014458Y010234D01*
X014403Y010393D02*
X014297Y010393D01*
X014297Y010551D02*
X014403Y010551D01*
X014403Y010710D02*
X014297Y010710D01*
X014282Y010868D02*
X014418Y010868D01*
X014501Y011027D02*
X014199Y011027D01*
X014211Y011185D02*
X014489Y011185D01*
X014413Y011344D02*
X014287Y011344D01*
X014297Y011502D02*
X014403Y011502D01*
X014403Y011661D02*
X014297Y011661D01*
X014297Y011819D02*
X014403Y011819D01*
X014463Y011978D02*
X014237Y011978D01*
X014071Y012136D02*
X014629Y012136D01*
X015071Y012136D02*
X015629Y012136D01*
X015463Y011978D02*
X015237Y011978D01*
X015297Y011819D02*
X015403Y011819D01*
X015403Y011661D02*
X015297Y011661D01*
X015297Y011502D02*
X015403Y011502D01*
X015413Y011344D02*
X015287Y011344D01*
X015211Y011185D02*
X015489Y011185D01*
X015501Y011027D02*
X015199Y011027D01*
X015282Y010868D02*
X015418Y010868D01*
X015403Y010710D02*
X015297Y010710D01*
X015297Y010551D02*
X015403Y010551D01*
X015403Y010393D02*
X015297Y010393D01*
X015242Y010234D02*
X015458Y010234D01*
X016242Y010234D02*
X016458Y010234D01*
X016403Y010393D02*
X016297Y010393D01*
X016297Y010551D02*
X016403Y010551D01*
X016403Y010710D02*
X016297Y010710D01*
X016282Y010868D02*
X016418Y010868D01*
X016501Y011027D02*
X016199Y011027D01*
X016211Y011185D02*
X016489Y011185D01*
X016413Y011344D02*
X016287Y011344D01*
X016297Y011502D02*
X016403Y011502D01*
X016403Y011661D02*
X016297Y011661D01*
X016297Y011819D02*
X016403Y011819D01*
X016463Y011978D02*
X016237Y011978D01*
X016071Y012136D02*
X016629Y012136D01*
X017071Y012136D02*
X017629Y012136D01*
X017463Y011978D02*
X017237Y011978D01*
X017297Y011819D02*
X017403Y011819D01*
X017403Y011661D02*
X017297Y011661D01*
X017297Y011502D02*
X017403Y011502D01*
X017413Y011344D02*
X017287Y011344D01*
X017211Y011185D02*
X017489Y011185D01*
X017501Y011027D02*
X017199Y011027D01*
X017282Y010868D02*
X017418Y010868D01*
X017403Y010710D02*
X017297Y010710D01*
X017297Y010551D02*
X017403Y010551D01*
X017403Y010393D02*
X017297Y010393D01*
X017242Y010234D02*
X017458Y010234D01*
X018242Y010234D02*
X018439Y010234D01*
X018387Y010393D02*
X018297Y010393D01*
X018297Y010551D02*
X018383Y010551D01*
X018383Y010710D02*
X018297Y010710D01*
X018282Y010868D02*
X018399Y010868D01*
X018478Y011027D02*
X018199Y011027D01*
X018211Y011185D02*
X018470Y011185D01*
X018396Y011344D02*
X018287Y011344D01*
X018297Y011502D02*
X018383Y011502D01*
X018383Y011661D02*
X018297Y011661D01*
X018297Y011819D02*
X018389Y011819D01*
X018445Y011978D02*
X018237Y011978D01*
X018071Y012136D02*
X018596Y012136D01*
X018455Y012295D02*
X018829Y012295D01*
X018836Y012136D02*
X018864Y012136D01*
X018864Y011978D02*
X018836Y011978D01*
X018836Y011819D02*
X018864Y011819D01*
X018864Y011661D02*
X018836Y011661D01*
X018836Y011502D02*
X018864Y011502D01*
X018864Y011344D02*
X018836Y011344D01*
X018836Y011185D02*
X018864Y011185D01*
X018864Y011027D02*
X018836Y011027D01*
X018836Y010868D02*
X018864Y010868D01*
X018864Y010710D02*
X018836Y010710D01*
X019317Y010710D02*
X019383Y010710D01*
X019399Y010868D02*
X019301Y010868D01*
X019222Y011027D02*
X019478Y011027D01*
X019470Y011185D02*
X019230Y011185D01*
X019304Y011344D02*
X019396Y011344D01*
X019383Y011502D02*
X019317Y011502D01*
X019317Y011661D02*
X019383Y011661D01*
X019389Y011819D02*
X019311Y011819D01*
X019255Y011978D02*
X019445Y011978D01*
X019478Y012136D02*
X019596Y012136D01*
X019549Y012295D02*
X022284Y012295D01*
X022331Y012248D02*
X022463Y012193D01*
X022607Y012193D01*
X022739Y012248D01*
X022834Y012343D01*
X024992Y012343D01*
X025087Y012248D01*
X025219Y012193D01*
X025363Y012193D01*
X025495Y012248D01*
X025596Y012349D01*
X025651Y012481D01*
X025651Y012624D01*
X025596Y012757D01*
X025505Y012848D01*
X025596Y012939D01*
X025651Y013072D01*
X025651Y013215D01*
X025596Y013347D01*
X025495Y013448D01*
X025363Y013503D01*
X025219Y013503D01*
X025087Y013448D01*
X024992Y013353D01*
X022834Y013353D01*
X022739Y013448D01*
X022607Y013503D01*
X022463Y013503D01*
X022331Y013448D01*
X022230Y013347D01*
X022175Y013215D01*
X022175Y013072D01*
X022230Y012939D01*
X022321Y012848D01*
X022230Y012757D01*
X022175Y012624D01*
X022175Y012481D01*
X022230Y012349D01*
X022331Y012248D01*
X022187Y012453D02*
X019795Y012453D01*
X019915Y012612D02*
X022175Y012612D01*
X022243Y012770D02*
X019942Y012770D01*
X019898Y012929D02*
X022241Y012929D01*
X022175Y013087D02*
X019708Y013087D01*
X019456Y013087D02*
X018929Y013087D01*
X018808Y013246D02*
X022188Y013246D01*
X022287Y013404D02*
X012258Y013404D01*
X012286Y013337D02*
X012219Y013497D01*
X012097Y013619D01*
X011937Y013686D01*
X011763Y013686D01*
X011603Y013619D01*
X011481Y013497D01*
X011414Y013337D01*
X011414Y013163D01*
X011481Y013003D01*
X011603Y012881D01*
X011763Y012814D01*
X011937Y012814D01*
X012097Y012881D01*
X012219Y013003D01*
X012286Y013163D01*
X012286Y013337D01*
X012286Y013246D02*
X018388Y013246D01*
X018267Y013087D02*
X012254Y013087D01*
X012145Y012929D02*
X018238Y012929D01*
X017912Y012770D02*
X006440Y012770D01*
X006519Y012612D02*
X017844Y012612D01*
X019836Y012136D02*
X019864Y012136D01*
X019864Y012211D02*
X019864Y011614D01*
X020317Y011614D01*
X020317Y011780D01*
X020306Y011853D01*
X020283Y011923D01*
X020249Y011988D01*
X020206Y012048D01*
X020154Y012100D01*
X020095Y012143D01*
X020029Y012176D01*
X019959Y012199D01*
X019887Y012211D01*
X019864Y012211D01*
X019864Y011978D02*
X019836Y011978D01*
X019836Y011819D02*
X019864Y011819D01*
X019864Y011661D02*
X019836Y011661D01*
X019836Y011502D02*
X019864Y011502D01*
X019864Y011344D02*
X019836Y011344D01*
X019836Y011185D02*
X019864Y011185D01*
X019864Y011027D02*
X019836Y011027D01*
X019836Y010868D02*
X019864Y010868D01*
X019864Y010710D02*
X019836Y010710D01*
X019383Y010551D02*
X019317Y010551D01*
X019313Y010393D02*
X019387Y010393D01*
X019439Y010234D02*
X019261Y010234D01*
X020261Y010234D02*
X020458Y010234D01*
X020403Y010393D02*
X020313Y010393D01*
X020317Y010551D02*
X020403Y010551D01*
X020403Y010710D02*
X020317Y010710D01*
X020301Y010868D02*
X020418Y010868D01*
X020501Y011027D02*
X020222Y011027D01*
X020230Y011185D02*
X020489Y011185D01*
X020413Y011344D02*
X020304Y011344D01*
X020317Y011502D02*
X020403Y011502D01*
X020403Y011661D02*
X020317Y011661D01*
X020311Y011819D02*
X020403Y011819D01*
X020463Y011978D02*
X020255Y011978D01*
X020104Y012136D02*
X020629Y012136D01*
X021071Y012136D02*
X022585Y012136D01*
X022446Y011978D02*
X021237Y011978D01*
X021297Y011819D02*
X022390Y011819D01*
X022390Y011661D02*
X021297Y011661D01*
X021297Y011502D02*
X022390Y011502D01*
X022396Y011344D02*
X021287Y011344D01*
X021211Y011185D02*
X022464Y011185D01*
X022476Y011027D02*
X021199Y011027D01*
X021282Y010868D02*
X022401Y010868D01*
X022390Y010710D02*
X021297Y010710D01*
X021297Y010551D02*
X022390Y010551D01*
X022390Y010393D02*
X021297Y010393D01*
X021242Y010234D02*
X022442Y010234D01*
X023258Y010234D02*
X023442Y010234D01*
X023390Y010393D02*
X023310Y010393D01*
X023310Y010551D02*
X023390Y010551D01*
X023390Y010710D02*
X023310Y010710D01*
X023299Y010868D02*
X023401Y010868D01*
X023476Y011027D02*
X023224Y011027D01*
X023236Y011185D02*
X023464Y011185D01*
X023396Y011344D02*
X023304Y011344D01*
X023310Y011502D02*
X023390Y011502D01*
X023390Y011661D02*
X023310Y011661D01*
X023310Y011819D02*
X023390Y011819D01*
X023446Y011978D02*
X023254Y011978D01*
X023115Y012136D02*
X023585Y012136D01*
X024115Y012136D02*
X024585Y012136D01*
X024446Y011978D02*
X024254Y011978D01*
X024310Y011819D02*
X024390Y011819D01*
X024390Y011661D02*
X024310Y011661D01*
X024310Y011502D02*
X024390Y011502D01*
X024396Y011344D02*
X024304Y011344D01*
X024236Y011185D02*
X024464Y011185D01*
X024476Y011027D02*
X024224Y011027D01*
X024299Y010868D02*
X024401Y010868D01*
X024390Y010710D02*
X024310Y010710D01*
X024310Y010551D02*
X024390Y010551D01*
X024390Y010393D02*
X024310Y010393D01*
X024258Y010234D02*
X024442Y010234D01*
X025258Y010234D02*
X025442Y010234D01*
X025390Y010393D02*
X025310Y010393D01*
X025310Y010551D02*
X025390Y010551D01*
X025390Y010710D02*
X025310Y010710D01*
X025299Y010868D02*
X025401Y010868D01*
X025476Y011027D02*
X025224Y011027D01*
X025236Y011185D02*
X025464Y011185D01*
X025396Y011344D02*
X025304Y011344D01*
X025310Y011502D02*
X025390Y011502D01*
X025390Y011661D02*
X025310Y011661D01*
X025310Y011819D02*
X025390Y011819D01*
X025446Y011978D02*
X025254Y011978D01*
X025115Y012136D02*
X025585Y012136D01*
X025542Y012295D02*
X027783Y012295D01*
X027740Y012453D02*
X025639Y012453D01*
X025651Y012612D02*
X027740Y012612D01*
X027746Y012770D02*
X025583Y012770D01*
X025585Y012929D02*
X027789Y012929D01*
X027850Y013087D02*
X025651Y013087D01*
X025638Y013246D02*
X027941Y013246D01*
X028084Y013404D02*
X025539Y013404D01*
X025043Y013404D02*
X022783Y013404D01*
X022786Y012295D02*
X025040Y012295D01*
X026115Y012136D02*
X026585Y012136D01*
X026446Y011978D02*
X026254Y011978D01*
X026310Y011819D02*
X026390Y011819D01*
X026390Y011661D02*
X026310Y011661D01*
X026310Y011502D02*
X026390Y011502D01*
X026396Y011344D02*
X026304Y011344D01*
X026236Y011185D02*
X026464Y011185D01*
X026476Y011027D02*
X026224Y011027D01*
X026299Y010868D02*
X026401Y010868D01*
X026390Y010710D02*
X026310Y010710D01*
X026310Y010551D02*
X026390Y010551D01*
X026390Y010393D02*
X026310Y010393D01*
X026258Y010234D02*
X026442Y010234D01*
X027258Y010234D02*
X027442Y010234D01*
X027390Y010393D02*
X027310Y010393D01*
X027310Y010551D02*
X027390Y010551D01*
X027390Y010710D02*
X027310Y010710D01*
X027299Y010868D02*
X027401Y010868D01*
X027476Y011027D02*
X027224Y011027D01*
X027236Y011185D02*
X027464Y011185D01*
X027396Y011344D02*
X027304Y011344D01*
X027310Y011502D02*
X027390Y011502D01*
X027390Y011661D02*
X027310Y011661D01*
X027310Y011819D02*
X027390Y011819D01*
X027446Y011978D02*
X027254Y011978D01*
X027115Y012136D02*
X027585Y012136D01*
X028297Y013563D02*
X012154Y013563D01*
X012094Y013880D02*
X029320Y013880D01*
X029320Y014038D02*
X012234Y014038D01*
X012219Y014003D02*
X012286Y014163D01*
X012286Y014337D01*
X012219Y014497D01*
X012097Y014619D01*
X011937Y014686D01*
X011763Y014686D01*
X011603Y014619D01*
X011481Y014497D01*
X011414Y014337D01*
X011414Y014163D01*
X011481Y014003D01*
X011603Y013881D01*
X011763Y013814D01*
X011937Y013814D01*
X012097Y013881D01*
X012219Y014003D01*
X012286Y014197D02*
X029320Y014197D01*
X029320Y014355D02*
X012278Y014355D01*
X012203Y014514D02*
X029320Y014514D01*
X029320Y014672D02*
X011969Y014672D01*
X011957Y014806D02*
X012025Y014828D01*
X012089Y014860D01*
X012147Y014902D01*
X012198Y014953D01*
X012240Y015011D01*
X012272Y015075D01*
X012294Y015143D01*
X012306Y015214D01*
X012306Y015250D01*
X012306Y015286D01*
X012294Y015357D01*
X012272Y015425D01*
X012240Y015489D01*
X012198Y015547D01*
X012147Y015598D01*
X012089Y015640D01*
X012025Y015672D01*
X011957Y015694D01*
X011886Y015706D01*
X011850Y015706D01*
X011814Y015706D01*
X011743Y015694D01*
X011675Y015672D01*
X011611Y015640D01*
X011553Y015598D01*
X011502Y015547D01*
X011460Y015489D01*
X011428Y015425D01*
X011406Y015357D01*
X011394Y015286D01*
X011394Y015250D01*
X011394Y015214D01*
X011406Y015143D01*
X011428Y015075D01*
X011460Y015011D01*
X011502Y014953D01*
X011553Y014902D01*
X011611Y014860D01*
X011675Y014828D01*
X011743Y014806D01*
X011814Y014794D01*
X011850Y014794D01*
X011850Y015250D01*
X012306Y015250D01*
X011850Y015250D01*
X011850Y015250D01*
X011850Y015250D01*
X011850Y015706D01*
X011850Y015250D01*
X011850Y014794D01*
X011886Y014794D01*
X011957Y014806D01*
X012030Y014831D02*
X029320Y014831D01*
X029320Y014989D02*
X012224Y014989D01*
X012295Y015148D02*
X029320Y015148D01*
X029320Y015306D02*
X012302Y015306D01*
X012252Y015465D02*
X029320Y015465D01*
X029320Y015623D02*
X012112Y015623D01*
X012097Y015881D02*
X011937Y015814D01*
X011763Y015814D01*
X011603Y015881D01*
X011481Y016003D01*
X011414Y016163D01*
X011414Y016337D01*
X011481Y016497D01*
X011603Y016619D01*
X011763Y016686D01*
X011937Y016686D01*
X012097Y016619D01*
X012219Y016497D01*
X012286Y016337D01*
X012286Y016163D01*
X012219Y016003D01*
X012097Y015881D01*
X012156Y015940D02*
X029320Y015940D01*
X029320Y015782D02*
X006320Y015782D01*
X006320Y015781D02*
X006385Y015847D01*
X006441Y015920D01*
X006488Y016000D01*
X006523Y016085D01*
X006547Y016175D01*
X006554Y016233D01*
X005934Y016233D01*
X005934Y016393D01*
X005774Y016393D01*
X005774Y017013D01*
X005716Y017005D01*
X005627Y016982D01*
X005541Y016946D01*
X005461Y016900D01*
X005388Y016844D01*
X005323Y016778D01*
X005266Y016705D01*
X005220Y016625D01*
X005185Y016540D01*
X005161Y016450D01*
X005153Y016393D01*
X005774Y016393D01*
X005774Y016233D01*
X005153Y016233D01*
X005161Y016175D01*
X005185Y016085D01*
X005220Y016000D01*
X005266Y015920D01*
X005323Y015847D01*
X005388Y015781D01*
X005461Y015725D01*
X005541Y015679D01*
X005627Y015644D01*
X005716Y015620D01*
X005774Y015612D01*
X005774Y016233D01*
X005934Y016233D01*
X005934Y015612D01*
X005992Y015620D01*
X006081Y015644D01*
X006166Y015679D01*
X006246Y015725D01*
X006320Y015781D01*
X006453Y015940D02*
X008544Y015940D01*
X008603Y015881D02*
X008763Y015814D01*
X008937Y015814D01*
X009097Y015881D01*
X009219Y016003D01*
X009286Y016163D01*
X009286Y016337D01*
X009219Y016497D01*
X009097Y016619D01*
X008937Y016686D01*
X008763Y016686D01*
X008603Y016619D01*
X008481Y016497D01*
X008414Y016337D01*
X008414Y016163D01*
X008481Y016003D01*
X008603Y015881D01*
X008763Y015686D02*
X008603Y015619D01*
X008481Y015497D01*
X008414Y015337D01*
X008414Y015163D01*
X008481Y015003D01*
X008603Y014881D01*
X008763Y014814D01*
X008937Y014814D01*
X009097Y014881D01*
X009219Y015003D01*
X009286Y015163D01*
X009286Y015337D01*
X009219Y015497D01*
X009097Y015619D01*
X008937Y015686D01*
X008763Y015686D01*
X008612Y015623D02*
X006004Y015623D01*
X005934Y015623D02*
X005774Y015623D01*
X005703Y015623D02*
X005292Y015623D01*
X005304Y015612D02*
X005153Y015762D01*
X004956Y015844D01*
X004744Y015844D01*
X004547Y015762D01*
X004396Y015612D01*
X004315Y015415D01*
X004315Y015202D01*
X004396Y015006D01*
X004547Y014855D01*
X004744Y014774D01*
X004956Y014774D01*
X005153Y014855D01*
X005304Y015006D01*
X005385Y015202D01*
X005385Y015415D01*
X005304Y015612D01*
X005365Y015465D02*
X008467Y015465D01*
X008414Y015306D02*
X005385Y015306D01*
X005362Y015148D02*
X008421Y015148D01*
X008495Y014989D02*
X006024Y014989D01*
X005992Y014998D02*
X005934Y015005D01*
X005934Y014385D01*
X005774Y014385D01*
X005774Y015005D01*
X005716Y014998D01*
X005627Y014974D01*
X005541Y014938D01*
X005461Y014892D01*
X005388Y014836D01*
X005323Y014771D01*
X005266Y014697D01*
X005220Y014617D01*
X005185Y014532D01*
X005161Y014443D01*
X005153Y014385D01*
X005774Y014385D01*
X005774Y014225D01*
X005153Y014225D01*
X005161Y014167D01*
X005185Y014078D01*
X005220Y013992D01*
X005266Y013912D01*
X005323Y013839D01*
X005388Y013774D01*
X005461Y013717D01*
X005541Y013671D01*
X005627Y013636D01*
X005716Y013612D01*
X005774Y013604D01*
X005774Y014225D01*
X005934Y014225D01*
X005934Y014385D01*
X006554Y014385D01*
X006547Y014443D01*
X006523Y014532D01*
X006488Y014617D01*
X006441Y014697D01*
X006385Y014771D01*
X006320Y014836D01*
X006246Y014892D01*
X006166Y014938D01*
X006081Y014974D01*
X005992Y014998D01*
X005934Y014989D02*
X005774Y014989D01*
X005684Y014989D02*
X005287Y014989D01*
X005383Y014831D02*
X005094Y014831D01*
X005252Y014672D02*
X004448Y014672D01*
X004520Y014514D02*
X005180Y014514D01*
X005157Y014197D02*
X004543Y014197D01*
X004499Y014038D02*
X005201Y014038D01*
X005292Y013880D02*
X004408Y013880D01*
X004243Y013721D02*
X005457Y013721D01*
X005774Y013721D02*
X005934Y013721D01*
X005934Y013604D02*
X005992Y013612D01*
X006081Y013636D01*
X006166Y013671D01*
X006246Y013717D01*
X006320Y013774D01*
X006385Y013839D01*
X006441Y013912D01*
X006488Y013992D01*
X006523Y014078D01*
X006547Y014167D01*
X006554Y014225D01*
X005934Y014225D01*
X005934Y013604D01*
X005934Y013880D02*
X005774Y013880D01*
X005774Y014038D02*
X005934Y014038D01*
X005934Y014197D02*
X005774Y014197D01*
X005774Y014355D02*
X003926Y014355D01*
X003926Y014197D02*
X003766Y014197D01*
X003766Y014038D02*
X003926Y014038D01*
X003926Y013880D02*
X003766Y013880D01*
X003766Y013721D02*
X003926Y013721D01*
X003449Y013721D02*
X003380Y013721D01*
X003380Y013563D02*
X008546Y013563D01*
X008603Y013619D02*
X008481Y013497D01*
X008414Y013337D01*
X008414Y013163D01*
X008481Y013003D01*
X008603Y012881D01*
X008763Y012814D01*
X008937Y012814D01*
X009097Y012881D01*
X009219Y013003D01*
X009286Y013163D01*
X009286Y013337D01*
X009219Y013497D01*
X009097Y013619D01*
X008937Y013686D01*
X008763Y013686D01*
X008603Y013619D01*
X008763Y013814D02*
X008603Y013881D01*
X008481Y014003D01*
X008414Y014163D01*
X008414Y014337D01*
X008481Y014497D01*
X008603Y014619D01*
X008763Y014686D01*
X008937Y014686D01*
X009097Y014619D01*
X009219Y014497D01*
X009286Y014337D01*
X009286Y014163D01*
X009219Y014003D01*
X009097Y013881D01*
X008937Y013814D01*
X008763Y013814D01*
X008606Y013880D02*
X006416Y013880D01*
X006506Y014038D02*
X008466Y014038D01*
X008414Y014197D02*
X006551Y014197D01*
X006528Y014514D02*
X008497Y014514D01*
X008422Y014355D02*
X005934Y014355D01*
X005934Y014514D02*
X005774Y014514D01*
X005774Y014672D02*
X005934Y014672D01*
X005934Y014831D02*
X005774Y014831D01*
X006325Y014831D02*
X008724Y014831D01*
X008731Y014672D02*
X006456Y014672D01*
X006251Y013721D02*
X029320Y013721D01*
X029320Y016099D02*
X012259Y016099D01*
X012286Y016257D02*
X029320Y016257D01*
X029320Y016416D02*
X026568Y016416D01*
X026586Y016433D02*
X026626Y016489D01*
X026658Y016551D01*
X026679Y016617D01*
X026690Y016685D01*
X026690Y016850D01*
X026690Y017015D01*
X026679Y017083D01*
X026658Y017149D01*
X026626Y017211D01*
X026586Y017267D01*
X026537Y017316D01*
X026481Y017356D01*
X026419Y017388D01*
X026353Y017409D01*
X026285Y017420D01*
X026250Y017420D01*
X026250Y016850D01*
X026690Y016850D01*
X026250Y016850D01*
X026250Y016850D01*
X026250Y016850D01*
X026250Y016280D01*
X026285Y016280D01*
X026353Y016291D01*
X026419Y016312D01*
X026481Y016344D01*
X026537Y016384D01*
X026586Y016433D01*
X026665Y016574D02*
X029320Y016574D01*
X029320Y016733D02*
X026690Y016733D01*
X026690Y016891D02*
X029320Y016891D01*
X029320Y017050D02*
X026684Y017050D01*
X026628Y017208D02*
X029320Y017208D01*
X029320Y017367D02*
X026461Y017367D01*
X026250Y017367D02*
X026250Y017367D01*
X026250Y017420D02*
X026215Y017420D01*
X026147Y017409D01*
X026081Y017388D01*
X026019Y017356D01*
X025963Y017316D01*
X025914Y017267D01*
X025874Y017211D01*
X025842Y017149D01*
X025821Y017083D01*
X025810Y017015D01*
X025810Y016850D01*
X026250Y016850D01*
X026250Y016850D01*
X026250Y016850D01*
X026250Y017420D01*
X026250Y017208D02*
X026250Y017208D01*
X026250Y017050D02*
X026250Y017050D01*
X026250Y016891D02*
X026250Y016891D01*
X026250Y016850D02*
X025810Y016850D01*
X025810Y016685D01*
X025821Y016617D01*
X025842Y016551D01*
X025874Y016489D01*
X025914Y016433D01*
X025963Y016384D01*
X026019Y016344D01*
X026081Y016312D01*
X026147Y016291D01*
X026215Y016280D01*
X026250Y016280D01*
X026250Y016850D01*
X026250Y016733D02*
X026250Y016733D01*
X026250Y016574D02*
X026250Y016574D01*
X026250Y016416D02*
X026250Y016416D01*
X025932Y016416D02*
X025539Y016416D01*
X025488Y016364D02*
X025606Y016482D01*
X025670Y016636D01*
X025670Y017064D01*
X025606Y017218D01*
X025488Y017336D01*
X025334Y017400D01*
X025166Y017400D01*
X025012Y017336D01*
X024894Y017218D01*
X024830Y017064D01*
X024830Y016636D01*
X024894Y016482D01*
X025012Y016364D01*
X025166Y016300D01*
X025334Y016300D01*
X025488Y016364D01*
X025644Y016574D02*
X025835Y016574D01*
X025810Y016733D02*
X025670Y016733D01*
X025670Y016891D02*
X025810Y016891D01*
X025816Y017050D02*
X025670Y017050D01*
X025610Y017208D02*
X025872Y017208D01*
X026039Y017367D02*
X025414Y017367D01*
X025086Y017367D02*
X024414Y017367D01*
X024488Y017336D02*
X024334Y017400D01*
X024166Y017400D01*
X024012Y017336D01*
X023894Y017218D01*
X023830Y017064D01*
X023830Y016636D01*
X023894Y016482D01*
X024012Y016364D01*
X024166Y016300D01*
X024334Y016300D01*
X024488Y016364D01*
X024606Y016482D01*
X024670Y016636D01*
X024670Y017064D01*
X024606Y017218D01*
X024488Y017336D01*
X024610Y017208D02*
X024890Y017208D01*
X024830Y017050D02*
X024670Y017050D01*
X024670Y016891D02*
X024830Y016891D01*
X024830Y016733D02*
X024670Y016733D01*
X024644Y016574D02*
X024856Y016574D01*
X024961Y016416D02*
X024539Y016416D01*
X023961Y016416D02*
X023539Y016416D01*
X023488Y016364D02*
X023606Y016482D01*
X023670Y016636D01*
X023670Y017064D01*
X023606Y017218D01*
X023488Y017336D01*
X023334Y017400D01*
X023166Y017400D01*
X023012Y017336D01*
X022894Y017218D01*
X022830Y017064D01*
X022830Y016636D01*
X022894Y016482D01*
X023012Y016364D01*
X023166Y016300D01*
X023334Y016300D01*
X023488Y016364D01*
X023644Y016574D02*
X023856Y016574D01*
X023830Y016733D02*
X023670Y016733D01*
X023670Y016891D02*
X023830Y016891D01*
X023830Y017050D02*
X023670Y017050D01*
X023610Y017208D02*
X023890Y017208D01*
X024086Y017367D02*
X023414Y017367D01*
X023086Y017367D02*
X022414Y017367D01*
X022488Y017336D02*
X022334Y017400D01*
X022166Y017400D01*
X022012Y017336D01*
X021894Y017218D01*
X021830Y017064D01*
X021830Y016636D01*
X021894Y016482D01*
X022012Y016364D01*
X022166Y016300D01*
X022334Y016300D01*
X022488Y016364D01*
X022606Y016482D01*
X022670Y016636D01*
X022670Y017064D01*
X022606Y017218D01*
X022488Y017336D01*
X022610Y017208D02*
X022890Y017208D01*
X022830Y017050D02*
X022670Y017050D01*
X022670Y016891D02*
X022830Y016891D01*
X022830Y016733D02*
X022670Y016733D01*
X022644Y016574D02*
X022856Y016574D01*
X022961Y016416D02*
X022539Y016416D01*
X021961Y016416D02*
X021539Y016416D01*
X021488Y016364D02*
X021606Y016482D01*
X021670Y016636D01*
X021670Y017064D01*
X021606Y017218D01*
X021488Y017336D01*
X021334Y017400D01*
X021166Y017400D01*
X021012Y017336D01*
X020894Y017218D01*
X020830Y017064D01*
X020830Y016636D01*
X020894Y016482D01*
X021012Y016364D01*
X021166Y016300D01*
X021334Y016300D01*
X021488Y016364D01*
X021644Y016574D02*
X021856Y016574D01*
X021830Y016733D02*
X021670Y016733D01*
X021670Y016891D02*
X021830Y016891D01*
X021830Y017050D02*
X021670Y017050D01*
X021610Y017208D02*
X021890Y017208D01*
X022086Y017367D02*
X021414Y017367D01*
X021086Y017367D02*
X020414Y017367D01*
X020488Y017336D02*
X020334Y017400D01*
X020166Y017400D01*
X020012Y017336D01*
X019894Y017218D01*
X019830Y017064D01*
X019830Y016636D01*
X019894Y016482D01*
X020012Y016364D01*
X020166Y016300D01*
X020334Y016300D01*
X020488Y016364D01*
X020606Y016482D01*
X020670Y016636D01*
X020670Y017064D01*
X020606Y017218D01*
X020488Y017336D01*
X020610Y017208D02*
X020890Y017208D01*
X020830Y017050D02*
X020670Y017050D01*
X020670Y016891D02*
X020830Y016891D01*
X020830Y016733D02*
X020670Y016733D01*
X020644Y016574D02*
X020856Y016574D01*
X020961Y016416D02*
X020539Y016416D01*
X019961Y016416D02*
X019539Y016416D01*
X019488Y016364D02*
X019606Y016482D01*
X019670Y016636D01*
X019670Y017064D01*
X019606Y017218D01*
X019488Y017336D01*
X019334Y017400D01*
X019166Y017400D01*
X019012Y017336D01*
X018894Y017218D01*
X018830Y017064D01*
X018830Y016636D01*
X018894Y016482D01*
X019012Y016364D01*
X019166Y016300D01*
X019334Y016300D01*
X019488Y016364D01*
X019644Y016574D02*
X019856Y016574D01*
X019830Y016733D02*
X019670Y016733D01*
X019670Y016891D02*
X019830Y016891D01*
X019830Y017050D02*
X019670Y017050D01*
X019610Y017208D02*
X019890Y017208D01*
X020086Y017367D02*
X019414Y017367D01*
X019086Y017367D02*
X003380Y017367D01*
X003380Y017525D02*
X029320Y017525D01*
X029320Y017684D02*
X006253Y017684D01*
X006288Y017711D02*
X006354Y017776D01*
X006410Y017849D01*
X006456Y017929D01*
X006491Y018015D01*
X006515Y018104D01*
X006523Y018162D01*
X005902Y018162D01*
X005902Y017541D01*
X005960Y017549D01*
X006050Y017573D01*
X006135Y017608D01*
X006215Y017654D01*
X006288Y017711D01*
X006404Y017842D02*
X029320Y017842D01*
X029320Y018001D02*
X025523Y018001D01*
X025482Y017960D02*
X025740Y018218D01*
X025740Y018400D01*
X025740Y018582D01*
X025482Y018840D01*
X025300Y018840D01*
X025300Y018400D01*
X025300Y018400D01*
X025740Y018400D01*
X025300Y018400D01*
X025300Y018400D01*
X025300Y018400D01*
X024860Y018400D01*
X024860Y018582D01*
X025118Y018840D01*
X025300Y018840D01*
X025300Y018400D01*
X025300Y017960D01*
X025482Y017960D01*
X025300Y017960D02*
X025300Y018400D01*
X025300Y018400D01*
X024860Y018400D01*
X024860Y018218D01*
X025118Y017960D01*
X025300Y017960D01*
X025300Y018001D02*
X025300Y018001D01*
X025300Y018159D02*
X025300Y018159D01*
X025300Y018318D02*
X025300Y018318D01*
X025300Y018476D02*
X025300Y018476D01*
X025300Y018635D02*
X025300Y018635D01*
X025300Y018793D02*
X025300Y018793D01*
X025529Y018793D02*
X029320Y018793D01*
X029320Y018635D02*
X025688Y018635D01*
X025740Y018476D02*
X029320Y018476D01*
X029320Y018318D02*
X025740Y018318D01*
X025681Y018159D02*
X029320Y018159D01*
X029320Y018952D02*
X005276Y018952D01*
X005272Y018943D02*
X005354Y019139D01*
X005354Y019352D01*
X005272Y019549D01*
X005122Y019699D01*
X004925Y019781D01*
X004712Y019781D01*
X004515Y019699D01*
X004365Y019549D01*
X004284Y019352D01*
X004284Y019139D01*
X004365Y018943D01*
X004515Y018792D01*
X004712Y018711D01*
X004925Y018711D01*
X005122Y018792D01*
X005272Y018943D01*
X005341Y019110D02*
X008459Y019110D01*
X008476Y019093D02*
X008824Y019093D01*
X009070Y019339D01*
X009070Y019687D01*
X008824Y019933D01*
X008476Y019933D01*
X008230Y019687D01*
X008230Y019339D01*
X008476Y019093D01*
X008300Y019269D02*
X005354Y019269D01*
X005322Y019427D02*
X008230Y019427D01*
X008230Y019586D02*
X006061Y019586D01*
X005902Y019586D02*
X005742Y019586D01*
X005742Y019744D02*
X005902Y019744D01*
X005902Y019903D02*
X005742Y019903D01*
X005742Y020061D02*
X005902Y020061D01*
X005902Y020220D02*
X027623Y020220D01*
X027707Y020135D02*
X027435Y020407D01*
X027435Y020793D01*
X027707Y021065D01*
X028093Y021065D01*
X028365Y020793D01*
X028365Y020407D01*
X028093Y020135D01*
X027707Y020135D01*
X027707Y020065D02*
X027435Y019793D01*
X027435Y019407D01*
X027707Y019135D01*
X028093Y019135D01*
X028365Y019407D01*
X028365Y019793D01*
X028093Y020065D01*
X027707Y020065D01*
X027703Y020061D02*
X006502Y020061D01*
X006436Y019903D02*
X008446Y019903D01*
X008287Y019744D02*
X006314Y019744D01*
X005583Y019586D02*
X005235Y019586D01*
X005331Y019744D02*
X005013Y019744D01*
X005209Y019903D02*
X004428Y019903D01*
X004494Y020061D02*
X005143Y020061D01*
X005128Y020378D02*
X004509Y020378D01*
X004459Y020537D02*
X005178Y020537D01*
X005276Y020695D02*
X004361Y020695D01*
X004179Y020854D02*
X005458Y020854D01*
X006186Y020854D02*
X027496Y020854D01*
X027435Y020695D02*
X006369Y020695D01*
X006467Y020537D02*
X027435Y020537D01*
X027464Y020378D02*
X006517Y020378D01*
X005742Y020220D02*
X003895Y020220D01*
X003895Y020061D02*
X003735Y020061D01*
X003735Y019903D02*
X003895Y019903D01*
X003895Y019744D02*
X003735Y019744D01*
X003735Y019586D02*
X003895Y019586D01*
X004054Y019586D02*
X004402Y019586D01*
X004315Y019427D02*
X003380Y019427D01*
X003380Y019269D02*
X004284Y019269D01*
X004296Y019110D02*
X003380Y019110D01*
X003380Y018952D02*
X004361Y018952D01*
X004254Y018793D02*
X004515Y018793D01*
X004402Y018635D02*
X005235Y018635D01*
X005235Y018634D02*
X005189Y018554D01*
X005153Y018469D01*
X005129Y018380D01*
X005122Y018322D01*
X005742Y018322D01*
X005742Y018162D01*
X005122Y018162D01*
X005129Y018104D01*
X005153Y018015D01*
X005189Y017929D01*
X005235Y017849D01*
X005291Y017776D01*
X005357Y017711D01*
X005430Y017654D01*
X005510Y017608D01*
X005595Y017573D01*
X005685Y017549D01*
X005742Y017541D01*
X005742Y018162D01*
X005902Y018162D01*
X005902Y018322D01*
X005742Y018322D01*
X005742Y018942D01*
X005685Y018935D01*
X005595Y018911D01*
X005510Y018875D01*
X005430Y018829D01*
X005357Y018773D01*
X005291Y018708D01*
X005235Y018634D01*
X005156Y018476D02*
X004481Y018476D01*
X004515Y018159D02*
X005122Y018159D01*
X005159Y018001D02*
X004478Y018001D01*
X004396Y017842D02*
X005241Y017842D01*
X005392Y017684D02*
X004245Y017684D01*
X003895Y017684D02*
X003735Y017684D01*
X003735Y017842D02*
X003895Y017842D01*
X003895Y018001D02*
X003735Y018001D01*
X003735Y018159D02*
X003895Y018159D01*
X003895Y018318D02*
X005742Y018318D01*
X005742Y018476D02*
X005902Y018476D01*
X005902Y018322D02*
X005902Y018942D01*
X005960Y018935D01*
X006050Y018911D01*
X006135Y018875D01*
X006215Y018829D01*
X006288Y018773D01*
X006354Y018708D01*
X006410Y018634D01*
X006456Y018554D01*
X006491Y018469D01*
X006515Y018380D01*
X006523Y018322D01*
X005902Y018322D01*
X005902Y018318D02*
X021030Y018318D01*
X021030Y018474D02*
X021030Y018126D01*
X021276Y017880D01*
X021624Y017880D01*
X021870Y018126D01*
X021870Y018474D01*
X021624Y018720D01*
X021276Y018720D01*
X021030Y018474D01*
X021032Y018476D02*
X006488Y018476D01*
X006410Y018635D02*
X021191Y018635D01*
X021709Y018635D02*
X023091Y018635D01*
X022980Y018524D02*
X023226Y018770D01*
X023574Y018770D01*
X023820Y018524D01*
X023820Y018176D01*
X023574Y017930D01*
X023226Y017930D01*
X022980Y018176D01*
X022980Y018524D01*
X022980Y018476D02*
X021868Y018476D01*
X021870Y018318D02*
X022980Y018318D01*
X022997Y018159D02*
X021870Y018159D01*
X021744Y018001D02*
X023156Y018001D01*
X023644Y018001D02*
X025077Y018001D01*
X024919Y018159D02*
X023803Y018159D01*
X023820Y018318D02*
X024860Y018318D01*
X024860Y018476D02*
X023820Y018476D01*
X023709Y018635D02*
X024912Y018635D01*
X025071Y018793D02*
X006262Y018793D01*
X005902Y018793D02*
X005742Y018793D01*
X005742Y018635D02*
X005902Y018635D01*
X005383Y018793D02*
X005122Y018793D01*
X005742Y018159D02*
X005902Y018159D01*
X005902Y018001D02*
X005742Y018001D01*
X005742Y017842D02*
X005902Y017842D01*
X005902Y017684D02*
X005742Y017684D01*
X006486Y018001D02*
X021156Y018001D01*
X021030Y018159D02*
X006523Y018159D01*
X005992Y017005D02*
X005934Y017013D01*
X005934Y016393D01*
X006554Y016393D01*
X006547Y016450D01*
X006523Y016540D01*
X006488Y016625D01*
X006441Y016705D01*
X006385Y016778D01*
X006320Y016844D01*
X006246Y016900D01*
X006166Y016946D01*
X006081Y016982D01*
X005992Y017005D01*
X005934Y016891D02*
X005774Y016891D01*
X005774Y016733D02*
X005934Y016733D01*
X005934Y016574D02*
X005774Y016574D01*
X005774Y016416D02*
X005934Y016416D01*
X005934Y016257D02*
X008414Y016257D01*
X008441Y016099D02*
X006526Y016099D01*
X006551Y016416D02*
X008447Y016416D01*
X008558Y016574D02*
X006509Y016574D01*
X006420Y016733D02*
X018830Y016733D01*
X018830Y016891D02*
X006258Y016891D01*
X005450Y016891D02*
X004250Y016891D01*
X004412Y016733D02*
X005288Y016733D01*
X005199Y016574D02*
X004501Y016574D01*
X004544Y016416D02*
X005156Y016416D01*
X005181Y016099D02*
X004519Y016099D01*
X004445Y015940D02*
X005255Y015940D01*
X005388Y015782D02*
X005106Y015782D01*
X004594Y015782D02*
X004312Y015782D01*
X004408Y015623D02*
X003997Y015623D01*
X003926Y015623D02*
X003766Y015623D01*
X003696Y015623D02*
X003380Y015623D01*
X003380Y015465D02*
X004335Y015465D01*
X004315Y015306D02*
X003380Y015306D01*
X003380Y015148D02*
X004338Y015148D01*
X004413Y014989D02*
X004016Y014989D01*
X003926Y014989D02*
X003766Y014989D01*
X003676Y014989D02*
X003380Y014989D01*
X003766Y014831D02*
X003926Y014831D01*
X003926Y014672D02*
X003766Y014672D01*
X003766Y014514D02*
X003926Y014514D01*
X004317Y014831D02*
X004606Y014831D01*
X003926Y015782D02*
X003766Y015782D01*
X003766Y015940D02*
X003926Y015940D01*
X003926Y016099D02*
X003766Y016099D01*
X003926Y016257D02*
X005774Y016257D01*
X005774Y016099D02*
X005934Y016099D01*
X005934Y015940D02*
X005774Y015940D01*
X005774Y015782D02*
X005934Y015782D01*
X003926Y016416D02*
X003766Y016416D01*
X003766Y016574D02*
X003926Y016574D01*
X003926Y016733D02*
X003766Y016733D01*
X003766Y016891D02*
X003926Y016891D01*
X003442Y016891D02*
X003380Y016891D01*
X003380Y017050D02*
X018830Y017050D01*
X018890Y017208D02*
X003380Y017208D01*
X003380Y017684D02*
X003384Y017684D01*
X003735Y018476D02*
X003895Y018476D01*
X003895Y018635D02*
X003735Y018635D01*
X003735Y018793D02*
X003895Y018793D01*
X003576Y019586D02*
X003380Y019586D01*
X004306Y019744D02*
X004624Y019744D01*
X008854Y019903D02*
X012418Y019903D01*
X012468Y019953D02*
X012210Y019695D01*
X012210Y019513D01*
X012650Y019513D01*
X012650Y019953D01*
X012832Y019953D01*
X013090Y019695D01*
X013090Y019513D01*
X012650Y019513D01*
X012650Y019513D01*
X012650Y019953D01*
X012468Y019953D01*
X012650Y019903D02*
X012650Y019903D01*
X012650Y019744D02*
X012650Y019744D01*
X012650Y019586D02*
X012650Y019586D01*
X012650Y019513D02*
X012650Y019513D01*
X012650Y019513D01*
X013090Y019513D01*
X013090Y019330D01*
X012832Y019073D01*
X012650Y019073D01*
X012650Y019513D01*
X012210Y019513D01*
X012210Y019330D01*
X012468Y019073D01*
X012650Y019073D01*
X012650Y019513D01*
X012650Y019513D01*
X012650Y019427D02*
X012650Y019427D01*
X012650Y019269D02*
X012650Y019269D01*
X012650Y019110D02*
X012650Y019110D01*
X012870Y019110D02*
X029320Y019110D01*
X029320Y019269D02*
X029255Y019269D01*
X028914Y019269D02*
X028886Y019269D01*
X028886Y019427D02*
X028914Y019427D01*
X028914Y019744D02*
X028886Y019744D01*
X028886Y019903D02*
X028914Y019903D01*
X028914Y020061D02*
X028886Y020061D01*
X028675Y020061D02*
X028097Y020061D01*
X028177Y020220D02*
X028623Y020220D01*
X028464Y020378D02*
X028336Y020378D01*
X028365Y020537D02*
X028435Y020537D01*
X028435Y020695D02*
X028365Y020695D01*
X028304Y020854D02*
X028496Y020854D01*
X028654Y021012D02*
X028146Y021012D01*
X028093Y021135D02*
X028365Y021407D01*
X028365Y021793D01*
X028093Y022065D01*
X027707Y022065D01*
X027435Y021793D01*
X027435Y021407D01*
X027707Y021135D01*
X028093Y021135D01*
X028128Y021171D02*
X028672Y021171D01*
X028513Y021329D02*
X028287Y021329D01*
X028365Y021488D02*
X028435Y021488D01*
X028435Y021646D02*
X028365Y021646D01*
X028353Y021805D02*
X028447Y021805D01*
X028605Y021963D02*
X028195Y021963D01*
X027605Y021963D02*
X023607Y021963D01*
X023574Y021930D02*
X023820Y022176D01*
X023820Y022524D01*
X023574Y022770D01*
X023226Y022770D01*
X022980Y022524D01*
X022980Y022176D01*
X023226Y021930D01*
X023574Y021930D01*
X023765Y022122D02*
X024235Y022122D01*
X024276Y022080D02*
X024624Y022080D01*
X024870Y022326D01*
X024870Y022674D01*
X024624Y022920D01*
X024276Y022920D01*
X024030Y022674D01*
X024030Y022326D01*
X024276Y022080D01*
X024076Y022280D02*
X023820Y022280D01*
X023820Y022439D02*
X024030Y022439D01*
X024030Y022597D02*
X023747Y022597D01*
X023588Y022756D02*
X024112Y022756D01*
X024270Y022914D02*
X010430Y022914D01*
X010430Y022756D02*
X020062Y022756D01*
X020126Y022820D02*
X019880Y022574D01*
X019880Y022226D01*
X020126Y021980D01*
X020474Y021980D01*
X020720Y022226D01*
X020720Y022574D01*
X020474Y022820D01*
X020126Y022820D01*
X019903Y022597D02*
X010430Y022597D01*
X010430Y022439D02*
X019880Y022439D01*
X019880Y022280D02*
X010430Y022280D01*
X010430Y022122D02*
X019985Y022122D01*
X020615Y022122D02*
X021035Y022122D01*
X021030Y022126D02*
X021276Y021880D01*
X021624Y021880D01*
X021870Y022126D01*
X021870Y022474D01*
X021624Y022720D01*
X021276Y022720D01*
X021030Y022474D01*
X021030Y022126D01*
X021030Y022280D02*
X020720Y022280D01*
X020720Y022439D02*
X021030Y022439D01*
X021153Y022597D02*
X020697Y022597D01*
X020538Y022756D02*
X022212Y022756D01*
X022226Y022770D02*
X021980Y022524D01*
X021980Y022176D01*
X022226Y021930D01*
X022574Y021930D01*
X022820Y022176D01*
X022820Y022524D01*
X022574Y022770D01*
X022226Y022770D01*
X022053Y022597D02*
X021747Y022597D01*
X021870Y022439D02*
X021980Y022439D01*
X021980Y022280D02*
X021870Y022280D01*
X021865Y022122D02*
X022035Y022122D01*
X022193Y021963D02*
X021707Y021963D01*
X021193Y021963D02*
X010430Y021963D01*
X010430Y021805D02*
X027447Y021805D01*
X027435Y021646D02*
X010430Y021646D01*
X010430Y021488D02*
X027435Y021488D01*
X027513Y021329D02*
X010430Y021329D01*
X010374Y021171D02*
X027672Y021171D01*
X027654Y021012D02*
X010251Y021012D01*
X009013Y019744D02*
X012259Y019744D01*
X012210Y019586D02*
X009070Y019586D01*
X009070Y019427D02*
X012210Y019427D01*
X012272Y019269D02*
X009000Y019269D01*
X008841Y019110D02*
X012430Y019110D01*
X013028Y019269D02*
X027574Y019269D01*
X027435Y019427D02*
X013090Y019427D01*
X013090Y019586D02*
X027435Y019586D01*
X027435Y019744D02*
X013041Y019744D01*
X012882Y019903D02*
X027545Y019903D01*
X028255Y019903D02*
X028516Y019903D01*
X028415Y019744D02*
X028365Y019744D01*
X028365Y019427D02*
X028415Y019427D01*
X028545Y019269D02*
X028226Y019269D01*
X029125Y020061D02*
X029320Y020061D01*
X029320Y019903D02*
X029284Y019903D01*
X029320Y020220D02*
X029177Y020220D01*
X029304Y020854D02*
X029320Y020854D01*
X029320Y021012D02*
X029146Y021012D01*
X029128Y021171D02*
X029320Y021171D01*
X029320Y021329D02*
X029287Y021329D01*
X029320Y021963D02*
X029195Y021963D01*
X029320Y022122D02*
X025615Y022122D01*
X025720Y022226D02*
X025474Y021980D01*
X025126Y021980D01*
X024880Y022226D01*
X024880Y022574D01*
X025126Y022820D01*
X025474Y022820D01*
X025720Y022574D01*
X025720Y022226D01*
X025720Y022280D02*
X029320Y022280D01*
X029320Y022439D02*
X025720Y022439D01*
X025697Y022597D02*
X028367Y022597D01*
X028125Y022756D02*
X025538Y022756D01*
X025062Y022756D02*
X024788Y022756D01*
X024870Y022597D02*
X024903Y022597D01*
X024880Y022439D02*
X024870Y022439D01*
X024880Y022280D02*
X024824Y022280D01*
X024665Y022122D02*
X024985Y022122D01*
X024630Y022914D02*
X027966Y022914D01*
X027873Y023073D02*
X010430Y023073D01*
X010430Y023231D02*
X027800Y023231D01*
X027757Y023390D02*
X010430Y023390D01*
X010430Y023548D02*
X027740Y023548D01*
X027740Y023707D02*
X010430Y023707D01*
X010430Y023865D02*
X027772Y023865D01*
X027814Y024024D02*
X010430Y024024D01*
X010430Y024182D02*
X027904Y024182D01*
X028021Y024341D02*
X010430Y024341D01*
X010430Y024499D02*
X028187Y024499D01*
X028508Y024658D02*
X010430Y024658D01*
X010430Y024816D02*
X028784Y024816D01*
X028626Y024975D02*
X010430Y024975D01*
X010430Y025133D02*
X028467Y025133D01*
X028363Y025292D02*
X010430Y025292D01*
X010430Y025450D02*
X028320Y025450D01*
X028320Y025609D02*
X010430Y025609D01*
X010430Y025767D02*
X028320Y025767D01*
X028320Y025926D02*
X010430Y025926D01*
X010430Y026084D02*
X020022Y026084D01*
X020126Y025980D02*
X019880Y026226D01*
X019880Y026574D01*
X020126Y026820D01*
X020474Y026820D01*
X020720Y026574D01*
X020720Y026226D01*
X020474Y025980D01*
X020126Y025980D01*
X019880Y026243D02*
X010430Y026243D01*
X010430Y026401D02*
X019880Y026401D01*
X019880Y026560D02*
X010430Y026560D01*
X010430Y026718D02*
X017309Y026718D01*
X017309Y026719D02*
X017410Y026618D01*
X017542Y026563D01*
X017685Y026563D01*
X017818Y026618D01*
X017919Y026719D01*
X017974Y026851D01*
X017974Y026994D01*
X017919Y027127D01*
X017818Y027228D01*
X017685Y027283D01*
X017551Y027283D01*
X017186Y027647D01*
X017186Y027782D01*
X017132Y027914D01*
X017030Y028015D01*
X016898Y028070D01*
X016755Y028070D01*
X016622Y028015D01*
X016521Y027914D01*
X016466Y027782D01*
X016466Y027639D01*
X016521Y027506D01*
X016622Y027405D01*
X016755Y027350D01*
X016889Y027350D01*
X017254Y026986D01*
X017254Y026851D01*
X017309Y026719D01*
X017254Y026877D02*
X010430Y026877D01*
X010430Y027035D02*
X017205Y027035D01*
X017046Y027194D02*
X010430Y027194D01*
X010430Y027352D02*
X016750Y027352D01*
X016519Y027511D02*
X010430Y027511D01*
X010430Y027669D02*
X016466Y027669D01*
X016485Y027828D02*
X010430Y027828D01*
X010430Y027986D02*
X016593Y027986D01*
X016570Y028145D02*
X016930Y028145D01*
X016830Y028303D02*
X016670Y028303D01*
X016697Y028462D02*
X016803Y028462D01*
X016803Y028620D02*
X016697Y028620D01*
X016697Y028779D02*
X016803Y028779D01*
X016846Y028937D02*
X016654Y028937D01*
X016530Y029096D02*
X016970Y029096D01*
X016850Y029254D02*
X016650Y029254D01*
X016697Y029413D02*
X016803Y029413D01*
X016803Y029571D02*
X016697Y029571D01*
X016697Y029730D02*
X016803Y029730D01*
X016826Y029888D02*
X016674Y029888D01*
X016579Y030047D02*
X016921Y030047D01*
X017579Y030047D02*
X017921Y030047D01*
X017826Y029888D02*
X017674Y029888D01*
X017697Y029730D02*
X017803Y029730D01*
X017803Y029571D02*
X017697Y029571D01*
X017697Y029413D02*
X017803Y029413D01*
X017850Y029254D02*
X017650Y029254D01*
X017530Y029096D02*
X017970Y029096D01*
X017846Y028937D02*
X017654Y028937D01*
X017697Y028779D02*
X017803Y028779D01*
X017803Y028620D02*
X017697Y028620D01*
X017697Y028462D02*
X017803Y028462D01*
X017830Y028303D02*
X017670Y028303D01*
X017570Y028145D02*
X017930Y028145D01*
X018570Y028145D02*
X018930Y028145D01*
X018830Y028303D02*
X018670Y028303D01*
X018697Y028462D02*
X018803Y028462D01*
X018803Y028620D02*
X018697Y028620D01*
X018697Y028779D02*
X018803Y028779D01*
X018846Y028937D02*
X018654Y028937D01*
X018530Y029096D02*
X018970Y029096D01*
X018850Y029254D02*
X018650Y029254D01*
X018697Y029413D02*
X018803Y029413D01*
X018803Y029571D02*
X018697Y029571D01*
X018697Y029730D02*
X018803Y029730D01*
X018826Y029888D02*
X018674Y029888D01*
X018579Y030047D02*
X018921Y030047D01*
X019579Y030047D02*
X020521Y030047D01*
X020426Y029888D02*
X019674Y029888D01*
X019697Y029730D02*
X020403Y029730D01*
X020403Y029571D02*
X019697Y029571D01*
X019697Y029413D02*
X020403Y029413D01*
X020450Y029254D02*
X019650Y029254D01*
X019530Y029096D02*
X020570Y029096D01*
X020446Y028937D02*
X019654Y028937D01*
X019697Y028779D02*
X020403Y028779D01*
X020403Y028620D02*
X019697Y028620D01*
X019697Y028462D02*
X020403Y028462D01*
X020430Y028303D02*
X019670Y028303D01*
X019570Y028145D02*
X020530Y028145D01*
X021170Y028145D02*
X021530Y028145D01*
X021430Y028303D02*
X021270Y028303D01*
X021297Y028462D02*
X021403Y028462D01*
X021403Y028620D02*
X021297Y028620D01*
X021297Y028779D02*
X021403Y028779D01*
X021446Y028937D02*
X021254Y028937D01*
X021130Y029096D02*
X021570Y029096D01*
X021450Y029254D02*
X021250Y029254D01*
X021297Y029413D02*
X021403Y029413D01*
X021403Y029571D02*
X021297Y029571D01*
X021297Y029730D02*
X021403Y029730D01*
X021426Y029888D02*
X021274Y029888D01*
X021179Y030047D02*
X021521Y030047D01*
X022179Y030047D02*
X022521Y030047D01*
X022426Y029888D02*
X022274Y029888D01*
X022297Y029730D02*
X022403Y029730D01*
X022403Y029571D02*
X022297Y029571D01*
X022297Y029413D02*
X022403Y029413D01*
X022450Y029254D02*
X022250Y029254D01*
X022130Y029096D02*
X022570Y029096D01*
X022446Y028937D02*
X022254Y028937D01*
X022297Y028779D02*
X022403Y028779D01*
X022403Y028620D02*
X022297Y028620D01*
X022297Y028462D02*
X022403Y028462D01*
X022430Y028303D02*
X022270Y028303D01*
X022170Y028145D02*
X022530Y028145D01*
X023170Y028145D02*
X023530Y028145D01*
X023430Y028303D02*
X023270Y028303D01*
X023297Y028462D02*
X023403Y028462D01*
X023403Y028620D02*
X023297Y028620D01*
X023297Y028779D02*
X023403Y028779D01*
X023446Y028937D02*
X023254Y028937D01*
X023130Y029096D02*
X023570Y029096D01*
X023450Y029254D02*
X023250Y029254D01*
X023297Y029413D02*
X023403Y029413D01*
X023403Y029571D02*
X023297Y029571D01*
X023297Y029730D02*
X023403Y029730D01*
X023426Y029888D02*
X023274Y029888D01*
X023179Y030047D02*
X023521Y030047D01*
X024179Y030047D02*
X024521Y030047D01*
X024426Y029888D02*
X024274Y029888D01*
X024297Y029730D02*
X024403Y029730D01*
X024403Y029571D02*
X024297Y029571D01*
X024297Y029413D02*
X024403Y029413D01*
X024450Y029254D02*
X024250Y029254D01*
X024130Y029096D02*
X024570Y029096D01*
X024446Y028937D02*
X024254Y028937D01*
X024297Y028779D02*
X024403Y028779D01*
X024403Y028620D02*
X024297Y028620D01*
X024297Y028462D02*
X024403Y028462D01*
X024430Y028303D02*
X024270Y028303D01*
X024170Y028145D02*
X024530Y028145D01*
X025170Y028145D02*
X025530Y028145D01*
X025430Y028303D02*
X025270Y028303D01*
X025297Y028462D02*
X025403Y028462D01*
X025403Y028620D02*
X025297Y028620D01*
X025297Y028779D02*
X025403Y028779D01*
X025446Y028937D02*
X025254Y028937D01*
X025130Y029096D02*
X025570Y029096D01*
X025450Y029254D02*
X025250Y029254D01*
X025297Y029413D02*
X025403Y029413D01*
X025403Y029571D02*
X025297Y029571D01*
X025297Y029730D02*
X025403Y029730D01*
X025426Y029888D02*
X025274Y029888D01*
X025179Y030047D02*
X025521Y030047D01*
X026179Y030047D02*
X026521Y030047D01*
X026426Y029888D02*
X026274Y029888D01*
X026297Y029730D02*
X026403Y029730D01*
X026403Y029571D02*
X026297Y029571D01*
X026297Y029413D02*
X026403Y029413D01*
X026450Y029254D02*
X026250Y029254D01*
X026130Y029096D02*
X026570Y029096D01*
X026446Y028937D02*
X026254Y028937D01*
X026297Y028779D02*
X026403Y028779D01*
X026403Y028620D02*
X026297Y028620D01*
X026297Y028462D02*
X026403Y028462D01*
X026430Y028303D02*
X026270Y028303D01*
X026170Y028145D02*
X026530Y028145D01*
X027170Y028145D02*
X027530Y028145D01*
X027430Y028303D02*
X027270Y028303D01*
X027297Y028462D02*
X027403Y028462D01*
X027403Y028620D02*
X027297Y028620D01*
X027297Y028779D02*
X027403Y028779D01*
X027446Y028937D02*
X027254Y028937D01*
X027130Y029096D02*
X027570Y029096D01*
X027450Y029254D02*
X027250Y029254D01*
X027297Y029413D02*
X027403Y029413D01*
X027403Y029571D02*
X027297Y029571D01*
X027297Y029730D02*
X027403Y029730D01*
X027426Y029888D02*
X027274Y029888D01*
X027179Y030047D02*
X027521Y030047D01*
X028297Y029730D02*
X028320Y029730D01*
X028320Y029571D02*
X028297Y029571D01*
X028297Y029413D02*
X028320Y029413D01*
X028320Y029254D02*
X028250Y029254D01*
X028320Y029096D02*
X028130Y029096D01*
X028254Y028937D02*
X028320Y028937D01*
X028320Y028779D02*
X028297Y028779D01*
X028297Y028620D02*
X028320Y028620D01*
X028320Y028462D02*
X028297Y028462D01*
X028320Y028303D02*
X028270Y028303D01*
X028320Y028145D02*
X028170Y028145D01*
X028320Y027986D02*
X017060Y027986D01*
X017167Y027828D02*
X028320Y027828D01*
X028320Y027669D02*
X017186Y027669D01*
X017323Y027511D02*
X028320Y027511D01*
X028320Y027352D02*
X017482Y027352D01*
X017852Y027194D02*
X028320Y027194D01*
X028320Y027035D02*
X017957Y027035D01*
X017974Y026877D02*
X024233Y026877D01*
X024276Y026920D02*
X024030Y026674D01*
X024030Y026326D01*
X024276Y026080D01*
X024624Y026080D01*
X024870Y026326D01*
X024870Y026674D01*
X024624Y026920D01*
X024276Y026920D01*
X024074Y026718D02*
X022626Y026718D01*
X022574Y026770D02*
X022226Y026770D01*
X021980Y026524D01*
X021980Y026176D01*
X022226Y025930D01*
X022574Y025930D01*
X022820Y026176D01*
X022820Y026524D01*
X022574Y026770D01*
X022784Y026560D02*
X024030Y026560D01*
X024030Y026401D02*
X022820Y026401D01*
X022820Y026243D02*
X024114Y026243D01*
X024272Y026084D02*
X022728Y026084D01*
X022072Y026084D02*
X020578Y026084D01*
X020720Y026243D02*
X021980Y026243D01*
X021980Y026401D02*
X020720Y026401D01*
X020720Y026560D02*
X022016Y026560D01*
X022174Y026718D02*
X020576Y026718D01*
X020024Y026718D02*
X017918Y026718D01*
X015930Y028145D02*
X015570Y028145D01*
X015670Y028303D02*
X015830Y028303D01*
X015803Y028462D02*
X015697Y028462D01*
X015697Y028620D02*
X015803Y028620D01*
X015803Y028779D02*
X015697Y028779D01*
X015654Y028937D02*
X015846Y028937D01*
X015970Y029096D02*
X015530Y029096D01*
X015650Y029254D02*
X015850Y029254D01*
X015803Y029413D02*
X015697Y029413D01*
X015697Y029571D02*
X015803Y029571D01*
X015803Y029730D02*
X015697Y029730D01*
X015674Y029888D02*
X015826Y029888D01*
X015921Y030047D02*
X015579Y030047D01*
X014921Y030047D02*
X014579Y030047D01*
X014674Y029888D02*
X014826Y029888D01*
X014803Y029730D02*
X014697Y029730D01*
X014697Y029571D02*
X014803Y029571D01*
X014803Y029413D02*
X014697Y029413D01*
X014650Y029254D02*
X014850Y029254D01*
X014970Y029096D02*
X014530Y029096D01*
X014654Y028937D02*
X014846Y028937D01*
X014803Y028779D02*
X014697Y028779D01*
X014697Y028620D02*
X014803Y028620D01*
X014803Y028462D02*
X014697Y028462D01*
X014670Y028303D02*
X014830Y028303D01*
X014930Y028145D02*
X014570Y028145D01*
X013930Y028145D02*
X013598Y028145D01*
X013691Y028303D02*
X013830Y028303D01*
X013803Y028462D02*
X013717Y028462D01*
X013717Y028620D02*
X013803Y028620D01*
X013803Y028779D02*
X013717Y028779D01*
X013676Y028937D02*
X013846Y028937D01*
X013970Y029096D02*
X013558Y029096D01*
X013671Y029254D02*
X013850Y029254D01*
X013803Y029413D02*
X013716Y029413D01*
X013717Y029571D02*
X013803Y029571D01*
X013803Y029730D02*
X013717Y029730D01*
X013694Y029888D02*
X013826Y029888D01*
X013921Y030047D02*
X013607Y030047D01*
X013264Y029571D02*
X013236Y029571D01*
X013236Y029413D02*
X013264Y029413D01*
X013264Y029254D02*
X013236Y029254D01*
X013236Y029096D02*
X013264Y029096D01*
X013264Y028937D02*
X013236Y028937D01*
X013236Y028779D02*
X013264Y028779D01*
X013264Y028620D02*
X013236Y028620D01*
X013236Y028462D02*
X013264Y028462D01*
X013264Y028303D02*
X013236Y028303D01*
X013236Y028145D02*
X013264Y028145D01*
X012902Y028145D02*
X012570Y028145D01*
X012670Y028303D02*
X012809Y028303D01*
X012783Y028462D02*
X012697Y028462D01*
X012697Y028620D02*
X012783Y028620D01*
X012783Y028779D02*
X012697Y028779D01*
X012654Y028937D02*
X012824Y028937D01*
X012942Y029096D02*
X012530Y029096D01*
X012650Y029254D02*
X012829Y029254D01*
X012784Y029413D02*
X012697Y029413D01*
X012697Y029571D02*
X012783Y029571D01*
X012783Y029730D02*
X012697Y029730D01*
X012674Y029888D02*
X012806Y029888D01*
X012893Y030047D02*
X012579Y030047D01*
X011921Y030047D02*
X011579Y030047D01*
X011674Y029888D02*
X011826Y029888D01*
X011803Y029730D02*
X011697Y029730D01*
X011697Y029571D02*
X011803Y029571D01*
X011803Y029413D02*
X011697Y029413D01*
X011650Y029254D02*
X011850Y029254D01*
X011970Y029096D02*
X011530Y029096D01*
X011654Y028937D02*
X011846Y028937D01*
X011803Y028779D02*
X011697Y028779D01*
X011697Y028620D02*
X011803Y028620D01*
X011803Y028462D02*
X011697Y028462D01*
X011670Y028303D02*
X011830Y028303D01*
X011930Y028145D02*
X011570Y028145D01*
X010930Y028145D02*
X010570Y028145D01*
X010670Y028303D02*
X010830Y028303D01*
X010803Y028462D02*
X010697Y028462D01*
X010697Y028620D02*
X010803Y028620D01*
X010803Y028779D02*
X010697Y028779D01*
X010654Y028937D02*
X010846Y028937D01*
X010970Y029096D02*
X010530Y029096D01*
X010650Y029254D02*
X010850Y029254D01*
X010803Y029413D02*
X010697Y029413D01*
X010697Y029571D02*
X010803Y029571D01*
X010803Y029730D02*
X010697Y029730D01*
X010674Y029888D02*
X010826Y029888D01*
X010921Y030047D02*
X010579Y030047D01*
X010250Y029600D02*
X010250Y028600D01*
X022588Y022756D02*
X023212Y022756D01*
X023053Y022597D02*
X022747Y022597D01*
X022820Y022439D02*
X022980Y022439D01*
X022980Y022280D02*
X022820Y022280D01*
X022765Y022122D02*
X023035Y022122D01*
X023193Y021963D02*
X022607Y021963D01*
X024628Y026084D02*
X028320Y026084D01*
X028320Y026243D02*
X024786Y026243D01*
X024870Y026401D02*
X028320Y026401D01*
X028320Y026560D02*
X024870Y026560D01*
X024826Y026718D02*
X028320Y026718D01*
X028320Y026877D02*
X024667Y026877D01*
X018856Y016574D02*
X012142Y016574D01*
X012253Y016416D02*
X018961Y016416D01*
X011850Y015623D02*
X011850Y015623D01*
X011850Y015465D02*
X011850Y015465D01*
X011850Y015306D02*
X011850Y015306D01*
X011850Y015250D02*
X011850Y015250D01*
X011850Y015250D01*
X011394Y015250D01*
X011850Y015250D01*
X011850Y015148D02*
X011850Y015148D01*
X011850Y014989D02*
X011850Y014989D01*
X011850Y014831D02*
X011850Y014831D01*
X011670Y014831D02*
X008976Y014831D01*
X008969Y014672D02*
X011731Y014672D01*
X011497Y014514D02*
X009203Y014514D01*
X009278Y014355D02*
X011422Y014355D01*
X011414Y014197D02*
X009286Y014197D01*
X009234Y014038D02*
X011466Y014038D01*
X011606Y013880D02*
X009094Y013880D01*
X009154Y013563D02*
X011546Y013563D01*
X011442Y013404D02*
X009258Y013404D01*
X009286Y013246D02*
X011414Y013246D01*
X011446Y013087D02*
X009254Y013087D01*
X009145Y012929D02*
X011555Y012929D01*
X008555Y012929D02*
X006291Y012929D01*
X008414Y013246D02*
X003380Y013246D01*
X003380Y013404D02*
X008442Y013404D01*
X008446Y013087D02*
X003380Y013087D01*
X003380Y012929D02*
X003409Y012929D01*
X003766Y012929D02*
X003926Y012929D01*
X003926Y012770D02*
X003766Y012770D01*
X003766Y012612D02*
X003926Y012612D01*
X003594Y011027D02*
X003380Y011027D01*
X009205Y014989D02*
X011476Y014989D01*
X011405Y015148D02*
X009279Y015148D01*
X009286Y015306D02*
X011398Y015306D01*
X011448Y015465D02*
X009233Y015465D01*
X009088Y015623D02*
X011588Y015623D01*
X011544Y015940D02*
X009156Y015940D01*
X009259Y016099D02*
X011441Y016099D01*
X011414Y016257D02*
X009286Y016257D01*
X009253Y016416D02*
X011447Y016416D01*
X011558Y016574D02*
X009142Y016574D01*
X003380Y015782D02*
X003380Y015782D01*
D20*
X018204Y012553D02*
X018992Y012553D01*
X019189Y012356D01*
X019582Y012750D02*
X018795Y012750D01*
X018598Y012946D01*
X022535Y013143D02*
X025291Y013143D01*
X025291Y012553D02*
X022535Y012553D01*
X017614Y026923D02*
X016826Y027710D01*
D21*
X016826Y027710D03*
X017614Y026923D03*
X022535Y013143D03*
X022535Y012553D03*
X025291Y012553D03*
X025291Y013143D03*
X019582Y012750D03*
X019189Y012356D03*
X018598Y012946D03*
X018204Y012553D03*
D22*
X016419Y021900D03*
X012637Y021900D03*
X026800Y022300D03*
M02*
